<svg width="24" height="24" viewBox="0 0 24 24" fill="none" xmlns="http://www.w3.org/2000/svg">
    <path fill="#64748b" d="M5 4a3 3 0 0 0-3 3v10a3 3 0 0 0 3 3h8v-2H5a1 1 0 0 1-1-1V7a1 1 0 0 1 1-1h2.784a1 1 0 0 1 .635.227l2.393 1.966a3 3 0 0 0 1.904.682H19a1 1 0 0 1 1 1V10h2v-.125a3 3 0 0 0-3-3h-6.284a1 1 0 0 1-.635-.227L9.688 4.682A3 3 0 0 0 7.784 4z"/>
    <path fill="#fff" d="M22.875 17.23s-.014-.089-.023-.088l-1.618.156a.26.26 0 0 0-.238.244l-.044.637-1.252.09-.085-.578a.265.265 0 0 0-.261-.225h-1.708a.265.265 0 0 0-.26.225l-.086.577-1.252-.089-.044-.637a.26.26 0 0 0-.238-.244l-1.619-.156c-.008-.001-.014.088-.023.088l-.002.35 1.371.222.045.642c.009.13.114.236.244.245l1.724.123h.02c.13 0 .241-.096.26-.225l.088-.594h1.252l.088.594a.265.265 0 0 0 .28.225l1.724-.123a.265.265 0 0 0 .244-.245l.045-.642 1.37-.223z"/>
    <path fill="#478cbf" d="M14.124 14.59v2.64h.015l1.618.157a.174.174 0 0 1 .157.161l.05.715 1.412.1.098-.659a.174.174 0 0 1 .172-.149h1.708c.086 0 .16.064.172.15l.098.659 1.412-.101.05-.715a.174.174 0 0 1 .157-.161l1.618-.156h.014v-2.642c.229-.286.445-.603.61-.869a6.8 6.8 0 0 0-.893-1.17 9 9 0 0 0-.887.515c-.141-.14-.3-.255-.456-.374-.153-.124-.325-.214-.49-.319.05-.363.074-.72.083-1.093a5.7 5.7 0 0 0-1.328-.455 10 10 0 0 0-.493.96 3.4 3.4 0 0 0-.518-.04v-.001h-.006a3.4 3.4 0 0 0-.518.042 9 9 0 0 0-.493-.961 5.7 5.7 0 0 0-1.328.455c.01.373.033.73.082 1.093-.164.105-.336.195-.49.319-.155.12-.314.234-.455.374a9 9 0 0 0-.887-.516c-.33.356-.64.74-.893 1.171.199.312.412.625.61.87"/>
    <path fill="#478cbf" d="m21.423 17.72-.05.718a.174.174 0 0 1-.162.162l-1.724.123h-.012a.174.174 0 0 1-.173-.149l-.099-.67h-1.406l-.1.67a.174.174 0 0 1-.184.149l-1.724-.123a.174.174 0 0 1-.162-.162l-.05-.718-1.456-.14.003.361c0 1.538 1.95 2.276 4.373 2.285h.006c2.423-.009 4.372-.747 4.372-2.285l.003-.362z"/>
    <path fill="#fff" d="M17.18 15.662a.975.975 0 1 1-1.95 0 .975.975 0 0 1 1.95 0"/>
    <path fill="#414042" d="M16.946 15.72a.647.647 0 1 1-1.294 0 .647.647 0 0 1 1.294 0"/>
    <path fill="#fff" d="M18.5 16.726c-.173 0-.314-.128-.314-.285v-.898c0-.158.14-.286.314-.286.173 0 .314.128.314.286v.898c0 .157-.14.285-.314.285m1.32-1.064a.975.975 0 1 0 1.95 0 .975.975 0 0 0-1.95 0"/>
    <path fill="#414042" d="M20.054 15.72a.647.647 0 1 0 1.294 0 .647.647 0 0 0-1.294 0"/>
</svg>
