<svg width="24" height="24" viewBox="0 0 24 24" fill="none" xmlns="http://www.w3.org/2000/svg">
<path d="M7.78418 4C8.4786 4.00007 9.15187 4.24086 9.68848 4.68164L12.0811 6.64746C12.2599 6.79435 12.4844 6.87493 12.7158 6.875H19C20.6569 6.875 22 8.21815 22 9.875V10H20V9.875C20 9.32272 19.5523 8.875 19 8.875H12.7158C12.0214 8.87493 11.3481 8.63414 10.8115 8.19336L8.41895 6.22754C8.24013 6.08065 8.01558 6.00007 7.78418 6H5C4.44772 6 4 6.44772 4 7V17C4 17.5523 4.44772 18 5 18H13V20H5C3.34315 20 2 18.6569 2 17V7C2 5.34315 3.34315 4 5 4H7.78418Z" fill="#64748B"/>
<path d="M19 20C21.2091 20 23 18.2091 23 16C23 13.7909 21.2091 12 19 12C16.7909 12 15 13.7909 15 16C15 18.2091 16.7909 20 19 20Z" stroke="#60A5FA" stroke-width="0.888889" stroke-linecap="round" stroke-linejoin="round"/>
<path d="M17.4 16C17.4 14.5107 17.9729 13.0785 19 12C20.0271 13.0785 20.6 14.5107 20.6 16C20.6 17.4893 20.0271 18.9215 19 20C17.9729 18.9215 17.4 17.4893 17.4 16Z" stroke="#60A5FA" stroke-width="0.8" stroke-linecap="round" stroke-linejoin="round"/>
<path d="M15 16H23" stroke="#60A5FA" stroke-width="0.8" stroke-linecap="round" stroke-linejoin="round"/>
</svg>
