<svg width="24" height="24" viewBox="0 0 24 24" fill="none" xmlns="http://www.w3.org/2000/svg">
<path fill-rule="evenodd" clip-rule="evenodd" d="M5 4C3.34315 4 2 5.34315 2 7V17C2 18.6569 3.34315 20 5 20H13V18H5C4.44772 18 4 17.5523 4 17V7C4 6.44772 4.44772 6 5 6H7.78388C8.01539 6 8.23973 6.08033 8.41862 6.22727L10.8119 8.19318C11.3486 8.63402 12.0216 8.875 12.7161 8.875H19C19.5523 8.875 20 9.32272 20 9.875V10H22V9.875C22 8.21815 20.6569 6.875 19 6.875H12.7161C12.4846 6.875 12.2603 6.79467 12.0814 6.64773L9.6881 4.68182C9.15142 4.24098 8.47841 4 7.78388 4H5Z" fill="#64748B"/>
<path d="M23.9384 14.2734C23.9381 14.272 23.9379 14.271 23.9376 14.2696C23.9287 14.2272 23.7569 13.4211 23.5263 13.4211C23.3487 13.4211 22.64 14.2188 22.2952 14.6185C22.172 14.7616 21.9944 14.8421 21.8059 14.8421C21.4478 14.8421 21.1579 14.5522 21.1579 14.1941C21.1579 14.0056 21.2384 13.828 21.3815 13.7048C21.7813 13.36 22.5789 12.6513 22.5789 12.4737C22.5789 12.2416 21.7605 12.065 21.7278 12.058C21.7267 12.0578 21.7263 12.0577 21.7252 12.0575C21.54 12.0193 21.3487 12 21.1579 12C19.5904 12 18.3158 13.287 18.3158 14.8687C18.3158 14.8944 18.3162 14.9202 18.317 14.946C18.3274 15.2794 18.2431 15.6199 18.0052 15.8536L15.4447 18.3683C14.8517 18.9694 14.8517 19.9466 15.4452 20.5477C15.7342 20.839 16.1193 21.0001 16.5304 21.0001C16.9411 21.0001 17.3267 20.839 17.6104 20.552L20.2187 17.9893C20.4342 17.7776 20.7375 17.6821 21.0395 17.684C21.079 17.6842 21.1185 17.6842 21.1579 17.6842C22.7514 17.6842 24 16.4475 24 14.8687C24 14.6695 23.9793 14.4688 23.9384 14.2734Z" fill="#C084FC"/>
</svg>
