<svg width="24" height="24" viewBox="0 0 24 24" fill="none" xmlns="http://www.w3.org/2000/svg">
<path fill-rule="evenodd" clip-rule="evenodd" d="M18.9015 12.6665C18.9015 11.7465 19.6515 11 20.5755 11C20.7949 10.9995 21.0122 11.0422 21.2151 11.1256C21.418 11.2091 21.6024 11.3317 21.7579 11.4865C21.9134 11.6412 22.0369 11.8251 22.1213 12.0275C22.2057 12.23 22.2495 12.4471 22.25 12.6665C22.25 13.587 21.5 14.3335 20.5755 14.3335C20.3538 14.3338 20.1342 14.29 19.9296 14.2047C19.725 14.1193 19.5393 13.9942 19.3835 13.8365L17.066 15.4145C17.1305 15.736 17.0989 16.0694 16.975 16.373L19.516 18.043C19.8153 17.7989 20.1898 17.6659 20.576 17.6665C20.7954 17.666 21.0127 17.7088 21.2155 17.7923C21.4184 17.8758 21.6028 17.9985 21.7582 18.1533C21.9137 18.3081 22.0371 18.492 22.1215 18.6945C22.2059 18.897 22.2495 19.1141 22.25 19.3335C22.25 20.2535 21.5 21 20.5755 21C20.1325 21.0009 19.7074 20.8259 19.3934 20.5134C19.0795 20.2009 18.9026 19.7765 18.9015 19.3335C18.9011 19.0998 18.9504 18.8687 19.046 18.6555L16.525 17C16.2197 17.2655 15.8286 17.4113 15.424 17.4105C15.2046 17.411 14.9873 17.3683 14.7844 17.2848C14.5815 17.2013 14.3971 17.0787 14.2416 16.9238C14.0861 16.769 13.9627 16.5851 13.8784 16.3826C13.794 16.1801 13.7504 15.9629 13.75 15.7435C13.7505 15.5242 13.7941 15.307 13.8785 15.1046C13.9629 14.9021 14.0863 14.7182 14.2418 14.5635C14.3972 14.4087 14.5817 14.2861 14.7845 14.2026C14.9873 14.1192 15.2047 14.0765 15.424 14.077C15.956 14.077 16.429 14.3235 16.7355 14.7075L18.982 13.178C18.9286 13.0128 18.9014 12.8402 18.9015 12.6665Z" fill="#8B5CF6" stroke="#8B5CF6" stroke-width="0.5"/>
<path fill-rule="evenodd" clip-rule="evenodd" d="M5 4C3.34315 4 2 5.34315 2 7V17C2 18.6569 3.34315 20 5 20H13V18H5C4.44772 18 4 17.5523 4 17V7C4 6.44772 4.44772 6 5 6H7.78388C8.01539 6 8.23973 6.08033 8.41862 6.22727L10.8119 8.19318C11.3486 8.63402 12.0216 8.875 12.7161 8.875H19C19.5523 8.875 20 9.32272 20 9.875V10H22V9.875C22 8.21815 20.6569 6.875 19 6.875H12.7161C12.4846 6.875 12.2603 6.79467 12.0814 6.64773L9.6881 4.68182C9.15142 4.24098 8.47841 4 7.78388 4H5Z" fill="#64748B"/>
</svg>
