<svg width="24" height="24" viewBox="0 0 24 24" fill="none" xmlns="http://www.w3.org/2000/svg">
<path fill-rule="evenodd" clip-rule="evenodd" d="M5 4C3.34315 4 2 5.34315 2 7V17C2 18.6569 3.34315 20 5 20H13V18H5C4.44772 18 4 17.5523 4 17V7C4 6.44772 4.44772 6 5 6H7.78388C8.01539 6 8.23973 6.08033 8.41862 6.22727L10.8119 8.19318C11.3486 8.63402 12.0216 8.875 12.7161 8.875H19C19.5523 8.875 20 9.32272 20 9.875V10H22V9.875C22 8.21815 20.6569 6.875 19 6.875H12.7161C12.4846 6.875 12.2603 6.79467 12.0814 6.64773L9.6881 4.68182C9.15142 4.24098 8.47841 4 7.78388 4H5Z" fill="#64748B"/>
<path d="M19.0003 15.3736C19.708 15.3736 20.3743 15.2619 20.8842 15.0615C21.1375 14.962 21.3806 14.8296 21.5697 14.654C21.7596 14.4776 21.9355 14.2165 21.9355 13.8799C21.9355 13.5433 21.7596 13.2822 21.5697 13.1058C21.3806 12.9302 21.1375 12.7978 20.8842 12.6982C20.3743 12.4979 19.708 12.3862 19.0003 12.3862C18.2927 12.3862 17.6264 12.4979 17.1164 12.6982C16.8631 12.7978 16.6201 12.9302 16.431 13.1058C16.2411 13.2822 16.0652 13.5433 16.0652 13.8799C16.0652 14.2165 16.2411 14.4776 16.431 14.654C16.6201 14.8296 16.8631 14.962 17.1164 15.0615C17.6264 15.2619 18.2927 15.3736 19.0003 15.3736Z" stroke="#F472B6" stroke-width="1.12188"/>
<path d="M16.0687 19.2388V14.0634L16.5571 15.1345L16.8162 15.886L18.872 15.981L21.7294 14.8442L21.9313 14.0634V19.2388C21.9313 19.9026 21.3931 20.4408 20.7293 20.4408H17.2707C16.6069 20.4408 16.0687 19.9026 16.0687 19.2388Z" fill="#F472B6" stroke="#F472B6" stroke-width="1.12188" stroke-linejoin="round"/>
</svg>
