<?xml version="1.0" encoding="UTF-8" standalone="no"?>
<!DOCTYPE svg PUBLIC "-//W3C//DTD SVG 1.1//EN" "http://www.w3.org/Graphics/SVG/1.1/DTD/svg11.dtd">
<svg width="100%" height="100%" viewBox="0 0 24 24" version="1.1" xmlns="http://www.w3.org/2000/svg" xmlns:xlink="http://www.w3.org/1999/xlink" xml:space="preserve" xmlns:serif="http://www.serif.com/" style="fill-rule:evenodd;clip-rule:evenodd;stroke-linejoin:round;stroke-miterlimit:2;">
    <g id="folder-green.svg" transform="matrix(1,0,0,1,12,12)">
        <g transform="matrix(1,0,0,1,-12,-12)">
            <g id="nuxt.svg" transform="matrix(0.0763948,0,0,0.0763948,19.0155,16.7365)">
                <g transform="matrix(1,0,0,1,-62,-62)">
                    <path d="M68.48,98L108.44,98C109.72,98 110.94,97.55 112.04,96.92C113.2,96.341 114.192,95.473 114.92,94.4C115.59,93.316 115.962,92.074 116,90.8C116,89.54 115.56,88.3 114.92,87.2L87.92,40.76C87.328,39.704 86.456,38.832 85.4,38.24C84.185,37.569 82.827,37.199 81.44,37.16C80.17,37.16 78.94,37.61 77.84,38.24C76.784,38.832 75.912,39.704 75.32,40.76L68.48,52.64L54.8,29.6C54.16,28.5 53.38,27.35 52.28,26.72C51.18,26.09 49.96,26 48.68,26C47.4,26 46.18,26.09 45.08,26.72C43.902,27.434 42.914,28.422 42.2,29.6L8.72,87.2C8.161,88.314 7.912,89.557 8,90.8C8,92.06 8.08,93.3 8.72,94.4C9.448,95.473 10.44,96.341 11.6,96.92C12.685,97.587 13.927,97.959 15.2,98L40.4,98C50.39,98 57.65,93.52 62.72,85.04L74.96,63.8L81.44,52.64L101.24,86.48L74.96,86.48L68.48,98ZM40.04,86.48L22.4,86.48L48.68,41.12L62,63.8L53.18,79.18C49.81,84.68 45.98,86.48 40.04,86.48Z" style="fill:rgb(0,230,118);"/>
                </g>
            </g>
            <g id="folder-android.svg" transform="matrix(1,0,0,1,12,12)">
                <g transform="matrix(1,0,0,1,-12,-12)">
                    <path d="M5,4C3.343,4 2,5.343 2,7L2,17C2,18.657 3.343,20 5,20L13,20L13,18L5,18C4.448,18 4,17.552 4,17L4,7C4,6.448 4.448,6 5,6L7.784,6C8.015,6 8.24,6.08 8.419,6.227L10.812,8.193C11.349,8.634 12.022,8.875 12.716,8.875L19,8.875C19.552,8.875 20,9.323 20,9.875L20,12L22,12L22,9.875C22,8.218 20.657,6.875 19,6.875L12.716,6.875C12.485,6.875 12.26,6.795 12.081,6.648L9.688,4.682C9.151,4.241 8.478,4 7.784,4L5,4Z" style="fill:rgb(100,116,139);"/>
                </g>
            </g>
        </g>
    </g>
</svg>
