<svg width="24" height="24" viewBox="0 0 24 24" fill="none" xmlns="http://www.w3.org/2000/svg">
<path fill-rule="evenodd" clip-rule="evenodd" d="M15.6667 14.8889H21.2223C22.1428 14.8889 22.889 15.6351 22.889 16.5556V19.3334C22.889 20.2539 22.1428 21.0001 21.2223 21.0001H15.6667C14.7462 21.0001 14 20.2539 14 19.3334V16.5556C14 15.6351 14.7462 14.8889 15.6667 14.8889ZM15.6667 16C15.3599 16 15.1111 16.2488 15.1111 16.5556V19.3334C15.1111 19.6403 15.3599 19.889 15.6667 19.889H21.2223C21.5292 19.889 21.7779 19.6403 21.7779 19.3334V16.5556C21.7779 16.2488 21.5292 16 21.2223 16H15.6667Z" fill="#64748B"/>
<path fill-rule="evenodd" clip-rule="evenodd" d="M20.8161 12.0731C20.3081 11.3399 19.3782 11.0417 18.6407 11.0044C17.8625 10.965 16.8626 11.1909 16.214 12.0228C15.9391 12.3755 15.8234 12.8047 15.7638 13.1266C15.6989 13.4769 15.6734 13.8601 15.6679 14.2308C15.662 14.6266 15.6786 15.043 15.7066 15.4443H16.8206C16.739 14.3389 16.7471 13.1463 17.0903 12.706C17.7935 11.804 19.4341 12.0295 19.9029 12.706C20.1375 13.0446 20.1372 14.2875 20.0784 15.4443H21.191C21.2127 15.0005 21.2262 14.5404 21.2214 14.1167C21.2174 13.7643 21.2007 13.4106 21.1594 13.1005C21.1263 12.852 21.0553 12.4182 20.8161 12.0731Z" fill="#64748B"/>
<path fill-rule="evenodd" clip-rule="evenodd" d="M5 4C3.34315 4 2 5.34315 2 7V17C2 18.6569 3.34315 20 5 20H13V18H5C4.44772 18 4 17.5523 4 17V7C4 6.44772 4.44772 6 5 6H7.78388C8.01539 6 8.23973 6.08033 8.41862 6.22727L10.8119 8.19318C11.3486 8.63402 12.0216 8.875 12.7161 8.875H19C19.5523 8.875 20 9.32272 20 9.875V10H22V9.875C22 8.21815 20.6569 6.875 19 6.875H12.7161C12.4846 6.875 12.2603 6.79467 12.0814 6.64773L9.6881 4.68182C9.15142 4.24098 8.47841 4 7.78388 4H5Z" fill="#64748B"/>
</svg>
