<svg width="33" height="27" viewBox="0 0 33 27" fill="none" xmlns="http://www.w3.org/2000/svg">
<path fill-rule="evenodd" clip-rule="evenodd" d="M9 5C7.34315 5 6 6.34315 6 8V18C6 19.6569 7.34315 21 9 21H17V19H9C8.44772 19 8 18.5523 8 18V8C8 7.44772 8.44772 7 9 7H11.7839C12.0154 7 12.2397 7.08033 12.4186 7.22727L14.8119 9.19318C15.3486 9.63402 16.0216 9.875 16.7161 9.875H23C23.5523 9.875 24 10.3227 24 10.875V11H26V10.875C26 9.21815 24.6569 7.875 23 7.875H16.7161C16.4846 7.875 16.2603 7.79467 16.0814 7.64773L13.6881 5.68182C13.1514 5.24098 12.4784 5 11.7839 5H9Z" fill="#64748B"/>
<rect x="18.5" y="12.5" width="8" height="8" rx="2.5" stroke="#C084FC" stroke-linejoin="round"/>
<circle cx="24" cy="15" r="1" fill="#C084FC"/>
<path d="M19 20L21.1984 18.1156C21.9474 17.4737 23.0526 17.4737 23.8016 18.1156L26 20" stroke="#C084FC" stroke-linejoin="round"/>
</svg>
