<svg width="24" height="24" viewBox="0 0 24 24" fill="none" xmlns="http://www.w3.org/2000/svg">
<path fill-rule="evenodd" clip-rule="evenodd" d="M5 4C3.34315 4 2 5.34315 2 7V17C2 18.6569 3.34315 20 5 20H13V18H5C4.44772 18 4 17.5523 4 17V7C4 6.44772 4.44772 6 5 6H7.78388C8.01539 6 8.23973 6.08033 8.41862 6.22727L10.8119 8.19318C11.3486 8.63402 12.0216 8.875 12.7161 8.875H19C19.5523 8.875 20 9.32272 20 9.875V10H22V9.875C22 8.21815 20.6569 6.875 19 6.875H12.7161C12.4846 6.875 12.2603 6.79467 12.0814 6.64773L9.6881 4.68182C9.15142 4.24098 8.47841 4 7.78388 4H5Z" fill="#64748B"/>
<path fill-rule="evenodd" clip-rule="evenodd" d="M18.9351 17.5347L17.6653 16.28L17.6803 16.2644C18.5272 15.3232 19.16 14.2097 19.535 13.0004H21V11.9994H17.5003V11H16.5003V11.9999H13V13.0004H18.5848C18.2394 13.9884 17.7006 14.8978 17 15.6754C16.5437 15.1697 16.1553 14.6066 15.8448 14.0004H14.8454C15.2203 14.833 15.7228 15.6021 16.3347 16.28L13.7903 18.7899L14.5003 19.4998L17 17.0002L18.5553 18.5549L18.9351 17.5347ZM21.7499 15.0003H20.7499L18.5003 21H19.5003L20.0602 19.5003H22.4349L23 21H24L21.7499 15.0003ZM20.4401 18.4999L21.2496 16.335L22.0597 18.4999H20.4401Z" fill="#C084FC"/>
</svg>
