<svg width="24" height="24" viewBox="0 0 24 24" fill="none" xmlns="http://www.w3.org/2000/svg">
<path fill-rule="evenodd" clip-rule="evenodd" d="M5 4C3.34315 4 2 5.34315 2 7V17C2 18.6569 3.34315 20 5 20H13V18H5C4.44772 18 4 17.5523 4 17V7C4 6.44772 4.44772 6 5 6H7.78388C8.01539 6 8.23973 6.08033 8.41862 6.22727L10.8119 8.19318C11.3486 8.63402 12.0216 8.875 12.7161 8.875H19C19.5523 8.875 20 9.32272 20 9.875V10H22V9.875C22 8.21815 20.6569 6.875 19 6.875H12.7161C12.4846 6.875 12.2603 6.79467 12.0814 6.64773L9.6881 4.68182C9.15142 4.24098 8.47841 4 7.78388 4H5Z" fill="#64748B"/>
<g clip-path="url(#clip0_37532_218)">
<path d="M14.0951 14.4871C14.0951 14.4871 13.8516 14.3097 14.1439 14.0727L14.8248 13.4572C14.8248 13.4572 15.0197 13.25 15.2257 13.4306L21.5096 18.2396V20.5456C21.5096 20.5456 21.5066 20.9077 21.0468 20.8677L14.0951 14.4871Z" fill="#2563EB"/>
<path d="M15.7148 15.9736L14.0951 17.462C14.0951 17.462 13.9287 17.5872 14.0951 17.8108L14.8471 18.5022C14.8471 18.5022 15.0257 18.6961 15.2896 18.4755L17.0067 17.1595L15.7148 15.9736Z" fill="#2563EB"/>
<path d="M18.5583 15.9859L21.5288 13.6932L21.5095 11.3994C21.5095 11.3994 21.3826 10.8988 20.9595 11.1594L17.0066 14.7959L18.5583 15.9859Z" fill="#2563EB"/>
<path d="M21.0467 20.8708C21.2192 21.0493 21.4283 20.9908 21.4283 20.9908L23.7432 19.8378C24.0396 19.6337 23.998 19.3803 23.998 19.3803V12.495C23.998 12.1924 23.6915 12.0878 23.6915 12.0878L21.685 11.1102C21.2466 10.8363 20.9595 11.1594 20.9595 11.1594C20.9595 11.1594 21.3288 10.8906 21.5095 11.3994V20.5036C21.5095 20.5662 21.4963 20.6277 21.4699 20.6831C21.4171 20.7908 21.3025 20.8913 21.0274 20.8493L21.0467 20.8708Z" fill="#2563EB"/>
</g>
<defs>
<clipPath id="clip0_37532_218">
<rect width="10" height="10" fill="white" transform="translate(14 11)"/>
</clipPath>
</defs>
</svg>
