<svg width="24" height="24" viewBox="0 0 24 24" fill="none" xmlns="http://www.w3.org/2000/svg">
<path d="M7.78418 4C8.4786 4.00007 9.15187 4.24086 9.68848 4.68164L12.0811 6.64746C12.2599 6.79435 12.4844 6.87493 12.7158 6.875H19C20.6569 6.875 22 8.21815 22 9.875V10H20V9.875C20 9.32272 19.5523 8.875 19 8.875H12.7158C12.0214 8.87493 11.3481 8.63414 10.8115 8.19336L8.41895 6.22754C8.24013 6.08065 8.01558 6.00007 7.78418 6H5C4.44772 6 4 6.44772 4 7V17C4 17.5523 4.44772 18 5 18H13V20H5C3.34315 20 2 18.6569 2 17V7C2 5.34315 3.34315 4 5 4H7.78418Z" fill="#64748B"/>
<path d="M18.4161 15.7685C18.7248 15.0052 19.0691 14.2434 19.4386 13.5681C18.8871 13.1584 18.3574 12.2749 18.1399 11.8834C18.0617 11.9722 18.011 12.0745 17.988 12.1577C17.783 12.898 18.5127 13.7919 17.9249 13.4653C17.4352 13.1932 16.3325 12.5971 15.9119 13.1895C16.383 13.7949 17.6151 15.3181 18.4161 15.7685Z" fill="#DD552C"/>
<path d="M19.4386 13.5681C19.7966 12.9139 20.1782 12.3409 20.5738 11.9281C20.5738 11.9281 20.1792 12.4992 19.6157 13.6411C19.957 13.7351 20.9289 13.928 22.2828 13.5782C22.3161 13.3321 22.1507 13.0615 21.3264 12.9709C20.7883 12.9118 21.9723 11.6857 21.1146 11.1058C21.0869 11.0871 21.0597 11.0705 21.033 11.0557C21.0043 11.0454 20.9739 11.0359 20.9415 11.0275C19.9397 10.766 19.8009 12.465 19.4011 12.0998C18.7551 11.5096 18.3474 11.6475 18.1399 11.8834C18.3575 12.2748 18.8871 13.1584 19.4386 13.5681Z" fill="#F79A23"/>
<path d="M17.6105 17.9677C17.8366 17.2901 18.1086 16.5288 18.4162 15.7685C17.6151 15.3181 16.383 13.7949 15.9119 13.1895C15.8278 13.3079 15.7703 13.4729 15.7512 13.6987C15.6485 14.9113 16.8992 15.809 16.6499 15.973C16.3201 16.1899 15.6636 15.4519 15.4049 15.9208C15.7799 16.4027 16.5438 17.2733 17.6105 17.9677Z" fill="#D22128"/>
<path d="M21.0759 15.3525C20.4427 15.1266 21.7377 14.5207 22.1582 13.878C22.2121 13.7958 22.2677 13.6896 22.2828 13.5782C20.9289 13.928 19.9569 13.7351 19.6156 13.6411C19.3239 14.2323 18.987 14.9773 18.6357 15.8756C19.0016 16.0321 20.4956 16.6102 22.6059 16.6132C22.9607 15.6889 21.677 15.5668 21.0759 15.3525Z" fill="#DD552C"/>
<path d="M17.8551 18.0897C18.2273 18.2057 19.4603 18.5521 20.7698 18.5C20.9457 18.0236 20.288 17.9771 20.2344 17.595C20.1929 17.2993 21.9653 17.8434 22.5356 16.7684C22.5644 16.714 22.5869 16.6627 22.6059 16.6132C20.4957 16.6102 19.0016 16.0321 18.6357 15.8756C18.379 16.5321 18.1149 17.2688 17.8551 18.0897Z" fill="#D22128"/>
<path d="M17.8551 18.0896C17.6879 18.618 17.523 19.1824 17.3628 19.7789C17.306 19.9904 17.2499 20.2058 17.1945 20.426C18.4375 20.8364 19.582 20.4269 19.6208 19.9194C19.6211 19.9154 19.6203 19.9124 19.6206 19.9086C19.6501 19.3711 18.8447 19.669 18.8638 19.3459C18.8829 19.0204 20.2699 19.344 20.6989 18.6461C20.7317 18.5926 20.7532 18.5451 20.7698 18.4999C19.4603 18.5521 18.2273 18.2056 17.8551 18.0896Z" fill="#7C297D"/>
<path d="M15.4049 15.9208C15.3867 15.9537 15.3704 15.9917 15.3564 16.0371C15.1156 16.8201 16.8188 17.8719 16.5871 18.1012C16.3782 18.3078 16.106 17.8357 15.7703 18.0307C15.7335 18.0521 15.6961 18.0792 15.6578 18.1185C15.2782 18.5075 15.6519 19.6282 16.729 20.2265C16.4777 21.0706 16.2274 22.0138 15.9824 23C16.0713 22.9689 16.1777 22.9377 16.2041 22.8538C16.2439 22.6905 16.4895 21.696 16.8884 20.3469C16.8884 20.3469 16.9612 20.0706 17.0944 19.6153C17.2176 19.1943 17.3927 18.6201 17.6104 17.9677C16.5437 17.2733 15.7799 16.4027 15.4049 15.9208Z" fill="#7C297D"/>
</svg>
