<svg width="24" height="24" viewBox="0 0 24 24" fill="none" xmlns="http://www.w3.org/2000/svg">
<g clip-path="url(#clip0_44350_236)">
<path d="M7.78418 4C8.4786 4.00007 9.15187 4.24086 9.68848 4.68164L12.0811 6.64746C12.2599 6.79435 12.4844 6.87493 12.7158 6.875H19C20.6569 6.875 22 8.21815 22 9.875V10H20V9.875C20 9.32272 19.5523 8.875 19 8.875H12.7158C12.0214 8.87493 11.3481 8.63414 10.8115 8.19336L8.41895 6.22754C8.24013 6.08065 8.01558 6.00007 7.78418 6H5C4.44772 6 4 6.44772 4 7V17C4 17.5523 4.44772 18 5 18H13V20H5C3.34315 20 2 18.6569 2 17V7C2 5.34315 3.34315 4 5 4H7.78418Z" fill="#64748B"/>
<path d="M15.7671 19.357H15.6605L15.1277 18.8242V18.7176L15.9447 17.9005H16.5131L16.5931 17.9805V18.5489L15.7671 19.357Z" fill="#2DD4BF"/>
<path d="M15.1277 13.2913V13.1847L15.6605 12.6519H15.7671L16.5842 13.4689V14.0373L16.5131 14.1083H15.9447L15.1277 13.2913Z" fill="#2DD4BF"/>
<path d="M19.8434 17.6253H19.0619L18.9998 17.5631V15.7336C18.9998 15.405 18.8754 15.1563 18.4847 15.1475C18.2804 15.1386 18.0495 15.1475 17.8097 15.1563L17.7742 15.1919V17.5542L17.712 17.6164H16.9305L16.8683 17.5542V14.4459L16.9305 14.3837H18.6889C19.3728 14.3837 19.9234 14.9343 19.9234 15.6182V17.5631L19.8434 17.6253Z" fill="#0F766E"/>
<path d="M15.8737 16.453H12.7564L12.6943 16.3908V15.6093L12.7564 15.5471H15.8737L15.9358 15.6093V16.3908L15.8737 16.453Z" fill="#2DD4BF"/>
<path d="M23.9998 16.453H20.8825L20.8204 16.3908V15.6093L20.8825 15.5471H23.9998L24.0619 15.6093V16.3908L23.9998 16.453Z" fill="#2DD4BF"/>
<path d="M17.9252 13.4067V11.0622L17.9962 11H18.7778L18.8399 11.0622V13.3979L18.7778 13.46H17.9962L17.9252 13.4067Z" fill="#2DD4BF"/>
<path d="M17.9252 20.9378V18.6021L17.9874 18.54H18.7689L18.8311 18.6021V20.9378L18.7689 21H17.9874L17.9252 20.9378Z" fill="#2DD4BF"/>
</g>
<defs>
<clipPath id="clip0_44350_236">
<rect width="24" height="24" fill="white"/>
</clipPath>
</defs>
</svg>
