<svg width="24" height="24" viewBox="0 0 24 24" fill="none" xmlns="http://www.w3.org/2000/svg">
<path fill-rule="evenodd" clip-rule="evenodd" d="M5 4C3.34315 4 2 5.34315 2 7V17C2 18.6569 3.34315 20 5 20H13V18H5C4.44772 18 4 17.5523 4 17V7C4 6.44772 4.44772 6 5 6H7.78388C8.01539 6 8.23973 6.08033 8.41862 6.22727L10.8119 8.19318C11.3486 8.63402 12.0216 8.875 12.7161 8.875H19C19.5523 8.875 20 9.32272 20 9.875V10H22V9.875C22 8.21815 20.6569 6.875 19 6.875H12.7161C12.4846 6.875 12.2603 6.79467 12.0814 6.64773L9.6881 4.68182C9.15142 4.24098 8.47841 4 7.78388 4H5Z" fill="#64748B"/>
<path fill-rule="evenodd" clip-rule="evenodd" d="M14 13.2831C14 12.5745 14.5745 12 15.2831 12H17.5669C18.2755 12 18.85 12.5745 18.85 13.2831V19.4157C18.85 20.1243 18.2755 20.6988 17.5669 20.6988H15.2831C14.5745 20.6988 14 20.1243 14 19.4157V13.2831ZM20.1506 13.2831C20.1506 12.5745 20.7251 12 21.4337 12H22.7169C23.4255 12 24 12.5745 24 13.2831V14.5663C24 15.2749 23.4255 15.8494 22.7169 15.8494H21.4337C20.7251 15.8494 20.1506 15.2749 20.1506 14.5663V13.2831ZM21.1506 16.8494C20.5983 16.8494 20.1506 17.2971 20.1506 17.8494V19.6988C20.1506 20.2511 20.5983 20.6988 21.1506 20.6988H23C23.5523 20.6988 24 20.2511 24 19.6988V17.8494C24 17.2971 23.5523 16.8494 23 16.8494H21.1506Z" fill="#0EA5E9"/>
</svg>
