<svg width="24" height="24" viewBox="0 0 24 24" fill="none" xmlns="http://www.w3.org/2000/svg">
<path d="M18.073 11.1277C18.3794 10.9574 18.752 10.9574 19.0585 11.1277L22.8705 13.2455C23.0316 13.335 23.1315 13.5047 23.1315 13.689V17.8665C23.1315 18.2349 22.9317 18.5745 22.6096 18.7534L19.0585 20.7263C18.752 20.8965 18.3794 20.8965 18.073 20.7263L14.5219 18.7534C14.1998 18.5745 14 18.2349 14 17.8665V13.689C14 13.5047 14.0999 13.335 14.2609 13.2455L18.073 11.1277Z" stroke="#C084FC" stroke-linecap="round" stroke-linejoin="round"/>
<path d="M16.2829 12.1222L20.8486 14.6587V16.4343" stroke="#C084FC" stroke-linecap="round" stroke-linejoin="round"/>
<path d="M14 13.3905L18.5657 15.927M18.5657 15.927L23.1315 13.3905M18.5657 15.927V21" stroke="#C084FC" stroke-linejoin="round"/>
<path fill-rule="evenodd" clip-rule="evenodd" d="M5 4C3.34315 4 2 5.34315 2 7V17C2 18.6569 3.34315 20 5 20H13V18H5C4.44772 18 4 17.5523 4 17V7C4 6.44772 4.44772 6 5 6H7.78388C8.01539 6 8.23973 6.08033 8.41862 6.22727L10.8119 8.19318C11.3486 8.63402 12.0216 8.875 12.7161 8.875H19C19.5523 8.875 20 9.32272 20 9.875V10H22V9.875C22 8.21815 20.6569 6.875 19 6.875H12.7161C12.4846 6.875 12.2603 6.79467 12.0814 6.64773L9.6881 4.68182C9.15142 4.24098 8.47841 4 7.78388 4H5Z" fill="#64748B"/>
</svg>
