<svg width="24" height="24" viewBox="0 0 24 24" fill="none" xmlns="http://www.w3.org/2000/svg">
<path fill-rule="evenodd" clip-rule="evenodd" d="M5 4C3.34315 4 2 5.34315 2 7V17C2 18.6569 3.34315 20 5 20H13V18H5C4.44772 18 4 17.5523 4 17V7C4 6.44772 4.44772 6 5 6H7.78388C8.01539 6 8.23973 6.08033 8.41862 6.22727L10.8119 8.19318C11.3486 8.63402 12.0216 8.875 12.7161 8.875H19C19.5523 8.875 20 9.32272 20 9.875V10H22V9.875C22 8.21815 20.6569 6.875 19 6.875H12.7161C12.4846 6.875 12.2603 6.79467 12.0814 6.64773L9.6881 4.68182C9.15142 4.24098 8.47841 4 7.78388 4H5Z" fill="#64748B"/>
<path d="M23.4582 18.7989V17.8368C23.4582 15.3744 21.4622 13.3786 19 13.3786C16.5378 13.3786 14.5418 15.3746 14.5418 17.8368V18.7989H23.4582Z" fill="#6EE7B7"/>
<path fill-rule="evenodd" clip-rule="evenodd" d="M23.2766 12.925L22.2021 13.9997C23.3002 14.9176 24 16.2969 24 17.8366V18.7989C24 19.0982 23.7573 19.3407 23.4582 19.3407C23.4582 19.3407 14.8563 19.3407 14.64 19.3407C14.4236 19.3407 14 19.3407 14 18.7989C14 18.4231 14 17.8368 14 17.8368C14 16.2969 14.6998 14.9176 15.7981 13.9997L14.7234 12.925C14.5119 12.7135 14.5119 12.3704 14.7234 12.1587C14.935 11.9471 15.2781 11.9471 15.4898 12.1587L16.719 13.3879C17.4033 13.0357 18.1789 12.8366 19 12.8366C19.8211 12.8366 20.5967 13.0357 21.281 13.3879L22.5102 12.1587C22.722 11.9471 23.065 11.9471 23.2766 12.1587C23.4881 12.3704 23.4881 12.7135 23.2766 12.925ZM15.0836 17.8366V18.257H22.9164V17.8366C22.9164 15.6771 21.1595 13.9202 19 13.9202C16.8405 13.9202 15.0836 15.6771 15.0836 17.8366Z" fill="#065F46"/>
<path d="M17.5555 16.7314C17.8099 16.7314 18.016 16.5253 18.016 16.271C18.016 16.0164 17.8099 15.8103 17.5555 15.8103C17.301 15.8103 17.0949 16.0164 17.0949 16.271C17.0949 16.5253 17.301 16.7314 17.5555 16.7314Z" fill="#065F46"/>
<path d="M20.5171 16.6577C20.7714 16.6577 20.9777 16.4516 20.9777 16.197C20.9777 15.9427 20.7714 15.7366 20.5171 15.7366C20.2627 15.7366 20.0564 15.9427 20.0564 16.197C20.0564 16.4516 20.2627 16.6577 20.5171 16.6577Z" fill="#065F46"/>
</svg>
