<?xml version="1.0" encoding="UTF-8"?>
<svg id="Camada_2" xmlns="http://www.w3.org/2000/svg" viewBox="0 0 21 16">
  <defs>
    <style>
      .cls-1 {
        fill: #64748b;
        fill-rule: evenodd;
      }

      .cls-2 {
        fill: #71717a;
      }
    </style>
  </defs>
  <g id="Camada_2-2" data-name="Camada_2">
    <path class="cls-1" d="M3,0C1.34,0,0,1.34,0,3v10c0,1.66,1.34,3,3,3h8v-2H3c-.55,0-1-.45-1-1V3c0-.55.45-1,1-1h2.78c.23,0,.46.08.63.23l2.39,1.97c.54.44,1.21.68,1.9.68h6.28c.55,0,1,.45,1,1v.12h2v-.12c0-1.66-1.34-3-3-3h-6.28c-.23,0-.46-.08-.63-.23l-2.39-1.97c-.54-.44-1.21-.68-1.9-.68h-2.78Z"/>
    <path class="cls-2" d="M13.94,15.34h-1c-.28,0-.5-.19-.5-.42v-7.51c0-.23.22-.42.5-.42h1c.28,0,.5.19.5.42v7.51c0,.23-.22.42-.5.42Z"/>
    <path class="cls-2" d="M17.22,15.34h-1c-.28,0-.5-.19-.5-.42v-7.51c0-.23.22-.42.5-.42h1c.28,0,.5.19.5.42v7.51c0,.23-.22.42-.5.42Z"/>
    <path class="cls-2" d="M20.5,15.34h-1c-.28,0-.5-.19-.5-.42v-7.51c0-.23.22-.42.5-.42h1c.28,0,.5.19.5.42v7.51c0,.23-.22.42-.5.42Z"/>
  </g>
</svg>
