<svg width="24" height="24" viewBox="0 0 24 24" fill="none" xmlns="http://www.w3.org/2000/svg">
<path d="M7.78418 4C8.4786 4.00007 9.15187 4.24086 9.68848 4.68164L12.0811 6.64746L12.2236 6.74512C12.3729 6.82963 12.5423 6.87495 12.7158 6.875H19C20.6569 6.875 22 8.21815 22 9.875V10H20V9.875C20 9.32272 19.5523 8.875 19 8.875H12.7158C12.1082 8.87494 11.5173 8.69005 11.0195 8.34863L10.8115 8.19336L8.41895 6.22754C8.24013 6.08065 8.01558 6.00007 7.78418 6H5C4.44772 6 4 6.44772 4 7V17C4 17.5523 4.44772 18 5 18H13V20H5C3.34315 20 2 18.6569 2 17V7C2 5.34315 3.34315 4 5 4H7.78418Z" fill="#64748B"/>
<path d="M22.792 20C22.792 20.3451 22.512 20.6248 22.167 20.625H15.5C15.1548 20.625 14.875 20.3452 14.875 20V12L14.8877 11.874C14.946 11.5892 15.198 11.375 15.5 11.375H19.3887L19.4941 11.3838C19.5979 11.4015 19.6962 11.4453 19.7793 11.5117L22.5566 13.7344L22.6094 13.7812C22.7254 13.8977 22.792 14.0564 22.792 14.2227V20Z" stroke="#64748B" stroke-width="1.25" stroke-linejoin="round"/>
<path d="M18.8333 12V14.7778H22.1667" stroke="#64748B" stroke-width="1.25" stroke-linejoin="round"/>
</svg>
