<svg width="24" height="24" viewBox="0 0 24 24" fill="none" xmlns="http://www.w3.org/2000/svg">
<g clip-path="url(#clip0_4_143)">
<path fill-rule="evenodd" clip-rule="evenodd" d="M5 4C3.34315 4 2 5.34315 2 7V17C2 18.6569 3.34315 20 5 20H13V18H5C4.44772 18 4 17.5523 4 17V7C4 6.44772 4.44772 6 5 6H7.78388C8.01539 6 8.23973 6.08033 8.41862 6.22727L10.8119 8.19318C11.3486 8.63402 12.0216 8.875 12.7161 8.875H19C19.5523 8.875 20 9.32272 20 9.875V10H22V9.875C22 8.21815 20.6569 6.875 19 6.875H12.7161C12.4846 6.875 12.2603 6.79467 12.0814 6.64773L9.6881 4.68182C9.15142 4.24098 8.47841 4 7.78388 4H5Z" fill="#64748B"/>
<path d="M12.6231 10C12.4557 10 12.344 10.3623 12.344 10.8151V15.0717L10.5693 10.2415C10.48 10 10.3237 9.93962 10.2121 10.0604C10.1005 10.1811 10 10.483 10 10.8151V17.0642C10 17.517 10.1674 17.8792 10.3349 17.8792C10.5023 17.8792 10.6697 17.517 10.6697 17.0642V12.8075L12.4668 17.6377C12.5226 17.7887 12.6008 17.8792 12.6789 17.8792C12.7124 17.8792 12.7235 17.8491 12.757 17.8189C12.8686 17.6981 12.9021 17.3962 12.9021 17.0642V10.8453C12.9021 10.3925 12.7905 10 12.6231 10ZM14.822 13.5623C14.6657 13.5623 14.5206 13.9849 14.5206 14.4075C14.5206 14.8302 14.6657 15.2528 14.822 15.2528L15.5587 15.3736L15.3913 16.4906H14.4425L13.9737 14.1057L14.4537 11.6604H15.4694L15.7038 12.8679H16.3177L15.9159 10.483L15.8266 10.1509H14.0853L14.0072 10.5132L13.3486 13.6226L13.2705 14.0151L13.3486 14.4075L13.996 17.517L14.0853 18H15.7708L15.8489 17.4868L16.3289 14.7698L16.541 13.4717H16.0498L14.822 13.5623ZM17.1437 10C16.9874 10 16.8089 10.3925 16.8089 10.8151V12.8679H17.4786V10.8453C17.4786 10.3925 17.3 10 17.1437 10ZM20.537 10.0906C20.4254 9.96981 20.2691 10.0302 20.191 10.2717L18.3715 15.1019V10.8453C18.3715 10.3925 18.2599 10.0302 18.0925 10.0302C17.9251 10.0302 17.8134 10.3925 17.8134 10.8453V17.0943C17.8134 17.4264 17.8916 17.7283 18.0032 17.8491C18.0367 17.8792 18.0813 17.9094 18.1148 17.9094C18.1929 17.9094 18.2934 17.8189 18.3492 17.6679L20.1575 12.8377V17.0943C20.1575 17.5472 20.2691 17.9094 20.4365 17.9094C20.6039 17.9094 20.7156 17.5472 20.7156 17.0943V10.8453C20.7156 10.5132 20.6486 10.2113 20.537 10.0906ZM22.9703 13.9547L23.9079 11.4189C24.0307 11.0868 24.0307 10.5736 23.9079 10.2717C23.7851 9.93962 23.5954 9.93962 23.4838 10.2717L22.5461 12.8075L21.6085 10.2717C21.4857 9.93962 21.296 9.93962 21.1844 10.2717C21.0616 10.6038 21.0616 11.117 21.1844 11.4189L22.122 13.9547L21.1844 16.4906C21.0616 16.8226 21.0616 17.3359 21.1844 17.6377C21.2402 17.7887 21.3183 17.8792 21.3965 17.8792C21.4746 17.8792 21.5527 17.7887 21.6085 17.6377L22.5461 15.1019L23.4838 17.6377C23.5396 17.7887 23.6177 17.8792 23.6958 17.8792C23.774 17.8792 23.8521 17.7887 23.9079 17.6377C24.0307 17.3057 24.0307 16.7925 23.9079 16.4906L22.9703 13.9547ZM16.8089 17.0642C16.8089 17.4868 16.9763 17.8792 17.1437 17.8792C17.3 17.8792 17.4786 17.4868 17.4786 17.0642V13.4717H16.8089V17.0642Z" fill="#009900"/>
</g>
<defs>
<clipPath id="clip0_4_143">
<rect width="24" height="24" fill="white"/>
</clipPath>
</defs>
</svg>
