<svg width="24" height="24" viewBox="0 0 24 24" fill="none" xmlns="http://www.w3.org/2000/svg">
<path fill-rule="evenodd" clip-rule="evenodd" d="M5 4C3.34315 4 2 5.34315 2 7V17C2 18.6569 3.34315 20 5 20H15V18H5C4.44772 18 4 17.5523 4 17V7C4 6.44772 4.44772 6 5 6H7.78388C8.01539 6 8.23973 6.08033 8.41862 6.22727L10.8119 8.19318C11.3486 8.63402 12.0216 8.875 12.7161 8.875H19C19.5523 8.875 20 9.32272 20 9.875V10H22V9.875C22 8.21815 20.6569 6.875 19 6.875H12.7161C12.4846 6.875 12.2603 6.79467 12.0814 6.64773L9.6881 4.68182C9.15142 4.24098 8.47841 4 7.78388 4H5Z" fill="#64748B"/>
<path d="M20.4301 13.1146C19.9807 12.6166 19.5937 12.1109 19.5146 12.0058C19.5063 11.9981 19.4938 11.9981 19.4855 12.0058C19.4064 12.1109 19.0194 12.6166 18.57 13.1146C14.7124 17.709 19.1776 20.8096 19.1776 20.8096L19.215 20.8329C19.2483 21.3114 19.3315 22 19.3315 22H19.498H19.6644C19.6644 22 19.7477 21.3153 19.7809 20.8329L19.8184 20.8057C19.8226 20.8057 24.2877 17.709 20.4301 13.1146ZM19.498 20.7395C19.498 20.7395 19.2982 20.58 19.2441 20.4983V20.4906L19.4855 15.4876C19.4855 15.4721 19.5105 15.4721 19.5105 15.4876L19.7518 20.4906V20.4983C19.6977 20.58 19.498 20.7395 19.498 20.7395Z" fill="#00ED64"/>
</svg>
