<svg width="24" height="24" viewBox="0 0 24 24" fill="none" xmlns="http://www.w3.org/2000/svg">
<path d="M17.743 21.6838C18.2033 21.869 18.7026 21.9789 19.2269 21.9973C19.9365 22.022 20.6112 21.8753 21.2144 21.5967C20.4911 21.3125 19.836 20.8968 19.2769 20.3801C18.9144 20.9604 18.3784 21.4188 17.743 21.6838Z" fill="#FF9100"/>
<path d="M19.2767 20.3803C18.0005 19.1999 17.2262 17.4915 17.2916 15.6176C17.2938 15.5568 17.297 15.4959 17.3007 15.4351C17.0722 15.376 16.8335 15.34 16.5879 15.3314C16.2364 15.3191 15.896 15.3627 15.5746 15.4532C15.2339 16.05 15.0283 16.7348 15.0027 17.4682C14.9366 19.3611 16.0821 21.0151 17.7429 21.684C18.3783 21.4189 18.9143 20.9611 19.2767 20.3803Z" fill="#FFC400"/>
<path d="M19.2769 20.3802C19.5736 19.9054 19.7535 19.3486 19.7745 18.7488C19.8296 17.171 18.7689 15.8138 17.3009 15.4351C17.2972 15.4959 17.2939 15.5567 17.2918 15.6175C17.2264 17.4914 18.0006 19.1998 19.2769 20.3802Z" fill="#FF9100"/>
<path d="M19.6103 11C18.7742 11.6698 18.114 12.553 17.7145 13.5704C17.4858 14.1532 17.3421 14.7792 17.3002 15.4354C18.7682 15.8141 19.8289 17.1714 19.7738 18.7491C19.7528 19.349 19.5724 19.9051 19.2762 20.3806C19.8353 20.8978 20.4904 21.3129 21.2137 21.5971C22.6657 20.9259 23.6958 19.4818 23.7554 17.7736C23.7941 16.6669 23.3689 15.6805 22.768 14.8479C22.1335 13.9674 19.6103 11 19.6103 11Z" fill="#DD2C00"/>
<path d="M7.78418 4C8.4786 4.00007 9.15187 4.24086 9.68848 4.68164L12.0811 6.64746C12.2599 6.79435 12.4844 6.87493 12.7158 6.875H19C20.6569 6.875 22 8.21815 22 9.875V10H20V9.875C20 9.32272 19.5523 8.875 19 8.875H12.7158C12.0214 8.87493 11.3481 8.63414 10.8115 8.19336L8.41895 6.22754C8.24013 6.08065 8.01558 6.00007 7.78418 6H5C4.44772 6 4 6.44772 4 7V17C4 17.5523 4.44772 18 5 18H13V20H5C3.34315 20 2 18.6569 2 17V7C2 5.34315 3.34315 4 5 4H7.78418Z" fill="#64748B"/>
</svg>
