<svg width="24" height="24" viewBox="0 0 24 24" fill="none" xmlns="http://www.w3.org/2000/svg">
<path fill-rule="evenodd" clip-rule="evenodd" d="M5 4C3.34315 4 2 5.34315 2 7V17C2 18.6569 3.34315 20 5 20H13V18H5C4.44772 18 4 17.5523 4 17V7C4 6.44772 4.44772 6 5 6H7.78388C8.01539 6 8.23973 6.08033 8.41862 6.22727L10.8119 8.19318C11.3486 8.63402 12.0216 8.875 12.7161 8.875H19C19.5523 8.875 20 9.32272 20 9.875V10H22V9.875C22 8.21815 20.6569 6.875 19 6.875H12.7161C12.4846 6.875 12.2603 6.79467 12.0814 6.64773L9.6881 4.68182C9.15142 4.24098 8.47841 4 7.78388 4H5Z" fill="#64748B"/>
<path fill-rule="evenodd" clip-rule="evenodd" d="M15.076 17.7366C14.9761 17.5791 14.9746 17.3785 15.0721 17.2195L18.7419 11.2333C18.946 10.9004 19.4389 10.9295 19.6024 11.2841L22.9549 18.5566C23.0793 18.8264 22.9361 19.1439 22.6515 19.2293L17.4363 20.7939C17.2265 20.8568 17.0004 20.7724 16.8831 20.5874L15.076 17.7366ZM19.1653 12.9836C19.2006 12.8075 19.4419 12.7821 19.5132 12.947L21.8257 18.2981C21.8692 18.3989 21.8151 18.515 21.7099 18.5464L18.1067 19.622C17.9742 19.6616 17.8473 19.5459 17.8746 19.4103L19.1653 12.9836Z" fill="#14B8A6"/>
</svg>
