<?xml version="1.0" encoding="UTF-8"?>
<svg id="Camada_2" xmlns="http://www.w3.org/2000/svg" viewBox="0 0 20 17.1">
  <defs>
    <style>
      .cls-1 {
        fill: #64748b;
        fill-rule: evenodd;
      }

      .cls-2 {
        fill: none;
        stroke: #8b5cf6;
        stroke-linecap: round;
      }
    </style>
  </defs>
  <g id="Camada_2-2" data-name="Camada_2">
    <g>
      <path class="cls-1" d="M3,0C1.34,0,0,1.34,0,3v10c0,1.66,1.34,3,3,3h8v-2H3c-.55,0-1-.45-1-1V3c0-.55.45-1,1-1h2.78c.23,0,.46.08.63.23l2.39,1.97c.54.44,1.21.68,1.9.68h6.28c.55,0,1,.45,1,1v.12h2v-.12c0-1.66-1.34-3-3-3h-6.28c-.23,0-.46-.08-.63-.23l-2.39-1.97c-.54-.44-1.21-.68-1.9-.68h-2.78Z"/>
      <g>
        <path class="cls-2" d="M13.52,14.17c0,1.34,1.09,2.43,2.43,2.43s2.43-1.09,2.43-2.43v-4.73"/>
        <circle class="cls-2" cx="18.38" cy="8.55" r=".9"/>
        <polyline class="cls-2" points="13.52 14.17 13.52 11.54 15.24 13.26"/>
      </g>
    </g>
  </g>
</svg>
