<svg width="24" height="24" viewBox="0 0 24 24" fill="none" xmlns="http://www.w3.org/2000/svg">
<path fill-rule="evenodd" clip-rule="evenodd" d="M5 4C3.34315 4 2 5.34315 2 7V17C2 18.6569 3.34315 20 5 20H13V18H5C4.44772 18 4 17.5523 4 17V7C4 6.44772 4.44772 6 5 6H7.78388C8.01539 6 8.23973 6.08033 8.41862 6.22727L10.8119 8.19318C11.3486 8.63402 12.0216 8.875 12.7161 8.875H19C19.5523 8.875 20 9.32272 20 9.875V10H22V9.875C22 8.21815 20.6569 6.875 19 6.875H12.7161C12.4846 6.875 12.2603 6.79467 12.0814 6.64773L9.6881 4.68182C9.15142 4.24098 8.47841 4 7.78388 4H5Z" fill="#64748B"/>
<path fill-rule="evenodd" clip-rule="evenodd" d="M19 14.8889C18.3864 14.8889 17.8889 15.3864 17.8889 16C17.8889 16.6136 18.3864 17.1111 19 17.1111C19.6136 17.1111 20.1111 16.6136 20.1111 16C20.1111 15.3864 19.6136 14.8889 19 14.8889ZM16.7778 16C16.7778 14.7727 17.7727 13.7778 19 13.7778C20.2273 13.7778 21.2222 14.7727 21.2222 16C21.2222 17.2273 20.2273 18.2222 19 18.2222C17.7727 18.2222 16.7778 17.2273 16.7778 16Z" fill="#C084FC"/>
<path fill-rule="evenodd" clip-rule="evenodd" d="M19 12.1111C16.8522 12.1111 15.1111 13.8522 15.1111 16C15.1111 18.1478 16.8522 19.8889 19 19.8889C21.1478 19.8889 22.8889 18.1478 22.8889 16C22.8889 13.8522 21.1478 12.1111 19 12.1111ZM14 16C14 13.2386 16.2386 11 19 11C21.7614 11 24 13.2386 24 16C24 18.7614 21.7614 21 19 21C16.2386 21 14 18.7614 14 16Z" fill="#C084FC"/>
</svg>
