<svg width="24" height="24" viewBox="0 0 24 24" fill="none" xmlns="http://www.w3.org/2000/svg">
<path fill-rule="evenodd" clip-rule="evenodd" d="M14.9375 11.625C14.7649 11.625 14.625 11.7649 14.625 11.9375V18.8125H14V11.9375C14 11.4197 14.4197 11 14.9375 11H23.3103C23.7279 11 23.937 11.5049 23.6417 11.8002L18.4849 16.957H19.9375V16.3125H20.5625V17.1133C20.5625 17.3722 20.3526 17.582 20.0938 17.582H17.8599L16.7857 18.6562H21.6562V14.75H22.2812V18.6562C22.2812 19.0014 22.0014 19.2812 21.6562 19.2812H16.1607L15.0669 20.375H23.0625C23.2351 20.375 23.375 20.2351 23.375 20.0625V13.1875H24V20.0625C24 20.5803 23.5803 21 23.0625 21H14.6897C14.2721 21 14.063 20.4951 14.3583 20.1998L19.4956 15.0625H18.0625V15.6875H17.4375V14.9062C17.4375 14.6474 17.6474 14.4375 17.9062 14.4375H20.1206L21.2143 13.3438H16.3438V17.25H15.7188V13.3438C15.7188 12.9986 15.9986 12.7188 16.3438 12.7188H21.8393L22.9331 11.625H14.9375Z" fill="#64748B"/>
<path d="M7.78418 4C8.4786 4.00007 9.15187 4.24086 9.68848 4.68164L12.0811 6.64746C12.2599 6.79435 12.4844 6.87493 12.7158 6.875H19C20.6569 6.875 22 8.21815 22 9.875V10H20V9.875C20 9.32272 19.5523 8.875 19 8.875H12.7158C12.0214 8.87493 11.3481 8.63414 10.8115 8.19336L8.41895 6.22754C8.24013 6.08065 8.01558 6.00007 7.78418 6H5C4.44772 6 4 6.44772 4 7V17C4 17.5523 4.44772 18 5 18H13V20H5C3.34315 20 2 18.6569 2 17V7C2 5.34315 3.34315 4 5 4H7.78418Z" fill="#64748B"/>
</svg>
