<svg width="24" height="24" viewBox="0 0 24 24" fill="none" xmlns="http://www.w3.org/2000/svg">
<path fill-rule="evenodd" clip-rule="evenodd" d="M5 4C3.34315 4 2 5.34315 2 7V17C2 18.6569 3.34315 20 5 20H12V18H5C4.44772 18 4 17.5523 4 17V7C4 6.44772 4.44772 6 5 6H7.78388C8.01539 6 8.23973 6.08033 8.41862 6.22727L10.8119 8.19318C11.3486 8.63402 12.0216 8.875 12.7161 8.875H19C19.5523 8.875 20 9.32272 20 9.875V10H22V9.875C22 8.21815 20.6569 6.875 19 6.875H12.7161C12.4846 6.875 12.2603 6.79467 12.0814 6.64773L9.6881 4.68182C9.15142 4.24098 8.47841 4 7.78388 4H5Z" fill="#64748B"/>
<path d="M23.4565 12.443C23.1659 12.1658 22.7736 12.007 22.3626 12.0002C21.9515 11.9934 21.5537 12.1392 21.2532 12.4067C21.2383 12.42 21.2264 12.4361 21.2181 12.4538C21.2098 12.4716 21.2052 12.4907 21.2047 12.5102C21.2049 12.5493 21.221 12.5868 21.2497 12.6148L21.4472 12.8097C21.4729 12.8341 21.5071 12.8489 21.5433 12.8514C21.5796 12.8538 21.6156 12.8437 21.6447 12.8229C21.8013 12.7102 21.9923 12.6495 22.1886 12.65C22.3686 12.6493 22.5448 12.6996 22.6947 12.7946C22.8447 12.8895 22.9616 13.0249 23.0307 13.1834C23.0998 13.3419 23.1179 13.5165 23.0827 13.6848C23.0474 13.8531 22.9605 14.0077 22.8329 14.1288C21.5742 15.329 19.894 11.9663 16.0809 13.6961C16.016 13.725 15.9581 13.7664 15.9109 13.8177C15.8636 13.869 15.828 13.9291 15.8063 13.9941C15.7846 14.0592 15.7773 14.1278 15.7848 14.1957C15.7923 14.2636 15.8145 14.3293 15.8499 14.3887L16.5035 15.4666C16.5718 15.5788 16.6835 15.6609 16.8146 15.6953C16.9457 15.7297 17.0857 15.7136 17.2045 15.6505L17.2207 15.6417L17.208 15.6505L17.4978 15.4952C17.8208 15.304 18.1261 15.0866 18.4101 14.8456C18.4392 14.8218 18.4763 14.8087 18.5146 14.8087C18.5529 14.8087 18.59 14.8218 18.6191 14.8456C18.6366 14.8587 18.6508 14.8754 18.6606 14.8945C18.6704 14.9135 18.6756 14.9345 18.6757 14.9557C18.6761 14.9764 18.6719 14.9969 18.6633 15.0159C18.6548 15.0349 18.6421 15.0519 18.626 15.0658C18.3269 15.319 18.005 15.5467 17.6641 15.7463H17.6549L17.365 15.9004C17.2425 15.9666 17.104 16.0012 16.9632 16.0006C16.8177 16.0007 16.6748 15.9644 16.5486 15.8954C16.4223 15.8265 16.3173 15.7272 16.2437 15.6076L15.6259 14.589C14.4388 15.3884 13.7182 16.9289 14.1051 18.8833C14.1119 18.9159 14.1304 18.9454 14.1573 18.9666C14.1842 18.9879 14.2179 18.9996 14.2529 19H14.9573C14.9939 19 15.0293 18.9872 15.0567 18.9641C15.0841 18.941 15.1017 18.9091 15.1063 18.8745C15.1376 18.6369 15.2589 18.4183 15.4473 18.2599C15.6357 18.1015 15.8782 18.0141 16.1294 18.0141C16.3806 18.0141 16.6231 18.1015 16.8115 18.2599C16.9999 18.4183 17.1211 18.6369 17.1525 18.8745C17.1573 18.9092 17.1752 18.9411 17.2028 18.9642C17.2304 18.9873 17.2659 19 17.3027 19H17.9886C18.0252 19 18.0606 18.9872 18.088 18.9641C18.1154 18.941 18.1331 18.9091 18.1376 18.8745C18.17 18.6374 18.2917 18.4198 18.4801 18.262C18.6685 18.1043 18.9106 18.0173 19.1613 18.0173C19.412 18.0173 19.6541 18.1043 19.8425 18.262C20.0309 18.4198 20.1526 18.6374 20.185 18.8745C20.1895 18.9091 20.2071 18.941 20.2346 18.9641C20.262 18.9872 20.2974 19 20.334 19H21.0118C21.0512 19 21.0891 18.9852 21.1172 18.9589C21.1453 18.9325 21.1613 18.8966 21.162 18.8591C21.1781 17.9485 21.4356 16.9024 22.1701 16.3783C24.7141 14.5637 24.0455 13.0079 23.4565 12.443ZM20.8617 15.188L20.3767 14.9557C20.3765 14.906 20.3897 14.857 20.415 14.8135C20.4403 14.7701 20.4769 14.7335 20.5213 14.7074C20.5657 14.6812 20.6163 14.6664 20.6684 14.6642C20.7206 14.6621 20.7724 14.6727 20.8189 14.6951C20.8655 14.7175 20.9053 14.751 20.9344 14.7922C20.9635 14.8335 20.9811 14.8812 20.9854 14.9307C20.9897 14.9803 20.9806 15.0301 20.9589 15.0753C20.9373 15.1206 20.9038 15.1598 20.8617 15.1891V15.188Z" fill="#2DD4BF"/>
</svg>
