<svg width="24" height="24" viewBox="0 0 24 24" fill="none" xmlns="http://www.w3.org/2000/svg">
<path fill-rule="evenodd" clip-rule="evenodd" d="M23 22.6628L21.798 20.6102L18.7876 15.4699C17.7947 13.778 16.9642 12.3728 16.9419 12.3441C16.8624 12.2473 16.8115 12.233 16.5091 12.233C16.2514 12.233 16.2259 12.2366 16.1655 12.2688C16.1305 12.2939 16.0796 12.337 16.0541 12.3728C16.025 12.4172 16.0095 12.4692 16.0094 12.5223L16.0032 15.8105L16.0001 19.1088C16 19.1605 16.0108 19.2116 16.0318 19.2588C16.0545 19.3086 16.0886 19.3507 16.1305 19.3807C16.1759 19.4156 16.2315 19.4345 16.2887 19.4345H16.4582C16.6842 19.4345 16.7255 19.4273 16.7733 19.3986C16.8324 19.3682 16.8799 19.3147 16.9069 19.2481C16.9321 19.1914 16.9324 19.0924 16.9386 16.7413L16.9387 16.6671C16.9406 15.8795 16.9434 15.1732 16.9467 14.7109C16.9492 14.3626 17.0656 14.3319 17.2466 14.6293C17.6658 15.3182 18.0819 16.0094 18.4948 16.703L20.0255 19.2517L21.2474 21.1121C21.8798 22.0754 22.4181 22.8879 22.4822 22.9815C22.4865 22.9878 22.4941 22.9924 22.4938 23M21.5863 12.1137C21.5601 12.0798 21.5282 12.0522 21.4925 12.0323C21.4447 12 21.4065 12 21.1838 12C20.9483 12 20.9292 12 20.8656 12.0358C20.8298 12.0583 20.7985 12.0885 20.7733 12.1249C20.7482 12.1612 20.7298 12.2028 20.7192 12.2473C20.7096 12.2868 20.7033 13.0861 20.7033 14.5056V16.4375C20.7033 16.6138 20.7498 16.7869 20.8383 16.9393L21.1774 17.5239C21.3092 17.7496 21.6548 17.6561 21.6548 17.3947V15.3158C21.6579 13.208 21.6548 12.2724 21.6452 12.2294C21.6326 12.1868 21.6125 12.1475 21.5863 12.1137Z" fill="#64748B"/>
<path d="M7.78418 4C8.4786 4.00007 9.15187 4.24086 9.68848 4.68164L12.0811 6.64746C12.2599 6.79435 12.4844 6.87493 12.7158 6.875H19C20.6569 6.875 22 8.21815 22 9.875V10H20V9.875C20 9.32272 19.5523 8.875 19 8.875H12.7158C12.0214 8.87493 11.3481 8.63414 10.8115 8.19336L8.41895 6.22754C8.24013 6.08065 8.01558 6.00007 7.78418 6H5C4.44772 6 4 6.44772 4 7V17C4 17.5523 4.44772 18 5 18H13V20H5C3.34315 20 2 18.6569 2 17V7C2 5.34315 3.34315 4 5 4H7.78418Z" fill="#64748B"/>
</svg>
