<svg width="24" height="24" viewBox="0 0 24 24" fill="none" xmlns="http://www.w3.org/2000/svg">
<path fill-rule="evenodd" clip-rule="evenodd" d="M5 4C3.34315 4 2 5.34315 2 7V17C2 18.6569 3.34315 20 5 20H13V18H5C4.44772 18 4 17.5523 4 17V7C4 6.44772 4.44772 6 5 6H7.78388C8.01539 6 8.23973 6.08033 8.41862 6.22727L10.8119 8.19318C11.3486 8.63402 12.0216 8.875 12.7161 8.875H19C19.5523 8.875 20 9.32272 20 9.875V10H22V9.875C22 8.21815 20.6569 6.875 19 6.875H12.7161C12.4846 6.875 12.2603 6.79467 12.0814 6.64773L9.6881 4.68182C9.15142 4.24098 8.47841 4 7.78388 4H5Z" fill="#64748B"/>
<path d="M16.4528 12.6518L15.5387 13.0001L14.2258 14.4218L13.4812 16.3113L13.7135 17.2723C13.9394 17.9545 14.3138 18.4301 14.9844 18.9369L15.468 18.472C15.468 18.472 16.1557 19.8593 17.4003 20.0843C17.4003 20.0843 19.2468 20.4326 20.2065 19.9265C20.4746 19.7851 20.6589 19.5974 20.7989 19.4598C21.1714 19.0936 21.3447 18.8263 21.6161 18.5169L21.9166 18.8422L22.2474 18.8322L23.1501 17.5314L23.5106 16.619L23.5067 15.8533L23.1156 14.8431L22.2459 13.5085C22.2459 13.5085 21.7714 12.7427 20.7763 12.8037C20.7763 12.8037 19.6067 11.934 18.647 12.0689C17.6873 12.2039 17.9973 11.9471 16.4528 12.6518Z" fill="#F4AA41"/>
<path d="M18.527 18.3335L17.9722 18.7683H17.5223L17.6167 19.4682L17.6924 20.0108L17.8372 20.4328L18.3471 20.7028L19.1718 20.5978L19.3265 20.2012L19.4527 19.4493L19.5917 18.7983L19.2318 18.8433L18.527 18.3335Z" fill="#EA5A47"/>
<path d="M17.8972 16.5675L17.6123 17.2423L18.0022 17.4673L18.2271 17.5572L19.0069 17.5872L19.5317 17.1824L19.2168 16.5975L17.8972 16.5675Z" fill="#3F3F3F"/>
<path d="M17.3585 15.3421C17.3585 15.3421 17.0337 15.5657 16.8639 15.4623C16.6942 15.3589 16.6403 15.1375 16.7437 14.9678C16.8471 14.798 17.0685 14.7442 17.2383 14.8476C17.408 14.951 17.3585 15.3421 17.3585 15.3421Z" fill="black"/>
<path d="M18.0068 16.5832H19.1127C19.1849 16.5832 19.2501 16.6263 19.2783 16.6928L19.4867 17.183L19.0946 17.3892C18.9838 17.4474 18.8489 17.3776 18.8324 17.2535" stroke="black" stroke-width="0.359891" stroke-linecap="round" stroke-linejoin="round"/>
<path d="M18.304 17.2592C18.2837 17.372 18.1644 17.4373 18.0585 17.3937L17.6422 17.2224L17.8383 16.6999C17.8647 16.6297 17.9318 16.5832 18.0068 16.5832" stroke="black" stroke-width="0.359891" stroke-linecap="round" stroke-linejoin="round"/>
<path d="M17.5259 18.9262C17.5259 18.9262 17.3966 20.5086 18.067 20.7144C18.5431 20.8607 18.9937 20.8102 19.1579 20.6695C19.3154 20.5345 19.6316 19.8644 19.4866 18.9262" stroke="black" stroke-width="0.359891" stroke-linecap="round" stroke-linejoin="round"/>
<path d="M20.0141 15.3421C20.0141 15.3421 20.3389 15.5657 20.5086 15.4623C20.6784 15.3589 20.7322 15.1375 20.6288 14.9678C20.5254 14.798 20.304 14.7442 20.1342 14.8476C19.9645 14.951 20.0141 15.3421 20.0141 15.3421Z" fill="black"/>
<path d="M16.6601 17.6329C16.5747 18.2811 17.0622 18.6677 17.4312 18.864C17.6465 18.9786 17.9081 18.9572 18.1001 18.8067L18.5646 18.4427L19.029 18.8067C19.221 18.9572 19.4826 18.9786 19.698 18.864C20.0669 18.6677 20.5544 18.2811 20.469 17.6329" stroke="black" stroke-width="0.359891" stroke-linecap="round" stroke-linejoin="round"/>
<path d="M15.639 15.0269C15.2222 15.9554 15.5476 17.3707 15.6605 17.7937C15.6824 17.876 15.674 17.9621 15.6376 18.039L15.28 18.7937C15.1679 19.0302 14.8493 19.0732 14.6806 18.873C14.1062 18.1915 13.1405 16.8234 13.5022 15.8704C14.773 12.5216 16.3575 12.6057 16.3575 12.6057C16.8695 12.2578 18.7155 11.3573 20.8224 12.7632C20.8224 12.7632 22.3757 12.4541 23.5103 15.811C23.8349 16.7712 22.8932 18.1263 22.3316 18.806C22.164 19.0088 21.8428 18.9669 21.7301 18.7292L21.3749 17.9796C21.3384 17.9027 21.3301 17.8165 21.352 17.7343C21.4649 17.3113 21.7903 15.896 21.3734 14.9675" stroke="black" stroke-width="0.359891" stroke-linecap="round" stroke-linejoin="round"/>
<path d="M21.5197 18.2849C21.5197 18.2849 20.9658 19.4944 20.1152 19.7733" stroke="black" stroke-width="0.359891" stroke-linecap="round" stroke-linejoin="round"/>
<path d="M15.5468 18.376C15.5468 18.376 16.1006 19.4705 16.9512 19.7493" stroke="black" stroke-width="0.359891" stroke-linecap="round" stroke-linejoin="round"/>
<path d="M18.5645 18.4427V17.8974" stroke="black" stroke-width="0.359891" stroke-linecap="round" stroke-linejoin="round"/>
</svg>
