<svg width="24" height="24" viewBox="0 0 24 24" fill="none" xmlns="http://www.w3.org/2000/svg">
<path fill-rule="evenodd" clip-rule="evenodd" d="M5 4C3.34315 4 2 5.34315 2 7V17C2 18.6569 3.34315 20 5 20H13V18H5C4.44772 18 4 17.5523 4 17V7C4 6.44772 4.44772 6 5 6H7.78388C8.01539 6 8.23973 6.08033 8.41862 6.22727L10.8119 8.19318C11.3486 8.63402 12.0216 8.875 12.7161 8.875H19C19.5523 8.875 20 9.32272 20 9.875V10H22V9.875C22 8.21815 20.6569 6.875 19 6.875H12.7161C12.4846 6.875 12.2603 6.79467 12.0814 6.64773L9.6881 4.68182C9.15142 4.24098 8.47841 4 7.78388 4H5Z" fill="#64748B"/>
<path fill-rule="evenodd" clip-rule="evenodd" d="M14.076 16.7366C13.9761 16.5791 13.9746 16.3785 14.0721 16.2195L17.7419 10.2333C17.946 9.90036 18.4389 9.92948 18.6024 10.2841L21.9549 17.5566C22.0793 17.8264 21.9361 18.1439 21.6515 18.2293L16.4363 19.7939C16.2265 19.8568 16.0004 19.7724 15.8831 19.5874L14.076 16.7366ZM18.1653 11.9836C18.2006 11.8075 18.4419 11.7821 18.5132 11.947L20.8257 17.2981C20.8692 17.3989 20.8151 17.515 20.7099 17.5464L17.1067 18.622C16.9742 18.6616 16.8473 18.5459 16.8746 18.4103L18.1653 11.9836Z" fill="#14B8A6"/>
</svg>
