<svg width="24" height="24" viewBox="0 0 24 24" fill="none" xmlns="http://www.w3.org/2000/svg">
    <path fill="#64748b" d="M5 4a3 3 0 0 0-3 3v10a3 3 0 0 0 3 3h8v-2H5a1 1 0 0 1-1-1V7a1 1 0 0 1 1-1h2.784a1 1 0 0 1 .635.227l2.393 1.966a3 3 0 0 0 1.904.682H19a1 1 0 0 1 1 1V10h2v-.125a3 3 0 0 0-3-3h-6.284a1 1 0 0 1-.635-.227L9.688 4.682A3 3 0 0 0 7.784 4z"/>
    <path fill="#0ea5e9" d="M17.469 10.796a5.7 5.7 0 0 0-1.334.456c.01.374.034.733.084 1.096-.165.106-.338.197-.492.32-.155.12-.315.235-.456.376a9 9 0 0 0-.89-.518 7 7 0 0 0-.896 1.174c.2.313.414.628.611.872v2.649h.015l1.623.157a.175.175 0 0 1 .158.162l.05.716 1.417.101.097-.661a.175.175 0 0 1 .173-.15h1.713a.175.175 0 0 1 .173.15l.097.661 1.417-.101.05-.716a.175.175 0 0 1 .157-.162l1.623-.157h.015v-2.649a10 10 0 0 0 .611-.871 6.8 6.8 0 0 0-.896-1.174c-.308.154-.606.33-.889.516-.142-.14-.301-.255-.457-.375-.154-.123-.327-.213-.491-.32a10 10 0 0 0 .083-1.096 5.7 5.7 0 0 0-1.334-.456 10 10 0 0 0-.494.964 3.5 3.5 0 0 0-.518-.043h-.007a3.5 3.5 0 0 0-.52.042 10 10 0 0 0-.493-.963m-1.286 3.875a.978.978 0 1 1 .001 1.954.978.978 0 0 1-.001-1.955m4.603 0a.978.978 0 1 1 0 1.955.978.978 0 0 1 0-1.955m-2.301.571c.174 0 .316.128.316.286v.902c0 .158-.142.286-.316.286s-.315-.128-.315-.286v-.9c0-.158.141-.287.315-.287m-4.391 2.33.002.363c0 1.542 1.955 2.283 4.386 2.291h.006c2.43-.008 4.386-.75 4.386-2.291l.003-.363-1.46.14-.05.721a.175.175 0 0 1-.162.161l-1.73.125h-.012a.175.175 0 0 1-.172-.149l-.1-.673H17.78l-.099.672a.175.175 0 0 1-.185.15l-1.73-.123a.175.175 0 0 1-.161-.163l-.05-.72z" style="stroke-width:1"/>
</svg>
