<svg width="24" height="24" viewBox="0 0 24 24" fill="none" xmlns="http://www.w3.org/2000/svg">
<path fill-rule="evenodd" clip-rule="evenodd" d="M5 4C3.34315 4 2 5.34315 2 7V17C2 18.6569 3.34315 20 5 20H13V18H5C4.44772 18 4 17.5523 4 17V7C4 6.44772 4.44772 6 5 6H7.78388C8.01539 6 8.23973 6.08033 8.41862 6.22727L10.8119 8.19318C11.3486 8.63402 12.0216 8.875 12.7161 8.875H19C19.5523 8.875 20 9.32272 20 9.875V10H22V9.875C22 8.21815 20.6569 6.875 19 6.875H12.7161C12.4846 6.875 12.2603 6.79467 12.0814 6.64773L9.6881 4.68182C9.15142 4.24098 8.47841 4 7.78388 4H5Z" fill="#64748B"/>
<path d="M22.8502 15.562L22.8375 15.5284L21.6126 12.2093C21.5876 12.1443 21.5435 12.0891 21.4865 12.0517C21.4295 12.0149 21.3629 11.9972 21.2959 12.001C21.2289 12.0047 21.1645 12.0297 21.1116 12.0726C21.0593 12.1168 21.0213 12.1766 21.0029 12.2439L20.1758 14.8711H16.8266L15.9994 12.2439C15.9815 12.1762 15.9435 12.1161 15.8907 12.0721C15.8378 12.0292 15.7735 12.0042 15.7064 12.0005C15.6394 11.9967 15.5729 12.0145 15.5158 12.0512C15.459 12.0888 15.4149 12.1439 15.3898 12.2089L14.1625 15.5265L14.1503 15.56C13.9739 16.0384 13.9522 16.5633 14.0883 17.0556C14.2243 17.5479 14.5109 17.981 14.9048 18.2894L14.909 18.2928L14.9202 18.3011L16.7863 19.7519L17.7094 20.4773L18.2718 20.9181C18.3376 20.97 18.4179 20.9981 18.5005 20.9981C18.5831 20.9981 18.6634 20.97 18.7292 20.9181L19.2915 20.4773L20.2147 19.7519L22.092 18.2924L22.0967 18.2885C22.4896 17.9799 22.7755 17.5473 22.9114 17.0557C23.0473 16.564 23.0258 16.0399 22.8502 15.562Z" fill="#E24329"/>
<path d="M22.8502 15.562L22.8375 15.5284C22.2407 15.6556 21.6782 15.9181 21.1903 16.2971L18.5 18.4091C19.4162 19.1287 20.2137 19.7539 20.2137 19.7539L22.091 18.2943L22.0957 18.2904C22.4892 17.9819 22.7756 17.549 22.9116 17.057C23.0477 16.5649 23.0261 16.0402 22.8502 15.562Z" fill="#FC6D26"/>
<path d="M16.7863 19.7539L17.7094 20.4793L18.2718 20.9201C18.3376 20.9719 18.4179 21 18.5005 21C18.5831 21 18.6634 20.9719 18.7292 20.9201L19.2915 20.4793L20.2147 19.7539C20.2147 19.7539 19.4161 19.1267 18.5 18.4091C17.5838 19.1267 16.7863 19.7539 16.7863 19.7539Z" fill="#FCA326"/>
<path d="M15.8092 16.2971C15.3217 15.9173 14.7594 15.6541 14.1625 15.5265L14.1503 15.56C13.9739 16.0384 13.9522 16.5633 14.0883 17.0556C14.2243 17.5479 14.5109 17.981 14.9048 18.2894L14.909 18.2928L14.9202 18.3011L16.7863 19.7519C16.7863 19.7519 17.5829 19.1267 18.5 18.4072L15.8092 16.2971Z" fill="#FC6D26"/>
</svg>
