<svg width="24" height="24" viewBox="0 0 24 24" fill="none" xmlns="http://www.w3.org/2000/svg">
<path d="M7.78418 4C8.4786 4.00007 9.15187 4.24086 9.68848 4.68164L12.0811 6.64746L12.2236 6.74512C12.3729 6.82963 12.5423 6.87495 12.7158 6.875H19C20.6569 6.875 22 8.21815 22 9.875V10H20V9.875C20 9.32272 19.5523 8.875 19 8.875H12.7158C12.1082 8.87494 11.5173 8.69005 11.0195 8.34863L10.8115 8.19336L8.41895 6.22754C8.24013 6.08065 8.01558 6.00007 7.78418 6H5C4.44772 6 4 6.44772 4 7V17C4 17.5523 4.44772 18 5 18H13V20H5C3.34315 20 2 18.6569 2 17V7C2 5.34315 3.34315 4 5 4H7.78418Z" fill="#64748B"/>
<path d="M16.9903 12.3434H18.1724V16.2876C18.1724 16.6521 18.0905 16.9689 17.9266 17.2377C17.7646 17.5065 17.539 17.7137 17.2499 17.8591C16.9608 18.0046 16.6248 18.0773 16.2418 18.0773C15.9012 18.0773 15.5918 18.0175 15.3138 17.8978C15.0376 17.7763 14.8185 17.5921 14.6564 17.3454C14.4944 17.0968 14.4143 16.7847 14.4161 16.4091H15.6065C15.6102 16.5582 15.6406 16.6862 15.6977 16.793C15.7566 16.898 15.8367 16.979 15.938 17.0361C16.0411 17.0913 16.1626 17.1189 16.3026 17.1189C16.4499 17.1189 16.5742 17.0876 16.6754 17.025C16.7786 16.9606 16.8568 16.8667 16.9102 16.7433C16.9636 16.6199 16.9903 16.468 16.9903 16.2876V12.3434ZM22.2298 13.9702C22.2077 13.7474 22.1129 13.5744 21.9453 13.451C21.7778 13.3276 21.5504 13.2659 21.2631 13.2659C21.0679 13.2659 20.9031 13.2936 20.7687 13.3488C20.6343 13.4022 20.5312 13.4768 20.4594 13.5725C20.3894 13.6683 20.3544 13.7769 20.3544 13.8984C20.3507 13.9997 20.3719 14.0881 20.4179 14.1636C20.4658 14.2391 20.5312 14.3045 20.614 14.3597C20.6969 14.4131 20.7926 14.46 20.9013 14.5006C21.0099 14.5392 21.1259 14.5724 21.2493 14.6L21.7575 14.7215C22.0042 14.7768 22.2307 14.8504 22.437 14.9425C22.6432 15.0345 22.8218 15.1478 22.9728 15.2822C23.1238 15.4166 23.2407 15.575 23.3236 15.7573C23.4083 15.9396 23.4515 16.1485 23.4534 16.3842C23.4515 16.7304 23.3631 17.0305 23.1882 17.2846C23.0151 17.5369 22.7647 17.733 22.437 17.8729C22.111 18.011 21.7179 18.0801 21.2576 18.0801C20.8009 18.0801 20.4032 18.0101 20.0644 17.8702C19.7274 17.7302 19.4641 17.5231 19.2745 17.2487C19.0867 16.9725 18.9881 16.631 18.9789 16.224H20.1362C20.1491 16.4137 20.2034 16.572 20.2992 16.6991C20.3968 16.8243 20.5266 16.9191 20.6886 16.9836C20.8525 17.0462 21.0375 17.0775 21.2438 17.0775C21.4463 17.0775 21.6222 17.048 21.7713 16.9891C21.9223 16.9302 22.0392 16.8482 22.1221 16.7433C22.2049 16.6383 22.2464 16.5177 22.2464 16.3815C22.2464 16.2544 22.2086 16.1476 22.1331 16.0611C22.0595 15.9745 21.9508 15.9009 21.8072 15.8401C21.6654 15.7794 21.4914 15.7241 21.2852 15.6744L20.6693 15.5197C20.1924 15.4037 19.8158 15.2224 19.5396 14.9756C19.2634 14.7289 19.1262 14.3965 19.1281 13.9785C19.1262 13.636 19.2174 13.3368 19.4015 13.0809C19.5875 12.8249 19.8425 12.6252 20.1666 12.4815C20.4907 12.3379 20.8589 12.2661 21.2714 12.2661C21.6912 12.2661 22.0576 12.3379 22.3707 12.4815C22.6855 12.6252 22.9304 12.8249 23.1054 13.0809C23.2803 13.3368 23.3705 13.6333 23.376 13.9702H22.2298Z" fill="#F59E0B"/>
</svg>
