<svg version="1.2" xmlns="http://www.w3.org/2000/svg" viewBox="0 0 24 24" width="24" height="24">
	<style>
		.s0 { fill: #64748b }
	</style>
	<path fill-rule="evenodd" class="s0" d="m5 4c-1.66 0-3 1.34-3 3v10c0 1.66 1.34 3 3 3h8v-2h-8c-0.55 0-1-0.45-1-1v-10c0-0.55 0.45-1 1-1h2.78q0.36 0 0.64 0.23l2.39 1.96c0.54 0.44 1.21 0.69 1.91 0.69h6.28c0.55 0 1 0.44 1 1v0.12h2v-0.12c0-1.66-1.34-3-3-3h-6.28q-0.36-0.01-0.64-0.23l-2.39-1.97c-0.54-0.44-1.21-0.68-1.91-0.68z"/>
	<g transform="matrix(.083,0,0,.083,13.098,12)">
		<path d="M68.997 45.998C68.997 20.594 48.403 0 22.999 0H0C0 25.404 20.594 45.998 45.998 45.998H68.997Z" fill="#0EA5E9"/>
		<path d="M68.997 45.998C68.997 71.402 48.403 91.9958 22.999 91.9958H13.7994C13.7994 66.5919 34.3934 45.9979 59.7974 45.9979L68.997 45.998Z" fill="#0EA5E9"/>
		<path d="M61.6373 45.998C61.6373 20.594 82.2313 0 107.635 0H130.634C130.634 25.404 110.04 45.998 84.6363 45.998H61.6373Z" fill="#0EA5E9"/>
		<path d="M61.6373 45.998C61.6373 71.402 82.2312 91.9959 107.635 91.9959H116.835C116.835 66.592 96.2408 45.998 70.8369 45.998L61.6373 45.998Z" fill="#0EA5E9"/>
		<path d="M65.3171 27.9402C67.6858 33.4842 68.9969 39.5879 68.9969 45.9978C68.9969 52.4078 67.6858 58.5115 65.3171 64.0554C62.9484 58.5115 61.6373 52.4078 61.6373 45.9978C61.6373 39.5879 62.9484 33.4842 65.3171 27.9402Z" fill="#0EA5E9"/>
	</g>
</svg>
