<svg width="24" height="24" viewBox="0 0 24 24" fill="none" xmlns="http://www.w3.org/2000/svg">
<path fill-rule="evenodd" clip-rule="evenodd" d="M5 4C3.34315 4 2 5.34315 2 7V17C2 18.6569 3.34315 20 5 20H13V18H5C4.44772 18 4 17.5523 4 17V7C4 6.44772 4.44772 6 5 6H7.78388C8.01539 6 8.23973 6.08033 8.41862 6.22727L10.8119 8.19318C11.3486 8.63402 12.0216 8.875 12.7161 8.875H19C19.5523 8.875 20 9.32272 20 9.875V10H22V9.875C22 8.21815 20.6569 6.875 19 6.875H12.7161C12.4846 6.875 12.2603 6.79467 12.0814 6.64773L9.6881 4.68182C9.15142 4.24098 8.47841 4 7.78388 4H5Z" fill="#64748B"/>
<path d="M18.6429 12C18.051 12 17.5714 12.4796 17.5714 13.0714V13.7143H15.8571C15.3836 13.7143 15 14.0979 15 14.5714V15.8571C15 16.0937 15.192 16.2857 15.4286 16.2857H15.5818C16.1423 16.2857 16.6523 16.6891 16.7084 17.2467C16.7727 17.8882 16.2711 18.4286 15.6429 18.4286H15.4286C15.192 18.4286 15 18.6206 15 18.8571V20.1429C15 20.6164 15.3836 21 15.8571 21H17.1429C17.3794 21 17.5714 20.808 17.5714 20.5714V20.4182C17.5714 19.8577 17.9748 19.3477 18.5324 19.2916C19.1739 19.2273 19.7143 19.7289 19.7143 20.3571V20.5714C19.7143 20.808 19.9063 21 20.1429 21H21.4286C21.9021 21 22.2857 20.6164 22.2857 20.1429V18.4286H22.9286C23.5204 18.4286 24 17.949 24 17.3571C24 16.7653 23.5204 16.2857 22.9286 16.2857H22.2857V14.5714C22.2857 14.0979 21.9021 13.7143 21.4286 13.7143H19.7143V13.0714C19.7143 12.4796 19.2347 12 18.6429 12Z" fill="#14B8A6"/>
</svg>
