<svg width="24" height="24" viewBox="0 0 24 24" fill="none" xmlns="http://www.w3.org/2000/svg">
<path fill-rule="evenodd" clip-rule="evenodd" d="M5 4C3.34315 4 2 5.34315 2 7V17C2 18.6569 3.34315 20 5 20H13V18H5C4.44772 18 4 17.5523 4 17V7C4 6.44772 4.44772 6 5 6H7.78388C8.01539 6 8.23973 6.08033 8.41862 6.22727L10.8119 8.19318C11.3486 8.63402 12.0216 8.875 12.7161 8.875H19C19.5523 8.875 20 9.32272 20 9.875V10H22V9.875C22 8.21815 20.6569 6.875 19 6.875H12.7161C12.4846 6.875 12.2603 6.79467 12.0814 6.64773L9.6881 4.68182C9.15142 4.24098 8.47841 4 7.78388 4H5Z" fill="#64748B"/>
<g clip-path="url(#clip0_4_143)">
<path d="M18 16.4225C18.5607 16.4225 19.0152 16.0095 19.0152 15.5C19.0152 14.9905 18.5607 14.5775 18 14.5775C17.4393 14.5775 16.9848 14.9905 16.9848 15.5C16.9848 16.0095 17.4393 16.4225 18 16.4225Z" fill="#2563EB"/>
<path d="M18 17.39C21.0085 17.39 23.4474 16.5438 23.4474 15.5C23.4474 14.4562 21.0085 13.61 18 13.61C14.9915 13.61 12.5526 14.4562 12.5526 15.5C12.5526 16.5438 14.9915 17.39 18 17.39Z" stroke="#2563EB"/>
<path d="M16.1988 16.445C17.703 18.8125 19.7289 20.3088 20.7237 19.7868C21.7185 19.2649 21.3055 16.9226 19.8013 14.555C18.297 12.1874 16.2711 10.6913 15.2763 11.2132C14.2815 11.7351 14.6945 14.0774 16.1988 16.445Z" stroke="#2563EB"/>
<path d="M16.1988 14.555C14.6945 16.9226 14.2815 19.2649 15.2763 19.7868C16.2711 20.3088 18.297 18.8125 19.8013 16.445C21.3055 14.0775 21.7185 11.7351 20.7237 11.2132C19.7289 10.6913 17.703 12.1875 16.1988 14.555Z" stroke="#2563EB"/>
</g>
<defs>
<clipPath id="clip0_4_143">
<rect width="12" height="11" fill="white" transform="translate(12 10)"/>
</clipPath>
</defs>
</svg>
