<svg width="24" height="24" viewBox="0 0 24 24" fill="none" xmlns="http://www.w3.org/2000/svg">
<path fill-rule="evenodd" clip-rule="evenodd" d="M5 4C3.34315 4 2 5.34315 2 7V17C2 18.6569 3.34315 20 5 20H13V18H5C4.44772 18 4 17.5523 4 17V7C4 6.44772 4.44772 6 5 6H7.78388C8.01539 6 8.23973 6.08033 8.41862 6.22727L10.8119 8.19318C11.3486 8.63402 12.0216 8.875 12.7161 8.875H19C19.5523 8.875 20 9.32272 20 9.875V10H22V9.875C22 8.21815 20.6569 6.875 19 6.875H12.7161C12.4846 6.875 12.2603 6.79467 12.0814 6.64773L9.6881 4.68182C9.15142 4.24098 8.47841 4 7.78388 4H5Z" fill="#64748B"/>
<path d="M15 18.993C15.0161 19.1892 15.0862 19.3866 15.2692 19.6513C15.4867 19.9656 15.8602 20.1381 16.1329 19.8612C16.3166 19.6742 18.3056 16.2418 19.2641 14.9408C19.2904 14.9035 19.3254 14.8731 19.3661 14.852C19.4069 14.831 19.4521 14.82 19.4981 14.82C19.5441 14.82 19.5894 14.831 19.6301 14.852C19.6709 14.8731 19.7059 14.9035 19.7321 14.9408C20.6906 16.2418 22.6796 19.6742 22.8634 19.8612C23.136 20.1381 23.5095 19.9656 23.727 19.6513C23.9407 19.3421 24 19.1255 24 18.8938C24 18.7361 20.9025 13.0448 20.5905 12.5709C20.2905 12.1155 20.199 12.0163 19.6916 12H19.3046C18.7973 12.0163 18.7058 12.1151 18.4054 12.5709C18.1001 13.0348 15.1238 18.5021 15 18.8767V18.993Z" fill="#0F172A"/>
</svg>
