<svg width="24" height="24" viewBox="0 0 24 24" fill="none" xmlns="http://www.w3.org/2000/svg">
<path d="M20.3896 17.6357C20.7033 17.6032 20.9412 17.3328 20.9304 17.0083C20.9196 16.6838 20.6492 16.4241 20.3247 16.4241H20.3031C19.9677 16.435 19.7081 16.7162 19.719 17.0515C19.7298 17.2138 19.7947 17.3544 19.892 17.4518C19.5243 18.1765 18.9618 18.7065 18.1181 19.15C17.5448 19.4529 16.9499 19.5611 16.355 19.4854C15.8683 19.4205 15.4897 19.2041 15.2517 18.8471C14.9056 18.3171 14.8731 17.7438 15.1652 17.1705C15.3707 16.7595 15.6952 16.4566 15.9007 16.3051C15.8574 16.1645 15.7925 15.9266 15.7601 15.7535C14.1917 16.8893 14.3539 18.4253 14.8299 19.15C15.1868 19.6909 15.9115 20.0262 16.712 20.0262C16.9283 20.0262 17.1446 20.0046 17.3609 19.9505C18.7455 19.6801 19.7947 18.858 20.3896 17.6357ZM22.2933 16.2944C21.4713 15.3316 20.2598 14.8016 18.8753 14.8016H18.7022C18.6049 14.6069 18.3993 14.4771 18.1722 14.4771H18.1505C17.8153 14.4879 17.5557 14.7691 17.5665 15.1045C17.5773 15.429 17.8477 15.6886 18.1722 15.6886H18.1938C18.4318 15.6778 18.6373 15.5263 18.7238 15.3208H18.9185C19.7406 15.3208 20.5194 15.5588 21.2225 16.0239C21.7633 16.3809 22.1527 16.846 22.369 17.4085C22.5529 17.8628 22.5421 18.3063 22.3474 18.6849C22.0445 19.2582 21.5362 19.5719 20.8655 19.5719C20.4329 19.5719 20.0218 19.4421 19.8055 19.3447C19.6865 19.4529 19.4702 19.626 19.3187 19.7342C19.7839 19.9505 20.2598 20.0695 20.7141 20.0695C21.7525 20.0695 22.5205 19.4962 22.8125 18.9229C23.1262 18.2955 23.1046 17.2138 22.2933 16.2944ZM16.7985 17.8195C16.8093 18.144 17.0797 18.4036 17.4042 18.4036H17.4259C17.7612 18.3928 18.0208 18.1116 18.0099 17.7762C17.9991 17.4517 17.7287 17.1921 17.4042 17.1921H17.3826C17.3609 17.1921 17.3285 17.1921 17.3069 17.2029C16.8634 16.4674 16.6795 15.667 16.7444 14.8016C16.7877 14.1526 17.004 13.5901 17.3826 13.1249C17.6963 12.7247 18.302 12.53 18.713 12.5192C19.8596 12.4975 20.3463 13.9254 20.3788 14.4987C20.5194 14.5311 20.7574 14.6069 20.9196 14.661C20.7898 12.9086 19.7081 12 18.6698 12C17.6963 12 16.7985 12.7031 16.4415 13.7415C15.944 15.1261 16.2685 16.4566 16.8742 17.5058C16.8201 17.5815 16.7877 17.7005 16.7985 17.8195Z" fill="#16A34A" stroke="#16A34A" stroke-width="0.25"/>
<path fill-rule="evenodd" clip-rule="evenodd" d="M5 4C3.34315 4 2 5.34315 2 7V17C2 18.6569 3.34315 20 5 20H13V18H5C4.44772 18 4 17.5523 4 17V7C4 6.44772 4.44772 6 5 6H7.78388C8.01539 6 8.23973 6.08033 8.41862 6.22727L10.8119 8.19318C11.3486 8.63402 12.0216 8.875 12.7161 8.875H19C19.5523 8.875 20 9.32272 20 9.875V10H22V9.875C22 8.21815 20.6569 6.875 19 6.875H12.7161C12.4846 6.875 12.2603 6.79467 12.0814 6.64773L9.6881 4.68182C9.15142 4.24098 8.47841 4 7.78388 4H5Z" fill="#64748B"/>
</svg>
