<svg width="24" height="24" viewBox="0 0 24 24" fill="none" xmlns="http://www.w3.org/2000/svg">
<path d="M7.78418 4C8.4786 4.00007 9.15187 4.24086 9.68848 4.68164L12.0811 6.64746L12.2236 6.74512C12.3729 6.82963 12.5423 6.87495 12.7158 6.875H19C20.6569 6.875 22 8.21815 22 9.875V10H20V9.875C20 9.32272 19.5523 8.875 19 8.875H12.7158C12.1082 8.87494 11.5173 8.69005 11.0195 8.34863L10.8115 8.19336L8.41895 6.22754C8.24013 6.08065 8.01558 6.00007 7.78418 6H5C4.44772 6 4 6.44772 4 7V17C4 17.5523 4.44772 18 5 18H13V20H5C3.34315 20 2 18.6569 2 17V7C2 5.34315 3.34315 4 5 4H7.78418Z" fill="#64748B"/>
<g clip-path="url(#clip0_38273_348)">
<mask id="mask0_38273_348" style="mask-type:luminance" maskUnits="userSpaceOnUse" x="13" y="10" width="11" height="11">
<path d="M24 10H13V21H24V10Z" fill="white"/>
</mask>
<g mask="url(#mask0_38273_348)">
<path d="M19.1454 18.2715C19.1454 18.3852 19.0533 18.4774 18.9395 18.4774H16.4912C16.3775 18.4774 16.2853 18.3852 16.2853 18.2715C16.2853 18.1578 16.3776 18.0666 16.4911 18.0608C16.6298 18.0538 16.7373 18.039 16.8135 18.0163C16.9239 17.9805 16.9791 17.8985 16.9791 17.7702C16.9791 17.6806 16.9612 17.5896 16.9254 17.4971L16.7542 17.0691C16.6846 16.8951 16.516 16.781 16.3286 16.781H14.9871C14.7961 16.781 14.6251 16.8995 14.558 17.0784L14.5218 17.1749C14.4383 17.3957 14.3965 17.5553 14.3965 17.6538C14.3965 17.8328 14.4651 17.9462 14.6024 17.994C14.6881 18.0232 14.7822 18.0434 14.8847 18.0548C14.9978 18.0673 15.0903 18.1578 15.0903 18.2715C15.0903 18.3852 14.9981 18.4774 14.8844 18.4774H13.2059C13.0922 18.4774 13 18.3852 13 18.2715C13 18.1578 13.0931 18.0687 13.2048 18.0476C13.2863 18.0321 13.3598 18.0068 13.4252 17.9716C13.5416 17.9089 13.652 17.7911 13.7564 17.618C13.8639 17.4419 13.9787 17.1943 14.1011 16.875L15.775 12.4911C15.8209 12.371 15.9361 12.2917 16.0647 12.2917C16.1923 12.2917 16.307 12.3699 16.3535 12.4888L18.1249 17.0182C18.2592 17.3524 18.3577 17.5792 18.4203 17.6986C18.483 17.8149 18.5695 17.9059 18.6799 17.9716C18.7491 18.0108 18.8358 18.0378 18.9401 18.0524C19.0527 18.0683 19.1454 18.1578 19.1454 18.2715ZM15.8037 16.3424C16.1272 16.3424 16.3489 16.0163 16.23 15.7155L16.0776 15.33C15.9234 14.9401 15.37 14.9447 15.2224 15.3371L15.0773 15.7226C14.9645 16.0223 15.186 16.3424 15.5063 16.3424H15.8037Z" fill="#64748B"/>
<path d="M24.0331 17.5329C24.1246 17.5329 24.2 17.6074 24.1899 17.6983C24.1725 17.8555 24.1291 17.9943 24.06 18.1148C23.9674 18.273 23.8421 18.3908 23.684 18.4684C23.5288 18.543 23.3528 18.5803 23.1558 18.5803C22.9052 18.5803 22.6963 18.5222 22.5292 18.4057C22.3314 18.2645 22.001 18.1617 21.7894 18.2812C21.4362 18.4806 21.0816 18.5803 20.7254 18.5803C20.4031 18.5803 20.1391 18.5027 19.9332 18.3476C19.7273 18.1894 19.6243 17.9821 19.6243 17.7254C19.6243 17.5136 19.6796 17.3226 19.79 17.1525C19.9003 16.9795 20.0615 16.8258 20.2733 16.6915C20.4882 16.5572 20.7433 16.4394 21.0387 16.3379C21.2773 16.2535 21.5636 16.1663 21.8975 16.0761C22.0425 16.0369 22.1443 15.9062 22.1443 15.756C22.1443 15.5442 22.0936 15.3785 21.9921 15.2592C21.8936 15.1369 21.7101 15.0757 21.4416 15.0757C21.2118 15.0757 21.0462 15.1234 20.9447 15.2189C20.8433 15.3144 20.7761 15.4591 20.7433 15.6531C20.7194 15.7904 20.6747 15.9037 20.6091 15.9933C20.5464 16.0798 20.4136 16.1231 20.2107 16.1231C20.0854 16.1231 19.975 16.0872 19.8795 16.0156C19.784 15.944 19.7363 15.8381 19.7363 15.6978C19.7363 15.4203 19.8869 15.1786 20.1883 14.9727C20.4897 14.7669 20.9522 14.6639 21.5758 14.6639C22.2323 14.6639 22.6829 14.7743 22.9276 14.9951C23.1752 15.2159 23.2991 15.5113 23.2991 15.8813V17.2958C23.2991 17.4748 23.3036 17.6061 23.3125 17.6896C23.3214 17.7732 23.3453 17.8373 23.3841 17.8821C23.4259 17.9239 23.49 17.9448 23.5766 17.9448C23.6541 17.9448 23.7213 17.9045 23.778 17.8239C23.8067 17.7851 23.8285 17.7425 23.8434 17.6962C23.8714 17.6091 23.9416 17.5329 24.0331 17.5329ZM21.9699 17.7009C22.083 17.6212 22.1443 17.4883 22.1443 17.3499V17.0841C22.1443 16.7744 21.841 16.5494 21.5576 16.6744C21.319 16.7797 21.1536 16.8838 21.0611 16.9869C20.9089 17.157 20.8328 17.3241 20.8328 17.4882C20.8328 17.6255 20.8746 17.7359 20.9582 17.8194C21.0417 17.903 21.1596 17.9448 21.3118 17.9448C21.4759 17.9448 21.6206 17.9104 21.7459 17.8418C21.8181 17.8023 21.8928 17.7553 21.9699 17.7009Z" fill="#64748B"/>
</g>
</g>
<defs>
<clipPath id="clip0_38273_348">
<rect width="11" height="11" fill="white" transform="translate(13 10)"/>
</clipPath>
</defs>
</svg>
