<svg width="24" height="24" viewBox="0 0 24 24" fill="none" xmlns="http://www.w3.org/2000/svg">
<path d="M20.3896 16.6357C20.7033 16.6032 20.9412 16.3328 20.9304 16.0083C20.9196 15.6838 20.6492 15.4241 20.3247 15.4241H20.3031C19.9677 15.435 19.7081 15.7162 19.719 16.0515C19.7298 16.2138 19.7947 16.3544 19.892 16.4518C19.5243 17.1765 18.9618 17.7065 18.1181 18.15C17.5448 18.4529 16.9499 18.5611 16.355 18.4854C15.8683 18.4205 15.4897 18.2041 15.2517 17.8471C14.9056 17.3171 14.8731 16.7438 15.1652 16.1705C15.3707 15.7595 15.6952 15.4566 15.9007 15.3051C15.8574 15.1645 15.7925 14.9266 15.7601 14.7535C14.1917 15.8893 14.3539 17.4253 14.8299 18.15C15.1868 18.6909 15.9115 19.0262 16.712 19.0262C16.9283 19.0262 17.1446 19.0046 17.3609 18.9505C18.7455 18.6801 19.7947 17.858 20.3896 16.6357ZM22.2933 15.2944C21.4713 14.3316 20.2598 13.8016 18.8753 13.8016H18.7022C18.6049 13.6069 18.3993 13.4771 18.1722 13.4771H18.1505C17.8153 13.4879 17.5557 13.7691 17.5665 14.1045C17.5773 14.429 17.8477 14.6886 18.1722 14.6886H18.1938C18.4318 14.6778 18.6373 14.5263 18.7238 14.3208H18.9185C19.7406 14.3208 20.5194 14.5588 21.2225 15.0239C21.7633 15.3809 22.1527 15.846 22.369 16.4085C22.5529 16.8628 22.5421 17.3063 22.3474 17.6849C22.0445 18.2582 21.5362 18.5719 20.8655 18.5719C20.4329 18.5719 20.0218 18.4421 19.8055 18.3447C19.6865 18.4529 19.4702 18.626 19.3187 18.7342C19.7839 18.9505 20.2598 19.0695 20.7141 19.0695C21.7525 19.0695 22.5205 18.4962 22.8125 17.9229C23.1262 17.2955 23.1046 16.2138 22.2933 15.2944ZM16.7985 16.8195C16.8093 17.144 17.0797 17.4036 17.4042 17.4036H17.4259C17.7612 17.3928 18.0208 17.1116 18.0099 16.7762C17.9991 16.4517 17.7287 16.1921 17.4042 16.1921H17.3826C17.3609 16.1921 17.3285 16.1921 17.3069 16.2029C16.8634 15.4674 16.6795 14.667 16.7444 13.8016C16.7877 13.1526 17.004 12.5901 17.3826 12.1249C17.6963 11.7247 18.302 11.53 18.713 11.5192C19.8596 11.4975 20.3463 12.9254 20.3788 13.4987C20.5194 13.5311 20.7574 13.6069 20.9196 13.661C20.7898 11.9086 19.7081 11 18.6698 11C17.6963 11 16.7985 11.7031 16.4415 12.7415C15.944 14.1261 16.2685 15.4566 16.8742 16.5058C16.8201 16.5815 16.7877 16.7005 16.7985 16.8195Z" fill="#8B5CF6" stroke="#8B5CF6" stroke-width="0.25"/>
<path fill-rule="evenodd" clip-rule="evenodd" d="M5 4C3.34315 4 2 5.34315 2 7V17C2 18.6569 3.34315 20 5 20H13V18H5C4.44772 18 4 17.5523 4 17V7C4 6.44772 4.44772 6 5 6H7.78388C8.01539 6 8.23973 6.08033 8.41862 6.22727L10.8119 8.19318C11.3486 8.63402 12.0216 8.875 12.7161 8.875H19C19.5523 8.875 20 9.32272 20 9.875V10H22V9.875C22 8.21815 20.6569 6.875 19 6.875H12.7161C12.4846 6.875 12.2603 6.79467 12.0814 6.64773L9.6881 4.68182C9.15142 4.24098 8.47841 4 7.78388 4H5Z" fill="#64748B"/>
</svg>
