<svg width="24" height="24" viewBox="0 0 24 24" fill="none" xmlns="http://www.w3.org/2000/svg">
<path d="M7.78418 4C8.4786 4.00007 9.15187 4.24086 9.68848 4.68164L12.0811 6.64746C12.2599 6.79435 12.4844 6.87493 12.7158 6.875H19C20.6569 6.875 22 8.21815 22 9.875V10H20V9.875C20 9.32272 19.5523 8.875 19 8.875H12.7158C12.0214 8.87493 11.3481 8.63414 10.8115 8.19336L8.41895 6.22754C8.24013 6.08065 8.01558 6.00007 7.78418 6H5C4.44772 6 4 6.44772 4 7V17C4 17.5523 4.44772 18 5 18H13V20H5C3.34315 20 2 18.6569 2 17V7C2 5.34315 3.34315 4 5 4H7.78418Z" fill="#64748B"/>
<path d="M15.195 11.7183C14.7711 11.7183 14.4275 12.0769 14.4275 12.5192V14.6062C14.4275 16.429 15.8436 17.9067 17.5904 17.9067C19.1764 17.9067 20.4897 16.6886 20.7182 15.1002C20.7334 13.2083 20.7334 14.125 20.7334 12.3372C20.6545 11.9826 20.3497 11.7183 19.9859 11.7183H15.195Z" stroke="#F87171" stroke-width="0.916667"/>
<line x1="14.6662" y1="19.2817" x2="21.6558" y2="19.2817" stroke="#F87171" stroke-width="0.916667" stroke-linecap="round"/>
<mask id="mask0_44357_333" style="mask-type:alpha" maskUnits="userSpaceOnUse" x="22" y="11" width="2" height="5">
<rect x="22.5104" y="12.0625" width="0.916667" height="2.75" fill="#D9D9D9" stroke="#F87171" stroke-width="0.458333"/>
</mask>
<g mask="url(#mask0_44357_333)">
<circle cx="22.3023" cy="13.6667" r="0.916667" stroke="#F87171" stroke-width="0.916667"/>
</g>
</svg>
