<svg xmlns="http://www.w3.org/2000/svg" style="isolation:isolate" viewBox="0 0 24 24">
  <defs>
    <clipPath id="a">
      <path d="M0 0h24v24H0z"/>
    </clipPath>
  </defs>
  <g clip-path="url(#a)">
    <path fill="#64748B" fill-rule="evenodd" d="M5 4C3.343 4 2 5.343 2 7v10c0 1.657 1.343 3 3 3h8v-2H5c-.552 0-1-.448-1-1V7c0-.552.448-1 1-1h2.784c.231 0 .456.08.635.227l2.393 1.966c.537.441 1.21.682 1.904.682H19c.552 0 1 .448 1 1V10h2v-.125c0-1.657-1.343-3-3-3h-6.284c-.231 0-.456-.08-.635-.227L9.688 4.682C9.151 4.241 8.478 4 7.784 4H5Z"/>
    <g fill="#F87171">
      <path d="M14.1 14.419v4.045c0 .781.633 1.415 1.414 1.415h7.072c.781 0 1.414-.634 1.414-1.415v-4.045l-4.209 2.59c-.454.28-1.028.28-1.482 0l-4.209-2.59Z"/>
      <path d="M24 13.589v-.075c0-.781-.633-1.414-1.414-1.414h-7.072c-.781 0-1.414.633-1.414 1.414v.075l4.579 2.818c.228.14.514.14.742 0L24 13.589Z"/>
    </g>
  </g>
</svg>
