<svg width="24" height="24" viewBox="0 0 24 24" fill="none" xmlns="http://www.w3.org/2000/svg">
<path d="M21.25 13.75H16.75V18.25H21.25V13.75Z" fill="#0EA5E9"/>
<path fill-rule="evenodd" clip-rule="evenodd" d="M17.125 11.125C17.2245 11.125 17.3198 11.1645 17.3902 11.2348C17.4605 11.3052 17.5 11.4005 17.5 11.5V11.875H18.625V11.5C18.625 11.4005 18.6645 11.3052 18.7348 11.2348C18.8052 11.1645 18.9005 11.125 19 11.125C19.0995 11.125 19.1948 11.1645 19.2652 11.2348C19.3355 11.3052 19.375 11.4005 19.375 11.5V11.875H20.5V11.5C20.5 11.4005 20.5395 11.3052 20.6098 11.2348C20.6802 11.1645 20.7755 11.125 20.875 11.125C20.9745 11.125 21.0698 11.1645 21.1402 11.2348C21.2105 11.3052 21.25 11.4005 21.25 11.5V11.875H21.625C22.0228 11.875 22.4044 12.033 22.6857 12.3143C22.967 12.5956 23.125 12.9772 23.125 13.375V13.75H23.5C23.5995 13.75 23.6948 13.7895 23.7652 13.8598C23.8355 13.9302 23.875 14.0255 23.875 14.125C23.875 14.2245 23.8355 14.3198 23.7652 14.3902C23.6948 14.4605 23.5995 14.5 23.5 14.5H23.125V15.625H23.5C23.5995 15.625 23.6948 15.6645 23.7652 15.7348C23.8355 15.8052 23.875 15.9005 23.875 16C23.875 16.0995 23.8355 16.1948 23.7652 16.2652C23.6948 16.3355 23.5995 16.375 23.5 16.375H23.125V17.5H23.5C23.5995 17.5 23.6948 17.5395 23.7652 17.6098C23.8355 17.6802 23.875 17.7755 23.875 17.875C23.875 17.9745 23.8355 18.0698 23.7652 18.1402C23.6948 18.2105 23.5995 18.25 23.5 18.25H23.125V18.625C23.125 19.0228 22.967 19.4044 22.6857 19.6857C22.4044 19.967 22.0228 20.125 21.625 20.125H21.25V20.5C21.25 20.5995 21.2105 20.6948 21.1402 20.7652C21.0698 20.8355 20.9745 20.875 20.875 20.875C20.7755 20.875 20.6802 20.8355 20.6098 20.7652C20.5395 20.6948 20.5 20.5995 20.5 20.5V20.125H19.375V20.5C19.375 20.5995 19.3355 20.6948 19.2652 20.7652C19.1948 20.8355 19.0995 20.875 19 20.875C18.9005 20.875 18.8052 20.8355 18.7348 20.7652C18.6645 20.6948 18.625 20.5995 18.625 20.5V20.125H17.5V20.5C17.5 20.5995 17.4605 20.6948 17.3902 20.7652C17.3198 20.8355 17.2245 20.875 17.125 20.875C17.0255 20.875 16.9302 20.8355 16.8598 20.7652C16.7895 20.6948 16.75 20.5995 16.75 20.5V20.125H16.375C15.9772 20.125 15.5956 19.967 15.3143 19.6857C15.033 19.4044 14.875 19.0228 14.875 18.625V18.25H14.5C14.4005 18.25 14.3052 18.2105 14.2348 18.1402C14.1645 18.0698 14.125 17.9745 14.125 17.875C14.125 17.7755 14.1645 17.6802 14.2348 17.6098C14.3052 17.5395 14.4005 17.5 14.5 17.5H14.875V16.375H14.5C14.4005 16.375 14.3052 16.3355 14.2348 16.2652C14.1645 16.1948 14.125 16.0995 14.125 16C14.125 15.9005 14.1645 15.8052 14.2348 15.7348C14.3052 15.6645 14.4005 15.625 14.5 15.625H14.875V14.5H14.5C14.4005 14.5 14.3052 14.4605 14.2348 14.3902C14.1645 14.3198 14.125 14.2245 14.125 14.125C14.125 14.0255 14.1645 13.9302 14.2348 13.8598C14.3052 13.7895 14.4005 13.75 14.5 13.75H14.875V13.375C14.875 12.9772 15.033 12.5956 15.3143 12.3143C15.5956 12.033 15.9772 11.875 16.375 11.875H16.75V11.5C16.75 11.4005 16.7895 11.3052 16.8598 11.2348C16.9302 11.1645 17.0255 11.125 17.125 11.125ZM16 13.375C16 13.2755 16.0395 13.1802 16.1098 13.1098C16.1802 13.0395 16.2755 13 16.375 13H21.625C21.7245 13 21.8198 13.0395 21.8902 13.1098C21.9605 13.1802 22 13.2755 22 13.375V18.625C22 18.7245 21.9605 18.8198 21.8902 18.8902C21.8198 18.9605 21.7245 19 21.625 19H16.375C16.2755 19 16.1802 18.9605 16.1098 18.8902C16.0395 18.8198 16 18.7245 16 18.625V13.375Z" fill="#0EA5E9"/>
<path fill-rule="evenodd" clip-rule="evenodd" d="M5 4C3.34315 4 2 5.34315 2 7V17C2 18.6569 3.34315 20 5 20H13V18H5C4.44772 18 4 17.5523 4 17V7C4 6.44772 4.44772 6 5 6H7.78388C8.01539 6 8.23973 6.08033 8.41862 6.22727L10.8119 8.19318C11.3486 8.63402 12.0216 8.875 12.7161 8.875H19C19.5523 8.875 20 9.32272 20 9.875V10H22V9.875C22 8.21815 20.6569 6.875 19 6.875H12.7161C12.4846 6.875 12.2603 6.79467 12.0814 6.64773L9.6881 4.68182C9.15142 4.24098 8.47841 4 7.78388 4H5Z" fill="#64748B"/>
</svg>
