<svg width="24" height="24" viewBox="0 0 24 24" fill="none" xmlns="http://www.w3.org/2000/svg">
<path fill-rule="evenodd" clip-rule="evenodd" d="M5 4C3.34315 4 2 5.34315 2 7V17C2 18.6569 3.34315 20 5 20H13V18H5C4.44772 18 4 17.5523 4 17V7C4 6.44772 4.44772 6 5 6H7.78388C8.01539 6 8.23973 6.08033 8.41862 6.22727L10.8119 8.19318C11.3486 8.63402 12.0216 8.875 12.7161 8.875H19C19.5523 8.875 20 9.32272 20 9.875V10H22V9.875C22 8.21815 20.6569 6.875 19 6.875H12.7161C12.4846 6.875 12.2603 6.79467 12.0814 6.64773L9.6881 4.68182C9.15142 4.24098 8.47841 4 7.78388 4H5Z" fill="#64748B"/>
<path d="M23.892 13.9369C23.8623 13.9118 23.5851 13.6889 23.0005 13.6889C22.8461 13.6896 22.6921 13.7037 22.5399 13.731C22.4267 12.905 21.7856 12.5023 21.7568 12.4842L21.5998 12.3878L21.4966 12.5465C21.3673 12.7596 21.2729 12.9946 21.2175 13.2414C21.1128 13.713 21.1765 14.1559 21.4014 14.5345C21.1298 14.6957 20.6942 14.7354 20.606 14.7389H13.3938C13.2054 14.7391 13.0526 14.9013 13.0515 15.1019C13.0431 15.7749 13.1502 16.4439 13.3674 17.0759C13.6159 17.7699 13.9855 18.2811 14.4664 18.5939C15.0052 18.9454 15.8807 19.1463 16.8731 19.1463C17.3214 19.1478 17.7689 19.1046 18.2097 19.0172C18.8224 18.8974 19.412 18.6693 19.954 18.3423C20.4007 18.0668 20.8027 17.7164 21.1444 17.3044C21.7158 16.6154 22.0562 15.8481 22.3094 15.1662H22.4103C23.0359 15.1662 23.4206 14.8996 23.6327 14.6761C23.7737 14.5336 23.8838 14.36 23.9552 14.1674L24 14.0278L23.892 13.9369Z" fill="#60A5FA"/>
<path d="M14.0623 14.5139H15.0288C15.0754 14.5139 15.1132 14.4737 15.1132 14.424V13.5071C15.1134 13.4574 15.0759 13.417 15.0293 13.4167C15.0291 13.4167 15.0289 13.4167 15.0288 13.4167H14.0623C14.0157 13.4167 13.9779 13.4569 13.9779 13.5066V13.5071V14.424C13.9779 14.4737 14.0157 14.5139 14.0623 14.5139V14.5139Z" fill="#60A5FA"/>
<path d="M15.3942 14.5139H16.3606C16.4073 14.5139 16.445 14.4737 16.445 14.424V13.5071C16.4453 13.4574 16.4077 13.417 16.3611 13.4167C16.3609 13.4167 16.3608 13.4167 16.3606 13.4167H15.3942C15.3473 13.4167 15.3093 13.4571 15.3093 13.5071V14.424C15.3096 14.4737 15.3475 14.5139 15.3942 14.5139" fill="#60A5FA"/>
<path d="M16.7462 14.5139H17.7127C17.7593 14.5139 17.7971 14.4737 17.7971 14.424V13.5071C17.7973 13.4574 17.7598 13.417 17.7132 13.4167C17.713 13.4167 17.7128 13.4167 17.7127 13.4167H16.7462C16.6996 13.4167 16.6618 13.4569 16.6618 13.5066V13.5071V14.424C16.6619 14.4737 16.6996 14.5139 16.7462 14.5139V14.5139Z" fill="#60A5FA"/>
<path d="M18.0824 14.5139H19.0488C19.0955 14.5139 19.1334 14.4738 19.1337 14.424V13.5071C19.1337 13.4571 19.0957 13.4167 19.0488 13.4167H18.0824C18.0358 13.4167 17.998 13.4569 17.998 13.5066V13.5071V14.424C17.998 14.4737 18.0358 14.5139 18.0824 14.5139V14.5139Z" fill="#60A5FA"/>
<path d="M15.3942 13.1947H16.3606C16.4073 13.1944 16.445 13.154 16.445 13.1043V12.1874C16.445 12.1378 16.4072 12.0975 16.3606 12.0975H15.3942C15.3475 12.0975 15.3096 12.1377 15.3093 12.1874V13.1043C15.3096 13.1541 15.3474 13.1944 15.3942 13.1947Z" fill="#60A5FA"/>
<path d="M16.7462 13.1947H17.7127C17.7594 13.1944 17.7971 13.154 17.7971 13.1043V12.1874C17.7971 12.1378 17.7593 12.0975 17.7127 12.0975H16.7462C16.6996 12.0975 16.6619 12.1378 16.6619 12.1874V13.1043C16.6619 13.154 16.6996 13.1944 16.7462 13.1947Z" fill="#60A5FA"/>
<path d="M18.0824 13.1947H19.0488C19.0956 13.1944 19.1334 13.1541 19.1337 13.1043V12.1874C19.1334 12.1377 19.0955 12.0975 19.0488 12.0975H18.0824C18.0358 12.0975 17.998 12.1378 17.998 12.1874V13.1043C17.998 13.154 18.0357 13.1944 18.0824 13.1947Z" fill="#60A5FA"/>
<path d="M18.0824 11.8751H19.0488C19.0955 11.8751 19.1334 11.8349 19.1337 11.7852V10.8677C19.1334 10.818 19.0955 10.7779 19.0488 10.7779H18.0824C18.0358 10.7779 17.998 10.8181 17.998 10.8677V11.7852C17.998 11.8348 18.0358 11.8751 18.0824 11.8751Z" fill="#60A5FA"/>
<path d="M19.4302 14.5139H20.3967C20.4434 14.5139 20.4813 14.4738 20.4816 14.424V13.5071C20.4816 13.4571 20.4436 13.4167 20.3967 13.4167H19.4302C19.3836 13.4167 19.3459 13.4569 19.3459 13.5066V13.5071V14.424C19.3459 14.4737 19.3836 14.5139 19.4302 14.5139" fill="#60A5FA"/>
</svg>
