<svg width="24" height="24" viewBox="0 0 24 24" fill="none" xmlns="http://www.w3.org/2000/svg">
<path fill-rule="evenodd" clip-rule="evenodd" d="M5 4C3.34315 4 2 5.34315 2 7V17C2 18.6569 3.34315 20 5 20H13V18H5C4.44772 18 4 17.5523 4 17V7C4 6.44772 4.44772 6 5 6H7.78388C8.01539 6 8.23973 6.08033 8.41862 6.22727L10.8119 8.19318C11.3486 8.63402 12.0216 8.875 12.7161 8.875H19C19.5523 8.875 20 9.32272 20 9.875V10H22V9.875C22 8.21815 20.6569 6.875 19 6.875H12.7161C12.4846 6.875 12.2603 6.79467 12.0814 6.64773L9.6881 4.68182C9.15142 4.24098 8.47841 4 7.78388 4H5Z" fill="#64748B"/>
<path fill-rule="evenodd" clip-rule="evenodd" d="M18.5003 12.7818C18.5879 12.7818 18.6727 12.7695 18.7528 12.7464L21.4762 17.4107C21.3541 17.5262 21.2648 17.6753 21.2236 17.843H15.7764C15.7352 17.6755 15.6461 17.5265 15.5242 17.4111L18.2477 12.7464C18.3279 12.7695 18.4126 12.7818 18.5003 12.7818ZM15.7764 18.266C15.7733 18.2788 15.7699 18.2914 15.7662 18.3039L17.8493 19.4932C18.0133 19.3237 18.2443 19.2181 18.5003 19.2181C18.7562 19.2181 18.9872 19.3237 19.1513 19.4931L21.2339 18.3042C21.2302 18.2916 21.2267 18.2788 21.2236 18.266H15.7764ZM17.6351 19.8594L15.5522 18.6702C15.3882 18.8398 15.157 18.9454 14.901 18.9454C14.4034 18.9454 14 18.5465 14 18.0545C14 17.6351 14.293 17.2835 14.6876 17.1887V14.8112C14.293 14.7165 14 14.3648 14 13.9454C14 13.4534 14.4034 13.0545 14.901 13.0545C15.157 13.0545 15.3882 13.1601 15.5522 13.3297L17.6351 12.1406C17.6118 12.0614 17.5993 11.9776 17.5993 11.8909C17.5993 11.3989 18.0027 11 18.5003 11C18.9979 11 19.4013 11.3989 19.4013 11.8909C19.4013 11.9776 19.3887 12.0614 19.3654 12.1406L21.448 13.3295C21.612 13.1601 21.843 13.0545 22.099 13.0545C22.5966 13.0545 23 13.4534 23 13.9454C23 14.3646 22.7072 14.7162 22.3129 14.8111V17.1888C22.7072 17.2838 23 17.6353 23 18.0545C23 18.5465 22.5966 18.9454 22.099 18.9454C21.843 18.9454 21.612 18.8399 21.448 18.6704L19.3654 19.8594C19.3887 19.9386 19.4012 20.0224 19.4012 20.1091C19.4012 20.6011 18.9979 21 18.5003 21C18.0027 21 17.5993 20.6011 17.5993 20.1091C17.5993 20.0224 17.6118 19.9386 17.6351 19.8594ZM15.1154 14.811C15.5095 14.7159 15.802 14.3644 15.802 13.9454C15.802 13.8588 15.7895 13.7751 15.7662 13.696L17.8492 12.5068C17.8584 12.5163 17.8678 12.5256 17.8774 12.5347L15.1539 17.1992C15.1412 17.1955 15.1283 17.1921 15.1154 17.1889V14.811ZM21.8465 17.199C21.8593 17.1954 21.8721 17.1919 21.8851 17.1888V14.8111C21.4908 14.7162 21.198 14.3646 21.198 13.9454C21.198 13.8588 21.2105 13.775 21.2339 13.6957L19.1513 12.5068C19.1421 12.5163 19.1327 12.5256 19.1231 12.5347L21.8465 17.199Z" fill="#F472B6"/>
</svg>
