<svg width="24" height="24" viewBox="0 0 24 24" fill="none" xmlns="http://www.w3.org/2000/svg">
<path d="M14 12C14 11.4477 14.4477 11 15 11H22C22.5523 11 23 11.4477 23 12V19C23 19.5523 22.5523 20 22 20H15C14.4477 20 14 19.5523 14 19V12ZM14.8182 14.0911V19.1818H22.1818V14.0911H14.8182ZM22.1818 13.2729V11.8182H14.8182V13.2729H22.1818ZM16.0455 15.5008C16.0455 15.2744 16.229 15.0909 16.4554 15.0909V15.0909C16.6818 15.0909 16.8653 15.2744 16.8653 15.5008V15.5008C16.8653 15.7272 16.6818 15.9107 16.4554 15.9107V15.9107C16.229 15.9107 16.0455 15.7272 16.0455 15.5008V15.5008ZM17.6818 15.5008C17.6818 15.2744 17.8653 15.0909 18.0917 15.0909V15.0909C18.3181 15.0909 18.5016 15.2744 18.5016 15.5008V15.5008C18.5016 15.7272 18.3181 15.9107 18.0917 15.9107V15.9107C17.8653 15.9107 17.6818 15.7272 17.6818 15.5008V15.5008ZM19.3182 15.5008C19.3182 15.2744 19.5017 15.0909 19.7281 15.0909V15.0909C19.9545 15.0909 20.138 15.2744 20.138 15.5008V15.5008C20.138 15.7272 19.9545 15.9107 19.7281 15.9107V15.9107C19.5017 15.9107 19.3182 15.7272 19.3182 15.5008V15.5008Z" fill="#F87171" stroke="#F87171" stroke-width="0.5"/>
<path fill-rule="evenodd" clip-rule="evenodd" d="M5 4C3.34315 4 2 5.34315 2 7V17C2 18.6569 3.34315 20 5 20H13V18H5C4.44772 18 4 17.5523 4 17V7C4 6.44772 4.44772 6 5 6H7.78388C8.01539 6 8.23973 6.08033 8.41862 6.22727L10.8119 8.19318C11.3486 8.63402 12.0216 8.875 12.7161 8.875H19C19.5523 8.875 20 9.32272 20 9.875V10H22V9.875C22 8.21815 20.6569 6.875 19 6.875H12.7161C12.4846 6.875 12.2603 6.79467 12.0814 6.64773L9.6881 4.68182C9.15142 4.24098 8.47841 4 7.78388 4H5Z" fill="#64748B"/>
</svg>
