<svg width="24" height="24" viewBox="0 0 24 24" fill="none" xmlns="http://www.w3.org/2000/svg">
<path fill-rule="evenodd" clip-rule="evenodd" d="M5 4C3.34315 4 2 5.34315 2 7V17C2 18.6569 3.34315 20 5 20H13V18H5C4.44772 18 4 17.5523 4 17V7C4 6.44772 4.44772 6 5 6H7.78388C8.01539 6 8.23973 6.08033 8.41862 6.22727L10.8119 8.19318C11.3486 8.63402 12.0216 8.875 12.7161 8.875H19C19.5523 8.875 20 9.32272 20 9.875V10H22V9.875C22 8.21815 20.6569 6.875 19 6.875H12.7161C12.4846 6.875 12.2603 6.79467 12.0814 6.64773L9.6881 4.68182C9.15142 4.24098 8.47841 4 7.78388 4H5Z" fill="#64748B"/>
<path fill-rule="evenodd" clip-rule="evenodd" d="M23.1015 12.1104L22.0194 13.1928C23.1253 14.1173 23.8301 15.5065 23.8301 17.0572V18.0264C23.8301 18.3278 23.5857 18.572 23.2844 18.572H14.4032C14.1852 18.572 13.7586 18.572 13.7586 18.0264V17.0574C13.7586 15.5065 14.4634 14.1173 15.5695 13.1928L14.4872 12.1104C14.2742 11.8974 14.2742 11.5519 14.4872 11.3387C14.7003 11.1256 15.0458 11.1256 15.259 11.3387L16.497 12.5767C17.1862 12.2219 17.9674 12.0214 18.7943 12.0214C19.6213 12.0214 20.4025 12.2219 21.0917 12.5767L22.3297 11.3387C22.543 11.1256 22.8884 11.1256 23.1015 11.3387C23.3145 11.5519 23.3145 11.8974 23.1015 12.1104ZM14.8499 17.0572V17.4806H22.7388V17.0572C22.7388 14.8822 20.9693 13.1128 18.7943 13.1128C16.6194 13.1128 14.8499 14.8822 14.8499 17.0572ZM17.3395 15.944C17.5957 15.944 17.8033 15.7365 17.8033 15.4803C17.8033 15.2239 17.5957 15.0163 17.3395 15.0163C17.0832 15.0163 16.8756 15.2239 16.8756 15.4803C16.8756 15.7365 17.0832 15.944 17.3395 15.944ZM20.7862 15.4059C20.7862 15.6623 20.5784 15.8699 20.3223 15.8699C20.0661 15.8699 19.8583 15.6623 19.8583 15.4059C19.8583 15.1497 20.0661 14.9422 20.3223 14.9422C20.5784 14.9422 20.7862 15.1497 20.7862 15.4059Z" fill="#4ADE80"/>
<path d="M22.0194 13.1928L21.9133 13.0868C21.8835 13.1166 21.8676 13.1575 21.8695 13.1995C21.8714 13.2416 21.8908 13.2809 21.9231 13.3079L22.0194 13.1928ZM23.1015 12.1104L22.9955 12.0044L22.9955 12.0044L23.1015 12.1104ZM15.5695 13.1928L15.6657 13.3079C15.6981 13.2809 15.7175 13.2416 15.7194 13.1995C15.7213 13.1575 15.7054 13.1165 15.6756 13.0868L15.5695 13.1928ZM14.4872 12.1104L14.3811 12.2165L14.3811 12.2165L14.4872 12.1104ZM14.4872 11.3387L14.3811 11.2326L14.381 11.2327L14.4872 11.3387ZM15.259 11.3387L15.3651 11.2326L15.3651 11.2326L15.259 11.3387ZM16.497 12.5767L16.391 12.6827C16.4371 12.7288 16.5077 12.7399 16.5657 12.71L16.497 12.5767ZM21.0917 12.5767L21.023 12.71C21.081 12.7399 21.1516 12.7288 21.1977 12.6827L21.0917 12.5767ZM22.3297 11.3387L22.2236 11.2326L22.2236 11.2326L22.3297 11.3387ZM23.1015 11.3387L23.2076 11.2327L23.2076 11.2326L23.1015 11.3387ZM14.8499 17.4806H14.6999C14.6999 17.5634 14.7671 17.6306 14.8499 17.6306V17.4806ZM22.7388 17.4806V17.6306C22.8216 17.6306 22.8888 17.5634 22.8888 17.4806H22.7388ZM22.1254 13.2989L23.2076 12.2165L22.9955 12.0044L21.9133 13.0868L22.1254 13.2989ZM23.9801 17.0572C23.9801 15.46 23.254 14.0294 22.1156 13.0777L21.9231 13.3079C22.9966 14.2052 23.6801 15.5529 23.6801 17.0572H23.9801ZM23.9801 18.0264V17.0572H23.6801V18.0264H23.9801ZM23.2844 18.722C23.6685 18.722 23.9801 18.4107 23.9801 18.0264H23.6801C23.6801 18.2449 23.5029 18.422 23.2844 18.422V18.722ZM14.4032 18.722H23.2844V18.422H14.4032V18.722ZM13.6086 18.0264C13.6086 18.1821 13.6391 18.3113 13.6981 18.4157C13.7577 18.5211 13.8412 18.5917 13.9311 18.6375C14.1021 18.7246 14.2999 18.722 14.4032 18.722V18.422C14.2885 18.422 14.164 18.4195 14.0672 18.3702C14.0232 18.3477 13.9864 18.316 13.9592 18.268C13.9314 18.2188 13.9086 18.1434 13.9086 18.0264H13.6086ZM13.6086 17.0574V18.0264H13.9086V17.0574H13.6086ZM15.4734 13.0777C14.3347 14.0294 13.6086 15.46 13.6086 17.0574H13.9086C13.9086 15.5529 14.5921 14.2052 15.6657 13.3079L15.4734 13.0777ZM14.3811 12.2165L15.4635 13.2989L15.6756 13.0868L14.5932 12.0044L14.3811 12.2165ZM14.381 11.2327C14.1096 11.5044 14.1095 11.9449 14.3811 12.2165L14.5932 12.0044C14.4388 11.85 14.4388 11.5994 14.5933 11.4447L14.381 11.2327ZM15.3651 11.2326C15.0933 10.9609 14.6528 10.9609 14.3811 11.2326L14.5932 11.4447C14.7478 11.2902 14.9983 11.2902 15.153 11.4448L15.3651 11.2326ZM16.6031 12.4706L15.3651 11.2326L15.153 11.4447L16.391 12.6827L16.6031 12.4706ZM18.7943 11.8714C17.9429 11.8714 17.1382 12.0779 16.4284 12.4433L16.5657 12.71C17.2342 12.3659 17.9919 12.1714 18.7943 12.1714V11.8714ZM21.1603 12.4433C20.4504 12.0779 19.6458 11.8714 18.7943 11.8714V12.1714C19.5968 12.1714 20.3545 12.3659 21.023 12.71L21.1603 12.4433ZM22.2236 11.2326L20.9856 12.4706L21.1977 12.6827L22.4357 11.4447L22.2236 11.2326ZM23.2076 11.2326C22.9359 10.9609 22.4955 10.961 22.2236 11.2326L22.4357 11.4448C22.5904 11.2902 22.841 11.2902 22.9955 11.4447L23.2076 11.2326ZM23.2076 12.2165C23.4792 11.9449 23.4791 11.5044 23.2076 11.2327L22.9954 11.4447C23.1499 11.5994 23.1499 11.85 22.9955 12.0044L23.2076 12.2165ZM14.9999 17.4806V17.0572H14.6999V17.4806H14.9999ZM22.7388 17.3306H14.8499V17.6306H22.7388V17.3306ZM22.5888 17.0572V17.4806H22.8888V17.0572H22.5888ZM18.7943 13.2628C20.8864 13.2628 22.5888 14.9651 22.5888 17.0572H22.8888C22.8888 14.7994 21.0521 12.9628 18.7943 12.9628V13.2628ZM14.9999 17.0572C14.9999 14.9651 16.7022 13.2628 18.7943 13.2628V12.9628C16.5366 12.9628 14.6999 14.7994 14.6999 17.0572H14.9999ZM17.6533 15.4803C17.6533 15.6536 17.5129 15.794 17.3395 15.794V16.094C17.6786 16.094 17.9533 15.8193 17.9533 15.4803H17.6533ZM17.3395 15.1663C17.5129 15.1663 17.6533 15.3067 17.6533 15.4803H17.9533C17.9533 15.1411 17.6786 14.8663 17.3395 14.8663V15.1663ZM17.0256 15.4803C17.0256 15.3067 17.1661 15.1663 17.3395 15.1663V14.8663C17.0003 14.8663 16.7256 15.1411 16.7256 15.4803H17.0256ZM17.3395 15.794C17.166 15.794 17.0256 15.6536 17.0256 15.4803H16.7256C16.7256 15.8193 17.0004 16.094 17.3395 16.094V15.794ZM20.3223 16.0199C20.6612 16.0199 20.9362 15.7452 20.9362 15.4059H20.6362C20.6362 15.5794 20.4956 15.7199 20.3223 15.7199V16.0199ZM19.7083 15.4059C19.7083 15.7452 19.9833 16.0199 20.3223 16.0199V15.7199C20.1489 15.7199 20.0083 15.5794 20.0083 15.4059H19.7083ZM20.3223 14.7922C19.9833 14.7922 19.7083 15.0668 19.7083 15.4059H20.0083C20.0083 15.2327 20.1488 15.0922 20.3223 15.0922V14.7922ZM20.9362 15.4059C20.9362 15.0668 20.6612 14.7922 20.3223 14.7922V15.0922C20.4957 15.0922 20.6362 15.2327 20.6362 15.4059H20.9362Z" fill="#4ADE80"/>
</svg>
