<svg width="24" height="24" viewBox="0 0 24 24" fill="none" xmlns="http://www.w3.org/2000/svg">
<path d="M7.78418 4C8.4786 4.00007 9.15187 4.24086 9.68848 4.68164L12.0811 6.64746L12.2236 6.74512C12.3729 6.82963 12.5423 6.87495 12.7158 6.875H19C20.6569 6.875 22 8.21815 22 9.875V10H20V9.875C20 9.32272 19.5523 8.875 19 8.875H12.7158C12.1082 8.87494 11.5173 8.69005 11.0195 8.34863L10.8115 8.19336L8.41895 6.22754C8.24013 6.08065 8.01558 6.00007 7.78418 6H5C4.44772 6 4 6.44772 4 7V17C4 17.5523 4.44772 18 5 18H13V20H5C3.34315 20 2 18.6569 2 17V7C2 5.34315 3.34315 4 5 4H7.78418Z" fill="#64748B"/>
<path d="M22.6085 16.2184C22.2588 16.2204 21.9561 16.3096 21.7022 16.4424C21.6084 16.2453 21.5146 16.0732 21.499 15.9446C21.4814 15.7952 21.4599 15.704 21.4814 15.5256C21.5029 15.3472 21.6006 15.0942 21.6006 15.0735C21.5986 15.0548 21.5791 14.9635 21.3779 14.9615C21.1767 14.9594 21.0029 15.003 20.9833 15.059C20.9638 15.115 20.9247 15.2435 20.8993 15.3763C20.8642 15.5712 20.497 16.2619 20.288 16.6249C20.2196 16.4838 20.161 16.3594 20.1493 16.2598C20.1317 16.1105 20.1102 16.0192 20.1317 15.8409C20.1532 15.6625 20.2509 15.4095 20.2509 15.3887C20.2489 15.3701 20.2294 15.2788 20.0282 15.2767C19.827 15.2747 19.6531 15.3182 19.6336 15.3742C19.6141 15.4302 19.5926 15.5629 19.5496 15.6915C19.5086 15.8201 19.0203 16.9733 18.8933 17.274C18.8289 17.4275 18.7722 17.5499 18.7312 17.6329C18.6902 17.7158 18.7292 17.6391 18.7253 17.6474C18.6902 17.7179 18.6706 17.7573 18.6706 17.7573V17.7594C18.6433 17.8112 18.614 17.861 18.6003 17.861C18.5906 17.861 18.571 17.722 18.6042 17.5312C18.6765 17.1309 18.8523 16.5066 18.8503 16.4838C18.8503 16.4735 18.8835 16.3635 18.737 16.3075C18.5945 16.2515 18.5437 16.3449 18.532 16.3449C18.5202 16.3449 18.5105 16.3781 18.5105 16.3781C18.5105 16.3781 18.6687 15.6749 18.2077 15.6749C17.9186 15.6749 17.5201 16.0089 17.3229 16.3138C17.1979 16.3864 16.9322 16.5398 16.6509 16.7037C16.5435 16.7659 16.4322 16.8323 16.3267 16.8924L16.3052 16.8675C15.7466 16.2349 14.7133 15.7869 14.7562 14.9366C14.7719 14.6275 14.8734 13.8124 16.7408 12.8252C18.2702 12.0163 19.4949 12.2382 19.7078 12.7319C20.0106 13.437 19.0535 14.7478 17.4635 14.9366C16.858 15.0092 16.5396 14.7603 16.4595 14.667C16.3755 14.5695 16.3638 14.5653 16.3325 14.584C16.2818 14.613 16.313 14.7001 16.3325 14.752C16.3794 14.8827 16.5747 15.115 16.9068 15.2311C17.1979 15.3327 17.9089 15.3887 18.7683 15.0361C19.7313 14.64 20.4833 13.5407 20.2626 12.6219C20.0379 11.6865 18.5769 11.3796 17.1959 11.9002C16.3736 12.2113 15.4829 12.6966 14.8422 13.3333C14.0804 14.0883 13.9593 14.7478 14.0101 15.0216C14.1878 15.9985 15.4555 16.6352 15.9634 17.1061C15.938 17.1206 15.9145 17.1351 15.893 17.1475C15.6391 17.2803 14.6722 17.8175 14.43 18.3857C14.1566 19.0287 14.473 19.4912 14.684 19.5534C15.3364 19.7463 16.0044 19.4 16.3657 18.8296C16.7252 18.2592 16.6822 17.5188 16.5162 17.1807L16.5103 17.1683L16.7095 17.0438C16.8384 16.9629 16.9654 16.8883 17.0767 16.824C17.0142 17.0044 16.9693 17.218 16.9459 17.5292C16.9185 17.8942 17.0592 18.3671 17.2447 18.5537C17.3268 18.6346 17.4244 18.6367 17.485 18.6367C17.6998 18.6367 17.7975 18.448 17.9049 18.2219C18.0378 17.946 18.155 17.6266 18.155 17.6266C18.155 17.6266 18.0085 18.4915 18.4089 18.4915C18.5554 18.4915 18.7019 18.2903 18.7683 18.1866V18.1887C18.7683 18.1887 18.7722 18.1825 18.78 18.168C18.7956 18.1431 18.8035 18.1286 18.8035 18.1286V18.1244C18.8621 18.0166 18.9929 17.7698 19.1883 17.3612C19.4402 16.8343 19.6824 16.1748 19.6824 16.1748C19.6824 16.1748 19.7059 16.3366 19.7782 16.6021C19.8211 16.7597 19.9149 16.9318 19.9872 17.0998C19.9286 17.1869 19.8934 17.2367 19.8934 17.2367L19.8954 17.2388C19.8485 17.3052 19.7957 17.3757 19.741 17.4462C19.5418 17.6992 19.3035 17.9875 19.2723 18.0705C19.2351 18.168 19.243 18.2406 19.3152 18.2986C19.368 18.3401 19.4617 18.3484 19.5613 18.3401C19.741 18.3277 19.8661 18.28 19.9286 18.2509C20.0262 18.2136 20.1376 18.1576 20.245 18.0746C20.4403 17.9212 20.5595 17.7034 20.5478 17.413C20.5419 17.2533 20.4931 17.0957 20.4325 16.9463C20.4501 16.9194 20.4677 16.8924 20.4852 16.8634C20.7939 16.3843 21.0322 15.8575 21.0322 15.8575C21.0322 15.8575 21.0556 16.0192 21.1279 16.2847C21.165 16.4195 21.2392 16.5668 21.3056 16.712C21.0165 16.9629 20.8349 17.2533 20.7724 17.4441C20.6571 17.7967 20.747 17.9564 20.9169 17.9937C20.9931 18.0103 21.1025 17.973 21.1845 17.9357C21.2861 17.9004 21.4092 17.8403 21.5224 17.7511C21.7178 17.5976 21.9053 17.384 21.8955 17.0957C21.8897 16.9629 21.8565 16.8323 21.8115 16.7078C22.0577 16.6 22.376 16.5378 22.7804 16.5896C23.6496 16.6975 23.8215 17.274 23.7883 17.5146C23.7551 17.7552 23.5734 17.888 23.5129 17.9295C23.4523 17.9689 23.4328 17.9834 23.4386 18.0124C23.4464 18.056 23.4738 18.0539 23.5265 18.0456C23.5988 18.0332 23.9836 17.8486 23.9992 17.4047C24.0227 16.8343 23.5129 16.2121 22.6085 16.2184V16.2184ZM15.9048 18.618C15.6176 18.952 15.2133 19.0785 15.0414 18.9706C14.8558 18.8566 14.9281 18.365 15.2817 18.0103C15.4965 17.7946 15.7759 17.5955 15.9595 17.4732C16.0005 17.4462 16.063 17.4068 16.1372 17.3591C16.1489 17.3508 16.1567 17.3466 16.1567 17.3466C16.1704 17.3383 16.186 17.328 16.2017 17.3176C16.3325 17.8237 16.2075 18.2675 15.9048 18.618V18.618ZM18.0046 17.1019C17.9049 17.3612 17.694 18.0269 17.567 17.9896C17.4576 17.9585 17.3912 17.4545 17.5455 16.9567C17.6237 16.7058 17.7897 16.4071 17.8874 16.2909C18.0456 16.1043 18.2175 16.0421 18.2604 16.1188C18.3112 16.2184 18.0671 16.9401 18.0046 17.1019ZM19.7371 17.9813C19.6942 18.0041 19.6551 18.0207 19.6375 18.0083C19.6238 18 19.6551 17.9689 19.6551 17.9689C19.6551 17.9689 19.8719 17.722 19.9579 17.608C20.0067 17.5416 20.0653 17.4649 20.1278 17.3778V17.4026C20.1278 17.7013 19.8582 17.9004 19.7371 17.9813V17.9813ZM21.0732 17.6578C21.0419 17.6329 21.0458 17.5561 21.1513 17.3155C21.1923 17.2201 21.2861 17.0604 21.4482 16.909C21.4678 16.9712 21.4795 17.0314 21.4775 17.0874C21.4756 17.4607 21.2255 17.5997 21.0732 17.6578Z" fill="#F472B6"/>
</svg>
