<svg width="24" height="24" viewBox="0 0 24 24" fill="none" xmlns="http://www.w3.org/2000/svg">
<g clip-path="url(#clip0_28570_352)">
<path d="M18.33 13.57C17.21 13.81 16.31 14.72 16.07 15.84C15.885 16.715 16.08 17.53 16.515 18.17C16.685 18.425 17.055 18.445 17.27 18.225C17.445 18.05 17.455 17.785 17.32 17.585C17.07 17.205 16.945 16.73 17.015 16.22C17.13 15.35 17.85 14.635 18.72 14.52C19.0034 14.4802 19.2921 14.5016 19.5665 14.5828C19.8409 14.664 20.0948 14.8032 20.3108 14.9908C20.5269 15.1785 20.7003 15.4103 20.8192 15.6706C20.938 15.931 20.9997 16.2138 21 16.5C21 16.9 20.88 17.27 20.68 17.58C20.545 17.785 20.555 18.055 20.73 18.225C20.945 18.44 21.315 18.425 21.485 18.17C21.81 17.7 22 17.125 22 16.5C22 14.625 20.275 13.15 18.33 13.57ZM18.125 11.575C16.1 11.92 14.53 13.42 14.11 15.435C13.78 17.02 14.21 18.515 15.095 19.625C15.28 19.855 15.63 19.87 15.84 19.66C16.02 19.48 16.035 19.195 15.875 19C15.5249 18.5637 15.2701 18.0588 15.1271 17.518C14.9842 16.9771 14.9562 16.4123 15.045 15.86C15.32 14.125 16.755 12.74 18.505 12.535C19.885 12.37 21.14 12.905 21.97 13.83C22.07 13.935 22.205 14 22.35 14C22.775 14 23.02 13.495 22.735 13.175C21.64 11.95 19.955 11.265 18.125 11.575ZM19 15.5C18.45 15.5 18 15.95 18 16.5C18 16.775 18.115 17.025 18.295 17.205C18.475 17.385 18.725 17.5 19 17.5C19.275 17.5 19.525 17.385 19.705 17.205C19.885 17.025 20 16.775 20 16.5C20 15.95 19.55 15.5 19 15.5ZM23.5 15C23.775 15 24 15.225 24 15.5V17.5C24 17.775 23.775 18 23.5 18C23.225 18 23 17.775 23 17.5V15.5C23 15.225 23.225 15 23.5 15ZM23.5 19C23.775 19 24 19.225 24 19.5C24 19.775 23.775 20 23.5 20C23.225 20 23 19.775 23 19.5C23 19.225 23.225 19 23.5 19Z" fill="#0EA5E9"/>
<path fill-rule="evenodd" clip-rule="evenodd" d="M5 4C3.34315 4 2 5.34315 2 7V17C2 18.6569 3.34315 20 5 20H13V18H5C4.44772 18 4 17.5523 4 17V7C4 6.44772 4.44772 6 5 6H7.78388C8.01539 6 8.23973 6.08033 8.41862 6.22727L10.8119 8.19318C11.3486 8.63402 12.0216 8.875 12.7161 8.875H19C19.5523 8.875 20 9.32272 20 9.875V10H22V9.875C22 8.21815 20.6569 6.875 19 6.875H12.7161C12.4846 6.875 12.2603 6.79467 12.0814 6.64773L9.6881 4.68182C9.15142 4.24098 8.47841 4 7.78388 4H5Z" fill="#64748B"/>
</g>
<defs>
<clipPath id="clip0_28570_352">
<rect width="24" height="24" fill="white"/>
</clipPath>
</defs>
</svg>
