<svg width="24" height="24" viewBox="0 0 24 24" fill="none" xmlns="http://www.w3.org/2000/svg">
<path fill-rule="evenodd" clip-rule="evenodd" d="M7.78467 4C8.47876 4.00011 9.15154 4.24122 9.68799 4.68164L12.0815 6.64746C12.2603 6.79431 12.485 6.87488 12.7163 6.875H18.9995C20.6564 6.875 21.9995 8.21815 21.9995 9.875V17C21.9995 18.6569 20.6564 20 18.9995 20H10.0005V18H18.9995C19.5518 18 19.9995 17.5523 19.9995 17V9.875C19.9995 9.32272 19.5518 8.875 18.9995 8.875H12.7163C12.022 8.87488 11.3486 8.63408 10.812 8.19336L8.41846 6.22754C8.23976 6.08092 8.01582 6.00011 7.78467 6H5.00049C4.44842 6.00026 4.00049 6.44788 4.00049 7V10H2.00049V7C2.00049 5.34331 3.34386 4.00026 5.00049 4H7.78467Z" fill="#64748B"/>
<circle cx="4" cy="16" r="3" stroke="#0EA5E9" stroke-width="2"/>
</svg>
