<svg width="24" height="24" viewBox="0 0 24 24" fill="none" xmlns="http://www.w3.org/2000/svg">
<path d="M17.167 3.20001C19.2838 3.20019 20.9998 4.91619 21 7.03302V16.9666C21 19.0836 19.2839 20.7994 17.167 20.7996H6.83301C4.71607 20.7994 3 19.0836 3 16.9666V7.03302C3.00018 4.91619 4.71617 3.20019 6.83301 3.20001H17.167Z" stroke="#C084FC" stroke-width="2"/>
<path d="M10.4696 13.5334H7.99017L7.48099 15.0979C7.47412 15.1265 7.45749 15.1518 7.43398 15.1694C7.41047 15.187 7.38154 15.1959 7.35218 15.1945H6.09639C6.02477 15.1945 5.99973 15.1552 6.02126 15.0764L8.17685 8.92514C8.19833 8.86076 8.21978 8.80336 8.24127 8.72101C8.26935 8.5778 8.28372 8.43225 8.2842 8.28632C8.28275 8.27611 8.28369 8.26571 8.28695 8.25593C8.29021 8.24615 8.2957 8.23726 8.30299 8.22997C8.31028 8.22268 8.31916 8.21719 8.32894 8.21392C8.33872 8.21066 8.34913 8.20972 8.35934 8.21117H10.0659C10.1159 8.21117 10.1445 8.22907 10.1518 8.26485L12.5793 15.0872C12.6008 15.1588 12.5793 15.1946 12.5149 15.1945H11.1196C11.0956 15.1972 11.0715 15.191 11.0517 15.1772C11.032 15.1633 11.0179 15.1428 11.0122 15.1194L10.4696 13.5334ZM8.38079 12.2096H10.0767C10.0337 12.0665 9.98363 11.9055 9.92639 11.7265C9.86904 11.5478 9.80822 11.3564 9.74394 11.1523C9.67952 10.9484 9.61511 10.7445 9.55071 10.5405C9.48632 10.3366 9.42729 10.1398 9.37363 9.95018C9.31995 9.76067 9.27165 9.58716 9.22874 9.42962H9.21799C9.15757 9.7195 9.08234 10.0061 8.9926 10.2883C8.89231 10.6103 8.79034 10.9394 8.68668 11.2757C8.58287 11.6122 8.48091 11.9234 8.38079 12.2096Z" fill="#C084FC"/>
<path d="M13.3306 15.0924V11.1362C13.3306 11.0146 13.3288 10.8787 13.3253 10.7284C13.3216 10.5781 13.3162 10.435 13.3092 10.299C13.3019 10.1632 13.2947 10.037 13.2877 9.95816C13.2835 9.94746 13.2823 9.93582 13.2842 9.92448C13.2861 9.91314 13.291 9.90253 13.2984 9.89376C13.3072 9.88607 13.3174 9.88021 13.3285 9.87652C13.3395 9.87284 13.3512 9.8714 13.3628 9.87229H14.4343C14.4712 9.87108 14.508 9.87842 14.5416 9.89376C14.5559 9.90112 14.5682 9.91178 14.5775 9.92484C14.5869 9.93791 14.5929 9.95301 14.5953 9.96889C14.6095 10.0118 14.6256 10.0601 14.6436 10.1138C14.6633 10.1848 14.6759 10.2577 14.6811 10.3312C14.8887 10.1494 15.1291 10.0091 15.3895 9.91799C15.6484 9.82836 15.9206 9.783 16.1946 9.78382C16.4079 9.7848 16.6198 9.81921 16.8225 9.88579C17.0564 9.96061 17.2698 10.0887 17.4459 10.2601C17.6219 10.4315 17.7557 10.6414 17.8367 10.8733C17.9441 11.1488 17.9862 11.5048 17.9862 11.9412V15.0924C17.9862 15.1568 17.9575 15.189 17.9003 15.189L16.6461 15.2001C16.6315 15.2022 16.6167 15.2008 16.6027 15.1962C16.5887 15.1915 16.576 15.1837 16.5656 15.1733C16.5552 15.1628 16.5473 15.1501 16.5427 15.1362C16.538 15.1222 16.5367 15.1073 16.5388 15.0927V12.103C16.5353 11.9028 16.4912 11.7053 16.4092 11.5226C16.3516 11.3878 16.2567 11.2724 16.1355 11.1899C15.9986 11.1061 15.8398 11.065 15.6793 11.0718C15.5069 11.0694 15.3356 11.1004 15.1749 11.1631C15.028 11.2217 14.8933 11.3073 14.7778 11.4153V15.0924C14.7778 15.1568 14.7491 15.189 14.6919 15.189H13.4272C13.4141 15.1908 13.4007 15.1896 13.3881 15.1854C13.3756 15.1812 13.3641 15.1742 13.3548 15.1648C13.3454 15.1554 13.3383 15.144 13.3341 15.1314C13.3299 15.1189 13.3287 15.1055 13.3306 15.0924Z" fill="#C084FC"/>
</svg>
