<svg width="24" height="24" viewBox="0 0 24 24" fill="none" xmlns="http://www.w3.org/2000/svg">
<path fill-rule="evenodd" clip-rule="evenodd" d="M5.52172 13.9152C5.25351 14.8096 5.12026 15.2563 5.15293 15.6806C5.18387 16.0547 5.30595 16.4144 5.50797 16.7256C5.73664 17.0773 6.10974 17.3374 6.85765 17.8568L10.1579 20.1533C10.8242 20.6161 11.1577 20.8485 11.5179 20.9391C11.836 21.0198 12.1687 21.0198 12.4876 20.9418C12.8487 20.852 13.1839 20.6215 13.8528 20.1613L17.1891 17.8604C17.9439 17.3392 18.3222 17.08 18.5543 16.7247C18.7577 16.4122 18.8797 16.05 18.9085 15.6734C18.942 15.2455 18.8036 14.7961 18.5302 13.8955L15.6074 4.29708C15.4655 3.83062 15.395 3.59828 15.2592 3.42515C15.1395 3.27307 14.9848 3.15516 14.8096 3.08248C14.6119 2.99995 14.378 2.99995 13.9095 2.99995H10.1003C9.63008 2.99995 9.39367 2.99995 9.19509 3.08428C9.01923 3.15712 8.86415 3.2757 8.74462 3.42874C8.60879 3.60277 8.53916 3.8369 8.39989 4.30515L5.52172 13.9161V13.9152ZM14.0582 5.03714C14.17 5.18246 14.2284 5.38071 14.3428 5.77272L16.8522 14.3736C15.9095 13.8636 14.8978 13.5067 13.8519 13.3151L12.2185 7.55336C12.2051 7.50791 12.1781 7.46814 12.1414 7.4399C12.1048 7.41165 12.0604 7.39641 12.0148 7.39641C11.9692 7.39641 11.9248 7.41165 11.8882 7.4399C11.8515 7.46814 11.8245 7.50791 11.8111 7.55336L10.1966 13.3106C9.14608 13.5018 8.12988 13.86 7.18346 14.3727L9.70573 5.77182C9.82006 5.37802 9.87766 5.18157 9.99028 5.03625C10.09 4.90797 10.2198 4.8084 10.366 4.7465C10.5327 4.67653 10.7296 4.67653 11.1233 4.67653H12.9243C13.3181 4.67653 13.5158 4.67653 13.6826 4.7465C13.8287 4.8084 13.9576 4.90797 14.0582 5.03714V5.03714ZM12.1128 15.4043C13.0636 15.4043 13.8897 15.1531 14.3032 14.7835C14.3767 15.0249 14.4028 15.2793 14.3799 15.5315C14.357 15.7836 14.2856 16.0284 14.17 16.2511C13.9052 16.7624 13.5209 17.0163 13.1745 17.245C12.7395 17.533 12.3655 17.7815 12.3655 18.4471C12.3655 18.6668 12.4137 18.8768 12.5005 19.0624C12.2075 18.9354 11.9572 18.7206 11.7811 18.4452C11.605 18.1698 11.511 17.8461 11.511 17.515V17.4738C11.511 17.0145 11.5119 16.4485 10.8904 16.4485C10.804 16.4483 10.7184 16.466 10.6386 16.5003C10.5588 16.5347 10.4862 16.5852 10.4251 16.6488C10.3639 16.7125 10.3154 16.788 10.2822 16.8713C10.2491 16.9545 10.232 17.0437 10.2318 17.1338C9.53379 16.4045 9.59483 15.355 9.59483 15.355C9.59483 15.1406 9.61546 14.8069 9.70745 14.5153C9.96707 15.0248 10.9454 15.4034 12.1128 15.4034V15.4043Z" fill="#EA580C"/>
</svg>
