<svg width="24" height="24" viewBox="0 0 24 24" fill="none" xmlns="http://www.w3.org/2000/svg">
<path d="M18.23 11.21C18.2 11.05 17.76 10.5 16.91 9.56C16.89 9.37 17.2 9.11 17.81 8.76L19.55 7.21C19.94 6.71 20.17 5.93 20.24 4.83L20.22 4.57C20.15 3.79 19.59 3.17 18.53 2.68C17.9 2.26 16.77 2.03 15.15 2C13.8 2.11 12.04 2.59 9.87001 3.43C9.27001 3.86 8.59001 4.29 7.83001 4.71L7.84001 4.85L8.05001 4.77C8.13001 4.76 8.18001 4.8 8.19001 4.88L8.32001 4.81L8.39001 4.8L8.40001 4.86C8.40001 4.93 7.93001 5.3 6.64001 6.21L6.58001 6.33C6.27001 6.35 5.97001 6.58 5.67001 7L5.75001 7.12L6.00001 7.03L6.18001 7.27C6.50001 6.94 6.84001 6.65 7.21001 6.4C7.40001 6.45 7.50001 6.51 7.65001 6.56C8.67001 5.81 9.68001 5.26 10.69 4.92L10.7 5.06C10.5 5.33 10.38 5.48 10.32 5.48L10.42 5.71C10.43 5.9 7.87001 12.71 3.76001 20.15L3.84001 20.34C4.19001 20.26 4.42001 20.17 4.59001 20.08L4.60001 20.21L5.00001 20.18L4.33001 21.94L4.47001 22C5.04001 21.36 5.47001 20.71 5.77001 20.12C7.44001 19.63 8.71001 19.15 9.59001 18.68C10.47 18.6 11.15 18.37 11.61 17.98L12.53 17.51C13.8 16.53 14.75 15.84 15.4 15.43C16.73 14.45 17.6 13.5 18 12.58L18.23 11.21ZM14.77 13.52L13 14.91C11.71 15.76 11 16.21 10.91 16.21C8.84001 17.34 7.55001 17.93 7.05001 17.97L7.00001 17.98C7.04001 17.75 7.96001 15.86 9.75001 12.31C10.53 12.25 11.77 11.88 13.46 11.21L13.87 11.18C14.72 11.1 15.36 11.27 15.78 11.67L15.81 11.93C15.5 12.83 15.14 13.37 14.77 13.52ZM15.86 7.74C15.68 7.96 15.18 8.33 14.36 8.85C14.09 8.88 13.09 9.27 11.35 10.03L11.07 9.98L11.06 9.86C11.04 9.61 11.15 9.29 11.4 8.91C11.53 8.21 11.68 7.79 11.84 7.71L13.29 4.43C13.27 4.21 13.58 4.08 14.22 3.97L14.43 3.95L14.44 4.13L15.6 3.97C16.75 3.87 17.35 4.11 17.4 4.67L17.53 4.65L17.5 4.33L17.65 4.31C18 4.5 18.17 4.71 18.19 4.99C18.21 5.17 18.11 5.4 17.9 5.67C17.81 5.68 17.76 5.61 17.75 5.49L17.61 5.5L17.58 5.9C17 6.77 16.57 7.21 16.31 7.24L15.86 7.74Z" fill="#FDD835"/>
</svg>
