<svg width="24" height="24" viewBox="0 0 24 24" fill="none" xmlns="http://www.w3.org/2000/svg">
<path d="M18.4897 13.2742C18.3086 12.8822 18.0694 12.5198 17.7801 12.1992C17.6349 12.0625 17.4807 11.9347 17.3261 11.8029C17.2515 11.7367 17.2381 11.6706 17.3087 11.6089C17.6918 11.2861 18.0012 10.8849 18.2162 10.4324C18.3834 10.0547 18.4919 9.65357 18.5379 9.24301C18.5633 9.01898 18.5633 8.79279 18.5379 8.56876C18.4909 8.06057 18.438 7.72277 18.3793 7.55536C18.3412 7.40255 18.303 7.26895 18.2649 7.15456C17.7801 5.9124 16.6653 5.07505 15.9428 4.64342C15.7209 4.53861 15.4929 4.44729 15.26 4.36997C14.858 4.24011 14.4453 4.14591 14.0268 4.08847C13.7178 4.03643 13.4054 4.00687 13.092 4H5.04297V7.67869H12.8677C13.1258 7.67944 13.383 7.70911 13.6345 7.76716C13.9692 7.83731 14.2556 7.9785 14.4142 8.30424C14.4735 8.46684 14.5062 8.63792 14.5112 8.81093V9.18135C14.4794 9.35884 14.3932 9.52204 14.2645 9.64828C13.9997 9.86123 13.6704 9.97783 13.3306 9.97893C12.731 10.0227 12.1274 9.98786 11.5237 9.99635H5.04297V19.9931H8.72166C8.8365 19.9931 8.85392 19.9489 8.85392 19.8474V13.8824C8.85392 13.5607 8.85392 13.5607 9.17117 13.5607H13.1318C13.5684 13.5413 14.0025 13.6353 14.3919 13.8337C14.3991 13.8361 14.4069 13.8361 14.4142 13.8337L14.542 13.9525C14.7323 14.1253 14.8661 14.3514 14.9258 14.6014C14.9856 14.8514 14.9686 15.1136 14.8771 15.3537C14.7903 15.5781 14.6402 15.7725 14.445 15.9132C14.1078 16.1385 13.7137 16.2638 13.3083 16.2746C12.8061 16.2836 12.3038 16.2746 11.8016 16.2746C11.6738 16.2746 11.6385 16.314 11.6385 16.4333V19.6848C11.6385 19.9931 11.6385 20.0065 11.9513 19.9931C12.62 20.0117 13.2892 19.9926 13.9558 19.9359C14.6489 19.8388 15.2393 19.7211 15.727 19.5829C15.7375 19.5789 15.748 19.5746 15.7582 19.57C16.3022 19.3898 16.8138 19.1235 17.2734 18.7813C17.5509 18.5902 17.7924 18.3517 17.987 18.0767C18.0039 18.064 18.019 18.0489 18.0317 18.032C18.3659 17.6094 18.6086 17.1218 18.7444 16.6004C18.8248 16.2961 18.8867 15.9872 18.9298 15.6755C19.0247 14.8505 18.8713 14.016 18.4892 13.2787L18.4897 13.2742Z" fill="#FBBF24"/>
</svg>
