<svg width="24" height="24" viewBox="0 0 24 24" fill="none" xmlns="http://www.w3.org/2000/svg">
<path fill-rule="evenodd" clip-rule="evenodd" d="M17.0783 6.48881C17.0331 6.16123 16.9018 5.8515 16.698 5.59113C16.5078 5.36291 16.2643 5.24119 15.9829 5.20315C15.4656 5.12708 14.8646 5.37812 14.294 5.73567C13.0672 6.56863 11.9612 7.56703 11.0076 8.70258L10.8859 8.84712L13.4039 14.3777L13.6093 14.3625C16.1754 14.1942 18.6687 13.4394 20.8973 12.1564L20.9886 12.0803C21.6656 11.5858 22.3807 10.5588 21.4222 10.0111C20.9962 9.76763 20.5245 9.96542 20.2202 10.2393C19.4228 9.92964 18.7167 9.42344 18.1674 8.76774C17.6181 8.11203 17.2435 7.3281 17.0783 6.48881ZM19.9007 10.749C19.0309 10.3943 18.2635 9.82779 17.6683 9.10105C17.0731 8.37432 16.6689 7.51037 16.4926 6.58771C16.465 6.3673 16.3812 6.15771 16.2491 5.97911C16.1643 5.8733 16.0414 5.80501 15.9068 5.78893C15.6025 5.75089 15.1536 5.89543 14.5983 6.23777C13.5713 6.86918 12.3921 8.01791 11.5781 8.94602L13.7691 13.7539C15.8611 13.579 18.0901 13.1758 20.0757 11.989C20.205 11.9129 20.3039 11.7988 20.3648 11.6847C20.4052 11.6107 20.4302 11.5293 20.4382 11.4453C20.4463 11.3614 20.4373 11.2767 20.4117 11.1963C20.3861 11.116 20.3444 11.0416 20.2893 10.9778C20.2342 10.914 20.1667 10.862 20.0909 10.8251C20.027 10.801 19.9636 10.7756 19.9007 10.749Z" fill="#FBBF24"/>
<path d="M16.0284 8.61603C15.945 8.74398 15.9285 8.92567 16.0011 9.09552C16.1084 9.34644 16.3677 9.47616 16.5802 9.38556C16.7927 9.29479 16.8779 9.01756 16.7706 8.76642C16.7653 8.75411 16.758 8.74298 16.752 8.73126C16.9393 8.83807 17.0947 9.00369 17.1856 9.21661C17.4083 9.73806 17.1629 10.3426 16.6378 10.5672C16.1123 10.7917 15.5051 10.5507 15.2823 10.0291C15.0598 9.50769 15.305 8.90303 15.8302 8.67853C15.8952 8.65075 15.9618 8.6299 16.0284 8.61603Z" fill="white"/>
<path d="M14.1722 10.8403C14.1722 15.6178 18.8584 16.7208 21.346 15.5189C21.0645 16.6524 20.0451 17.6109 18.3943 17.9304C18.3639 18.4249 18.9268 19.5356 19.4289 19.9768C18.2878 20.4029 16.9793 19.8247 16.2566 19.3682C15.9827 19.7638 15.861 20.9582 15.861 21.7037C15.0014 21.7037 13.8831 20.4637 13.6016 19.992C13.206 20.2203 12.5137 21.4375 12.3844 22.145C11.9565 21.8805 11.6033 21.511 11.3583 21.0716C11.1133 20.6323 10.9847 20.1376 10.9847 19.6345C10.4978 19.9768 9.11322 20.8213 8.47419 21.1103C8.15468 20.38 8.284 19.4747 8.47419 18.539C8.20032 18.6836 6.20717 18.8661 5.40839 18.6836C5.81158 18.2271 6.35171 17.2001 6.59515 16.7208C5.46286 16.5998 4.39388 16.1383 3.52934 15.3971C4.13794 15.1233 4.74654 14.7277 5.40839 14.0658C4.56396 13.6094 3.2783 12.9399 2.974 11.7684C3.75757 11.7151 4.72371 11.601 5.22581 11.3728C4.58678 11 3.52934 9.82849 3.74235 8.4135C4.27487 8.67216 5.38556 8.86995 5.92569 8.77105C5.45403 7.73644 5.14212 6.73225 5.60618 5.3477C6.13902 5.88796 6.77558 6.31492 7.47761 6.60293C7.37111 5.58353 7.84277 3.70449 8.47419 3.20239C8.74045 3.78056 9.4023 4.72389 9.84353 4.95211C9.95764 4.19136 10.9466 2.3884 11.8215 2.14496C11.8215 2.76877 12.1638 3.89467 12.4453 4.23701C13.0995 3.55234 15.2981 2.43404 17.0402 2.82202C16.5001 3.38497 16.1045 3.58277 15.9599 4.03921C17.2836 4.03921 19.4594 4.46523 21.346 6.45078C18.3943 5.3477 14.1722 7.15066 14.1722 10.8403Z" fill="#FBBF24"/>
</svg>
