<svg width="24" height="24" viewBox="0 0 24 24" fill="none" xmlns="http://www.w3.org/2000/svg">
<g clip-path="url(#clip0_35526_298)">
<path d="M7.83744 4.47384L6.00303 5.17266L3.36825 8.0258L1.87408 11.8176L2.34028 13.7462C2.79362 15.1152 3.54484 16.0695 4.89066 17.0867L5.86111 16.1536C5.86111 16.1536 7.24121 18.9377 9.73887 19.3891C9.73887 19.3891 13.4444 20.0882 15.3704 19.0725C15.9084 18.7888 16.2782 18.412 16.5592 18.1359C17.3067 17.401 17.6544 16.8647 18.1991 16.2438L18.8022 16.8966L19.4659 16.8765L21.2776 14.2659L22.0009 12.435L21.9932 10.8985L21.2083 8.87116L19.4629 6.19291C19.4629 6.19291 18.5108 4.65609 16.5139 4.77854C16.5139 4.77854 14.1666 3.03318 12.2407 3.30402C10.3148 3.57485 10.937 3.05947 7.83744 4.47384Z" fill="#F4AA41"/>
<path d="M12.0001 15.8756L10.8867 16.7483H9.98389L10.1733 18.1528L10.3252 19.2417L10.6158 20.0886L11.639 20.6302L13.294 20.4196L13.6045 19.6236L13.8577 18.1149L14.1367 16.8085L13.4144 16.8988L12.0001 15.8756Z" fill="#EA5A47"/>
<path d="M10.7362 12.3318L10.1644 13.6859L10.9468 14.1373L11.3982 14.3179L12.963 14.3781L14.0163 13.5656L13.3843 12.392L10.7362 12.3318Z" fill="#3F3F3F"/>
<path d="M9.65494 9.87261C9.65494 9.87261 9.0031 10.3213 8.66247 10.1138C8.32179 9.90633 8.21382 9.46195 8.42128 9.12132C8.62874 8.78068 9.07309 8.67267 9.41376 8.88013C9.75443 9.08759 9.65494 9.87261 9.65494 9.87261Z" fill="black"/>
<path d="M10.9559 12.3633H13.1752C13.3201 12.3633 13.4509 12.4498 13.5075 12.5832L13.9257 13.567L13.1387 13.9807C12.9164 14.0976 12.6457 13.9574 12.6127 13.7084" stroke="black" stroke-width="0.722222" stroke-linecap="round" stroke-linejoin="round"/>
<path d="M11.5524 13.72C11.5116 13.9463 11.2723 14.0773 11.0596 13.9898L10.2243 13.646L10.6179 12.5975C10.6708 12.4566 10.8055 12.3633 10.956 12.3633" stroke="black" stroke-width="0.722222" stroke-linecap="round" stroke-linejoin="round"/>
<path d="M9.991 17.0652C9.991 17.0652 9.73147 20.2406 11.0769 20.6538C12.0324 20.9472 12.9365 20.846 13.2662 20.5635C13.5821 20.2927 14.2167 18.9478 13.9258 17.0652" stroke="black" stroke-width="0.722222" stroke-linecap="round" stroke-linejoin="round"/>
<path d="M14.9841 9.87262C14.9841 9.87262 15.6359 10.3213 15.9766 10.1138C16.3173 9.90634 16.4252 9.46196 16.2178 9.12132C16.0103 8.78065 15.566 8.67268 15.2253 8.88014C14.8846 9.0876 14.9841 9.87262 14.9841 9.87262Z" fill="black"/>
<path d="M8.25327 14.4697C8.08174 15.7706 9.0601 16.5463 9.80052 16.9402C10.2327 17.1702 10.7578 17.1274 11.143 16.8254L12.075 16.0947L13.007 16.8254C13.3923 17.1274 13.9174 17.1702 14.3495 16.9402C15.0899 16.5463 16.0683 15.7706 15.8968 14.4697" stroke="black" stroke-width="0.722222" stroke-linecap="round" stroke-linejoin="round"/>
<path d="M6.20449 9.24009C5.36794 11.1033 6.0209 13.9435 6.24746 14.7925C6.29152 14.9576 6.27473 15.1303 6.20156 15.2847L5.48389 16.7991C5.25892 17.2738 4.61961 17.36 4.28103 16.9583C3.12833 15.5908 1.1905 12.8453 1.91626 10.9328C4.46661 4.21242 7.64626 4.38123 7.64626 4.38123C8.67373 3.68299 12.3783 1.87603 16.6063 4.69721C16.6063 4.69721 19.7235 4.077 22.0004 10.8135C22.6517 12.7405 20.7619 15.4599 19.6349 16.8239C19.2987 17.2309 18.6541 17.1467 18.428 16.6697L17.7151 15.1654C17.642 15.011 17.6252 14.8383 17.6692 14.6732C17.8958 13.8243 18.5487 10.984 17.7122 9.12078" stroke="black" stroke-width="0.722222" stroke-linecap="round" stroke-linejoin="round"/>
<path d="M18.0057 15.7782C18.0057 15.7782 16.8942 18.2055 15.1873 18.7651" stroke="black" stroke-width="0.722222" stroke-linecap="round" stroke-linejoin="round"/>
<path d="M6.01886 15.961C6.01886 15.961 7.1304 18.1574 8.8373 18.717" stroke="black" stroke-width="0.722222" stroke-linecap="round" stroke-linejoin="round"/>
<path d="M12.075 16.0948V15.0006" stroke="black" stroke-width="0.722222" stroke-linecap="round" stroke-linejoin="round"/>
</g>
<defs>
<clipPath id="clip0_35526_298">
<rect width="24" height="24" fill="white"/>
</clipPath>
</defs>
</svg>
