<svg width="24" height="24" viewBox="0 0 24 24" fill="none" xmlns="http://www.w3.org/2000/svg">
    <path d="M7.44675 2.85675H5.925V7.16775L7.7835 9.02625H5.55L3.117 6.59175V2.85675H1.5V7.28175L4.80825 10.59H9.2685L10.8668 12.1882H6.59175L10.2 15.9L4.91925 21.1432H7.00125L12.279 15.825L10.275 13.821H20.9393V14.49L16.3305 17.2402L12.465 21.1402H14.658L17.2965 18.4642L22.5 15.345V12.186H17.5935L15.921 10.5135L17.8162 8.61825V4.38075H16.2368V7.91175L14.6948 9.43575L13.3193 7.99575V4.38075H11.8328V8.6925L15.309 12.186H13.188L7.44675 6.49875V2.85675Z" fill="#4A69A5"/>
    <path d="M15.5122 14.7878H13.431L14.4345 15.8655L15.5122 14.7878Z" fill="#4A69A5"/>
</svg>
    