<svg width="24" height="24" viewBox="0 0 24 24" fill="none" xmlns="http://www.w3.org/2000/svg">
<path d="M19.871 8.35819C19.8304 8.31515 19.7874 8.27211 19.7444 8.23161C19.7013 8.1911 19.6608 8.14553 19.6178 8.10502C19.5748 8.06452 19.5342 8.01895 19.4912 7.97844C19.4482 7.93793 19.4077 7.89236 19.3646 7.85186C19.3216 7.81135 19.2811 7.76578 19.238 7.72527C19.195 7.68477 19.1545 7.6392 19.1115 7.59869C19.0684 7.55818 19.0279 7.51261 18.9849 7.47211C20.2406 8.70622 20.96 10.3851 20.9874 12.1456C20.9874 16.3405 16.7292 19.7532 11.4937 19.7532C8.56205 19.7532 5.93926 18.6823 4.19495 17.0038L4.32153 17.1304L4.44811 17.257L4.57469 17.3836L4.70128 17.5101L4.82786 17.6367L4.95444 17.7633L5.08103 17.8899C6.8228 19.6393 9.50383 20.7659 12.5064 20.7659C17.7418 20.7659 22.0001 17.3532 22.0001 13.1709C22.0001 11.3835 21.2305 9.68984 19.871 8.35819Z" fill="black"/>
<path d="M20.3545 12.1455C20.3545 15.9962 16.3874 19.1177 11.4937 19.1177C6.60004 19.1177 2.63293 15.9962 2.63293 12.1455C2.63293 9.75818 4.15193 7.64931 6.48611 6.39867C8.8203 5.14802 10.2735 3.867 11.4937 3.867C12.714 3.867 13.757 4.91258 16.5013 6.39867C18.8355 7.64931 20.3545 9.75818 20.3545 12.1455Z" fill="#FBF0DF"/>
<path d="M20.3545 12.1456C20.3532 11.6509 20.2851 11.1587 20.1519 10.6823C19.4608 19.1127 9.17721 19.5177 5.13416 16.9962C6.95164 18.4049 9.19445 19.1531 11.4937 19.1177C16.3798 19.1177 20.3545 15.9911 20.3545 12.1456Z" fill="#F6DECE"/>
<path d="M8.08359 5.93537C9.21524 5.25689 10.719 3.98346 12.1975 3.98093C11.9701 3.90741 11.7328 3.86899 11.4937 3.867C10.8811 3.867 10.2279 4.18346 9.40511 4.65941C9.11904 4.8265 8.82283 5.01131 8.50891 5.20372C7.91903 5.56828 7.24308 5.98094 6.48358 6.3936C4.07345 7.69741 2.63293 9.84679 2.63293 12.1455C2.63293 12.2468 2.63293 12.3481 2.63293 12.4468C4.16712 7.02652 6.95447 6.61386 8.08359 5.93537Z" fill="#FFFEFC"/>
<path fill-rule="evenodd" clip-rule="evenodd" d="M10.7647 4.50751C10.7682 5.1053 10.6427 5.6968 10.3967 6.24164C10.1507 6.78647 9.79005 7.27181 9.33933 7.6645C9.26845 7.72779 9.32414 7.84931 9.41528 7.81386C10.2685 7.48222 11.4204 6.4898 10.9343 4.48726C10.914 4.37334 10.7647 4.40372 10.7647 4.50751ZM11.3393 4.50751C11.6491 5.01294 11.8459 5.57938 11.9163 6.16799C11.9866 6.7566 11.9289 7.35346 11.7469 7.91766C11.7166 8.00627 11.8254 8.08222 11.8862 8.0088C12.4406 7.29994 12.9242 5.89233 11.476 4.37334C11.4026 4.30751 11.2887 4.40878 11.3393 4.49739V4.50751ZM12.0381 4.46448C12.5232 4.80791 12.929 5.25137 13.2281 5.76496C13.5273 6.27855 13.7128 6.85032 13.7723 7.44171C13.7697 7.46302 13.7754 7.4845 13.7883 7.50169C13.8011 7.51889 13.8201 7.53048 13.8413 7.53406C13.8624 7.53764 13.8842 7.53294 13.902 7.52093C13.9197 7.50892 13.9322 7.49052 13.9368 7.46956C14.1697 6.58601 14.0381 5.07967 12.1216 4.29739C12.0204 4.25688 11.9545 4.39359 12.0381 4.45435V4.46448ZM7.36464 7.0974C7.94167 6.92501 8.47593 6.63303 8.93262 6.24045C9.38932 5.84788 9.75821 5.36352 10.0153 4.81891C10.0609 4.72777 10.2052 4.76321 10.1824 4.86448C9.7444 6.88981 8.27857 7.31259 7.36717 7.2569C7.27097 7.25943 7.2735 7.12525 7.36464 7.0974Z" fill="#CCBEA7"/>
<path d="M11.4937 19.7532C6.25824 19.7532 2 16.3405 2 12.1455C2 9.61388 3.56456 7.25185 6.18483 5.83665C6.94432 5.43158 7.59496 5.02398 8.17471 4.66702C8.4937 4.46955 8.79496 4.28474 9.0861 4.11259C9.97471 3.586 10.7342 3.2341 11.4937 3.2341C12.2532 3.2341 12.9165 3.5379 13.7469 4.02904C14 4.17335 14.2532 4.33031 14.5241 4.50246C15.1545 4.89234 15.8659 5.33285 16.8026 5.83665C19.4229 7.25185 20.9874 9.61135 20.9874 12.1455C20.9874 16.3405 16.7292 19.7532 11.4937 19.7532ZM11.4937 3.86702C10.881 3.86702 10.2279 4.18347 9.40509 4.65943C9.11901 4.82651 8.82281 5.01133 8.50889 5.20373C7.91901 5.56829 7.24306 5.98095 6.48356 6.39361C4.07343 7.69742 2.63291 9.8468 2.63291 12.1455C2.63291 15.9911 6.60761 19.1203 11.4937 19.1203C16.3798 19.1203 20.3545 15.9911 20.3545 12.1455C20.3545 9.8468 18.914 7.69742 16.5013 6.39868C15.5444 5.89234 14.7975 5.41639 14.1925 5.04171C13.9165 4.87208 13.6633 4.71512 13.433 4.57588C12.6659 4.12018 12.1064 3.86702 11.4937 3.86702Z" fill="black"/>
<path d="M13.2786 13.9937C13.1648 14.4595 12.9059 14.8771 12.5393 15.1861C12.2641 15.4529 11.9077 15.6204 11.5267 15.662C11.1341 15.627 10.7653 15.4591 10.4811 15.1861C10.1182 14.8756 9.86296 14.4582 9.75197 13.9937C9.74829 13.9661 9.75097 13.938 9.75981 13.9117C9.76865 13.8853 9.78341 13.8613 9.80296 13.8415C9.82251 13.8217 9.84633 13.8066 9.87259 13.7975C9.89886 13.7883 9.92688 13.7853 9.9545 13.7886H13.0786C13.106 13.7857 13.1337 13.789 13.1597 13.7984C13.1856 13.8077 13.2091 13.8229 13.2283 13.8426C13.2476 13.8623 13.2621 13.8862 13.2708 13.9124C13.2795 13.9385 13.2822 13.9663 13.2786 13.9937Z" fill="#B71422"/>
<path d="M10.481 15.2063C10.7647 15.4795 11.1322 15.649 11.5241 15.6874C11.9151 15.6484 12.2816 15.479 12.5646 15.2063C12.6551 15.122 12.7397 15.0315 12.8177 14.9355C12.6618 14.7585 12.4713 14.6154 12.2579 14.5148C12.0446 14.4142 11.813 14.3584 11.5772 14.3506C11.325 14.3566 11.078 14.4238 10.8575 14.5464C10.637 14.669 10.4496 14.8434 10.3114 15.0544C10.3696 15.1076 10.4203 15.1582 10.481 15.2063Z" fill="#FF6164"/>
<path d="M10.5215 15.0063C10.6471 14.8441 10.8077 14.7124 10.9914 14.6212C11.1752 14.53 11.3772 14.4816 11.5823 14.4798C11.9614 14.4909 12.3227 14.6436 12.595 14.9076C12.6532 14.8443 12.7089 14.7785 12.7621 14.7127C12.44 14.4059 12.0143 14.2315 11.5696 14.2241C11.332 14.2261 11.0977 14.2807 10.8837 14.384C10.6697 14.4873 10.4811 14.6367 10.3317 14.8215C10.3915 14.8866 10.4549 14.9483 10.5215 15.0063Z" fill="black"/>
<path d="M11.5165 15.8139C11.0946 15.777 10.6976 15.5986 10.3899 15.3076C9.99801 14.9762 9.72217 14.5282 9.60255 14.0291C9.59397 13.9847 9.59543 13.9389 9.60682 13.8951C9.61821 13.8513 9.63924 13.8106 9.66838 13.776C9.70307 13.7341 9.74688 13.7006 9.79646 13.6783C9.84604 13.6559 9.90008 13.6451 9.95445 13.6468H13.0785C13.1328 13.6457 13.1867 13.6567 13.2362 13.679C13.2857 13.7014 13.3295 13.7345 13.3646 13.776C13.3934 13.8107 13.4141 13.8515 13.4251 13.8953C13.436 13.9392 13.437 13.9849 13.4279 14.0291C13.3083 14.5282 13.0324 14.9762 12.6405 15.3076C12.3335 15.598 11.9375 15.7764 11.5165 15.8139ZM9.95445 13.9405C9.91395 13.9405 9.90382 13.9582 9.90129 13.9633C10.0083 14.3961 10.2504 14.7836 10.5924 15.0696C10.8425 15.3161 11.1677 15.472 11.5165 15.5127C11.8643 15.4724 12.1892 15.3185 12.4405 15.0747C12.7815 14.7882 13.0227 14.4008 13.1291 13.9684C13.1236 13.9603 13.116 13.9539 13.107 13.9498C13.0981 13.9458 13.0882 13.9443 13.0785 13.9456L9.95445 13.9405Z" fill="black"/>
<path d="M15.3469 14.1506C16.1648 14.1506 16.8279 13.7607 16.8279 13.2797C16.8279 12.7988 16.1648 12.4088 15.3469 12.4088C14.5289 12.4088 13.8658 12.7988 13.8658 13.2797C13.8658 13.7607 14.5289 14.1506 15.3469 14.1506Z" fill="#FEBBD0"/>
<path d="M7.68353 14.1506C8.50148 14.1506 9.16455 13.7607 9.16455 13.2797C9.16455 12.7988 8.50148 12.4088 7.68353 12.4088C6.86559 12.4088 6.20251 12.7988 6.20251 13.2797C6.20251 13.7607 6.86559 14.1506 7.68353 14.1506Z" fill="#FEBBD0"/>
<path fill-rule="evenodd" clip-rule="evenodd" d="M8.37972 12.9304C8.65572 12.9309 8.92566 12.8495 9.15539 12.6965C9.38512 12.5435 9.56431 12.3258 9.67028 12.071C9.77625 11.8161 9.80423 11.5356 9.75069 11.2648C9.69716 10.9941 9.5645 10.7453 9.36951 10.5499C9.17453 10.3546 8.92598 10.2215 8.65532 10.1675C8.38466 10.1134 8.10405 10.1409 7.84901 10.2464C7.59397 10.3519 7.37596 10.5307 7.22257 10.7602C7.06918 10.9896 6.98731 11.2594 6.9873 11.5354C6.9873 11.9049 7.13392 12.2594 7.39498 12.5209C7.65603 12.7824 8.01019 12.9297 8.37972 12.9304ZM14.6506 12.9304C14.9269 12.9324 15.1976 12.8523 15.4284 12.7002C15.6591 12.5482 15.8394 12.331 15.9466 12.0763C16.0537 11.8216 16.0828 11.5408 16.0301 11.2695C15.9774 10.9983 15.8454 10.7488 15.6507 10.5527C15.456 10.3566 15.2075 10.2227 14.9366 10.1681C14.6658 10.1134 14.3848 10.1404 14.1293 10.2457C13.8738 10.351 13.6554 10.5298 13.5016 10.7594C13.3479 10.989 13.2658 11.2591 13.2658 11.5354C13.2651 11.9038 13.4105 12.2575 13.6701 12.519C13.9296 12.7804 14.2822 12.9284 14.6506 12.9304Z" fill="black"/>
<path fill-rule="evenodd" clip-rule="evenodd" d="M7.94938 11.624C8.05313 11.6245 8.1547 11.5942 8.24121 11.5369C8.32772 11.4797 8.39529 11.398 8.43534 11.3023C8.47539 11.2066 8.48613 11.1011 8.4662 10.9993C8.44626 10.8975 8.39655 10.8039 8.32337 10.7303C8.25018 10.6568 8.15681 10.6066 8.05508 10.5862C7.95336 10.5658 7.84786 10.576 7.75195 10.6156C7.65605 10.6552 7.57405 10.7223 7.51635 10.8086C7.45866 10.8948 7.42786 10.9962 7.42786 11.1C7.42785 11.2385 7.48272 11.3714 7.58045 11.4696C7.67818 11.5679 7.81083 11.6234 7.94938 11.624ZM14.2203 11.624C14.324 11.6245 14.4256 11.5942 14.5121 11.5369C14.5986 11.4797 14.6662 11.398 14.7062 11.3023C14.7463 11.2066 14.757 11.1011 14.7371 10.9993C14.7172 10.8975 14.6675 10.8039 14.5943 10.7303C14.5211 10.6568 14.4277 10.6066 14.326 10.5862C14.2243 10.5658 14.1188 10.576 14.0229 10.6156C13.927 10.6552 13.845 10.7223 13.7873 10.8086C13.7296 10.8948 13.6988 10.9962 13.6988 11.1C13.6988 11.2377 13.7529 11.3698 13.8496 11.4679C13.9462 11.5659 14.0776 11.622 14.2152 11.624H14.2203Z" fill="white"/>
</svg>
