<svg width="25" height="24" viewBox="0 0 25 24" fill="none" xmlns="http://www.w3.org/2000/svg">
<path d="M17.7628 9.9375H15.2741C15.2287 9.61553 15.1359 9.32955 14.9957 9.07955C14.8556 8.82576 14.6757 8.60985 14.456 8.43182C14.2363 8.25379 13.9825 8.11742 13.6946 8.02273C13.4105 7.92803 13.1018 7.88068 12.7685 7.88068C12.1662 7.88068 11.6416 8.0303 11.1946 8.32955C10.7476 8.625 10.401 9.05682 10.1548 9.625C9.90862 10.1894 9.78551 10.875 9.78551 11.6818C9.78551 12.5114 9.90862 13.2083 10.1548 13.7727C10.4048 14.3371 10.7533 14.7633 11.2003 15.0511C11.6473 15.339 12.1643 15.483 12.7514 15.483C13.081 15.483 13.3859 15.4394 13.6662 15.3523C13.9503 15.2652 14.2022 15.1383 14.4219 14.9716C14.6416 14.8011 14.8234 14.5947 14.9673 14.3523C15.1151 14.1098 15.2173 13.8333 15.2741 13.5227L17.7628 13.5341C17.6984 14.0682 17.5374 14.5833 17.2798 15.0795C17.026 15.572 16.6832 16.0133 16.2514 16.4034C15.8234 16.7898 15.312 17.0966 14.7173 17.3239C14.1264 17.5473 13.4579 17.6591 12.7116 17.6591C11.6738 17.6591 10.7457 17.4242 9.92756 16.9545C9.11316 16.4848 8.46922 15.8049 7.99574 14.9148C7.52604 14.0246 7.29119 12.947 7.29119 11.6818C7.29119 10.4129 7.52983 9.33333 8.0071 8.44318C8.48438 7.55303 9.1321 6.875 9.95028 6.40909C10.7685 5.93939 11.6889 5.70455 12.7116 5.70455C13.3859 5.70455 14.0109 5.79924 14.5866 5.98864C15.1662 6.17803 15.6795 6.45455 16.1264 6.81818C16.5734 7.17803 16.937 7.61932 17.2173 8.14205C17.5014 8.66477 17.6832 9.26326 17.7628 9.9375Z" fill="#60A5FA"/>
</svg>
