<svg width="24" height="24" viewBox="0 0 24 24" fill="none" xmlns="http://www.w3.org/2000/svg">
<path fill-rule="evenodd" clip-rule="evenodd" d="M20.9335 9.48804C21.1771 10.6715 21.154 11.8393 20.953 12.9598C20.7493 14.0967 20.3353 15.1717 19.7468 16.1442C19.5124 16.532 19.2534 16.9047 18.9689 17.2592C18.6855 17.6104 18.3792 17.946 18.0482 18.2586C17.0753 19.1786 15.8965 19.9112 14.5288 20.3274C13.4463 20.6673 12.3505 20.7945 11.2821 20.7231C10.1569 20.6467 9.06866 20.3614 8.06472 19.8918L7.96674 20.0798C8.96665 20.6515 10.071 21.0352 11.2288 21.2101C12.3633 21.382 13.5444 21.3469 14.7313 21.0833C16.2713 20.7236 17.6427 20.0186 18.7648 19.0524C19.1532 18.7182 19.509 18.3492 19.8303 17.9552C20.1525 17.5579 20.4407 17.1339 20.6867 16.687C21.2964 15.5813 21.6851 14.3498 21.7952 13.0716C21.9 11.857 21.7503 10.6065 21.3424 9.37849L20.9335 9.48804Z" fill="#60A5FA"/>
<path fill-rule="evenodd" clip-rule="evenodd" d="M5.3765 17.6795C4.92848 17.1884 4.5279 16.6457 4.19566 16.0506C3.87191 15.4702 3.61399 14.8442 3.42182 14.1804C3.34818 13.8487 3.29157 13.5202 3.25847 13.1901C3.12339 11.8392 3.34207 10.5273 3.77169 9.30501C4.002 8.64929 4.30869 8.02908 4.65997 7.43424C5.12629 6.64375 5.68019 5.90442 6.35089 5.26443C7.33737 4.32367 8.53423 3.5738 9.92492 3.14518C11.0569 2.79677 12.2038 2.66831 13.3164 2.77139C14.0892 2.84266 14.8471 3.01121 15.558 3.29346C16.3624 3.61283 17.1034 4.07669 17.7706 4.62722C18.4266 5.16831 18.998 5.8129 19.4792 6.52989C19.5424 6.6249 19.5846 6.73338 19.6631 6.81651C19.7237 6.87958 19.7935 6.90442 19.8647 6.95532L20.1523 6.77248C20.1349 6.6823 20.1363 6.60574 20.0986 6.52254C20.049 6.41297 19.9553 6.33079 19.8809 6.2372C19.0952 5.24884 18.1244 4.44688 17.041 3.84306C16.5794 3.58576 16.0968 3.36832 15.6025 3.18043C15.0567 2.97214 14.4953 2.8007 13.918 2.68016C12.5991 2.40533 11.2065 2.38348 9.80674 2.70412C8.28935 3.05161 6.93635 3.73761 5.82792 4.68461C5.05706 5.34367 4.39252 6.12041 3.89824 6.99459C3.5273 7.65068 3.25589 8.36249 3.07545 9.09815C2.75088 10.4229 2.7483 11.8246 3.04057 13.2236C3.10991 13.5549 3.19051 13.8847 3.29443 14.2145C3.46311 14.8986 3.70737 15.5438 4.0062 16.1495C4.31695 16.78 4.68772 17.3664 5.11746 17.9013L5.3765 17.6795Z" fill="#60A5FA"/>
<path d="M19.3286 7.72141C19.2142 8.47098 19.737 9.18218 20.4866 9.29659C20.8822 9.35698 21.2664 9.24013 21.5587 9.00645C21.82 8.79673 22.0076 8.49323 22.0617 8.1386C22.1762 7.38903 21.6533 6.67784 20.9038 6.56342C20.1542 6.44901 19.443 6.97184 19.3286 7.72141Z" stroke="#60A5FA" stroke-width="0.725765" stroke-linecap="round" stroke-linejoin="round"/>
<path fill-rule="evenodd" clip-rule="evenodd" d="M17.7214 10.7682C17.7214 10.7682 17.963 10.5429 18.2643 10.2472C18.7937 9.72705 19.5036 9.00013 19.5036 9.00013L19.2708 8.72733C19.2708 8.72733 18.4421 9.31589 17.8452 9.75693C17.5068 10.009 17.2464 10.2127 17.2464 10.2127L17.7214 10.7682Z" fill="#60A5FA"/>
<path d="M11.0154 17.3579H16.2458C16.538 17.3579 16.7747 17.1212 16.7747 16.829V11.5746C16.7747 11.2823 16.538 11.0456 16.2458 11.0456H8.46647C8.17421 11.0456 7.9375 11.2823 7.9375 11.5746V14.6802" stroke="#22C55E" stroke-width="1.19303"/>
<path d="M9.83118 11.0456V8.52067C9.83118 7.13574 10.9712 5.99573 12.3561 5.99573C13.741 5.99573 14.881 7.13574 14.881 8.52067V11.0456" stroke="#22C55E" stroke-width="1.19303" stroke-linecap="round" stroke-linejoin="round"/>
<path d="M9.41409 18.246C9.46229 17.879 9.41418 17.5201 9.28938 17.195C9.01302 16.4733 8.35796 15.9176 7.54433 15.8107C6.36369 15.6557 5.2642 16.4999 5.10913 17.6805C4.95406 18.8612 5.79825 19.9607 6.97889 20.1157C8.15952 20.2708 9.25902 19.4266 9.41409 18.246Z" stroke="#60A5FA" stroke-width="1.06378" stroke-linecap="round" stroke-linejoin="round"/>
<path fill-rule="evenodd" clip-rule="evenodd" d="M11.7767 13.948C11.7767 13.948 10.4443 14.7423 9.48735 15.3603C8.94546 15.71 8.53559 16.0037 8.53559 16.0037L9.3852 17.0895C9.3852 17.0895 9.76736 16.7609 10.2377 16.3196C11.0674 15.5391 12.1606 14.4374 12.1606 14.4374L11.7767 13.948Z" fill="#60A5FA"/>
</svg>
