<svg width="24" height="24" viewBox="0 0 24 24" fill="none" xmlns="http://www.w3.org/2000/svg">
<path fill-rule="evenodd" clip-rule="evenodd" d="M13.9343 17.1228C14.3703 17.2833 14.8688 17.3786 15.4727 17.4576C15.6991 17.4864 15.9437 17.501 16.2042 17.501C16.8992 17.4987 17.7108 17.3938 18.5548 17.1743C16.9944 19.4873 14.4177 20.9996 11.5008 20.9996C6.73806 20.9996 2.87664 16.9703 2.87664 12.0001C2.87664 11.9465 2.87622 11.8944 2.8758 11.843C2.87368 11.5803 2.87172 11.3373 2.92696 11.0321C3.63347 8.52484 5.33049 7.59646 6.9381 7.58067C7.26422 7.58005 7.58348 7.62509 7.88961 7.70227C6.745 8.74999 6.02149 10.2862 6.02149 11.9999C6.02186 15.1583 8.47474 17.7174 11.5006 17.7174C12.3751 17.7174 13.201 17.5028 13.9343 17.1228ZM8.87996 8.11054C7.70948 8.97132 6.94354 10.391 6.94064 11.9999C6.94354 13.5847 7.68644 14.9861 8.82747 15.8504C9.02166 15.0064 9.41883 14.2117 9.99521 13.0586L9.99521 13.0586L9.99523 13.0585C10.2496 12.5496 10.5389 11.9708 10.861 11.2871C10.7986 11.108 10.7274 10.9119 10.6477 10.706C10.3562 9.94311 9.93555 9.05713 9.56015 8.65592C9.36876 8.44633 9.13652 8.26521 8.87996 8.11054ZM11.1427 12.1621C11.0569 12.356 10.9623 12.5739 10.8643 12.8057C10.518 13.6245 10.1345 14.6208 9.99439 15.259C9.94406 15.4864 9.9129 15.7681 9.9135 16.0804C9.9135 16.204 9.91983 16.3338 9.9299 16.4661C10.4195 16.6538 10.9484 16.7571 11.5006 16.7581C12.0034 16.7571 12.4863 16.6704 12.9384 16.5135C12.8321 16.4122 12.7307 16.3041 12.6384 16.1824C12.0256 15.3669 11.6836 14.1717 11.1427 12.1621Z" fill="#22C55E"/>
<path fill-rule="evenodd" clip-rule="evenodd" d="M4.49176 6.75948C6.05688 4.48424 8.61213 3.00037 11.5008 3.00037C16.2639 3.00037 20.125 7.03007 20.125 12.0001C20.125 12.3892 20.0986 12.7716 20.0527 13.1478C19.8182 14.1217 19.3954 14.7712 18.8907 15.2148C18.1168 15.8941 17.0844 16.114 16.1292 16.1136C15.8603 16.115 15.5969 16.097 15.35 16.0681C16.356 15.0315 16.9801 13.592 16.9801 11.9999H16.9805C16.9801 8.8421 14.5268 6.28296 11.5006 6.28257C10.7159 6.28257 9.97035 6.45599 9.2956 6.7661C9.21068 6.70533 9.12397 6.64621 9.03263 6.59128C8.65448 6.3694 7.86632 6.04505 6.86382 6.04202C6.138 6.03517 5.30631 6.22718 4.49176 6.75948ZM14.194 15.836C14.026 15.7863 13.9053 15.7413 13.8521 15.7137C13.6736 15.6332 13.4116 15.3588 13.1734 14.977C12.8106 14.4072 12.478 13.6253 12.2444 12.9937C12.0291 12.4147 11.8962 11.9662 11.8746 11.8935C11.8726 11.8868 11.8716 11.8833 11.8715 11.8832L11.8708 11.8812C11.44 10.1596 10.9948 8.58567 10.0688 7.48434C10.5191 7.32867 11 7.24246 11.5006 7.24145C14.0191 7.24667 16.0567 9.37254 16.0609 11.9999H16.0614C16.0585 13.5759 15.3241 14.9703 14.194 15.836Z" fill="#60A5FA"/>
</svg>
