<svg width="25" height="24" viewBox="0 0 25 24" fill="none" xmlns="http://www.w3.org/2000/svg">
<path fill-rule="evenodd" clip-rule="evenodd" d="M14.8766 17.1228C15.3316 17.2833 15.8516 17.3786 16.4818 17.4576C16.7181 17.4864 16.9733 17.501 17.2451 17.501C17.9704 17.4987 18.8173 17.3938 19.698 17.1743C18.0697 19.4873 15.381 20.9996 12.3373 20.9996C7.36745 20.9996 3.33813 16.9703 3.33813 12.0001C3.33813 11.9466 3.33769 11.8944 3.33726 11.843C3.33505 11.5803 3.333 11.3373 3.39065 11.0321C4.12788 8.52487 5.89867 7.59649 7.57619 7.58069C7.91648 7.58007 8.24962 7.62512 8.56906 7.7023C7.37468 8.75002 6.61972 10.2863 6.61972 11.9999C6.62011 15.1583 9.17963 17.7174 12.3371 17.7174C13.2496 17.7174 14.1113 17.5028 14.8766 17.1228ZM9.60247 8.11057C8.3811 8.97134 7.58186 10.391 7.57883 11.9999C7.58186 13.5848 8.35706 14.9861 9.5477 15.8505C9.75033 15.0064 10.1648 14.2118 10.7662 13.0586C11.0317 12.5496 11.3335 11.9708 11.6697 11.2871C11.6045 11.108 11.5302 10.912 11.447 10.706C11.1429 9.94314 10.704 9.05716 10.3122 8.65594C10.1125 8.44635 9.87018 8.26523 9.60247 8.11057ZM11.9635 12.1622C11.8741 12.356 11.7753 12.5739 11.6731 12.8057C11.3117 13.6245 10.9115 14.6208 10.7654 15.2591C10.7128 15.4864 10.6803 15.7681 10.6809 16.0805C10.6809 16.204 10.6876 16.3339 10.6981 16.4661C11.209 16.6538 11.7608 16.7571 12.3371 16.7581C12.8617 16.7571 13.3656 16.6704 13.8373 16.5136C13.7265 16.4122 13.6207 16.3041 13.5244 16.1824C12.8848 15.3669 12.5281 14.1717 11.9635 12.1622Z" fill="#4ADE80"/>
<path fill-rule="evenodd" clip-rule="evenodd" d="M5.0235 6.75948C6.65667 4.48424 9.32301 3.00037 12.3373 3.00037C17.3075 3.00037 21.3364 7.03007 21.3364 12.0001C21.3364 12.3892 21.3089 12.7716 21.261 13.1478C21.0164 14.1217 20.5752 14.7712 20.0485 15.2148C19.2409 15.8941 18.1636 16.114 17.1669 16.1136C16.8863 16.115 16.6115 16.097 16.3538 16.0681C17.4036 15.0315 18.0548 13.592 18.0548 11.9999H18.0552C18.0548 8.8421 15.4948 6.28296 12.337 6.28257C11.5183 6.28257 10.7403 6.45599 10.0362 6.7661C9.94759 6.70533 9.8571 6.64621 9.7618 6.59128C9.3672 6.3694 8.54478 6.04505 7.49869 6.04202C6.74131 6.03517 5.87346 6.22718 5.0235 6.75948ZM15.1476 15.836C14.9723 15.7863 14.8463 15.7413 14.7908 15.7137C14.6046 15.6332 14.3312 15.3588 14.0826 14.977C13.7041 14.4072 13.3569 13.6253 13.1133 12.9937C12.8886 12.4147 12.7498 11.9662 12.7273 11.8935C12.7253 11.8868 12.7242 11.8833 12.7241 11.8832L12.7233 11.8812C12.2739 10.1596 11.8093 8.58567 10.8431 7.48434C11.3129 7.32867 11.8147 7.24246 12.3371 7.24145C14.965 7.24667 17.0912 9.37254 17.0957 11.9999H17.0961C17.0931 13.5759 16.3268 14.9703 15.1476 15.836Z" fill="#60A5FA"/>
</svg>
