<svg width="24" height="24" viewBox="0 0 24 24" fill="none" xmlns="http://www.w3.org/2000/svg">
<path d="M8.6234 20.1311C8.27717 20.1311 7.93094 20.0489 7.62799 19.9017L11.7914 12.3929C11.9212 12.1592 11.9212 11.8736 11.7914 11.6399L7.62799 4.13535C7.93747 3.9821 8.27806 3.90214 8.6234 3.90164H11.9991L16.1972 11.4711C16.2896 11.6379 16.3381 11.8256 16.3381 12.0164C16.3381 12.2072 16.2896 12.3948 16.1972 12.5617L11.9991 20.1311H8.6234Z" fill="#FEF3C7"/>
<path fill-rule="evenodd" clip-rule="evenodd" d="M20.6981 10.8911L17.3224 5.02689C17.125 4.68498 16.8411 4.40102 16.4993 4.20351C16.1574 4.006 15.7697 3.90189 15.3749 3.90164H11.9991L16.1972 11.4711C16.2896 11.6379 16.3381 11.8256 16.3381 12.0164C16.3381 12.2072 16.2896 12.3948 16.1972 12.5617L11.9991 20.1311H15.3749C15.7697 20.1309 16.1574 20.0268 16.4993 19.8292C16.8411 19.6317 17.125 19.3478 17.3224 19.0059L20.6981 13.1416C21.1006 12.4492 21.1006 11.5836 20.6981 10.8911ZM7.62804 4.13535L7.84154 4.52053H7.84444L9.7487 7.96118L9.7483 7.96187L7.80115 11.4667C7.70792 11.6342 7.65899 11.8226 7.65899 12.0142C7.65899 12.2058 7.70792 12.3943 7.80115 12.5617L9.74869 16.0759L7.62804 19.9017C7.229 19.7039 6.89764 19.3921 6.67591 19.0059L3.30018 13.1416C3.1035 12.7992 3 12.4112 3 12.0164C3 11.6215 3.1035 11.2335 3.30018 10.8911L5.69296 6.73445C5.67299 6.76773 5.65293 6.80158 5.63279 6.836L5.7411 6.64983L6.65499 5.06323L6.67591 5.02689L6.67771 5.02377C6.8978 4.64181 7.22523 4.33287 7.61939 4.13535L7.6213 4.13868L7.62804 4.13535Z" fill="#F59E0B"/>
</svg>
