<svg width="24" height="24" viewBox="0 0 24 24" fill="none" xmlns="http://www.w3.org/2000/svg">
<path d="M13.8196 10.4489H11.331C11.2855 10.1269 11.1927 9.84091 11.0526 9.59091C10.9124 9.33712 10.7325 9.12121 10.5128 8.94318C10.2931 8.76515 10.0393 8.62879 9.75143 8.53409C9.46734 8.43939 9.15863 8.39205 8.8253 8.39205C8.22302 8.39205 7.6984 8.54167 7.25143 8.84091C6.80446 9.13636 6.45787 9.56818 6.21166 10.1364C5.96545 10.7008 5.84234 11.3864 5.84234 12.1932C5.84234 13.0227 5.96545 13.7197 6.21166 14.2841C6.46166 14.8485 6.81014 15.2746 7.25711 15.5625C7.70408 15.8504 8.22113 15.9943 8.80825 15.9943C9.1378 15.9943 9.44272 15.9508 9.72302 15.8636C10.0071 15.7765 10.259 15.6496 10.4787 15.483C10.6984 15.3125 10.8802 15.1061 11.0242 14.8636C11.1719 14.6212 11.2742 14.3447 11.331 14.0341L13.8196 14.0455C13.7552 14.5795 13.5942 15.0947 13.3367 15.5909C13.0829 16.0833 12.7401 16.5246 12.3083 16.9148C11.8802 17.3011 11.3689 17.608 10.7742 17.8352C10.1833 18.0587 9.51469 18.1705 8.76848 18.1705C7.7306 18.1705 6.80257 17.9356 5.98439 17.4659C5.16999 16.9962 4.52605 16.3163 4.05257 15.4261C3.58287 14.536 3.34802 13.4583 3.34802 12.1932C3.34802 10.9242 3.58666 9.8447 4.06393 8.95455C4.5412 8.06439 5.18893 7.38636 6.00711 6.92045C6.8253 6.45076 7.74575 6.21591 8.76848 6.21591C9.44272 6.21591 10.0677 6.31061 10.6435 6.5C11.223 6.68939 11.7363 6.96591 12.1833 7.32954C12.6302 7.68939 12.9939 8.13068 13.2742 8.65341C13.5583 9.17614 13.7401 9.77462 13.8196 10.4489Z" fill="#60A5FA"/>
<path d="M20.2315 9.28409V11.1023H14.8452V9.28409H20.2315ZM16.0781 18.0114V8.65341C16.0781 8.02083 16.2012 7.49621 16.4475 7.07954C16.6975 6.66288 17.0384 6.35038 17.4702 6.14204C17.902 5.93371 18.3925 5.82954 18.9418 5.82954C19.313 5.82954 19.652 5.85795 19.9588 5.91477C20.2694 5.97159 20.5005 6.02273 20.652 6.06818L20.2202 7.88636C20.1255 7.85606 20.0081 7.82765 19.8679 7.80114C19.7315 7.77462 19.5914 7.76136 19.4475 7.76136C19.0914 7.76136 18.8433 7.8447 18.7031 8.01136C18.563 8.17424 18.4929 8.40341 18.4929 8.69886V18.0114H16.0781Z" fill="#60A5FA"/>
</svg>
