<svg width="24" height="24" viewBox="0 0 24 24" fill="none" xmlns="http://www.w3.org/2000/svg">
<path fill="#f59e0b" fill-rule="evenodd" d="M5.912 5.879C5 6.757 5 8.172 5 11v3c0 2.828 0 4.243.912 5.121.91.879 2.377.879 5.31.879h1.556c2.933 0 4.4 0 5.31-.879C19 18.243 19 16.828 19 14v-3c0-2.828 0-4.243-.912-5.121C17.178 5 15.711 5 12.778 5H12v1.5h1.167c.366 0 .55 0 .664.11s.113.287.113.64 0 .53-.113.64c-.114.11-.299.11-.664.11H12v1.5h1.167c.366 0 .55 0 .664.11s.113.287.113.64 0 .53-.113.64c-.114.11-.299.11-.664.11h-.39c-.366 0-.55 0-.663-.11-.114-.11-.114-.288-.114-.64V9.5h-1.167c-.366 0-.55 0-.664-.11s-.113-.288-.113-.64 0-.53.113-.64c.114-.11.299-.11.664-.11H12V6.5h-1.167c-.366 0-.55 0-.664-.11s-.113-.287-.113-.64v-.748c-2.174.015-3.364.123-4.144.877m4.144 7.277v.094c0 .497.204.974.57 1.326.364.351.858.549 1.374.549s1.01-.197 1.375-.55c.365-.35.57-.828.57-1.325v-.094a.65.65 0 0 0-.2-.464.7.7 0 0 0-.481-.192h-2.528c-.18 0-.354.07-.481.192a.65.65 0 0 0-.2.464" clip-rule="evenodd"/>
</svg>
