<svg width="24" height="24" viewBox="0 0 24 24" fill="none" xmlns="http://www.w3.org/2000/svg">
<path d="M12.0029 3.05993C11.7359 3.1489 11.8717 3.05525 9.16035 5.05015C7.84915 6.0195 6.62692 6.91393 6.45365 7.04037C5.72313 7.55548 5.10967 8.26728 4.68821 9.09146C3.6252 11.18 3.9811 13.8118 5.55454 15.4929C5.68098 15.6334 6.10712 16.0221 6.49112 16.364C6.87979 16.7011 8.14417 17.8297 9.30084 18.8646C10.79 20.1945 11.4831 20.7846 11.6657 20.8736C11.8951 20.986 11.9794 21 12.3915 21C12.7708 21 12.902 20.9813 13.0705 20.9017C13.2719 20.808 19.1817 16.4202 19.4486 16.1673C19.6359 15.9893 19.8513 15.5491 19.8982 15.2401C19.9731 14.7671 19.856 14.2894 19.5657 13.8961C19.5142 13.8258 18.9803 13.3716 18.3762 12.8893C17.7768 12.4069 17.2851 11.9948 17.2851 11.9761C17.2851 11.9574 17.7768 11.564 18.3809 11.1004C19.5563 10.1966 19.7062 10.0374 19.8467 9.55507C19.9403 9.22258 19.9122 8.67001 19.7811 8.37498C19.7296 8.25323 19.6032 8.06592 19.5048 7.95821C19.2613 7.6866 13.5576 3.30344 13.2485 3.1489C12.9488 2.99437 12.3307 2.95222 12.0029 3.05993ZM15.5806 6.58145C17.1774 7.80367 18.5074 8.85732 18.5401 8.9182C18.6619 9.15702 18.5917 9.23195 17.346 10.1873L16.1566 11.1051L14.8594 10.0608C14.1476 9.48482 13.4545 8.95566 13.3234 8.88542C12.8551 8.62786 12.2651 8.61381 11.7874 8.84795C11.4924 8.99312 9.41323 10.604 9.23528 10.8288C8.95899 11.1753 8.88875 11.3954 8.88406 11.8918C8.87938 12.2758 8.89343 12.3695 9.00113 12.5942C9.06669 12.7347 9.17908 12.9221 9.24933 13.0017C9.42728 13.2124 11.5299 14.8233 11.8249 14.9731C12.0356 15.0855 12.1199 15.0996 12.5086 15.0996C12.8317 15.0996 13.0144 15.0762 13.1783 15.0106C13.3187 14.9591 13.9275 14.5236 14.747 13.8914C15.4869 13.3248 16.1144 12.8612 16.1425 12.8612C16.1706 12.8612 16.7185 13.2873 17.3647 13.8071C18.5542 14.7624 18.6432 14.8561 18.5682 15.0855C18.5542 15.137 17.2289 16.1626 15.5431 17.4223C12.2089 19.9136 12.3869 19.8059 12.0544 19.5108C11.956 19.4219 10.9914 18.5649 9.90961 17.6002C8.82787 16.6356 7.6712 15.6053 7.33403 15.315C6.39278 14.4955 6.01346 14.0085 5.71844 13.2358C5.5124 12.7113 5.43747 12.2852 5.43747 11.6764C5.43747 10.1685 6.07434 8.96503 7.35745 8.05187C7.60564 7.8786 8.83723 6.97481 10.0922 6.04292C11.9841 4.64742 12.4103 4.3524 12.532 4.3524C12.6585 4.3524 13.1408 4.70362 15.5806 6.58145ZM13.8151 10.9552C14.4567 11.4704 14.9952 11.9059 15.0093 11.9293C15.0327 11.9714 12.7896 13.7228 12.635 13.779C12.5929 13.7931 12.5039 13.7884 12.443 13.765C12.3353 13.7228 10.5839 12.4069 10.3451 12.1822C10.1906 12.0417 10.1719 11.8122 10.2983 11.667C10.3685 11.5874 12.0216 10.3043 12.3213 10.0983C12.3822 10.0561 12.4852 10.0187 12.5414 10.0187C12.6116 10.0187 13.0705 10.3558 13.8151 10.9552Z" fill="#A855F7"/>
</svg>
