<svg xmlns="http://www.w3.org/2000/svg" version="1.0" viewBox="0 0 342 390" fill="#7C3AED">
  <path d="M172.2 4.4c-5.7 1.9-2.8-.1-60.7 42.5-28 20.7-54.1 39.8-57.8 42.5-15.6 11-28.7 26.2-37.7 43.8C-6.7 177.8.9 234 34.5 269.9c2.7 3 11.8 11.3 20 18.6 8.3 7.2 35.3 31.3 60 53.4 31.8 28.4 46.6 41 50.5 42.9 4.9 2.4 6.7 2.7 15.5 2.7 8.1 0 10.9-.4 14.5-2.1 4.3-2 130.5-95.7 136.2-101.1 4-3.8 8.6-13.2 9.6-19.8 1.6-10.1-.9-20.3-7.1-28.7-1.1-1.5-12.5-11.2-25.4-21.5-12.8-10.3-23.3-19.1-23.3-19.5 0-.4 10.5-8.8 23.4-18.7 25.1-19.3 28.3-22.7 31.3-33 2-7.1 1.4-18.9-1.4-25.2-1.1-2.6-3.8-6.6-5.9-8.9-5.2-5.8-127-99.4-133.6-102.7-6.4-3.3-19.6-4.2-26.6-1.9zm76.4 75.2c34.1 26.1 62.5 48.6 63.2 49.9 2.6 5.1 1.1 6.7-25.5 27.1l-25.4 19.6-27.7-22.3c-15.2-12.3-30-23.6-32.8-25.1-10-5.5-22.6-5.8-32.8-.8-6.3 3.1-50.7 37.5-54.5 42.3-5.9 7.4-7.4 12.1-7.5 22.7-.1 8.2.2 10.2 2.5 15 1.4 3 3.8 7 5.3 8.7 3.8 4.5 48.7 38.9 55 42.1 4.5 2.4 6.3 2.7 14.6 2.7 6.9 0 10.8-.5 14.3-1.9 3-1.1 16-10.4 33.5-23.9 15.8-12.1 29.2-22 29.8-22 .6 0 12.3 9.1 26.1 20.2 25.4 20.4 27.3 22.4 25.7 27.3-.3 1.1-28.6 23-64.6 49.9-71.2 53.2-67.4 50.9-74.5 44.6-2.1-1.9-22.7-20.2-45.8-40.8-23.1-20.6-47.8-42.6-55-48.8-20.1-17.5-28.2-27.9-34.5-44.4-4.4-11.2-6-20.3-6-33.3 0-32.2 13.6-57.9 41-77.4 5.3-3.7 31.6-23 58.4-42.9C171.8 38.3 180.9 32 183.5 32c2.7 0 13 7.5 65.1 47.6zM210.9 173c13.7 11 25.2 20.3 25.5 20.8.5.9-47.4 38.3-50.7 39.5-.9.3-2.8.2-4.1-.3-2.3-.9-39.7-29-44.8-33.8-3.3-3-3.7-7.9-1-11 1.5-1.7 36.8-29.1 43.2-33.5 1.3-.9 3.5-1.7 4.7-1.7 1.5 0 11.3 7.2 27.2 20z"/>
</svg>
