<svg width="25" height="24" viewBox="0 0 25 24" fill="none" xmlns="http://www.w3.org/2000/svg">
<g clip-path="url(#clip0_20556_569)">
<path d="M16.5028 14.1847V10.1619H17.5199V14.1847H16.5028ZM15 12.6818V11.6648H19.0227V12.6818H15Z" fill="#60A5FA"/>
<path d="M21.9403 14.1847V10.1619H22.9574V14.1847H21.9403ZM20.4375 12.6818V11.6648H24.4602V12.6818H20.4375Z" fill="#60A5FA"/>
<path d="M15.5992 9.9375H13.1106C13.0651 9.61553 12.9723 9.32955 12.8322 9.07955C12.692 8.82576 12.5121 8.60985 12.2924 8.43182C12.0727 8.25379 11.8189 8.11742 11.531 8.02273C11.2469 7.92803 10.9382 7.88068 10.6049 7.88068C10.0026 7.88068 9.478 8.0303 9.03103 8.32955C8.58406 8.625 8.23747 9.05682 7.99126 9.625C7.74504 10.1894 7.62194 10.875 7.62194 11.6818C7.62194 12.5114 7.74504 13.2083 7.99126 13.7727C8.24126 14.3371 8.58974 14.7633 9.03671 15.0511C9.48368 15.339 10.0007 15.483 10.5878 15.483C10.9174 15.483 11.2223 15.4394 11.5026 15.3523C11.7867 15.2652 12.0386 15.1383 12.2583 14.9716C12.478 14.8011 12.6598 14.5947 12.8038 14.3523C12.9515 14.1098 13.0538 13.8333 13.1106 13.5227L15.5992 13.5341C15.5348 14.0682 15.3738 14.5833 15.1163 15.0795C14.8625 15.572 14.5197 16.0133 14.0878 16.4034C13.6598 16.7898 13.1485 17.0966 12.5538 17.3239C11.9628 17.5473 11.2943 17.6591 10.5481 17.6591C9.51019 17.6591 8.58216 17.4242 7.76398 16.9545C6.94959 16.4848 6.30565 15.8049 5.83216 14.9148C5.36247 14.0246 5.12762 12.947 5.12762 11.6818C5.12762 10.4129 5.36626 9.33333 5.84353 8.44318C6.3208 7.55303 6.96853 6.875 7.78671 6.40909C8.60489 5.93939 9.52535 5.70455 10.5481 5.70455C11.2223 5.70455 11.8473 5.79924 12.4231 5.98864C13.0026 6.17803 13.5159 6.45455 13.9628 6.81818C14.4098 7.17803 14.7735 7.61932 15.0538 8.14205C15.3378 8.66477 15.5197 9.26326 15.5992 9.9375Z" fill="#60A5FA"/>
</g>
<defs>
<clipPath id="clip0_20556_569">
<rect width="24" height="24" fill="white" transform="translate(0.336426)"/>
</clipPath>
</defs>
</svg>
