<svg width="25" height="24" viewBox="0 0 25 24" fill="none" xmlns="http://www.w3.org/2000/svg">
<g clip-path="url(#clip0_20556_569)">
<path d="M16.6326 14.185V9.81494H17.7375V14.185H16.6326ZM15 12.5524V11.4475H19.3701V12.5524H15Z" fill="#60A5FA"/>
<path d="M21.599 14.185V9.81494H22.7038V14.185H21.599ZM19.9663 12.5524V11.4475H24.3364V12.5524H19.9663Z" fill="#60A5FA"/>
<path d="M14.5992 9.9375H12.1106C12.0651 9.61553 11.9723 9.32955 11.8322 9.07955C11.692 8.82576 11.5121 8.60985 11.2924 8.43182C11.0727 8.25379 10.8189 8.11742 10.531 8.02273C10.2469 7.92803 9.93823 7.88068 9.60489 7.88068C9.00262 7.88068 8.478 8.0303 8.03103 8.32955C7.58406 8.625 7.23747 9.05682 6.99126 9.625C6.74504 10.1894 6.62194 10.875 6.62194 11.6818C6.62194 12.5114 6.74504 13.2083 6.99126 13.7727C7.24126 14.3371 7.58974 14.7633 8.03671 15.0511C8.48368 15.339 9.00073 15.483 9.58785 15.483C9.91739 15.483 10.2223 15.4394 10.5026 15.3523C10.7867 15.2652 11.0386 15.1383 11.2583 14.9716C11.478 14.8011 11.6598 14.5947 11.8038 14.3523C11.9515 14.1098 12.0538 13.8333 12.1106 13.5227L14.5992 13.5341C14.5348 14.0682 14.3738 14.5833 14.1163 15.0795C13.8625 15.572 13.5197 16.0133 13.0878 16.4034C12.6598 16.7898 12.1485 17.0966 11.5538 17.3239C10.9628 17.5473 10.2943 17.6591 9.54807 17.6591C8.51019 17.6591 7.58216 17.4242 6.76398 16.9545C5.94959 16.4848 5.30565 15.8049 4.83216 14.9148C4.36247 14.0246 4.12762 12.947 4.12762 11.6818C4.12762 10.4129 4.36626 9.33333 4.84353 8.44318C5.3208 7.55303 5.96853 6.875 6.78671 6.40909C7.60489 5.93939 8.52535 5.70455 9.54807 5.70455C10.2223 5.70455 10.8473 5.79924 11.4231 5.98864C12.0026 6.17803 12.5159 6.45455 12.9628 6.81818C13.4098 7.17803 13.7735 7.61932 14.0538 8.14205C14.3378 8.66477 14.5197 9.26326 14.5992 9.9375Z" fill="#60A5FA"/>
</g>
<defs>
<clipPath id="clip0_20556_569">
<rect width="24" height="24" fill="white" transform="translate(0.336426)"/>
</clipPath>
</defs>
</svg>
