<svg width="24" height="24" viewBox="0 0 24 24" fill="none" xmlns="http://www.w3.org/2000/svg">
<path d="M15.2628 9.9375H12.7741C12.7287 9.61553 12.6359 9.32955 12.4957 9.07955C12.3556 8.82576 12.1757 8.60985 11.956 8.43182C11.7363 8.25379 11.4825 8.11742 11.1946 8.02273C10.9105 7.92803 10.6018 7.88068 10.2685 7.88068C9.66619 7.88068 9.14157 8.0303 8.6946 8.32955C8.24763 8.625 7.90104 9.05682 7.65483 9.625C7.40862 10.1894 7.28551 10.875 7.28551 11.6818C7.28551 12.5114 7.40862 13.2083 7.65483 13.7727C7.90483 14.3371 8.25331 14.7633 8.70028 15.0511C9.14725 15.339 9.6643 15.483 10.2514 15.483C10.581 15.483 10.8859 15.4394 11.1662 15.3523C11.4503 15.2652 11.7022 15.1383 11.9219 14.9716C12.1416 14.8011 12.3234 14.5947 12.4673 14.3523C12.6151 14.1098 12.7173 13.8333 12.7741 13.5227L15.2628 13.5341C15.1984 14.0682 15.0374 14.5833 14.7798 15.0795C14.526 15.572 14.1832 16.0133 13.7514 16.4034C13.3234 16.7898 12.812 17.0966 12.2173 17.3239C11.6264 17.5473 10.9579 17.6591 10.2116 17.6591C9.17377 17.6591 8.24574 17.4242 7.42756 16.9545C6.61316 16.4848 5.96922 15.8049 5.49574 14.9148C5.02604 14.0246 4.79119 12.947 4.79119 11.6818C4.79119 10.4129 5.02983 9.33333 5.5071 8.44318C5.98438 7.55303 6.6321 6.875 7.45028 6.40909C8.26847 5.93939 9.18892 5.70455 10.2116 5.70455C10.8859 5.70455 11.5109 5.79924 12.0866 5.98864C12.6662 6.17803 13.1795 6.45455 13.6264 6.81818C14.0734 7.17803 14.437 7.61932 14.7173 8.14205C15.0014 8.66477 15.1832 9.26326 15.2628 9.9375Z" fill="#14B8A6"/>
<path d="M20.2726 16.4693L21.7391 7.53064H23.1358L21.6693 16.4693H20.2726ZM16.2703 14.2521L16.5016 12.8555H23.485L23.2537 14.2521H16.2703ZM17.1301 16.4693L18.5966 7.53064H19.9933L18.5268 16.4693H17.1301ZM16.781 11.1445L17.0166 9.74786H24L23.7643 11.1445H16.781Z" fill="#14B8A6"/>
</svg>
