<svg width="24" height="24" viewBox="0 0 24 24" fill="none" xmlns="http://www.w3.org/2000/svg">
<mask id="path-1-outside-1_20542_560" maskUnits="userSpaceOnUse" x="3" y="3" width="18" height="18" fill="black">
<rect fill="white" x="3" y="3" width="18" height="18"/>
<path fill-rule="evenodd" clip-rule="evenodd" d="M15.8889 5H8.11111C6.39289 5 5 6.39289 5 8.11111V15.8889C5 17.6071 6.39289 19 8.11111 19H15.8889C17.6071 19 19 17.6071 19 15.8889V8.11111C19 6.39289 17.6071 5 15.8889 5ZM15.8889 17.4444L8.1111 17.4444C8.05741 17.4444 8.00436 17.4417 7.95206 17.4364C8.00436 17.4417 8.05742 17.4444 8.11111 17.4444H15.8889ZM17.4444 15.8889C17.4444 16.6943 16.8323 17.3568 16.0479 17.4364C16.8323 17.3567 17.4444 16.6943 17.4444 15.8889V8.11111C17.4444 8.11111 17.4444 8.11111 17.4444 8.11111V15.8889Z"/>
</mask>
<path d="M15.8889 19.4444C16.9935 19.4444 17.8889 18.549 17.8889 17.4444C17.8889 16.3399 16.9935 15.4444 15.8889 15.4444V19.4444ZM8.1111 17.4444L8.11111 15.4444H8.1111V17.4444ZM7.95206 17.4364L8.15412 15.4466C7.05521 15.3351 6.0739 16.1354 5.9623 17.2343C5.8507 18.3333 6.65107 19.3146 7.74998 19.4262L7.95206 17.4364ZM16.0479 17.4364L15.8458 15.4467C14.7469 15.5583 13.9466 16.5396 14.0582 17.6385C14.1698 18.7374 15.1511 19.5378 16.25 19.4262L16.0479 17.4364ZM19.4444 8.11111C19.4444 7.00654 18.549 6.11111 17.4444 6.11111C16.3399 6.11111 15.4444 7.00654 15.4444 8.11111H19.4444ZM8.11111 7H15.8889V3H8.11111V7ZM7 8.11111C7 7.49746 7.49746 7 8.11111 7V3C5.28832 3 3 5.28832 3 8.11111H7ZM7 15.8889V8.11111H3V15.8889H7ZM8.11111 17C7.49746 17 7 16.5025 7 15.8889H3C3 18.7117 5.28832 21 8.11111 21V17ZM15.8889 17H8.11111V21H15.8889V17ZM17 15.8889C17 16.5025 16.5025 17 15.8889 17V21C18.7117 21 21 18.7117 21 15.8889H17ZM17 8.11111V15.8889H21V8.11111H17ZM15.8889 7C16.5025 7 17 7.49746 17 8.11111H21C21 5.28832 18.7117 3 15.8889 3V7ZM15.8889 15.4444L8.11111 15.4444L8.1111 19.4444L15.8889 19.4444L15.8889 15.4444ZM8.1111 15.4444C8.12488 15.4444 8.13926 15.4451 8.15412 15.4466L7.75001 19.4262C7.86945 19.4383 7.98995 19.4444 8.1111 19.4444V15.4444ZM7.74998 19.4262C7.86933 19.4383 7.98983 19.4444 8.11111 19.4444V15.4444C8.125 15.4444 8.13939 15.4452 8.15415 15.4466L7.74998 19.4262ZM8.11111 19.4444H15.8889V15.4444H8.11111V19.4444ZM16.25 19.4262C18.0451 19.2439 19.4444 17.7311 19.4444 15.8889H15.4444C15.4444 15.6575 15.6196 15.4696 15.8459 15.4466L16.25 19.4262ZM15.4444 15.8889C15.4444 15.6575 15.6196 15.4696 15.8458 15.4467L16.25 19.4262C18.045 19.2439 19.4444 17.7311 19.4444 15.8889H15.4444ZM15.4444 8.11111V15.8889H19.4444V8.11111H15.4444ZM19.4444 8.11111C19.4444 8.03956 19.4406 7.96515 19.432 7.88844C19.4234 7.81166 19.4102 7.73366 19.3917 7.65501C19.3733 7.57632 19.3501 7.4985 19.322 7.42201C19.2939 7.34553 19.2616 7.27196 19.2257 7.20156C19.1897 7.1312 19.1508 7.06527 19.1099 7.00376C19.0691 6.94231 19.0267 6.88601 18.9841 6.83464C18.8991 6.73213 18.8137 6.64986 18.7373 6.58514C18.699 6.55269 18.6624 6.52414 18.6284 6.4992C18.5944 6.47426 18.5625 6.45248 18.5335 6.43364C18.5045 6.41481 18.4777 6.39846 18.4538 6.3845C18.4299 6.37054 18.4082 6.35852 18.3894 6.34844C18.3706 6.33836 18.3539 6.3298 18.3401 6.32286C18.3262 6.31592 18.3144 6.31018 18.3053 6.30585C18.2963 6.30156 18.289 6.29816 18.2846 6.29614C18.2824 6.2951 18.2806 6.29427 18.2795 6.29376C18.2789 6.29351 18.2785 6.2933 18.2782 6.29317C18.278 6.29311 18.2779 6.29306 18.2779 6.29303C18.2778 6.29302 18.2778 6.293 18.2778 6.29299C18.2778 6.29298 18.2778 6.29298 18.2778 6.29298C18.2772 6.29271 18.2806 6.29429 18.2846 6.29614C18.289 6.29816 18.2963 6.30155 18.3053 6.30585C18.3144 6.31018 18.3262 6.31592 18.3401 6.32286C18.3539 6.3298 18.3706 6.33836 18.3894 6.34844C18.4082 6.35852 18.4299 6.37054 18.4538 6.3845C18.4777 6.39846 18.5045 6.41481 18.5335 6.43364C18.5625 6.45247 18.5944 6.47426 18.6284 6.4992C18.6623 6.52414 18.699 6.55269 18.7373 6.58514C18.8137 6.64986 18.8991 6.73212 18.9841 6.83463C19.0267 6.88601 19.0691 6.94231 19.1099 7.00376C19.1508 7.06527 19.1897 7.1312 19.2256 7.20155C19.2616 7.27196 19.2939 7.34552 19.322 7.42201C19.35 7.49849 19.3733 7.57632 19.3917 7.655C19.4102 7.73365 19.4234 7.81165 19.432 7.88844C19.4406 7.96515 19.4444 8.03956 19.4444 8.11111H15.4444C15.4444 8.18265 15.4483 8.25706 15.4569 8.33378C15.4655 8.41056 15.4787 8.48856 15.4971 8.56721C15.5156 8.64589 15.5388 8.72372 15.5669 8.80021C15.595 8.87669 15.6273 8.95026 15.6632 9.02066C15.6992 9.09102 15.7381 9.15695 15.779 9.21846C15.8198 9.2799 15.8622 9.33621 15.9048 9.38758C15.9897 9.49009 16.0752 9.57236 16.1516 9.63708C16.1899 9.66952 16.2265 9.69808 16.2605 9.72302C16.2944 9.74795 16.3263 9.76974 16.3554 9.78858C16.3844 9.80741 16.4112 9.82375 16.4351 9.83772C16.459 9.85168 16.4807 9.8637 16.4995 9.87378C16.5183 9.88385 16.5349 9.89242 16.5488 9.89936C16.5627 9.90629 16.5745 9.91204 16.5836 9.91637C16.5926 9.92066 16.5999 9.92406 16.6043 9.92608C16.6065 9.92712 16.6083 9.92795 16.6094 9.92845C16.61 9.92871 16.6104 9.92892 16.6107 9.92904C16.6108 9.92911 16.611 9.92916 16.611 9.92919C16.6111 9.9292 16.6111 9.92922 16.6111 9.92923C16.6111 9.92923 16.6111 9.92924 16.6111 9.92924C16.6117 9.9295 16.6083 9.92793 16.6043 9.92608C16.5999 9.92406 16.5926 9.92066 16.5836 9.91637C16.5745 9.91204 16.5627 9.90629 16.5488 9.89936C16.5349 9.89242 16.5183 9.88385 16.4995 9.87378C16.4807 9.8637 16.459 9.85168 16.4351 9.83772C16.4112 9.82376 16.3844 9.80741 16.3554 9.78858C16.3264 9.76974 16.2944 9.74796 16.2605 9.72302C16.2265 9.69808 16.1899 9.66952 16.1516 9.63708C16.0752 9.57236 15.9897 9.49009 15.9048 9.38758C15.8622 9.33621 15.8198 9.27991 15.779 9.21846C15.7381 9.15695 15.6992 9.09102 15.6632 9.02066C15.6273 8.95026 15.595 8.87669 15.5669 8.80021C15.5388 8.72372 15.5156 8.6459 15.4971 8.56721C15.4787 8.48856 15.4655 8.41056 15.4569 8.33378C15.4483 8.25707 15.4444 8.18266 15.4444 8.11111H19.4444ZM19.4444 15.8889V8.11111H15.4444V15.8889H19.4444Z" fill="#14B8A6" mask="url(#path-1-outside-1_20542_560)"/>
<rect x="7" y="7" width="4" height="2" rx="1" fill="#14B8A6"/>
<rect x="7" y="11" width="4" height="2" rx="1" fill="#14B8A6"/>
<rect x="7" y="15" width="4" height="2" rx="1" fill="#14B8A6"/>
<rect x="13" y="7" width="4" height="2" rx="1" fill="#14B8A6"/>
<rect x="13" y="11" width="4" height="2" rx="1" fill="#14B8A6"/>
<rect x="13" y="15" width="4" height="2" rx="1" fill="#14B8A6"/>
</svg>
