<svg xmlns="http://www.w3.org/2000/svg" width="24" height="24" viewBox="0 0 24 24"><g transform="translate(-423 -478)"><rect width="24" height="24" transform="translate(423 478)" fill="none"/><path d="M12,2.088A8.081,8.081,0,0,0,10.461,18.1v2.315c4.838-.73,9.122-4.57,9.442-9.613A8.371,8.371,0,0,0,16.03,3.168,6.724,6.724,0,0,0,15.1,2.7l-.155-.062c-.142-.053-.285-.111-.432-.155A8.021,8.021,0,0,0,12,2.088ZM13.67,5.081a.882.882,0,0,0-.771.308,3.545,3.545,0,0,0-.34.586,1.9,1.9,0,0,0,.247,1.975A2.171,2.171,0,0,0,14.379,6.67a1.558,1.558,0,0,0,.155-.649.924.924,0,0,0-.864-.941Zm-3.6.046a.942.942,0,0,0-.879.895,1.552,1.552,0,0,0,.155.648,2.245,2.245,0,0,0,1.619,1.281,2.048,2.048,0,0,0-.139-2.516.867.867,0,0,0-.755-.308ZM7.652,7.5A.85.85,0,0,0,7.174,9.03a3.694,3.694,0,0,0,.586.355,2.222,2.222,0,0,0,2.083-.2A2.282,2.282,0,0,0,8.5,7.657,1.768,1.768,0,0,0,7.807,7.5.9.9,0,0,0,7.652,7.5ZM15.258,10.5a2.258,2.258,0,0,0-1.28.371,2.282,2.282,0,0,0,1.342,1.527,1.776,1.776,0,0,0,.7.155A.868.868,0,0,0,16.647,11a3.544,3.544,0,0,0-.586-.34,2.133,2.133,0,0,0-.8-.17Zm-6.742.046a2.147,2.147,0,0,0-.8.17,1.683,1.683,0,0,0-.587.355.875.875,0,0,0,.679,1.527A1.6,1.6,0,0,0,8.5,12.44a2.082,2.082,0,0,0,1.281-1.527,2.209,2.209,0,0,0-1.265-.371Zm2.5,1.512a2.172,2.172,0,0,0-1.574,1.281,1.491,1.491,0,0,0-.155.632.919.919,0,0,0,1.59.649,3.6,3.6,0,0,0,.34-.587,2.024,2.024,0,0,0-.2-1.974Zm1.836.046a2.049,2.049,0,0,0,.139,2.515.964.964,0,0,0,1.635-.587,1.562,1.562,0,0,0-.155-.648,2.243,2.243,0,0,0-1.62-1.28Z" transform="translate(423.081 478.912)" fill="#23d96c" fill-rule="evenodd"/></g></svg>