<svg width="24" height="24" viewBox="0 0 24 24" fill="none" xmlns="http://www.w3.org/2000/svg">
<g clip-path="url(#clip0_31521_339)">
<path d="M13.152 10.3636H13.9208V12.7251C13.9208 12.9903 13.8575 13.2223 13.7308 13.4212C13.6054 13.62 13.4296 13.7751 13.2035 13.8864C12.9774 13.9964 12.714 14.0515 12.4134 14.0515C12.1115 14.0515 11.8475 13.9964 11.6214 13.8864C11.3954 13.7751 11.2196 13.62 11.0941 13.4212C10.9686 13.2223 10.9059 12.9903 10.9059 12.7251V10.3636H11.6747V12.6594C11.6747 12.7979 11.7049 12.921 11.7653 13.0288C11.8268 13.1365 11.9132 13.2211 12.0245 13.2827C12.1358 13.3442 12.2654 13.375 12.4134 13.375C12.5625 13.375 12.6921 13.3442 12.8022 13.2827C12.9135 13.2211 12.9993 13.1365 13.0597 13.0288C13.1212 12.921 13.152 12.7979 13.152 12.6594V10.3636ZM15.8424 14H14.5534V10.3636H15.8531C16.2188 10.3636 16.5337 10.4364 16.7977 10.582C17.0616 10.7264 17.2646 10.9342 17.4067 11.2053C17.5499 11.4763 17.6215 11.8007 17.6215 12.1783C17.6215 12.5571 17.5499 12.8826 17.4067 13.1548C17.2646 13.4271 17.0605 13.636 16.7941 13.7816C16.529 13.9272 16.2117 14 15.8424 14ZM15.3222 13.3413H15.8105C16.0377 13.3413 16.2289 13.301 16.384 13.2205C16.5402 13.1388 16.6574 13.0128 16.7355 12.8423C16.8148 12.6707 16.8545 12.4493 16.8545 12.1783C16.8545 11.9096 16.8148 11.69 16.7355 11.5195C16.6574 11.3491 16.5408 11.2236 16.3857 11.1431C16.2307 11.0626 16.0395 11.0224 15.8122 11.0224H15.3222V13.3413ZM18.6127 14H17.7889L19.0442 10.3636H20.035L21.2885 14H20.4647L19.5538 11.1946H19.5254L18.6127 14ZM18.5613 12.5707H20.5073V13.1708H18.5613V12.5707Z" fill="#22C55E"/>
<mask id="mask0_31521_339" style="mask-type:alpha" maskUnits="userSpaceOnUse" x="0" y="0" width="24" height="24">
<path fill-rule="evenodd" clip-rule="evenodd" d="M24 0H0V24H24V0ZM14.6569 7.00001L9 12.6569L14.6569 18.3137L20.3137 12.6569L14.6569 7.00001Z" fill="#E22121"/>
</mask>
<g mask="url(#mask0_31521_339)">
<path d="M15.492 10.4375H13.0033C12.9579 10.1155 12.8651 9.82955 12.7249 9.57955C12.5848 9.32576 12.4048 9.10985 12.1851 8.93182C11.9654 8.75379 11.7116 8.61742 11.4238 8.52273C11.1397 8.42803 10.831 8.38068 10.4976 8.38068C9.89536 8.38068 9.37074 8.5303 8.92377 8.82955C8.4768 9.125 8.13021 9.55682 7.884 10.125C7.63778 10.6894 7.51468 11.375 7.51468 12.1818C7.51468 13.0114 7.63778 13.7083 7.884 14.2727C8.134 14.8371 8.48248 15.2633 8.92945 15.5511C9.37642 15.839 9.89347 15.983 10.4806 15.983C10.8101 15.983 11.1151 15.9394 11.3954 15.8523C11.6795 15.7652 11.9313 15.6383 12.151 15.4716C12.3707 15.3011 12.5526 15.0947 12.6965 14.8523C12.8442 14.6098 12.9465 14.3333 13.0033 14.0227L15.492 14.0341C15.4276 14.5682 15.2666 15.0833 15.009 15.5795C14.7552 16.072 14.4124 16.5133 13.9806 16.9034C13.5526 17.2898 13.0412 17.5966 12.4465 17.8239C11.8556 18.0473 11.187 18.1591 10.4408 18.1591C9.40294 18.1591 8.47491 17.9242 7.65672 17.4545C6.84233 16.9848 6.19839 16.3049 5.72491 15.4148C5.25521 14.5246 5.02036 13.447 5.02036 12.1818C5.02036 10.9129 5.259 9.83333 5.73627 8.94318C6.21354 8.05303 6.86127 7.375 7.67945 6.90909C8.49763 6.43939 9.41809 6.20455 10.4408 6.20455C11.1151 6.20455 11.7401 6.29924 12.3158 6.48864C12.8954 6.67803 13.4086 6.95455 13.8556 7.31818C14.3026 7.67803 14.6662 8.11932 14.9465 8.64205C15.2306 9.16477 15.4124 9.76326 15.492 10.4375Z" fill="#22C55E"/>
</g>
</g>
<defs>
<clipPath id="clip0_31521_339">
<rect width="24" height="24" fill="white"/>
</clipPath>
</defs>
</svg>
