<svg width="24" height="24" viewBox="0 0 24 24" fill="none" xmlns="http://www.w3.org/2000/svg">
<path d="M9.71108 9.55097V8.47773C9.81708 8.47111 9.92308 8.46448 10.0291 8.46448C12.9706 8.37173 14.8984 10.9952 14.8984 10.9952C14.8984 10.9952 12.8182 13.8837 10.5856 13.8837C10.2874 13.8837 9.99595 13.8373 9.7177 13.7446V10.4851C10.8638 10.6242 11.0957 11.1277 11.7781 12.2738L13.3084 10.9886C13.3084 10.9886 12.1888 9.52448 10.3073 9.52448C10.1086 9.51785 9.90983 9.5311 9.71108 9.55097ZM9.71108 6V7.60324L10.0291 7.58336C14.1167 7.44424 16.7865 10.9356 16.7865 10.9356C16.7865 10.9356 13.7258 14.6588 10.5392 14.6588C10.2609 14.6588 9.98933 14.6323 9.7177 14.5859V15.5797C9.94295 15.6062 10.1748 15.6261 10.4001 15.6261C13.3681 15.6261 15.5145 14.1089 17.5948 12.3202C17.9393 12.5985 19.3504 13.2676 19.6419 13.5591C17.6676 15.2153 13.0633 16.5469 10.4531 16.5469C10.2013 16.5469 9.96283 16.5337 9.72433 16.5072V17.905H21V6L9.71108 6ZM9.71108 13.7446V14.5926C6.96835 14.1023 6.20648 11.247 6.20648 11.247C6.20648 11.247 7.52484 9.78947 9.71108 9.55097V10.4785H9.70445C8.55834 10.3393 7.65734 11.4126 7.65734 11.4126C7.65734 11.4126 8.16746 13.2212 9.71108 13.7446ZM4.84174 11.1277C4.84174 11.1277 6.46485 8.72948 9.7177 8.47773V7.60324C6.11373 7.89474 3 10.9422 3 10.9422C3 10.9422 4.76224 16.0434 9.71108 16.5072V15.5797C6.0806 15.1292 4.84174 11.1277 4.84174 11.1277Z" fill="#22C55E"/>
</svg>
