<svg width="24" height="24" viewBox="0 0 24 24" fill="none" xmlns="http://www.w3.org/2000/svg">
<path d="M11.4651 10.4737H9.28758C9.2478 10.192 9.1666 9.94177 9.04397 9.72302C8.92134 9.50096 8.7639 9.31204 8.57167 9.15626C8.37943 9.00048 8.15737 8.88117 7.90547 8.79831C7.65689 8.71545 7.38677 8.67402 7.0951 8.67402C6.56812 8.67402 6.10907 8.80494 5.71797 9.06677C5.32687 9.3253 5.02361 9.70314 4.80817 10.2003C4.59274 10.6941 4.48502 11.294 4.48502 12C4.48502 12.7259 4.59274 13.3357 4.80817 13.8296C5.02692 14.3234 5.33185 14.6963 5.72294 14.9482C6.11404 15.2001 6.56646 15.326 7.08019 15.326C7.36854 15.326 7.63535 15.2879 7.88062 15.2117C8.12919 15.1354 8.3496 15.0244 8.54184 14.8786C8.73407 14.7294 8.89316 14.5488 9.01911 14.3367C9.14837 14.1245 9.23786 13.8826 9.28758 13.6108L11.4651 13.6207C11.4088 14.0881 11.2679 14.5388 11.0425 14.973C10.8205 15.4039 10.5205 15.79 10.1427 16.1314C9.76816 16.4695 9.32072 16.7379 8.80036 16.9368C8.28331 17.1324 7.69832 17.2301 7.04539 17.2301C6.13724 17.2301 5.32522 17.0246 4.60931 16.6136C3.89671 16.2027 3.33327 15.6077 2.91897 14.8288C2.50798 14.05 2.30249 13.107 2.30249 12C2.30249 10.8897 2.5113 9.94509 2.92891 9.1662C3.34652 8.38732 3.91329 7.79405 4.62919 7.38637C5.3451 6.97539 6.1505 6.7699 7.04539 6.7699C7.63535 6.7699 8.18223 6.85276 8.68601 7.01848C9.19312 7.1842 9.64222 7.42615 10.0333 7.74433C10.4244 8.0592 10.7426 8.44532 10.9879 8.90271C11.2364 9.3601 11.3955 9.88377 11.4651 10.4737Z" fill="#2DD4BF"/>
<path d="M12.1322 6.9091H14.5434L16.8652 11.294H16.9646L19.2863 6.9091H21.6976L17.9838 13.4915V17.0909H15.846V13.4915L12.1322 6.9091Z" fill="#2DD4BF"/>
</svg>
