<svg width="25" height="24" viewBox="0 0 25 24" fill="none" xmlns="http://www.w3.org/2000/svg">
<path fill-rule="evenodd" clip-rule="evenodd" d="M14.4683 3.59153L17.5477 6.67093L6.41714 6.0794L12.1009 3.23688C12.3589 3.08205 12.7586 3 13.1662 3C13.6399 3 14.1997 3.32157 14.4683 3.59153ZM6.41583 15.6709C6.41583 16.6211 6.53493 16.854 7.00736 17.3291L7.48111 17.8028L7.48112 17.8028L10.6783 21H18.1392L18.1393 17.8028L18.1392 17.8028L12.9293 11.8822L6.41583 6.07941V15.6709Z" fill="#38BDF8"/>
<path fill-rule="evenodd" clip-rule="evenodd" d="M6.41583 6.07812H15.8896C16.542 6.07812 17.0144 6.13635 17.5464 6.66966L21.3364 10.4597V17.8015H18.1393L6.41583 6.07812ZM3.92796 14.2497L7.00736 17.3291L6.41583 6.07941L3.5733 12C3.47141 12.2144 3.33643 12.5889 3.33643 12.8284C3.33643 13.3458 3.56272 13.8752 3.92796 14.2497Z" fill="#075985"/>
</svg>
