<svg width="24" height="24" viewBox="0 0 24 24" fill="none" xmlns="http://www.w3.org/2000/svg">
<path d="M6.48442 7.26993L6.56965 7.18952C6.80564 7.43965 7.1845 7.7012 7.71338 7.93828C8.7693 8.41162 10.2842 8.725 12 8.725C13.7158 8.725 15.2307 8.41162 16.2866 7.93828C16.8155 7.70119 17.1944 7.43965 17.4304 7.18952C17.6621 6.9439 17.725 6.74618 17.725 6.6C17.725 6.45382 17.6621 6.2561 17.4304 6.01048M6.48442 7.26993L17.4304 6.01048M6.48442 7.26993L6.56965 7.18952C6.33788 6.94389 6.275 6.74617 6.275 6.6C6.275 6.45383 6.33788 6.25611 6.56965 6.01048L6.56965 6.01048C6.80564 5.76035 7.1845 5.49879 7.71338 5.26172C8.7693 4.78838 10.2842 4.475 12 4.475C13.7158 4.475 15.2307 4.78838 16.2866 5.26172C16.8155 5.4988 17.1944 5.76035 17.4304 6.01048M6.48442 7.26993L17.5213 5.92469L17.4304 6.01048M7.05888 3.8017L7.11001 3.91577L7.05888 3.8017C6.40697 4.09395 5.83026 4.46267 5.40589 4.91244C4.9776 5.36635 4.675 5.9381 4.675 6.6V17.4C4.675 18.0619 4.9776 18.6337 5.40589 19.0876C5.83026 19.5374 6.40697 19.9061 7.05888 20.1983C8.36456 20.7836 10.1122 21.125 12 21.125C13.8878 21.125 15.6354 20.7836 16.9411 20.1983C17.593 19.9061 18.1697 19.5374 18.5941 19.0876L18.5061 19.0045L18.5941 19.0876C19.0224 18.6337 19.325 18.0619 19.325 17.4V6.6C19.325 5.9381 19.0224 5.36636 18.5941 4.91244L18.5941 4.91244C18.1697 4.46267 17.593 4.09395 16.9411 3.8017C15.6354 3.2164 13.8878 2.875 12 2.875C10.1122 2.875 8.36456 3.2164 7.05888 3.8017ZM6.275 8.98429C6.51856 9.13616 6.78176 9.27407 7.05888 9.3983C8.36456 9.9836 10.1122 10.325 12 10.325C13.8878 10.325 15.6354 9.9836 16.9411 9.3983C17.2183 9.27407 17.4815 9.13617 17.725 8.9843V17.4C17.725 17.5462 17.6621 17.7439 17.4304 17.9895L17.4304 17.9895C17.1944 18.2397 16.8155 18.5012 16.2866 18.7383L16.3377 18.8523L16.2866 18.7383C15.2307 19.2116 13.7158 19.525 12 19.525C10.2842 19.525 8.7693 19.2117 7.71338 18.7383L7.6648 18.8466L7.71338 18.7383C7.1845 18.5012 6.80565 18.2397 6.56965 17.9895L6.56964 17.9895C6.33788 17.7439 6.275 17.5462 6.275 17.4V8.98429Z" fill="#F472B6" stroke="#F472B6" stroke-width="0.25"/>
</svg>
