<svg width="24" height="24" viewBox="0 0 24 24" fill="none" xmlns="http://www.w3.org/2000/svg">
<path fill-rule="evenodd" clip-rule="evenodd" d="M3.75022 15.8163C3.21259 14.6562 2.91254 13.3639 2.91254 12.0021C2.91254 11.6497 2.93266 11.3019 2.97175 10.9599C3.01144 10.6143 3.07029 10.2751 3.14708 9.94337C3.57859 8.08254 4.58221 6.4399 5.96231 5.21119C7.12151 4.18053 8.54155 3.44515 10.0983 3.11182C10.7126 2.98061 11.3498 2.91158 12.0031 2.91158C12.2321 2.91182 12.4627 2.92061 12.6947 2.93831C13.7949 3.0223 14.8346 3.29927 15.783 3.73351C16.5482 4.08417 17.2563 4.53798 17.8898 5.07707C19.4809 6.43244 20.5905 8.32048 20.9595 10.4392C21.0477 10.947 21.0936 11.4692 21.0936 12.0021C21.0934 12.2315 21.0846 12.4624 21.0668 12.6948C20.9998 13.5729 20.8098 14.4125 20.5151 15.1979C20.1037 16.2919 19.4873 17.2859 18.7128 18.1329C17.7055 19.1614 16.4254 19.6191 15.3563 19.6001C14.5788 19.5862 13.8182 19.2769 13.2925 18.8243C12.5416 18.1777 12.2384 17.4385 12.1344 16.6138C12.1085 16.4087 12.1237 15.8501 12.2304 15.4632C12.3099 15.1749 12.5116 14.618 12.8066 14.3745C12.4616 14.2259 12.0174 13.9022 11.8774 13.7469C11.843 13.7087 11.8475 13.6489 11.8783 13.6077C11.9091 13.5667 11.9631 13.5504 12.0116 13.5678C12.3082 13.6696 12.6695 13.77 13.0505 13.8338C13.5515 13.9176 14.1746 14.023 14.8058 14.054C16.3448 14.1296 17.9525 13.4388 18.4514 12.0644C18.9503 10.6899 18.7568 9.3304 16.9668 8.51496C15.1769 7.69946 14.35 6.72983 12.9038 6.14505C11.9591 5.76306 10.9078 5.98984 9.82832 6.58638C6.92085 8.19315 4.31597 13.2699 5.51674 17.9733C5.5339 18.0377 5.50493 18.1054 5.44656 18.1375C5.39184 18.1675 5.32457 18.159 5.27923 18.1174C4.92978 17.7334 4.6127 17.3195 4.3324 16.8798C4.11555 16.5396 3.92089 16.1844 3.75022 15.8163Z" fill="#64748B"/>
<path fill-rule="evenodd" clip-rule="evenodd" d="M11.6777 6.77614C12.1682 6.73771 12.596 7.15625 12.6698 7.71291C12.7682 8.45442 12.496 9.22041 11.6011 9.23804C10.8367 9.25332 10.605 8.48236 10.6557 8.01533C10.706 7.54831 11.091 6.8222 11.6777 6.77614Z" fill="#64748B"/>
</svg>
