<?xml version="1.0" encoding="UTF-8" standalone="no"?>
<svg
   width="24"
   height="24"
   viewBox="0 0 24 24"
   fill="none"
   version="1.1"
   id="svg10"
   sodipodi:docname="docker-red.svg"
   inkscape:version="1.4.2 (ebf0e940, 2025-05-08)"
   xmlns:inkscape="http://www.inkscape.org/namespaces/inkscape"
   xmlns:sodipodi="http://sodipodi.sourceforge.net/DTD/sodipodi-0.dtd"
   xmlns="http://www.w3.org/2000/svg"
   xmlns:svg="http://www.w3.org/2000/svg">
  <defs
     id="defs10" />
  <sodipodi:namedview
     id="namedview10"
     pagecolor="#505050"
     bordercolor="#eeeeee"
     borderopacity="1"
     inkscape:showpageshadow="0"
     inkscape:pageopacity="0"
     inkscape:pagecheckerboard="0"
     inkscape:deskcolor="#505050"
     inkscape:zoom="14.809716"
     inkscape:cx="11.715282"
     inkscape:cy="12.964462"
     inkscape:window-width="1152"
     inkscape:window-height="1237"
     inkscape:window-x="1709"
     inkscape:window-y="31"
     inkscape:window-maximized="0"
     inkscape:current-layer="svg10" />
  <path
     d="M21.8028 10.5301C21.7485 10.4862 21.2421 10.0959 20.1743 10.0959C19.8923 10.0971 19.6109 10.1218 19.3329 10.1697C19.1262 8.72368 17.955 8.01866 17.9025 7.98703L17.6157 7.81824L17.4271 8.09603C17.1909 8.4692 17.0185 8.88056 16.9173 9.31264C16.7261 10.1381 16.8424 10.9134 17.2531 11.5762C16.7571 11.8584 15.9614 11.9278 15.8004 11.934H2.62605C2.28194 11.9344 2.00272 12.2183 2.00084 12.5695C1.98547 13.7476 2.18101 14.9187 2.57783 16.0251C3.03166 17.2399 3.70683 18.1348 4.58524 18.6824C5.56956 19.2978 7.16877 19.6494 8.98155 19.6494C9.80048 19.652 10.6179 19.5764 11.423 19.4235C12.5422 19.2137 13.6192 18.8144 14.6094 18.242C15.4252 17.7597 16.1595 17.1462 16.7838 16.425C17.8276 15.219 18.4494 13.8758 18.9118 12.682H19.0961C20.2389 12.682 20.9416 12.2152 21.3291 11.8241C21.5867 11.5746 21.7877 11.2707 21.9182 10.9336L22 10.6892L21.8028 10.5301Z"
     fill="#60A5FA"
     id="path1"
     style="fill:#f87272;fill-opacity:1" />
  <path
     d="M3.84723 11.5402H5.61264C5.69778 11.5402 5.76678 11.4697 5.76678 11.3828V9.77764C5.76726 9.69073 5.69862 9.6199 5.61351 9.61942C5.61323 9.61942 5.61292 9.61942 5.61264 9.61942H3.84723C3.76208 9.61942 3.69308 9.68987 3.69308 9.77675V9.77764V11.3828C3.69308 11.4697 3.76208 11.5402 3.84723 11.5402V11.5402Z"
     fill="#60A5FA"
     id="path2"
     style="fill:#f87272;fill-opacity:1" />
  <path
     d="M6.28004 11.5402H8.04545C8.1306 11.5402 8.19959 11.4697 8.19959 11.3828V9.77764C8.20007 9.69073 8.13144 9.6199 8.04629 9.61942C8.04601 9.61942 8.0457 9.61942 8.04542 9.61942H6.28001C6.19439 9.61942 6.125 9.69024 6.125 9.77764V11.3828C6.1255 11.4698 6.19475 11.5402 6.28004 11.5402"
     fill="#60A5FA"
     id="path3"
     style="fill:#f87272;fill-opacity:1" />
  <path
     d="M8.74987 11.5402H10.5153C10.6004 11.5402 10.6694 11.4697 10.6694 11.3828V9.77764C10.6699 9.69073 10.6013 9.6199 10.5161 9.61942C10.5158 9.61942 10.5155 9.61942 10.5153 9.61942H8.74984C8.6647 9.61942 8.5957 9.68987 8.5957 9.77675V9.77764V11.3828C8.59573 11.4697 8.66475 11.5402 8.74987 11.5402V11.5402Z"
     fill="#60A5FA"
     id="path4"
     style="fill:#f87272;fill-opacity:1" />
  <path
     d="M11.1905 11.5402H12.9559C13.0412 11.5402 13.1104 11.4699 13.1109 11.3828V9.77764C13.1109 9.69024 13.0415 9.61942 12.9559 9.61942H11.1905C11.1053 9.61942 11.0363 9.68987 11.0363 9.77675V9.77764V11.3828C11.0363 11.4697 11.1053 11.5402 11.1905 11.5402V11.5402Z"
     fill="#60A5FA"
     id="path5"
     style="fill:#f87272;fill-opacity:1" />
  <path
     d="M6.28001 9.23086H8.04542C8.13068 9.23037 8.19956 9.15966 8.19956 9.07263V7.46749C8.19956 7.38058 8.13054 7.31015 8.04542 7.31015H6.28001C6.19475 7.31015 6.12548 7.38043 6.125 7.46749V9.07263C6.12548 9.15983 6.19458 9.23037 6.28001 9.23086Z"
     fill="#60A5FA"
     id="path6"
     style="fill:#f87272;fill-opacity:1" />
  <path
     d="M8.74987 9.23086H10.5153C10.6005 9.23037 10.6694 9.15966 10.6694 9.07263V7.46749C10.6694 7.38058 10.6004 7.31015 10.5153 7.31015H8.74987C8.66473 7.31015 8.59573 7.38061 8.59573 7.46749V9.07263C8.59573 9.15966 8.66462 9.23037 8.74987 9.23086Z"
     fill="#60A5FA"
     id="path7"
     style="fill:#f87272;fill-opacity:1" />
  <path
     d="M11.1905 9.23086H12.9559C13.0413 9.23037 13.1104 9.15983 13.1109 9.07263V7.46749C13.1104 7.38043 13.0412 7.31015 12.9559 7.31015H11.1905C11.1053 7.31015 11.0363 7.38061 11.0363 7.46749V9.07263C11.0363 9.15966 11.1052 9.23037 11.1905 9.23086Z"
     fill="#60A5FA"
     id="path8"
     style="fill:#f87272;fill-opacity:1" />
  <path
     d="M11.1905 6.92074H12.9559C13.0412 6.92074 13.1104 6.85042 13.1109 6.7634V5.15734C13.1104 5.07028 13.0412 5 12.9559 5H11.1905C11.1053 5 11.0363 5.07043 11.0363 5.15734V6.76337C11.0363 6.85028 11.1053 6.92074 11.1905 6.92074Z"
     fill="#60A5FA"
     id="path9"
     style="fill:#f87272;fill-opacity:1" />
  <path
     d="M13.6526 11.5402H15.418C15.5033 11.5402 15.5725 11.4699 15.573 11.3828V9.77764C15.573 9.69024 15.5036 9.61942 15.418 9.61942H13.6526C13.5675 9.61942 13.4984 9.68987 13.4984 9.77675V9.77764V11.3828C13.4984 11.4697 13.5675 11.5402 13.6526 11.5402"
     fill="#60A5FA"
     id="path10"
     style="fill:#f87272;fill-opacity:1" />
</svg>
