<svg width="24" height="24" viewBox="0 0 24 24" fill="none" xmlns="http://www.w3.org/2000/svg">
<path fill-rule="evenodd" clip-rule="evenodd" d="M11.8973 6.78937H21.0181V10.4811H11.8973V6.78937Z" fill="white"/>
<path fill-rule="evenodd" clip-rule="evenodd" d="M3.64508 18.8419C2.8418 18.8419 2.14199 18.4047 1.76629 17.7561C1.57448 18.0858 1.47344 18.4605 1.47345 18.8419C1.47345 20.0413 2.44569 21.0136 3.64508 21.0136H5.81672V18.8419H3.64508Z" fill="#22C55E"/>
<path fill-rule="evenodd" clip-rule="evenodd" d="M13.4153 7.37308L21.0182 6.89793V5.81211C21.0182 4.61271 20.0459 3.64047 18.8466 3.64047H9.0742L8.80274 3.17031C8.682 2.96129 8.38047 2.96129 8.25984 3.17031L7.98838 3.64047L7.71693 3.17031C7.59629 2.96129 7.29465 2.96129 7.17402 3.17031L6.90256 3.64047L6.63111 3.17031C6.51048 2.96129 6.20884 2.96129 6.0882 3.17031L5.81675 3.64047C5.81436 3.64047 5.81219 3.6408 5.80969 3.6408L5.35994 3.19116C5.18947 3.02058 4.89825 3.09854 4.83571 3.33167L4.68706 3.88587L4.12331 3.73472C3.89007 3.67229 3.67693 3.88554 3.73947 4.11867L3.8904 4.68253L3.33641 4.83096C3.10318 4.89351 3.02511 5.18483 3.19569 5.35541L3.64544 5.80516C3.64544 5.80744 3.64511 5.80972 3.64511 5.81211L3.17495 6.08356C2.96593 6.2042 2.96593 6.50584 3.17495 6.62647L3.64511 6.89793L3.17495 7.16938C2.96593 7.29001 2.96593 7.59165 3.17495 7.71229L3.64511 7.98374L3.17495 8.2552C2.96593 8.37583 2.96593 8.67747 3.17495 8.79811L3.64511 9.06956L3.17495 9.34101C2.96593 9.46165 2.96593 9.76329 3.17495 9.88392L3.64511 10.1554L3.17495 10.4268C2.96593 10.5475 2.96593 10.8491 3.17495 10.9697L3.64511 11.2412L3.17495 11.5126C2.96593 11.6333 2.96593 11.9349 3.17495 12.0556L3.64511 12.327L3.17495 12.5985C2.96593 12.7191 2.96593 13.0207 3.17495 13.1414L3.64511 13.4128L3.17495 13.6843C2.96593 13.8049 2.96593 14.1066 3.17495 14.2272L3.64511 14.4986L3.17495 14.7701C2.96593 14.8907 2.96593 15.1924 3.17495 15.313L3.64511 15.5845L3.17495 15.8559C2.96593 15.9766 2.96593 16.2782 3.17495 16.3988L3.64511 16.6703L3.17495 16.9417C2.96593 17.0624 2.96593 17.364 3.17495 17.4846L3.64511 17.7561L3.17495 18.0276C2.96593 18.1482 2.96593 18.4498 3.17495 18.5705L3.64511 18.8419C3.64511 20.0413 4.61735 21.0135 5.81675 21.0135H18.8466C20.0459 21.0135 21.0182 20.0413 21.0182 18.8419V10.1554L13.4153 9.68022C13.1218 9.66185 12.8464 9.53232 12.6451 9.31801C12.4437 9.10369 12.3317 8.8207 12.3316 8.52665C12.3316 7.91631 12.8062 7.41119 13.4153 7.37308Z" fill="#22C55E"/>
<path fill-rule="evenodd" clip-rule="evenodd" d="M16.6749 21.0136H19.9323V16.6703H16.6749V21.0136Z" fill="#22C55E"/>
<path fill-rule="evenodd" clip-rule="evenodd" d="M22.104 18.299C22.0802 18.299 22.0575 18.303 22.0346 18.306C22.0304 18.2897 22.0265 18.2733 22.022 18.257C22.1377 18.2086 22.2331 18.1217 22.2919 18.0109C22.3508 17.9002 22.3695 17.7725 22.3449 17.6495C22.3203 17.5265 22.2538 17.4159 22.1568 17.3363C22.0599 17.2568 21.9384 17.2133 21.813 17.2132C21.6944 17.2136 21.5793 17.2532 21.4855 17.3257C21.4735 17.3134 21.4613 17.3013 21.4491 17.2892C21.52 17.1959 21.5586 17.0821 21.5589 16.9649C21.5588 16.8398 21.5155 16.7186 21.4364 16.6217C21.3572 16.5248 21.2471 16.4583 21.1245 16.4332C21.002 16.4082 20.8745 16.4263 20.7638 16.4844C20.653 16.5425 20.5657 16.6371 20.5166 16.7522C20.5005 16.7476 20.4843 16.7438 20.4683 16.7397C20.4712 16.7168 20.4752 16.6941 20.4752 16.6703C20.4752 16.5263 20.418 16.3882 20.3162 16.2864C20.2144 16.1846 20.0763 16.1274 19.9323 16.1274C19.7883 16.1274 19.6502 16.1846 19.5484 16.2864C19.4466 16.3882 19.3894 16.5263 19.3894 16.6703C19.3894 16.6941 19.3934 16.7168 19.3964 16.7397C19.3803 16.7438 19.3641 16.7476 19.348 16.7522C19.2991 16.6369 19.2119 16.5421 19.101 16.4838C18.9902 16.4255 18.8626 16.4074 18.7399 16.4324C18.6172 16.4574 18.507 16.5241 18.4279 16.6212C18.3487 16.7182 18.3056 16.8397 18.3058 16.9649C18.3058 17.087 18.3475 17.1984 18.4155 17.2892C18.0119 17.6836 17.7607 18.2331 17.7607 18.8419C17.7607 20.0413 18.7329 21.0136 19.9323 21.0136C20.9464 21.0136 21.7956 20.3175 22.0346 19.3779C22.0575 19.3808 22.0802 19.3848 22.104 19.3848C22.2479 19.3848 22.386 19.3276 22.4878 19.2258C22.5897 19.124 22.6469 18.9859 22.6469 18.8419C22.6469 18.6979 22.5897 18.5598 22.4878 18.458C22.386 18.3562 22.2479 18.299 22.104 18.299Z" fill="#22C55E"/>
<path fill-rule="evenodd" clip-rule="evenodd" d="M17.7607 14.4987H21.0181V12.327H17.7607V14.4987Z" fill="#22C55E"/>
<path fill-rule="evenodd" clip-rule="evenodd" d="M22.104 13.6843C22.176 13.6843 22.245 13.6557 22.296 13.6048C22.3469 13.5539 22.3755 13.4848 22.3755 13.4128C22.3755 13.3408 22.3469 13.2718 22.296 13.2209C22.245 13.17 22.176 13.1414 22.104 13.1414C22.0922 13.1414 22.0808 13.1434 22.0694 13.1448C22.0672 13.1367 22.0654 13.1286 22.0631 13.1204C22.1209 13.0962 22.1685 13.0527 22.1978 12.9973C22.2272 12.9419 22.2365 12.8781 22.2242 12.8167C22.2119 12.7552 22.1787 12.6999 22.1303 12.6602C22.0819 12.6204 22.0212 12.5986 21.9585 12.5985C21.8967 12.5985 21.8404 12.6199 21.7948 12.6547C21.7888 12.6485 21.7827 12.6424 21.7765 12.6365C21.8106 12.5912 21.8315 12.5354 21.8315 12.4742C21.8314 12.4117 21.8098 12.3511 21.7702 12.3026C21.7307 12.2542 21.6756 12.2209 21.6143 12.2084C21.553 12.1959 21.4892 12.2049 21.4338 12.234C21.3784 12.2631 21.3348 12.3104 21.3103 12.3679C21.2152 12.3411 21.117 12.3273 21.0182 12.327C20.4186 12.327 19.9324 12.8132 19.9324 13.4128C19.9324 14.0124 20.4186 14.4986 21.0182 14.4986C21.1196 14.4986 21.2172 14.4837 21.3103 14.4577C21.3348 14.5153 21.3784 14.5626 21.4338 14.5917C21.4892 14.6207 21.553 14.6298 21.6143 14.6173C21.6756 14.6048 21.7307 14.5715 21.7702 14.5231C21.8098 14.4746 21.8314 14.414 21.8315 14.3514C21.8315 14.2903 21.8106 14.2345 21.7765 14.1892C21.7827 14.1832 21.7888 14.1771 21.7948 14.1709C21.8404 14.2058 21.8967 14.2272 21.9585 14.2272C22.0212 14.2272 22.082 14.2055 22.1306 14.1657C22.1791 14.1259 22.2123 14.0706 22.2247 14.0091C22.237 13.9475 22.2276 13.8837 22.1982 13.8283C22.1687 13.7729 22.121 13.7294 22.0631 13.7052C22.0654 13.6972 22.0672 13.689 22.0694 13.6808C22.0808 13.6822 22.0922 13.6843 22.104 13.6843Z" fill="#22C55E"/>
<path fill-rule="evenodd" clip-rule="evenodd" d="M12.3316 21.0136H18.8465C20.0459 21.0136 21.0181 20.0413 21.0181 18.8419V11.2412H14.5032C13.3038 11.2412 12.3316 12.2135 12.3316 13.4128V21.0136Z" fill="#FDE047"/>
<path d="M7.72572 7.16058C7.79538 7.23024 7.88986 7.26938 7.98838 7.26938C8.08689 7.26938 8.18137 7.23024 8.25103 7.16058C8.3207 7.09092 8.35983 6.99644 8.35983 6.89792C8.35983 6.09424 7.70624 5.44065 6.90256 5.44065C6.09888 5.44065 5.44529 6.09424 5.44529 6.89792C5.44529 6.99644 5.48442 7.09092 5.55408 7.16058C5.62375 7.23024 5.71823 7.26938 5.81674 7.26938C5.91526 7.26938 6.00974 7.23024 6.0794 7.16058C6.14906 7.09092 6.1882 6.99644 6.1882 6.89792C6.1882 6.50406 6.50869 6.18356 6.90256 6.18356C7.29643 6.18356 7.61692 6.50406 7.61692 6.89792C7.61692 6.99644 7.65606 7.09092 7.72572 7.16058Z" fill="black" stroke="black" stroke-width="0.2" stroke-linejoin="round"/>
<path fill-rule="evenodd" clip-rule="evenodd" d="M19.3916 14.6072H13.9582C13.9294 14.6072 13.9018 14.5958 13.8814 14.5754C13.861 14.555 13.8496 14.5274 13.8496 14.4986C13.8496 14.4698 13.861 14.4422 13.8814 14.4218C13.9018 14.4015 13.9294 14.39 13.9582 14.39H19.3916C19.4204 14.39 19.448 14.4015 19.4684 14.4218C19.4887 14.4422 19.5002 14.4698 19.5002 14.4986C19.5002 14.5274 19.4887 14.555 19.4684 14.5754C19.448 14.5958 19.4204 14.6072 19.3916 14.6072ZM19.3916 16.7788H13.9582C13.9294 16.7788 13.9018 16.7674 13.8814 16.747C13.861 16.7267 13.8496 16.699 13.8496 16.6702C13.8496 16.6415 13.861 16.6138 13.8814 16.5935C13.9018 16.5731 13.9294 16.5617 13.9582 16.5617H19.3916C19.4204 16.5617 19.448 16.5731 19.4684 16.5935C19.4887 16.6138 19.5002 16.6415 19.5002 16.6702C19.5002 16.699 19.4887 16.7267 19.4684 16.747C19.448 16.7674 19.4204 16.7788 19.3916 16.7788ZM19.3916 18.9505H13.9582C13.9294 18.9505 13.9018 18.939 13.8814 18.9187C13.861 18.8983 13.8496 18.8707 13.8496 18.8419C13.8496 18.8131 13.861 18.7855 13.8814 18.7651C13.9018 18.7447 13.9294 18.7333 13.9582 18.7333H19.3916C19.4204 18.7333 19.448 18.7447 19.4684 18.7651C19.4887 18.7855 19.5002 18.8131 19.5002 18.8419C19.5002 18.8707 19.4887 18.8983 19.4684 18.9187C19.448 18.939 19.4204 18.9505 19.3916 18.9505ZM19.3916 13.5416H13.9582C13.9294 13.5416 13.9018 13.5301 13.8814 13.5098C13.861 13.4894 13.8496 13.4618 13.8496 13.433C13.8496 13.4042 13.861 13.3766 13.8814 13.3562C13.9018 13.3359 13.9294 13.3244 13.9582 13.3244H19.3916C19.4204 13.3244 19.448 13.3359 19.4684 13.3562C19.4887 13.3766 19.5002 13.4042 19.5002 13.433C19.5002 13.4618 19.4887 13.4894 19.4684 13.5098C19.448 13.5301 19.4204 13.5416 19.3916 13.5416ZM19.3916 15.693H13.9582C13.9294 15.693 13.9018 15.6816 13.8814 15.6612C13.861 15.6408 13.8496 15.6132 13.8496 15.5844C13.8496 15.5556 13.861 15.528 13.8814 15.5077C13.9018 15.4873 13.9294 15.4759 13.9582 15.4759H19.3916C19.4204 15.4759 19.448 15.4873 19.4684 15.5077C19.4887 15.528 19.5002 15.5556 19.5002 15.5844C19.5002 15.6132 19.4887 15.6408 19.4684 15.6612C19.448 15.6816 19.4204 15.693 19.3916 15.693ZM19.3916 17.8646H13.9582C13.9294 17.8646 13.9018 17.8532 13.8814 17.8328C13.861 17.8125 13.8496 17.7849 13.8496 17.7561C13.8496 17.7273 13.861 17.6997 13.8814 17.6793C13.9018 17.6589 13.9294 17.6475 13.9582 17.6475H19.3916C19.4204 17.6475 19.448 17.6589 19.4684 17.6793C19.4887 17.6997 19.5002 17.7273 19.5002 17.7561C19.5002 17.7849 19.4887 17.8125 19.4684 17.8328C19.448 17.8532 19.4204 17.8646 19.3916 17.8646ZM21.0181 7.83289C21.0168 7.83289 21.0158 7.83224 21.0145 7.83235C20.6789 7.84375 20.5202 8.17938 20.3801 8.47548C20.234 8.78494 20.1209 8.98614 19.9357 8.98006C19.7306 8.97267 19.6133 8.74096 19.4891 8.49578C19.3464 8.21412 19.1836 7.89467 18.8416 7.90662C18.5109 7.91791 18.3516 8.21 18.2111 8.46766C18.0616 8.74216 17.9598 8.90904 17.7636 8.90134C17.5544 8.89373 17.4432 8.70535 17.3145 8.48731C17.1711 8.24453 17.0053 7.97155 16.67 7.98089C16.3449 7.99207 16.1852 8.23986 16.0442 8.45865C15.8952 8.68993 15.7907 8.83087 15.592 8.82251C15.3778 8.8149 15.2671 8.65855 15.1391 8.47754C14.9953 8.27417 14.8333 8.04397 14.499 8.05516C14.1811 8.06602 14.0214 8.26906 13.8805 8.44801C13.7468 8.61783 13.6423 8.75225 13.4213 8.74378C13.3925 8.74275 13.3645 8.75319 13.3434 8.77282C13.3223 8.79245 13.3099 8.81966 13.3088 8.84846C13.3078 8.87725 13.3183 8.90528 13.3379 8.92638C13.3575 8.94748 13.3847 8.95991 13.4135 8.96095C13.7411 8.97191 13.907 8.7655 14.0511 8.58232C14.1789 8.41988 14.2892 8.27971 14.5064 8.27232C14.7155 8.26342 14.8136 8.39339 14.9619 8.60295C15.1027 8.80209 15.2626 9.02794 15.5842 9.03956C15.9211 9.05085 16.0832 8.79905 16.2268 8.57624C16.3551 8.3771 16.4659 8.20522 16.6774 8.19794C16.8721 8.19067 16.978 8.34453 17.1274 8.59763C17.2683 8.83619 17.4278 9.10645 17.7558 9.11839C18.0951 9.13012 18.259 8.83391 18.4018 8.57168C18.5254 8.34496 18.6422 8.13084 18.849 8.12367C19.0437 8.11911 19.1452 8.29686 19.2954 8.59383C19.4357 8.87104 19.5948 9.18506 19.9279 9.19711L19.9462 9.19744C20.2789 9.19744 20.4368 8.86355 20.5765 8.56832C20.7002 8.30663 20.8173 8.06015 21.0181 8.05006V7.83289Z" fill="black"/>
<path d="M16.5332 5.7485C16.5556 5.75761 16.5789 5.76452 16.6026 5.76914L16.6026 5.76914L16.6033 5.76926C16.6249 5.77332 16.6497 5.7764 16.6749 5.77641L16.6752 5.7764C16.7238 5.77624 16.7719 5.76672 16.8169 5.74837L16.7791 5.65578L16.8165 5.74854C16.8408 5.73877 16.8619 5.72646 16.8799 5.71492L16.8799 5.71497L16.8827 5.71302C16.9022 5.69954 16.92 5.68418 16.9344 5.67113L16.9344 5.67122L16.9379 5.66777C17.0064 5.59908 17.0464 5.50311 17.0464 5.40495C17.0464 5.37948 17.0431 5.35464 17.0393 5.33391L17.0393 5.33391L17.0392 5.33332C17.0344 5.30741 17.0265 5.28476 17.0194 5.2656L17.0194 5.26559L17.0186 5.26357C17.0087 5.23894 16.9963 5.21771 16.9849 5.19995L16.9849 5.19991L16.983 5.1971C16.9696 5.17776 16.9543 5.15991 16.9408 5.14519L16.9411 5.14491L16.9344 5.13877C16.92 5.12572 16.9022 5.11036 16.8827 5.09688L16.8828 5.09683L16.8799 5.09498C16.8619 5.08344 16.8408 5.07114 16.8165 5.06137L16.8165 5.06136L16.8163 5.06128C16.7955 5.05296 16.7721 5.04556 16.7478 5.04087C16.6993 5.03075 16.65 5.03059 16.6018 5.04092C16.5774 5.04561 16.5541 5.053 16.5333 5.06137L16.5707 5.15413M16.5332 5.7485C16.5087 5.73867 16.4876 5.72632 16.4701 5.71509L16.4669 5.71308L16.4669 5.71302C16.4475 5.69954 16.4297 5.68418 16.4153 5.67113L16.4082 5.66469L16.4086 5.66438C16.4079 5.66367 16.4073 5.66294 16.4066 5.66218C16.3958 5.65031 16.3791 5.632 16.3649 5.60995C16.3535 5.59215 16.3412 5.57115 16.3313 5.54686L16.3312 5.54649L16.3312 5.54649C16.3132 5.50169 16.3038 5.45389 16.3034 5.4056L16.3034 5.40495C16.3034 5.37978 16.3065 5.35494 16.3106 5.33332C16.3154 5.3075 16.3232 5.28488 16.3301 5.26611L16.3313 5.26302L16.3313 5.26304C16.3412 5.23875 16.3535 5.21775 16.3649 5.19995L16.3668 5.19707L16.3668 5.1971C16.3802 5.1778 16.3954 5.16 16.4086 5.14552L16.415 5.13843L16.4153 5.13877C16.4297 5.12572 16.4475 5.11036 16.4669 5.09688L16.47 5.09475L16.4701 5.09481C16.4877 5.08354 16.5089 5.07112 16.5335 5.06128L16.5707 5.15413M16.5332 5.7485C16.5331 5.74846 16.533 5.74842 16.5329 5.74838L16.5707 5.65578L16.5335 5.74862C16.5334 5.74858 16.5333 5.74854 16.5332 5.7485ZM16.5707 5.15413C16.5868 5.14761 16.6043 5.14218 16.6217 5.13893L16.8258 5.6308C16.8106 5.64057 16.7953 5.64926 16.7791 5.65577C16.746 5.66928 16.7106 5.67628 16.6749 5.6764C16.6575 5.6764 16.6391 5.67423 16.6217 5.67098C16.6042 5.66758 16.5871 5.66249 16.5707 5.65577C16.5544 5.64926 16.5392 5.64057 16.5239 5.6308C16.5097 5.62103 16.4957 5.60908 16.4826 5.59714L16.4817 5.59614C16.4702 5.58344 16.4586 5.57069 16.449 5.55588C16.4393 5.54068 16.4306 5.52548 16.424 5.50919C16.4106 5.47604 16.4037 5.44068 16.4034 5.40495M16.5707 5.15413C16.5544 5.16064 16.5392 5.16933 16.5239 5.1791C16.5097 5.18887 16.4957 5.20082 16.4826 5.21276C16.4708 5.22579 16.4588 5.23991 16.449 5.25402C16.4393 5.26922 16.4306 5.28442 16.424 5.30071C16.4176 5.31809 16.4121 5.33437 16.4089 5.35175C16.4056 5.36912 16.4034 5.38758 16.4034 5.40495M16.4034 5.40495H16.4034H16.4034ZM16.7791 5.15413C16.7628 5.14761 16.7454 5.14218 16.7281 5.13893L16.7791 5.15413ZM16.7791 5.15413C16.7953 5.16064 16.8106 5.16933 16.8258 5.1791L16.7791 5.15413ZM18.7423 5.0184L18.7052 4.92555C18.6805 4.9354 18.6594 4.94781 18.6417 4.95908L18.6417 4.95902L18.6386 4.96115C18.6191 4.97463 18.6013 4.98999 18.587 5.00304L18.5868 5.00291L18.5827 5.00717C18.5152 5.07624 18.4751 5.17056 18.4751 5.26922L18.4751 5.26987C18.4754 5.31816 18.4848 5.36596 18.5028 5.41077L18.503 5.41113C18.5128 5.43542 18.5251 5.45642 18.5366 5.47423L18.5365 5.47429L18.5392 5.47811C18.552 5.49608 18.5659 5.5132 18.5809 5.52937L18.5808 5.52945L18.5844 5.53295C18.6535 5.6005 18.7478 5.64068 18.8465 5.64068L18.8469 5.64068C18.8955 5.64051 18.9436 5.63099 18.9885 5.61264L18.9508 5.52005L18.9881 5.61281C19.0124 5.60304 19.0336 5.59074 19.0515 5.57919L19.0516 5.57924L19.0544 5.57729C19.0738 5.56382 19.0916 5.54846 19.106 5.53541L19.1063 5.53571L19.1124 5.52899C19.1259 5.51426 19.1412 5.49641 19.1546 5.47707L19.1546 5.47711L19.1565 5.47423C19.1699 5.45337 19.1797 5.4334 19.188 5.41575L19.1881 5.41582L19.1902 5.4106C19.1986 5.38957 19.2062 5.36588 19.2108 5.34086L19.211 5.34026C19.2147 5.31954 19.218 5.29469 19.218 5.26922C19.218 5.17046 19.1776 5.07616 19.1103 5.00717L19.1104 5.00704L19.106 5.00304C19.0916 4.98999 19.0738 4.97463 19.0544 4.96115L19.0544 4.96111L19.0515 4.95926C19.0336 4.94771 19.0124 4.93541 18.9881 4.92564L18.9879 4.92555C18.9672 4.91726 18.9439 4.90989 18.9197 4.9052M18.7423 5.0184L18.7049 4.92564C18.7257 4.91727 18.749 4.90988 18.7734 4.90519C18.8213 4.89493 18.8718 4.89493 18.9197 4.9052M18.7423 5.0184C18.726 5.02491 18.7108 5.0336 18.6955 5.04337C18.6814 5.05315 18.6674 5.06509 18.6542 5.07703L18.8997 5.0032M18.7423 5.0184C18.7585 5.01188 18.776 5.00646 18.7933 5.0032C18.8281 4.9956 18.865 4.9956 18.8997 5.0032M18.9197 4.9052C18.9202 4.9053 18.9206 4.90541 18.9211 4.90551L18.8997 5.0032M18.9197 4.9052C18.9192 4.90511 18.9188 4.90502 18.9183 4.90493L18.8997 5.0032" fill="black" stroke="black" stroke-width="0.2" stroke-linejoin="round"/>
<path fill-rule="evenodd" clip-rule="evenodd" d="M10.16 21.0136H14.5032V16.6703H10.16V21.0136Z" fill="#22C55E"/>
<path fill-rule="evenodd" clip-rule="evenodd" d="M16.6749 18.299C16.6511 18.299 16.6284 18.303 16.6055 18.306C16.6014 18.2897 16.5975 18.2733 16.5929 18.257C16.7086 18.2086 16.804 18.1217 16.8629 18.0109C16.9217 17.9002 16.9404 17.7725 16.9158 17.6495C16.8912 17.5265 16.8247 17.4159 16.7278 17.3363C16.6308 17.2568 16.5093 17.2133 16.3839 17.2132C16.2653 17.2136 16.1502 17.2532 16.0564 17.3257C16.0444 17.3134 16.0322 17.3013 16.02 17.2892C16.091 17.1959 16.1295 17.0821 16.1298 16.9649C16.1297 16.8398 16.0865 16.7186 16.0073 16.6217C15.9282 16.5248 15.818 16.4583 15.6954 16.4332C15.5729 16.4082 15.4454 16.4263 15.3347 16.4844C15.2239 16.5425 15.1366 16.6371 15.0875 16.7522C15.0714 16.7476 15.0553 16.7438 15.0392 16.7397C15.0421 16.7168 15.0461 16.6941 15.0461 16.6703C15.0461 16.5263 14.9889 16.3882 14.8871 16.2864C14.7853 16.1846 14.6472 16.1274 14.5032 16.1274C14.3593 16.1274 14.2212 16.1846 14.1193 16.2864C14.0175 16.3882 13.9603 16.5263 13.9603 16.6703C13.9603 16.6941 13.9643 16.7168 13.9673 16.7397C13.9512 16.7438 13.935 16.7476 13.919 16.7522C13.8701 16.6369 13.7828 16.5421 13.672 16.4838C13.5611 16.4255 13.4335 16.4074 13.3109 16.4324C13.1882 16.4574 13.0779 16.5241 12.9988 16.6212C12.9196 16.7182 12.8765 16.8397 12.8767 16.9649C12.8767 17.087 12.9184 17.1984 12.9865 17.2892C12.5829 17.6836 12.3316 18.2331 12.3316 18.8419C12.3316 20.0413 13.3038 21.0136 14.5032 21.0136C15.5173 21.0136 16.3665 20.3175 16.6055 19.3779C16.6284 19.3808 16.6511 19.3848 16.6749 19.3848C16.8189 19.3848 16.957 19.3276 17.0588 19.2258C17.1606 19.124 17.2178 18.9859 17.2178 18.8419C17.2178 18.6979 17.1606 18.5598 17.0588 18.458C16.957 18.3562 16.8189 18.299 16.6749 18.299Z" fill="#22C55E"/>
<path fill-rule="evenodd" clip-rule="evenodd" d="M10.16 14.4987H14.5032V12.327H10.16V14.4987Z" fill="#22C55E"/>
<path fill-rule="evenodd" clip-rule="evenodd" d="M15.5891 13.6843C15.661 13.6843 15.7301 13.6557 15.781 13.6048C15.8319 13.5539 15.8605 13.4848 15.8605 13.4128C15.8605 13.3408 15.8319 13.2718 15.781 13.2209C15.7301 13.17 15.661 13.1414 15.5891 13.1414C15.5772 13.1414 15.5658 13.1434 15.5544 13.1448C15.5522 13.1367 15.5504 13.1286 15.5481 13.1204C15.6059 13.0962 15.6535 13.0527 15.6829 12.9973C15.7123 12.9419 15.7216 12.8781 15.7093 12.8167C15.697 12.7552 15.6638 12.6999 15.6153 12.6602C15.5669 12.6204 15.5062 12.5986 15.4436 12.5985C15.3818 12.5985 15.3254 12.6199 15.2798 12.6547C15.2738 12.6485 15.2678 12.6424 15.2616 12.6365C15.2957 12.5912 15.3165 12.5354 15.3165 12.4742C15.3165 12.4117 15.2949 12.3511 15.2553 12.3026C15.2157 12.2542 15.1606 12.2209 15.0993 12.2084C15.038 12.1959 14.9743 12.2049 14.9189 12.234C14.8635 12.2631 14.8198 12.3104 14.7953 12.3679C14.7003 12.3411 14.602 12.3273 14.5032 12.327C13.9036 12.327 13.4174 12.8132 13.4174 13.4128C13.4174 14.0124 13.9036 14.4986 14.5032 14.4986C14.6047 14.4986 14.7023 14.4837 14.7953 14.4577C14.8198 14.5153 14.8635 14.5626 14.9189 14.5917C14.9743 14.6207 15.038 14.6298 15.0993 14.6173C15.1606 14.6048 15.2157 14.5715 15.2553 14.5231C15.2949 14.4746 15.3165 14.414 15.3165 14.3514C15.3165 14.2903 15.2957 14.2345 15.2616 14.1892C15.2678 14.1832 15.2738 14.1771 15.2798 14.1709C15.3254 14.2058 15.3818 14.2272 15.4436 14.2272C15.5063 14.2272 15.5671 14.2055 15.6156 14.1657C15.6641 14.1259 15.6974 14.0706 15.7097 14.0091C15.722 13.9475 15.7127 13.8837 15.6832 13.8283C15.6537 13.7729 15.606 13.7294 15.5481 13.7052C15.5504 13.6972 15.5522 13.689 15.5544 13.6808C15.5658 13.6822 15.5772 13.6843 15.5891 13.6843Z" fill="#22C55E"/>
</svg>
