<svg width="24" height="24" viewBox="0 0 24 24" fill="none" xmlns="http://www.w3.org/2000/svg">
<path d="M2.73447 9.09303C2.73447 9.36918 2.95832 9.59303 3.23447 9.59303H5.85165V17.5C5.85165 17.7761 6.07551 18 6.35165 18H8.4795C8.75564 18 8.9795 17.7761 8.9795 17.5V9.59303H11.5967C11.8728 9.59303 12.0967 9.36918 12.0967 9.09303V7.31817C12.0967 7.04203 11.8728 6.81817 11.5967 6.81817H3.23447C2.95832 6.81817 2.73447 7.04203 2.73447 7.31817V9.09303ZM18.9997 10.2958C19.0251 10.5516 19.2402 10.7464 19.4972 10.7464H21.5605C21.6945 10.7464 21.8229 10.6926 21.9169 10.5971C22.0109 10.5015 22.0626 10.3723 22.0604 10.2382C22.049 9.54274 21.861 8.91202 21.486 8.36346C21.114 7.81918 20.5983 7.40388 19.9588 7.11208C19.3174 6.81787 18.5841 6.67897 17.7721 6.67897C16.9712 6.67897 16.2376 6.81859 15.5809 7.10963C14.927 7.39944 14.3944 7.81146 14.0018 8.35167L14.0005 8.35359C13.6024 8.90695 13.4108 9.54998 13.4141 10.2615C13.4108 11.1355 13.7041 11.8771 14.3218 12.429C14.8965 12.9424 15.6558 13.2987 16.5683 13.5209C16.5689 13.521 16.5695 13.5212 16.5701 13.5213L17.6752 13.7989L17.6752 13.7989L17.6798 13.8C18.0331 13.8852 18.3178 13.9767 18.5396 14.0718L18.5418 14.0727C18.7538 14.1624 18.8756 14.2554 18.9425 14.334L18.9424 14.334L18.9465 14.3386C18.9943 14.3934 19.0271 14.465 19.0271 14.5866C19.0271 14.7218 18.989 14.8292 18.9109 14.9281C18.8275 15.0338 18.6967 15.134 18.4902 15.2146L18.4883 15.2154C18.2914 15.2931 18.04 15.3395 17.7224 15.3395C17.4032 15.3395 17.133 15.2913 16.9047 15.2046C16.6905 15.1188 16.534 15.0005 16.419 14.8543C16.3169 14.7173 16.2454 14.5311 16.2276 14.2694C16.2098 14.007 15.9918 13.8033 15.7288 13.8033H13.6457C13.5111 13.8033 13.3822 13.8575 13.2882 13.9537C13.1941 14.05 13.1428 14.18 13.1458 14.3146C13.1641 15.1222 13.3611 15.8361 13.7642 16.4289L13.7642 16.4289L13.7664 16.432C14.1674 17.0123 14.7212 17.443 15.4078 17.7281L15.4086 17.7285C16.0919 18.0107 16.8753 18.1442 17.7473 18.1442C18.6237 18.1442 19.4013 18.013 20.0652 17.7317L20.0665 17.7311C20.7291 17.4482 21.261 17.0398 21.6347 16.4952C22.013 15.9454 22.1959 15.3047 22.1997 14.5943H22.1997L22.1996 14.5877C22.1959 14.105 22.107 13.6569 21.9203 13.2543C21.7421 12.8628 21.4899 12.5219 21.1671 12.2345C20.8527 11.9547 20.4866 11.7241 20.0739 11.5399C19.67 11.3595 19.2314 11.2174 18.7599 11.1116L17.8486 10.8937L17.8486 10.8936L17.8416 10.892C17.6388 10.8467 17.4509 10.7929 17.2771 10.7312C17.1128 10.6697 16.9759 10.6016 16.8631 10.5293C16.769 10.4661 16.7049 10.3991 16.6608 10.3308C16.637 10.2904 16.6177 10.2317 16.6212 10.1354C16.6214 10.1293 16.6215 10.1232 16.6215 10.1172C16.6215 10.0028 16.6518 9.91184 16.7123 9.82807C16.776 9.74427 16.8793 9.66107 17.0519 9.59251L17.0519 9.59254L17.0573 9.5903C17.2222 9.52257 17.45 9.47869 17.7572 9.47869C18.2073 9.47869 18.5003 9.57567 18.6887 9.71442C18.8669 9.8456 18.9727 10.0236 18.9997 10.2958Z" stroke="#2563EB" stroke-linejoin="round"/>
</svg>
