<svg width="24" height="24" viewBox="0 0 24 24" fill="none" xmlns="http://www.w3.org/2000/svg">
<path fill-rule="evenodd" clip-rule="evenodd" d="M13.1994 6.90043C14.5436 8.4221 14.5746 10.0433 13.293 11.8016C11.8957 13.7185 11.6935 14.0976 11.6935 14.7985C11.6935 15.6433 12.2018 16.3845 13.3258 17.1788L14.122 17.7413H17.3579C19.6492 17.7413 20.6531 17.6825 20.797 17.5395C20.9426 17.3947 21 16.2857 21 13.6129V9.8881L20.027 8.96784C18.3424 7.37436 16.5951 6.62765 13.9812 6.3843L12.6324 6.25867L13.1994 6.90043ZM10.9684 8.04505C9.60679 10.0119 7.14665 11.171 4.31476 11.1795C3.53369 11.1819 3.31405 11.245 3.17259 11.5077C2.94247 11.9352 2.94247 16.9886 3.17259 17.4161C3.33859 17.7242 3.56821 17.7413 7.5206 17.7413H11.6935L11.1716 17.1947C10.3195 16.3022 10.0582 15.6297 10.1379 14.5342C10.2109 13.5323 10.2642 13.4303 11.8178 11.3233C12.7659 10.0376 12.8774 9.06101 12.194 8.02907C11.9338 7.63604 11.6652 7.31432 11.5975 7.31432C11.5297 7.31432 11.2466 7.6431 10.9684 8.04505Z" fill="#EA580C"/>
</svg>
