<svg width="24" height="24" viewBox="0 0 24 24" fill="none" xmlns="http://www.w3.org/2000/svg">
<path fill-rule="evenodd" clip-rule="evenodd" d="M3.45847 19.1221C3.45847 19.4756 3.54825 19.8572 3.79513 19.9918C4.70411 20.5024 7.89113 20.104 8.97404 19.8628C9.54075 19.7337 10.0008 19.3129 10.5339 19.0828C11.7346 18.561 12.6043 18.1402 13.5638 17.4388C14.2596 16.9282 15.3649 15.4918 15.4827 14.6334L14.5345 14.4201C14.5121 15.3852 14.2932 15.6041 13.4347 15.8285C12.8568 15.9856 11.729 16.0193 11.1399 15.9183C10.3599 15.7892 10.0065 15.3796 9.65297 14.9139C8.96843 14.0049 9.80446 13.3709 8.72155 13.3092C7.58252 14.7063 5.5738 13.7019 4.69288 13.5617C4.31695 14.1059 3.43603 17.6408 3.44725 18.4488C3.99152 18.2637 4.33378 18.4656 4.82193 18.6564C6.55011 19.3241 5.04076 19.9133 4.35061 19.7393C3.8793 19.6271 3.73341 19.3185 3.45847 19.1221ZM5.71969 11.0592C6.42105 11.1938 7.04388 11.4856 7.63863 11.783C8.60933 12.2655 8.78327 12.1982 8.87304 12.8715C8.88427 12.995 8.86182 13.0623 9.21531 13.1745C9.81007 13.3597 8.87304 13.0286 10.4666 13.0342C11.4148 13.0398 13.5862 13.4214 14.2876 13.8647C14.5794 14.0498 14.5233 14.2855 15.5108 14.2574C15.4996 13.096 15.191 11.3622 14.7365 10.2961C14.181 9.00558 13.446 8.80919 11.9479 8.32665C11.0725 8.0461 8.50272 7.7375 7.70597 8.23126C6.95971 8.69697 6.81943 9.25246 6.12368 10.2288C5.92168 10.5149 5.84874 10.7337 5.71969 11.0592Z" fill="#FAFAFA"/>
<path fill-rule="evenodd" clip-rule="evenodd" d="M11.8975 13.4439C12.4586 13.6739 11.8694 15.1608 11.0895 14.8017C10.837 14.0891 11.4374 13.6851 11.6001 13.3653C11.2634 13.3148 10.3039 13.1633 10.0178 13.2699C9.64746 13.4102 9.56329 14.2013 9.75407 14.5717C10.6518 16.3335 14.6188 15.9576 14.1979 14.5885C14.0296 14.033 13.8725 13.9432 13.3058 13.7524C12.8513 13.601 12.3968 13.4439 11.8975 13.4439ZM4.84448 13.2475C5.29336 13.6795 6.30894 13.7468 6.96542 13.7805C7.04959 12.9108 7.12253 12.2599 7.81829 12.3104C8.16056 12.7761 7.98101 13.326 7.62191 13.6795C8.23351 13.6739 8.58699 13.2138 8.49721 12.5461C7.98101 12.1758 6.41555 11.4351 5.63002 11.3285C5.41119 11.5642 4.87254 12.8547 4.84448 13.2475Z" fill="#FAFAFA"/>
<path fill-rule="evenodd" clip-rule="evenodd" d="M3.78957 18.8023C4.15989 18.7686 5.12498 19.0492 5.20353 19.3634C4.60316 19.4364 3.84007 19.3802 3.78957 18.8023ZM3.45852 19.1221C3.73346 19.3185 3.87935 19.6271 4.35067 19.7393C5.04081 19.9133 6.55016 19.3241 4.82199 18.6564C4.33383 18.4657 3.99156 18.2637 3.4473 18.4488C3.43608 17.6408 4.317 14.1059 4.69293 13.5617C5.57385 13.702 7.58257 14.7063 8.7216 13.3092C9.80451 13.3709 8.96848 14.005 9.65302 14.9139C10.0065 15.3796 10.36 15.7892 11.1399 15.9183C11.7291 16.0193 12.8569 15.9856 13.4348 15.8285C14.2933 15.6041 14.5121 15.3852 14.5345 14.4202L15.4828 14.6334C15.365 15.4919 14.2596 16.9283 13.5639 17.4389C12.6044 18.1402 11.7347 18.561 10.5339 19.0829C10.0009 19.3129 9.5408 19.7337 8.97409 19.8628C7.89118 20.1041 4.70416 20.5024 3.79518 19.9918C3.5483 19.8572 3.45852 19.4756 3.45852 19.1221ZM11.3082 14.4763C11.3475 14.1059 11.4878 13.8983 11.7066 13.7468C11.8581 14.0723 11.5888 14.3865 11.3082 14.4763ZM11.8974 13.4439C12.3968 13.4439 12.8513 13.601 13.3057 13.7525C13.8725 13.9432 14.0296 14.033 14.1979 14.5885C14.6187 15.9576 10.6518 16.3335 9.75401 14.5717C9.56324 14.2013 9.64741 13.4102 10.0177 13.2699C10.3039 13.1633 11.2634 13.3148 11.6 13.3653C11.4373 13.6851 10.8369 14.0891 11.0894 14.8017C11.8693 15.1608 12.4585 13.6739 11.8974 13.4439ZM7.31325 13.5112C7.31886 13.124 7.30203 12.7762 7.65552 12.6247C7.78457 12.922 7.57135 13.3429 7.31325 13.5112ZM4.84443 13.2475C4.87248 12.8547 5.41114 11.5642 5.62996 11.3285C6.4155 11.4351 7.98095 12.1758 8.49716 12.5461C8.58694 13.2138 8.23345 13.6739 7.62185 13.6795C7.98095 13.326 8.1605 12.7762 7.81823 12.3104C7.12248 12.2599 7.04953 12.9108 6.96537 13.7805C6.30889 13.7468 5.29331 13.6795 4.84443 13.2475ZM4.28333 12.7986C4.07573 12.2263 4.07573 11.3341 4.95665 11.2612L4.50777 12.5124C4.38994 12.7818 4.38994 12.72 4.28333 12.7986ZM5.71974 11.0592C5.84879 10.7338 5.92173 10.5149 6.12373 10.2288C6.81949 9.25248 6.95976 8.69699 7.70602 8.23128C8.50277 7.73752 11.0726 8.04612 11.9479 8.32667C13.446 8.80921 14.1811 9.00559 14.7365 10.2961C15.191 11.3622 15.4996 13.096 15.5109 14.2574C14.5233 14.2855 14.5794 14.0498 14.2877 13.8647C13.5863 13.4214 11.4149 13.0399 10.4666 13.0343C8.87309 13.0286 9.81012 13.3597 9.21536 13.1745C8.86187 13.0623 8.88432 12.995 8.87309 12.8715C8.78332 12.1982 8.60938 12.2656 7.63868 11.783C7.04392 11.4856 6.42111 11.1939 5.71974 11.0592ZM15.6511 10.7843C15.5445 10.4308 15.7409 10.4532 16.0832 10.2119C16.2796 10.0717 16.4367 9.92579 16.6779 9.79113C17.5813 9.28614 19.2646 9.20198 19.9828 9.80235C20.2746 10.0436 20.7515 10.5149 20.6785 11.1321C20.527 12.3609 19.6854 13.0343 18.9953 13.5954C18.2939 14.1677 17.1268 14.7568 15.9205 14.3641C15.8195 14.1172 15.898 12.5517 15.7802 11.9738C15.6736 11.4576 15.7297 11.4015 16.0271 11.0929C16.9024 10.1839 18.7989 9.5218 19.8762 10.3017C20.3307 10.6384 20.2016 10.7674 20.4373 11.0255C20.729 10.7113 20.1848 9.65646 18.1761 9.72379C16.8126 9.76868 16.2234 10.8348 15.6511 10.7843ZM7.48158 7.59163C7.50963 6.81171 8.22783 5.19576 8.94604 4.63466C9.81574 3.96135 10.7247 3.32731 12.0601 4.08479C12.3912 4.26995 12.3743 4.36534 12.408 4.82543C12.4361 5.2687 12.3968 5.43142 12.2846 5.79052C11.398 8.6521 10.6574 7.00809 7.81823 7.68702C7.92484 6.7556 8.73282 5.92518 9.1817 5.49314C9.9504 4.74688 10.5059 4.26434 11.6617 4.42145C11.9816 4.95449 12.0152 5.29114 11.6281 5.91396C11.1119 6.74438 10.9828 6.69388 11.0614 7.26059C11.4654 7.15959 11.5888 6.76682 11.774 6.37406C12.9018 4.01746 11.2634 3.7313 10.259 4.16334C9.58569 4.4495 8.38494 5.77369 7.99217 6.57044C7.91362 6.72755 7.82946 6.92954 7.75651 7.10348L7.48158 7.59163ZM11.9255 7.70946C12.0433 7.00809 12.739 6.83416 12.739 4.67394C12.739 3.74252 11.5944 2.90649 10.0963 3.52931C8.81137 4.05673 8.61499 4.46072 7.93045 5.49314C7.28519 6.46944 7.30764 7.54114 6.75215 8.4445C6.58944 8.7026 6.44355 8.79238 6.264 9.05048C6.13495 9.24125 6.03956 9.48252 5.91051 9.70696C5.6468 10.139 5.37747 10.4532 5.16425 10.9694C4.49094 10.9863 3.92423 10.9975 3.8569 11.6932C3.76713 12.6471 4.216 12.8828 4.216 13.2419C4.21039 13.629 2.63932 17.5342 3.07698 19.8628C3.20042 20.5024 3.62124 20.508 4.29456 20.5866C5.91612 20.783 8.02023 20.7156 9.47347 20.1321L12.1106 18.8696C12.7783 18.4937 13.9005 17.7811 14.3999 17.2593C14.7534 16.8946 14.9385 16.586 15.2415 16.1539C15.6567 15.548 15.668 15.5592 15.7577 14.7344C16.3076 14.8354 17.3344 15.0766 17.6767 15.374C17.6374 15.7612 17.4466 15.576 17.4466 15.9239C17.6655 15.9295 18.0302 15.6546 18.1199 15.3516C17.8899 15.0149 17.6486 15.071 17.3176 14.8017C17.5813 14.5941 18.0582 14.4987 18.4229 14.3472C19.2085 14.0218 20.5495 13.0343 20.8805 12.1365C21.1443 11.4127 20.9479 10.2063 20.5214 9.73502C20.0726 9.24125 19.0289 8.98876 18.1761 8.98876C17.1605 8.98876 16.1112 9.71818 15.292 10.0324C14.9778 9.75746 14.9554 9.44325 14.7253 9.14026C14.4616 8.78116 12.7447 7.8834 11.9255 7.70946Z" fill="#475569" stroke="#475569" stroke-width="0.36309" stroke-linejoin="round"/>
<path fill-rule="evenodd" clip-rule="evenodd" d="M7.31323 13.5112C7.57133 13.3428 7.78455 12.922 7.6555 12.6246C7.30201 12.7761 7.31884 13.124 7.31323 13.5112ZM11.3082 14.4762C11.5888 14.3865 11.8581 14.0723 11.7066 13.7468C11.4878 13.8983 11.3475 14.1059 11.3082 14.4762L11.3082 14.4762Z" fill="#BFDBFE"/>
<path fill-rule="evenodd" clip-rule="evenodd" d="M15.651 10.7842C16.2233 10.8347 16.8125 9.76865 18.1759 9.72376C20.1847 9.65643 20.7289 10.7113 20.4371 11.0255C20.2015 10.7674 20.3305 10.6383 19.8761 10.3017C18.7987 9.52177 16.9022 10.1839 16.0269 11.0928C15.7296 11.4014 15.6734 11.4575 15.7801 11.9738C15.8979 12.5517 15.8193 14.1171 15.9203 14.364C17.1267 14.7568 18.2938 14.1676 18.9951 13.5953C19.6853 13.0342 20.5269 12.3609 20.6784 11.1321C20.7514 10.5149 20.2744 10.0436 19.9827 9.80231C19.2645 9.20194 17.5812 9.28611 16.6778 9.79109C16.4365 9.92576 16.2794 10.0716 16.083 10.2119C15.7408 10.4532 15.5444 10.4307 15.651 10.7842Z" fill="#FECACA"/>
<path fill-rule="evenodd" clip-rule="evenodd" d="M7.48145 7.59164L7.75638 7.10348C7.82932 6.92954 7.91349 6.72755 7.99204 6.57044C8.38481 5.77369 9.58555 4.4495 10.2589 4.16334C11.2632 3.7313 12.9016 4.01746 11.7738 6.37406C11.5887 6.76683 11.4652 7.15959 11.0612 7.26059C10.9827 6.69388 11.1117 6.74438 11.6279 5.91396C12.0151 5.29115 11.9814 4.95449 11.6616 4.42145C10.5058 4.26434 9.95027 4.74688 9.18156 5.49314C8.73269 5.92518 7.92471 6.7556 7.8181 7.68702C10.6572 7.0081 11.3979 8.65211 12.2844 5.79052C12.3966 5.43142 12.4359 5.2687 12.4079 4.82544C12.3742 4.36534 12.391 4.26995 12.06 4.08479C10.7246 3.32731 9.8156 3.96135 8.9459 4.63466C8.2277 5.19576 7.5095 6.81171 7.48145 7.59164Z" fill="#FECACA"/>
<path fill-rule="evenodd" clip-rule="evenodd" d="M5.20351 19.3634C5.12496 19.0492 4.15987 18.7686 3.78955 18.8023C3.84005 19.3802 4.60314 19.4363 5.20351 19.3634Z" fill="#FECACA"/>
</svg>
