<svg width="24" height="24" viewBox="0 0 24 24" fill="none" xmlns="http://www.w3.org/2000/svg">
<path d="M17.3299 11.4002L12.3139 3.38404C12.17 3.14411 11.8819 3 11.5939 3C11.3059 3 11.042 3.14391 10.8739 3.38404L5.85805 11.4002C5.85805 11.4002 5.85805 11.4241 5.83409 11.4241C4.70612 13.3441 4.73009 15.6961 5.85805 17.664C7.03411 19.728 9.24192 21 11.5699 21C13.8978 21 16.1059 19.7279 17.2817 17.664C18.4097 15.6961 18.4336 13.3681 17.3057 11.4241C17.3298 11.4243 17.3298 11.4243 17.3298 11.4002H17.3299ZM15.8658 16.8242C14.9779 18.3601 13.346 19.3202 11.5939 19.3202C9.84194 19.3202 8.20998 18.3603 7.32191 16.8242C6.48198 15.3842 6.48199 13.6802 7.27401 12.2881L11.5938 5.4239L15.8898 12.2881C16.7059 13.6802 16.682 15.3842 15.8658 16.8242H15.8658Z" fill="#A855F7"/>
</svg>
