<svg width="24" height="24" viewBox="0 0 24 24" fill="none" xmlns="http://www.w3.org/2000/svg">
<path d="M4.74582 4.09659C4.71101 4.13436 4.67472 4.17066 4.6399 4.20992C2.87997 6.1817 2 8.85937 2 12.2444C2 15.5169 2.85552 18.0679 4.56213 19.9034H18.9431C20.8341 19.0501 22 17.3628 22 17.3628L19.669 15.4962L18.592 16.5184C17.9498 17.0909 17.9661 17.208 16.8772 17.8368C15.7699 18.3361 14.6255 18.5524 13.4448 18.5524C11.5819 18.5524 10.1686 17.879 9.20566 17.0272C8.2531 16.1754 7.73534 13.6859 7.65312 12.0793L20.5845 12.1289L20.4489 11.0386C20.4489 11.0386 19.8216 5.75801 18.5668 4.09659H4.74582ZM11.2345 4.72323C12.3937 4.72323 13.6196 5.11951 14.1684 5.81282C14.7166 6.50687 14.858 7.04759 14.8892 8.42309H7.63683C7.71979 6.975 7.95978 6.34169 8.65383 5.68394C9.34714 5.02692 10.1575 4.72323 11.2345 4.72323Z" fill="#F87171"/>
</svg>
