<svg width="24" height="24" viewBox="0 0 24 24" fill="none" xmlns="http://www.w3.org/2000/svg">
<path d="M15.9522 9.39441L12.1537 7.20135C12.1069 7.17433 12.0539 7.16011 11.9999 7.16011C11.946 7.16011 11.8929 7.17433 11.8462 7.20135L8.04774 9.39441C8.00102 9.42135 7.9622 9.46011 7.93519 9.50679C7.90818 9.55347 7.89393 9.60644 7.89386 9.66037V14.0465C7.89386 14.1561 7.95262 14.2576 8.04774 14.3128L11.8462 16.5058C11.9413 16.5606 12.0583 16.5606 12.1537 16.5058L15.9522 14.3128C16.0473 14.2579 16.1057 14.1565 16.1057 14.0465V9.66037C16.1057 9.55041 16.0473 9.44924 15.9522 9.39411V9.39441Z" fill="#A5B4FC"/>
<path d="M2.12343 11.3921L6.66223 3.49617C6.82701 3.21052 7.13173 3 7.4613 3H16.5386C16.8685 3 17.1729 3.21052 17.338 3.49617L21.8765 11.3748C21.9574 11.5166 22 11.6771 22 11.8404C22 12.0037 21.9574 12.1642 21.8765 12.306L17.338 20.1374C17.1729 20.4227 16.8685 20.5687 16.5386 20.5687H7.4613C7.13173 20.5687 6.82701 20.4273 6.66223 20.1416L2.12373 12.2975C2.04273 12.1603 2 12.004 2 11.8447C2 11.6854 2.04273 11.529 2.12373 11.3918L2.12343 11.3921ZM5.88163 15.1888C5.88163 15.3051 5.9516 15.4123 6.05217 15.4705L11.8335 18.8058C11.9341 18.864 12.0601 18.864 12.1606 18.8058L17.9462 15.4705C18.0468 15.4123 18.117 15.3051 18.117 15.1888V8.5178C18.117 8.40178 18.0477 8.29425 17.9474 8.23609L12.1658 4.90136C12.116 4.87282 12.0597 4.85781 12.0024 4.85781C11.945 4.85781 11.8887 4.87282 11.8389 4.90136L6.05277 8.2364C5.95221 8.29455 5.88132 8.40209 5.88132 8.5181V15.1891L5.88163 15.1888Z" fill="#4F46E5"/>
</svg>
