<svg width="24" height="24" viewBox="0 0 24 24" fill="none" xmlns="http://www.w3.org/2000/svg">
<path d="M8.96935 9.56043C9.26547 10.6244 8.64991 11.7305 7.61368 11.9966L7.06415 12.1376C7.02192 12.4184 7 12.7065 7 13C7 13.3072 7.02399 13.6083 7.07017 13.9012L7.57756 14.028C8.62413 14.2896 9.24619 15.407 8.94151 16.4781L8.76627 17.0942C9.1794 17.4706 9.6501 17.7762 10.1624 17.9936L10.6264 17.4873C11.3681 16.6781 12.6119 16.6783 13.3535 17.4878L13.8226 18C14.3338 17.785 14.8041 17.4823 15.2174 17.1091L15.0311 16.4397C14.735 15.3756 15.3506 14.2695 16.3868 14.0035L16.9358 13.8625C16.9781 13.5817 17 13.2936 17 13C17 12.6929 16.976 12.3917 16.9298 12.0987L16.4228 11.972C15.3763 11.7105 14.7543 10.5931 15.059 9.52189L15.234 8.90626C14.821 8.52974 14.3502 8.22408 13.8379 8.00664L13.3741 8.51266C12.6324 9.32201 11.3885 9.32172 10.647 8.51218L10.1778 8C9.66657 8.2149 9.19624 8.51754 8.78301 8.89074L8.96935 9.56043ZM12 14.464C11.2469 14.464 10.6364 13.8085 10.6364 13C10.6364 12.1916 11.2469 11.5361 12 11.5361C12.7531 11.5361 13.3636 12.1916 13.3636 13C13.3636 13.8085 12.7531 14.464 12 14.464Z" fill="#64748B"/>
<path fill-rule="evenodd" clip-rule="evenodd" d="M4 20V6H20V20H4ZM2 4C2 2.89543 2.89543 2 4 2H20C21.1046 2 22 2.89543 22 4V20C22 21.1046 21.1046 22 20 22H4C2.89543 22 2 21.1046 2 20V4Z" fill="#64748B"/>
</svg>
