<svg width="24" height="24" viewBox="0 0 24 24" fill="none" xmlns="http://www.w3.org/2000/svg">
<path fill-rule="evenodd" clip-rule="evenodd" d="M18.1647 6.44509C18.1637 6.15776 18.0492 5.88248 17.846 5.67931C17.6428 5.47614 17.3675 5.36157 17.0802 5.3606H5.37953C5.09221 5.36157 4.81693 5.47614 4.61376 5.67931C4.41059 5.88248 4.29602 6.15776 4.29504 6.44509V17.8507C4.29602 18.138 4.41059 18.4133 4.61376 18.6164C4.81693 18.8196 5.09221 18.9342 5.37953 18.9352H17.0802C17.3675 18.9342 17.6428 18.8196 17.846 18.6164C18.0492 18.4133 18.1637 18.138 18.1647 17.8507V6.44509Z" fill="#292929" fill-opacity="0.3"/>
<path fill-rule="evenodd" clip-rule="evenodd" d="M17.8697 6.01737C17.8697 5.76496 17.7694 5.5229 17.5909 5.34442C17.4124 5.16594 17.1704 5.06567 16.918 5.06567H4.95169C4.69929 5.06567 4.45722 5.16594 4.27874 5.34442C4.10027 5.5229 4 5.76496 4 6.01737V17.6885C4 17.941 4.10027 18.183 4.27874 18.3615C4.45722 18.54 4.69929 18.6402 4.95169 18.6402H16.918C17.1704 18.6402 17.4124 18.54 17.5909 18.3615C17.7694 18.183 17.8697 17.941 17.8697 17.6885V6.01737Z" fill="url(#paint0_radial_29539_3010)"/>
<mask id="mask0_29539_3010" style="mask-type:luminance" maskUnits="userSpaceOnUse" x="4" y="5" width="14" height="14">
<path d="M17.8697 6.01737C17.8697 5.76496 17.7694 5.5229 17.5909 5.34442C17.4124 5.16594 17.1704 5.06567 16.918 5.06567H4.95169C4.69929 5.06567 4.45722 5.16594 4.27874 5.34442C4.10027 5.5229 4 5.76496 4 6.01737V17.6885C4 17.941 4.10027 18.183 4.27874 18.3615C4.45722 18.54 4.69929 18.6402 4.95169 18.6402H16.918C17.1704 18.6402 17.4124 18.54 17.5909 18.3615C17.7694 18.183 17.8697 17.941 17.8697 17.6885V6.01737Z" fill="white"/>
</mask>
<g mask="url(#mask0_29539_3010)">
<path fill-rule="evenodd" clip-rule="evenodd" d="M3.72699 4.77039H18.1389V6.68853H3.72699V4.77039Z" fill="url(#paint1_linear_29539_3010)"/>
<path d="M5.25413 6.24587C5.45785 6.24587 5.623 6.08072 5.623 5.87699C5.623 5.67327 5.45785 5.50812 5.25413 5.50812C5.0504 5.50812 4.88525 5.67327 4.88525 5.87699C4.88525 6.08072 5.0504 6.24587 5.25413 6.24587Z" fill="#363152" fill-opacity="0.6"/>
<path d="M6.28696 6.24587C6.49069 6.24587 6.65584 6.08072 6.65584 5.87699C6.65584 5.67327 6.49069 5.50812 6.28696 5.50812C6.08324 5.50812 5.91809 5.67327 5.91809 5.87699C5.91809 6.08072 6.08324 6.24587 6.28696 6.24587Z" fill="#363152" fill-opacity="0.6"/>
<path d="M7.3198 6.24587C7.52353 6.24587 7.68868 6.08072 7.68868 5.87699C7.68868 5.67327 7.52353 5.50812 7.3198 5.50812C7.11608 5.50812 6.95093 5.67327 6.95093 5.87699C6.95093 6.08072 7.11608 6.24587 7.3198 6.24587Z" fill="#363152" fill-opacity="0.6"/>
</g>
<path fill-rule="evenodd" clip-rule="evenodd" d="M3.99994 10.5248H17.8696V14.6562H3.99994V10.5248Z" fill="url(#paint2_linear_29539_3010)"/>
<path fill-rule="evenodd" clip-rule="evenodd" d="M11.0824 12.5315C11.0824 12.4024 10.9754 12.2954 10.8463 12.2954H6.30175C6.23914 12.2954 6.17909 12.3203 6.13482 12.3646C6.09055 12.4089 6.06567 12.4689 6.06567 12.5315V12.6496C6.06567 12.7787 6.17265 12.8856 6.30175 12.8856H10.8463C10.9754 12.8856 11.0824 12.7787 11.0824 12.6496V12.5315ZM9.60686 11.3511C9.60686 11.222 9.49989 11.1151 9.37079 11.1151H6.30175C6.23914 11.1151 6.17909 11.1399 6.13482 11.1842C6.09055 11.2285 6.06567 11.2885 6.06567 11.3511V11.4692C6.06567 11.5983 6.17265 11.7052 6.30175 11.7052H9.37079C9.49989 11.7052 9.60686 11.5983 9.60686 11.4692V11.3511ZM7.54117 13.7119C7.54117 13.5828 7.4342 13.4758 7.30509 13.4758H6.30175C6.23914 13.4758 6.17909 13.5007 6.13482 13.545C6.09055 13.5893 6.06567 13.6493 6.06567 13.7119V13.83C6.06567 13.9591 6.17265 14.066 6.30175 14.066H7.30509C7.4342 14.066 7.54117 13.9591 7.54117 13.83V13.7119ZM11.6726 11.3511C11.6726 11.222 11.5656 11.1151 11.4365 11.1151H10.4331C10.3705 11.1151 10.3105 11.1399 10.2662 11.1842C10.2219 11.2285 10.1971 11.2885 10.1971 11.3511V11.4692C10.1971 11.5983 10.304 11.7052 10.4331 11.7052H11.4365C11.5656 11.7052 11.6726 11.5983 11.6726 11.4692V11.3511Z" fill="white" fill-opacity="0.8"/>
<path fill-rule="evenodd" clip-rule="evenodd" d="M11.0824 8.40014C11.0824 8.27104 10.9754 8.16406 10.8463 8.16406H6.30175C6.23914 8.16406 6.17909 8.18893 6.13482 8.23321C6.09055 8.27748 6.06567 8.33753 6.06567 8.40014V8.51818C6.06567 8.64729 6.17265 8.75426 6.30175 8.75426H10.8463C10.9754 8.75426 11.0824 8.64729 11.0824 8.51818V8.40014ZM8.72157 9.58054C8.72157 9.45143 8.61459 9.34446 8.48549 9.34446H6.30175C6.23914 9.34446 6.17909 9.36933 6.13482 9.41361C6.09055 9.45788 6.06567 9.51793 6.06567 9.58054V9.69858C6.06567 9.82768 6.17265 9.93466 6.30175 9.93466H8.48549C8.61459 9.93466 8.72157 9.82768 8.72157 9.69858V9.58054ZM10.7873 9.58054C10.7873 9.45143 10.6803 9.34446 10.5512 9.34446H9.54784C9.48523 9.34446 9.42518 9.36933 9.38091 9.41361C9.33664 9.45788 9.31177 9.51793 9.31177 9.58054V9.69858C9.31177 9.82768 9.41874 9.93466 9.54784 9.93466H10.5512C10.6803 9.93466 10.7873 9.82768 10.7873 9.69858V9.58054ZM13.0005 8.40014C13.0005 8.27104 12.8935 8.16406 12.7644 8.16406H11.9086C11.846 8.16406 11.786 8.18893 11.7417 8.23321C11.6974 8.27748 11.6726 8.33753 11.6726 8.40014V8.51818C11.6726 8.64729 11.7795 8.75426 11.9086 8.75426H12.7644C12.8935 8.75426 13.0005 8.64729 13.0005 8.51818V8.40014ZM14.9187 9.58054C14.9187 9.45143 14.8117 9.34446 14.6826 9.34446H11.6135C11.5509 9.34446 11.4909 9.36933 11.4466 9.41361C11.4023 9.45788 11.3775 9.51793 11.3775 9.58054V9.69858C11.3775 9.82768 11.4844 9.93466 11.6135 9.93466H14.6826C14.8117 9.93466 14.9187 9.82768 14.9187 9.69858V9.58054Z" fill="white" fill-opacity="0.6"/>
<path fill-rule="evenodd" clip-rule="evenodd" d="M5.35742 14.066C5.42382 14.066 5.47546 14.0144 5.47546 13.948V11.2331C5.47546 11.1667 5.42382 11.1151 5.35742 11.1151H5.2984C5.26709 11.1151 5.23707 11.1275 5.21493 11.1496C5.1928 11.1718 5.18036 11.2018 5.18036 11.2331V13.948C5.18036 14.0144 5.232 14.066 5.2984 14.066H5.35742Z" fill="#89FF94"/>
<path fill-rule="evenodd" clip-rule="evenodd" d="M5.92913 17.633C5.85794 17.5943 5.79528 17.5416 5.74486 17.4781C5.69444 17.4146 5.65728 17.3417 5.63561 17.2636C5.61393 17.1855 5.60817 17.1038 5.61867 17.0234C5.62917 16.9431 5.65572 16.8656 5.69673 16.7957C5.82584 16.5522 6.10987 16.3604 6.51195 16.353C6.89189 16.353 7.56693 16.5596 8.36369 16.8547C9.2121 17.1719 10.1896 17.5925 11.1302 17.8433C11.5729 17.9613 12.0082 18.0536 12.4139 18.0757C12.7422 18.0941 13.0484 18.0609 13.3287 18.0019C13.762 17.8744 14.1515 17.6293 14.4538 17.2937C14.7895 16.9248 15.0403 16.4342 15.376 15.8735C15.5649 15.5632 15.7642 15.2593 15.9736 14.9624C15.9775 14.9575 15.9793 14.9512 15.9786 14.945C15.9779 14.9388 15.9748 14.9331 15.9699 14.9292C15.965 14.9253 15.9587 14.9235 15.9525 14.9242C15.9463 14.9248 15.9406 14.928 15.9367 14.9329C15.7227 15.1911 15.5383 15.4419 15.3465 15.6669C15.0145 16.0653 14.6973 16.3936 14.3874 16.674C14.0582 17.0001 13.6301 17.2077 13.1701 17.2642C12.8423 17.3186 12.509 17.3323 12.1779 17.3047C11.6412 17.2845 11.1064 17.229 10.5769 17.1387C9.89809 17.0196 9.22383 16.8756 8.55551 16.7072C7.65914 16.4821 6.91402 16.2645 6.51195 16.2903C6.08405 16.3051 5.78895 16.5117 5.65247 16.7699C5.60908 16.8456 5.58132 16.9293 5.57083 17.016C5.56034 17.1026 5.56734 17.1905 5.59142 17.2744C5.61549 17.3584 5.65615 17.4366 5.71099 17.5045C5.76583 17.5725 5.83373 17.6287 5.91068 17.6699C5.91335 17.6714 5.91627 17.6723 5.91929 17.6726C5.92231 17.6729 5.92536 17.6727 5.92827 17.6718C5.93118 17.6709 5.93389 17.6695 5.93626 17.6676C5.93862 17.6657 5.94058 17.6634 5.94204 17.6607C5.94349 17.658 5.9444 17.6551 5.94473 17.6521C5.94505 17.6491 5.94478 17.646 5.94392 17.6431C5.94306 17.6402 5.94164 17.6375 5.93974 17.6351C5.93783 17.6328 5.93548 17.6308 5.93281 17.6293L5.92913 17.633Z" fill="url(#paint3_linear_29539_3010)"/>
<path fill-rule="evenodd" clip-rule="evenodd" d="M5.91078 17.681C5.63412 17.5961 5.46813 17.2014 5.59724 16.8436C5.68577 16.6002 5.92185 16.3752 6.36449 16.2903C6.54893 16.2534 6.98051 16.3272 7.53751 16.46C7.88426 16.5411 8.28264 16.6444 8.69578 16.7662C9.46673 16.9838 10.293 17.2346 11.0344 17.3859C11.4468 17.4752 11.8668 17.5246 12.2886 17.5334C12.5985 17.5223 12.8567 17.456 13.0706 17.3268C13.303 17.1904 13.4911 16.9949 13.6313 16.7514C13.9301 16.2202 13.9817 15.4714 14.192 14.6267C14.2698 14.3344 14.3659 14.0474 14.4797 13.7672H14.4723C14.299 14.0881 14.1699 14.4091 14.0297 14.7078C13.8156 15.1715 13.5704 15.6201 13.2956 16.0505C13.168 16.2511 13.0041 16.4263 12.8124 16.567C12.6451 16.6963 12.444 16.7744 12.2333 16.792C11.6431 16.8879 10.7947 16.8473 9.92044 16.7477C9.3257 16.6811 8.73283 16.5987 8.14247 16.5006C7.28668 16.353 6.60057 16.2165 6.35712 16.2682C5.91447 16.3604 5.6747 16.5891 5.58248 16.8399C5.44969 17.2014 5.62306 17.6035 5.90709 17.692C5.90786 17.6932 5.90893 17.6941 5.91019 17.6947C5.91145 17.6952 5.91284 17.6954 5.91421 17.6952C5.91558 17.6951 5.91686 17.6945 5.91793 17.6936C5.91899 17.6927 5.91978 17.6916 5.92022 17.6903C5.92066 17.689 5.92072 17.6875 5.9204 17.6862C5.92007 17.6849 5.91938 17.6836 5.9184 17.6827C5.91741 17.6817 5.91618 17.681 5.91483 17.6807C5.91349 17.6804 5.91208 17.6805 5.91078 17.681Z" fill="url(#paint4_linear_29539_3010)"/>
<path fill-rule="evenodd" clip-rule="evenodd" d="M14.4724 13.4648C14.4724 13.4648 14.6789 13.1844 15.5605 11.6683C15.6454 11.5208 15.7855 11.4101 15.9478 11.3585C16.4053 11.2109 17.2647 10.8679 17.6594 10.167C18.1021 9.38501 18.5226 8.13083 19.4448 6.78444C19.7657 6.30491 20.8391 5.07656 21.5916 5.41961C22.3404 5.76635 21.9236 7.27505 21.4219 8.16403C20.6842 9.47354 19.5112 10.5838 19.1128 11.4396C18.8816 11.9889 18.8325 12.5978 18.9726 13.177C19.0095 13.3504 18.9837 13.5311 18.8915 13.6824C18.5441 14.2964 18.1875 14.9051 17.8217 15.5083L14.4724 13.4648ZM20.4813 6.57419C20.6104 6.41188 20.876 6.18687 21.1158 6.33442C21.3371 6.47459 21.2486 6.78813 21.1711 6.99101C21.0752 7.24185 20.7764 7.63654 20.4334 7.45211C20.1051 7.27505 20.3042 6.79551 20.4813 6.57419Z" fill="#371B01" fill-opacity="0.3"/>
<path d="M14.3136 13.4279L14.4132 13.4906C14.4464 13.498 14.4796 13.5164 14.5165 13.5422C14.535 13.557 14.5386 13.5791 14.5239 13.5976C14.4501 13.6935 14.3763 13.7931 14.2989 13.8816C14.1882 13.9996 14.096 14.1398 13.9964 14.2689C13.9005 14.3906 13.812 14.5161 13.7382 14.6415C13.646 14.8075 13.5206 14.9624 13.4726 15.1468C13.4578 15.1948 13.4394 15.2391 13.4283 15.287C13.4173 15.3239 13.3988 15.3571 13.3804 15.3903C13.3509 15.4493 13.3324 15.5083 13.3066 15.5674L13.2734 15.667C13.2172 15.8464 13.1705 16.0286 13.1332 16.2129C13.1205 16.2944 13.097 16.3738 13.0631 16.449C13.0521 16.4785 13.041 16.508 13.0373 16.5338L13.0299 16.6186C13.0299 16.6482 13.0152 16.6666 12.9931 16.6703L13.041 16.9765C13.0484 17.0133 13.0558 17.0133 13.0631 16.9765C13.0816 16.8658 13.1 16.7441 13.1259 16.6186C13.1611 16.4446 13.2041 16.2723 13.255 16.1022C13.2992 15.951 13.373 15.8071 13.4394 15.667C13.4597 15.6178 13.4871 15.5718 13.5206 15.5305C13.5464 15.4973 13.5759 15.4936 13.6128 15.5083C13.6201 15.512 13.6201 15.5194 13.6201 15.5268L13.5464 15.8219C13.5206 15.9104 13.5095 16.0063 13.491 16.0948C13.4689 16.192 13.4541 16.2906 13.4468 16.3899C13.4608 16.4027 13.477 16.4127 13.4947 16.4195V16.4047L13.5021 16.401C13.5058 16.401 13.5095 16.3973 13.5095 16.3899C13.539 16.2682 13.5796 16.1502 13.598 16.0211C13.6714 15.539 13.8156 15.0704 14.0259 14.6304C14.0517 14.612 14.0554 14.5714 14.0739 14.5456C14.2114 14.3101 14.3616 14.0823 14.5239 13.8632C14.5728 13.8 14.6172 13.7334 14.6567 13.664C14.6604 13.6566 14.6714 13.6529 14.6825 13.6529C14.712 13.664 14.7452 13.6824 14.7821 13.7119L14.8817 13.7673C14.8891 13.7746 14.8928 13.782 14.8891 13.7894L14.8301 13.9148L14.6899 14.1841C14.6677 14.2357 14.6382 14.2837 14.6124 14.3316L14.3284 14.8554L14.2214 15.062C14.1773 15.1636 14.1343 15.2657 14.0923 15.3682C14.0665 15.4272 14.0554 15.4899 14.0185 15.5452C13.9853 15.6079 13.9558 15.6743 13.93 15.737L13.7935 16.0653C13.764 16.1391 13.7271 16.2018 13.705 16.2793C13.6517 16.4147 13.6049 16.5526 13.5648 16.6924C13.5464 16.7367 13.5353 16.7846 13.5316 16.8326C13.5316 16.84 13.5316 16.8437 13.5242 16.851L13.5132 16.8805L13.5095 16.899L13.4431 17.0097C13.44 17.0144 13.4353 17.0178 13.4298 17.0192C13.4243 17.0206 13.4185 17.0198 13.4136 17.017C13.3914 16.9986 13.3878 16.9801 13.3988 16.9543L13.4025 16.9359L13.3951 16.899C13.3693 17.1203 13.3361 17.3158 13.3029 17.4818C13.255 17.7363 13.1554 17.9724 13.0115 18.1974V18.2196C13.0115 18.2269 13.0152 18.2306 13.0226 18.2306C13.1332 18.2122 13.2291 18.1827 13.3103 18.1421C13.4689 18.0573 13.6349 17.9909 13.7456 17.9208C14.3456 17.5278 14.8807 17.0436 15.3317 16.4859C15.3797 16.4268 15.4313 16.3752 15.4793 16.3125C15.6999 16.0146 15.8972 15.7001 16.0695 15.3719C16.1736 15.1519 16.272 14.9293 16.3646 14.7042C16.3756 14.6673 16.3646 14.6157 16.3904 14.5825C16.4051 14.564 16.4162 14.5493 16.4162 14.5419C16.3056 14.4755 16.1912 14.4128 16.0805 14.3427C15.8481 14.1951 15.6416 14.0697 15.4608 13.9628C15.359 13.9049 15.2594 13.8434 15.162 13.7783L14.4354 13.332C14.4333 13.3302 14.4307 13.3292 14.428 13.3292C14.4253 13.3292 14.4226 13.3302 14.4206 13.332L14.3136 13.4279ZM15.3834 14.055L15.4608 14.114L15.4719 14.1177C15.4867 14.1177 15.494 14.114 15.5014 14.1029C15.5027 14.0994 15.5049 14.0963 15.5078 14.0938C15.5107 14.0914 15.5141 14.0897 15.5178 14.089C15.5215 14.0882 15.5253 14.0885 15.5289 14.0896C15.5325 14.0908 15.5357 14.0928 15.5383 14.0955L15.6121 14.1472C15.6305 14.1583 15.6453 14.173 15.649 14.1915L15.6637 14.2099C15.7154 14.2615 15.7854 14.2947 15.8481 14.3353C15.9109 14.3796 15.9846 14.4128 16.051 14.4607C16.0584 14.4681 16.0621 14.4792 16.0547 14.4902C16.0045 14.5746 15.9625 14.6635 15.9293 14.7558C15.9293 14.7743 15.9293 14.778 15.9477 14.7669C15.9677 14.7479 15.984 14.7254 15.9957 14.7005C16.0326 14.6304 16.0695 14.5898 16.1064 14.5198C16.1137 14.5013 16.1285 14.4976 16.1432 14.5087L16.276 14.5935C16.2834 14.6009 16.2871 14.612 16.2871 14.623C16.2175 14.8171 16.1311 15.0047 16.0289 15.1837L15.826 15.5157C15.5987 15.8887 15.3288 16.2341 15.0219 16.5449C14.8134 16.7652 14.572 16.9519 14.3063 17.0982C14.1944 17.1632 14.0721 17.2082 13.9448 17.231C13.9418 17.2325 13.9384 17.233 13.9351 17.2323C13.9318 17.2317 13.9288 17.2299 13.9267 17.2273C13.9245 17.2247 13.9233 17.2215 13.9232 17.2181C13.9232 17.2148 13.9243 17.2115 13.9263 17.2088C13.9825 17.046 14.0465 16.886 14.1181 16.7293C14.1292 16.685 14.155 16.6445 14.1735 16.6002V16.5781L14.1808 16.567L14.1956 16.5523L14.2694 16.3457L14.4538 15.8809L14.5718 15.6227C14.571 15.5815 14.584 15.5413 14.6087 15.5083L14.6124 15.4862C14.6124 15.4678 14.6198 15.4493 14.6309 15.4383C14.6382 15.4346 14.6382 15.4272 14.6382 15.4235C14.6382 15.4014 14.6456 15.3866 14.6567 15.3682C14.6862 15.3165 14.6788 15.2649 14.6346 15.2206C14.6235 15.2059 14.6087 15.2022 14.594 15.2022C14.5755 15.2022 14.5645 15.2059 14.5571 15.2206C14.5571 15.228 14.5497 15.2317 14.546 15.2317C14.5386 15.2391 14.5313 15.2464 14.5313 15.2575L14.5276 15.2686L14.4169 15.4087L14.3358 15.5268L14.3284 15.5305H14.321V15.5231C14.3506 15.4714 14.3753 15.4171 14.3948 15.3608C14.4371 15.2743 14.4777 15.187 14.5165 15.0989L14.6014 14.9255L14.6936 14.7558C14.8669 14.4718 15.0551 14.1988 15.2616 13.9332C15.269 13.9222 15.2727 13.9222 15.2801 13.9332C15.2875 13.9369 15.2911 13.948 15.2875 13.9554C15.2875 13.9738 15.2875 13.9849 15.2985 13.9996C15.3096 14.0144 15.3354 14.0328 15.3834 14.0513V14.055ZM14.3136 13.4279L14.0185 13.7377C13.6064 14.1846 13.299 14.7176 13.1185 15.2981C13.1452 15.278 13.1677 15.253 13.1849 15.2243C13.1959 15.2059 13.207 15.1874 13.2218 15.18C13.2401 15.1651 13.2585 15.1504 13.2771 15.1358C13.2845 15.1173 13.2955 15.1063 13.3103 15.0989L13.325 15.0841C13.3619 15.0214 13.3804 14.9513 13.4136 14.8849C13.5427 14.6415 13.6792 14.4165 13.8304 14.2025C13.8931 14.114 13.9669 14.0328 14.0333 13.9443C14.1627 13.7941 14.2893 13.6416 14.4132 13.4869L14.3136 13.4279ZM14.4132 13.4906C14.2893 13.6453 14.1627 13.7978 14.0333 13.948C13.9669 14.0328 13.8931 14.114 13.8304 14.2062C13.6829 14.4165 13.5427 14.6415 13.4136 14.8849C13.3767 14.9513 13.3619 15.0214 13.325 15.0841L13.3103 15.0989C13.2955 15.1063 13.2845 15.1173 13.2734 15.1358C13.2548 15.1516 13.2364 15.1676 13.2181 15.1837L13.1812 15.2243C13.1651 15.2526 13.1438 15.2777 13.1185 15.2981C13.0375 15.5337 12.9903 15.7796 12.9783 16.0284C12.9672 16.235 12.9746 16.449 12.9968 16.6703C13.0152 16.6666 13.0263 16.6482 13.0299 16.6186C13.0299 16.5891 13.0299 16.5596 13.0373 16.5338C13.041 16.508 13.0521 16.4785 13.0631 16.449C13.097 16.3738 13.1205 16.2944 13.1332 16.2129C13.1789 15.9943 13.238 15.7787 13.3103 15.5674C13.3324 15.5083 13.3472 15.4493 13.3804 15.3903C13.3988 15.3534 13.4173 15.3276 13.4283 15.287C13.4394 15.2391 13.4578 15.1948 13.4726 15.1468C13.5206 14.9624 13.646 14.8075 13.7419 14.6415C13.8157 14.5161 13.9005 14.3906 13.9964 14.2726C14.096 14.1435 14.1882 13.9996 14.2989 13.8816C14.38 13.7931 14.4501 13.6935 14.5239 13.5976C14.5386 13.5791 14.535 13.557 14.5165 13.5459C14.4796 13.5164 14.4427 13.498 14.4132 13.4906ZM14.0702 14.5456L14.0554 14.6009V14.6083C14.0554 14.6157 14.0628 14.623 14.0739 14.623H14.0776L14.096 14.6046L14.1698 14.5124L14.2878 14.3648C14.3985 14.2099 14.5165 14.0587 14.6456 13.9148C14.7009 13.8521 14.7452 13.7857 14.7784 13.7119C14.7415 13.6824 14.7046 13.664 14.6788 13.6529C14.6678 13.6529 14.6567 13.6529 14.653 13.664C14.6137 13.7335 14.5693 13.8001 14.5202 13.8632L14.4022 14.0292C14.2841 14.1951 14.1771 14.3685 14.0739 14.5456H14.0702ZM14.7784 13.7119C14.7415 13.7857 14.7009 13.8521 14.6456 13.9148C14.5165 14.0624 14.3985 14.2099 14.2878 14.3648L14.1698 14.5124C14.1386 14.55 14.1066 14.5869 14.0739 14.623C14.0709 14.6246 14.0675 14.6251 14.0642 14.6244C14.0609 14.6237 14.0579 14.622 14.0558 14.6194C14.0536 14.6168 14.0524 14.6136 14.0523 14.6102C14.0523 14.6068 14.0534 14.6036 14.0554 14.6009L14.0702 14.5456C14.048 14.5714 14.048 14.612 14.0222 14.6304L14.0112 14.6452C13.8069 15.0824 13.6677 15.5472 13.598 16.0248C13.5759 16.1502 13.5353 16.2682 13.5058 16.3936L13.4984 16.401H13.491V16.4195C13.4763 16.4158 13.4615 16.4047 13.4431 16.3899L13.3914 16.899L13.3988 16.9359V16.9543C13.3841 16.9801 13.3878 16.9986 13.4099 17.017C13.4144 17.0202 13.4199 17.0216 13.4254 17.0209C13.4308 17.0202 13.4358 17.0175 13.4394 17.0133L13.5058 16.899L13.5095 16.8805C13.5095 16.8695 13.5169 16.8584 13.5206 16.851L13.5279 16.8326C13.5316 16.7846 13.5427 16.7367 13.5611 16.6924C13.5934 16.6028 13.6254 16.513 13.657 16.4231C13.6736 16.3745 13.6884 16.3253 13.7013 16.2756C13.7234 16.2018 13.7603 16.1391 13.7898 16.0653C13.8341 15.9547 13.882 15.8514 13.9263 15.7334C13.9521 15.6743 13.9816 15.6079 14.0185 15.5452C14.048 15.4899 14.0628 15.4272 14.0886 15.3682C14.1306 15.2657 14.1736 15.1636 14.2177 15.062C14.2472 14.9882 14.2915 14.9255 14.3284 14.8554C14.4427 14.629 14.562 14.4052 14.6862 14.1841L14.8264 13.9148L14.8854 13.7894C14.8891 13.782 14.8854 13.7746 14.878 13.7673L14.7784 13.7119ZM14.4095 15.4087C14.5414 15.1886 14.6755 14.9697 14.8116 14.7521C14.8743 14.6562 14.9702 14.5308 15.1067 14.3796C15.1362 14.3427 15.1584 14.3021 15.1842 14.2615L15.2579 14.1841C15.3022 14.1472 15.3428 14.1029 15.3797 14.0513C15.3317 14.0328 15.3059 14.0144 15.2948 13.9996C15.2838 13.9849 15.2838 13.9738 15.2838 13.9554C15.2838 13.948 15.2838 13.9369 15.2764 13.9296C15.269 13.9222 15.2653 13.9222 15.2579 13.9296C15.0155 14.2462 14.7949 14.5789 14.5977 14.9255C14.5512 15.0264 14.502 15.126 14.4501 15.2243C14.4082 15.3261 14.3639 15.427 14.3173 15.5268L14.3247 15.5305H14.3321L14.4132 15.4087H14.4095ZM15.3797 14.0513C15.3428 14.1029 15.3059 14.1472 15.2616 14.1841C15.2247 14.2136 15.2026 14.2394 15.1879 14.2615C15.1584 14.2984 15.1362 14.3427 15.103 14.3796C14.9979 14.4961 14.9006 14.6193 14.8116 14.7485L14.4575 15.3165C14.439 15.3423 14.4243 15.3755 14.4132 15.4087L14.5239 15.2686L14.5276 15.2575C14.5276 15.2464 14.535 15.2391 14.5423 15.2317C14.5497 15.2317 14.5534 15.2243 14.5534 15.2206C14.5608 15.2059 14.5718 15.2022 14.5903 15.2022C14.605 15.2022 14.6198 15.2059 14.6272 15.2169C14.6751 15.2649 14.6825 15.3165 14.653 15.3645C14.6419 15.3829 14.6382 15.4014 14.6346 15.4235C14.6346 15.4272 14.6346 15.4346 14.6272 15.4383C14.6161 15.4493 14.6124 15.4678 14.6087 15.4862C14.6087 15.4936 14.6087 15.501 14.6014 15.5083C14.5792 15.5452 14.5645 15.5821 14.5682 15.6264C14.6425 15.4908 14.7102 15.3517 14.771 15.2095C14.8026 15.1528 14.8321 15.095 14.8596 15.0362C14.9648 14.8368 15.0831 14.6446 15.2137 14.4607C15.2911 14.3501 15.3834 14.2468 15.4682 14.1361C15.4756 14.1251 15.494 14.1214 15.5051 14.1287L15.6194 14.1988C15.6342 14.2062 15.6342 14.2173 15.6231 14.2283C15.4276 14.4386 15.2543 14.6673 15.092 14.9108L14.8706 15.2427C14.771 15.4051 14.6973 15.5821 14.605 15.7481C14.5018 15.9325 14.4317 16.1096 14.3395 16.2903C14.3395 16.3014 14.3284 16.3088 14.321 16.3162C14.3136 16.3235 14.3099 16.3346 14.3063 16.3494L14.2989 16.3678C14.2915 16.3789 14.2878 16.3752 14.2841 16.3678C14.2841 16.3494 14.2767 16.342 14.2694 16.342L14.1956 16.5486L14.1808 16.5633L14.1771 16.5744V16.5965C14.155 16.6408 14.1292 16.6814 14.1181 16.7256L14.096 16.7883C14.0333 16.9285 13.9767 17.0712 13.9263 17.2162C13.9263 17.2236 13.9374 17.2273 13.9448 17.2273C14.0721 17.2045 14.1944 17.1595 14.3063 17.0945C14.439 17.0207 14.5497 16.9469 14.6456 16.8732C14.7747 16.7736 14.9149 16.6666 15.0219 16.5412C15.0956 16.4527 15.1694 16.3678 15.2469 16.2867C15.5497 15.9503 15.811 15.5788 16.0252 15.18C16.1274 15.001 16.2138 14.8134 16.2834 14.6194C16.2871 14.6083 16.2834 14.5972 16.276 14.5898L16.1469 14.505C16.1285 14.4939 16.1137 14.4976 16.1027 14.5161C16.0658 14.5825 16.0289 14.6267 15.9957 14.6968C15.984 14.7217 15.9677 14.7443 15.9477 14.7632C15.933 14.7743 15.9256 14.7706 15.9293 14.7521L15.9404 14.7042C15.9736 14.6304 16.0141 14.5566 16.0547 14.4829C16.0621 14.4755 16.0584 14.4644 16.051 14.457C15.9846 14.4091 15.9109 14.3759 15.8445 14.3316C15.7854 14.2911 15.7154 14.2579 15.6637 14.2062L15.6526 14.1878C15.6453 14.1693 15.6305 14.1509 15.6121 14.1435L15.5383 14.0919C15.5357 14.0891 15.5325 14.0871 15.5289 14.0859C15.5253 14.0848 15.5215 14.0845 15.5178 14.0853C15.5141 14.086 15.5107 14.0877 15.5078 14.0901C15.5049 14.0926 15.5027 14.0957 15.5014 14.0992C15.494 14.1103 15.4867 14.1177 15.4719 14.114L15.4608 14.1103L15.3834 14.0476L15.3797 14.0513ZM14.5682 15.6264C14.5249 15.7106 14.4855 15.7968 14.4501 15.8846L14.2657 16.3457C14.2731 16.3457 14.2767 16.3531 14.2804 16.3678C14.2804 16.3789 14.2878 16.3826 14.2952 16.3715L14.3026 16.3531C14.3026 16.3383 14.3099 16.3272 14.3173 16.3199L14.3358 16.294C14.428 16.1133 14.4981 15.9325 14.6014 15.7518C14.6936 15.5858 14.7673 15.4087 14.8706 15.2501L15.0883 14.9144C15.2469 14.671 15.4239 14.4423 15.6194 14.232C15.6305 14.221 15.6305 14.2099 15.6194 14.2025L15.5051 14.1324C15.4987 14.1281 15.4909 14.1265 15.4833 14.1279C15.4757 14.1292 15.469 14.1335 15.4645 14.1398C15.3797 14.2505 15.2875 14.3538 15.21 14.4644C15.0175 14.7301 14.8519 15.0143 14.7157 15.3128C14.6718 15.4197 14.6225 15.5244 14.5682 15.6264ZM16.4125 14.5419C16.4125 14.5493 16.4015 14.564 16.3867 14.5825C16.3609 14.6157 16.3719 14.6636 16.3572 14.7042C16.2646 14.9293 16.1662 15.1519 16.0621 15.3719C15.8982 15.7048 15.7004 16.0201 15.4719 16.3125C15.4276 16.3752 15.376 16.4268 15.328 16.4895C14.8768 17.046 14.3416 17.5289 13.7419 17.9208C13.6312 17.9909 13.4652 18.0573 13.3066 18.1421C13.2255 18.1827 13.1295 18.2159 13.0189 18.2306C13.0115 18.2306 13.0078 18.2306 13.0078 18.2196V18.1974L12.9709 18.2638L12.9672 18.2675C12.966 18.2696 12.9653 18.272 12.9652 18.2745C12.9651 18.2769 12.9657 18.2794 12.9668 18.2816C12.9679 18.2838 12.9695 18.2857 12.9715 18.2871C12.9735 18.2885 12.9759 18.2894 12.9783 18.2896C13.207 18.3118 13.4357 18.2528 13.6533 18.2085C13.7714 18.1827 13.8857 18.1495 13.9964 18.1089C14.2767 18.0056 14.5534 17.8839 14.8301 17.7437C14.996 17.6589 15.1584 17.5593 15.3096 17.4486C15.3465 17.4191 15.3907 17.4007 15.4203 17.3712C15.4571 17.3416 15.5014 17.3269 15.5383 17.3048C15.5567 17.2974 15.5752 17.3011 15.5973 17.2974C15.601 17.2965 15.6049 17.2969 15.6085 17.2984C15.612 17.2998 15.615 17.3024 15.617 17.3056C15.619 17.3088 15.62 17.3126 15.6198 17.3164C15.6195 17.3203 15.6181 17.3239 15.6158 17.3269C15.5061 17.5014 15.3691 17.6571 15.21 17.788C15.1952 17.799 15.1952 17.8027 15.2174 17.7954C15.9119 17.5284 16.5124 17.0627 16.9437 16.4563C17.2141 16.0893 17.4257 15.6823 17.5708 15.2501C17.5708 15.2427 17.5708 15.2317 17.5597 15.2243L16.8109 14.778C16.8626 14.8333 16.8294 14.8886 16.8626 14.9476C16.881 14.955 16.8994 14.9661 16.9105 14.9845H16.9253C16.9289 14.9808 16.9363 14.9845 16.94 14.9845C16.9953 15.0272 17.0578 15.0596 17.1245 15.0804C17.1318 15.0804 17.1392 15.0841 17.1429 15.0915C17.1576 15.1136 17.1798 15.121 17.1982 15.1358C17.2462 15.18 17.3089 15.2095 17.3716 15.2317C17.3974 15.2391 17.4085 15.2538 17.3937 15.2759C17.2508 15.6706 17.0425 16.0385 16.7777 16.3641C16.6297 16.5503 16.4558 16.7143 16.2613 16.851C16.2318 16.8732 16.2244 16.8695 16.2539 16.8363C16.3424 16.733 16.4125 16.6334 16.4937 16.5006L16.6338 16.2867C16.7025 16.1891 16.7642 16.0868 16.8183 15.9805C16.889 15.84 16.9579 15.6986 17.0249 15.5563L17.0507 15.4936L17.0876 15.4161C17.1171 15.3423 17.1281 15.2686 17.1577 15.1948C17.165 15.1764 17.165 15.1579 17.165 15.1358C17.165 15.1247 17.1613 15.121 17.1503 15.1321C17.1503 15.1358 17.1466 15.1395 17.1503 15.1468L17.1429 15.1616C17.0476 15.4004 16.9264 15.628 16.7814 15.8403C16.7646 15.8639 16.7433 15.884 16.7187 15.8993C16.6762 15.923 16.6406 15.9573 16.6154 15.9989L16.4494 16.294C16.3252 16.4911 16.1832 16.6763 16.0252 16.8473C15.9219 16.9543 15.8149 17.0539 15.7043 17.1461L15.5936 17.2494C15.5899 17.2568 15.5826 17.2605 15.5752 17.2605H15.5309C15.5198 17.2605 15.5125 17.2605 15.5088 17.2457L15.4977 17.2347L15.4498 17.2162L15.4129 17.1793C15.3944 17.1498 15.3723 17.1351 15.3465 17.1388C15.2227 17.215 15.0932 17.2816 14.9592 17.338C15.1988 17.083 15.4207 16.8118 15.6231 16.5264C15.7449 16.3346 15.8813 16.0985 16.0363 15.8219C16.11 15.6891 16.1912 15.512 16.276 15.3571C16.364 15.1904 16.4404 15.0178 16.5047 14.8407C16.5047 14.8112 16.5047 14.7817 16.5232 14.7558C16.5232 14.7485 16.5306 14.7448 16.5379 14.7485H16.5564C16.5638 14.7521 16.5711 14.7485 16.5748 14.7411L16.6043 14.6525L16.4199 14.5419H16.4125ZM16.6007 14.6525L16.5711 14.7411C16.5675 14.7521 16.5601 14.7521 16.5527 14.7521L16.5343 14.7485C16.5269 14.7485 16.5232 14.7485 16.5195 14.7558C16.5047 14.7817 16.4974 14.8112 16.5011 14.8407L16.5232 14.8038C16.5258 14.7987 16.5295 14.7942 16.5341 14.7906C16.5386 14.7871 16.5438 14.7845 16.5494 14.7831C16.555 14.7817 16.5608 14.7815 16.5664 14.7825C16.5721 14.7836 16.5775 14.7858 16.5822 14.789L16.6338 14.8259L16.8626 14.9476C16.8257 14.8923 16.8626 14.8333 16.8109 14.778L16.6007 14.6525ZM16.5047 14.8407C16.4404 15.0178 16.364 15.1904 16.276 15.3571C16.1912 15.512 16.11 15.6891 16.0363 15.8219C15.9065 16.062 15.7674 16.297 15.6194 16.5264C15.601 16.5596 15.5494 16.626 15.4719 16.7293C15.4719 16.7478 15.4867 16.7514 15.5088 16.7478C15.5198 16.7478 15.5272 16.7404 15.5346 16.733C15.601 16.6666 15.66 16.5965 15.7043 16.5227L15.8149 16.3531L16.0105 16.0764C16.04 16.0321 16.0695 15.9842 16.0916 15.9289C16.1285 15.85 16.1704 15.7736 16.217 15.7002L16.2428 15.6448C16.3535 15.4014 16.4789 15.1653 16.6191 14.9403C16.6302 14.923 16.6376 14.9035 16.6408 14.8832C16.644 14.8629 16.6429 14.8421 16.6375 14.8222L16.5859 14.789C16.5638 14.778 16.5379 14.7817 16.5269 14.8038L16.5047 14.8407ZM16.6375 14.8222C16.6429 14.8421 16.644 14.8629 16.6408 14.8832C16.6376 14.9035 16.6302 14.923 16.6191 14.9403C16.4604 15.202 16.3175 15.473 16.1912 15.7518C16.1543 15.8145 16.1174 15.8735 16.0916 15.9325C16.0695 15.9842 16.04 16.0321 16.0105 16.0764C15.9095 16.2247 15.8075 16.3723 15.7043 16.5191C15.6574 16.5976 15.6004 16.6695 15.5346 16.733L15.5088 16.7478C15.4867 16.7514 15.4719 16.7478 15.4719 16.7293C15.313 16.9421 15.1431 17.1465 14.9628 17.3416C15.134 17.2645 15.2971 17.1706 15.4498 17.0613C15.553 16.9875 15.649 16.899 15.7449 16.8142C15.8071 16.7623 15.8651 16.7056 15.9182 16.6445C16.231 16.3177 16.4832 15.938 16.6634 15.5231C16.6828 15.483 16.7037 15.4436 16.7261 15.4051C16.7583 15.3486 16.7855 15.2893 16.8072 15.228L16.8146 15.2169L16.8367 15.1616C16.8662 15.11 16.881 15.0509 16.8847 14.9956C16.8847 14.9772 16.8736 14.9587 16.8662 14.9476L16.6375 14.8222ZM16.8662 14.9476C16.8736 14.9624 16.8884 14.9772 16.8847 14.9956C16.8847 15.0546 16.8662 15.1063 16.8367 15.1616C16.8277 15.1793 16.8203 15.1979 16.8146 15.2169L16.8072 15.228L16.7962 15.2427C16.774 15.3055 16.7519 15.3571 16.7261 15.4051C16.4976 15.9353 16.1652 16.4144 15.7486 16.8142C15.649 16.899 15.553 16.9875 15.4498 17.0613L15.3465 17.1388C15.3723 17.1388 15.3944 17.1498 15.4166 17.183L15.4498 17.2162L15.4977 17.2347L15.5088 17.2457C15.5088 17.2568 15.5198 17.2642 15.5309 17.2642L15.5752 17.2605C15.5826 17.2605 15.5899 17.2568 15.5936 17.2494L15.7043 17.1461C15.8149 17.0539 15.9256 16.9543 16.0252 16.851C16.2596 16.5964 16.4581 16.3109 16.6154 16.0026C16.6338 15.9657 16.667 15.9289 16.7187 15.8993C16.7433 15.884 16.7646 15.8639 16.7814 15.8403C16.9309 15.619 17.0546 15.3814 17.1503 15.1321C17.1613 15.121 17.165 15.1247 17.165 15.1358C17.165 15.1579 17.165 15.1727 17.1577 15.1948C17.1281 15.2686 17.1171 15.3423 17.0839 15.4161C17.0621 15.4619 17.0424 15.5087 17.0249 15.5563L17.0064 15.6006L16.988 15.6448L16.822 15.9768C16.7668 16.0845 16.7039 16.188 16.6338 16.2867C16.5846 16.3563 16.5378 16.4276 16.4937 16.5006C16.422 16.6182 16.3419 16.7304 16.2539 16.8363C16.2281 16.8695 16.2318 16.8732 16.265 16.851C16.4582 16.714 16.6309 16.55 16.7777 16.3641C17.0425 16.0385 17.2508 15.6706 17.3937 15.2759C17.4048 15.2538 17.3974 15.2391 17.3716 15.2317C17.3073 15.2132 17.248 15.1804 17.1982 15.1358C17.1798 15.121 17.1613 15.1136 17.1466 15.0915C17.1407 15.0854 17.1329 15.0815 17.1245 15.0804C17.0578 15.0596 16.9953 15.0272 16.94 14.9845C16.9377 14.9835 16.9352 14.983 16.9326 14.983C16.9301 14.983 16.9276 14.9835 16.9253 14.9845H16.9179C16.9031 14.9661 16.8847 14.955 16.8662 14.9476Z" fill="#292929" fill-opacity="0.6"/>
<path d="M14.3099 13.2177C14.3099 13.2177 13.4431 14.0181 13.148 14.8038C12.9414 15.3571 12.816 15.7186 12.8898 16.5597L12.934 16.8621C12.9414 16.9027 12.9451 16.9027 12.9525 16.8621L13.0189 16.508C13.0484 16.3273 13.1 16.1613 13.148 15.9916C13.1886 15.8367 13.2587 15.6965 13.3287 15.5526C13.3509 15.5047 13.3804 15.4604 13.4099 15.4161C13.4357 15.3866 13.4652 15.3793 13.5021 15.3977C13.5095 15.3977 13.5132 15.4051 13.5095 15.4125L13.4357 15.7076C13.4099 15.7998 13.3988 15.892 13.3841 15.9805C13.3607 16.0775 13.3447 16.1762 13.3361 16.2756C13.3546 16.2941 13.2882 16.7847 13.2882 16.7847C13.2639 16.9799 13.2331 17.1743 13.1959 17.3675C13.1443 17.6257 13.0484 17.8618 12.9008 18.0831V18.1089C12.9008 18.1163 12.9082 18.12 12.9156 18.1163C13.0263 18.1015 13.1222 18.072 13.1996 18.0278C13.3619 17.9429 13.5279 17.8802 13.6386 17.8064C14.2384 17.4145 14.7735 16.9317 15.2248 16.3752L15.3686 16.2018C15.5088 16.0026 15.6268 15.8367 15.708 15.7039C15.8186 15.5194 15.9072 15.3719 15.9588 15.2612C16.063 15.04 16.1614 14.8162 16.2539 14.5899C16.265 14.553 16.2539 14.505 16.2797 14.4718L16.3092 14.4276C16.1986 14.3612 16.0805 14.2985 15.9699 14.2284C15.7412 14.0808 15.5346 13.9554 15.3502 13.8484C15.2395 13.7857 15.1436 13.7267 15.0551 13.6677L14.321 13.2177H14.3063H14.3099Z" fill="url(#paint5_linear_29539_3010)"/>
<path d="M16.3093 14.4276C16.3093 14.4386 16.2982 14.4497 16.2797 14.4718C16.2539 14.505 16.2687 14.553 16.2539 14.5899L16.1949 14.7411C16.1207 14.9152 16.042 15.0874 15.9588 15.2575C15.9072 15.3719 15.8223 15.5194 15.708 15.7002C15.6231 15.8367 15.5088 16.0026 15.3686 16.2018C15.3207 16.2609 15.269 16.3125 15.2211 16.3752C14.7698 16.9317 14.2347 17.4145 13.6349 17.8064C13.5243 17.8802 13.3619 17.9429 13.1996 18.0278C13.1222 18.072 13.0263 18.1015 12.9156 18.1163C12.9082 18.1163 12.9045 18.1163 12.9045 18.1089V18.0831L12.864 18.1532C12.8627 18.1553 12.862 18.1577 12.8619 18.1602C12.8619 18.1626 12.8624 18.1651 12.8635 18.1672C12.8646 18.1694 12.8662 18.1713 12.8682 18.1727C12.8703 18.1742 12.8726 18.175 12.875 18.1753C13.1 18.1974 13.3288 18.1421 13.5501 18.0942C13.6644 18.072 13.7788 18.0388 13.8931 17.9946C14.1735 17.8913 14.4464 17.7732 14.7231 17.6331C14.8891 17.5482 15.0514 17.4486 15.2063 17.3343C15.2432 17.3085 15.2875 17.2863 15.317 17.2605C15.3502 17.231 15.3908 17.2126 15.4313 17.1941C15.4535 17.183 15.4682 17.1867 15.494 17.183C15.4978 17.1822 15.5017 17.1825 15.5052 17.184C15.5087 17.1855 15.5117 17.188 15.5137 17.1913C15.5157 17.1945 15.5167 17.1983 15.5165 17.2021C15.5163 17.2059 15.5149 17.2096 15.5125 17.2126C15.4029 17.387 15.2659 17.5427 15.1067 17.6736C15.8026 17.411 16.4056 16.9491 16.8404 16.3457C17.1097 15.9916 17.3126 15.5674 17.4638 15.1395C17.4675 15.1284 17.4638 15.1173 17.4528 15.1137L16.3093 14.4276Z" fill="url(#paint6_linear_29539_3010)"/>
<path d="M14.2067 13.3173L13.9116 13.6271C13.5058 14.0698 13.1775 14.612 13.0078 15.1875C13.0345 15.1674 13.0571 15.1423 13.0742 15.1137C13.0853 15.0915 13.1 15.0768 13.1111 15.0694C13.1294 15.0532 13.1478 15.0372 13.1664 15.0215C13.1738 15.0067 13.1849 14.9956 13.2033 14.9846L13.2144 14.9698C13.2513 14.9071 13.2697 14.837 13.3029 14.7706C13.432 14.5309 13.5722 14.3022 13.7197 14.0919L13.9226 13.8337L14.0702 13.6492L14.3026 13.3763L14.2067 13.3173Z" fill="#FEF8FE" fill-opacity="0.9"/>
<path d="M13.9669 14.4349L13.9484 14.4902V14.4939C13.9481 14.4967 13.9485 14.4995 13.9496 14.502C13.9507 14.5046 13.9526 14.5067 13.9549 14.5083C13.9572 14.5098 13.9599 14.5107 13.9627 14.5107C13.9654 14.5108 13.9682 14.5101 13.9706 14.5087C14.0021 14.4725 14.0329 14.4356 14.0628 14.398L14.1845 14.2505C14.2952 14.0955 14.4132 13.948 14.5386 13.8041C14.592 13.7422 14.6378 13.674 14.6751 13.6013C14.6382 13.5717 14.6014 13.5496 14.5718 13.5422C14.5608 13.5422 14.5497 13.5422 14.546 13.5533C14.5067 13.6229 14.4624 13.6895 14.4132 13.7525L14.2915 13.9148C14.1771 14.0845 14.0702 14.2579 13.9669 14.4312V14.4349Z" fill="white" fill-opacity="0.7"/>
<path d="M14.3063 15.2944C14.3173 15.2612 14.3321 15.2317 14.3505 15.2022L14.7083 14.6378C14.771 14.5419 14.867 14.4165 14.9998 14.2689C15.0293 14.232 15.0514 14.1878 15.0772 14.1509C15.1 14.1211 15.126 14.0939 15.1547 14.0697C15.1995 14.0321 15.2392 13.9887 15.2727 13.9406C15.2285 13.9185 15.1989 13.9037 15.1879 13.8853C15.1805 13.8742 15.1768 13.8595 15.1805 13.8447C15.1805 13.8336 15.1805 13.8263 15.1731 13.8189C15.1657 13.8115 15.1584 13.8115 15.151 13.8189C14.9098 14.1356 14.6905 14.4684 14.4944 14.8148C14.4478 14.9157 14.3986 15.0153 14.3468 15.1136C14.3049 15.2154 14.2606 15.3163 14.2141 15.4161H14.2288L14.3063 15.2944Z" fill="white" fill-opacity="0.6"/>
<path d="M14.4612 15.5121C14.4179 15.5963 14.3785 15.6824 14.3431 15.7703L14.1587 16.2351C14.1661 16.2351 14.1734 16.2424 14.1771 16.2572C14.1771 16.2682 14.1808 16.2682 14.1882 16.2572L14.1956 16.2387C14.1956 16.2277 14.203 16.2166 14.214 16.2092L14.2325 16.1797C14.321 16.0027 14.3911 15.8219 14.4944 15.6412C14.5903 15.4715 14.664 15.2981 14.7636 15.1358L14.985 14.8038C15.143 14.561 15.3207 14.3315 15.5161 14.1177C15.5272 14.1066 15.5235 14.0956 15.5125 14.0882L15.4018 14.0218C15.3985 14.0191 15.3947 14.0171 15.3906 14.0159C15.3865 14.0148 15.3822 14.0146 15.378 14.0153C15.3738 14.016 15.3698 14.0176 15.3662 14.02C15.3627 14.0224 15.3597 14.0255 15.3575 14.0292C15.2764 14.1398 15.1842 14.2394 15.103 14.3501C14.9115 14.6171 14.7472 14.9026 14.6124 15.2022L14.4649 15.5121H14.4612ZM16.3941 14.73C16.3018 14.9698 16.2244 15.1432 16.1691 15.2465C16.0842 15.3977 15.9994 15.5748 15.9256 15.7113C15.7744 15.9842 15.6342 16.2203 15.5088 16.4158L15.3612 16.6187C15.3649 16.6334 15.376 16.6408 15.3981 16.6371L15.4239 16.6224C15.4908 16.5599 15.548 16.4878 15.5936 16.4084L15.7043 16.2424L15.8998 15.9621C15.9293 15.9178 15.9588 15.8699 15.9846 15.8182C16.0215 15.7394 16.0634 15.663 16.11 15.5895L16.1322 15.5342C16.2428 15.2907 16.3719 15.0547 16.5084 14.826C16.5306 14.7891 16.5379 14.7522 16.5269 14.7116L16.4752 14.6747C16.4702 14.6716 16.4647 14.6696 16.4588 14.6688C16.453 14.668 16.4471 14.6685 16.4414 14.6703C16.4358 14.672 16.4307 14.675 16.4263 14.6789C16.4219 14.6829 16.4185 14.6877 16.4162 14.6932L16.3978 14.73H16.3941Z" fill="white" fill-opacity="0.7"/>
<path d="M14.3026 13.3763C14.1786 13.5309 14.0519 13.6834 13.9226 13.8337L13.7197 14.0919C13.5722 14.3022 13.432 14.5309 13.3029 14.7706C13.2697 14.837 13.2513 14.9071 13.2144 14.9698L13.1996 14.9846C13.1849 14.9956 13.1738 15.0067 13.1664 15.0215C13.1478 15.0372 13.1294 15.0532 13.1111 15.0694C13.1 15.0768 13.0853 15.0915 13.0742 15.1137C13.0571 15.1423 13.0345 15.1674 13.0078 15.1875C12.9267 15.4272 12.8824 15.667 12.8676 15.9141C12.8566 16.1207 12.8676 16.3347 12.8861 16.5597C12.9082 16.5523 12.9193 16.5375 12.9193 16.5043L12.9267 16.4195C12.9326 16.39 12.9425 16.3615 12.9562 16.3347C12.9887 16.2593 13.011 16.1799 13.0226 16.0986C13.0684 15.8812 13.1275 15.6669 13.1996 15.4567C13.2254 15.3977 13.2402 15.335 13.2697 15.2797C13.2882 15.2428 13.3066 15.2133 13.3177 15.1764C13.3324 15.1284 13.3509 15.0842 13.3619 15.0362C13.4136 14.8518 13.5353 14.6932 13.6312 14.5309C13.705 14.4054 13.7898 14.28 13.8894 14.1583C13.989 14.0292 14.0775 13.8853 14.1882 13.7673C14.2694 13.6824 14.3431 13.5829 14.4169 13.4833C14.428 13.4685 14.4243 13.4464 14.4095 13.4316C14.3726 13.4058 14.3358 13.3873 14.3026 13.3763Z" fill="#FDB5CC" fill-opacity="0.6"/>
<path d="M14.6751 13.6013C14.6382 13.675 14.594 13.7414 14.5386 13.8041C14.4132 13.948 14.2915 14.0992 14.1845 14.2505C14.1476 14.3021 14.1034 14.3501 14.0628 14.398C14.0316 14.4356 13.9997 14.4725 13.9669 14.5087C13.9643 14.5095 13.9616 14.5096 13.959 14.5089C13.9564 14.5083 13.954 14.5069 13.9521 14.505C13.9502 14.5031 13.9489 14.5007 13.9482 14.4981C13.9476 14.4955 13.9477 14.4928 13.9484 14.4902L13.9669 14.4349C13.9448 14.4607 13.9411 14.4976 13.9189 14.5161L13.9042 14.5345C13.6999 14.9718 13.5607 15.4365 13.491 15.9141C13.4689 16.0358 13.432 16.1576 13.4025 16.2793L13.3914 16.2867L13.3841 16.2903V16.3051C13.3666 16.2995 13.3504 16.2908 13.3361 16.2793L13.2882 16.7846L13.2918 16.8215V16.84C13.2771 16.8658 13.2845 16.8879 13.3029 16.9064C13.3055 16.9084 13.3085 16.9097 13.3116 16.9105C13.3148 16.9112 13.3181 16.9112 13.3212 16.9105C13.3244 16.9098 13.3274 16.9084 13.33 16.9064C13.3325 16.9044 13.3346 16.9019 13.3361 16.899L13.3988 16.7883L13.4062 16.7662C13.4062 16.7551 13.4099 16.7478 13.4173 16.7367L13.4246 16.7219C13.4246 16.6703 13.4394 16.626 13.4541 16.5781C13.4865 16.4885 13.5185 16.3987 13.5501 16.3088C13.5685 16.2608 13.5869 16.2129 13.598 16.1649C13.6201 16.0912 13.657 16.0248 13.6829 15.951L13.8193 15.6227C13.8452 15.56 13.8747 15.4973 13.9116 15.4309C13.9411 15.3755 13.9595 15.3165 13.9853 15.2575C14.0222 15.1542 14.0665 15.0546 14.1107 14.9513C14.1439 14.8776 14.1845 14.8112 14.2214 14.7411C14.3358 14.5159 14.4551 14.2933 14.5792 14.0734C14.6235 13.9812 14.6788 13.8927 14.7194 13.8004L14.7784 13.6787C14.7821 13.6713 14.7784 13.6603 14.7747 13.6566L14.6751 13.6013Z" fill="#FFFAA5" fill-opacity="0.5"/>
<path d="M15.5568 14.0993C15.5494 14.0919 15.5272 14.1067 15.5162 14.1177C15.3196 14.3302 15.1407 14.5585 14.9813 14.8001L14.7637 15.1358C14.6641 15.2981 14.5903 15.4715 14.4944 15.6412C14.3911 15.8219 14.321 16.0027 14.2325 16.1797L14.2141 16.2092C14.203 16.2166 14.1993 16.2277 14.1956 16.2387C14.1956 16.2461 14.1956 16.2535 14.1882 16.2609C14.1809 16.2683 14.1772 16.2683 14.1772 16.2572C14.1735 16.2424 14.1661 16.2351 14.1587 16.2351L14.085 16.4379C14.085 16.4453 14.0776 16.449 14.0739 16.4527C14.0665 16.4564 14.0665 16.4601 14.0665 16.4674V16.4896C14.0481 16.5338 14.0222 16.5707 14.0075 16.6187C13.9357 16.7778 13.8717 16.9403 13.8157 17.1056C13.8157 17.113 13.8267 17.1204 13.8341 17.1204C13.9627 17.098 14.0864 17.053 14.1993 16.9876C14.3284 16.9138 14.4428 16.84 14.5313 16.7662C14.6641 16.6666 14.8043 16.5597 14.9112 16.4342L15.1362 16.176C15.2285 16.0838 15.2985 15.999 15.3576 15.9252C15.57 15.6575 15.7577 15.3711 15.9183 15.0694C16.0204 14.8903 16.1068 14.7027 16.1765 14.5087C16.1765 14.4977 16.1765 14.4866 16.1654 14.4829L16.0363 14.3981C16.0179 14.387 16.0031 14.3907 15.9957 14.4091C15.9588 14.4755 15.9219 14.5198 15.8851 14.5862C15.8733 14.6111 15.8571 14.6336 15.8371 14.6526C15.8223 14.6673 15.8187 14.6637 15.8187 14.6452C15.8187 14.6268 15.826 14.6083 15.8334 14.5973C15.8629 14.5235 15.9035 14.4497 15.9441 14.3759C15.9515 14.3686 15.9478 14.3538 15.9404 14.3501C15.874 14.3022 15.8039 14.269 15.7375 14.221C15.6785 14.1841 15.6084 14.1509 15.5531 14.0993H15.5568Z" fill="url(#paint7_linear_29539_3010)"/>
<path d="M16.5269 14.7116C16.5317 14.7309 16.5325 14.751 16.5293 14.7707C16.5262 14.7903 16.519 14.8091 16.5084 14.826C16.3495 15.0889 16.2066 15.3611 16.0805 15.6412L15.9846 15.8182L15.8998 15.9658C15.7989 16.1141 15.6968 16.2617 15.5936 16.4084C15.5493 16.4822 15.494 16.556 15.4239 16.6224L15.3981 16.6371C15.376 16.6408 15.3649 16.6371 15.3612 16.6187C15.2022 16.8303 15.0323 17.0334 14.8522 17.2273C15.0233 17.1502 15.1864 17.0563 15.3391 16.947C15.4461 16.8732 15.5383 16.7847 15.6379 16.6998C15.6992 16.6483 15.7571 16.5929 15.8112 16.5338C16.124 16.207 16.3762 15.8274 16.5564 15.4125L16.6154 15.2944C16.6477 15.238 16.6749 15.1787 16.6965 15.1174L16.7039 15.1026L16.7297 15.051C16.7575 14.9997 16.7738 14.9431 16.7777 14.885C16.7777 14.8665 16.7666 14.8481 16.7556 14.837L16.5269 14.7116Z" fill="#CFE2FF" fill-opacity="0.8"/>
<path d="M16.7556 14.837C16.7666 14.8481 16.7777 14.8665 16.7777 14.885C16.7738 14.9431 16.7575 14.9997 16.7297 15.0509C16.7197 15.0674 16.711 15.0847 16.7039 15.1026C16.7039 15.11 16.7039 15.1137 16.6966 15.1173L16.6892 15.1284C16.667 15.1911 16.6412 15.2465 16.6154 15.2944L16.5564 15.4124C16.3669 15.8222 16.1156 16.2004 15.8113 16.5338C15.7571 16.5929 15.6992 16.6483 15.6379 16.6998C15.5383 16.7847 15.4461 16.8732 15.3391 16.947L15.0034 17.1646C15.0292 17.1646 15.5198 16.9728 15.7449 16.7957C15.9072 16.6666 16.0953 16.4932 16.3351 16.1797C16.4088 16.0912 16.8109 15.4936 16.94 15.2465C16.976 15.1709 17.0104 15.0947 17.0433 15.0178C17.0507 15.0104 17.0544 15.0104 17.0544 15.0251C17.0544 15.0436 17.0544 15.062 17.047 15.0805C17.0212 15.1542 17.0101 15.228 16.9732 15.3018C16.9513 15.3475 16.9316 15.3943 16.9142 15.442L16.8957 15.4899C16.8358 15.6161 16.7743 15.7415 16.7113 15.8662C16.6574 15.9738 16.5957 16.0773 16.5269 16.176C16.4777 16.2444 16.4309 16.3146 16.3867 16.3863C16.314 16.5053 16.2327 16.6187 16.1432 16.7256C16.1174 16.7551 16.1211 16.7625 16.1543 16.7404L16.2797 16.6445C16.4383 16.5154 16.5674 16.3826 16.667 16.2535C16.9332 15.9281 17.1427 15.5602 17.2867 15.1653C17.2941 15.1395 17.2867 15.1284 17.2646 15.1173C17.1993 15.1005 17.1388 15.0689 17.0876 15.0251C17.0691 15.0067 17.0507 14.9993 17.0359 14.9809C17.0315 14.9741 17.0251 14.9689 17.0175 14.9661C16.9474 14.9477 16.8847 14.9145 16.833 14.8739C16.8306 14.8717 16.8276 14.8702 16.8243 14.8695C16.8211 14.8689 16.8177 14.8691 16.8146 14.8702H16.8072C16.7925 14.8518 16.7777 14.8407 16.7556 14.8333V14.837Z" fill="#88B5FF" fill-opacity="0.7"/>
<path fill-rule="evenodd" clip-rule="evenodd" d="M14.1772 13.1696C14.1772 13.1696 14.3838 12.8893 15.2654 11.3732C15.3503 11.2257 15.4904 11.115 15.6527 11.0634C16.1101 10.9158 16.9696 10.5728 17.3643 9.87191C17.807 9.0899 18.2275 7.83573 19.1497 6.48934C19.4706 6.0098 20.544 4.78145 21.2965 5.1245C22.0453 5.47125 21.6285 6.97994 21.1268 7.86893C20.3891 9.17843 19.2161 10.2887 18.8177 11.1445C18.5865 11.6938 18.5374 12.3027 18.6775 12.8819C18.7144 13.0553 18.6886 13.236 18.5964 13.3873C18.249 14.0013 17.8924 14.61 17.5266 15.2132L14.1772 13.1696ZM20.1862 6.27908C20.3153 6.11678 20.5809 5.89176 20.8207 6.03931C21.042 6.17948 20.9535 6.49303 20.876 6.69591C20.7801 6.94674 20.4813 7.34144 20.1383 7.157C19.81 6.97994 20.0091 6.5004 20.1862 6.27908Z" fill="#371B01"/>
<mask id="mask1_29539_3010" style="mask-type:luminance" maskUnits="userSpaceOnUse" x="14" y="5" width="8" height="11">
<path d="M14.1772 13.1696C14.1772 13.1696 14.3838 12.8893 15.2654 11.3732C15.3503 11.2257 15.4904 11.115 15.6527 11.0634C16.1101 10.9158 16.9696 10.5728 17.3643 9.87191C17.807 9.0899 18.2275 7.83573 19.1497 6.48934C19.4706 6.0098 20.544 4.78145 21.2965 5.1245C22.0453 5.47125 21.6285 6.97994 21.1268 7.86893C20.3891 9.17843 19.2161 10.2887 18.8177 11.1445C18.5865 11.6938 18.5374 12.3027 18.6775 12.8819C18.7144 13.0553 18.6886 13.236 18.5964 13.3873C18.249 14.0013 17.8924 14.61 17.5266 15.2132L14.1772 13.1696ZM20.1862 6.27908C20.3153 6.11678 20.5809 5.89176 20.8207 6.03931C21.042 6.17948 20.9535 6.49303 20.876 6.69591C20.7801 6.94674 20.4813 7.34144 20.1383 7.157C19.81 6.97994 20.0091 6.5004 20.1862 6.27908Z" fill="white"/>
</mask>
<g mask="url(#mask1_29539_3010)">
<path fill-rule="evenodd" clip-rule="evenodd" d="M19.6292 3.87769L15.0183 11.4433L18.6997 13.6897L23.3106 6.12044L19.6292 3.87769Z" fill="url(#paint8_linear_29539_3010)"/>
<path fill-rule="evenodd" clip-rule="evenodd" d="M14.8597 11.6683L14.5203 12.229L18.2017 14.4792L18.5447 13.9185L14.856 11.6683H14.8597Z" fill="url(#paint9_linear_29539_3010)"/>
<path fill-rule="evenodd" clip-rule="evenodd" d="M14.2695 12.3839L13.9301 12.9446L17.6152 15.191L17.9545 14.6304L14.2695 12.3839Z" fill="url(#paint10_linear_29539_3010)"/>
</g>
<defs>
<radialGradient id="paint0_radial_29539_3010" cx="0" cy="0" r="1" gradientUnits="userSpaceOnUse" gradientTransform="translate(10.9348 11.853) scale(6.93483 6.78728)">
<stop stop-color="#675F90"/>
<stop offset="1" stop-color="#363152"/>
</radialGradient>
<linearGradient id="paint1_linear_29539_3010" x1="3.72699" y1="5.72946" x2="18.1389" y2="5.72946" gradientUnits="userSpaceOnUse">
<stop stop-color="#EFA5E3"/>
<stop offset="1" stop-color="#B38AF3"/>
</linearGradient>
<linearGradient id="paint2_linear_29539_3010" x1="17.6114" y1="15.394" x2="6.44268" y2="11.0454" gradientUnits="userSpaceOnUse">
<stop stop-color="#40449D"/>
<stop offset="0.4" stop-color="#2185CB" stop-opacity="0.7"/>
<stop offset="1" stop-color="#03FF85" stop-opacity="0.6"/>
</linearGradient>
<linearGradient id="paint3_linear_29539_3010" x1="6.77754" y1="17.349" x2="15.8445" y2="17.349" gradientUnits="userSpaceOnUse">
<stop stop-color="#B7BCFF"/>
<stop offset="0.4" stop-color="#20B0FC"/>
<stop offset="1" stop-color="#35FFA5"/>
</linearGradient>
<linearGradient id="paint4_linear_29539_3010" x1="6.74075" y1="17.3121" x2="15.8077" y2="17.3121" gradientUnits="userSpaceOnUse">
<stop stop-color="#FF6033" stop-opacity="0"/>
<stop offset="0.3" stop-color="#FC8D20"/>
<stop offset="1" stop-color="#DDFF35"/>
</linearGradient>
<linearGradient id="paint5_linear_29539_3010" x1="12.7053" y1="15.0989" x2="15.6563" y2="17.4597" gradientUnits="userSpaceOnUse">
<stop stop-color="#F31FA1"/>
<stop offset="0.3" stop-color="#F7E930"/>
<stop offset="0.5" stop-color="#74FD65"/>
<stop offset="0.6" stop-color="#48EDFF"/>
<stop offset="1" stop-color="#5913FF"/>
</linearGradient>
<linearGradient id="paint6_linear_29539_3010" x1="13.148" y1="12.7381" x2="16.099" y2="17.1646" gradientUnits="userSpaceOnUse">
<stop stop-color="#FF1313"/>
<stop offset="0.3" stop-color="#FFEE10"/>
<stop offset="0.5" stop-color="#1CFF03"/>
<stop offset="0.7" stop-color="#48EDFF"/>
<stop offset="1" stop-color="#5632FF"/>
</linearGradient>
<linearGradient id="paint7_linear_29539_3010" x1="14.7711" y1="15.0989" x2="15.5088" y2="15.5416" gradientUnits="userSpaceOnUse">
<stop stop-color="#89FF70"/>
<stop offset="1" stop-color="#A6F0FF" stop-opacity="0.4"/>
</linearGradient>
<linearGradient id="paint8_linear_29539_3010" x1="16.6118" y1="10.1781" x2="18.6199" y2="11.4064" gradientUnits="userSpaceOnUse">
<stop stop-color="#FBE99A"/>
<stop offset="0.7" stop-color="#E48827"/>
<stop offset="1" stop-color="#A34F04"/>
</linearGradient>
<linearGradient id="paint9_linear_29539_3010" x1="14.5793" y1="13.2619" x2="17.278" y2="14.8611" gradientUnits="userSpaceOnUse">
<stop stop-color="#FCEEE3"/>
<stop offset="0.7" stop-color="#9C8C81"/>
<stop offset="1" stop-color="#665549"/>
</linearGradient>
<linearGradient id="paint10_linear_29539_3010" x1="14.5351" y1="13.0811" x2="17.2338" y2="14.6803" gradientUnits="userSpaceOnUse">
<stop stop-color="#FCEEE3"/>
<stop offset="0.7" stop-color="#9C8C81"/>
<stop offset="1" stop-color="#665549"/>
</linearGradient>
</defs>
</svg>
