<svg width="24" height="24" viewBox="0 0 24 24" fill="none" xmlns="http://www.w3.org/2000/svg">
<path d="M8.84009 21.6409C9.68614 21.9815 10.604 22.1835 11.5678 22.2172C12.8721 22.2627 14.1124 21.9931 15.2212 21.4808C13.8916 20.9584 12.6874 20.1944 11.6596 19.2446C10.9934 20.3112 10.008 21.1538 8.84009 21.6409Z" fill="#FF9100"/>
<path d="M11.6595 19.2449C9.31338 17.0751 7.89014 13.9347 8.01042 10.4901C8.01435 10.3782 8.02024 10.2664 8.02716 10.1547C7.60697 10.046 7.1683 9.9797 6.71689 9.96395C6.07074 9.94138 5.44497 10.0215 4.85421 10.1879C4.22793 11.2849 3.85 12.5437 3.80291 13.8919C3.6814 17.3714 5.7871 20.4118 8.83995 21.6413C10.0079 21.1541 10.9932 20.3126 11.6595 19.2449Z" fill="#FFC400"/>
<path d="M11.6595 19.2448C12.205 18.3719 12.5357 17.3485 12.5742 16.2459C12.6754 13.3456 10.7257 10.8507 8.02722 10.1545C8.02031 10.2663 8.01441 10.3781 8.01048 10.4899C7.89021 13.9345 9.31344 17.075 11.6595 19.2448Z" fill="#FF9100"/>
<path d="M12.2724 2.00214C10.7355 3.23338 9.52189 4.85689 8.7876 6.72713C8.36723 7.79838 8.10306 8.94907 8.02594 10.1553C10.7244 10.8515 12.6742 13.3464 12.5729 16.2467C12.5344 17.3492 12.2027 18.3716 11.6582 19.2455C12.686 20.1964 13.8902 20.9594 15.2199 21.4818C17.8888 20.2481 19.7824 17.5934 19.8921 14.4534C19.9631 12.419 19.1815 10.6058 18.077 9.07539C16.9106 7.45677 12.2724 2.00214 12.2724 2.00214Z" fill="#DD2C00"/>
</svg>