<svg width="24" height="24" viewBox="0 0 24 24" fill="none" xmlns="http://www.w3.org/2000/svg">
<g clip-path="url(#clip0_20631_561)">
<path d="M13.4082 18.0469C13.4082 18.295 13.2071 18.4961 12.959 18.4961H7.61719C7.36909 18.4961 7.16797 18.295 7.16797 18.0469V18.0469C7.16797 17.7988 7.36927 17.5999 7.61705 17.5873C7.91967 17.572 8.15409 17.5397 8.32031 17.4902C8.5612 17.4121 8.68164 17.2331 8.68164 16.9531C8.68164 16.7578 8.64258 16.5592 8.56445 16.3574L8.1909 15.4235C8.03903 15.0439 7.67132 14.7949 7.26242 14.7949H4.33558C3.91873 14.7949 3.54561 15.0535 3.39925 15.4438L3.32031 15.6543C3.13802 16.1361 3.04688 16.4844 3.04688 16.6992C3.04688 17.0898 3.19661 17.3372 3.49609 17.4414C3.68319 17.5051 3.88854 17.5493 4.11214 17.5741C4.35873 17.6014 4.56055 17.7988 4.56055 18.0469V18.0469C4.56055 18.295 4.35942 18.4961 4.11133 18.4961H0.449219C0.201122 18.4961 0 18.295 0 18.0469V18.0469C0 17.7988 0.203077 17.6045 0.446847 17.5584C0.624645 17.5247 0.784941 17.4695 0.927734 17.3926C1.18164 17.2559 1.42253 16.9987 1.65039 16.6211C1.88477 16.237 2.13542 15.6966 2.40234 15L6.05452 5.43522C6.15459 5.17314 6.40603 5 6.68657 5V5C6.96512 5 7.21521 5.17072 7.31666 5.43014L11.1816 15.3125C11.4746 16.0417 11.6895 16.5365 11.8262 16.7969C11.9629 17.0508 12.1517 17.2493 12.3926 17.3926C12.5435 17.4782 12.7327 17.537 12.9602 17.569C13.2059 17.6036 13.4082 17.7988 13.4082 18.0469V18.0469ZM6.11723 13.8379C6.82298 13.8379 7.30666 13.1266 7.04719 12.4702L6.71469 11.6292C6.37838 10.7785 5.17097 10.7885 4.8488 11.6446L4.5323 12.4857C4.28622 13.1396 4.76953 13.8379 5.46822 13.8379H6.11723Z" fill="#64748B"/>
<path d="M24.0723 16.4355C24.2718 16.4355 24.4364 16.5979 24.4143 16.7962C24.3763 17.1392 24.2818 17.4422 24.1309 17.7051C23.929 18.0501 23.6556 18.3073 23.3105 18.4766C22.972 18.6393 22.5879 18.7207 22.1582 18.7207C21.6113 18.7207 21.1556 18.5938 20.791 18.3398V18.3398C20.3595 18.0316 19.6386 17.8073 19.1768 18.068C18.4063 18.5031 17.6325 18.7207 16.8555 18.7207C16.1523 18.7207 15.5762 18.5514 15.127 18.2129C14.6777 17.8678 14.4531 17.4154 14.4531 16.8555C14.4531 16.3932 14.5736 15.9766 14.8145 15.6055C15.0553 15.2279 15.4069 14.8926 15.8691 14.5996C16.3379 14.3066 16.8945 14.0495 17.5391 13.8281C18.0596 13.6441 18.6842 13.4537 19.4128 13.2569C19.7291 13.1715 19.9512 12.8862 19.9512 12.5586V12.5586C19.9512 12.0964 19.8405 11.735 19.6191 11.4746C19.4043 11.2077 19.0039 11.0742 18.418 11.0742C17.9167 11.0742 17.5553 11.1784 17.334 11.3867C17.1126 11.5951 16.9661 11.9108 16.8945 12.334C16.8424 12.6335 16.7448 12.8809 16.6016 13.0762C16.4648 13.265 16.1751 13.3594 15.7324 13.3594C15.459 13.3594 15.2181 13.2812 15.0098 13.125C14.8014 12.9688 14.6973 12.7376 14.6973 12.4316C14.6973 11.8262 15.026 11.2988 15.6836 10.8496C16.3411 10.4004 17.3503 10.1758 18.7109 10.1758C20.1432 10.1758 21.1263 10.4167 21.6602 10.8984C22.2005 11.3802 22.4707 12.0247 22.4707 12.832V15.918C22.4707 16.3086 22.4805 16.5951 22.5 16.7773C22.5195 16.9596 22.5716 17.0996 22.6562 17.1973C22.7474 17.2884 22.8874 17.334 23.0762 17.334C23.2454 17.334 23.3919 17.2461 23.5156 17.0703C23.5783 16.9857 23.6259 16.8928 23.6584 16.7916C23.7194 16.6016 23.8727 16.4355 24.0723 16.4355V16.4355ZM19.5707 16.802C19.8175 16.628 19.9512 16.3382 19.9512 16.0362V15.4563C19.9512 14.7804 19.2895 14.2897 18.6711 14.5624C18.1506 14.792 17.7896 15.0192 17.5879 15.2441C17.2559 15.6152 17.0898 15.9798 17.0898 16.3379C17.0898 16.6374 17.181 16.8783 17.3633 17.0605C17.5456 17.2428 17.8027 17.334 18.1348 17.334C18.4928 17.334 18.8086 17.2591 19.082 17.1094C19.2395 17.0231 19.4024 16.9207 19.5707 16.802Z" fill="#64748B"/>
</g>
<defs>
<clipPath id="clip0_20631_561">
<rect width="24" height="24" fill="white"/>
</clipPath>
</defs>
</svg>
