<svg width="24" height="24" viewBox="0 0 24 24" fill="none" xmlns="http://www.w3.org/2000/svg">
<path d="M15.6239 7.87432H9.05357V8.4228C9.324 8.45708 9.52397 8.49897 9.65347 8.54849C9.78678 8.598 9.87248 8.66847 9.91057 8.75988C9.95246 8.85129 9.97341 8.9827 9.97341 9.1541V14.8445C9.97341 15.0159 9.95246 15.1473 9.91057 15.2388C9.87248 15.3302 9.78678 15.4006 9.65347 15.4502C9.52397 15.4997 9.324 15.5416 9.05357 15.5758V16.1243H12.99V15.5758C12.7044 15.5416 12.4911 15.4978 12.3501 15.4444C12.2092 15.3873 12.114 15.3073 12.0645 15.2045C12.0188 15.0978 11.9959 14.9512 11.9959 14.7646V12.3136L13.0986 12.3193C13.2509 12.3231 13.3747 12.3554 13.4699 12.4164C13.5652 12.4735 13.6433 12.584 13.7042 12.7478C13.7689 12.9115 13.8299 13.1534 13.887 13.4734H14.3727V10.5253H13.887C13.8223 10.8452 13.7575 11.089 13.6928 11.2566C13.6318 11.4204 13.5556 11.5308 13.4642 11.588C13.3728 11.6451 13.2509 11.6756 13.0986 11.6794L11.9959 11.6851V8.5085L13.1386 8.54278C13.588 8.56182 13.9403 8.61514 14.1955 8.70275C14.4545 8.79035 14.6545 8.94652 14.7954 9.17124C14.9402 9.39596 15.064 9.72352 15.1668 10.1539H15.681L15.6239 7.87432Z" fill="#64748B"/>
<path fill-rule="evenodd" clip-rule="evenodd" d="M17.8929 4.92789H6.10714C5.78169 4.92789 5.51786 5.19172 5.51786 5.51718V18.4815C5.51786 18.8069 5.78169 19.0707 6.10714 19.0707H17.8929C18.2183 19.0707 18.4821 18.8069 18.4821 18.4815V5.51718C18.4821 5.19172 18.2183 4.92789 17.8929 4.92789ZM6.10714 3.16003C4.80533 3.16003 3.75 4.21536 3.75 5.51718V18.4815C3.75 19.7833 4.80533 20.8386 6.10714 20.8386H17.8929C19.1947 20.8386 20.25 19.7833 20.25 18.4815V5.51718C20.25 4.21536 19.1947 3.16003 17.8929 3.16003H6.10714Z" fill="#64748B"/>
</svg>
