<?xml version="1.0" encoding="UTF-8" standalone="no"?>
<svg
   width="6.3500504mm"
   height="6.3500128mm"
   viewBox="0 0 6.3500504 6.3500128"
   version="1.1"
   id="svg8438"
   inkscape:version="1.2.2 (b0a8486541, 2022-12-01)"
   sodipodi:docname="fortran.svg"
   xmlns:inkscape="http://www.inkscape.org/namespaces/inkscape"
   xmlns:sodipodi="http://sodipodi.sourceforge.net/DTD/sodipodi-0.dtd"
   xmlns="http://www.w3.org/2000/svg"
   xmlns:svg="http://www.w3.org/2000/svg">
  <sodipodi:namedview
     id="namedview8440"
     pagecolor="#ffffff"
     bordercolor="#000000"
     borderopacity="0.25"
     inkscape:showpageshadow="2"
     inkscape:pageopacity="0.0"
     inkscape:pagecheckerboard="0"
     inkscape:deskcolor="#d1d1d1"
     inkscape:document-units="mm"
     showgrid="false"
     inkscape:zoom="12.145909"
     inkscape:cx="-2.2229708"
     inkscape:cy="13.502489"
     inkscape:window-width="1920"
     inkscape:window-height="1025"
     inkscape:window-x="0"
     inkscape:window-y="32"
     inkscape:window-maximized="1"
     inkscape:current-layer="layer1" />
  <defs
     id="defs8435" />
  <g
     inkscape:label="Layer 1"
     inkscape:groupmode="layer"
     id="layer1"
     transform="translate(-105.8548,-177.00726)">
    <path
       style="fill:#734f96;fill-opacity:1;stroke-width:0.00807832"
       d="m 106.93341,183.35527 c -0.0772,-0.008 -0.19015,-0.0317 -0.26386,-0.0556 -0.18732,-0.0609 -0.32292,-0.14506 -0.46779,-0.28986 -0.14455,-0.14452 -0.22702,-0.27701 -0.28947,-0.465 -0.0623,-0.18759 -0.0574,0.0146 -0.0574,-2.36278 0,-2.36162 -0.004,-2.17125 0.0533,-2.35248 0.0589,-0.18521 0.14845,-0.3302 0.29356,-0.47532 0.14446,-0.14447 0.27697,-0.22675 0.46703,-0.28999 0.18505,-0.0615 -0.0148,-0.0569 2.36106,-0.0569 2.01807,0 2.12854,7.3e-4 2.20092,0.0146 0.25065,0.0483 0.44724,0.15227 0.62716,0.33218 0.17725,0.17721 0.2785,0.36599 0.32843,0.61232 l 0.0185,0.0909 v 2.12448 2.12449 l -0.0185,0.091 c -0.0472,0.23276 -0.14785,0.42697 -0.30765,0.59346 -0.17033,0.1774 -0.36192,0.28529 -0.61104,0.34409 l -0.0889,0.0212 -2.10856,10e-4 c -1.1597,6.3e-4 -2.12128,-1.5e-4 -2.13683,-0.002 z m 2.44593,-0.94992 c -0.002,-0.1477 -0.007,-0.27496 -0.01,-0.2827 -0.005,-0.0119 -0.0173,-0.0139 -0.0839,-0.0139 -0.19995,-4e-5 -0.52316,-0.0225 -0.59338,-0.041 -0.0398,-0.0106 -0.093,-0.0589 -0.11198,-0.10154 -0.0258,-0.0582 -0.0312,-0.19407 -0.0364,-0.92655 l -0.005,-0.70975 0.0315,0.005 c 0.0173,0.003 0.0978,0.0106 0.17894,0.0172 0.26738,0.0225 0.37924,0.0549 0.48443,0.1395 0.0518,0.0417 0.0886,0.10438 0.12318,0.20981 0.0564,0.17152 0.0823,0.32465 0.0938,0.55331 l 0.006,0.11106 h 0.27762 0.27763 v -1.23592 -1.23592 h -0.26102 c -0.19627,0 -0.26434,0.002 -0.27442,0.01 -0.01,0.007 -0.0167,0.0377 -0.0262,0.11509 -0.0452,0.37141 -0.0859,0.49914 -0.19284,0.60537 -0.0694,0.0689 -0.10669,0.0881 -0.22057,0.11357 -0.11254,0.0251 -0.19315,0.0344 -0.35996,0.041 l -0.13532,0.006 v -0.76858 -0.76856 l 0.0666,2.2e-4 c 0.0366,1.2e-4 0.2666,0.004 0.51099,0.008 0.64724,0.0112 0.90797,0.0265 1.02828,0.0615 0.19514,0.0562 0.35691,0.18766 0.45359,0.36804 0.0444,0.0828 0.0617,0.1395 0.0976,0.32094 0.0382,0.19281 0.0522,0.29554 0.0685,0.50535 0.0138,0.17675 0.0214,0.21769 0.0426,0.22682 0.008,0.003 0.13129,0.008 0.27459,0.01 l 0.26054,0.004 v -1.03089 -1.03089 h -2.31455 -2.31457 v 0.27867 0.27867 l 0.0424,1.6e-4 c 0.11545,4.4e-4 0.45354,0.0165 0.50659,0.0238 0.069,0.01 0.11316,0.0324 0.15609,0.0799 0.0342,0.0377 0.0354,0.0436 0.0462,0.22304 0.026,0.43054 0.0337,1.10812 0.0165,1.45402 -0.004,0.0888 -0.008,0.516 -0.009,0.94915 -3.4e-4,0.43319 -0.004,0.82857 -0.007,0.87864 -0.009,0.11893 -0.0279,0.15439 -0.10592,0.19388 -0.0648,0.0331 -0.11348,0.039 -0.41044,0.0536 -0.17243,0.009 -0.22249,0.0132 -0.22811,0.0218 -0.004,0.006 -0.007,0.13223 -0.007,0.27993 l -1.2e-4,0.26862 h 1.33404 1.33405 z"
       id="path297" />
  </g>
</svg>
