<svg width="24" height="24" viewBox="0 0 24 24" fill="none" xmlns="http://www.w3.org/2000/svg">
<path d="M19.8818 5.48624C22.5506 11.8772 19.8818 15.3185 17.7047 17.2148C18.2665 19.111 16.0894 19.5324 15.2466 18.5492C12.8588 19.3919 7.9426 19.3919 4.43106 15.8804C2.53483 13.9842 4.00967 9.77032 8.99606 6.89085C13.3504 4.50301 17.7047 3.09839 19.8818 5.48624Z" fill="#FACC15"/>
<path d="M8.85556 6.68015L6.81886 8.22523L6.53794 8.50615C3.86917 10.894 2.39432 13.633 3.23709 14.8269C3.54869 15.2381 3.80817 15.6863 4.00963 16.1613L4.15009 16.4422L4.50125 17.4957C4.99286 18.6194 5.41425 19.111 6.32725 19.111C7.09979 19.111 7.38071 18.7599 7.5914 17.7064L7.66163 17.2148L7.73186 16.9339L7.80209 16.7934V16.6529L7.87232 16.5827V16.4422L7.94255 16.3018C8.22348 15.5292 8.78532 14.9674 9.76856 14.546L9.90902 14.4758C11.8052 13.7735 14.7549 11.9475 16.8619 10.2619L17.1428 10.0512L17.7749 9.41915C19.7413 7.59315 20.3734 5.97784 19.2497 4.92438L19.1795 4.85415C17.2833 3.16861 12.7885 4.08161 8.85556 6.68015ZM18.8283 5.20531C19.7413 6.04808 19.1795 7.38246 17.4237 9.068L17.1428 9.27869L16.7916 9.62985L16.5107 9.84054C14.5443 11.4558 11.735 13.1414 9.90902 13.9139L9.69833 13.9842C8.5044 14.4758 7.80209 15.1781 7.45094 16.0911L7.38071 16.3018L7.31048 16.4422V16.5827L7.24025 16.6529V16.8636L7.17002 17.1445L7.09979 17.6362L7.02955 17.8469C6.88909 18.4087 6.74863 18.5492 6.32725 18.5492C5.69517 18.5492 5.41425 18.2682 5.06309 17.4255L4.71194 16.3018L4.64171 16.1613C4.40192 15.5668 4.09564 15.0014 3.72871 14.4758C3.23709 13.8437 3.86917 12.3688 5.13332 10.7535L5.34402 10.4726C6.32725 9.34892 7.66163 8.155 9.13648 7.17177C12.9289 4.64346 17.1428 3.80069 18.8283 5.20531Z" fill="#FACC15"/>
<path fill-rule="evenodd" clip-rule="evenodd" d="M18.9688 5.06483C17.1428 3.44953 12.7183 4.50299 8.99604 6.89084C4.78219 9.70007 2.60504 13.4223 3.51804 14.6162C4.06165 15.4045 4.35279 16.2137 4.60318 16.9097C4.99975 18.012 5.29406 18.8301 6.32727 18.8301C7.14839 18.8301 7.25838 18.2375 7.40427 17.4514C7.59529 16.4222 7.84785 15.0615 9.83881 14.2651C13.0694 12.9307 21.778 7.45268 18.9688 5.06483ZM14.5442 10.0512C16.7214 8.50613 19.3902 6.11828 16.8619 5.41597C16.6512 5.34574 15.7382 5.48621 15.5275 5.55644C15.5275 5.41597 15.3168 5.27551 15.1061 5.27551C13.9122 5.41597 11.1029 6.46944 8.78531 7.94428C8.2937 8.29544 8.2937 8.36567 8.57462 8.78705C8.5211 8.78705 8.46871 8.78592 8.41716 8.78481C8.0629 8.77714 7.74856 8.77035 7.38069 9.13821C4.64169 11.5261 3.79892 14.1246 5.69516 14.1246C6.60816 14.1246 8.15323 13.7032 8.85554 13.4223C8.996 13.3521 9.41739 12.3688 9.41739 12.1581C9.41739 11.7464 9.63463 12.0347 9.85685 12.3295C10.0137 12.5376 10.173 12.749 10.2602 12.72C10.9625 12.3688 12.5075 11.5261 14.5442 10.0512Z" fill="#FEF08A"/>
<path d="M9.20674 9.62984C9.69836 9.20845 10.0495 9.06799 10.3304 8.22522C10.6114 8.29545 10.7518 8.22522 11.0327 7.87407C11.1732 8.15499 11.9457 8.22522 12.3671 8.22522C11.9457 8.50615 11.7351 8.71684 11.5244 9.41915C10.7518 9.06799 9.83882 9.20845 9.20674 9.62984Z" fill="#FEF08A"/>
</svg>
