<svg width="24" height="24" viewBox="0 0 24 24" fill="none" xmlns="http://www.w3.org/2000/svg">
<path d="M20.2172 8.33854L12.5684 20.5188C12.475 20.6666 12.3457 20.7883 12.1924 20.8725C12.0392 20.9566 11.8671 21.0005 11.6922 21C11.5174 20.9995 11.3456 20.9546 11.1928 20.8695C11.0401 20.7844 10.9114 20.6619 10.819 20.5135L3.32024 8.33415C3.10999 7.99255 2.9991 7.5991 3.00001 7.19798C3.00971 6.60638 3.25364 6.04277 3.6783 5.63077C4.10297 5.21877 4.6737 4.99201 5.26533 5.00022H18.2922C19.5355 5.00022 20.547 5.98022 20.547 7.19359C20.547 7.59542 20.4339 7.99286 20.2172 8.33854ZM5.16092 7.93145L10.7409 16.5348V7.06375H5.74436C5.16706 7.06375 4.90737 7.44627 5.16092 7.93145ZM12.8053 16.5348L18.3852 7.93145C18.6423 7.44627 18.3791 7.06375 17.8018 7.06375H12.8053V16.5348Z" fill="#2563EB"/>
</svg>
