<svg width="24" height="24" viewBox="0 0 24 24" fill="none" xmlns="http://www.w3.org/2000/svg">
<path fill-rule="evenodd" clip-rule="evenodd" d="M3 12C3 7.05 7.05 3 12 3C16.95 3 21 7.05 21 12C21 16.95 16.95 21 12 21C7.05 21 3 16.95 3 12ZM4.87789 10.403C5.60948 7.14169 8.5359 4.67844 12 4.67844C14.4627 4.67844 16.5932 5.87768 17.9222 7.67304L18.0599 7.85911L16.7166 9.02313L16.556 8.80591C15.5066 7.38639 13.8431 6.46405 12 6.46405C9.65419 6.46405 7.60408 7.93396 6.8243 10.0069L13.9929 17.1755C15.6031 16.5667 16.8444 15.1956 17.3329 13.5356H14.3212V11.75H19.3216V12C19.3216 15.4631 16.8594 18.3875 13.6677 19.1855L13.5303 19.2198L4.84777 10.5372L4.87789 10.403ZM4.67841 11.4612L12.4749 19.2569H11.8713C10.0695 19.2569 8.2054 18.5232 6.80875 17.1266C5.413 15.7308 4.67841 13.9318 4.67841 12.0647V11.4612Z" fill="#A855F7"/>
</svg>
