<svg width="24" height="24" viewBox="0 0 24 24" fill="none" xmlns="http://www.w3.org/2000/svg">
    <path fill="#64748B" d="M11 4v5a1 1 0 0 0 1 1h6V8h-5V4zm2.575 11.348a1.505 1.505 0 0 1-1.084 1.878l-.44.11a4.3 4.3 0 0 0 .005 1.359l.406.098a1.505 1.505 0 0 1 1.09 1.889l-.14.475c.331.29.708.526 1.117.694l.372-.39a1.505 1.505 0 0 1 2.181 0l.376.394a4 4 0 0 0 1.115-.686l-.149-.517a1.505 1.505 0 0 1 1.085-1.878l.44-.109a4.3 4.3 0 0 0-.006-1.36l-.405-.098a1.505 1.505 0 0 1-1.091-1.889l.14-.474a4 4 0 0 0-1.117-.694l-.371.39a1.505 1.505 0 0 1-2.182 0l-.375-.395c-.41.165-.785.399-1.116.687zM16 19.129c-.603 0-1.091-.505-1.091-1.129s.488-1.129 1.09-1.129 1.091.506 1.091 1.13-.488 1.128-1.09 1.128M6 2c-1.093 0-2 .907-2 2v16c0 1.093.907 2 2 2h6v-2H6V4h7l5 4v6h2V8c0-.607-.276-1.183-.75-1.562l-5-4A2 2 0 0 0 13 2z"/>
</svg>
