<svg width="24" height="24" viewBox="0 0 24 24" fill="none" xmlns="http://www.w3.org/2000/svg">
    <path fill="#F87171" d="M9.967 2.57c-.915.203-1.818.486-2.666.911.02.749.068 1.467.167 2.193-.33.212-.676.393-.984.64-.31.24-.63.47-.913.752A18 18 0 0 0 3.792 6.03C3.128 6.744 2.508 7.517 2 8.378c.399.625.827 1.255 1.222 1.744v5.298h.03l3.246.314a.35.35 0 0 1 .315.323l.1 1.433 2.834.202.194-1.322a.35.35 0 0 1 .346-.3h3.426a.35.35 0 0 1 .346.3l.195 1.322 2.833-.202.1-1.433a.35.35 0 0 1 .315-.323l3.246-.314h.029v-5.297A19 19 0 0 0 22 8.38c-.507-.863-1.128-1.634-1.792-2.349-.616.309-1.213.661-1.778 1.033-.283-.28-.602-.51-.914-.75-.308-.246-.655-.427-.983-.639a20 20 0 0 0 .166-2.193c-.848-.427-1.751-.709-2.666-.912a19 19 0 0 0-.989 1.927 7 7 0 0 0-1.037-.084h-.014a7 7 0 0 0-1.038.084 19 19 0 0 0-.988-1.927m-2.571 7.749a1.956 1.956 0 1 1 .002 3.91 1.956 1.956 0 0 1-.002-3.91m9.206 0a1.956 1.956 0 1 1 0 3.91 1.956 1.956 0 0 1 0-3.91M12 11.46c.348 0 .631.256.631.572v1.803c0 .316-.283.572-.631.572s-.63-.256-.63-.572v-1.8c0-.315.282-.572.63-.572m-8.783 4.658c0 .314.005.657.005.726 0 3.084 3.911 4.566 8.772 4.583h.012c4.86-.017 8.772-1.5 8.772-4.582 0-.07.004-.412.005-.727l-2.919.282-.1 1.442a.35.35 0 0 1-.324.322l-3.459.249h-.025a.35.35 0 0 1-.345-.298l-.2-1.347H10.59l-.198 1.345a.35.35 0 0 1-.371.3l-3.459-.247a.35.35 0 0 1-.323-.326l-.1-1.44z"/>
</svg>
