<svg width="24" height="24" viewBox="0 0 24 24" fill="none" xmlns="http://www.w3.org/2000/svg">
    <path fill="#64748B" d="M16.734 2.02c-1.383-.091-2.873.41-4.109 1.603l-.012.012L11.07 5.17a1 1 0 0 0-.004 1.414 1 1 0 0 0 1.416.004l1.532-1.525.006-.004c.876-.844 1.745-1.098 2.584-1.043.84.055 1.67.462 2.298 1.09.628.627 1.037 1.457 1.092 2.298s-.2 1.713-1.049 2.592l-2.68 2.68a3.47 3.47 0 0 1-5.26-.377 1 1 0 0 0-1.4-.201 1 1 0 0 0-.2 1.4c1.991 2.662 5.924 2.943 8.275.592l2.693-2.694.012-.011c1.193-1.237 1.696-2.728 1.605-4.112s-.733-2.641-1.674-3.582c-.94-.94-2.198-1.58-3.582-1.671m-6.142 6.306A5.46 5.46 0 0 0 6.32 9.91l-2.693 2.694-.012.011c-1.193 1.237-1.696 2.728-1.605 4.112s.733 2.641 1.674 3.582c.94.94 2.198 1.58 3.582 1.671s2.873-.41 4.109-1.603l.014-.014 1.533-1.535a1 1 0 0 0 0-1.414 1 1 0 0 0-1.414 0L9.98 18.941c-.876.844-1.744 1.098-2.584 1.043s-1.67-.462-2.298-1.09c-.628-.627-1.037-1.457-1.092-2.298s.2-1.713 1.049-2.592l2.68-2.68a3.47 3.47 0 0 1 5.26.377 1 1 0 0 0 1.4.201 1 1 0 0 0 .2-1.4 5.47 5.47 0 0 0-4.003-2.176"/>
</svg>
