<svg width="24" height="24" viewBox="0 0 24 24" fill="none" xmlns="http://www.w3.org/2000/svg">
    <path fill="#F59E0B" d="M12 2c-.482 0-.965.125-1.396.373l-6.293 3.6-.004.002a2.8 2.8 0 0 0-1.399 2.421V15.6a2.8 2.8 0 0 0 1.399 2.421l.004.004 6.293 3.6c.405.234.856.357 1.31.371L12 22l.084-.004c.456-.014.91-.138 1.316-.373l6.29-3.598.003-.004a2.8 2.8 0 0 0 1.399-2.421V8.396a2.8 2.8 0 0 0-1.399-2.421l-.004-.002L13.4 2.375A2.8 2.8 0 0 0 12 2m0 1.998c.137 0 .274.036.398.107l.004.004 5.67 3.243L12 10.846 5.928 7.352l5.67-3.243.004-.004A.8.8 0 0 1 12 3.998M4.908 9.072 11 12.576v6.97l-5.693-3.255a.8.8 0 0 1-.399-.691Z"/>
</svg>
