<svg width="24" height="24" viewBox="0 0 24 24" fill="none" xmlns="http://www.w3.org/2000/svg">
<path d="M5.93871 5.3696C6.53094 7.4206 5.29981 9.55287 3.22737 10.0657L2.1283 10.3376C2.04383 10.8788 2 11.4342 2 12.0001C2 12.5921 2.04797 13.1725 2.14034 13.7373L3.15512 13.9817C5.24827 14.4859 6.49237 16.64 5.88302 18.7047L5.53253 19.8924C6.3588 20.6178 7.30021 21.207 8.32477 21.626L9.25282 20.6501C10.7362 19.0902 13.2239 19.0905 14.7069 20.6511L15.6451 21.6384C16.6676 21.2239 17.6083 20.6404 18.4347 19.921L18.0622 18.6306C17.47 16.5794 18.7011 14.4471 20.7736 13.9344L21.8717 13.6626C21.9562 13.1213 22 12.566 22 12.0001C22 11.408 21.952 10.8275 21.8597 10.2625L20.8456 10.0183C18.7527 9.51431 17.5086 7.36021 18.1179 5.29529L18.468 4.10856C17.6419 3.38275 16.7004 2.79352 15.6758 2.37436L14.7481 3.34982C13.2647 4.90999 10.7771 4.90943 9.29402 3.34888L8.35562 2.36157C7.33313 2.77584 6.39248 3.35923 5.56602 4.07864L5.93871 5.3696ZM12.0001 14.822C10.4937 14.822 9.27276 13.5586 9.27276 12.0001C9.27276 10.4416 10.4937 9.17812 12.0001 9.17812C13.5063 9.17812 14.7272 10.4416 14.7272 12.0001C14.7272 13.5586 13.5063 14.822 12.0001 14.822Z" fill="#64748B"/>
</svg>
