<svg width="24" height="24" viewBox="0 0 24 24" fill="none" xmlns="http://www.w3.org/2000/svg">
<rect x="4" y="4" width="16" height="16" rx="3" stroke="#C084FC" stroke-width="2" stroke-linejoin="round"/>
<path d="M12.1148 9.52808C12.4526 9.52808 12.7328 9.80823 12.7328 10.1461V13.8539C12.7328 14.1918 12.4526 14.4719 12.1148 14.4719C11.777 14.4719 11.4968 14.1918 11.4968 13.8539V10.1461C11.4968 9.80823 11.777 9.52808 12.1148 9.52808ZM10.2609 10.1461C10.2609 9.80823 9.98072 9.52808 9.6429 9.52808H6.96499C6.4706 9.52808 6.14101 9.94007 6.14101 10.3521V13.6479C6.14101 14.0599 6.4706 14.4719 6.96499 14.4719H9.4369C9.93129 14.4719 10.2609 14.0599 10.2609 13.6479V12.618C10.2609 12.2802 9.98072 12 9.6429 12C9.30507 12 9.02492 12.2802 9.02492 12.618V13.236H7.37697V10.764H9.6429C9.98072 10.764 10.2609 10.4839 10.2609 10.1461ZM17.6766 10.1461C17.6766 9.80823 17.3965 9.52808 17.0586 9.52808H14.7927C14.3395 9.52808 13.9687 9.89887 13.9687 10.3521V13.8539C13.9687 14.1918 14.2489 14.4719 14.5867 14.4719C14.9246 14.4719 15.2047 14.1918 15.2047 13.8539V12.824H16.2347C16.5725 12.824 16.8527 12.5438 16.8527 12.206C16.8527 11.8682 16.5725 11.588 16.2347 11.588H15.2047V10.764H17.0586C17.3965 10.764 17.6766 10.4839 17.6766 10.1461Z" fill="#C084FC" stroke="#C084FC" stroke-width="0.5"/>
</svg>
