<svg width="24" height="24" viewBox="0 0 24 24" fill="none" xmlns="http://www.w3.org/2000/svg">
<path d="M20.6613 11.1983L12.8016 3.33948C12.3493 2.88684 11.6153 2.88684 11.1625 3.33948L9.53048 4.97163L11.6006 7.04176C12.0819 6.87927 12.6335 6.98822 13.0169 7.37173C13.4023 7.75763 13.5105 8.31395 13.3439 8.79682L15.3392 10.7921C15.8219 10.6257 16.3788 10.7332 16.7643 11.1193C17.3032 11.658 17.3032 12.531 16.7643 13.0698C16.2253 13.6089 15.3524 13.6089 14.8131 13.0698C14.4079 12.6643 14.3077 12.069 14.5129 11.5697L12.6522 9.70896L12.652 14.6056C12.7834 14.6706 12.9074 14.7574 13.0168 14.8664C13.5556 15.4051 13.5556 16.2779 13.0168 16.8174C12.478 17.3561 11.6046 17.3561 11.0663 16.8174C10.5275 16.2779 10.5275 15.4051 11.0663 14.8664C11.1995 14.7335 11.3535 14.6329 11.5179 14.5655V9.62334C11.3535 9.55619 11.1996 9.45633 11.0662 9.32235C10.6581 8.91455 10.5598 8.31557 10.7691 7.8144L8.72837 5.77335L3.33959 11.162C2.8868 11.615 2.8868 12.349 3.33959 12.8017L11.1989 20.6605C11.6514 21.1132 12.3852 21.1132 12.8383 20.6605L20.6612 12.8388C21.1139 12.386 21.1139 11.6517 20.6612 11.1989" fill="#F87171"/>
</svg>
