<svg width="24" height="24" viewBox="0 0 24 24" fill="none" xmlns="http://www.w3.org/2000/svg">
<path d="M19.7337 10.3324L19.7112 10.2727L17.5335 4.37216C17.4891 4.25651 17.4107 4.15841 17.3093 4.09192C17.2079 4.02656 17.0897 3.99509 16.9705 4.00174C16.8513 4.00839 16.7369 4.05285 16.6429 4.12911C16.5499 4.20757 16.4823 4.31387 16.4496 4.43357L14.9792 9.10421H9.02499L7.55457 4.43357C7.52268 4.31322 7.45505 4.20638 7.36129 4.12825C7.26722 4.05198 7.15287 4.00752 7.03369 4.00087C6.9145 3.99422 6.79622 4.0257 6.69481 4.09106C6.59369 4.15781 6.51531 4.25583 6.47071 4.37129L4.28882 10.2693L4.26716 10.329C3.95366 11.1793 3.91497 12.1125 4.1569 12.9877C4.39884 13.863 4.90829 14.6329 5.60845 15.1812L5.61595 15.1873L5.63594 15.202L8.95335 17.7812L10.5946 19.0708L11.5943 19.8545C11.7112 19.9467 11.854 19.9965 12.0008 19.9965C12.1477 19.9965 12.2905 19.9467 12.4074 19.8545L13.4071 19.0708L15.0483 17.7812L18.3857 15.1864L18.3941 15.1795C19.0927 14.631 19.6009 13.8619 19.8425 12.9879C20.0841 12.1139 20.0459 11.182 19.7337 10.3324Z" fill="#E24329"/>
<path d="M19.7337 10.3324L19.7112 10.2728C18.6501 10.4989 17.6501 10.9655 16.7828 11.6394L12 15.394C13.6287 16.6732 15.0467 17.7847 15.0467 17.7847L18.3841 15.1899L18.3924 15.183C19.092 14.6345 19.601 13.865 19.8429 12.9902C20.0848 12.1154 20.0465 11.1826 19.7337 10.3324Z" fill="#FC6D26"/>
<path d="M8.95331 17.7846L10.5945 19.0742L11.5942 19.8579C11.7112 19.95 11.854 20 12.0008 20C12.1476 20 12.2904 19.95 12.4074 19.8579L13.4071 19.0742L15.0483 17.7846C15.0483 17.7846 13.6287 16.6697 12 15.394C10.3712 16.6697 8.95331 17.7846 8.95331 17.7846Z" fill="#FCA326"/>
<path d="M7.21633 11.6394C6.34973 10.9642 5.35002 10.4963 4.28882 10.2693L4.26716 10.329C3.95366 11.1794 3.91497 12.1126 4.1569 12.9878C4.39884 13.863 4.90829 14.6329 5.60845 15.1812L5.61595 15.1873L5.63594 15.202L8.95335 17.7812C8.95335 17.7812 10.3696 16.6698 12 15.3906L7.21633 11.6394Z" fill="#FC6D26"/>
</svg>
