<svg width="24" height="24" viewBox="0 0 24 24" fill="none" xmlns="http://www.w3.org/2000/svg">
<path d="M23.6005 9.49862L23.5668 9.4091L20.3002 0.558237C20.2337 0.384765 20.116 0.237608 19.964 0.13788C19.8119 0.0398468 19.6345 -0.00736931 19.4557 0.00260712C19.2769 0.0125836 19.1054 0.0792721 18.9643 0.193668C18.8248 0.311349 18.7235 0.470811 18.6744 0.650353L16.4688 7.65631H7.53749L5.33186 0.650353C5.28402 0.469833 5.18257 0.309572 5.04194 0.192371C4.90083 0.0779745 4.7293 0.0112859 4.55053 0.00130945C4.37175 -0.00866699 4.19433 0.0385491 4.04222 0.136583C3.89054 0.236713 3.77297 0.383741 3.70606 0.55694L0.433225 9.40391L0.400733 9.49343C-0.069507 10.769 -0.127551 12.1688 0.235354 13.4816C0.598259 14.7945 1.36244 15.9493 2.41267 16.7718L2.42392 16.7809L2.45391 16.803L7.43002 20.6718L9.89184 22.6062L11.3914 23.7817C11.5668 23.92 11.781 23.9948 12.0012 23.9948C12.2215 23.9948 12.4357 23.92 12.6111 23.7817L14.1107 22.6062L16.5725 20.6718L21.5786 16.7796L21.5911 16.7692C22.639 15.9465 23.4014 14.7929 23.7637 13.4819C24.1261 12.1708 24.0688 10.773 23.6005 9.49862Z" fill="#E24329"/>
<path d="M23.6005 9.49861L23.5668 9.40909C21.9751 9.74828 20.4752 10.4482 19.1742 11.459L12 17.091C14.4431 19.0098 16.57 20.677 16.57 20.677L21.5761 16.7848L21.5886 16.7744C22.638 15.9517 23.4015 14.7974 23.7644 13.4852C24.1272 12.173 24.0697 10.7739 23.6005 9.49861Z" fill="#FC6D26"/>
<path d="M7.43002 20.677L9.89184 22.6114L11.3914 23.7869C11.5668 23.9251 11.781 24 12.0012 24C12.2215 24 12.4357 23.9251 12.6111 23.7869L14.1107 22.6114L16.5725 20.677C16.5725 20.677 14.4431 19.0046 12 17.091C9.55693 19.0046 7.43002 20.677 7.43002 20.677Z" fill="#FCA326"/>
<path d="M4.8245 11.459C3.5246 10.4462 2.02503 9.74438 0.433225 9.4039L0.400734 9.49342C-0.0695071 10.769 -0.127551 12.1688 0.235354 13.4816C0.598259 14.7945 1.36244 15.9493 2.41267 16.7718L2.42392 16.7809L2.45391 16.803L7.43002 20.6718C7.43002 20.6718 9.55443 19.0047 12 17.0858L4.8245 11.459Z" fill="#FC6D26"/>
</svg>
    