<svg width="24" height="24" viewBox="0 0 24 24" fill="none" xmlns="http://www.w3.org/2000/svg">
    <g clip-path="url(#clip0_20603_557)">
        <path fill-rule="evenodd" clip-rule="evenodd"
            d="M1.87829 10.1973C1.83191 10.1973 1.82031 10.1732 1.8435 10.1369L2.08698 9.8102C2.11017 9.77391 2.16814 9.74971 2.21452 9.74971H6.35365C6.40003 9.74971 6.41162 9.78601 6.38843 9.8223L6.19133 10.1369C6.16814 10.1732 6.11017 10.2094 6.07539 10.2094L1.87829 10.1973Z"
            fill="#f38ba8" />
        <path fill-rule="evenodd" clip-rule="evenodd"
            d="M0.127554 11.3104C0.0811768 11.3104 0.0695826 11.2862 0.092771 11.2499L0.336249 10.9232C0.359438 10.8869 0.417409 10.8627 0.463785 10.8627H5.75074C5.79712 10.8627 5.82031 10.899 5.80871 10.9353L5.71596 11.2257C5.70437 11.2741 5.65799 11.2983 5.61161 11.2983L0.127554 11.3104Z"
            fill="#f38ba8" />
        <path fill-rule="evenodd" clip-rule="evenodd"
            d="M2.93334 12.4234C2.88696 12.4234 2.87537 12.3871 2.89856 12.3508L3.06088 12.0484C3.08406 12.0121 3.13044 11.9758 3.17682 11.9758H5.49566C5.54204 11.9758 5.56522 12.0121 5.56522 12.0605L5.54204 12.3508C5.54204 12.3992 5.49566 12.4355 5.46088 12.4355L2.93334 12.4234Z"
            fill="#f38ba8" />
        <path fill-rule="evenodd" clip-rule="evenodd"
            d="M14.9681 9.97957C14.2377 10.1731 13.7391 10.3183 13.0203 10.5119C12.8464 10.5603 12.8348 10.5724 12.6841 10.3909C12.5101 10.1852 12.3826 10.0522 12.1391 9.93118C11.4087 9.55613 10.7015 9.66502 10.0406 10.1127C9.25218 10.645 8.84638 11.4314 8.85797 12.4113C8.86957 13.3792 9.50725 14.1777 10.4232 14.3108C11.2116 14.4196 11.8725 14.1293 12.3942 13.5123C12.4986 13.3792 12.5913 13.234 12.7072 13.0646C12.2899 13.0646 11.7681 13.0646 10.4696 13.0646C10.2261 13.0646 10.1681 12.9074 10.2493 12.7017C10.4 12.3266 10.6783 11.6975 10.8406 11.383C10.8754 11.3104 10.9565 11.1894 11.1304 11.1894H15.3507C15.3275 11.5161 15.3275 11.8427 15.2812 12.1694C15.1536 13.0404 14.8406 13.8389 14.3304 14.5406C13.4957 15.69 12.4058 16.4038 11.0261 16.5973C9.88986 16.7546 8.83479 16.5248 7.90725 15.7989C7.04928 15.1213 6.56232 14.2261 6.43479 13.113C6.28406 11.7943 6.65508 10.6087 7.42029 9.56823C8.24348 8.44309 9.33334 7.72929 10.6667 7.47522C11.7565 7.26955 12.8 7.40263 13.7391 8.06804C14.3536 8.49148 14.7942 9.0722 15.0841 9.7739C15.1536 9.88279 15.1072 9.94328 14.9681 9.97957V9.97957Z"
            fill="#f38ba8" />
        <path
            d="M18.8058 16.6699C17.7507 16.6457 16.7884 16.3312 15.9768 15.6053C15.2928 14.9883 14.8638 14.2019 14.7247 13.2703C14.516 11.9032 14.8754 10.6934 15.6638 9.61662C16.5102 8.45519 17.5304 7.85027 18.9102 7.59621C20.0928 7.37844 21.2058 7.49942 22.2145 8.21322C23.1304 8.86653 23.6986 9.74971 23.8493 10.9111C24.0464 12.5444 23.5942 13.8752 22.516 15.0125C21.7507 15.8231 20.8116 16.3312 19.7333 16.561C19.4203 16.6215 19.1073 16.6336 18.8058 16.6699V16.6699ZM21.5652 11.7822C21.5536 11.6249 21.5536 11.504 21.5304 11.383C21.3218 10.1852 20.2667 9.50774 19.1652 9.7739C18.087 10.028 17.3913 10.7418 17.1362 11.879C16.9275 12.8227 17.3681 13.7784 18.2029 14.1656C18.8406 14.4559 19.4783 14.4196 20.0928 14.093C21.0087 13.597 21.5073 12.8227 21.5652 11.7822V11.7822Z"
            fill="#f38ba8" />
    </g>
    <defs>
        <clipPath id="clip0_20603_557">
            <rect width="24" height="9.43667" fill="#cdd6f4" transform="translate(0 7.28166)" />
        </clipPath>
    </defs>
</svg>