<svg width="24" height="24" viewBox="0 0 24 24" fill="none" xmlns="http://www.w3.org/2000/svg">
<g clip-path="url(#clip0_20603_557)">
<g clip-path="url(#clip1_20603_557)">
<path fill-rule="evenodd" clip-rule="evenodd" d="M1.47755 9.7942C1.43311 9.7942 1.42199 9.77102 1.44422 9.73623L1.67755 9.42319C1.69977 9.38841 1.75533 9.36522 1.79977 9.36522H5.76644C5.81088 9.36522 5.82199 9.4 5.79977 9.43478L5.61088 9.73623C5.58866 9.77102 5.53311 9.8058 5.49977 9.8058L1.47755 9.7942Z" fill="#F472B6"/>
<path fill-rule="evenodd" clip-rule="evenodd" d="M-0.200184 10.8609C-0.244629 10.8609 -0.25574 10.8377 -0.233518 10.8029L-0.000184438 10.4899C0.0220378 10.4551 0.0775933 10.4319 0.122038 10.4319H5.1887C5.23315 10.4319 5.25537 10.4667 5.24426 10.5015L5.15537 10.7797C5.14426 10.8261 5.09982 10.8493 5.05537 10.8493L-0.200184 10.8609Z" fill="#F472B6"/>
<path fill-rule="evenodd" clip-rule="evenodd" d="M2.48866 11.9275C2.44421 11.9275 2.4331 11.8928 2.45533 11.858L2.61088 11.5681C2.6331 11.5333 2.67755 11.4986 2.72199 11.4986H4.94421C4.98866 11.4986 5.01088 11.5333 5.01088 11.5797L4.98866 11.858C4.98866 11.9043 4.94421 11.9391 4.91088 11.9391L2.48866 11.9275Z" fill="#F472B6"/>
<path fill-rule="evenodd" clip-rule="evenodd" d="M14.0221 9.58551C13.3221 9.77102 12.8443 9.91015 12.1554 10.0957C11.9887 10.142 11.9776 10.1536 11.8332 9.97971C11.6665 9.78261 11.5443 9.65508 11.311 9.53913C10.611 9.17971 9.93319 9.28406 9.29985 9.71305C8.5443 10.2232 8.15541 10.9768 8.16652 11.9159C8.17763 12.8435 8.78874 13.6087 9.66652 13.7362C10.4221 13.8406 11.0554 13.5623 11.5554 12.971C11.6554 12.8435 11.7443 12.7044 11.8554 12.542C11.4554 12.542 10.9554 12.542 9.71096 12.542C9.47763 12.542 9.42207 12.3913 9.49985 12.1942C9.6443 11.8348 9.91096 11.2319 10.0665 10.9304C10.0999 10.8609 10.1776 10.7449 10.3443 10.7449H14.3887C14.3665 11.058 14.3665 11.371 14.3221 11.6841C14.1999 12.5188 13.8999 13.2841 13.411 13.9565C12.611 15.058 11.5665 15.742 10.2443 15.9275C9.15541 16.0783 8.1443 15.858 7.25541 15.1623C6.43319 14.513 5.96652 13.6551 5.8443 12.5884C5.69985 11.3246 6.05541 10.1884 6.78874 9.19131C7.57763 8.11305 8.62207 7.42899 9.89985 7.18551C10.9443 6.98841 11.9443 7.11595 12.8443 7.75363C13.4332 8.15942 13.8554 8.71595 14.1332 9.38841C14.1999 9.49276 14.1554 9.55073 14.0221 9.58551V9.58551Z" fill="#F472B6"/>
<path d="M17.6999 15.9971C16.6887 15.9739 15.7665 15.6725 14.9887 14.9768C14.3332 14.3855 13.9221 13.6319 13.7887 12.7391C13.5887 11.429 13.9332 10.2696 14.6887 9.23769C15.4999 8.12464 16.4776 7.54493 17.7999 7.30145C18.9332 7.09276 19.9999 7.2087 20.9665 7.89276C21.8443 8.51885 22.3887 9.36522 22.5332 10.4783C22.7221 12.0435 22.2887 13.3188 21.2554 14.4087C20.5221 15.1855 19.6221 15.6725 18.5887 15.8928C18.2887 15.9507 17.9887 15.9623 17.6999 15.9971V15.9971ZM20.3443 11.313C20.3332 11.1623 20.3332 11.0464 20.311 10.9304C20.111 9.78261 19.0999 9.13334 18.0443 9.38841C17.011 9.63189 16.3443 10.3159 16.0999 11.4058C15.8999 12.3101 16.3221 13.2261 17.1221 13.5971C17.7332 13.8754 18.3443 13.8406 18.9332 13.5275C19.811 13.0522 20.2887 12.3101 20.3443 11.313V11.313Z" fill="#F472B6"/>
</g>
</g>
<defs>
<clipPath id="clip0_20603_557">
<rect width="24" height="24" fill="white"/>
</clipPath>
<clipPath id="clip1_20603_557">
<rect width="23" height="9.04348" fill="white" transform="translate(-0.322388 7)"/>
</clipPath>
</defs>
</svg>
