<svg width="25" height="24" viewBox="0 0 25 24" fill="none" xmlns="http://www.w3.org/2000/svg">
<g clip-path="url(#clip0_20558_611)">
<path fill-rule="evenodd" clip-rule="evenodd" d="M1.87826 9.79416C1.83188 9.79416 1.82028 9.77097 1.84347 9.73619L2.08695 9.42314C2.11014 9.38836 2.16811 9.36517 2.21449 9.36517H6.35362C6.39999 9.36517 6.41159 9.39996 6.3884 9.43474L6.1913 9.73619C6.16811 9.77097 6.11014 9.80575 6.07536 9.80575L1.87826 9.79416Z" fill="#60A5FA"/>
<path fill-rule="evenodd" clip-rule="evenodd" d="M0.127523 10.8609C0.0811462 10.8609 0.069552 10.8377 0.0927404 10.8029L0.336219 10.4899C0.359407 10.4551 0.417378 10.4319 0.463755 10.4319H5.75071C5.79709 10.4319 5.82028 10.4667 5.80868 10.5015L5.71593 10.7797C5.70433 10.8261 5.65796 10.8493 5.61158 10.8493L0.127523 10.8609Z" fill="#60A5FA"/>
<path fill-rule="evenodd" clip-rule="evenodd" d="M2.93331 11.9275C2.88693 11.9275 2.87534 11.8927 2.89853 11.858L3.06085 11.5681C3.08403 11.5333 3.13041 11.4985 3.17679 11.4985H5.49563C5.542 11.4985 5.56519 11.5333 5.56519 11.5797L5.542 11.858C5.542 11.9043 5.49563 11.9391 5.46085 11.9391L2.93331 11.9275Z" fill="#60A5FA"/>
<path fill-rule="evenodd" clip-rule="evenodd" d="M14.9681 9.58548C14.2377 9.77099 13.7391 9.91012 13.0203 10.0956C12.8463 10.142 12.8348 10.1536 12.684 9.97968C12.5101 9.78258 12.3826 9.65505 12.1391 9.5391C11.4087 9.17968 10.7014 9.28403 10.0406 9.71302C9.25215 10.2232 8.84635 10.9768 8.85794 11.9159C8.86954 12.8435 9.50722 13.6087 10.4232 13.7362C11.2116 13.8406 11.8724 13.5623 12.3942 12.971C12.4985 12.8435 12.5913 12.7043 12.7072 12.542C12.2898 12.542 11.7681 12.542 10.4695 12.542C10.2261 12.542 10.1681 12.3913 10.2492 12.1942C10.4 11.8348 10.6782 11.2319 10.8406 10.9304C10.8753 10.8608 10.9565 10.7449 11.1304 10.7449H15.3507C15.3275 11.0579 15.3275 11.371 15.2811 11.684C15.1536 12.5188 14.8406 13.284 14.3304 13.9565C13.4956 15.0579 12.4058 15.742 11.0261 15.9275C9.88983 16.0782 8.83475 15.8579 7.90722 15.1623C7.04925 14.513 6.56229 13.655 6.43475 12.5884C6.28403 11.3246 6.65504 10.1884 7.42026 9.19128C8.24345 8.11302 9.33331 7.42896 10.6666 7.18548C11.7565 6.98838 12.8 7.11592 13.7391 7.7536C14.3536 8.15939 14.7942 8.71592 15.084 9.38838C15.1536 9.49273 15.1072 9.5507 14.9681 9.58548V9.58548Z" fill="#60A5FA"/>
<path d="M18.8058 15.9971C17.7507 15.9739 16.7884 15.6724 15.9768 14.9768C15.2927 14.3855 14.8638 13.6319 14.7246 12.7391C14.5159 11.429 14.8753 10.2695 15.6637 9.23766C16.5101 8.12461 17.5304 7.5449 18.9101 7.30142C20.0927 7.09273 21.2058 7.20867 22.2145 7.89273C23.1304 8.51881 23.6985 9.36519 23.8493 10.4782C24.0464 12.0435 23.5942 13.3188 22.5159 14.4087C21.7507 15.1855 20.8116 15.6724 19.7333 15.8927C19.4203 15.9507 19.1072 15.9623 18.8058 15.9971V15.9971ZM21.5652 11.313C21.5536 11.1623 21.5536 11.0464 21.5304 10.9304C21.3217 9.78258 20.2666 9.13331 19.1652 9.38838C18.0869 9.63186 17.3913 10.3159 17.1362 11.4058C16.9275 12.3101 17.3681 13.2261 18.2029 13.5971C18.8406 13.8753 19.4782 13.8406 20.0927 13.5275C21.0087 13.0521 21.5072 12.3101 21.5652 11.313V11.313Z" fill="#60A5FA"/>
</g>
<defs>
<clipPath id="clip0_20558_611">
<rect width="24" height="24" fill="white" transform="translate(0.336426)"/>
</clipPath>
</defs>
</svg>
