<svg width="24" height="24" viewBox="0 0 24 24" fill="none" xmlns="http://www.w3.org/2000/svg">
<path d="M20.0217 6.22909C19.4986 5.70569 18.7925 5.40597 18.0526 5.39317C17.3127 5.38038 16.5967 5.6555 16.0557 6.1605C16.029 6.1857 16.0075 6.21594 15.9926 6.24948C15.9776 6.28301 15.9694 6.31917 15.9684 6.35589C15.9688 6.42973 15.9979 6.50054 16.0495 6.55336L16.4049 6.92127C16.4513 6.96744 16.5127 6.99537 16.578 6.99995C16.6433 7.00453 16.708 6.98546 16.7604 6.94622C17.0423 6.73343 17.3862 6.61881 17.7394 6.61987C18.0635 6.61846 18.3806 6.71343 18.6505 6.89273C18.9205 7.07202 19.131 7.32754 19.2553 7.62678C19.3796 7.92603 19.4122 8.25549 19.3488 8.57328C19.2854 8.89106 19.1289 9.18282 18.8993 9.41145C16.6336 11.6771 13.6092 5.32905 6.74561 8.59456C6.62885 8.64914 6.52466 8.72731 6.4396 8.82416C6.35455 8.921 6.29047 9.03441 6.25141 9.15724C6.21236 9.28007 6.19917 9.40966 6.21267 9.53784C6.22618 9.66602 6.26609 9.79001 6.32989 9.90201L7.50638 11.937C7.62916 12.1487 7.83021 12.3038 8.06622 12.3687C8.30222 12.4336 8.55429 12.4033 8.7681 12.2841L8.7972 12.2675L8.77434 12.2841L9.29607 11.991C9.87753 11.63 10.4269 11.2197 10.9382 10.7646C10.9906 10.7197 11.0573 10.695 11.1263 10.695C11.1953 10.695 11.262 10.7197 11.3144 10.7646C11.3459 10.7894 11.3715 10.8209 11.3891 10.8569C11.4068 10.8929 11.416 10.9324 11.4163 10.9725C11.417 11.0115 11.4094 11.0502 11.394 11.0861C11.3786 11.1219 11.3557 11.1541 11.3269 11.1804C10.7884 11.6584 10.209 12.0882 9.59539 12.4649H9.57876L9.05703 12.7559C8.8365 12.8809 8.58715 12.9461 8.33367 12.9451C8.07185 12.9451 7.81457 12.8766 7.5874 12.7465C7.36022 12.6163 7.17106 12.4289 7.0387 12.203L5.92664 10.2803C3.78982 11.7894 2.49276 14.6974 3.1891 18.3869C3.20148 18.4486 3.23467 18.5041 3.2831 18.5442C3.33154 18.5843 3.39228 18.6066 3.45516 18.6072H4.72312C4.78902 18.6072 4.85265 18.5832 4.90203 18.5395C4.95142 18.4959 4.98315 18.4357 4.99126 18.3703C5.04776 17.9217 5.26604 17.5092 5.60512 17.2101C5.94421 16.9111 6.38079 16.746 6.83291 16.746C7.28504 16.746 7.72161 16.9111 8.0607 17.2101C8.39979 17.5092 8.61807 17.9217 8.67457 18.3703C8.68315 18.4359 8.7153 18.4961 8.76503 18.5397C8.81475 18.5833 8.87865 18.6073 8.94479 18.6072H10.1795C10.2454 18.6072 10.309 18.5832 10.3584 18.5395C10.4078 18.4959 10.4395 18.4357 10.4476 18.3703C10.506 17.9228 10.7251 17.5119 11.0642 17.2141C11.4032 16.9164 11.8391 16.7522 12.2903 16.7522C12.7416 16.7522 13.1774 16.9164 13.5165 17.2141C13.8555 17.5119 14.0747 17.9228 14.133 18.3703C14.1411 18.4357 14.1729 18.4959 14.2222 18.5395C14.2716 18.5832 14.3352 18.6072 14.4012 18.6072H15.6213C15.6923 18.6073 15.7604 18.5794 15.8109 18.5296C15.8615 18.4798 15.8904 18.4121 15.8915 18.3412C15.9206 16.6222 16.3842 14.6475 17.7061 13.6581C22.2853 10.2325 21.0818 7.29542 20.0217 6.22909ZM15.3511 11.4111L14.4781 10.9725C14.4777 10.8786 14.5015 10.7862 14.547 10.7041C14.5926 10.622 14.6585 10.553 14.7383 10.5036C14.8182 10.4543 14.9094 10.4263 15.0032 10.4222C15.097 10.4182 15.1903 10.4383 15.2741 10.4806C15.3579 10.5229 15.4295 10.586 15.4819 10.6639C15.5344 10.7417 15.566 10.8317 15.5737 10.9253C15.5814 11.0189 15.565 11.1129 15.526 11.1983C15.4871 11.2837 15.4268 11.3577 15.3511 11.4132V11.4111Z" fill="#2DD4BF"/>
</svg>
