<svg width="24" height="24" viewBox="0 0 24 24" fill="none" xmlns="http://www.w3.org/2000/svg">
<path fill-rule="evenodd" clip-rule="evenodd" d="M11.9 5.5637C12.0733 5.5637 12.2409 5.53894 12.3993 5.49277L17.7853 14.8215C17.5439 15.0525 17.3674 15.3507 17.2858 15.686H6.51319C6.43163 15.351 6.25534 15.053 6.0143 14.8221L11.4006 5.49277C11.5591 5.53894 11.7266 5.5637 11.9 5.5637ZM6.51317 16.532C6.50696 16.5575 6.50021 16.5828 6.49291 16.6079L10.6125 18.9863C10.9369 18.6474 11.3938 18.4363 11.9 18.4363C12.4062 18.4363 12.8631 18.6474 13.1875 18.9863L17.3062 16.6084C17.2988 16.5832 17.292 16.5577 17.2858 16.532H6.51317ZM10.1891 19.7187L6.0697 17.3404C5.7453 17.6796 5.28824 17.8908 4.78185 17.8908C3.79776 17.8908 3 17.0931 3 16.109C3 15.2703 3.57945 14.5669 4.35985 14.3774V9.62248C3.57945 9.43296 3 8.7296 3 7.8909C3 6.90681 3.79776 6.10905 4.78185 6.10905C5.28825 6.10905 5.74531 6.3203 6.06971 6.65947L10.189 4.28118C10.1429 4.12274 10.1181 3.95519 10.1181 3.78185C10.1181 2.79776 10.9159 2 11.9 2C12.8841 2 13.6818 2.79776 13.6818 3.78185C13.6818 3.95519 13.6571 4.12275 13.6109 4.28118L17.7296 6.6591C18.054 6.32014 18.5109 6.10905 19.0171 6.10905C20.0012 6.10905 20.7989 6.90681 20.7989 7.8909C20.7989 8.72923 20.22 9.43235 19.4401 9.62223V14.3777C20.22 14.5675 20.7989 15.2707 20.7989 16.109C20.7989 17.0931 20.0012 17.8908 19.0171 17.8908C18.5109 17.8908 18.054 17.6798 17.7296 17.3408L13.6109 19.7187C13.6571 19.8772 13.6818 20.0448 13.6818 20.2182C13.6818 21.2022 12.8841 22 11.9 22C10.9159 22 10.1181 21.2022 10.1181 20.2182C10.1181 20.0448 10.1429 19.8772 10.1891 19.7187ZM5.20587 9.62199C5.98525 9.43174 6.5637 8.72887 6.5637 7.8909C6.5637 7.71773 6.53899 7.55033 6.49292 7.39204L10.6125 5.01362C10.6306 5.0326 10.6492 5.05118 10.6682 5.06935L5.28208 14.3983C5.2569 14.391 5.23149 14.3842 5.20587 14.3779V9.62199ZM18.5177 14.3981C18.543 14.3907 18.5684 14.3839 18.5941 14.3777V9.62223C17.8142 9.43235 17.2353 8.72923 17.2353 7.8909C17.2353 7.71755 17.26 7.54998 17.3062 7.39153L13.1875 5.01363C13.1693 5.03261 13.1508 5.05119 13.1318 5.06936L18.5177 14.3981Z" fill="#F472B6"/>
</svg>
