<svg width="24" height="24" viewBox="0 0 24 24" fill="none" xmlns="http://www.w3.org/2000/svg">
<path d="M10.1782 12.8693V18.5455H7.4552V5.45454H10.1015V10.4595H10.2166C10.4382 9.87997 10.7961 9.42613 11.2904 9.09801C11.7847 8.76562 12.4048 8.59943 13.1505 8.59943C13.8323 8.59943 14.4268 8.74858 14.9339 9.04687C15.4453 9.34091 15.8416 9.76491 16.1228 10.3189C16.4083 10.8686 16.549 11.527 16.5447 12.294V18.5455H13.8217V12.7798C13.8259 12.1747 13.6725 11.7038 13.3615 11.3672C13.0546 11.0305 12.6242 10.8622 12.0703 10.8622C11.6995 10.8622 11.3714 10.941 11.0859 11.0987C10.8046 11.2564 10.583 11.4865 10.4211 11.7891C10.2634 12.0874 10.1825 12.4474 10.1782 12.8693Z" fill="#60A5FA"/>
</svg>
