<svg width="24" height="24" viewBox="0 0 24 24" fill="none" xmlns="http://www.w3.org/2000/svg">
<path d="M6.06128 2.7176C5.08936 2.69328 3.88904 3.20152 3.88904 3.20152L7.85808 11.2527L5.75344 20.2503C7.6744 21.8747 9.79312 21.0978 9.79312 21.0978L10.7681 14.1354C10.8913 14.252 11.0218 14.3589 11.1535 14.4576C11.5766 14.7573 12.035 14.9863 12.4932 15.1626C12.9516 15.3389 13.4276 15.4799 13.9036 15.5857C14.221 15.6562 14.5205 15.7091 14.8378 15.7444C14.6967 16.0617 14.6086 16.3966 14.6263 16.7668C14.6263 16.802 14.6439 16.8372 14.6792 16.8548H14.6968C15.0317 17.0311 15.3842 17.1724 15.772 17.2605C16.1422 17.331 16.5478 17.3663 16.9356 17.3134C17.341 17.2606 17.7465 17.1018 18.0638 16.8374C18.3812 16.573 18.6103 16.2203 18.7514 15.8502L18.769 15.8326V15.815L18.822 15.3391V15.3214C18.9982 15.2156 19.1745 15.1098 19.3508 14.9689C19.5623 14.7926 19.7562 14.5986 19.8972 14.3518C20.0383 14.105 20.1264 13.8053 20.1087 13.5056C20.0911 13.2236 19.9852 12.9417 19.8618 12.6949C19.7384 12.4481 19.5798 12.2188 19.4036 12.0072C19.051 11.6018 18.6279 11.267 18.1696 11.0025C17.7288 10.7205 17.2352 10.4911 16.7416 10.3325L16.5477 10.2795L16.3893 10.2267C16.2835 10.1915 16.1952 10.1386 16.1071 10.1034C15.9308 9.9976 15.8073 9.89176 15.7191 9.75072C15.5429 9.48632 15.5253 9.08104 15.6134 8.65792C15.631 8.55216 15.6664 8.44632 15.7017 8.34056C15.7369 8.2348 15.7721 8.12896 15.8074 8.00552C15.8332 7.88866 15.8494 7.76985 15.8556 7.65032L18.2117 5.58872C18.0281 4.9108 15.9939 4.20448 15.9939 4.20448L9.94832 9.346L6.45952 2.76384C6.33424 2.7356 6.19992 2.72128 6.06112 2.71784L6.06128 2.7176ZM14.7493 8.61864C14.7131 8.80704 14.6971 9.00552 14.6971 9.20424C14.7147 9.50392 14.803 9.83912 14.9968 10.1212C15.1907 10.4032 15.455 10.6147 15.7195 10.7381C15.8496 10.8032 15.9854 10.8563 16.1251 10.8968L16.3367 10.9496L16.5129 10.9848C16.9713 11.1082 17.4118 11.2845 17.8173 11.5137C18.2227 11.7429 18.6106 12.0249 18.9279 12.3422C19.2453 12.6595 19.4921 13.065 19.5274 13.4705C19.545 13.7526 19.5096 13.9641 19.4214 14.1403C19.3334 14.3342 19.1923 14.5105 19.0337 14.6691C18.9632 14.7397 18.875 14.8101 18.8046 14.863C18.8046 14.7043 18.787 14.5458 18.7518 14.3871C18.7342 14.299 18.7164 14.2285 18.6812 14.1403C18.646 14.0698 18.6108 13.9818 18.5226 13.9289C18.505 13.9289 18.4872 13.9288 18.4872 13.9464C18.3814 14.2108 18.2052 14.4401 18.0114 14.5987C17.8174 14.7574 17.5706 14.8278 17.3238 14.8455C17.077 14.8631 16.8125 14.8103 16.5481 14.7398C16.2836 14.6693 16.0194 14.581 15.755 14.4929L15.7195 14.4752C15.6666 14.4576 15.5964 14.4754 15.5611 14.5106C15.4202 14.687 15.3142 14.8454 15.1909 15.0217C15.1079 15.153 15.0314 15.2884 14.9618 15.4273C14.6444 15.3038 14.3446 15.198 14.0274 15.0746C13.5866 14.8983 13.1458 14.7222 12.7404 14.5106C12.3173 14.3167 11.9121 14.0874 11.5595 13.823C11.3053 13.6323 11.0704 13.4321 10.8991 13.2032L11.093 11.8178L14.7493 8.61864Z" fill="#EA580C"/>
</svg>
