<svg width="24" height="24" viewBox="0 0 24 24" fill="none" xmlns="http://www.w3.org/2000/svg">
<path d="M12 21C16.9706 21 21 16.9706 21 12C21 7.02944 16.9706 3 12 3C7.02944 3 3 7.02944 3 12C3 16.9706 7.02944 21 12 21ZM12 4.125C12.739 4.125 13.5826 4.78903 14.2745 6.27166C14.5192 6.79596 14.7318 7.3985 14.9032 8.0625H9.09679C9.26819 7.3985 9.48082 6.79596 9.7255 6.27166C10.4174 4.78903 11.261 4.125 12 4.125ZM8.70604 5.79591C8.39509 6.46223 8.13561 7.22658 7.93798 8.0625H5.17853C6.11956 6.43574 7.6258 5.17684 9.42872 4.55434C9.15709 4.92624 8.91556 5.34694 8.70604 5.79591ZM7.71673 9.1875C7.57564 10.0744 7.5 11.0205 7.5 12C7.5 12.9795 7.57564 13.9256 7.71673 14.8125H4.64208C4.30801 13.9391 4.125 12.9909 4.125 12C4.125 11.0091 4.30801 10.0609 4.64208 9.1875H7.71673ZM7.93798 15.9375C8.13561 16.7734 8.39509 17.5378 8.70604 18.2041C8.91556 18.6531 9.15709 19.0738 9.42872 19.4457C7.6258 18.8232 6.11956 17.5643 5.17853 15.9375H7.93798ZM9.09679 15.9375H14.9032C14.7318 16.6015 14.5192 17.204 14.2745 17.7283C13.5826 19.211 12.739 19.875 12 19.875C11.261 19.875 10.4174 19.211 9.7255 17.7283C9.48082 17.204 9.26819 16.6015 9.09679 15.9375ZM15.1431 14.8125H8.85694C8.70763 13.9409 8.625 12.9937 8.625 12C8.625 11.0063 8.70763 10.0591 8.85694 9.1875H15.1431C15.2924 10.0591 15.375 11.0063 15.375 12C15.375 12.9937 15.2924 13.9409 15.1431 14.8125ZM16.062 15.9375H18.8215C17.8804 17.5643 16.3742 18.8232 14.5713 19.4457C14.8429 19.0738 15.0844 18.6531 15.294 18.2041C15.6049 17.5378 15.8644 16.7734 16.062 15.9375ZM19.3579 14.8125H16.2833C16.4244 13.9256 16.5 12.9795 16.5 12C16.5 11.0205 16.4244 10.0744 16.2833 9.1875H19.3579C19.692 10.0609 19.875 11.0091 19.875 12C19.875 12.9909 19.692 13.9391 19.3579 14.8125ZM14.5713 4.55434C16.3742 5.17684 17.8804 6.43574 18.8215 8.0625H16.062C15.8644 7.22658 15.6049 6.46223 15.294 5.79591C15.0844 5.34694 14.8429 4.92624 14.5713 4.55434Z" fill="#2563EB" stroke="#2563EB" stroke-width="0.5"/>
</svg>
