<svg width="25" height="24" viewBox="0 0 25 24" fill="none" xmlns="http://www.w3.org/2000/svg">
<path fill-rule="evenodd" clip-rule="evenodd" d="M12.209 1.89456H12.2235L12.2364 1.89472H12.3102L12.3232 1.89524H12.3247L12.3376 1.89576H12.339L12.3521 1.89629H12.3531L12.3662 1.89681H12.3678L12.3803 1.89733H12.3819L12.3944 1.89785H12.3954L12.4085 1.89838H12.4101L12.4231 1.89942H12.4247L12.4372 1.90046H12.4383L12.4508 1.90151H12.4524L12.4654 1.90255H12.4665L12.479 1.9036H12.4806L12.4936 1.90464H12.4952L12.5083 1.90569H12.5098L12.5229 1.90673H12.5245L12.537 1.90778H12.5386L12.5511 1.90882H12.5527L12.5657 1.90987H12.5673L12.5804 1.91143H12.5819L12.595 1.913H12.596L12.6086 1.91457H12.6101L12.6227 1.91614H12.6242L12.6373 1.9177H12.6389L12.6519 1.91927H12.653L12.6655 1.92084H12.6671L12.6801 1.9224H12.6817L12.6942 1.92449L12.6958 1.92502L12.7089 1.9271H12.7104L12.723 1.92919H12.724L12.7371 1.93128H12.7386L12.7512 1.93337H12.7527L12.7653 1.93546H12.7663L12.7794 1.93755H12.7809L12.7935 1.93964L12.7951 1.94016L12.8076 1.94225L12.8092 1.94278L12.8217 1.94539H12.8233L12.8358 1.94748H12.8374L12.8499 1.95009H12.8515L12.8645 1.9527H12.8656L12.8781 1.95531H12.8797L12.8922 1.95792H12.8933L12.9063 1.96054L12.9079 1.96106L12.9209 1.96367H12.922L12.9345 1.9668L12.9361 1.96733L12.9486 1.97046H12.9502L12.9633 1.9736L12.9643 1.97412L12.9768 1.97673L12.9784 1.97725L12.9909 1.97986L12.992 1.98039L13.0045 1.98352H13.0061L13.0186 1.98665L13.0202 1.98718L13.0327 1.99031L13.0338 1.99083L13.0468 1.99397L13.0479 1.99449L13.0604 1.99762L13.062 1.99815L13.0745 2.00128H13.0756L13.0881 2.00494H13.0897L13.1027 2.00807L13.1043 2.00859L13.1168 2.01173H13.1184L13.1309 2.01538L13.1325 2.01591L13.145 2.01956L13.1466 2.02009L13.1591 2.02374L13.1607 2.02426L13.1732 2.02792L13.1743 2.02844L13.1868 2.0321L13.1884 2.03262L13.2009 2.03628L13.2025 2.0368L13.215 2.04046L13.2166 2.04098L13.2291 2.04516L13.2302 2.04568L13.2427 2.04986H13.2443L13.2568 2.05404H13.2584L13.2709 2.05822L13.2725 2.05874L13.285 2.06292L13.2866 2.06344L13.2991 2.06762L13.3002 2.06814L13.3127 2.07232L13.3143 2.07284L13.3268 2.07702L13.3279 2.07755L13.3404 2.08172L13.3414 2.08225L13.3535 2.08643L13.355 2.08695L13.367 2.09113L13.3686 2.09165L13.3806 2.09635L13.3822 2.09687L13.3947 2.10157L13.3963 2.1021L13.4083 2.1068L13.4093 2.10732L13.4219 2.1115L13.4229 2.11202L13.4355 2.11672L13.437 2.11724L13.4496 2.12195L13.4511 2.12247L13.4632 2.12717L13.4647 2.12769L13.4767 2.13292L13.4778 2.13344L13.4903 2.13814L13.4919 2.13866L13.5039 2.14388L13.5055 2.14441L13.518 2.14963L13.5196 2.15015L13.5321 2.15538L13.5331 2.1559L13.5457 2.16112L13.5467 2.16165L13.5587 2.16687L13.5598 2.16739L13.5718 2.17261L13.5728 2.17314L13.5854 2.17836L13.5864 2.17888L13.5984 2.18411L13.6 2.18463L13.612 2.18985L13.6136 2.19038L13.6256 2.1956L13.6267 2.19612L13.6387 2.20187L13.6402 2.20239L13.6522 2.20814L13.6538 2.20866L13.6658 2.2144L13.6669 2.21493L13.6789 2.22067L13.6799 2.22119L13.6919 2.22694L13.6935 2.22746L13.7055 2.23321L13.7071 2.23373L13.7191 2.23948L13.7207 2.24L13.7327 2.24575L13.7337 2.24627L13.7457 2.25254L13.7468 2.25358L13.7588 2.25933L13.7599 2.25985L13.7713 2.26612L13.7729 2.26664L13.7849 2.27239L13.786 2.27291L13.798 2.27918L13.7996 2.2797L13.811 2.28597L13.8126 2.28701L13.8246 2.29328L13.8262 2.2938L13.8382 2.30007L13.8393 2.30059L13.8507 2.30686L13.8523 2.30791L13.8643 2.31417L13.8654 2.31522L13.8769 2.32201L13.8779 2.32305L13.8894 2.32985L13.891 2.33037L13.9025 2.33716L13.9035 2.33768L13.915 2.34447L13.916 2.34552L13.9275 2.35231L13.9291 2.35335L13.9401 2.36014H13.9411L19.8595 5.8375L19.8694 5.84325L19.8704 5.84429L19.8804 5.85004L19.8819 5.85056L19.8913 5.85683L19.8924 5.85787L19.9018 5.86362L19.9028 5.86466L19.9122 5.87041L19.9133 5.87093L19.9227 5.87668L19.9237 5.8772L19.9331 5.88295L19.9342 5.88347L19.9436 5.88922L19.9451 5.88974L19.9545 5.89601L19.9556 5.89653L19.965 5.9028L19.9666 5.90332L19.976 5.90907L19.977 5.90959L19.9864 5.91586L19.9874 5.9169L19.9969 5.92317L19.9979 5.92421L20.0068 5.92996L20.0083 5.93048L20.0177 5.93675L20.0188 5.93727L20.0282 5.94354L20.0292 5.94406L20.0381 5.95033L20.0392 5.95085L20.048 5.95712L20.0491 5.95764L20.058 5.96391L20.059 5.96496L20.0679 5.97123L20.0689 5.97175L20.0778 5.97854L20.0794 5.97958L20.0883 5.98585L20.0893 5.98638L20.0982 5.99264L20.0992 5.99317L20.1081 5.99943L20.1092 6.00048L20.118 6.00675L20.1191 6.00727L20.128 6.01354L20.129 6.01458L20.1379 6.02085L20.1389 6.0219L20.1478 6.02869L20.1494 6.02973L20.1577 6.03652L20.1593 6.03757L20.1682 6.04436L20.1698 6.04488L20.1786 6.05167L20.1797 6.05271L20.1886 6.05951L20.1896 6.06055L20.198 6.06734L20.1995 6.06839L20.2084 6.0757L20.21 6.07727L20.2267 6.09085L20.2288 6.09241L20.2455 6.10652L20.2476 6.10808L20.2648 6.12219L20.2669 6.12376L20.2841 6.13786L20.2862 6.13943L20.303 6.15353L20.305 6.15562L20.3218 6.16972L20.3238 6.17129L20.34 6.18592L20.3421 6.18748L20.3583 6.20211L20.3604 6.20368L20.3766 6.21883L20.3787 6.22039L20.3944 6.23502L20.3965 6.23659L20.4126 6.25173L20.4147 6.25382L20.4304 6.26897L20.4325 6.27106L20.4482 6.28621L20.4503 6.2883L20.4654 6.30345L20.4675 6.30554L20.4826 6.32121L20.4847 6.3233L20.4999 6.33897L20.5015 6.34106L20.5166 6.35673L20.5187 6.35882L20.5333 6.37449L20.5354 6.37658L20.55 6.39225L20.5521 6.39434L20.5667 6.41001L20.5688 6.4121L20.5835 6.42829L20.5856 6.43038L20.5997 6.4471L20.6012 6.44919L20.6158 6.46538L20.6179 6.46747L20.632 6.48419L20.6341 6.48627L20.6482 6.50299L20.6498 6.50508L20.6639 6.5218L20.666 6.52388L20.6796 6.5406L20.6811 6.54269L20.6947 6.55941L20.6968 6.56149L20.7104 6.57873L20.712 6.58082L20.725 6.59806L20.7266 6.60015L20.7396 6.61739L20.7412 6.61948L20.7543 6.63671L20.7558 6.63933L20.7689 6.65709L20.7705 6.65918L20.7835 6.67641L20.7851 6.67903L20.7976 6.69679L20.7992 6.69888L20.8117 6.71664L20.8133 6.71873L20.8258 6.73649L20.8274 6.7391L20.8394 6.75686L20.841 6.75947L20.853 6.77775L20.8546 6.78036L20.8661 6.79812L20.8676 6.80021L20.8791 6.81797L20.8807 6.82006L20.8927 6.83835L20.8943 6.84044L20.9058 6.85872L20.9073 6.86133L20.9183 6.87961L20.9199 6.88222L20.9314 6.90051L20.9329 6.90312L20.9439 6.9214L20.9455 6.92401L20.9564 6.94282L20.958 6.94491L20.9684 6.96371L20.97 6.96632L20.9805 6.98513L20.982 6.98774L20.9925 7.00655L20.994 7.00916L21.0045 7.02796L21.0055 7.03058L21.016 7.0499L21.017 7.05251L21.0269 7.07184L21.028 7.07445L21.0379 7.09378L21.0395 7.09587L21.0489 7.11572L21.0499 7.11833L21.0599 7.13766L21.0609 7.14027L21.0703 7.1596L21.0719 7.16221L21.0808 7.18206L21.0818 7.18467L21.0907 7.20452L21.0917 7.20713L21.1006 7.22698L21.1016 7.22959L21.1105 7.24944L21.1116 7.25206L21.1199 7.27191L21.121 7.27452L21.1293 7.29437L21.1304 7.29698L21.1382 7.31735L21.1393 7.31996L21.1471 7.33981L21.1481 7.34243L21.156 7.3628L21.157 7.36541L21.1648 7.38578L21.1659 7.38839L21.1737 7.40876L21.1748 7.41138L21.1821 7.43175L21.1831 7.43436L21.1899 7.45473L21.191 7.45734L21.1978 7.47772L21.1988 7.48033L21.2056 7.5007L21.2066 7.50331L21.2134 7.52421L21.214 7.52682L21.2202 7.54719L21.2213 7.5498L21.2275 7.5707L21.2281 7.57331L21.2343 7.5942L21.2354 7.59681L21.2416 7.61771L21.2427 7.62032L21.2484 7.64122L21.2495 7.64383L21.2552 7.66472L21.2557 7.66733L21.261 7.68823L21.262 7.69136L21.2678 7.71278L21.2683 7.71539L21.2735 7.73681L21.2745 7.73942L21.2792 7.76084L21.2803 7.76345L21.2855 7.78487L21.286 7.788L21.2907 7.80942L21.2913 7.81203L21.296 7.83344L21.2965 7.83606L21.3007 7.85747L21.3012 7.86008L21.3054 7.8815L21.3059 7.88411L21.3101 7.90553L21.3106 7.90814L21.3142 7.93008L21.3148 7.93269L21.3184 7.95411L21.3189 7.95724L21.3226 7.97918L21.3231 7.98232L21.3263 8.00426L21.3268 8.00739L21.3299 8.02881V8.0309L21.3315 8.04239V8.04343L21.3325 8.0544V8.05597L21.3341 8.06694V8.06798L21.3357 8.07895V8.08052L21.3372 8.09149L21.3378 8.09306L21.3393 8.10403V8.10559L21.3404 8.11656L21.3409 8.11761L21.3419 8.12858L21.3425 8.13015L21.3435 8.14112V8.14268L21.3445 8.15365L21.3451 8.15522L21.3461 8.16619L21.3466 8.16776L21.3477 8.17873V8.18029L21.3487 8.19126V8.19283L21.3498 8.2038V8.20537L21.3508 8.21634V8.2179L21.3519 8.22887V8.23044L21.3524 8.24141V8.24298L21.3529 8.25447V8.25603L21.3539 8.26753V8.26857L21.3545 8.27954V8.28111L21.355 8.29208V8.29365L21.3555 8.30461V8.30618L21.356 8.31715V8.31872L21.3566 8.33021V8.33178L21.3571 8.34275V8.34431L21.3576 8.35528V8.35633L21.3581 8.3673V15.6595L21.3576 15.6715V15.6866L21.3571 15.6986V15.7002L21.3566 15.7117V15.7127L21.356 15.7248V15.7263L21.3555 15.7378V15.7389L21.355 15.7504V15.7519L21.3545 15.7634L21.3539 15.765L21.3534 15.7765V15.778L21.3529 15.7895V15.7906L21.3524 15.8026V15.8042L21.3513 15.8162V15.8172L21.3503 15.8292V15.8308L21.3492 15.8423V15.8439L21.3487 15.8553V15.8569L21.3477 15.8684V15.87L21.3466 15.8815V15.883L21.3456 15.8945V15.8961L21.3445 15.9076L21.344 15.9086L21.343 15.9206L21.3425 15.9222L21.3414 15.9337V15.9353L21.3404 15.9468L21.3398 15.9483L21.3383 15.9598V15.9614L21.3367 15.9729V15.9739L21.3351 15.9854V15.987L21.3336 15.9985L21.3331 16L21.3315 16.0121L21.331 16.0136L21.3294 16.0251L21.3289 16.0267L21.3273 16.0382V16.0397L21.3257 16.0512V16.0528L21.3242 16.0643L21.3236 16.0659L21.3221 16.0774L21.3216 16.0789L21.3195 16.0904V16.0915L21.3179 16.1029V16.104L21.3158 16.1155L21.3153 16.1171L21.3137 16.1285L21.3132 16.1301L21.3116 16.1416V16.1426L21.3095 16.1541V16.1552L21.3075 16.1667V16.1677L21.3054 16.1792V16.1808L21.3033 16.1917L21.3028 16.1933L21.3007 16.2043L21.3001 16.2059L21.2981 16.2173L21.2975 16.2189L21.2949 16.2304V16.2314L21.2923 16.2429V16.244L21.2902 16.255V16.2565L21.2876 16.268V16.2691L21.2855 16.2806L21.285 16.2816L21.2824 16.2926V16.2936L21.2798 16.3046V16.3061L21.2772 16.3171L21.2766 16.3187L21.274 16.3297L21.2735 16.3312L21.2709 16.3422L21.2704 16.3432L21.2678 16.3542L21.2672 16.3552L21.2646 16.3662L21.2641 16.3678L21.261 16.3788L21.2604 16.3803L21.2578 16.3913L21.2573 16.3929L21.2542 16.4038V16.4054L21.251 16.4169L21.2505 16.4185L21.2474 16.4294V16.431L21.2442 16.442L21.2437 16.4435L21.2406 16.4545L21.2401 16.4561L21.2369 16.4676L21.2364 16.4686L21.2333 16.4796L21.2328 16.4806L21.2296 16.4916L21.2291 16.4932L21.2254 16.5041L21.2249 16.5057L21.2218 16.5167L21.2213 16.5177L21.2181 16.5287L21.2176 16.5302L21.2145 16.5412L21.214 16.5423L21.2103 16.5532L21.2098 16.5548L21.2061 16.5658L21.2056 16.5673L21.2019 16.5783L21.2014 16.5799L21.1978 16.5908L21.1972 16.5924L21.1936 16.6034L21.1931 16.6044L21.1894 16.6154L21.1889 16.617L21.1852 16.6279L21.1847 16.6295L21.181 16.6405L21.1805 16.6415L21.1769 16.6525L21.1763 16.654L21.1727 16.665L21.1722 16.6666L21.168 16.677L21.1675 16.6786L21.1638 16.689L21.1633 16.6906L21.1596 16.7011L21.1591 16.7026L21.1554 16.7136L21.1549 16.7152L21.1507 16.7261L21.1502 16.7277L21.146 16.7381L21.1455 16.7397L21.1413 16.7502L21.1408 16.7517L21.1366 16.7622L21.1361 16.7637L21.1319 16.7742L21.1314 16.7757L21.1272 16.7862L21.1267 16.7878L21.1225 16.7982L21.122 16.7993L21.1173 16.8097L21.1168 16.8113L21.1121 16.8222L21.1116 16.8238L21.1074 16.8343L21.1069 16.8358L21.1022 16.8463L21.1016 16.8478L21.0969 16.8583L21.0964 16.8598L21.0917 16.8703L21.0912 16.8713L21.0865 16.8818L21.086 16.8834L21.0813 16.8938L21.0808 16.8948L21.076 16.9053L21.0755 16.9063L21.0708 16.9168L21.0703 16.9178L21.0656 16.9283L21.0651 16.9293L21.0599 16.9398L21.0593 16.9408L21.0541 16.9507L21.0536 16.9523L21.0489 16.9628L21.0484 16.9638L21.0431 16.9737L21.0426 16.9753L21.0379 16.9857L21.0374 16.9868L21.0322 16.9972L21.0316 16.9988L21.0264 17.0092L21.0259 17.0103L21.0207 17.0202L21.0202 17.0213L21.0149 17.0317L21.0144 17.0333L21.0092 17.0437L21.0087 17.0453L21.0034 17.0557L21.0024 17.0573L20.9972 17.0672L20.9966 17.0683L20.9914 17.0787L20.9909 17.0803L20.9857 17.0907L20.9852 17.0923L20.9794 17.1022L20.9784 17.1033L20.9726 17.1132L20.9721 17.1142L20.9664 17.1242L20.9658 17.1252L20.9601 17.1351L20.9596 17.1362L20.9538 17.1461L20.9533 17.1471L20.9475 17.1571L20.947 17.1586L20.9413 17.1686L20.9408 17.1696L20.935 17.1795L20.9345 17.1811L20.9287 17.191L20.9277 17.1921L20.922 17.202L20.9209 17.203L20.9152 17.213L20.9146 17.214L20.9089 17.2239L20.9084 17.2255L20.9021 17.2354L20.9016 17.2365L20.8958 17.2459L20.8953 17.2474L20.8896 17.2568L20.8885 17.2579L20.8823 17.2678L20.8817 17.2694L20.8755 17.2788L20.8744 17.2798L20.8681 17.2892L20.8676 17.2903L20.8614 17.3002L20.8603 17.3018L20.854 17.3112L20.853 17.3122L20.8467 17.3216L20.8462 17.3227L20.8399 17.3326L20.8394 17.3336L20.8331 17.343L20.8321 17.3441L20.8253 17.3535L20.8248 17.3545L20.8185 17.3639L20.818 17.365L20.8112 17.3744L20.8107 17.3754L20.8044 17.3848L20.8034 17.3859L20.7971 17.3953L20.7961 17.3963L20.7893 17.4057L20.7882 17.4068L20.782 17.4162L20.7814 17.4172L20.7746 17.4266L20.7736 17.4282L20.7673 17.4376L20.7663 17.4386L20.7595 17.448L20.7585 17.4491L20.7517 17.4585L20.7506 17.4595L20.7438 17.4689L20.7428 17.47L20.736 17.4794L20.7355 17.4804L20.7287 17.4893L20.7276 17.4903L20.7208 17.4992L20.7203 17.5003L20.713 17.5091L20.712 17.5102L20.7052 17.5191L20.7046 17.5201L20.6979 17.5295L20.6968 17.5306L20.6895 17.54L20.6885 17.541L20.6811 17.5499L20.6801 17.5509L20.6728 17.5598L20.6723 17.5609L20.6649 17.5697L20.6639 17.5708L20.6566 17.5797L20.6555 17.5807L20.6482 17.5896L20.6472 17.5906L20.6399 17.5995L20.6388 17.6006L20.6315 17.6094L20.631 17.6105L20.6237 17.6194L20.6226 17.6204L20.6148 17.6293L20.6138 17.6303L20.6064 17.6392L20.6054 17.6403L20.5981 17.6491L20.597 17.6502L20.5897 17.6591L20.5887 17.6601L20.5814 17.669L20.5803 17.67L20.573 17.6784L20.572 17.6794L20.5641 17.6883L20.5631 17.6894L20.5558 17.6982L20.5547 17.6993L20.5469 17.7082L20.5459 17.7092L20.5385 17.7181L20.5375 17.7191L20.5297 17.7275L20.5286 17.7285L20.5208 17.7369L20.5197 17.7379L20.5119 17.7463L20.5109 17.7473L20.503 17.7557L20.502 17.7567L20.4941 17.7651L20.4931 17.7661L20.4853 17.7745L20.4842 17.7755L20.4764 17.7839L20.4753 17.785L20.4675 17.7933L20.4665 17.7944L20.4581 17.8027L20.4571 17.8038L20.4492 17.8121L20.4482 17.8132L20.4403 17.821L20.4393 17.822L20.4309 17.8304L20.4294 17.8314L20.421 17.8398L20.42 17.8408L20.4116 17.8487L20.4106 17.8497L20.4022 17.8581L20.4012 17.8591L20.3928 17.867L20.3918 17.868L20.3834 17.8758L20.3824 17.8769L20.374 17.8847L20.3729 17.8858L20.3646 17.8936L20.3635 17.8946L20.3552 17.9025L20.3541 17.9035L20.3458 17.9114L20.3447 17.9124L20.3359 17.9202L20.3348 17.9208L20.3265 17.9286L20.3254 17.9296L20.3165 17.9375L20.3155 17.9385L20.3066 17.9464L20.3056 17.9469L20.2967 17.9547L20.2956 17.9558L20.2868 17.9631L20.2852 17.9641L20.2763 17.9714L20.2753 17.9725L20.2664 17.9803L20.2653 17.9814L20.2565 17.9892L20.2554 17.9902L20.2465 17.9981L20.2455 17.9991L20.2366 18.0064L20.2356 18.0075L20.2262 18.0148L20.2251 18.0153L20.2162 18.0226L20.2152 18.0237L20.2063 18.031L20.2047 18.032L20.1959 18.0393L20.1948 18.0404L20.1859 18.0477L20.1849 18.0487L20.176 18.0561L20.175 18.0571L20.1656 18.0644L20.1645 18.0655L20.1556 18.0722L20.1546 18.0733L20.1452 18.0806L20.1442 18.0817L20.1348 18.089L20.1337 18.09L20.1243 18.0973L20.1233 18.0984L20.1139 18.1057L20.1128 18.1062L20.1034 18.113L20.1024 18.1135L20.093 18.1203L20.0919 18.1208L20.0825 18.1276L20.0809 18.1281L20.0715 18.1349L20.0705 18.136L20.0611 18.1428L20.0601 18.1438L20.0507 18.1506L20.0496 18.1516L20.0402 18.1584L20.0386 18.1595L20.0292 18.1663L20.0282 18.1668L20.0183 18.1736L20.0167 18.1741L20.0068 18.1809L20.0057 18.1819L19.9958 18.1887L19.9948 18.1898L19.9848 18.196L19.9838 18.1971L19.9739 18.2039L19.9728 18.2049L19.9634 18.2117L19.9619 18.2128L19.9519 18.219L19.9509 18.2196L19.941 18.2258L19.9394 18.2263L19.9295 18.2326L19.9284 18.2337L19.9185 18.2399L19.9175 18.241L19.9075 18.2472L19.9065 18.2478L19.8966 18.254L19.895 18.2546L19.8851 18.2608L19.884 18.2619L19.8741 18.2681L19.8725 18.2687L19.8626 18.2749L19.861 18.276L19.8511 18.2822L19.8495 18.2833L19.8391 18.2896L19.8381 18.2906L19.8281 18.2963L19.8266 18.2969L19.8166 18.3026L19.8156 18.3037L19.8051 18.3099L19.8036 18.311L19.7931 18.3167L19.7921 18.3178L19.7822 18.3235L19.7806 18.324L19.7701 18.3298L19.7686 18.3303L19.7581 18.336L19.7571 18.3366L19.7472 18.3423L19.7466 18.3428L13.6909 21.7173H13.6904L13.681 21.723L13.6794 21.7236L13.6695 21.7293L13.6679 21.7303L13.658 21.7356L13.6564 21.7361L13.6465 21.7413L13.6455 21.7418L13.6355 21.7471L13.634 21.7476L13.624 21.7528L13.6225 21.7533L13.6125 21.7586L13.611 21.7591L13.6011 21.7643L13.6 21.7648L13.5901 21.77L13.589 21.7706L13.5791 21.7753L13.5781 21.7758L13.5676 21.781L13.5666 21.7821L13.5567 21.7873L13.5556 21.7878L13.5457 21.7925L13.5446 21.793L13.5347 21.7977L13.5337 21.7983L13.5237 21.8035L13.5227 21.804L13.5123 21.8087L13.5112 21.8092L13.5013 21.8139L13.5002 21.8144L13.4898 21.8191L13.4887 21.8197L13.4788 21.8244L13.4778 21.8249L13.4679 21.8296L13.4663 21.8306L13.4558 21.8353L13.4548 21.8359L13.4443 21.84L13.4433 21.8406L13.4329 21.8453L13.4318 21.8463L13.4214 21.851L13.4198 21.8515L13.4099 21.8557L13.4088 21.8562L13.3984 21.8609L13.3973 21.8615L13.3869 21.8656L13.3858 21.8662L13.3754 21.8703L13.3744 21.8709L13.3639 21.875L13.3623 21.8756L13.3519 21.8797L13.3503 21.8803L13.3399 21.8844L13.3383 21.885L13.3284 21.8891L13.3273 21.8897L13.3169 21.8933L13.3158 21.8938L13.3054 21.898L13.3038 21.8985L13.2934 21.9027L13.2918 21.9032L13.2814 21.9074L13.2798 21.9079L13.2694 21.9116L13.2678 21.9121L13.2573 21.9163L13.2558 21.9168L13.2453 21.9205L13.2443 21.921L13.2338 21.9247L13.2323 21.9252L13.2218 21.9288L13.2203 21.9294L13.2098 21.933L13.2082 21.9335L13.1978 21.9372L13.1967 21.9377L13.1863 21.9414L13.1759 21.945L13.1743 21.9456L13.1633 21.9487L13.1618 21.9492L13.1513 21.9524L13.1503 21.9529L13.1398 21.9565L13.1388 21.9571L13.1278 21.9602L13.1262 21.9607L13.1158 21.9638L13.1142 21.9644L13.1038 21.9675L13.1022 21.968L13.0912 21.9717L13.0891 21.9722L13.0682 21.9785L13.0656 21.9795L13.0442 21.9858L13.0416 21.9863L13.0202 21.9926L13.0176 21.9931L12.9962 21.9988L12.9935 21.9999L12.9721 22.0056L12.9695 22.0062L12.9481 22.0119L12.945 22.0124L12.9236 22.0176L12.9209 22.0182L12.8995 22.0234L12.8964 22.0239L12.875 22.0291L12.8724 22.0297L12.8509 22.0344L12.8483 22.0349L12.8264 22.0396L12.8233 22.0401L12.8013 22.0448L12.7987 22.0453L12.7768 22.0495L12.7742 22.05L12.7527 22.0537L12.7501 22.0542L12.7287 22.0584L12.7261 22.0589L12.7042 22.0626L12.7016 22.0631L12.6796 22.0667L12.677 22.0673L12.6551 22.0704L12.6524 22.0709L12.6305 22.0741L12.6279 22.0746L12.606 22.0777L12.6033 22.0782L12.5814 22.0814L12.5783 22.0819L12.5563 22.0845L12.5537 22.085L12.5318 22.0876L12.5292 22.0882L12.5072 22.0908L12.4853 22.0929H12.4827L12.4607 22.0944L12.4581 22.095L12.4362 22.0965H12.4336L12.4116 22.0981H12.409L12.3871 22.0997L12.384 22.1002L12.362 22.1017H12.3594L12.3375 22.1028H12.3349L12.3129 22.1038H12.3098L12.2878 22.1044H12.2852L12.2633 22.1049H12.2607L12.2387 22.1054H12.1614L12.1395 22.1049L12.1175 22.1044H12.1144L12.0925 22.1038H12.092L12.0701 22.1028L12.0675 22.1023L12.0455 22.1012H12.0429L12.021 22.1002L12.0184 22.0997L11.9964 22.0986H11.9938L11.9719 22.097L11.9693 22.0965L11.9473 22.0944L11.9442 22.0939L11.9222 22.0918L11.9191 22.0913L11.8972 22.0892L11.8946 22.0887L11.8726 22.0866H11.87L11.8481 22.0845L11.8455 22.084L11.8235 22.0814H11.8204L11.7984 22.0788L11.7953 22.0782L11.7734 22.0751L11.7708 22.0746L11.7488 22.0714L11.7462 22.0709L11.7243 22.0678L11.7217 22.0673L11.6997 22.0641L11.6971 22.0636L11.6757 22.06H11.6741L11.6522 22.0558L11.6494 22.0553L11.6279 22.0511L11.6253 22.0506L11.6039 22.0464L11.6013 22.0459L11.5799 22.0417L11.5767 22.0412L11.555 22.037L11.5524 22.0365L11.531 22.0317L11.5279 22.0307L11.5064 22.026L11.5038 22.0255L11.4824 22.0203L11.4795 22.0192L11.4581 22.014L11.4555 22.0129L11.434 22.0072L11.4314 22.0067L11.41 22.0009L11.4074 21.9999L11.386 21.9941L11.3834 21.9931L11.362 21.9873L11.3593 21.9863L11.3379 21.98L11.3348 21.979L11.3134 21.9727L11.3108 21.9717L11.2893 21.9654L11.2867 21.9644L11.2653 21.9581L11.2627 21.9576L11.2419 21.9508L11.2398 21.9503L11.2289 21.9466H11.2274L11.217 21.9435L11.2154 21.9429L11.205 21.9393L11.2034 21.9388L11.193 21.9351L11.1914 21.9346L11.181 21.9309L11.1794 21.9304L11.1689 21.9268L11.1674 21.9262L11.1569 21.9226L11.1559 21.9221L11.1454 21.9184L11.1444 21.9179L11.1339 21.9142L11.1329 21.9137L11.1225 21.9095L11.1209 21.909L11.1104 21.9048L11.1089 21.9043L11.0984 21.9001L11.0974 21.8996L11.0869 21.8954L11.0854 21.8949L11.0749 21.8907L11.0739 21.8902L11.0634 21.886L11.0619 21.8855L11.0514 21.8813L11.0504 21.8808L11.0399 21.8766L11.0389 21.8761L11.0284 21.8719L11.0269 21.8714L11.0164 21.8672L11.0148 21.8667L11.0044 21.8625L11.0028 21.862L10.9924 21.8578L10.9908 21.8573L10.9804 21.8531L10.9793 21.8526L10.9689 21.8479L10.9673 21.8474L10.9574 21.8427L10.9563 21.8421L10.9459 21.8374L10.9448 21.8369L10.9344 21.8322L10.9334 21.8317L10.9229 21.8275L10.9213 21.827L10.9114 21.8223L10.9099 21.8218L10.8994 21.8171L10.8978 21.8165L10.8879 21.8118L10.8869 21.8108L10.8769 21.8061L10.8759 21.8056L10.866 21.8009L10.8649 21.8003L10.8545 21.7956L10.8534 21.7946L10.843 21.7894L10.8419 21.7883L10.832 21.7836L10.8305 21.7831L10.82 21.7784L10.819 21.7774L10.809 21.7721L10.8075 21.7716L10.797 21.7664L10.796 21.7659L10.7861 21.7606L10.7845 21.7601L10.7746 21.7549L10.7735 21.7544L10.7636 21.7492L10.762 21.7481L10.7521 21.7429L10.7511 21.7424L10.7411 21.7371L10.7401 21.7366L10.7302 21.7314L10.7286 21.7303L10.7187 21.7251L10.7176 21.7246L10.7077 21.7189L10.7061 21.7178L10.6962 21.7126L10.6946 21.7121L10.6847 21.7068L10.6831 21.7063L10.6732 21.7011L10.6717 21.7006L10.6617 21.6948L10.6602 21.6943L10.6508 21.6886L10.6492 21.688L10.6398 21.6823L10.6393 21.6818L5.16492 18.4865L5.1644 18.486L5.15291 18.4792L5.15186 18.4786L5.14037 18.4719L5.1388 18.4713L5.12679 18.4645L5.12522 18.464L5.11373 18.4567L5.11268 18.4562L5.10119 18.4489L5.10015 18.4478L5.08865 18.4405L5.08761 18.4395L5.07612 18.4322L5.07455 18.4316L5.06306 18.4248L5.06149 18.4238L5.05 18.4165L5.04896 18.4154L5.03746 18.4081H5.04013L5.02864 18.4008L5.02707 18.3998L5.01558 18.3925L5.01453 18.3914L5.00304 18.3841L5.00158 18.3831L4.99009 18.3752L4.98852 18.3742L4.97703 18.3663L4.97598 18.3653L4.96449 18.358L4.96344 18.3569L4.95195 18.3491L4.95091 18.3481L4.93942 18.3402L4.93837 18.3392L4.9274 18.3313L4.92583 18.3303L4.9146 18.3225L4.91356 18.3214L4.90259 18.3136L4.90128 18.3125L4.89031 18.3047L4.8889 18.3037L4.87793 18.2958L4.87689 18.2953L4.86592 18.2875L4.86488 18.2864L4.85406 18.2786L4.85302 18.2775L4.84226 18.2697L4.84069 18.2692L4.82972 18.2613L4.82868 18.2603L4.81771 18.2519L4.81666 18.2509L4.80569 18.2431L4.80433 18.242L4.79336 18.2337L4.79201 18.2326L4.78156 18.2243L4.78051 18.2232L4.77007 18.2149L4.76902 18.2143L4.75857 18.206L4.75753 18.2049L4.74708 18.1966L4.74604 18.1955L4.73559 18.1872L4.73455 18.1861L4.7241 18.1778L4.72305 18.1767L4.71261 18.1684L4.71156 18.1673L4.70111 18.159L4.70007 18.1579L4.68962 18.149L4.68858 18.1485L4.67813 18.1402L4.67709 18.1391L4.66695 18.1308L4.66591 18.1297L4.65546 18.1208L4.65442 18.1198L4.64397 18.1114L4.64292 18.1104L4.63248 18.1015L4.63143 18.101L4.62119 18.0926L4.62015 18.0916L4.61022 18.0832L4.60918 18.0822L4.59925 18.0733L4.59821 18.0722L4.58828 18.0634L4.58724 18.0623L4.57732 18.0534L4.57627 18.0524L4.56635 18.0435L4.5653 18.0425L4.55538 18.0336L4.55433 18.0325L4.54441 18.0231L4.54336 18.0226L4.53344 18.0137L4.53187 18.0127L4.52221 18.0033L4.52116 18.0023L4.51124 17.9934L4.51019 17.9923L4.50048 17.9829L4.49943 17.9819L4.49003 17.9725L4.48898 17.9714L4.47958 17.962L4.47854 17.961L4.46861 17.9516L4.46757 17.9505L4.45764 17.9411L4.4566 17.9406L4.4472 17.9312L4.44615 17.9302L4.43675 17.9208L4.4357 17.9197L4.4263 17.9103L4.42526 17.9093L4.41585 17.8999L4.41481 17.8988L4.40541 17.8894L4.40436 17.8884L4.39496 17.879L4.39391 17.8779L4.38503 17.8685L4.38399 17.8675L4.37459 17.8581L4.37354 17.857L4.36414 17.8471L4.36309 17.8461L4.35421 17.8361L4.35317 17.8351L4.34429 17.8252L4.34325 17.8241L4.33384 17.8142L4.3328 17.8132L4.32392 17.8032L4.32287 17.8022L4.31399 17.7923L4.31295 17.7912L4.30407 17.7813L4.30302 17.7803L4.29414 17.7703L4.2931 17.7693L4.28422 17.7594L4.2837 17.7583L4.27534 17.7484L4.27429 17.7473L4.26541 17.7374L4.26437 17.7364L4.25497 17.7259L4.25392 17.7249L4.24504 17.715L4.244 17.7139L4.23512 17.7035L4.23407 17.7024L4.22571 17.6925L4.22519 17.6914L4.21683 17.6815L4.21579 17.6805L4.20743 17.67L4.20639 17.669L4.19751 17.6585L4.19646 17.6575L4.1881 17.6476L4.18706 17.6465L4.17818 17.6366L4.17713 17.6356L4.16878 17.6256L4.16773 17.6246L4.15937 17.6141L4.15833 17.6131L4.14997 17.6026L4.14893 17.6016L4.14057 17.5912L4.13952 17.5901L4.13117 17.5797L4.13012 17.5786L4.12176 17.5682L4.12124 17.5671L4.11341 17.5567L4.11236 17.5556L4.10453 17.5452L4.104 17.5441L4.09617 17.5337L4.09512 17.5327L4.08729 17.5217L4.08624 17.5206L4.07841 17.5102L4.07736 17.5091L4.06953 17.4987L4.06901 17.4977L4.06117 17.4867L4.06065 17.4856L4.05281 17.4747L4.05229 17.4736L4.04445 17.4632L4.04393 17.4621L4.0361 17.4517L4.03505 17.4506L4.02722 17.4397L4.02617 17.4386L4.01834 17.4277L4.01729 17.4261L4.00998 17.4151L4.00893 17.4141L4.00162 17.4031L4.00058 17.4021L3.99326 17.3911L3.99222 17.39L3.98491 17.3791L3.98438 17.378L3.97707 17.3671L3.97603 17.3655L3.96871 17.3545L3.96767 17.3535L3.96035 17.3425L3.95931 17.3415L3.952 17.3305L3.95095 17.3295L3.94364 17.3185L3.94259 17.3174L3.9358 17.3065L3.93528 17.3054L3.92849 17.2945L3.92745 17.2929L3.92013 17.2819L3.91909 17.2803L3.91177 17.2694L3.91125 17.2683L3.90394 17.2568L3.90342 17.2553L3.89663 17.2443L3.89558 17.2433L3.88879 17.2323L3.88775 17.2312L3.88096 17.2198L3.87991 17.2182L3.87312 17.2072L3.8726 17.2062L3.86581 17.1947L3.86528 17.1936L3.85849 17.1827L3.85745 17.1811L3.85066 17.1696L3.84961 17.168L3.84282 17.1566L3.84178 17.155L3.83551 17.1435L3.83447 17.1424L3.82767 17.131L3.82715 17.1299L3.82088 17.1184L3.82036 17.1174L3.81409 17.1059L3.81357 17.1043L3.8073 17.0928L3.80626 17.0913L3.79999 17.0798L3.79947 17.0782L3.7932 17.0662L3.79268 17.0651L3.78641 17.0536L3.78589 17.0521L3.77962 17.0406L3.77909 17.039L3.77283 17.0275L3.7723 17.026L3.76656 17.0139L3.76604 17.0129L3.75977 17.0009L3.75925 16.9993L3.75298 16.9873L3.75193 16.9863L3.74619 16.9742L3.74566 16.9732L3.73992 16.9617L3.7394 16.9601L3.73365 16.9481V16.9487L3.7279 16.9366L3.72686 16.9351L3.72111 16.9231L3.72059 16.9215L3.71484 16.91L3.71432 16.9084L3.70858 16.8964L3.70805 16.8954L3.70231 16.8834L3.70179 16.8823L3.69656 16.8703L3.69604 16.8693L3.69029 16.8572L3.68977 16.8562L3.68403 16.8442L3.6835 16.8431L3.67776 16.8311L3.67723 16.8296L3.67201 16.8175L3.67149 16.8165L3.66574 16.8045L3.66522 16.8029L3.65947 16.7909L3.65895 16.7899L3.65373 16.7778L3.65321 16.7768L3.64798 16.7648L3.64746 16.7632L3.64224 16.7512L3.64171 16.7502L3.63701 16.7381L3.63649 16.7371L3.63127 16.7251L3.63074 16.7235L3.62604 16.711L3.62552 16.7099L3.6203 16.6979L3.61977 16.6964L3.61507 16.6849L3.61455 16.6833L3.60933 16.6708L3.60881 16.6697L3.6041 16.6572L3.60358 16.6556L3.59888 16.6431L3.59836 16.642L3.59366 16.6295L3.59313 16.6279L3.58843 16.6154L3.58791 16.6143L3.58321 16.6018L3.58269 16.6008L3.57851 16.5882L3.57799 16.5867L3.57328 16.5741L3.57276 16.5731L3.56858 16.5605L3.56806 16.559L3.56388 16.5464L3.56336 16.5449L3.55866 16.5323L3.55814 16.5308L3.55396 16.5182L3.55343 16.5172L3.54926 16.5046L3.54873 16.5036L3.54455 16.4911L3.54403 16.4895L3.53985 16.477L3.53933 16.4754L3.53515 16.4629L3.53463 16.4613L3.53045 16.4488L3.52993 16.4472L3.52575 16.4346L3.52528 16.4331L3.52162 16.4206L3.5211 16.4196L3.51692 16.4065L3.5164 16.4049L3.51274 16.3919L3.51222 16.3903L3.50856 16.3778L3.50804 16.3762L3.50438 16.3637L3.50386 16.3621L3.50021 16.349L3.49968 16.3475L3.49603 16.3344L3.4955 16.3334L3.49185 16.3203L3.49133 16.3198L3.48767 16.3067L3.48715 16.3057L3.48401 16.2931L3.48349 16.2921L3.48036 16.2796V16.2785L3.4767 16.2655V16.2639L3.47357 16.2514L3.47304 16.2498L3.46991 16.2372L3.46939 16.2357L3.46625 16.2226H3.46677L3.46364 16.2096L3.46312 16.2085L3.45998 16.1955L3.45946 16.1944L3.45633 16.1814L3.45581 16.1803L3.45267 16.1673L3.45319 16.1667L3.45006 16.1537L3.44954 16.1521L3.4464 16.139L3.44588 16.1375L3.44327 16.1244L3.44275 16.1228L3.43961 16.1098L3.43909 16.1087L3.43648 16.0957L3.43596 16.0941L3.43334 16.0811L3.43282 16.0795L3.43021 16.0664L3.4276 16.0534V16.0518L3.42499 16.0382V16.0367L3.42237 16.0236L3.42185 16.022L3.41872 16.0095V16.0079L3.41611 15.9938L3.41558 15.9923L3.41297 15.9787L3.41245 15.9771L3.41036 15.9641L3.40984 15.9625L3.40775 15.9494V15.9479L3.40566 15.9348V15.9332L3.40357 15.9202L3.40305 15.9186L3.40096 15.9055V15.9061L3.39887 15.893V15.892L3.39678 15.8789V15.8773L3.39469 15.8643V15.8627L3.3926 15.8497V15.8486L3.39103 15.835V15.8335L3.38947 15.8204V15.8194L3.38738 15.8058L3.38685 15.8042L3.38529 15.7911V15.7896L3.38372 15.776L3.3832 15.7744L3.38163 15.7609V15.7593L3.38006 15.7457L3.37954 15.7441L3.37797 15.7306V15.729L3.37641 15.7154L3.37588 15.7144L3.37432 15.7008L3.37327 15.6872V15.6856L3.37171 15.6721L3.37118 15.6705L3.36962 15.6569V15.6553L3.36857 15.6418L3.36805 15.6402L3.367 15.6266V15.625L3.36596 15.6115V15.6099L3.36491 15.5963L3.36387 15.5827V15.5812L3.36283 15.5676V15.566L3.36178 15.5524V15.5356L3.36126 15.522V15.5204L3.36074 15.5068V15.5053L3.36021 15.4917L3.35969 15.4901L3.35917 15.4765V15.4619L3.35865 15.4483V15.4468L3.35812 15.4332V8.82008L3.35865 8.80702V8.79031L3.35917 8.77673V8.72867L3.35969 8.71509V8.71404L3.36021 8.70046V8.69889L3.36074 8.68531V8.68375L3.36126 8.67016V8.66912L3.36178 8.65554V8.65397L3.3623 8.64039V8.63882L3.36335 8.62472V8.62315L3.36439 8.60957V8.60852L3.36491 8.59494V8.59338L3.36596 8.57979V8.57823L3.36648 8.56465V8.56308L3.367 8.5495V8.54793L3.36805 8.53435V8.53278L3.36909 8.5192V8.51763L3.37066 8.50405V8.50249L3.37171 8.4889L3.37223 8.48786L3.37327 8.47428V8.47323L3.37484 8.45965V8.45861L3.37641 8.44503L3.37693 8.44346L3.3785 8.42988V8.42831L3.38006 8.41473V8.41368L3.38163 8.4001V8.39906L3.3832 8.38548L3.38372 8.38391L3.38529 8.37033V8.36876L3.38685 8.3557V8.35413L3.38842 8.34055V8.33899L3.38999 8.3254L3.39051 8.32384L3.39208 8.31078V8.30921L3.39417 8.29563V8.29406L3.39573 8.28048L3.39626 8.27891L3.39782 8.26586L3.39835 8.26429L3.40044 8.25071L3.40096 8.24966L3.40305 8.23608V8.23504L3.40514 8.22145V8.22041L3.40723 8.20735L3.40775 8.20578L3.40984 8.19272V8.19116L3.41349 8.17758L3.41402 8.17601L3.41611 8.16295V8.16138L3.41872 8.14832V8.14728L3.42133 8.13422V8.13318L3.42394 8.11959L3.42446 8.11855L3.42708 8.10549L3.4276 8.10445L3.43021 8.09139L3.43073 8.08982L3.43334 8.07676L3.43387 8.07519L3.43648 8.06213V8.06057L3.43909 8.04751V8.04646L3.4417 8.0334L3.44222 8.03236L3.44484 8.0193L3.44536 8.01826L3.44849 8.0052V8.00363L3.45163 7.99057L3.45215 7.989L3.45476 7.97594L3.45528 7.97438L3.45842 7.96132V7.95975L3.46155 7.94669L3.46207 7.94513L3.46521 7.93207V7.9305L3.46834 7.91744L3.46886 7.9164L3.472 7.90334V7.90229L3.47513 7.88923L3.47566 7.88767L3.47931 7.87461V7.87356L3.48297 7.8605V7.85946L3.48662 7.8464L3.48715 7.84483L3.4908 7.83177V7.83021L3.49446 7.81715L3.49498 7.81558L3.49864 7.80304L3.49916 7.802L3.50282 7.78894L3.50334 7.78763L3.507 7.77457L3.50752 7.77301L3.51118 7.76026L3.5117 7.75922L3.51588 7.74616L3.5164 7.74511L3.52006 7.73258L3.52058 7.73153L3.52423 7.71884L3.52476 7.71779L3.52841 7.70484L3.52894 7.70327L3.53311 7.69053L3.53364 7.68896L3.53782 7.67642V7.67538L3.542 7.66284V7.66127L3.54617 7.64874L3.5467 7.64769L3.55088 7.63516L3.5514 7.63359L3.55558 7.62105L3.5561 7.61949L3.56028 7.60695L3.5608 7.60538L3.56498 7.59285L3.5655 7.5918L3.5702 7.57926L3.57072 7.57822L3.5749 7.56568L3.57543 7.56438L3.5796 7.55184L3.58013 7.55079L3.58483 7.53826L3.58535 7.53721L3.59005 7.52468V7.52363L3.59475 7.5111L3.59528 7.51005L3.59998 7.49751L3.6005 7.49595L3.6052 7.48341L3.60572 7.48237L3.61042 7.46983L3.61095 7.46826L3.61617 7.45625L3.61669 7.4552L3.62192 7.44267L3.62244 7.44162L3.62766 7.42908L3.62818 7.42752L3.63341 7.41498L3.63393 7.41341L3.63915 7.40088L3.63968 7.39931L3.6449 7.38677L3.64542 7.38521L3.65065 7.37267L3.65117 7.3711L3.65639 7.35857L3.65691 7.35726L3.66214 7.34525L3.66266 7.34368L3.66788 7.33166L3.66841 7.3301L3.67363 7.31756L3.67415 7.31652L3.6799 7.30398L3.68042 7.30293L3.68617 7.29092L3.68669 7.28988L3.69191 7.27786L3.69244 7.27629L3.69818 7.26428L3.6987 7.26324L3.70445 7.25122L3.70497 7.25018L3.71072 7.23816L3.71124 7.23712L3.71699 7.2251L3.71751 7.22354L3.72325 7.21152L3.72378 7.21048L3.72952 7.19846L3.73005 7.1969L3.73579 7.18488L3.73631 7.18384L3.74206 7.17182L3.74258 7.17078L3.74833 7.15876L3.74885 7.15772L3.7546 7.1457L3.75512 7.14466L3.76139 7.13317L3.76191 7.13212L3.76818 7.12011L3.76922 7.11854L3.77549 7.10653L3.77601 7.10548L3.78228 7.09347L3.7828 7.0919L3.78907 7.08041L3.78959 7.07936L3.79586 7.06787L3.79638 7.06683L3.80265 7.05534L3.80318 7.05377L3.80944 7.04228L3.81049 7.04123L3.81676 7.02974L3.81728 7.02817L3.82355 7.01668L3.82459 7.01564L3.83086 7.00414L3.83138 7.0031L3.83765 6.99161L3.8387 6.99004L3.84549 6.97855L3.84601 6.9775L3.85228 6.96601L3.8528 6.96497L3.85959 6.95347L3.86011 6.95243L3.8669 6.94094L3.86743 6.93989L3.87422 6.9284L3.87526 6.92736L3.88205 6.91586L3.88257 6.91482L3.88937 6.90333L3.89041 6.90228L3.8972 6.89079L3.89772 6.88975L3.90451 6.87825L3.90556 6.87721L3.91235 6.86572L3.91287 6.86467L3.92018 6.85318L3.92123 6.85161L3.92854 6.84012L3.92906 6.83908L3.93586 6.82811L3.9369 6.82706L3.94421 6.81609L3.94526 6.81505L3.95205 6.80356L3.95257 6.80251L3.95988 6.79154L3.96041 6.7905L3.96772 6.77953L3.96876 6.77848L3.97608 6.76699L3.97712 6.76595L3.98444 6.75498L3.98496 6.75341L3.99227 6.74244L3.99279 6.7414L4.00011 6.73043L4.00063 6.72938L4.00846 6.71841L4.00951 6.71737L4.01682 6.7064L4.01787 6.70535L4.0257 6.69438L4.02622 6.69334L4.03406 6.68237L4.03458 6.68132L4.04242 6.67035L4.04294 6.66931L4.05077 6.65834L4.05182 6.6573L4.05966 6.64633L4.06018 6.64528L4.06801 6.63431L4.06906 6.63327L4.07689 6.62282L4.07742 6.62178L4.08525 6.61081L4.0863 6.60976L4.09413 6.59931L4.09518 6.59827L4.10301 6.58782L4.10406 6.58678L4.11189 6.57633L4.11294 6.57528L4.12077 6.56484L4.12129 6.56379L4.12913 6.55335L4.13017 6.5523L4.13853 6.54185L4.13958 6.54081L4.14793 6.53036L4.14898 6.52932L4.15734 6.51887L4.15838 6.51783L4.16674 6.50738L4.16778 6.50633L4.17614 6.49589L4.17719 6.49432L4.18554 6.48387L4.18607 6.48283L4.19442 6.47238L4.19547 6.47134L4.20383 6.46089L4.20487 6.45984L4.21323 6.44992L4.21427 6.44887L4.22263 6.43843L4.22368 6.43738L4.23203 6.42693L4.23308 6.42589L4.24196 6.41596L4.243 6.41492L4.25136 6.40447L4.25241 6.40343L4.26076 6.3935L4.26181 6.39246L4.27017 6.38201L4.27121 6.38097L4.28009 6.37052L4.28061 6.36947L4.28949 6.35955L4.29054 6.35851L4.29942 6.34858L4.30046 6.34754L4.30934 6.33761L4.31039 6.33657L4.31927 6.32664L4.31979 6.3256L4.32867 6.31567L4.32972 6.31463L4.3386 6.3047L4.33964 6.30366L4.34852 6.29373L4.34904 6.29269L4.35792 6.28276L4.35897 6.28172L4.36837 6.27179L4.36889 6.27075L4.3783 6.26082L4.37934 6.25978L4.38927 6.25038L4.39031 6.24933L4.39971 6.23941L4.40076 6.23836L4.41016 6.22844L4.4112 6.22739L4.42061 6.21799L4.42165 6.21695L4.43105 6.20754L4.4321 6.2065L4.4415 6.1971L4.44255 6.19605L4.45247 6.18665L4.45352 6.1856L4.46292 6.1762L4.46396 6.17516L4.47337 6.16575L4.47441 6.16471L4.48381 6.15531L4.48486 6.15426L4.49426 6.14486L4.4953 6.14381L4.50471 6.13441L4.50575 6.13337L4.51515 6.12396L4.5162 6.12292L4.5256 6.11352L4.52665 6.11247L4.53657 6.10359L4.53762 6.10255L4.54754 6.09367L4.54859 6.09262L4.55851 6.08322L4.55955 6.08218L4.56948 6.07277L4.57052 6.07225L4.58045 6.06337L4.58149 6.06285L4.59142 6.05397L4.59246 6.05292L4.60239 6.04404L4.60343 6.043L4.61336 6.03412L4.6144 6.03307L4.62433 6.02419L4.62537 6.02367L4.63582 6.01479L4.63686 6.01375L4.64731 6.00487L4.64836 6.00382L4.6588 5.99494L4.65985 5.9939L4.6703 5.98554L4.67134 5.98449L4.68179 5.97614L4.68283 5.97509L4.69276 5.96673L4.6938 5.96569L4.70425 5.95733L4.70529 5.95629L4.71574 5.94793L4.71679 5.94741L4.72723 5.93905L4.72828 5.938L4.73872 5.92965L4.73977 5.9286L4.75022 5.92024L4.75126 5.9192L4.76223 5.91084L4.76328 5.9098L4.77372 5.90144L4.77477 5.90039L4.78574 5.89204L4.78678 5.89099L4.79775 5.88263L4.7988 5.88159L4.80924 5.87323L4.81029 5.87271L4.82126 5.86435L4.8223 5.86331L4.83275 5.85495L4.83379 5.8539L4.84476 5.84607L4.84581 5.84502L4.85678 5.83667L4.85782 5.83562L4.86879 5.82779L4.86984 5.82726L4.88081 5.81943L4.88237 5.81838L4.89334 5.81055L4.89439 5.81003L4.90536 5.80219L4.9064 5.80115L4.91737 5.79279L4.91842 5.79227L4.92991 5.78443L4.93095 5.78339L4.94192 5.77555L4.94349 5.77503L4.95446 5.76719L4.95551 5.76667L4.96647 5.75883L4.96752 5.75831L4.97901 5.75048L4.98006 5.74943L4.99103 5.7416L4.99207 5.74107L5.00356 5.73376L5.00461 5.73324L5.01558 5.7254L5.01714 5.72436L5.02864 5.71705L5.02968 5.716L5.04117 5.70817L5.04222 5.70712L5.05371 5.69981L5.05528 5.69929L5.06677 5.69197L5.06781 5.69093L5.0793 5.68361L5.08035 5.68309L5.09184 5.67578L5.09289 5.67526L5.10438 5.66794L5.10542 5.66742L5.11691 5.66011L5.11848 5.65959L5.12997 5.65279H5.1305L10.3808 2.41415L10.3813 2.41363L10.3922 2.40684L10.3933 2.40632L10.4048 2.39901L10.4063 2.39796L10.4178 2.39117L10.4194 2.39013L10.4309 2.38334L10.4325 2.38229L10.444 2.3755L10.4455 2.37498L10.4575 2.36819L10.4586 2.36714L10.4701 2.36035L10.4716 2.35983L10.4831 2.35304L10.4842 2.35252L10.4962 2.34625L10.4972 2.3452L10.5093 2.33893L10.5103 2.33789L10.5218 2.33162L10.5234 2.3311L10.5354 2.32483L10.5364 2.32379L10.5479 2.31752L10.5495 2.31647L10.561 2.3102L10.5625 2.30916L10.574 2.30289L10.5751 2.30185L10.5871 2.29558L10.5881 2.29506L10.5996 2.28879L10.6012 2.28827L10.6127 2.282L10.6142 2.28147L10.6263 2.27521L10.6278 2.27468L10.6398 2.26842L10.6409 2.26789L10.6529 2.26215L10.6545 2.26163L10.6665 2.25588L10.668 2.25536L10.6795 2.24961L10.6811 2.24909L10.6931 2.24334L10.6942 2.24282L10.7062 2.23707L10.7077 2.23655L10.7198 2.23081L10.7213 2.22976L10.7333 2.22402L10.7349 2.22349L10.7469 2.21775L10.7485 2.21722L10.7605 2.212L10.7621 2.21148L10.7741 2.20625L10.7751 2.20521L10.7871 2.19999L10.7882 2.19946L10.8002 2.19424L10.8018 2.1932L10.8138 2.18797L10.8154 2.18745L10.8274 2.18223L10.8289 2.1817L10.841 2.17648L10.8425 2.17596L10.8545 2.17073L10.8561 2.17021L10.8681 2.16499L10.8697 2.16447L10.8817 2.15976L10.8833 2.15924L10.8953 2.15402L10.8968 2.1535L10.9094 2.14827L10.9109 2.14775L10.9235 2.14253L10.9251 2.14148L10.9371 2.13678L10.9381 2.13626L10.9506 2.13156L10.9522 2.13103L10.9642 2.12633L10.9653 2.12581L10.9778 2.12111L10.9794 2.12059L10.9919 2.11641L10.9935 2.11589L11.006 2.11119L11.0076 2.11066L11.0201 2.10596L11.0217 2.10544L11.0342 2.10126L11.0358 2.10074L11.0483 2.09656L11.0499 2.09604L11.0619 2.09186L11.0635 2.09134L11.076 2.08716L11.0776 2.08663L11.0896 2.08246L11.0912 2.08193L11.1037 2.07775L11.1047 2.07723L11.1173 2.07305L11.1188 2.07253L11.1314 2.06835L11.133 2.06783L11.1455 2.06365L11.1471 2.06313L11.1596 2.05947L11.1606 2.05895L11.1732 2.05529L11.1747 2.05477L11.1873 2.05111H11.1888L11.2014 2.04746L11.2029 2.04693L11.2155 2.04328L11.2165 2.04276L11.2291 2.0391L11.2301 2.03858L11.2426 2.03492L11.2442 2.0344L11.2568 2.03074L11.2583 2.03022L11.2709 2.02656L11.2724 2.02604L11.285 2.02291L11.2865 2.02238L11.2991 2.01925L11.3001 2.01873L11.3126 2.01507L11.3139 2.01455L11.327 2.01141H11.328L11.3405 2.00776H11.3421L11.355 2.00462L11.3566 2.0041L11.3696 2.00097L11.3712 2.00044L11.3837 1.99731H11.3853L11.3984 1.99418H11.3999L11.4125 1.99104L11.414 1.99052L11.4266 1.98791L11.4281 1.98739L11.4407 1.98425L11.4422 1.98373L11.4548 1.98112H11.4563L11.4689 1.97851L11.4704 1.97798L11.483 1.97537H11.484L11.4966 1.97276L11.4981 1.97224L11.5112 1.96963H11.5122L11.5253 1.96701L11.5263 1.96649L11.5394 1.96388L11.541 1.96336L11.554 1.96074L11.5556 1.96022L11.5687 1.95813H11.5702L11.5828 1.95604L11.5843 1.95552L11.5974 1.95291L11.5989 1.95239L11.612 1.9503H11.6136L11.6261 1.94821L11.6277 1.94769L11.6407 1.9456L11.6423 1.94507L11.6548 1.94298H11.6559L11.6684 1.9409H11.67L11.683 1.93881L11.6846 1.93828L11.6977 1.93619H11.6992L11.7123 1.9341H11.7139L11.7269 1.93202H11.7285L11.7416 1.93045H11.7431L11.7557 1.92888H11.7572L11.7703 1.92731L11.7719 1.92679L11.7849 1.92522L11.786 1.9247L11.799 1.92366H11.8006L11.8131 1.92209H11.8147L11.8272 1.92052H11.8288L11.8418 1.91896H11.8434L11.8565 1.91739H11.858L11.8706 1.91634H11.8721L11.8852 1.91478L11.8868 1.91425L11.8998 1.91321L11.9014 1.91269L11.9145 1.91164H11.916L11.9289 1.9106H11.9304L11.9435 1.90955H11.9451L11.9581 1.90903L11.9597 1.90851L11.9728 1.90746L11.9738 1.90694L11.9869 1.90642H11.9884L12.0015 1.90537H12.0025L12.0156 1.90485H12.0172L12.0302 1.90433H12.0318L12.0448 1.90381H12.0464L12.0595 1.90329L12.061 1.90276L12.0741 1.90224H12.0757L12.0887 1.90172H12.0903L12.1033 1.9012H12.1049L12.118 1.90067H12.1195L12.1326 1.90015H12.1336L12.1467 1.89963H12.1629L12.1759 1.89911H12.2062L12.209 1.89456ZM12.197 3.30494H12.1884L12.1799 3.30504H12.1714L12.1625 3.30525L12.1536 3.30546L12.1447 3.30572L12.1358 3.30624L12.127 3.30677L12.1181 3.30729L12.1097 3.30781L12.1008 3.30833L12.0925 3.30886L12.0841 3.30938L12.0758 3.3099L12.0669 3.31042L12.0585 3.31094L12.0496 3.31199L12.0408 3.31303L12.0324 3.31408L12.0235 3.31512L12.0146 3.31617L12.0058 3.31721L11.9974 3.31826L11.9885 3.3193L11.9802 3.32035L11.9718 3.32139L11.9629 3.32244L11.9546 3.32348L11.9462 3.32453L11.9379 3.32557L11.9295 3.32662L11.9206 3.32766L11.9123 3.32923L11.9039 3.33027L11.895 3.33184L11.8867 3.33341L11.8783 3.33497L11.8699 3.33654L11.8616 3.33811L11.8532 3.33967L11.8449 3.34124L11.8365 3.34229L11.8276 3.34385L11.8193 3.34542L11.8104 3.34699L11.802 3.34855L11.7937 3.35012L11.7853 3.35169L11.777 3.35378L11.7686 3.35587L11.7603 3.35796L11.7519 3.35952L11.7435 3.36109L11.7352 3.36318L11.7268 3.36527L11.7185 3.36736L11.7101 3.36945L11.7018 3.37154L11.6934 3.37363L11.685 3.37572L11.6767 3.37781L11.6683 3.3799L11.66 3.38199L11.6516 3.3846L11.6432 3.38669L11.6349 3.3893L11.6271 3.39191L11.6187 3.39452L11.6103 3.39713L11.602 3.39975L11.5936 3.40236L11.5853 3.40497L11.5774 3.40758L11.5691 3.41019L11.5607 3.41333L11.5524 3.41594L11.544 3.41855L11.5356 3.42169L11.5273 3.4243L11.5189 3.42691L11.5111 3.42952L11.5027 3.43265L11.4944 3.43579L11.486 3.43892L11.4782 3.44206L11.4698 3.44519L11.462 3.44833L11.4542 3.45146L11.4458 3.45512L11.4374 3.45825L11.4291 3.46138L11.4207 3.46452L11.4129 3.46818L11.405 3.47131L11.3967 3.47497L11.3889 3.47862L11.381 3.48228L11.3732 3.48594L11.3648 3.48959L11.357 3.49325L11.3486 3.49691L11.3408 3.50056L11.333 3.50422L11.3251 3.50787L11.3168 3.51153L11.3089 3.51519L11.3011 3.51884L11.2933 3.52302L11.2854 3.5272L11.2776 3.53086L11.2698 3.53504L11.2619 3.53869L11.2541 3.54287L11.2463 3.54705L11.2384 3.55123L11.2306 3.55541L11.2227 3.55959L11.2149 3.56429L11.2076 3.56847L11.1998 3.57265L11.1924 3.57683L11.1846 3.58153L11.1768 3.58623L11.1689 3.59093L11.1616 3.59511L11.1538 3.59981L11.1465 3.60451L11.1386 3.60921L11.1308 3.61391L11.1225 3.61914L5.87794 6.85151L5.86906 6.85726L5.86071 6.86248L5.85287 6.8677L5.84503 6.87293L5.8372 6.87815L5.82936 6.88337L5.82153 6.8886L5.81369 6.89382L5.80586 6.89904L5.79802 6.90427L5.79019 6.90949L5.78235 6.91472L5.77452 6.92046L5.7672 6.92568L5.75989 6.93091L5.75205 6.93613L5.74474 6.94136L5.73743 6.94658L5.73011 6.9518L5.7228 6.95703L5.71549 6.96225L5.70818 6.96747L5.70086 6.97322L5.69355 6.97844L5.68624 6.98419L5.67892 6.98994L5.67161 6.99568L5.6643 7.00143L5.65698 7.00717L5.64967 7.01292L5.64288 7.01867L5.63557 7.02441L5.62825 7.03016L5.62146 7.0359L5.61415 7.04165L5.60684 7.0474L5.60005 7.05314L5.59273 7.05889L5.58594 7.06463L5.57915 7.07038L5.57236 7.07665L5.56557 7.08292L5.55878 7.08866L5.55199 7.09441L5.5452 7.10068L5.53841 7.10694L5.53162 7.11321L5.52483 7.11948L5.51804 7.12575L5.51125 7.13202L5.50445 7.13829L5.49766 7.14455L5.49087 7.15082L5.48408 7.15709L5.47729 7.16336L5.47102 7.16963L5.46423 7.1759L5.45796 7.18269L5.45117 7.18896L5.44491 7.19575L5.43864 7.20201L5.43237 7.20881L5.4261 7.21507L5.41983 7.22186L5.41356 7.22865L5.40677 7.23545L5.4005 7.24171L5.39424 7.2485L5.38797 7.2553L5.3817 7.26209L5.37595 7.26888L5.36969 7.27567L5.36342 7.28246L5.35715 7.28925L5.35088 7.29656L5.34461 7.30335L5.33887 7.31014L5.33312 7.31693L5.32685 7.32425L5.32111 7.33104L5.31484 7.33783L5.30909 7.34514L5.30335 7.35193L5.2976 7.35925L5.29185 7.36656L5.28611 7.37387L5.28036 7.38118L5.27462 7.3885L5.26887 7.39581L5.26365 7.40312L5.2579 7.41044L5.25215 7.41775L5.24641 7.42506L5.24066 7.43238L5.23544 7.43969L5.23021 7.447L5.22499 7.45431L5.21977 7.46215L5.21454 7.46946L5.20932 7.47678L5.2041 7.48461L5.19887 7.49192L5.19365 7.49924L5.18843 7.50655L5.1832 7.51386L5.1785 7.5217L5.17328 7.52953L5.16805 7.53685L5.16283 7.54468L5.15813 7.55252L5.15343 7.55983L5.14873 7.56767L5.14403 7.5755L5.13932 7.58334L5.13462 7.59117L5.1294 7.59901L5.12418 7.60684L5.11947 7.61468L5.11477 7.62252L5.11007 7.63035L5.10537 7.63819L5.10067 7.64602L5.09597 7.65386L5.09127 7.66169L5.08657 7.66953L5.08186 7.67736L5.07716 7.6852L5.07246 7.69356L5.06776 7.70139L5.06306 7.70923L5.05836 7.71758L5.05418 7.72542L5.05 7.73378L5.04582 7.74214L5.04164 7.75049L5.03746 7.75833L5.03328 7.76616L5.02911 7.77452L5.02493 7.78236L5.02075 7.79072L5.01709 7.79855L5.01291 7.80691L5.00873 7.81527L5.00455 7.82362L5.00038 7.83198L4.9962 7.84034L4.99254 7.8487L4.98888 7.85706L4.98523 7.86541L4.98157 7.87377L4.97791 7.88213L4.97426 7.89049L4.9706 7.89884L4.96694 7.9072L4.96329 7.91556L4.96015 7.92392L4.9565 7.93228L4.95284 7.94116L4.94918 7.94951L4.94553 7.95787L4.94187 7.96623L4.93874 7.97459L4.93508 7.98347L4.93142 7.99182L4.92829 8.00018L4.92516 8.00906L4.92202 8.01742L4.91889 8.0263L4.91575 8.03466L4.91262 8.04354L4.90948 8.05242L4.90635 8.0613L4.90374 8.07018L4.9006 8.07854L4.89747 8.08742L4.89486 8.0963L4.89225 8.10465L4.88964 8.11353L4.8865 8.12242L4.88389 8.13077L4.88128 8.13913L4.87867 8.14801L4.87553 8.15689L4.87292 8.16577L4.87031 8.17413L4.8677 8.18301L4.86508 8.19189L4.86247 8.20077L4.85986 8.20965L4.85725 8.21853L4.85516 8.22741L4.85307 8.23629L4.85046 8.24517L4.84837 8.25405L4.84576 8.26293L4.84367 8.27181L4.84158 8.28069L4.83949 8.29009L4.8374 8.29897L4.83531 8.30785L4.83322 8.31673L4.83113 8.32561L4.82904 8.33449L4.82695 8.34337L4.82538 8.35225L4.8233 8.36113L4.82173 8.37001L4.82016 8.37942L4.81859 8.38882L4.81703 8.39822L4.81546 8.40762L4.81389 8.4165L4.81233 8.42538L4.81076 8.43479L4.80919 8.44419L4.80762 8.45307L4.80606 8.46195L4.80449 8.47083L4.80292 8.48023L4.80188 8.48963L4.80083 8.49904L4.79979 8.50792L4.79822 8.51732L4.79665 8.5262L4.79561 8.5356L4.79457 8.54501L4.79352 8.55441L4.79248 8.56381L4.79143 8.57321L4.79039 8.58262L4.78934 8.5915L4.7883 8.6009L4.78725 8.6103L4.78673 8.6197L4.78569 8.62911L4.78464 8.63851L4.78412 8.64791L4.7836 8.65731L4.78307 8.66672L4.78255 8.67612L4.78203 8.68552L4.78151 8.69492L4.78098 8.70433L4.78046 8.71373L4.77994 8.72313L4.77942 8.73253V8.74194L4.77889 8.75134L4.77837 8.76074V8.77014L4.77785 8.77955V15.4031L4.77837 15.4125V15.4407L4.77889 15.4496L4.77942 15.459L4.77994 15.4684L4.78046 15.4778L4.78098 15.4872L4.78151 15.4966L4.78203 15.506L4.78255 15.5154L4.78307 15.5248L4.78412 15.5342L4.78464 15.5436L4.78516 15.553L4.78569 15.5624L4.78673 15.5713L4.78777 15.5807L4.78882 15.5896L4.78934 15.599L4.79039 15.6079L4.79143 15.6167L4.79248 15.6256L4.79352 15.6345L4.79457 15.6439L4.79561 15.6528L4.79665 15.6617L4.7977 15.6711L4.79874 15.6805L4.79979 15.6893L4.80083 15.6987L4.8024 15.7076L4.80397 15.7165L4.80554 15.7254L4.8071 15.7343L4.80867 15.7437L4.81024 15.7525L4.8118 15.7614L4.81337 15.7703L4.81494 15.7792L4.81703 15.7881L4.81859 15.7969L4.82016 15.8058L4.82173 15.8147L4.82382 15.8236L4.82591 15.8325L4.82747 15.8413L4.82956 15.8502L4.83165 15.8591L4.83374 15.868L4.83583 15.8769L4.83792 15.8857L4.84001 15.8946L4.8421 15.9035L4.84419 15.9119L4.8468 15.9202L4.84889 15.9291L4.85098 15.938L4.85307 15.9469L4.85568 15.9557L4.85777 15.9641L4.85986 15.973L4.86195 15.9813L4.86456 15.9902L4.86665 15.9986L4.86926 16.0075L4.87187 16.0163L4.87449 16.0247L4.8771 16.0336L4.87971 16.0425L4.88232 16.0508L4.88493 16.0597L4.88807 16.0681L4.8912 16.0764L4.89434 16.0848L4.89747 16.0931L4.90008 16.1015L4.90322 16.1104L4.90635 16.1187L4.90948 16.1271L4.91262 16.1354L4.91575 16.1438L4.91889 16.1522L4.92202 16.1605L4.92516 16.1689L4.92829 16.1772L4.93142 16.1856L4.93508 16.1939L4.93874 16.2023L4.94187 16.2107L4.94501 16.219L4.94814 16.2274L4.95127 16.2357L4.95441 16.2441L4.95806 16.2524L4.96172 16.2608L4.96538 16.2692L4.96903 16.2775L4.97269 16.2859L4.97635 16.2942L4.98 16.3026L4.98366 16.311L4.98732 16.3193L4.99097 16.3277L4.99463 16.336L4.99829 16.3439L5.00247 16.3522L5.00664 16.3601L5.01082 16.3684L5.015 16.3762L5.01918 16.3841L5.02336 16.3919L5.02754 16.3998L5.03172 16.4076L5.0359 16.4154L5.0406 16.4233L5.04478 16.4311L5.04896 16.4389L5.05313 16.4468L5.05784 16.4546L5.06254 16.4624L5.06672 16.4703L5.07089 16.4781L5.07507 16.4859L5.07977 16.4938L5.08395 16.5016L5.08865 16.5089L5.09336 16.5168L5.09806 16.5241L5.10276 16.5319L5.10746 16.5397L5.11216 16.5471L5.11686 16.5544L5.12156 16.5617L5.12626 16.569L5.13097 16.5768L5.13567 16.5847L5.14089 16.592L5.14559 16.5993L5.15029 16.6071L5.15499 16.6144L5.1597 16.6218L5.16492 16.6291L5.17014 16.6364L5.17537 16.6442L5.18059 16.6515L5.18581 16.6588L5.19104 16.6662L5.19626 16.6735L5.20148 16.6808L5.20671 16.6881L5.21193 16.6954L5.21768 16.7027L5.22342 16.71L5.22865 16.7173L5.23387 16.7247L5.23909 16.732L5.24432 16.7393L5.25006 16.7461L5.25581 16.7529L5.26156 16.7602L5.2673 16.767L5.27305 16.7743L5.27879 16.7811L5.28454 16.7879L5.29029 16.7947L5.29603 16.8014L5.30178 16.8082L5.30752 16.815L5.31327 16.8218L5.31902 16.8286L5.32476 16.8354L5.33051 16.8422L5.33625 16.849L5.34252 16.8558L5.34879 16.8626L5.35454 16.8694L5.36081 16.8756L5.36707 16.8824L5.37334 16.8887L5.37961 16.8955L5.38536 16.9023L5.39162 16.9091L5.39789 16.9153L5.40416 16.9216L5.41043 16.9279L5.4167 16.9341L5.42297 16.9409L5.42923 16.9472L5.4355 16.9535L5.44177 16.9597L5.44804 16.966L5.45431 16.9723L5.4611 16.9785L5.46737 16.9848L5.47364 16.9911L5.48043 16.9973L5.48669 17.0036L5.49296 17.0099L5.49975 17.0161L5.50654 17.0219L5.51333 17.0276L5.52013 17.0339L5.52692 17.0402L5.53371 17.0459L5.5405 17.0517L5.54729 17.0579L5.55408 17.0642L5.56087 17.0699L5.56818 17.0757L5.5755 17.0814L5.58281 17.0872L5.5896 17.0929L5.59639 17.0987L5.6037 17.1044L5.61049 17.1102L5.61781 17.1154L5.6246 17.1211L5.63191 17.1269L5.63922 17.1326L5.64654 17.1384L5.65333 17.1436L5.66064 17.1493L5.66795 17.1546L5.67527 17.1603L5.68258 17.1661L5.68989 17.1713L5.69721 17.1765L5.70504 17.1817L5.71235 17.187L5.71967 17.1922L5.72698 17.1974L5.73429 17.2026L5.74161 17.2078L5.74892 17.2131L5.75676 17.2183L5.76459 17.223L5.77243 17.2282L5.77974 17.2334L5.78757 17.2387L5.79541 17.2439L5.80272 17.2486L5.81056 17.2533L5.81839 17.258L5.82623 17.2627L5.83406 17.2674L5.8419 17.2721L5.85026 17.2768L5.85809 17.2815L5.86593 17.2862L5.87481 17.2914L11.3429 20.4883L11.3497 20.4925L11.3554 20.4956L11.3617 20.4987L11.368 20.5019L11.3742 20.505L11.38 20.5086L11.3862 20.5118L11.3925 20.5149L11.3988 20.518L11.405 20.5217L11.4113 20.5248L11.4176 20.528L11.4239 20.5311L11.4301 20.5342L11.4364 20.5374L11.4427 20.5405L11.4489 20.5436L11.4552 20.5468L11.4609 20.5499L11.4672 20.553L11.4735 20.5562L11.4797 20.5588L11.486 20.5619L11.4923 20.5645L11.4986 20.5672L11.5048 20.5698L11.5111 20.5729L11.5174 20.576L11.5236 20.5786L11.5299 20.5818L11.5362 20.5844L11.5424 20.587L11.5487 20.5896L11.555 20.5922L11.5612 20.5948L11.5675 20.5974L11.5738 20.6001L11.58 20.6027L11.5863 20.6053L11.5926 20.6074L11.5994 20.61L11.6056 20.6126L11.6119 20.6152L11.6182 20.6178L11.6244 20.6204L11.6307 20.6225L11.637 20.6251L11.6432 20.6272L11.6495 20.6293L11.6563 20.6314L11.6626 20.6335L11.6683 20.6356L11.6819 20.6398L11.695 20.6439L11.708 20.6476L11.7211 20.6513L11.7341 20.6549L11.7472 20.6586L11.7603 20.6622L11.7733 20.6659L11.7864 20.6695L11.7994 20.6727L11.8125 20.6758L11.8255 20.6789L11.8386 20.6815L11.8517 20.6847L11.8647 20.6873L11.8778 20.6899L11.8908 20.6925L11.9039 20.6946L11.917 20.6972L11.93 20.6993L11.9431 20.7014L11.9567 20.7035L11.9697 20.7056L11.9833 20.7071L11.9969 20.7087L12.0105 20.7103L12.024 20.7113L12.0371 20.7124L12.0507 20.7134L12.0637 20.7145L12.0773 20.7155L12.0909 20.7165L12.104 20.7176L12.117 20.7181L12.1301 20.7186L12.1437 20.7192H12.2105L12.2241 20.7186H12.2377L12.2513 20.7181L12.2649 20.7176L12.2784 20.7165L12.292 20.7155L12.3056 20.715L12.3192 20.7139L12.3328 20.7129L12.3463 20.7118L12.3594 20.7108L12.373 20.7092L12.3866 20.7077L12.3996 20.7061L12.4132 20.7045L12.4263 20.7024L12.4398 20.7004L12.4529 20.6983L12.4665 20.6962L12.4795 20.6941L12.4926 20.6915L12.5057 20.6894L12.5192 20.6868L12.5323 20.6842L12.5454 20.681L12.5584 20.6784L12.5715 20.6753L12.5845 20.6721L12.5976 20.669L12.6107 20.6659L12.6237 20.6622L12.6368 20.6586L12.6498 20.6549L12.6629 20.6513L12.6765 20.6471L12.6827 20.645L12.689 20.6429L12.6953 20.6408L12.7021 20.6387L12.7083 20.6366L12.7151 20.6345L12.7214 20.6324L12.7277 20.6304L12.7345 20.6283L12.7407 20.6262L12.747 20.6241L12.7538 20.6215L12.7601 20.6194L12.7668 20.6173L12.7731 20.6147L12.7794 20.6126L12.7857 20.6105L12.7919 20.6084L12.7987 20.6058L12.805 20.6037L12.8112 20.6011L12.8175 20.5985L12.8238 20.5959L12.8301 20.5933L12.8363 20.5907L12.8426 20.588L12.8489 20.5854L12.8551 20.5828L12.8614 20.5802L12.8677 20.5776L12.8739 20.5745L12.8802 20.5713L12.8865 20.5687L12.8927 20.5656L12.899 20.5625L12.9053 20.5598L12.9115 20.5567L12.9178 20.5536L12.9241 20.5504L12.9298 20.5473L12.9361 20.5442L12.9424 20.541L12.9486 20.5379L12.9549 20.5348L12.9612 20.5316L12.9674 20.5285L12.9737 20.5254L12.98 20.5222L12.9857 20.5191L12.992 20.516L12.9983 20.5128L13.005 20.5092L19.0629 17.1331L19.0702 17.1295L19.077 17.1258L19.0832 17.1222L19.0895 17.1185L19.0958 17.1149L19.102 17.1107L19.1088 17.107L19.1151 17.1034L19.1214 17.0997L19.1276 17.0961L19.1339 17.0919L19.1402 17.0877L19.1464 17.084L19.1527 17.0804L19.159 17.0767L19.1653 17.0726L19.1715 17.0684L19.1778 17.0647L19.1841 17.0605L19.1903 17.0569L19.1961 17.0527L19.2018 17.0485L19.2076 17.0443L19.2133 17.0402L19.2191 17.036L19.2253 17.0318L19.2311 17.0276L19.2373 17.0235L19.2431 17.0193L19.2488 17.0151L19.2546 17.0109L19.2603 17.0067L19.2661 17.0026L19.2723 16.9984L19.2781 16.9937L19.2838 16.9895L19.2896 16.9848L19.2953 16.9806L19.3011 16.9759L19.3068 16.9712L19.3126 16.9665L19.3183 16.9623L19.324 16.9582L19.3298 16.9535L19.335 16.9488L19.3408 16.9441L19.3465 16.9394L19.3517 16.9352L19.3575 16.9305L19.3632 16.9252L19.3684 16.9205L19.3742 16.9158L19.3794 16.9111L19.3846 16.9064L19.3899 16.9012L19.3956 16.8965L19.4008 16.8913L19.4061 16.8866L19.4113 16.8814L19.4165 16.8761L19.4217 16.8714L19.427 16.8662L19.4322 16.8615L19.4374 16.8563L19.4426 16.8511L19.4478 16.8459L19.4531 16.8406L19.4578 16.8354L19.463 16.8302L19.4677 16.825L19.4729 16.8197L19.4781 16.8145L19.4834 16.8093L19.4881 16.8041L19.4928 16.7988L19.4975 16.7936L19.5022 16.7884L19.5074 16.7832L19.5121 16.7779L19.5168 16.7727L19.5215 16.7675L19.5262 16.7623L19.5309 16.757L19.5356 16.7518L19.5403 16.7466L19.545 16.7409L19.5497 16.7351L19.5544 16.7294L19.5591 16.7241L19.5638 16.7189L19.5685 16.7137L19.5732 16.7079L19.5779 16.7027L19.5826 16.697L19.5868 16.6918L19.591 16.686L19.5952 16.6803L19.5993 16.675L19.604 16.6693L19.6082 16.6635L19.6124 16.6578L19.6166 16.6521L19.6207 16.6463L19.6249 16.6406L19.6291 16.6348L19.6333 16.6291L19.6375 16.6233L19.6416 16.6176L19.6458 16.6118L19.65 16.6061L19.6542 16.6003L19.6578 16.5946L19.6615 16.5883L19.6657 16.5821L19.6699 16.5763L19.6735 16.5706L19.6772 16.5648L19.6813 16.5586L19.6855 16.5528L19.6892 16.5471L19.6928 16.5408L19.6965 16.5345L19.7001 16.5283L19.7038 16.522L19.7075 16.5162L19.7111 16.51L19.7148 16.5037L19.7184 16.498L19.7221 16.4917L19.7257 16.4854L19.7294 16.4792L19.7325 16.4729L19.7357 16.4666L19.7393 16.4603L19.743 16.4541L19.7461 16.4478L19.7498 16.4415L19.7534 16.4353L19.7566 16.429L19.7597 16.4227L19.7628 16.4159L19.766 16.4097L19.7696 16.4034L19.7733 16.3971L19.7764 16.3909L19.7795 16.3846L19.7827 16.3783L19.7858 16.3715L19.7889 16.3653L19.7921 16.359L19.7952 16.3522L19.7984 16.3459L19.8015 16.3397L19.8046 16.3329L19.8078 16.3261L19.8109 16.3193L19.814 16.313L19.8166 16.3068L19.8192 16.3L19.8219 16.2932L19.8245 16.2864L19.8271 16.2801L19.8297 16.2733L19.8323 16.2666L19.8349 16.2598L19.8375 16.2535L19.8401 16.2467L19.8428 16.2399L19.8454 16.2331L19.848 16.2263L19.8506 16.2195L19.8527 16.2127L19.8548 16.206L19.8569 16.1992L19.8589 16.1924L19.8616 16.1856L19.8642 16.1788L19.8668 16.172L19.8694 16.1652L19.8715 16.1584L19.8741 16.1516L19.8762 16.1448L19.8783 16.1381L19.8809 16.1313L19.883 16.1245L19.8851 16.1177L19.8872 16.1109L19.8892 16.1041L19.8908 16.0973L19.8929 16.0905L19.895 16.0837L19.8971 16.0769L19.8992 16.0701L19.9007 16.0634L19.9023 16.056L19.9044 16.0492L19.906 16.0425L19.9075 16.0351L19.9096 16.0284L19.9112 16.0216L19.9127 16.0148L19.9143 16.008L19.9159 16.0007L19.9175 15.9939L19.919 15.9871L19.9201 15.9798L19.9216 15.9725L19.9232 15.9657L19.9242 15.9584L19.9258 15.9516L19.9274 15.9443L19.9289 15.9369L19.9305 15.9302L19.9321 15.9228L19.9331 15.9155L19.9347 15.9082L19.9357 15.9014L19.9373 15.8946L19.9383 15.8873L19.9394 15.88L19.9404 15.8727L19.9415 15.8654L19.9425 15.8581L19.9436 15.8508L19.9446 15.8434L19.9451 15.8361L19.9462 15.8293L19.9467 15.822L19.9477 15.8147L19.9488 15.8079L19.9498 15.8006L19.9504 15.7933L19.9509 15.786L19.9514 15.7787L19.9519 15.7714L19.953 15.764L19.9535 15.7567L19.954 15.7494L19.9545 15.7421L19.9551 15.7348L19.9556 15.7275L19.9561 15.7202L19.9566 15.7128L19.9572 15.7055L19.9577 15.6982L19.9582 15.6909L19.9587 15.6836V15.669L19.9592 15.6617V8.43056L19.9587 8.42413L19.9582 8.41734V8.41055L19.9577 8.40376V8.39697L19.9572 8.39018V8.38339L19.9566 8.3766L19.9561 8.37033L19.9556 8.36354L19.9551 8.35675L19.9545 8.34996L19.954 8.34369L19.9535 8.3369L19.953 8.33063L19.9524 8.32384L19.9514 8.31705L19.9509 8.31078L19.9504 8.30451L19.9493 8.29824L19.9488 8.29197L19.9477 8.28518L19.9472 8.27891L19.9462 8.27265L19.9451 8.26586L19.9446 8.25906L19.9441 8.2528L19.943 8.24705L19.941 8.23331L19.9394 8.21999L19.9373 8.20641L19.9352 8.19335L19.9326 8.18029L19.93 8.16723L19.9279 8.15417L19.9253 8.14112L19.9222 8.12806L19.919 8.115L19.9159 8.10194L19.9127 8.08888L19.9096 8.07582L19.9065 8.06276L19.9033 8.0497L19.8997 8.03664L19.896 8.02358L19.8924 8.01053L19.8882 7.99747L19.8845 7.98493L19.8804 7.97239L19.8762 7.95986L19.872 7.94732L19.8678 7.93478L19.8631 7.92225L19.8584 7.90971L19.8537 7.8977L19.849 7.88516L19.8443 7.87262L19.8396 7.86008L19.8344 7.84807L19.8297 7.83553L19.8245 7.82352L19.8192 7.81151L19.814 7.79949L19.8083 7.78748L19.8031 7.77546L19.7973 7.76345L19.7916 7.75143L19.7858 7.73994L19.7795 7.72793L19.7738 7.71591L19.7675 7.7039L19.7613 7.69241L19.755 7.68092L19.7487 7.66942L19.7425 7.65793L19.7362 7.64644L19.7294 7.63495L19.7226 7.62346L19.7158 7.61196L19.7085 7.60047L19.7017 7.5895L19.6949 7.57853L19.6876 7.56756L19.6803 7.55659L19.673 7.54562L19.6657 7.53465L19.6584 7.52368L19.651 7.51271L19.6432 7.50227L19.6354 7.49182L19.6275 7.48137L19.6197 7.47093L19.6119 7.46048L19.6035 7.45003L19.5952 7.43958L19.5868 7.42914L19.5784 7.41869L19.5701 7.40876L19.5612 7.39884L19.5528 7.38892L19.544 7.37899L19.5351 7.36907L19.5262 7.35914L19.5173 7.34922L19.5084 7.33929L19.499 7.32989L19.4896 7.32049L19.4802 7.31108L19.4708 7.30168L19.4614 7.29228L19.4515 7.28288L19.4416 7.27347L19.4317 7.26459L19.4217 7.25571L19.4118 7.24683L19.4019 7.23795L19.392 7.22907L19.3815 7.22019L19.3711 7.21183L19.3606 7.20348L19.3507 7.19512L19.3397 7.18624L19.335 7.18258L19.3298 7.1784L19.3246 7.17422L19.3193 7.17005L19.3141 7.16587L19.3089 7.16221L19.3037 7.15803L19.2985 7.15385L19.2927 7.14967L19.287 7.14549L19.2817 7.14132L19.2765 7.13714L19.2713 7.13296L19.2661 7.1293L19.2608 7.12512L19.2551 7.12094L19.2499 7.11729L19.2446 7.11363L19.2389 7.10945L19.2332 7.1058L19.2274 7.10214L19.2222 7.09848L19.2164 7.09483L19.2107 7.09117L19.205 7.08751L19.1992 7.08386L19.1935 7.0802L19.1877 7.07654L19.182 7.07289L19.1762 7.06923L19.1705 7.06557L19.1647 7.06244L19.159 7.05931L19.1522 7.05565L13.2412 3.58774L13.2328 3.58262L13.2253 3.57845L13.2174 3.57374L13.2096 3.56904L13.2019 3.56471L13.1941 3.56053L13.1865 3.55635L13.1787 3.55217L13.1708 3.54799L13.163 3.54381L13.1553 3.53963L13.1475 3.53546L13.1397 3.53128L13.1318 3.5271L13.124 3.52292L13.1161 3.51874L13.1083 3.51456L13.1003 3.5109L13.0925 3.50673L13.0846 3.50307L13.0768 3.49941L13.069 3.49523L13.0609 3.49158L13.053 3.48792L13.0452 3.48426L13.0371 3.48061L13.0292 3.47695L13.0214 3.47382L13.0133 3.47016L13.0054 3.4665L12.9975 3.46285L12.9894 3.45971L12.9816 3.45658L12.9732 3.45344L12.9652 3.44979L12.9569 3.44665L12.9486 3.443L12.9402 3.43986L12.9321 3.43673L12.924 3.4336L12.9158 3.43046L12.9075 3.42733L12.8991 3.42419L12.8913 3.42106L12.8834 3.41845L12.8756 3.41583L12.8672 3.4127L12.8589 3.41009L12.851 3.40748L12.8427 3.40487L12.8343 3.40225L12.8265 3.39964L12.8181 3.39703L12.8098 3.39442L12.8014 3.39181L12.7936 3.38919L12.7852 3.38658L12.7769 3.38397L12.7685 3.38136L12.7602 3.37927L12.7518 3.37666L12.7434 3.37457L12.7351 3.37196L12.7267 3.36987L12.7184 3.36778L12.71 3.36569L12.7017 3.36308L12.6933 3.36099L12.6849 3.3589L12.6766 3.35733L12.6682 3.35524L12.6599 3.35315L12.6515 3.35106L12.6431 3.34949L12.6348 3.34741L12.6264 3.34584L12.6181 3.34427L12.6097 3.34218L12.6014 3.34061L12.593 3.33905L12.5846 3.33748L12.5763 3.33591L12.5679 3.33435L12.5596 3.33278L12.5507 3.33121L12.5423 3.33017L12.534 3.32912L12.5256 3.32808L12.5173 3.32703L12.5089 3.32547L12.5005 3.3239L12.4922 3.32285L12.4833 3.32129L12.4749 3.32024L12.4666 3.31868L12.4582 3.31763L12.4499 3.31659L12.4415 3.31554L12.4332 3.3145L12.4248 3.31345L12.4159 3.31241L12.4076 3.31188L12.3992 3.31084L12.3908 3.3098L12.3825 3.30927L12.3741 3.30875L12.3658 3.30823L12.3574 3.30771L12.3491 3.30718L12.3402 3.30666L12.3313 3.30614L12.3229 3.30562L12.3146 3.30509H12.3062L12.2979 3.30457L12.2895 3.30405H12.2806L12.2723 3.30353L12.2639 3.303L12.2561 3.30248L12.2477 3.30196H12.2305L12.2221 3.30144H12.2054L12.197 3.30494Z" fill="#DB2777"/>
<path fill-rule="evenodd" clip-rule="evenodd" d="M20.6639 8.47268V14.8588L20.6628 14.8587V15.6078C20.6628 16.4926 20.1838 17.3081 19.4107 17.739C18.7216 18.1228 17.8181 18.626 16.884 19.1463C15.6088 19.8565 14.2765 20.5985 13.3545 21.1121C12.6185 21.522 11.7205 21.5128 10.9934 21.0876L5.52324 17.8901C4.62425 17.3646 4.07159 16.4014 4.07159 15.36V8.82146C4.07159 7.77151 4.61589 6.79678 5.50965 6.24569C6.93052 5.36938 9.09953 4.03194 10.5729 3.12347L10.7589 3.00878C11.6255 2.4744 12.7162 2.4628 13.5942 2.97848L19.5082 6.45323C20.2241 6.87394 20.6639 7.64222 20.6639 8.47268ZM8.22183 6.54465V17.369H10.4865V12.6361H14.2431V17.369H16.5143V6.54465H14.2431V10.4874H10.4865V6.54465H8.22183Z" fill="#F472B6"/>
</svg>
