<svg width="24" height="24" viewBox="0 0 24 24" fill="none" xmlns="http://www.w3.org/2000/svg">
<path d="M12.7118 14.5119L10.6336 12.4582L10.6582 12.4337C12.0818 10.8464 13.0964 9.02187 13.6936 7.09096H16.0909V5.4546H10.3636V3.81824H8.72727V5.4546H3V7.09096H12.1391C11.5909 8.66187 10.7236 10.1591 9.54545 11.4682C8.78455 10.6255 8.15455 9.70096 7.65545 8.72733H6.01909C6.61636 10.061 7.43455 11.321 8.45727 12.4582L4.29273 16.5655L5.45455 17.7273L9.54545 13.6364L12.09 16.181L12.7118 14.5119ZM17.3182 10.3637H15.6818L12 20.1819H13.6364L14.5527 17.7273H18.4391L19.3636 20.1819H21L17.3182 10.3637ZM15.1745 16.091L16.5 12.5482L17.8255 16.091H15.1745Z" fill="#C084FC"/>
</svg>
