<svg width="24" height="24" viewBox="0 0 24 24" fill="none" xmlns="http://www.w3.org/2000/svg">
<path fill-rule="evenodd" clip-rule="evenodd" d="M5.50024 15.5749C5.50024 15.5749 5.50024 15.5749 5.50023 15.5749L8.75293 13.7859C8.75294 13.7859 8.75294 13.7859 8.75294 13.7859L5.50024 15.5749ZM7.0822 16.4167C8.43629 17.0055 10.0523 17.3957 11.9352 17.3957C17.1706 17.3957 20.4216 14.3796 21.6884 12.4627C21.8988 12.1444 21.8681 11.7316 21.6224 11.4397C21.1382 10.8645 20.4618 10.1841 19.6251 9.51812L15.7937 11.6254C15.8112 11.7718 15.8201 11.9208 15.8201 12.0719C15.8201 14.138 14.1452 15.8129 12.0791 15.8129C11.1815 15.8129 10.3577 15.4968 9.71297 14.9698L7.0822 16.4167ZM10.872 14.3323C11.2126 14.5062 11.5984 14.6043 12.0072 14.6043C13.3088 14.6043 14.378 13.6096 14.4963 12.3389L10.872 14.3323ZM9.77202 13.2254L14.1508 10.8171L9.77202 13.2254C9.77202 13.2254 9.77202 13.2254 9.77202 13.2254ZM12.4183 8.3461L14.8451 7.01135C13.9313 6.75561 12.9572 6.60431 11.9352 6.60431C7.39511 6.60431 3.87997 9.59046 2.367 11.4541C2.13528 11.7396 2.10511 12.1349 2.30123 12.4459C2.50389 12.7672 2.76185 13.12 3.07563 13.4846L8.75001 10.3637C9.37064 9.15663 10.6284 8.33093 12.0791 8.33093C12.1934 8.33093 12.3066 8.33606 12.4183 8.3461Z" fill="#64748B"/>
<line x1="2.29572" y1="16.4814" x2="20.9814" y2="6.20428" stroke="#64748B" stroke-width="1.5" stroke-linecap="round"/>
</svg>
