<svg width="24" height="24" viewBox="0 0 24 24" fill="none" xmlns="http://www.w3.org/2000/svg">
<path fill-rule="evenodd" clip-rule="evenodd" d="M7.68182 16.6575C8.90595 17.1095 10.3227 17.3957 11.9352 17.3957C17.1706 17.3957 20.4216 14.3796 21.6884 12.4627C21.8988 12.1444 21.8681 11.7316 21.6224 11.4397C21.221 10.9629 20.6875 10.4137 20.0401 9.86046L15.8185 12.1823C15.7601 14.1974 14.1083 15.8129 12.0791 15.8129C11.3814 15.8129 10.7283 15.622 10.1693 15.2894L7.68182 16.6575ZM9.4558 9.40484L2.75412 13.0908C2.58079 12.8665 2.42987 12.6499 2.30123 12.4459C2.10511 12.1349 2.13528 11.7396 2.367 11.4541C3.87997 9.59046 7.39511 6.60431 11.9352 6.60431C12.6941 6.60431 13.4265 6.68773 14.1275 6.83539L11.2341 8.42675C10.5508 8.58453 9.93899 8.92953 9.4558 9.40484ZM11.5062 14.5541C11.6681 14.587 11.8356 14.6043 12.0072 14.6043C13.0749 14.6043 13.9863 13.935 14.3446 12.993L11.5062 14.5541Z" fill="#64748B"/>
<line x1="2.29572" y1="16.4814" x2="20.9814" y2="6.20428" stroke="#64748B" stroke-width="1.5" stroke-linecap="round"/>
</svg>
