<svg width="24" height="24" viewBox="0 0 24 24" fill="none" xmlns="http://www.w3.org/2000/svg">
<path d="M17.1309 3C19.2677 3.00015 20.9998 4.73234 21 6.86914V17.1309C20.9999 19.2677 19.2677 20.9999 17.1309 21H6.86914C4.73234 20.9998 3.00015 19.2677 3 17.1309V6.86914C3.00016 4.73234 4.73234 3.00016 6.86914 3H17.1309Z" stroke="#FB923C" stroke-width="2"/>
<path d="M9.41547 8.24701H11.7712L14.4132 15.6225H12.2555L11.8923 14.4997H9.12919L8.76595 15.6225H6.69641L9.41547 8.24701ZM11.3199 12.7494L10.5163 10.2725L9.71265 12.7494H11.3199Z" fill="#FB923C"/>
<path d="M14.7293 8.73143C14.7293 8.20301 15.1366 7.86176 15.7531 7.86176C16.3585 7.86176 16.7438 8.21402 16.7438 8.73143C16.7438 9.25981 16.3585 9.62309 15.7531 9.62309C15.1146 9.62309 14.7293 9.27082 14.7293 8.73143ZM14.7843 9.87627H16.7108V15.6226H14.7843V9.87627Z" fill="#FB923C"/>
</svg>
