<svg width="24" height="24" viewBox="0 0 24 24" fill="none" xmlns="http://www.w3.org/2000/svg">
<path fill-rule="evenodd" clip-rule="evenodd" d="M12 4.39999C7.80263 4.39999 4.39999 7.80263 4.39999 12C4.39999 16.1974 7.80263 19.6 12 19.6C16.1974 19.6 19.6 16.1974 19.6 12C19.6 11.7815 19.5908 11.5652 19.5728 11.3515L19.5728 11.3515C19.5638 11.2458 19.5528 11.1407 19.5396 11.0363C19.4884 10.6308 19.4052 10.2355 19.2928 9.85301L19.3134 9.85187C19.4164 9.84581 19.518 9.83429 19.6178 9.8176C20.3628 9.69295 21.0102 9.27989 21.4413 8.69712C21.5317 8.95538 21.6117 9.21842 21.681 9.48574C21.8893 10.2898 22 11.1325 22 12C22 17.5228 17.5228 22 12 22C6.47715 22 2 17.5228 2 12C2 6.47715 6.47715 2 12 2C14.2284 2 16.2876 2.72986 17.9498 3.96198C18.1442 3.90537 18.3498 3.87501 18.5625 3.87501C19.7706 3.87501 20.75 4.85439 20.75 6.06251C20.75 7.27064 19.7706 8.25001 18.5625 8.25001C17.3544 8.25001 16.375 7.27064 16.375 6.06251C16.375 5.97228 16.3805 5.88333 16.3911 5.79597C15.1507 4.91615 13.6362 4.39999 12 4.39999ZM12 16.375C14.4106 16.375 16.375 14.4143 16.375 12C16.375 9.58942 14.4143 7.62502 12 7.62502C9.58571 7.62502 7.62502 9.58942 7.62502 12C7.62502 14.4106 9.58943 16.375 12 16.375Z" fill="#2563EB"/>
</svg>
