<svg width="24" height="24" viewBox="0 0 24 24" fill="none" xmlns="http://www.w3.org/2000/svg">
<mask id="mask0_21481_85" style="mask-type:luminance" maskUnits="userSpaceOnUse" x="1" y="1" width="21" height="22">
<path d="M1.38147 1.56583H21.9681V22.1524H1.38147V1.56583Z" fill="white"/>
</mask>
<g mask="url(#mask0_21481_85)">
<path fill-rule="evenodd" clip-rule="evenodd" d="M16.6427 17.7818L14.86 18.0492L12.4534 18.3166L10.8935 18.3611L9.37834 18.3166L8.21943 17.96L7.19452 16.846L6.39227 14.573L6.21409 14.0827L5.14442 13.7263L4.52049 12.7013L4.07489 11.2306L4.56525 9.93814L5.72387 9.53702L6.65969 9.98276L7.10543 10.9632L7.64027 10.874L7.81845 10.6512L7.64027 9.62625L7.59565 8.33364L7.86307 6.55109L7.85252 5.53288L8.66518 4.23371L10.0914 3.2088L12.5871 2.13913L15.35 2.54026L17.7567 4.27833L18.8709 6.06087L19.584 7.35335L19.7622 10.5621L19.2273 13.3252L18.247 15.7763L17.3111 17.0686" fill="#F0D6B7"/>
<path fill-rule="evenodd" clip-rule="evenodd" d="M15.128 25.4916L8.75483 25.759V26.8285L9.28967 30.5721L9.02225 30.8842L4.56567 29.369L4.25349 28.8341L3.80789 23.7983L2.78298 20.7677L2.56018 20.0547L6.12527 17.6036L7.2397 17.1579L8.22 18.3611L9.06672 19.1187L10.0474 19.4306L10.4929 19.5643L11.0277 21.8817L11.4289 22.3721L12.4538 22.0154L11.7408 23.3971L15.618 25.2243L15.1278 25.4917" fill="#335061"/>
<path fill-rule="evenodd" clip-rule="evenodd" d="M4.56584 9.93802L5.72446 9.53689L6.66042 9.98264L7.10616 10.9631L7.64085 10.8738L7.77456 10.3391L7.50715 9.31424L7.77456 6.86286L7.55176 5.52592L8.35387 4.5901L10.0919 3.20854L9.60158 2.53999L7.15064 3.74337L6.12558 4.54548L5.54627 5.79333L4.65493 6.99671L4.38751 8.42289L4.56584 9.93802Z" fill="#6D6B6D"/>
<path fill-rule="evenodd" clip-rule="evenodd" d="M6.39282 5.74957C6.39282 5.74957 7.06136 4.10073 9.73525 3.29848C12.4093 2.49623 9.86896 2.71903 9.86896 2.71903L6.97227 3.83332L5.85798 4.94746L5.36791 5.8388L6.39282 5.74957ZM5.05587 9.62613C5.05587 9.62613 4.11991 6.50635 7.68529 6.06075L7.55158 5.52591L5.10049 6.10537L4.38733 8.42275L4.56565 9.93802L5.05587 9.62613Z" fill="#DCD9D8"/>
<path fill-rule="evenodd" clip-rule="evenodd" d="M6.48212 13.7708L7.0657 13.2055C7.0657 13.2055 7.32899 13.236 7.3736 13.5479C7.41808 13.86 7.55179 16.6676 9.46804 18.1829C9.64295 18.3212 8.04201 17.96 8.04201 17.96L6.61597 15.7318M14.6825 12.9241C14.6825 12.9241 14.7865 11.5732 15.1501 11.6771C15.514 11.781 15.514 12.1446 15.514 12.1446C15.514 12.1446 14.6305 12.7162 14.6825 12.9241Z" fill="#F7E4CD"/>
<path d="M18.3817 7.97728C18.3817 7.97728 17.6472 8.13237 17.5795 8.77954C17.5119 9.4267 18.3817 8.91324 18.5154 8.86863M12.9888 8.0219C12.9888 8.0219 12.0082 8.15561 12.0082 8.77939C12.0082 9.40346 13.1225 9.35885 13.4344 9.09157" fill="#F7E4CD"/>
<path fill-rule="evenodd" clip-rule="evenodd" d="M6.9277 10.9186C6.9277 10.9186 5.2341 9.89352 5.05592 10.8741C4.87773 11.8544 4.47646 12.5676 5.32333 13.5925L4.74402 13.4143L4.20919 12.0329L4.03101 10.6958L5.05592 9.62611L6.21468 9.71534L6.88322 10.25L6.9277 10.9186ZM7.72995 8.11098C7.72995 8.11098 8.48758 4.18924 12.3204 3.4316C15.4758 2.80796 17.1335 3.56531 17.7574 4.27833C17.7574 4.27833 14.9498 0.936036 12.2758 1.96095C9.60173 2.986 7.641 4.85778 7.68547 6.06087C7.76131 8.11027 7.72995 8.11098 7.72995 8.11098ZM18.0696 4.72321C18.0696 4.72321 16.7772 4.67874 16.7325 5.8375C16.7325 5.8375 16.7325 6.01568 16.8216 6.19387C16.8216 6.19387 17.8468 5.03511 18.4706 5.65918" fill="#F7E4CD"/>
<path fill-rule="evenodd" clip-rule="evenodd" d="M12.4102 6.31546C12.4102 6.31546 12.1878 4.5369 10.6712 5.57094C9.69079 6.23948 9.78003 7.1753 9.95821 7.35348C10.1364 7.53167 10.0879 7.89088 10.2236 7.64428C10.3593 7.39796 10.3146 6.5957 10.8049 6.37305C11.2952 6.1501 12.099 5.90122 12.4102 6.31546Z" fill="#F7E4CD"/>
<path fill-rule="evenodd" clip-rule="evenodd" d="M8.22014 18.3611L4.03098 20.2329C4.03098 20.2329 5.76905 27.1407 4.8777 29.2799L4.25378 29.0571L4.20916 26.4277L3.05054 21.4364L2.56018 20.0548L6.92767 17.1137L8.22014 18.3614M8.65091 22.1818L9.24533 22.9069V25.5811H8.53217C8.53217 25.5811 8.44308 23.7092 8.44308 23.4862C8.44308 23.2634 8.53203 22.4613 8.53203 22.4613M8.66574 25.9821L6.66025 26.0712L7.2397 26.4721L8.66574 26.6951" fill="#49728B"/>
<path fill-rule="evenodd" clip-rule="evenodd" d="M15.9741 25.5363L18.4698 25.4026C18.4698 25.4026 19.4947 22.8178 19.4947 22.6843C19.4947 22.5504 20.3861 18.9406 20.3861 18.9406L18.3806 16.846L17.9796 16.4895L16.9099 17.559V21.7037L15.9741 25.5363Z" fill="#335061"/>
<path fill-rule="evenodd" clip-rule="evenodd" d="M17.0889 25.2243L15.5291 25.5362L15.7519 26.7842C16.3312 27.0516 17.3118 26.3384 17.3118 26.3384M17.133 17.4253L20.2527 19.7427L20.3419 18.6731L17.9799 16.4893L17.133 17.4253Z" fill="#49728B"/>
<path d="M15.8729 25.1802L14.8925 22.6845L13.8676 21.2139C13.8676 21.2139 14.0902 20.59 14.4021 20.59H15.4273L16.4077 20.9465L16.3186 22.5954L15.8729 25.1804" fill="white"/>
<path fill-rule="evenodd" clip-rule="evenodd" d="M16.0639 24.3329C16.0639 24.3329 14.8159 21.9265 14.8159 21.57C14.8159 21.57 15.0387 21.0351 15.3507 21.1688C15.6629 21.3025 16.3313 21.6591 16.3313 21.6591V20.8123L14.816 20.5001L13.7911 20.634L15.5292 24.7341L15.8856 24.7787" fill="#DCD9D8"/>
<path d="M10.6135 18.4508L9.37894 18.3165L8.22003 17.96V18.3611L8.78623 18.9855L10.5689 19.7876" fill="white"/>
<path fill-rule="evenodd" clip-rule="evenodd" d="M8.62144 18.5843C8.62144 18.5843 10.0031 19.1638 10.4487 19.0301L10.4931 19.5643L9.24551 19.2975L8.48773 18.7626L8.62144 18.5843Z" fill="#DCD9D8"/>
<path fill-rule="evenodd" clip-rule="evenodd" d="M17.6505 20.7416C16.8943 20.7194 16.211 20.6296 15.6129 20.4608C15.6535 20.2156 15.5774 19.975 15.6386 19.7984C15.8054 19.6782 16.0847 19.6801 16.3368 19.652C16.1188 19.5448 15.8126 19.5025 15.5613 19.5643C15.5553 19.3941 15.4789 19.2886 15.4327 19.1555C15.8578 19.0038 16.8616 18.0089 17.4261 18.3384C17.6951 18.4951 17.8094 19.39 17.8302 19.8252C17.8476 20.1863 17.7974 20.5505 17.6505 20.7418" fill="#D33833"/>
<path d="M17.6505 20.7416C16.8943 20.7194 16.211 20.6296 15.6129 20.4608C15.6535 20.2156 15.5774 19.975 15.6386 19.7984C15.8054 19.6782 16.0847 19.6801 16.3368 19.652C16.1188 19.5448 15.8126 19.5025 15.5613 19.5643C15.5553 19.3941 15.4789 19.2886 15.4327 19.1555C15.8578 19.0038 16.8616 18.0089 17.4261 18.3384C17.6951 18.4951 17.8094 19.39 17.8302 19.8252C17.8476 20.1863 17.7974 20.5505 17.6505 20.7418V20.7416Z" stroke="#D33833" stroke-width="0.285093"/>
<path fill-rule="evenodd" clip-rule="evenodd" d="M14.0341 19.5055C14.0321 19.5626 14.0298 19.6203 14.0274 19.6779C13.7913 19.8332 13.4101 19.8313 13.151 19.9616C13.533 19.9783 13.8338 20.0704 14.0938 20.1999L14.077 20.6323C13.6442 20.9285 13.2488 21.3697 12.7393 21.6475C12.4984 21.7789 11.6528 22.1171 11.3965 22.0573C11.2516 22.0237 11.2384 21.8436 11.1804 21.674C11.057 21.3108 10.7726 20.7325 10.7478 20.1858C10.7161 19.495 10.6466 18.3374 11.3907 18.4797C11.9912 18.5943 12.6897 18.871 13.1547 19.125C13.4388 19.2804 13.603 19.4722 14.0341 19.5055Z" fill="#D33833"/>
<path d="M14.0341 19.5055C14.0321 19.5626 14.0298 19.6203 14.0274 19.6779C13.7913 19.8332 13.4101 19.8313 13.151 19.9616C13.533 19.9783 13.8338 20.0704 14.0938 20.1999L14.077 20.6323C13.6442 20.9285 13.2488 21.3697 12.7393 21.6475C12.4984 21.7789 11.6528 22.1171 11.3965 22.0573C11.2516 22.0237 11.2384 21.8436 11.1804 21.674C11.057 21.3108 10.7726 20.7325 10.7478 20.1858C10.7161 19.495 10.6466 18.3374 11.3907 18.4797C11.9912 18.5943 12.6897 18.871 13.1547 19.125C13.4388 19.2804 13.603 19.4722 14.0341 19.5055Z" stroke="#D33833" stroke-width="0.285093"/>
<path fill-rule="evenodd" clip-rule="evenodd" d="M14.4638 20.3295C14.3978 19.9532 14.3214 19.8459 14.3509 19.5177C15.3545 18.8488 15.5428 20.6668 14.4638 20.3295Z" fill="#D33833"/>
<path d="M14.4638 20.3295C14.3978 19.9532 14.3214 19.8459 14.3509 19.5177C15.3545 18.8488 15.5428 20.6668 14.4638 20.3295Z" stroke="#D33833" stroke-width="0.285093"/>
<path fill-rule="evenodd" clip-rule="evenodd" d="M15.9171 20.6344C15.9171 20.6344 15.6049 20.1887 15.8278 20.055C16.0508 19.9213 16.2736 20.055 16.4073 19.8322C16.541 19.6094 16.4073 19.4757 16.4519 19.2082C16.4965 18.9408 16.7195 18.8962 16.9423 18.8517C17.1649 18.8071 17.789 18.718 17.8781 18.9408L17.6107 18.1387L17.0758 17.9605L15.3824 18.9408L15.2931 19.4312V20.4115M11.2374 22.1052C11.1838 21.4096 11.1272 20.7151 11.0642 20.0203C10.9698 18.9827 11.3134 19.1638 12.2127 19.1638C12.3501 19.1638 13.0584 19.3277 13.1092 19.4312C13.3522 19.9277 12.7028 19.8174 13.3891 20.1917C13.9686 20.5076 14.9922 19.9998 14.758 19.2975C14.627 19.1414 14.0754 19.2489 13.8777 19.1464L12.8332 18.6047C12.3902 18.3749 11.3664 18.0399 10.8942 18.3611C9.69747 19.175 10.9697 21.2083 11.3965 22.0573" fill="#EF3D3A"/>
<path fill-rule="evenodd" clip-rule="evenodd" d="M12.4102 6.31546C11.1955 6.0325 10.592 6.82378 10.2238 7.64442C9.89508 7.56474 10.0258 7.11771 10.1089 6.88978C10.3263 6.29194 11.2025 5.49596 11.9184 5.60401C12.2264 5.65033 12.6434 5.93215 12.4102 6.31546ZM18.329 7.69816L18.3866 7.70044C18.6611 8.27063 18.8988 8.87474 19.245 9.37807C19.0129 9.91832 17.4885 10.3964 17.5121 9.42625C17.8418 9.28228 18.4108 9.39689 18.7032 9.21286C18.5341 8.74901 18.2902 8.35416 18.329 7.69816ZM13.032 7.71384C13.2924 8.19137 13.3772 8.69285 13.7474 9.05378C13.9142 9.21628 14.2383 9.41428 14.0775 9.86601C14.0401 9.97249 13.7655 10.2101 13.6071 10.2567C13.0284 10.4278 11.6798 10.2921 12.1365 9.57051C12.6152 9.59289 13.2585 9.88126 13.6161 9.53388C13.3414 9.09469 12.8516 8.22573 13.032 7.71384ZM18.1109 12.5657C17.2395 13.1255 16.2678 13.7342 14.8399 13.593C14.5348 13.3279 14.4185 12.7375 14.7149 12.3476C14.8691 12.6129 14.7722 13.1008 15.2022 13.1742C16.0125 13.3128 16.9554 12.6786 17.5381 12.4569C17.8995 11.8476 17.5069 11.6235 17.1814 11.2315C16.5149 10.4281 15.6209 9.43224 15.6533 8.22943C15.9227 8.03414 15.9459 8.52764 15.9847 8.61744C16.3325 9.43196 17.2084 10.4735 17.8478 11.1707C18.0046 11.3425 18.2631 11.5071 18.2918 11.6208C18.3748 11.9508 18.0761 12.3463 18.1108 12.5658M6.62278 11.9764C6.34966 11.8205 6.28466 11.134 5.96393 11.1143C5.50564 11.0865 5.58918 12.0052 5.59103 12.5423C5.27557 12.2559 5.22012 11.3743 5.4519 10.9216C5.18776 10.7919 5.06988 11.0645 4.92334 11.1606C5.1115 9.79288 6.92412 10.5263 6.62278 11.9764ZM18.6654 13.1353C18.2597 13.9075 17.686 14.7578 16.4956 14.7824C16.4713 14.533 16.4528 14.1537 16.4968 14.0036C17.4069 13.916 17.9688 13.4529 18.6654 13.1353ZM12.9634 13.6359C13.7226 14.0351 15.1178 14.0781 16.1497 14.0479C16.2051 14.274 16.2038 14.5532 16.2059 14.8291C14.8795 14.8951 13.3112 14.5668 12.9634 13.6359ZM12.819 14.3803C13.344 15.6984 15.1484 15.5466 16.67 15.5103C16.603 15.6813 16.4578 15.8838 16.2773 15.9567C15.7898 16.1552 14.4449 16.3057 13.7679 15.9462C13.3387 15.718 13.0629 15.2022 12.8277 14.8999C12.7141 14.7539 12.1483 14.381 12.819 14.3803Z" fill="#231F20"/>
<path fill-rule="evenodd" clip-rule="evenodd" d="M18.0482 21.6512C17.4321 22.7064 16.8427 23.7901 16.1117 24.7208C16.4182 23.8199 16.5493 22.3118 16.5955 21.1621C17.2367 20.8621 17.7856 21.2299 18.0482 21.6512Z" fill="#81B0C4"/>
<path fill-rule="evenodd" clip-rule="evenodd" d="M15.8401 18.3058C15.5228 18.5129 15.2527 18.7715 14.9479 18.9926C14.2722 19.0261 13.9035 18.9458 13.407 18.5578C13.4151 18.5266 13.465 18.5406 13.4669 18.5022C14.1903 18.8247 15.1097 18.3711 15.8401 18.3058Z" fill="#F0D6B7"/>
<path fill-rule="evenodd" clip-rule="evenodd" d="M12.0432 23.2362C12.2419 22.3752 13.0207 21.929 13.7277 21.4548C14.4575 22.3811 14.9014 23.5723 15.3902 24.722C14.2353 24.3737 13.0555 23.8088 12.0432 23.2362Z" fill="#81B0C4"/>
<path fill-rule="evenodd" clip-rule="evenodd" d="M16.1038 30.1158C16.0743 30.82 16.1731 31.9489 16.2062 32.6875C16.6742 32.688 16.8749 32.5851 17.2242 32.4672C17.2636 31.5983 16.9491 30.7942 16.8585 30.0006C16.6734 29.9513 16.334 30.1309 16.1038 30.1158ZM8.81542 26.1116C9.12403 28.9492 9.57106 31.3344 10.3911 33.8471C12.2109 34.3996 14.4048 34.4478 16.0133 33.9491C15.718 32.5311 15.847 30.8046 15.6743 29.2911C15.5443 28.1536 15.6106 27.0091 15.4323 25.8486C13.4833 25.4432 10.7281 25.7538 8.81542 26.1116ZM15.893 25.8665C15.8766 27.0851 15.9476 28.2872 16.0407 29.5074C16.5085 29.4371 16.8261 29.3902 17.2609 29.295C17.1198 28.1203 17.137 26.7984 16.8495 25.7593C16.5171 25.7625 16.2244 25.7554 15.893 25.8665ZM18.2668 25.67C18.0447 25.6191 17.7862 25.668 17.5741 25.6722C17.6738 26.6656 17.9157 27.7618 18.001 28.8045C18.3348 28.8149 18.5132 28.6574 18.7878 28.6045C18.8024 27.6892 18.7077 26.4281 18.2668 25.67ZM21.8612 28.954C22.5571 28.785 22.9947 27.9327 22.8 27.0574C22.6694 26.4691 22.4368 25.3614 22.1877 24.9851C22.0038 24.7067 21.5049 24.3422 21.1067 24.5974C20.4588 25.0122 19.3174 25.1326 18.8449 25.6348C19.0818 26.4237 19.1553 27.5072 19.2531 28.5066C20.0625 28.557 21.0585 28.2839 21.7316 28.5737C21.2616 28.7259 20.6518 28.7272 20.2458 28.949C20.5777 29.1094 21.3545 29.0769 21.8612 28.954ZM15.3897 24.7218C14.9007 23.5725 14.457 22.3812 13.7272 21.4549C13.0201 21.9292 12.2414 22.3752 12.0427 23.2363C13.0548 23.8089 14.2349 24.3739 15.3898 24.722L15.3897 24.7218ZM16.5946 21.1623C16.5483 22.3119 16.4171 23.8199 16.1107 24.721C16.8417 23.7901 17.4311 22.7065 18.0472 21.6514C17.7846 21.2298 17.2357 20.8622 16.5946 21.1623ZM15.2287 20.6769C14.9518 20.647 14.7167 20.9952 14.3568 20.8447C14.2741 20.9359 14.1993 21.0347 14.1152 21.1238C14.9104 22.0821 15.2718 23.4419 15.886 24.5681C16.2156 23.4862 16.1775 22.3011 16.2502 21.1202C15.7974 21.1489 15.546 20.7107 15.2287 20.6769ZM14.3505 19.5177C14.3209 19.846 14.3973 19.9533 14.4633 20.3295C15.5423 20.6669 15.3539 18.8487 14.3505 19.5177ZM13.154 19.125C12.6891 18.871 11.9906 18.5943 11.3901 18.4797C10.6457 18.3373 10.7156 19.4951 10.7472 20.1857C10.7719 20.7325 11.0563 21.3108 11.1798 21.674C11.2377 21.8437 11.2508 22.0237 11.3958 22.0575C11.6521 22.1171 12.4977 21.7789 12.7386 21.6476C13.2482 21.3697 13.6435 20.9285 14.0762 20.6323C14.082 20.4882 14.0874 20.3442 14.0932 20.2001C13.8329 20.0704 13.5323 19.9784 13.1503 19.9616C13.4094 19.8313 13.7906 19.8332 14.0266 19.6781C14.0289 19.6204 14.0313 19.5626 14.0333 19.5056C13.6023 19.4722 13.4382 19.2804 13.154 19.125ZM8.71336 18.3183C8.32748 18.71 9.79557 19.244 10.263 19.2728C10.2604 19.0249 10.4042 18.7913 10.3753 18.6134C9.82009 18.5159 9.09068 18.5803 8.71336 18.3183ZM13.4666 18.5022C13.4647 18.5407 13.4148 18.5267 13.4067 18.5578C13.9031 18.9458 14.272 19.0261 14.9476 18.9926C15.2523 18.7715 15.5225 18.5129 15.8398 18.3058C15.1094 18.3711 14.19 18.8247 13.4667 18.5024L13.4666 18.5022ZM17.8294 19.8253C17.8085 19.3901 17.6942 18.4951 17.4252 18.3384C16.8606 18.0089 15.8569 19.0038 15.4319 19.1555C15.4781 19.2886 15.5545 19.3941 15.5603 19.5643C15.8118 19.5025 16.1179 19.5448 16.3358 19.652C16.0839 19.6802 15.8045 19.6784 15.6377 19.7984C15.5766 19.975 15.6527 20.2156 15.612 20.4608C16.2102 20.6296 16.8934 20.7194 17.6496 20.7416C17.7967 20.5505 17.8468 20.1864 17.8294 19.8253ZM8.06377 18.6971C7.94261 18.6107 7.12296 17.5443 7.01064 17.5885C5.52744 18.1734 4.1406 19.1849 2.9013 20.1415C4.08301 22.677 4.55983 25.7834 4.64422 28.7773C5.99784 29.4103 7.18668 30.323 9.02354 30.4183C8.811 28.9144 8.617 27.5727 8.49626 26.1568C8.03484 25.9623 7.37271 26.1657 6.94065 26.0965C6.93708 25.5761 7.60035 25.8685 7.65552 25.5186C7.69714 25.2538 7.2906 25.2338 7.42303 24.8169C7.76058 24.9396 7.9379 25.2107 8.29798 25.3125C8.62712 24.5927 8.29342 23.319 8.34074 22.7175C8.34986 22.6046 8.39733 22.0917 8.65035 22.1816C8.87415 22.2613 8.63752 23.5457 8.66204 24.115C8.68442 24.6396 8.59875 25.1473 8.81115 25.4766C10.6346 25.2268 12.4702 25.0764 14.31 25.0261C13.8875 24.8448 13.3856 24.6733 12.8354 24.3632C12.537 24.195 11.5966 23.845 11.5107 23.5618C11.3733 23.1103 11.8711 22.8697 11.9562 22.4827C11.0602 22.9713 10.8855 22.0143 10.6735 21.3363C10.4815 20.7222 10.3722 20.2635 10.325 19.9094C9.55324 19.5415 8.72804 19.1689 8.06377 18.6971ZM17.0455 17.7175C18.2814 17.1182 18.504 19.957 18.0197 20.8716C18.0945 21.1445 18.3519 21.2488 18.4571 21.494C17.7675 22.7294 17.0016 23.8825 16.2978 25.1033C16.8213 24.7774 17.5689 25.045 18.1849 24.8011C18.4101 24.7121 18.5729 24.1967 18.7434 23.7843C19.2123 22.6499 19.7046 21.2199 19.9237 20.1371C19.973 19.8905 20.1078 19.3531 20.0776 19.1336C20.0237 18.7404 19.4903 18.4489 19.2192 18.2059C18.7194 17.7568 18.4047 17.3618 17.8834 16.942C17.672 17.2541 17.2183 17.4638 17.0455 17.7175ZM5.2375 6.75879C4.64878 7.40667 4.77194 8.62074 4.84322 9.48443C5.90761 8.81488 7.32025 9.53745 7.30699 10.6761C7.81517 10.6627 7.49686 10.0415 7.40492 9.64137C7.10458 8.33436 7.91096 6.91445 7.44141 5.71906C6.52983 5.78819 5.78075 6.16053 5.2375 6.75879ZM9.45089 2.99841C8.1178 3.37616 6.40938 4.34491 5.86157 5.54244C6.28579 5.48086 6.58015 5.2669 6.99866 5.24039C7.15689 5.23012 7.36401 5.30681 7.54576 5.26148C7.90783 5.17168 8.21359 4.35959 8.48685 4.05739C8.75313 3.76232 9.07329 3.63631 9.29238 3.36732C9.43322 3.29933 9.64134 3.30403 9.64932 3.09263C9.58831 3.02749 9.52402 2.9776 9.45089 2.99841ZM16.3902 3.35378C15.0065 2.57305 12.6646 1.9859 11.1927 2.71959C10.0051 3.31187 8.39976 4.29145 7.85238 5.53303C8.36369 6.73114 7.70099 7.82889 7.65851 9.04538C7.63613 9.69255 7.96342 10.2576 7.98851 10.9621C7.81346 11.2507 7.27891 11.2864 6.90886 11.2665C6.78442 10.6433 6.56632 9.94271 5.92443 9.87244C5.01627 9.77308 4.35214 10.5247 4.31095 11.31C4.2622 12.2337 5.02054 13.7647 6.0952 13.6585C6.51044 13.6176 6.61251 13.2013 7.06481 13.2056C7.30999 13.6948 6.68663 13.8485 6.62248 14.1983C6.60581 14.2887 6.67423 14.6419 6.714 14.8075C6.90929 15.6141 7.34434 16.6581 7.77269 17.2722C8.31637 18.0511 9.38447 18.1685 10.5338 18.2448C10.7391 17.8027 11.495 17.8391 11.9878 17.9547C11.3972 17.7209 10.8484 17.154 10.3934 16.6522C9.87098 16.0765 9.3417 15.459 9.31491 14.7065C10.3023 16.0764 11.1181 17.2727 12.9136 17.8753C14.2721 18.3309 15.8589 17.6665 16.9029 16.9333C17.3361 16.6287 17.5947 16.1452 17.9026 15.7026C19.0547 14.0454 19.5924 11.6801 19.4741 9.38735C19.4253 8.44184 19.4275 7.49947 19.1103 6.86342C18.7787 6.1983 17.6573 5.60331 17.0006 6.20486C16.879 5.55812 17.5465 5.15799 18.3307 5.39091C17.7716 4.6692 17.1848 3.80223 16.3901 3.35392L16.3902 3.35378ZM18.968 24.6873C20.0492 24.1499 22.0694 23.2406 22.7472 24.6893C22.9974 25.2233 23.2909 26.126 23.4205 26.6773C23.6035 27.455 23.222 29.0896 22.4226 29.3506C21.7166 29.5811 20.8927 29.567 20.0421 29.3962C19.942 29.3128 19.8306 29.1677 19.7527 29.0163C19.1454 28.9928 18.5767 29.049 18.0971 29.2986C18.1425 29.7476 17.8388 29.8197 17.554 29.9122C17.343 30.7493 17.9763 31.8424 17.8248 32.6058C17.7165 33.1496 17.0475 33.2337 16.5558 33.3353C16.5397 33.6375 16.5772 33.8898 16.6109 34.1454C16.4984 34.5598 15.9941 34.7956 15.5163 34.8535C13.9441 35.0425 11.557 35.1274 10.0447 34.5836C9.62281 33.5486 9.29039 32.2896 8.93887 31.1078C7.46408 31.2653 6.27111 30.4714 5.1467 29.9513C4.7574 29.7708 4.21872 29.6713 4.07332 29.3614C3.9322 29.0614 3.99007 28.4862 3.95501 27.9431C3.86592 26.5557 3.78965 25.2176 3.42331 23.797C3.25881 23.1595 2.97215 22.597 2.77216 21.9828C2.58727 21.4134 2.26426 20.7098 2.17987 20.1425C2.05486 19.301 2.84713 19.2541 3.35375 18.8895C4.1369 18.3259 4.75156 18.014 5.59971 17.5052C5.85088 17.3546 6.60851 16.9731 6.69461 16.7974C6.86595 16.4491 6.40068 15.958 6.27624 15.6851C6.07952 15.2531 5.97689 14.8865 5.94867 14.4606C5.23707 14.3481 4.69782 13.9246 4.3721 13.4472C3.83313 12.6571 3.45937 11.1953 3.92564 10.0833C3.96228 9.99574 4.14459 9.82355 4.17154 9.68912C4.22456 9.42427 4.07175 9.07204 4.06206 8.79037C4.01317 7.34495 4.30667 6.0998 5.27955 5.66403C5.67455 4.0906 7.08818 3.56717 8.42014 2.7853C8.91806 2.49308 9.46686 2.30635 10.0338 2.09766C12.0669 1.34929 15.1868 1.49027 16.8742 2.76649C17.5897 3.30774 18.7335 4.45039 19.1426 5.27773C20.2231 7.46198 20.1465 11.1123 19.3907 13.7694C19.2892 14.1262 19.1418 14.6505 18.9359 15.079C18.7925 15.3783 18.3467 15.977 18.4008 16.2411C18.4566 16.5143 19.4175 17.2438 19.6235 17.4425C19.9945 17.8003 20.6994 18.2754 20.7564 18.7272C20.8177 19.2078 20.5447 19.8652 20.4063 20.3291C19.9438 21.8769 19.4923 23.3076 18.9679 24.6876" fill="#231F20"/>
<path fill-rule="evenodd" clip-rule="evenodd" d="M11.7553 13.9731C11.8139 13.895 12.1365 13.7764 12.5878 13.9936C12.5878 13.9936 12.0529 14.0828 12.0974 14.9745L11.8745 14.9298C11.8745 14.9298 11.6443 14.1213 11.7553 13.9731Z" fill="#F7E4CD"/>
<path fill-rule="evenodd" clip-rule="evenodd" d="M15.6633 21.6368C15.6633 21.7018 15.6375 21.7642 15.5915 21.8102C15.5455 21.8561 15.4831 21.8819 15.4181 21.8819C15.3531 21.8819 15.2907 21.856 15.2447 21.8101C15.1988 21.7641 15.173 21.7017 15.173 21.6367C15.173 21.5716 15.1988 21.5093 15.2448 21.4633C15.2908 21.4174 15.3532 21.3915 15.4182 21.3916C15.4833 21.3916 15.5456 21.4174 15.5916 21.4634C15.6375 21.5094 15.6634 21.5718 15.6633 21.6368ZM15.9085 22.7732C15.9085 22.8054 15.9022 22.8373 15.8899 22.867C15.8775 22.8968 15.8595 22.9238 15.8367 22.9466C15.8139 22.9693 15.7869 22.9874 15.7572 22.9997C15.7274 23.012 15.6955 23.0184 15.6633 23.0184C15.6311 23.0184 15.5993 23.012 15.5695 22.9997C15.5398 22.9874 15.5127 22.9693 15.49 22.9466C15.4672 22.9238 15.4491 22.8968 15.4368 22.867C15.4245 22.8373 15.4182 22.8054 15.4182 22.7732C15.4182 22.7082 15.444 22.6458 15.49 22.5998C15.5359 22.5538 15.5983 22.528 15.6633 22.528C15.7284 22.528 15.7907 22.5538 15.8367 22.5998C15.8827 22.6458 15.9085 22.7082 15.9085 22.7732Z" fill="#1D1919"/>
<path d="M11.0928 21.8536H3.28739C3.22548 21.8536 3.17529 21.9038 3.17529 21.9657V22.2114C3.17529 22.2733 3.22548 22.3235 3.28739 22.3235H11.0928C11.1547 22.3235 11.2049 22.2733 11.2049 22.2114V21.9657C11.2049 21.9038 11.1547 21.8536 11.0928 21.8536Z" fill="black"/>
<path d="M19.4641 21.8535H12.5556C12.4937 21.8535 12.4435 21.9036 12.4435 21.9655V22.2113C12.4435 22.2732 12.4937 22.3233 12.5556 22.3233H19.4641C19.526 22.3233 19.5762 22.2732 19.5762 22.2113V21.9655C19.5762 21.9036 19.526 21.8535 19.4641 21.8535Z" fill="black"/>
<path d="M10.8792 21.6254H3.28733C3.22546 21.6254 3.17529 21.6756 3.17529 21.7374V21.9832C3.17529 22.0451 3.22546 22.0952 3.28733 22.0952H10.8792C10.9411 22.0952 10.9913 22.0451 10.9913 21.9832V21.7374C10.9913 21.6756 10.9411 21.6254 10.8792 21.6254Z" fill="black"/>
<path d="M19.4641 21.6254H13.2389C13.1771 21.6254 13.1269 21.6756 13.1269 21.7374V21.9832C13.1269 22.0451 13.1771 22.0952 13.2389 22.0952H19.4641C19.526 22.0952 19.5761 22.0451 19.5761 21.9832V21.7374C19.5761 21.6756 19.526 21.6254 19.4641 21.6254Z" fill="black"/>
</g>
</svg>
