<svg width="24" height="24" viewBox="0 0 24 24" fill="none" xmlns="http://www.w3.org/2000/svg">
<path d="M15.0472 7.45288L13.828 9.91492C14.2285 10.286 14.5112 10.7749 14.6232 11.3285H15.542C15.648 10.8043 15.9072 10.3331 16.2783 9.96793L15.0472 7.45288Z" fill="#F472B6"/>
<path d="M12.8031 9.32003L15.0472 4.78469L17.2854 9.34948C17.3738 9.32003 17.4621 9.29647 17.5505 9.27291L19.6768 3H10.4118L12.5322 9.25523C12.6205 9.2729 12.7148 9.29647 12.8031 9.32003ZM12.0315 13.3312C12.8502 13.3312 13.5158 12.6656 13.5158 11.8469C13.5158 11.5465 13.4275 11.2696 13.2743 11.034C13.2272 10.9575 13.1683 10.8868 13.1094 10.822L13.1035 10.8161C13.0446 10.7513 12.9739 10.6924 12.9032 10.6453L12.8974 10.6394C12.8797 10.6276 12.8561 10.6099 12.8326 10.5982C12.8267 10.5982 12.8267 10.5923 12.8208 10.5923C12.7972 10.5805 12.7737 10.5628 12.7501 10.551H12.7442C12.7207 10.5393 12.6912 10.5216 12.6676 10.5098H12.6618C12.6382 10.498 12.6146 10.4863 12.5911 10.4804C12.5852 10.4804 12.5793 10.4745 12.5734 10.4745C12.5557 10.4686 12.5322 10.4568 12.5145 10.4509C12.5086 10.4509 12.5027 10.445 12.4909 10.445C12.4674 10.4391 12.4438 10.4274 12.4203 10.4215H12.4144C12.3849 10.4156 12.3614 10.4097 12.3319 10.4038C12.326 10.4038 12.3201 10.4038 12.3084 10.3979C12.2848 10.392 12.2671 10.392 12.2436 10.3861C12.2318 10.3861 12.2259 10.3861 12.2141 10.3802C12.1964 10.3802 12.1729 10.3743 12.1552 10.3743H11.9255C11.9019 10.3743 11.8843 10.3802 11.8607 10.3802H11.8371C11.8136 10.3861 11.79 10.3861 11.7665 10.392H11.7488C11.7193 10.3979 11.6958 10.4038 11.6663 10.4097C11.0184 10.5687 10.5354 11.1577 10.5354 11.8527C10.5472 12.6597 11.2128 13.3312 12.0315 13.3312V13.3312ZM18.275 10.3626H18.2632C18.2396 10.3626 18.222 10.3567 18.1984 10.3567H18.1218C18.0924 10.3567 18.0629 10.3567 18.0276 10.3626H17.9981C17.9746 10.3626 17.951 10.3685 17.9275 10.3685C17.9216 10.3685 17.9098 10.3685 17.9039 10.3743L17.8155 10.392H17.8097C17.7802 10.3979 17.7566 10.4038 17.7272 10.4097C17.7213 10.4097 17.7095 10.4156 17.7036 10.4156C17.6801 10.4215 17.6565 10.4274 17.633 10.4391C17.6271 10.4391 17.6212 10.445 17.6153 10.445C17.5858 10.4568 17.5564 10.4686 17.5328 10.4804C17.5034 10.4921 17.4798 10.5039 17.4504 10.5157C17.4445 10.5157 17.4386 10.5216 17.4327 10.5216C17.4091 10.5334 17.3856 10.5452 17.362 10.5628C17.362 10.5628 17.3561 10.5628 17.3561 10.5687C17.3031 10.5982 17.2501 10.6335 17.203 10.6747L17.1971 10.6806C17.1205 10.7395 17.0557 10.8043 16.9909 10.875C16.9262 10.9457 16.8731 11.0281 16.826 11.1106C16.7023 11.3285 16.6316 11.5818 16.6316 11.8469C16.6316 12.6656 17.2972 13.3312 18.1159 13.3312C18.9347 13.3312 19.6002 12.6656 19.6002 11.8469C19.6002 11.1283 19.0819 10.5216 18.4046 10.3861C18.3692 10.3743 18.3221 10.3685 18.275 10.3626V10.3626ZM5.87641 13.3312C6.69513 13.3312 7.36071 12.6656 7.36071 11.8469C7.36071 11.0281 6.69513 10.3626 5.87641 10.3626C5.0577 10.3626 4.39212 11.0281 4.39212 11.8469C4.39212 12.6656 5.0577 13.3312 5.87641 13.3312V13.3312Z" fill="#F472B6"/>
<path d="M18.1277 14.4797C16.9026 14.4797 15.8718 13.6374 15.5773 12.5065H14.5878C14.2933 13.6374 13.2625 14.4797 12.0374 14.4797C11.8961 14.4797 11.7606 14.4679 11.631 14.4502C11.2894 14.9745 10.883 15.4574 10.4059 15.9051C9.56359 16.7002 8.60941 17.2893 7.57865 17.6603L7.33715 17.7487L7.11333 17.6309C5.87642 16.9948 5.2403 15.7048 5.46412 14.4561C5.32276 14.4326 5.18729 14.3972 5.0577 14.3501C5.03414 14.3913 5.01647 14.4385 4.99291 14.4856C4.61595 15.2631 4.22132 16.0641 4.07996 16.9241C3.92681 17.8429 3.86202 19.5216 5.15784 20.4169C5.72328 20.8056 6.31818 21 6.98375 21C8.26189 21 9.64017 20.3167 11.1009 19.5923C12.2436 19.0268 13.4216 18.4378 14.6467 18.1374C15.112 18.0255 15.5832 17.9548 16.0368 17.89C16.8673 17.7722 17.6565 17.6544 18.2985 17.2834C18.9818 16.8887 19.4471 16.229 19.5767 15.4751C19.6591 15.0157 19.612 14.5504 19.4589 14.1204C19.0701 14.3442 18.6166 14.4797 18.1277 14.4797V14.4797Z" fill="#F472B6"/>
</svg>
