<svg width="24" height="24" viewBox="0 0 24 24" fill="none" xmlns="http://www.w3.org/2000/svg">
<path fill-rule="evenodd" clip-rule="evenodd" d="M18 3H6C3.79086 3 2 4.79086 2 7V17C2 19.2091 3.79086 21 6 21H18C20.2091 21 22 19.2091 22 17V7C22 4.79086 20.2091 3 18 3ZM4 7C4 5.89543 4.89543 5 6 5H18C19.1046 5 20 5.89543 20 7V17C20 18.1046 19.1046 19 18 19H6C4.89543 19 4 18.1046 4 17V7ZM11.3139 9.18182H9.7571V13.1705C9.75521 13.3201 9.73343 13.446 9.69176 13.5483C9.65009 13.6487 9.58854 13.7244 9.5071 13.7756C9.42756 13.8267 9.32907 13.8523 9.21165 13.8523C9.09612 13.8523 8.99763 13.8277 8.91619 13.7784C8.83665 13.7273 8.77415 13.6515 8.72869 13.5511C8.68513 13.4508 8.66051 13.3277 8.65483 13.1818H7.07528C7.07339 13.6288 7.1643 13.9924 7.34801 14.2727C7.53172 14.5511 7.77794 14.7557 8.08665 14.8864C8.39536 15.0152 8.73627 15.0795 9.10938 15.0795C9.5393 15.0795 9.91903 15 10.2486 14.8409C10.58 14.6799 10.8395 14.4564 11.027 14.1705C11.2164 13.8826 11.312 13.5492 11.3139 13.1705V9.18182ZM14.9858 10.5568C15.1127 10.6629 15.1837 10.8106 15.1989 11H16.7102C16.7083 10.6193 16.6136 10.2869 16.4261 10.0028C16.2405 9.71686 15.9763 9.49527 15.6335 9.33807C15.2907 9.18087 14.8845 9.10227 14.4148 9.10227C13.9545 9.10227 13.5464 9.17992 13.1903 9.33523C12.8362 9.49053 12.5587 9.70739 12.358 9.9858C12.1591 10.2623 12.0606 10.5852 12.0625 10.9545C12.0606 11.4091 12.2074 11.768 12.5028 12.0312C12.8002 12.2926 13.2064 12.4792 13.7216 12.5909L14.3011 12.7159C14.517 12.7633 14.6884 12.8144 14.8153 12.8693C14.9422 12.9223 15.0331 12.983 15.0881 13.0511C15.1449 13.1174 15.1742 13.1951 15.1761 13.2841C15.1742 13.3788 15.1439 13.4631 15.0852 13.5369C15.0265 13.6108 14.9403 13.6686 14.8267 13.7102C14.7131 13.7519 14.572 13.7727 14.4034 13.7727C14.2027 13.7727 14.0294 13.7415 13.8835 13.679C13.7396 13.6165 13.6278 13.5246 13.5483 13.4034C13.4688 13.2822 13.4242 13.1326 13.4148 12.9545H11.9148C11.9167 13.4413 12.0208 13.8409 12.2273 14.1534C12.4356 14.464 12.7273 14.6941 13.1023 14.8438C13.4792 14.9934 13.9205 15.0682 14.4261 15.0682C14.9186 15.0682 15.34 14.9991 15.6903 14.8608C16.0426 14.7225 16.3134 14.5208 16.5028 14.2557C16.6922 13.9905 16.7879 13.6667 16.7898 13.2841C16.7879 13.0625 16.7519 12.858 16.6818 12.6705C16.6136 12.483 16.5066 12.3144 16.3608 12.1648C16.215 12.0133 16.0275 11.8816 15.7983 11.7699C15.5691 11.6581 15.2936 11.5682 14.9716 11.5L14.4943 11.3977C14.3561 11.3693 14.2367 11.3371 14.1364 11.3011C14.036 11.2652 13.9536 11.2254 13.8892 11.1818C13.8248 11.1364 13.7775 11.0862 13.7472 11.0312C13.7188 10.9744 13.7064 10.911 13.7102 10.8409C13.7121 10.7557 13.7377 10.6799 13.7869 10.6136C13.8362 10.5473 13.9119 10.4953 14.0142 10.4574C14.1184 10.4176 14.2519 10.3977 14.4148 10.3977C14.6705 10.3977 14.8608 10.4508 14.9858 10.5568Z" fill="#EAB308"/>
</svg>
