<svg width="24" height="24" viewBox="0 0 24 24" fill="none" xmlns="http://www.w3.org/2000/svg">
<path d="M11.3539 16.1769C11.3539 18.4838 9.48383 20.3539 7.17694 20.3539C4.87005 20.3539 3 18.4838 3 16.1769C3 13.8701 4.87005 12 7.17694 12C9.48383 12 11.3539 13.8701 11.3539 16.1769Z" fill="#60A5FA"/>
<path d="M16.1769 7.82306C16.1769 10.1299 14.3069 12 12 12C9.69311 12 7.82306 10.1299 7.82306 7.82306C7.82306 5.51617 9.69311 3.64612 12 3.64612C14.3069 3.64612 16.1769 5.51617 16.1769 7.82306Z" fill="#60A5FA"/>
<path d="M21 16.1769C21 18.4838 19.1299 20.3539 16.8231 20.3539C14.5162 20.3539 12.6461 18.4838 12.6461 16.1769C12.6461 13.8701 14.5162 12 16.8231 12C19.1299 12 21 13.8701 21 16.1769Z" fill="#60A5FA"/>
</svg>
