<svg width="24" height="24" viewBox="0 0 24 24" fill="none" xmlns="http://www.w3.org/2000/svg">
<path d="M10.3539 16.1769C10.3539 17.9315 8.93155 19.3539 7.17694 19.3539C5.42234 19.3539 4 17.9315 4 16.1769C4 14.4223 5.42234 13 7.17694 13C8.93155 13 10.3539 14.4223 10.3539 16.1769Z" fill="#F87171" stroke="#F87171" stroke-width="2"/>
<path d="M15.1769 7.82306C15.1769 9.57766 13.7546 11 12 11C10.2454 11 8.82306 9.57766 8.82306 7.82306C8.82306 6.06845 10.2454 4.64612 12 4.64612C13.7546 4.64612 15.1769 6.06845 15.1769 7.82306Z" fill="#4ADE80" stroke="#4ADE80" stroke-width="2"/>
<path d="M21 16.1769C21 18.4838 19.1299 20.3539 16.8231 20.3539C14.5162 20.3539 12.6461 18.4838 12.6461 16.1769C12.6461 13.8701 14.5162 12 16.8231 12C19.1299 12 21 13.8701 21 16.1769Z" fill="#A855F7"/>
</svg>
