<svg width="24" height="24" viewBox="0 0 24 24" fill="none" xmlns="http://www.w3.org/2000/svg">
<path fill-rule="evenodd" clip-rule="evenodd" d="M6.38824 3H17.6118C19.483 3 21 4.51696 21 6.38824V17.6118C21 19.483 19.483 21 17.6118 21H6.38824C4.51696 21 3 19.483 3 17.6118V6.38824C3 4.51696 4.51696 3 6.38824 3ZM16.2978 4.91603C15.3038 4.84761 14.4076 5.35789 13.6322 6.48164L9.75224 13.3122L9.67995 13.2439L8.94004 15.0983C8.65365 15.5472 8.41127 16.0227 8.21623 16.5183C7.95313 17.2539 7.94665 18.0039 8.35146 18.6989C8.6149 19.1512 9.04139 19.4371 9.66339 19.5207C10.6233 19.5349 11.4586 19.1433 12.059 18.0136C12.6043 17.0551 12.5784 16.2226 12.1894 15.4677C12.0561 15.2544 11.884 15.068 11.6821 14.9182C11.4852 14.7782 11.2613 14.6811 11.0246 14.633C10.7519 14.6423 10.5456 14.5895 10.4369 14.4474C10.2932 14.2592 10.3585 14.0668 10.4239 13.8739C10.4335 13.8455 10.4432 13.817 10.4522 13.7886L10.53 13.5405C10.6267 13.35 10.7948 13.2054 10.9976 13.1381C11.0747 13.1105 11.1399 13.0944 11.2013 13.0792C11.3199 13.0499 11.4246 13.024 11.5745 12.9255C11.8196 12.7529 12.0051 12.5086 12.1058 12.2262L16.2978 4.91603ZM20.0463 11.3517C19.6154 12.2501 18.7293 12.7778 17.3693 12.8978L12.1937 12.9016L13.0819 11.3846L20.0463 11.3517ZM9.701 12.1149C9.79934 12.1192 9.89773 12.1059 9.99145 12.0757L9.52888 12.9042L9.5127 12.9032L9.51706 12.924L9.4786 12.9919L7.55942 12.7279C7.02763 12.756 6.49437 12.7322 5.96719 12.6569C5.19807 12.5237 4.53971 12.1545 4.13773 11.4644C3.87596 11.0149 3.83548 10.499 4.07383 9.9195C4.53504 9.07756 5.29061 8.54908 6.56299 8.57759C7.66526 8.57517 8.37709 9.00946 8.84183 9.72027C8.96016 9.94008 9.0364 10.18 9.06672 10.4278C9.09332 10.6695 9.0688 10.9141 8.99476 11.1457C8.85148 11.3773 8.79562 11.5827 8.86609 11.7484C8.95896 11.9662 9.15852 12.0044 9.35859 12.0427C9.38809 12.0483 9.41761 12.054 9.4468 12.0602L9.701 12.1149ZM7.82269 9.81857C8.19425 10.1351 8.39856 10.5751 8.16316 11.0437L8.16375 11.0447C8.00497 11.3349 7.74624 11.5577 7.43558 11.6716C7.1578 11.7819 6.86371 11.8455 6.56519 11.8601C6.17902 11.8887 5.79322 11.7998 5.45855 11.605C4.73281 11.1737 4.45908 10.3555 5.2348 9.80358C5.64884 9.53091 6.13719 9.39313 6.63271 9.40927C7.12472 9.4282 7.52503 9.56424 7.82269 9.81857ZM11.6572 12.2157C11.6621 12.1363 11.6433 12.0572 11.6033 11.9884C11.5769 11.9427 11.5417 11.9028 11.4998 11.8707C11.4578 11.8387 11.41 11.8152 11.359 11.8017C11.308 11.7882 11.2549 11.7848 11.2026 11.7918C11.1503 11.7989 11.0999 11.8162 11.0543 11.8427C10.9854 11.8826 10.93 11.942 10.8948 12.0134C10.8597 12.0849 10.8466 12.1651 10.8571 12.244C10.8677 12.3229 10.9014 12.3969 10.954 12.4566C11.0066 12.5163 11.0757 12.5591 11.1526 12.5795C11.2296 12.5999 11.3108 12.597 11.3861 12.5713C11.4614 12.5455 11.5273 12.4979 11.5756 12.4346C11.6238 12.3714 11.6522 12.2952 11.6572 12.2157ZM11.6005 16.3047C11.5085 15.8253 11.2271 15.4315 10.7034 15.405L10.7023 15.4031C10.3714 15.3976 10.0498 15.5124 9.79714 15.7261C9.56382 15.913 9.36328 16.1375 9.20377 16.3903C8.98786 16.7114 8.87461 17.0907 8.87905 17.4777C8.89621 18.3218 9.4728 18.9635 10.3361 18.5621C10.7777 18.3381 11.1394 17.9835 11.3722 17.5465C11.5957 17.1044 11.6754 16.69 11.6005 16.3047Z" fill="#FB923C"/>
</svg>
