<svg width="24" height="24" viewBox="0 0 24 24" fill="none" xmlns="http://www.w3.org/2000/svg">
<path d="M21.134 6.8408C21.134 6.832 21.1252 6.8231 21.1252 6.8143C21.1163 6.7966 21.1163 6.7789 21.1075 6.77C21.0986 6.7612 21.0898 6.7523 21.0898 6.7435C21.0809 6.7346 21.0721 6.7169 21.0632 6.7081L21.0367 6.6816C21.0278 6.6727 21.019 6.6639 21.0013 6.655L17.4538 4.6114C17.4096 4.58533 17.3591 4.57157 17.3078 4.57157C17.2564 4.57157 17.206 4.58533 17.1618 4.6114L13.6145 6.655C13.6056 6.6639 13.5968 6.6727 13.5791 6.6816L13.5525 6.7081C13.5437 6.7169 13.5348 6.7346 13.526 6.7435C13.5171 6.7523 13.5083 6.7612 13.5083 6.77C13.4994 6.7877 13.4906 6.7966 13.4906 6.8143C13.4906 6.8231 13.4818 6.832 13.4818 6.8408C13.4729 6.8673 13.4729 6.8938 13.4729 6.9204V10.7952L10.5182 12.4938V4.9033C10.5182 4.8768 10.5182 4.8503 10.5094 4.8237C10.5094 4.8149 10.5005 4.806 10.5005 4.7972C10.4917 4.7795 10.4917 4.7618 10.4828 4.7529C10.474 4.7441 10.4651 4.7352 10.4651 4.7264C10.4563 4.7175 10.4474 4.6998 10.4386 4.691L10.412 4.6645C10.4032 4.6556 10.3944 4.6468 10.3767 4.6379L6.82029 2.612C6.77606 2.58593 6.72564 2.57217 6.67429 2.57217C6.62294 2.57217 6.57253 2.58593 6.52829 2.612L2.98079 4.6556C2.97199 4.6645 2.96309 4.6733 2.94539 4.6822L2.91889 4.7087C2.90999 4.7175 2.90119 4.7352 2.89229 4.7441C2.88349 4.7529 2.87469 4.7618 2.87469 4.7706C2.86579 4.7883 2.85699 4.7972 2.85699 4.8149C2.85699 4.8237 2.84809 4.8326 2.84809 4.8414C2.83929 4.8679 2.83929 4.8944 2.83929 4.921V17.058C2.83929 17.1642 2.89229 17.2615 2.98969 17.3146L10.0759 21.3929C10.0936 21.4017 10.1113 21.4106 10.1201 21.4106C10.1289 21.4106 10.1378 21.4194 10.1466 21.4194C10.1732 21.4283 10.1997 21.4283 10.2263 21.4283C10.2529 21.4283 10.2793 21.4283 10.3059 21.4194C10.3147 21.4194 10.3147 21.4106 10.3236 21.4106C10.3413 21.4017 10.359 21.4017 10.3766 21.3929L17.4629 17.3146C17.5513 17.2615 17.6133 17.1642 17.6133 17.058V13.1832L21.0103 11.2282C21.0988 11.175 21.1608 11.0777 21.1608 10.9716V6.911C21.1431 6.8844 21.1342 6.8579 21.1342 6.8402L21.134 6.8408ZM10.209 16.705L7.26309 15.033L10.3594 13.246L13.7565 11.2909L16.7112 12.9894L14.5438 14.2279L10.209 16.705ZM17.0032 9.1234V12.4852L15.7647 11.7686L14.0485 10.7778V7.41601L15.287 8.1326L17.0032 9.1234ZM17.304 5.2132L20.2587 6.9117L17.304 8.6102L14.3493 6.9117L17.304 5.2132ZM8.20079 13.821L6.96229 14.5376V7.1152L8.67849 6.1243L9.91699 5.4078V12.8213L8.20079 13.821ZM6.67029 3.205L9.62499 4.9035L6.67029 6.6109L3.71559 4.9124L6.67029 3.205ZM3.41479 5.4167L4.65329 6.1333L6.36949 7.1241V15.0507C6.36949 15.0596 6.36949 15.0773 6.37829 15.0861C6.37829 15.1038 6.37829 15.1126 6.38719 15.1303C6.38719 15.1392 6.39599 15.1569 6.40489 15.1657C6.41369 15.1746 6.41369 15.1923 6.42259 15.2011L6.44909 15.2277C6.45789 15.2365 6.46679 15.2453 6.47559 15.263C6.48449 15.2719 6.49329 15.2807 6.50219 15.2807C6.51099 15.2896 6.51989 15.2984 6.53759 15.3073L9.91699 17.2182V20.6152L3.41469 16.8731L3.41479 5.4167ZM17.0038 16.8737L10.5015 20.6159V17.2188L15.3141 14.4675L17.0038 13.5032V16.8737ZM20.5513 10.7872L17.5966 12.4858V9.124L19.3128 8.1332L20.5513 7.4166V10.7872Z" fill="#EF4444" stroke="#EF4444" stroke-width="0.4802"/>
</svg>
