<svg width="24" height="24" viewBox="0 0 24 24" fill="none" xmlns="http://www.w3.org/2000/svg">
<path d="M13.7679 10.2326L15.5358 8.46476C13.5832 6.51195 10.4172 6.51195 8.46456 8.46476C6.51175 10.4174 6.51175 13.5833 8.46456 15.536C10.4172 17.4888 13.5831 17.4888 15.5358 15.536L13.7679 13.7681C12.7917 14.7443 11.2087 14.7443 10.2324 13.7681C9.25625 12.7919 9.25625 11.2089 10.2324 10.2326C11.2086 9.25602 12.7917 9.25602 13.7679 10.2326V10.2326Z" fill="#64748B"/>
<path d="M12 2C6.47712 2 2 6.47706 2 12C2 17.5229 6.47706 22 12 22C17.5229 22 22 17.5229 22 12C22 6.47712 17.5229 2 12 2V2ZM12 19.4999C7.85763 19.4999 4.50013 16.1422 4.50013 12C4.50013 7.85784 7.85784 4.50013 12 4.50013C16.1422 4.50013 19.4999 7.85784 19.4999 12C19.4999 16.1422 16.1422 19.4999 12 19.4999V19.4999Z" fill="#64748B"/>
</svg>
