<svg width="24" height="24" viewBox="0 0 24 24" fill="none" xmlns="http://www.w3.org/2000/svg">
<path fill-rule="evenodd" clip-rule="evenodd" d="M7 9.99986H17C18.6569 9.99986 20 11.343 20 12.9999V17.9999C20 19.6567 18.6569 20.9999 17 20.9999H7C5.34314 20.9999 4 19.6567 4 17.9999V12.9999C4 11.343 5.34315 9.99986 7 9.99986ZM7 11.9999C6.44772 11.9999 6 12.4476 6 12.9999V17.9999C6 18.5521 6.44772 18.9999 7 18.9999H17C17.5523 18.9999 18 18.5521 18 17.9999V12.9999C18 12.4476 17.5523 11.9999 17 11.9999H7Z" fill="#64748B"/>
<path fill-rule="evenodd" clip-rule="evenodd" d="M16.2689 4.93151C15.3544 3.61181 13.6806 3.07502 12.3531 3.0078C10.9524 2.93688 9.15252 3.34359 7.98517 4.84102C7.49028 5.47585 7.2821 6.24826 7.17477 6.82773C7.05797 7.45833 7.01207 8.1481 7.00214 8.81526C6.99154 9.52762 7.02146 10.2772 7.07178 10.9996H9.07693C8.93005 9.00977 8.94468 6.86318 9.5625 6.07066C10.8281 4.44717 13.7812 4.85304 14.625 6.07066C15.0474 6.68022 15.0469 8.91728 14.941 10.9996H16.9435C16.9827 10.2007 17.0069 9.37263 16.9983 8.60987C16.9911 7.97564 16.961 7.33892 16.8867 6.78085C16.8271 6.3334 16.6993 5.55268 16.2689 4.93151Z" fill="#64748B"/>
</svg>
