<svg width="24" height="24" viewBox="0 0 24 24" fill="none" xmlns="http://www.w3.org/2000/svg">
<path fill-rule="evenodd" clip-rule="evenodd" d="M10.8506 5.29993C15.1836 5.29993 18.7012 8.81752 18.7012 13.1505C18.7012 17.4835 15.1836 21.0011 10.8506 21.0011C6.51759 21.0011 3 17.4835 3 13.1505C3 8.81752 6.51759 5.29993 10.8506 5.29993ZM14.1036 7.59867C15.3723 7.59867 16.4024 8.62879 16.4024 9.89747C16.4024 11.1661 15.3723 12.1963 14.1036 12.1963C12.835 12.1963 11.8048 11.1661 11.8048 9.89747C11.8048 8.62879 12.835 7.59867 14.1036 7.59867Z" fill="#2563EB"/>
<path d="M21 5.2977C21 4.02902 19.9699 2.9989 18.7012 2.9989C17.4326 2.9989 16.4024 4.02902 16.4024 5.2977C16.4024 6.56637 17.4326 7.59649 18.7012 7.59649C19.9699 7.59649 21 6.56854 21 5.2977Z" fill="#2563EB"/>
</svg>
