<?xml version="1.0" encoding="UTF-8"?>
<!DOCTYPE svg PUBLIC "-//W3C//DTD SVG 1.1//EN" "http://www.w3.org/Graphics/SVG/1.1/DTD/svg11.dtd">
<svg xmlns="http://www.w3.org/2000/svg" version="1.1" width="120px" height="120px" style="shape-rendering:geometricPrecision; text-rendering:geometricPrecision; image-rendering:optimizeQuality; fill-rule:evenodd; clip-rule:evenodd" xmlns:xlink="http://www.w3.org/1999/xlink">
<g><path style="opacity:0.965" fill="#00a2ff" d="M 30.5,10.5 C 56.2669,16.6919 81.9336,23.3586 107.5,30.5C 108.631,32.0745 108.798,33.7412 108,35.5C 101.499,59.5056 94.9987,83.5056 88.5,107.5C 86.9255,108.631 85.2588,108.798 83.5,108C 59.4944,101.499 35.4944,94.9987 11.5,88.5C 10.3691,86.9255 10.2025,85.2588 11,83.5C 17.6601,59.1918 24.1601,34.8585 30.5,10.5 Z M 81.5,34.5 C 85.4372,35.7554 89.4372,36.9221 93.5,38C 94.428,38.3879 95.0946,39.0546 95.5,40C 93.9465,44.0468 92.9465,48.2135 92.5,52.5C 88.087,52.1474 83.7536,51.3141 79.5,50C 78.572,49.6121 77.9054,48.9454 77.5,48C 78.6076,43.3967 79.9409,38.8967 81.5,34.5 Z"/></g>
</svg>
