<svg width="24" height="24" viewBox="0 0 24 24" fill="none" xmlns="http://www.w3.org/2000/svg">
<path fill-rule="evenodd" clip-rule="evenodd" d="M6.91621 3.38017C5.5732 7.38015 2.91602 16.4217 3.04841 16.542C3.3249 16.7931 15.9409 20.7272 16.5411 20.7495C17.0462 20.7682 17.1569 20.4904 19.0793 14.3769C20.185 10.8612 21.0687 7.8458 21.0431 7.67614C21.0123 7.47137 18.7005 6.65252 14.1712 5.2417C10.4172 4.07247 7.2694 3.1143 7.17644 3.11257C7.08327 3.11083 6.96604 3.23131 6.91621 3.38017ZM16.7935 8.73832C16.6416 9.3316 16.5285 9.89216 16.5426 9.98425C16.5664 10.1413 18.7489 10.9704 18.8353 10.8551C19.065 10.5491 19.5515 8.62391 19.4271 8.51297C19.3044 8.40398 17.2739 7.65967 17.0988 7.65967C17.083 7.65967 16.9456 8.14504 16.7935 8.73832Z" fill="#0EA5E9"/>
</svg>
