<svg width="24" height="24" viewBox="0 0 24 24" fill="none" xmlns="http://www.w3.org/2000/svg">
<mask id="mask0_29540_3122" style="mask-type:luminance" maskUnits="userSpaceOnUse" x="3" y="3" width="18" height="18">
<path d="M21 3H3V21H21V3Z" fill="white"/>
</mask>
<g mask="url(#mask0_29540_3122)">
<path d="M12.0068 21C16.9736 21 21 16.9736 21 12.0068C21 7.04 16.9736 3.01361 12.0068 3.01361C7.04 3.01361 3.01361 7.04 3.01361 12.0068C3.01361 16.9736 7.04 21 12.0068 21Z" fill="#C992FB"/>
<path d="M15.9826 3.93791C14.9902 3.55176 13.9107 3.33989 12.7817 3.33989C7.90504 3.33989 3.95168 7.29326 3.95168 12.17C3.95168 16.9174 7.69829 20.7898 12.396 20.9917C12.267 20.9972 12.1372 21 12.0068 21C7.04001 21 3.01361 16.9736 3.01361 12.0068C3.01361 7.04001 7.04001 3.01361 12.0068 3.01361C13.4341 3.01361 14.7838 3.34612 15.9826 3.93791Z" fill="#E0BEFF"/>
<path d="M9.90636 19.6133C15.1322 19.6133 19.3686 15.3769 19.3686 10.1511C19.3686 8.4052 18.8958 6.76978 18.0712 5.36584C19.871 7.01034 21 9.37671 21 12.0068C21 16.9736 16.9736 21 12.0068 21C9.77731 21 7.7373 20.1887 6.16589 18.8453C7.31319 19.3395 8.57779 19.6133 9.90636 19.6133Z" fill="#6A2F9E"/>
<path d="M9.90636 19.6133C15.1322 19.6133 19.3686 15.3769 19.3686 10.1511C19.3686 8.4052 18.8958 6.76978 18.0712 5.36584C19.871 7.01034 21 9.37671 21 12.0068C21 16.9736 16.9736 21 12.0068 21C9.77731 21 7.7373 20.1887 6.16589 18.8453C7.31319 19.3395 8.57779 19.6133 9.90636 19.6133Z" fill="#6A2F9E"/>
<path d="M9.90636 19.6133C15.1322 19.6133 19.3686 15.3769 19.3686 10.1511C19.3686 8.4052 18.8958 6.76978 18.0712 5.36584C19.871 7.01034 21 9.37671 21 12.0068C21 16.9736 16.9736 21 12.0068 21C9.77731 21 7.7373 20.1887 6.16589 18.8453C7.31319 19.3395 8.57779 19.6133 9.90636 19.6133Z" fill="#A551F2"/>
<path d="M12.1137 14.3662C12.5864 15.1575 13.7055 15.1881 14.2659 14.4796C14.3532 14.3691 14.4413 14.1452 14.5763 14.0673C14.8818 13.8903 15.1591 14.2398 15.0547 14.5245C14.5151 15.9924 12.3319 16.138 11.5631 14.7969C11.4326 14.5693 11.3673 14.1713 11.7115 14.0991C11.9232 14.0546 12.0056 14.1856 12.1137 14.3662Z" fill="#20103F"/>
<path d="M18.349 10.8036C18.349 11.9524 17.4177 12.8837 16.2689 12.8837C15.1201 12.8837 14.1888 11.9524 14.1888 10.8036C14.1888 9.65484 15.1201 8.72357 16.2689 8.72357C17.4177 8.72357 18.349 9.65484 18.349 10.8036Z" fill="#20103F"/>
<path d="M16.9769 11.4136C17.405 11.5728 17.8794 11.3595 18.0365 10.9371C18.1936 10.5148 17.9739 10.0433 17.5458 9.8841C17.1177 9.7249 16.6433 9.93824 16.4862 10.3606C16.3292 10.783 16.5489 11.2544 16.9769 11.4136Z" fill="#FCFCFE"/>
<path d="M11.2523 11.2115C11.2523 12.3603 10.321 13.2915 9.17222 13.2915C8.02343 13.2915 7.09216 12.3603 7.09216 11.2115C7.09216 10.0627 8.02343 9.13141 9.17222 9.13141C10.321 9.13141 11.2523 10.0627 11.2523 11.2115Z" fill="#20103F"/>
<path d="M9.88027 11.8215C10.3084 11.9807 10.7827 11.7674 10.9398 11.345C11.0969 10.9227 10.8772 10.4512 10.4491 10.292C10.021 10.1328 9.54664 10.3461 9.38956 10.7685C9.23249 11.1909 9.45218 11.6623 9.88027 11.8215Z" fill="#FCFCFE"/>
<path d="M18.8384 16.3912C19.0862 16.3912 19.2871 16.1904 19.2871 15.9426C19.2871 15.6948 19.0862 15.494 18.8384 15.494C18.5906 15.494 18.3898 15.6948 18.3898 15.9426C18.3898 16.1904 18.5906 16.3912 18.8384 16.3912Z" fill="#C992FB"/>
<path d="M16.3913 18.3082C16.9093 18.3082 17.3293 17.8882 17.3293 17.3701C17.3293 16.8521 16.9093 16.4321 16.3913 16.4321C15.8732 16.4321 15.4532 16.8521 15.4532 17.3701C15.4532 17.8882 15.8732 18.3082 16.3913 18.3082Z" fill="#20103F"/>
<path d="M14.25 19.3686C14.419 19.3686 14.5559 19.2317 14.5559 19.0627C14.5559 18.8938 14.419 18.7568 14.25 18.7568C14.0811 18.7568 13.9442 18.8938 13.9442 19.0627C13.9442 19.2317 14.0811 19.3686 14.25 19.3686Z" fill="#20103F"/>
<path d="M10.5181 18.4305C10.7884 18.4305 11.0075 18.2114 11.0075 17.9411C11.0075 17.6708 10.7884 17.4517 10.5181 17.4517C10.2478 17.4517 10.0287 17.6708 10.0287 17.9411C10.0287 18.2114 10.2478 18.4305 10.5181 18.4305Z" fill="#20103F"/>
<path d="M8.15258 16.7175C8.82834 16.7175 9.37615 16.1697 9.37615 15.494C9.37615 14.8182 8.82834 14.2704 8.15258 14.2704C7.47682 14.2704 6.92902 14.8182 6.92902 15.494C6.92902 16.1697 7.47682 16.7175 8.15258 16.7175Z" fill="#20103F"/>
<path d="M5.41996 14.1889C5.57764 14.1889 5.70546 14.061 5.70546 13.9034C5.70546 13.7457 5.57764 13.6179 5.41996 13.6179C5.26228 13.6179 5.13446 13.7457 5.13446 13.9034C5.13446 14.061 5.26228 14.1889 5.41996 14.1889Z" fill="#20103F"/>
<path d="M5.9094 10.6405C6.06708 10.6405 6.1949 10.5127 6.1949 10.355C6.1949 10.1973 6.06708 10.0695 5.9094 10.0695C5.75172 10.0695 5.6239 10.1973 5.6239 10.355C5.6239 10.5127 5.75172 10.6405 5.9094 10.6405Z" fill="#20103F"/>
<path d="M10.7425 7.41845C11.2268 7.41845 11.6194 7.02585 11.6194 6.54156C11.6194 6.05727 11.2268 5.66467 10.7425 5.66467C10.2582 5.66467 9.8656 6.05727 9.8656 6.54156C9.8656 7.02585 10.2582 7.41845 10.7425 7.41845Z" fill="#20103F"/>
<path d="M13.781 8.31571C14.0513 8.31571 14.2704 8.09658 14.2704 7.82628C14.2704 7.55598 14.0513 7.33685 13.781 7.33685C13.5107 7.33685 13.2916 7.55598 13.2916 7.82628C13.2916 8.09658 13.5107 8.31571 13.781 8.31571Z" fill="#20103F"/>
<path d="M13.781 6.07253C13.8936 6.07253 13.9849 5.98123 13.9849 5.8686C13.9849 5.75597 13.8936 5.66467 13.781 5.66467C13.6683 5.66467 13.577 5.75597 13.577 5.8686C13.577 5.98123 13.6683 6.07253 13.781 6.07253Z" fill="#20103F"/>
</g>
</svg>
