<svg width="24" height="24" viewBox="0 0 24 24" fill="none" xmlns="http://www.w3.org/2000/svg">
<path fill-rule="evenodd" clip-rule="evenodd" d="M7.32609 4.69568C6.31757 4.69568 5.5 5.51324 5.5 6.52176V17.4783C5.5 18.4868 6.31757 19.3044 7.32609 19.3044H17.6739C18.6824 19.3044 19.5 18.4868 19.5 17.4783V6.52177C19.5 5.51325 18.6824 4.69568 17.6739 4.69568H7.32609ZM13.5119 11.3745L12.8155 14.8156H11.5046L10.8081 11.3745C10.6852 10.8146 10.5214 9.80411 10.4394 9.18956H10.3439C10.3848 9.98161 10.4121 11.1697 10.4121 11.9343V17.178H8.91003V7.48263H11.0266L11.9415 11.866C12.0098 12.2757 12.0918 12.8083 12.1191 13.0951H12.201C12.2283 12.8083 12.3102 12.2757 12.3785 11.866L13.2934 7.48263H15.41V17.178H13.9079V11.9343C13.9079 11.1697 13.9352 9.98161 13.9762 9.18956H13.8806C13.8123 9.80411 13.6348 10.8146 13.5119 11.3745Z" fill="#FBBF24"/>
</svg>
