<svg width="24" height="24" viewBox="0 0 24 24" fill="none" xmlns="http://www.w3.org/2000/svg">
<path d="M11.1385 9.94736C11.6528 8.67519 12.2268 7.4055 12.8426 6.28015C11.9233 5.59725 11.0406 4.12467 10.678 3.47223C10.5477 3.62023 10.4632 3.79071 10.4248 3.92937C10.0832 5.16321 11.2994 6.65313 10.3198 6.10877C9.5036 5.65516 7.66575 4.66179 6.96472 5.64912C7.74985 6.65812 9.80337 9.19669 11.1385 9.94736Z" fill="#DD552C"/>
<path d="M12.8426 6.28015C13.4393 5.18974 14.0752 4.23473 14.7345 3.5467C14.7345 3.5467 14.0769 4.49869 13.1377 6.40176C13.7065 6.55844 15.3264 6.87993 17.5829 6.29697C17.6384 5.88684 17.3627 5.43572 15.9889 5.28469C15.0921 5.1862 17.0654 3.14273 15.6359 2.17629C15.5897 2.14503 15.5443 2.11746 15.4999 2.09277C15.452 2.07556 15.4013 2.0598 15.3473 2.04575C13.6777 1.61 13.4463 4.44157 12.7801 3.83287C11.7034 2.84922 11.0239 3.07904 10.678 3.47224C11.0406 4.12468 11.9233 5.59726 12.8426 6.28015Z" fill="#F79A23"/>
<path d="M9.79572 13.6127C10.1726 12.4834 10.626 11.2147 11.1386 9.94736C9.80347 9.19668 7.74995 6.65811 6.96482 5.64911C6.82465 5.84637 6.72887 6.1215 6.69696 6.49775C6.52574 8.51877 8.61032 10.015 8.19474 10.2883C7.64504 10.6498 6.55095 9.41981 6.11975 10.2013C6.74476 11.0044 8.01788 12.4554 9.79572 13.6127Z" fill="#D22128"/>
<path d="M15.5714 9.25405C14.516 8.87753 16.6744 7.86775 17.3753 6.79652C17.465 6.65954 17.5577 6.48251 17.5828 6.29694C15.3264 6.8799 13.7064 6.55841 13.1376 6.40173C12.6514 7.38709 12.0899 8.6288 11.5044 10.1259C12.1142 10.3868 14.6043 11.3502 18.1214 11.3552C18.7127 9.8147 16.5732 9.61126 15.5714 9.25405Z" fill="#DD552C"/>
<path d="M10.2035 13.8161C10.8237 14.0094 12.8787 14.5869 15.0613 14.4999C15.3545 13.7059 14.2583 13.6284 14.169 12.9916C14.0998 12.4989 17.0538 13.4057 18.0042 11.614C18.0523 11.5234 18.0898 11.4379 18.1215 11.3553C14.6044 11.3503 12.1143 10.3869 11.5045 10.126C11.0766 11.2201 10.6364 12.448 10.2035 13.8161Z" fill="#D22128"/>
<path d="M10.2035 13.816C9.92482 14.6965 9.64988 15.6372 9.383 16.6314C9.28832 16.9839 9.19478 17.3429 9.10254 17.7099C11.174 18.3939 13.0816 17.7114 13.1462 16.8657C13.1467 16.859 13.1455 16.854 13.1459 16.8476C13.1952 15.9518 11.8528 16.4483 11.8846 15.9098C11.9165 15.3672 14.2282 15.9066 14.943 14.7434C14.9979 14.6542 15.0336 14.5751 15.0613 14.4998C12.8788 14.5867 10.8237 14.0093 10.2035 13.816Z" fill="#7C297D"/>
<path d="M6.11969 10.2014C6.08949 10.2561 6.06225 10.3194 6.03901 10.3951C5.63754 11.7001 8.47632 13.4532 8.0901 13.8353C7.74195 14.1797 7.28823 13.3928 6.72874 13.7178C6.66742 13.7535 6.60518 13.7986 6.54131 13.8641C5.90855 14.5125 6.53139 16.3803 8.32663 17.3774C7.90772 18.7842 7.49063 20.3562 7.08234 21.9999C7.23045 21.9481 7.40771 21.8962 7.45183 21.7563C7.51807 21.4841 7.92748 19.8266 8.5922 17.5782C8.5922 17.5782 8.71353 17.1176 8.93563 16.3588C9.14098 15.6571 9.4328 14.7001 9.79566 13.6127C8.01781 12.4555 6.7447 11.0044 6.11969 10.2014Z" fill="#7C297D"/>
</svg>
