<svg width="24" height="24" viewBox="0 0 24 24" fill="none" xmlns="http://www.w3.org/2000/svg">
<path d="M5.6 4H18.4C18.8243 4 19.2313 4.16857 19.5314 4.46863C19.8314 4.76869 20 5.17566 20 5.6V18.4C20 18.8243 19.8314 19.2313 19.5314 19.5314C19.2313 19.8314 18.8243 20 18.4 20H5.6C5.17566 20 4.76869 19.8314 4.46863 19.5314C4.16857 19.2313 4 18.8243 4 18.4V5.6C4 5.17566 4.16857 4.76869 4.46863 4.46863C4.76869 4.16857 5.17566 4 5.6 4ZM7.2 7.2V10.4H10.4V12H8.8V16.8H10.4V15.2H13.6V16.8H15.2V12H13.6V10.4H16.8V7.2H13.6V10.4H10.4V7.2H7.2Z" fill="#22C55E"/>
</svg>
