<svg width="24" height="24" viewBox="0 0 24 24" fill="none" xmlns="http://www.w3.org/2000/svg">
<path d="M14.0296 4.22914C13.049 3.23322 12.2046 2.22174 12.0321 2.01167C12.0139 1.99611 11.9867 1.99611 11.9686 2.01167C11.796 2.22174 10.9517 3.23322 9.97109 4.22914C1.55458 13.418 11.2967 19.6192 11.2967 19.6192L11.3784 19.6658C11.451 20.6228 11.6326 22 11.6326 22H11.9957H12.3589C12.3589 22 12.5406 20.6305 12.6132 19.6658L12.6949 19.6114C12.7039 19.6114 22.4461 13.418 14.0296 4.22914ZM11.9957 19.4791C11.9957 19.4791 11.56 19.1601 11.4419 18.9966V18.9811L11.9686 8.9753C11.9686 8.94417 12.023 8.94417 12.023 8.9753L12.5497 18.9811V18.9966C12.4316 19.1601 11.9957 19.4791 11.9957 19.4791Z" fill="#22C55E"/>
</svg>
