<svg width="24" height="24" viewBox="0 0 24 24" fill="none" xmlns="http://www.w3.org/2000/svg">
<path fill-rule="evenodd" clip-rule="evenodd" d="M13.5986 3C13.4684 3 13.3476 3.02789 13.236 3.06508C13.4731 3.22313 13.6033 3.43231 13.6683 3.66939C13.673 3.70193 13.6823 3.72517 13.6869 3.75771C13.6916 3.7856 13.6962 3.81349 13.6962 3.84138C13.7148 4.25045 13.5893 4.30159 13.501 4.54331C13.3662 4.85476 13.4034 5.18946 13.5661 5.45907C13.58 5.49161 13.5986 5.5288 13.6219 5.56134C13.4452 4.38526 14.426 4.20862 14.6073 3.84138C14.6213 3.52064 14.3563 3.3068 14.1471 3.15805C13.9472 3.03719 13.766 3 13.5986 3ZM15.0768 3.26497C15.0582 3.37188 15.0722 3.34399 15.0675 3.39977C15.0629 3.43696 15.0629 3.48345 15.0583 3.52064C15.049 3.55782 15.0397 3.59501 15.0257 3.6322C15.0164 3.66939 15.0025 3.70658 14.9885 3.74376C14.9699 3.78095 14.956 3.81349 14.9374 3.85068C14.9235 3.86928 14.9142 3.88787 14.9002 3.90646C14.8909 3.92041 14.8816 3.93435 14.8723 3.9483C14.8491 3.98084 14.8258 4.01338 14.8026 4.04127C14.7747 4.06916 14.7515 4.1017 14.7189 4.12495V4.1296C14.691 4.15284 14.6631 4.18073 14.6306 4.20398C14.533 4.27835 14.4214 4.33413 14.3191 4.40386C14.2866 4.4271 14.2541 4.4457 14.2262 4.47359C14.1936 4.49683 14.1657 4.52007 14.1379 4.54797C14.1053 4.57586 14.0821 4.60375 14.0542 4.63629C14.0309 4.66418 14.003 4.69672 13.9844 4.72926C13.9612 4.7618 13.938 4.79434 13.9194 4.82688C13.9008 4.86406 13.8868 4.89661 13.8682 4.93379C13.8543 4.97098 13.8403 5.00352 13.831 5.04071C13.8171 5.08255 13.8078 5.11973 13.7985 5.15692C13.7939 5.17553 13.7939 5.19876 13.7892 5.21735C13.7846 5.23596 13.7846 5.25454 13.7799 5.27314C13.7799 5.31032 13.7753 5.35216 13.7753 5.38935C13.7753 5.41724 13.7753 5.44513 13.7799 5.47302C13.7799 5.51021 13.7846 5.5474 13.7939 5.58924C13.7985 5.62642 13.8078 5.66361 13.8171 5.7008C13.8311 5.73799 13.8404 5.77518 13.8543 5.81236C13.8636 5.83561 13.8775 5.85885 13.8868 5.87744L12.8177 5.46373C12.6364 5.41259 12.4597 5.36611 12.2785 5.32427C12.1808 5.30103 12.0832 5.27778 11.9856 5.25454C11.7067 5.19876 11.4231 5.15692 11.1396 5.12903C11.1303 5.12903 11.1256 5.12438 11.1163 5.12438C10.8374 5.09649 10.5631 5.08254 10.2842 5.08254C10.0797 5.08254 9.87516 5.09183 9.67528 5.10578C9.39172 5.12439 9.10816 5.16157 8.8246 5.20805C8.75487 5.21734 8.68514 5.2313 8.61541 5.24524C8.47131 5.27313 8.33185 5.30567 8.19705 5.33821C8.12732 5.35681 8.05759 5.3754 7.98786 5.39399C7.91814 5.42188 7.85306 5.45442 7.78797 5.48231C7.73684 5.50556 7.68571 5.5288 7.63457 5.55204C7.62528 5.5567 7.61597 5.5567 7.61133 5.56133C7.56485 5.58458 7.52301 5.60317 7.48117 5.62641C7.46723 5.63107 7.45793 5.6357 7.44863 5.64036C7.3975 5.6636 7.34637 5.69149 7.30453 5.71473C7.27199 5.72868 7.23945 5.74727 7.21156 5.76122C7.19761 5.77051 7.17902 5.77982 7.16972 5.78446C7.12789 5.8077 7.08605 5.83095 7.04886 5.85419C7.00702 5.87743 6.96984 5.90067 6.93729 5.92392C6.90476 5.94716 6.87222 5.96575 6.84432 5.989C6.83967 5.99365 6.83503 5.99365 6.83038 5.99829C6.80249 6.01689 6.76995 6.04012 6.74206 6.06337C6.74206 6.06337 6.7374 6.06802 6.73277 6.07266C6.70953 6.09126 6.68628 6.10984 6.66304 6.12844C6.65375 6.13309 6.64444 6.14238 6.63515 6.14704C6.61191 6.16564 6.58866 6.18888 6.56542 6.20747C6.56077 6.21676 6.55148 6.22142 6.54682 6.22607C6.51893 6.25396 6.49104 6.27721 6.46315 6.3051C6.45849 6.3051 6.45849 6.30975 6.45386 6.31439C6.42596 6.33763 6.39807 6.36552 6.37018 6.39341C6.36553 6.39807 6.36553 6.4027 6.36089 6.4027C6.33765 6.42594 6.31441 6.44919 6.29116 6.47708C6.28187 6.48637 6.26792 6.49568 6.25863 6.50497C6.23538 6.53286 6.20749 6.56075 6.1796 6.58864C6.17494 6.59793 6.16566 6.60259 6.161 6.61188C6.12381 6.64907 6.09127 6.68626 6.05408 6.72345C6.04943 6.72811 6.04479 6.73274 6.04014 6.7374C5.96576 6.81642 5.88673 6.89545 5.80306 6.96517C5.71939 7.03955 5.63107 7.10928 5.54274 7.16971C5.44977 7.23479 5.36145 7.29057 5.26383 7.34635C5.17086 7.39748 5.07324 7.44397 4.97098 7.48581C4.87336 7.52765 4.77109 7.56483 4.66882 7.59737C4.47358 7.63921 4.2737 7.71823 4.1017 7.73218C4.06451 7.73218 4.02268 7.74147 3.98549 7.74612C3.94365 7.75541 3.90646 7.76473 3.86928 7.77402C3.83209 7.78796 3.7949 7.80191 3.75771 7.81585C3.72052 7.8298 3.68333 7.84839 3.64615 7.86699C3.61361 7.89023 3.57642 7.90882 3.54388 7.93207C3.51134 7.95531 3.4788 7.9832 3.45091 8.01109C3.41837 8.03434 3.38583 8.06687 3.35794 8.09476C3.33004 8.12731 3.30215 8.1552 3.27891 8.18773C3.25567 8.22492 3.22778 8.25746 3.20918 8.29465C3.18594 8.32719 3.1627 8.36438 3.1441 8.40157C3.1255 8.44341 3.10692 8.48059 3.09297 8.52243C3.07902 8.55962 3.06508 8.60145 3.05113 8.64329C3.04184 8.68048 3.03253 8.71767 3.02789 8.75485C3.02789 8.75952 3.02324 8.76415 3.02324 8.7688C3.01395 8.81064 3.01395 8.86642 3.00929 8.89431C3.00463 8.92685 3 8.95474 3 8.98728C3 9.00589 3 9.02912 3.00466 9.04771C3.00931 9.08026 3.01395 9.10815 3.02326 9.13604C3.03255 9.16393 3.04186 9.19182 3.0558 9.21971V9.22437C3.06974 9.25226 3.08834 9.28015 3.10693 9.30804C3.12553 9.33593 3.14412 9.36382 3.16736 9.39171C3.1906 9.41496 3.21849 9.44285 3.24639 9.46609C3.27428 9.49398 3.30217 9.51722 3.33471 9.54046C3.44627 9.63808 3.47416 9.67063 3.61827 9.745C3.64151 9.75895 3.66475 9.76824 3.69265 9.78219C3.6973 9.78219 3.70194 9.78684 3.70659 9.78684C3.70659 9.79613 3.70659 9.80079 3.71125 9.81009C3.7159 9.84728 3.72519 9.88446 3.73449 9.92165C3.74378 9.96349 3.75773 10.0007 3.77168 10.0332C3.78563 10.0611 3.79492 10.089 3.80887 10.1169C3.81352 10.1262 3.81816 10.1355 3.82281 10.1401C3.84141 10.1773 3.86 10.2099 3.87859 10.2424C3.90184 10.2749 3.92508 10.3075 3.94832 10.34C3.97156 10.3679 3.99946 10.4005 4.02735 10.4283C4.05524 10.4562 4.08313 10.4795 4.11567 10.5074C4.11567 10.5074 4.12033 10.512 4.12496 10.512C4.15285 10.5353 4.18074 10.5585 4.20863 10.5771C4.24117 10.6003 4.27371 10.6189 4.3109 10.6375C4.34344 10.6561 4.38063 10.6747 4.41782 10.6887C4.44571 10.7026 4.47825 10.7119 4.51079 10.7212C4.51544 10.7259 4.52008 10.7259 4.52939 10.7305C4.54799 10.7352 4.57122 10.7398 4.58982 10.7444C4.57587 10.9955 4.57122 11.2325 4.60842 11.3162C4.65026 11.4092 4.85479 11.1256 5.05933 10.8002C5.03144 11.121 5.01284 11.4975 5.05933 11.6091C5.11046 11.7253 5.38937 11.3627 5.6311 10.9629C8.9269 10.2006 11.9345 12.4783 12.2506 15.6951C12.1902 15.1931 11.5719 14.9142 11.2884 14.9839C11.1489 15.3279 10.9118 15.7695 10.5306 16.0438C10.5632 15.737 10.5492 15.4209 10.4842 15.1141C10.3819 15.5417 10.182 15.9415 9.90774 16.2855C9.46613 16.318 9.02452 16.1042 8.79209 15.7835C8.77349 15.7695 8.76885 15.7416 8.75491 15.723C8.74096 15.6905 8.72701 15.6579 8.71772 15.6254C8.70377 15.5929 8.69448 15.5603 8.68983 15.5278C8.68517 15.4952 8.68517 15.4627 8.68517 15.4255C8.68517 15.4023 8.68517 15.379 8.68517 15.3558C8.68983 15.3232 8.69912 15.2907 8.70841 15.2582C8.7177 15.2256 8.72701 15.1931 8.74095 15.1605C8.75955 15.128 8.77349 15.0955 8.79674 15.0629C8.87576 14.8398 8.87576 14.6585 8.73166 14.5516C8.70376 14.533 8.67587 14.5191 8.64333 14.5051C8.62473 14.5005 8.6015 14.4912 8.5829 14.4865C8.56896 14.4818 8.55966 14.4772 8.54572 14.4726C8.51317 14.4633 8.48063 14.454 8.4481 14.4493C8.41555 14.44 8.38302 14.4354 8.35048 14.4354C8.31794 14.4307 8.28075 14.4261 8.24821 14.4261C8.22497 14.4261 8.20172 14.4307 8.17848 14.4307C8.14129 14.4307 8.10875 14.4354 8.07621 14.4447C8.04367 14.4493 8.01113 14.454 7.97859 14.4633C7.94606 14.4726 7.91351 14.4819 7.88097 14.4958C7.84844 14.5098 7.82054 14.5237 7.788 14.5377C7.76011 14.5516 7.73222 14.5702 7.69968 14.5841C6.61657 15.2907 7.26272 16.9456 8.00184 17.4244C7.72292 17.4755 7.43937 17.536 7.36034 17.5964C7.35568 17.601 7.35105 17.6057 7.35105 17.6057C7.55094 17.7265 7.76012 17.8288 7.9786 17.9171C8.27611 18.0147 8.59221 18.1031 8.73166 18.1403V18.1449C9.11749 18.2239 9.50797 18.2518 9.90309 18.2286C11.9624 18.0845 13.6498 16.5179 13.9566 14.454C13.9659 14.4958 13.9752 14.533 13.9845 14.5748C13.9984 14.6585 14.017 14.7468 14.0263 14.8352V14.8398C14.0356 14.8817 14.0403 14.9235 14.0449 14.9607V14.9793C14.0496 15.0211 14.0542 15.063 14.0542 15.1001C14.0589 15.1513 14.0635 15.2024 14.0635 15.2536V15.3279C14.0635 15.3512 14.0682 15.3791 14.0682 15.4023C14.0682 15.4302 14.0635 15.4581 14.0635 15.486V15.5511C14.0635 15.5836 14.0589 15.6115 14.0589 15.644C14.0589 15.6626 14.0589 15.6812 14.0542 15.7045C14.0542 15.737 14.0495 15.7695 14.0495 15.8067C14.0449 15.8207 14.0449 15.8346 14.0449 15.8486C14.0402 15.8857 14.0356 15.9183 14.0309 15.9555C14.0309 15.9694 14.0309 15.9834 14.0263 15.9973C14.0216 16.0438 14.0123 16.0856 14.0077 16.1321V16.1368V16.1414C13.9984 16.1833 13.9891 16.2298 13.9798 16.2716V16.2855C13.9705 16.3274 13.9612 16.3692 13.9519 16.411C13.9519 16.4157 13.9472 16.425 13.9472 16.4296C13.938 16.4715 13.9286 16.5133 13.9147 16.5552V16.5691C13.9008 16.6156 13.8868 16.6574 13.8775 16.6993C13.8729 16.7039 13.8729 16.7086 13.8729 16.7086C13.8589 16.755 13.845 16.8015 13.831 16.848C13.8124 16.8945 13.7985 16.9363 13.7799 16.9828C13.7613 17.0293 13.7474 17.0758 13.7288 17.1176C13.7102 17.1641 13.6916 17.206 13.673 17.2524H13.6683C13.6497 17.2943 13.6311 17.3408 13.6079 17.3826C13.6032 17.3965 13.5986 17.4058 13.5939 17.4151C13.5893 17.4198 13.5893 17.4244 13.5847 17.4291C13.2825 18.038 12.8362 18.5726 12.2784 18.991C12.2412 19.0142 12.204 19.0421 12.1669 19.07C12.1576 19.0793 12.1436 19.084 12.1343 19.0932C12.1018 19.1165 12.0692 19.1397 12.032 19.163L12.046 19.1909H12.0506C12.1157 19.1816 12.1808 19.1723 12.2459 19.163H12.2505C12.3714 19.1444 12.4923 19.1211 12.6131 19.0979C12.6457 19.0932 12.6829 19.084 12.7154 19.0747C12.7386 19.07 12.7572 19.0654 12.7805 19.0607C12.813 19.056 12.8455 19.0468 12.8781 19.0421C12.906 19.0328 12.9339 19.0282 12.9618 19.0189C13.4266 18.9073 13.8775 18.7539 14.3098 18.5726C13.5707 19.5813 12.5806 20.3948 11.4231 20.9294C11.9577 20.8922 12.4923 20.8039 13.0082 20.6551C14.8816 20.102 16.4575 18.8422 17.4011 17.1455C17.2105 18.2193 16.7829 19.242 16.1507 20.1345C16.6016 19.837 17.0153 19.493 17.3918 19.1025C18.4331 18.0148 19.1164 16.6342 19.3488 15.1513C19.5069 15.8858 19.5534 16.6435 19.4836 17.3919C22.8399 12.7108 19.7626 7.85775 18.4749 6.57941C18.4703 6.57012 18.4656 6.56546 18.4656 6.55616C18.461 6.56082 18.461 6.56082 18.461 6.56545C18.461 6.5608 18.461 6.5608 18.4563 6.55616C18.4563 6.61195 18.4517 6.66773 18.447 6.72351C18.4331 6.83043 18.4191 6.93269 18.4005 7.03496C18.3773 7.13723 18.3494 7.2395 18.3215 7.34176C18.289 7.43938 18.2518 7.54165 18.2099 7.63927C18.1681 7.73224 18.1216 7.82986 18.0705 7.92283C18.0194 8.01115 17.9636 8.10412 17.9031 8.1878C17.8427 8.27612 17.7776 8.35979 17.7126 8.43882C17.6428 8.52249 17.5684 8.59687 17.4941 8.67124C17.4476 8.71308 17.4057 8.75027 17.3593 8.78745C17.3221 8.82 17.2895 8.84789 17.2523 8.88043C17.1687 8.94551 17.085 9.00594 16.992 9.06172C16.9037 9.1175 16.8107 9.17328 16.7178 9.21977C16.6201 9.26626 16.5225 9.30809 16.4249 9.34993C16.3273 9.38711 16.225 9.41966 16.1228 9.44755C16.0205 9.47544 15.9136 9.49868 15.8113 9.51727C15.7044 9.53588 15.5975 9.54517 15.4952 9.55446C15.4208 9.55912 15.3465 9.56375 15.2721 9.56375C15.1652 9.56375 15.0582 9.55446 14.956 9.54515C14.8491 9.53586 14.7421 9.52191 14.6399 9.49867C14.533 9.48006 14.4307 9.45218 14.3284 9.41964H14.3238C14.426 9.41035 14.5283 9.40104 14.6306 9.38245C14.7375 9.36385 14.8398 9.34062 14.942 9.31272C15.0443 9.28483 15.1466 9.25229 15.2442 9.21511C15.3464 9.17792 15.4441 9.13143 15.537 9.08495C15.6347 9.03846 15.723 8.98733 15.8159 8.93155C15.9043 8.87111 15.9926 8.81068 16.0763 8.7456C16.1599 8.68053 16.239 8.6108 16.3133 8.53642C16.3924 8.46669 16.4621 8.38767 16.5318 8.30864C16.6015 8.22497 16.6666 8.1413 16.7271 8.05762C16.7363 8.04368 16.7457 8.02508 16.755 8.01114C16.8014 7.93676 16.8479 7.86238 16.8898 7.78801C16.9409 7.69504 16.9874 7.60207 17.0292 7.50445C17.071 7.40683 17.1082 7.30921 17.1408 7.20694C17.1733 7.10932 17.1966 7.00706 17.2198 6.90479C17.2384 6.79787 17.257 6.6956 17.2663 6.59334C17.2756 6.48642 17.2849 6.3795 17.2849 6.27724C17.2849 6.20286 17.2802 6.12848 17.2756 6.05411C17.2663 5.94719 17.2524 5.84492 17.2384 5.74266C17.2198 5.63574 17.1966 5.53347 17.1687 5.4312C17.1361 5.33359 17.1036 5.23132 17.0664 5.1337C17.0292 5.03608 16.9827 4.93846 16.9363 4.84549C16.8851 4.75252 16.834 4.65955 16.7782 4.57123C16.7178 4.48291 16.6573 4.39923 16.5923 4.31556C16.5225 4.23653 16.4528 4.15751 16.3784 4.07848C16.3412 4.0413 16.2994 3.99946 16.2576 3.96227C16.0484 3.79957 15.8299 3.64617 15.6114 3.50672C15.5789 3.48811 15.551 3.47418 15.5185 3.46023C15.3651 3.36261 15.2209 3.31145 15.0768 3.26497Z" fill="#FBBF24"/>
</svg>
