<svg width="24" height="24" viewBox="0 0 24 24" fill="none" xmlns="http://www.w3.org/2000/svg">
<path d="M16.2699 9.09031L16.263 9.08734C16.259 9.08585 16.255 9.08436 16.2516 9.08089C16.2459 9.07477 16.2417 9.06743 16.2393 9.05944C16.2369 9.05144 16.2363 9.04299 16.2377 9.03475L16.6211 6.69032L18.4194 8.48907L16.5492 9.28477C16.544 9.28687 16.5384 9.28788 16.5328 9.28775H16.5254C16.5229 9.28626 16.5204 9.28428 16.5155 9.27931C16.4459 9.20182 16.3627 9.13776 16.2699 9.09031ZM18.8783 8.94744L20.801 10.8702C21.2004 11.27 21.4003 11.4695 21.4732 11.7006C21.4841 11.7349 21.4931 11.7691 21.5 11.8043L16.9049 9.85823C16.9024 9.85721 16.8999 9.85622 16.8975 9.85525C16.8791 9.84781 16.8578 9.83938 16.8578 9.82053C16.8578 9.80168 16.8796 9.79275 16.898 9.78531L16.9039 9.78283L18.8783 8.94744ZM21.4216 12.4214C21.3224 12.6079 21.1289 12.8014 20.8015 13.1293L18.6337 15.2967L15.8299 14.7128L15.815 14.7098C15.7902 14.7058 15.7639 14.7014 15.7639 14.679C15.7533 14.5634 15.7189 14.4511 15.663 14.3493C15.6071 14.2475 15.5309 14.1583 15.439 14.0872C15.4276 14.0758 15.4306 14.058 15.434 14.0416C15.434 14.0391 15.4341 14.0366 15.435 14.0346L15.9624 10.7973L15.9643 10.7864C15.9673 10.7616 15.9718 10.7328 15.9941 10.7328C16.1071 10.7187 16.2162 10.6823 16.315 10.6257C16.4138 10.5691 16.5003 10.4933 16.5696 10.4029C16.574 10.398 16.577 10.3925 16.5829 10.3895C16.5988 10.3821 16.6177 10.3895 16.634 10.3965L21.4216 12.4214ZM18.1352 15.7952L14.5704 19.36L15.1806 15.6097L15.1816 15.6047C15.182 15.5998 15.183 15.5948 15.1845 15.5903C15.1895 15.5784 15.2024 15.5735 15.2148 15.5685L15.2207 15.566C15.3543 15.509 15.4725 15.4211 15.5655 15.3095C15.5774 15.2957 15.5918 15.2823 15.6102 15.2798C15.6149 15.279 15.6198 15.279 15.6245 15.2798L18.1347 15.7957L18.1352 15.7952ZM13.8159 20.1145L13.4141 20.5163L8.97174 14.0962C8.97013 14.0938 8.96848 14.0915 8.96678 14.0892C8.95983 14.0798 8.95239 14.0704 8.95388 14.0595C8.95388 14.0515 8.95934 14.0446 8.96479 14.0386L8.96975 14.0322C8.98315 14.0123 8.99456 13.9925 9.00696 13.9712L9.01688 13.9538L9.01837 13.9523C9.02531 13.9404 9.03176 13.929 9.04367 13.9225C9.05409 13.9176 9.06847 13.9196 9.07988 13.922L14.0014 14.937C14.0152 14.9391 14.0281 14.9448 14.0391 14.9534C14.0455 14.9598 14.047 14.9668 14.0485 14.9747C14.0829 15.1046 14.1467 15.2248 14.2352 15.3259C14.3237 15.427 14.4343 15.5063 14.5585 15.5576C14.5724 15.5645 14.5664 15.5799 14.56 15.5963C14.5568 15.6035 14.5543 15.6109 14.5525 15.6186C14.4905 15.9956 13.9587 19.2389 13.8159 20.1145ZM12.9765 20.9533C12.6804 21.2465 12.5057 21.4018 12.3083 21.4643C12.1136 21.5259 11.9047 21.5259 11.71 21.4643C11.4789 21.3909 11.279 21.1915 10.8796 20.7916L6.41846 16.3305L7.58373 14.5233C7.58919 14.5143 7.59465 14.5064 7.60357 14.5C7.61598 14.491 7.63383 14.495 7.64872 14.5C7.91618 14.5807 8.20335 14.5661 8.46128 14.4588C8.47467 14.4538 8.48807 14.4504 8.49849 14.4598C8.5037 14.4645 8.50835 14.4699 8.51238 14.4757L12.9765 20.9533ZM5.98837 15.9004L4.96498 14.877L6.98597 14.0148C6.99113 14.0126 6.9967 14.0114 7.00234 14.0113C7.0192 14.0113 7.02912 14.0282 7.03805 14.0436C7.05836 14.0748 7.07988 14.1053 7.10254 14.1349L7.10899 14.1428C7.11494 14.1512 7.11098 14.1597 7.10502 14.1676L5.98837 15.9004ZM4.51206 14.4241L3.21732 13.1293C2.99706 12.9091 2.83733 12.7493 2.72621 12.6119L6.66302 13.4284C6.66797 13.4294 6.67293 13.4302 6.67791 13.4309C6.70221 13.4349 6.729 13.4394 6.729 13.4622C6.729 13.487 6.69973 13.4984 6.67493 13.5078L6.66352 13.5128L4.51206 14.4241ZM2.5 11.9462C2.50449 11.8628 2.51949 11.7803 2.54465 11.7006C2.61806 11.4695 2.81749 11.27 3.21732 10.8702L4.87419 9.21334C5.63707 10.3205 6.40201 11.4263 7.16902 12.5306C7.18241 12.5484 7.19729 12.5683 7.18191 12.5831C7.10949 12.663 7.03706 12.7503 6.98597 12.8451C6.98042 12.8573 6.97189 12.8678 6.96116 12.8758C6.95471 12.8798 6.94777 12.8783 6.94033 12.8768H6.93934L2.5 11.9462ZM5.31768 8.76985L7.54454 6.542C7.75438 6.63377 8.51684 6.95572 9.19795 7.24344C9.71386 7.46171 10.1841 7.66014 10.332 7.72463C10.3468 7.73058 10.3602 7.73653 10.3667 7.75142C10.3707 7.76035 10.3687 7.77176 10.3667 7.78118C10.3314 7.942 10.3367 8.10905 10.382 8.26734C10.4272 8.42562 10.5111 8.57017 10.6261 8.688C10.641 8.70288 10.6261 8.72421 10.6132 8.74257L10.6063 8.75298L8.34421 12.2567C8.33826 12.2667 8.3328 12.2751 8.32288 12.2815C8.31097 12.289 8.2941 12.2855 8.28021 12.282C8.19223 12.259 8.10179 12.2467 8.01085 12.2453C7.92949 12.2453 7.84119 12.2602 7.7519 12.2766H7.7514C7.74148 12.2781 7.73255 12.28 7.72462 12.2741C7.71585 12.2669 7.70831 12.2584 7.70229 12.2488L5.31768 8.76985ZM7.99547 6.09206L10.8796 3.20791C11.279 2.80857 11.4789 2.60865 11.71 2.53573C11.9047 2.47417 12.1136 2.47417 12.3083 2.53573C12.5395 2.60865 12.7394 2.80857 13.1387 3.20791L13.7638 3.83296L11.7125 7.00979C11.7075 7.01904 11.7005 7.02715 11.6922 7.0336C11.6798 7.04204 11.6624 7.03856 11.6475 7.0336C11.4858 6.98452 11.3146 6.97559 11.1486 7.00757C10.9827 7.03955 10.827 7.11149 10.6951 7.21715C10.6817 7.23104 10.6619 7.2231 10.645 7.21566C10.3771 7.09908 8.29361 6.21856 7.99547 6.09206ZM14.1993 4.26851L16.0933 6.1625L15.6369 8.98911V8.99655C15.6365 9.003 15.6352 9.00935 15.633 9.01541C15.628 9.02533 15.6181 9.02731 15.6082 9.03029C15.5106 9.05984 15.4187 9.10563 15.3363 9.16571C15.3328 9.16824 15.3295 9.17106 15.3264 9.17415C15.3209 9.1801 15.3155 9.18556 15.3066 9.18655C15.2993 9.18677 15.292 9.18559 15.2852 9.18308L12.3991 7.95679L12.3936 7.95431C12.3753 7.94687 12.3535 7.93794 12.3535 7.91909C12.3365 7.75826 12.284 7.60321 12.1997 7.46518C12.1858 7.44237 12.1704 7.41855 12.1823 7.39524L14.1993 4.26851ZM12.2488 8.53769L14.9544 9.68361C14.9692 9.69056 14.9856 9.69701 14.9921 9.71238C14.9946 9.72163 14.9946 9.73141 14.9921 9.74066C14.9841 9.78035 14.9772 9.82549 14.9772 9.87113V9.94703C14.9772 9.96588 14.9578 9.97381 14.94 9.98125L14.9345 9.98324C14.5059 10.1663 8.91717 12.5494 8.90874 12.5494C8.9003 12.5494 8.89137 12.5494 8.88294 12.541C8.86806 12.5261 8.88294 12.5053 8.89633 12.4864C8.8987 12.4831 8.90102 12.4798 8.90328 12.4765L11.1267 9.03376L11.1306 9.02781C11.1435 9.00697 11.1584 8.98366 11.1822 8.98366L11.2046 8.98713C11.2552 8.99407 11.2998 9.00052 11.3449 9.00052C11.6823 9.00052 11.9948 8.83632 12.1833 8.55555C12.1878 8.54805 12.1935 8.54135 12.2002 8.53571C12.2136 8.52578 12.2334 8.53074 12.2488 8.53769ZM9.15032 13.0941L15.2421 10.4962C15.2421 10.4962 15.251 10.4962 15.2594 10.5046C15.2927 10.5378 15.3209 10.5602 15.3482 10.581L15.3616 10.5894C15.374 10.5964 15.3864 10.6043 15.3874 10.6172C15.3874 10.6222 15.3874 10.6252 15.3864 10.6296L14.8646 13.8352L14.8626 13.8481C14.8591 13.8729 14.8556 13.9012 14.8323 13.9012C14.6932 13.9106 14.5584 13.9538 14.4398 14.027C14.3211 14.1002 14.222 14.2012 14.1512 14.3214L14.1487 14.3253C14.1418 14.3368 14.1353 14.3477 14.1239 14.3536C14.1135 14.3586 14.1001 14.3566 14.0892 14.3541L9.23118 13.3521C9.22622 13.3511 9.15578 13.0946 9.15032 13.0941Z" fill="#2DD4BF"/>
</svg>
