<svg width="24" height="24" viewBox="0 0 24 24" fill="none" xmlns="http://www.w3.org/2000/svg">
<g clip-path="url(#clip0_21023_651)">
<path d="M7.31682 18.4893H7.12567L6.16992 17.5336V17.3424L7.63541 15.877H8.65488L8.79824 16.0203V17.0398L7.31682 18.4893Z" fill="#2DD4BF"/>
<path d="M6.16992 7.60967V7.41852L7.12567 6.46277H7.31682L8.78231 7.92826V8.94772L8.65488 9.07516H7.63541L6.16992 7.60967Z" fill="#2DD4BF"/>
<path d="M14.6283 15.3831H13.2266L13.1151 15.2716V11.9902C13.1151 11.4008 12.8921 10.9548 12.1912 10.9389C11.8248 10.923 11.4106 10.9389 10.9805 10.9548L10.9168 11.0185V15.2557L10.8053 15.3672H9.40356L9.29205 15.2557V9.68047L9.40356 9.56897H12.5575C13.7841 9.56897 14.7717 10.5566 14.7717 11.7831V15.2716L14.6283 15.3831Z" fill="#0F766E"/>
<path d="M7.50795 13.2805H1.9168L1.8053 13.169V11.7672L1.9168 11.6557H7.50795L7.61946 11.7672V13.169L7.50795 13.2805Z" fill="#2DD4BF"/>
<path d="M22.0831 13.2805H16.492L16.3805 13.169V11.7672L16.492 11.6557H22.0831L22.1947 11.7672V13.169L22.0831 13.2805Z" fill="#2DD4BF"/>
<path d="M11.1876 7.81675V3.61144L11.3151 3.49994H12.7168L12.8283 3.61144V7.80082L12.7168 7.91233H11.3151L11.1876 7.81675Z" fill="#2DD4BF"/>
<path d="M11.1876 21.3247V17.1353L11.2991 17.0238H12.7009L12.8124 17.1353V21.3247L12.7009 21.4362H11.2991L11.1876 21.3247Z" fill="#2DD4BF"/>
</g>
<defs>
<clipPath id="clip0_21023_651">
<rect width="20.3894" height="18" fill="white" transform="translate(1.8053 3.49994)"/>
</clipPath>
</defs>
</svg>
