<svg width="24" height="24" viewBox="0 0 24 24" fill="none" xmlns="http://www.w3.org/2000/svg">
<path fill-rule="evenodd" clip-rule="evenodd" d="M19.576 21.7751L17.3725 18.435L11.8541 10.07C10.0341 7.31667 8.51164 5.03001 8.47081 4.98334C8.32497 4.82584 8.23164 4.80251 7.67747 4.80251C7.20497 4.80251 7.15831 4.80834 7.04747 4.86084C6.98331 4.90167 6.88997 4.97167 6.84331 5.03001L6.76164 5.14084L6.74997 10.6242L6.74414 16.1192L6.80247 16.2358C6.8441 16.3168 6.90651 16.3853 6.98331 16.4342L7.11164 16.5217H7.58414C7.99831 16.5217 8.07414 16.51 8.16164 16.4633C8.27011 16.4138 8.35709 16.3268 8.40664 16.2183C8.45283 16.126 8.4533 15.965 8.46462 12.139L8.46497 12.0183C8.47081 9.76667 8.48247 7.92334 8.49414 7.92334C9.4439 9.30189 10.385 10.6864 11.3175 12.0767L14.1233 16.2242L16.3633 19.2517C17.5883 20.9083 18.6208 22.2908 18.6383 22.3083C18.6449 22.3128 18.6484 22.3178 18.6481 22.3239M16.9845 4.60829C16.9365 4.55323 16.878 4.50821 16.8125 4.47584C16.725 4.42334 16.655 4.42334 16.2466 4.42334C15.815 4.42334 15.78 4.42334 15.6633 4.48167C15.5978 4.51816 15.5403 4.56742 15.4942 4.62654C15.4481 4.68566 15.4144 4.75343 15.395 4.82584C15.3775 4.89001 15.3658 6.19084 15.3658 8.50084V12.0825L16.235 13.4125L17.11 14.7425V9.81917C17.1158 6.38917 17.11 4.86667 17.0925 4.79667C17.0693 4.72737 17.0326 4.66335 16.9845 4.60829Z" fill="black"/>
</svg>
