<svg width="24" height="24" viewBox="0 0 24 24" fill="none" xmlns="http://www.w3.org/2000/svg">
<path d="M20.417 11.4092C20.4127 11.4193 19.4027 13.7915 18.6533 15.4805C15.4796 19.4304 8.19955 19.1685 5.34863 15.4072C4.67584 13.7773 3.70703 11.4316 3.70703 11.4316C4.56242 12.4732 5.37373 13.2349 6.58008 13.8789C7.17799 14.1582 8.49805 14.3701 8.49805 14.3701L12.0312 12.5859L15.5439 14.4062C15.5597 14.404 16.8855 14.2123 17.4619 13.8965C18.278 13.4479 19.6028 12.6153 20.417 11.4092ZM12.0713 6C12.0713 6 12.7205 6.5913 13.3662 7.12207C14.3148 7.07033 15.4426 7.27906 16.375 7.45117C17.0651 6.968 17.6611 6.52539 17.6611 6.52539C17.6697 6.53996 18.1663 7.3856 18.5088 8.0127C18.873 8.23235 19.5143 8.68744 19.7861 8.9834C20.2415 8.80976 20.9434 8.57431 21 8.55566C20.4838 9.91544 19.9735 11.3885 18.6611 12.0732C16.6301 9.23802 7.38256 8.94817 5.39258 12.0908C4.14291 11.2611 3.68343 9.88045 3 8.50195C3.01953 8.51021 3.61768 8.76088 4.13379 8.96582C4.57748 8.57339 5.07546 8.27641 5.57129 8.0127C5.90566 7.47589 6.4375 6.56055 6.4375 6.56055C6.4375 6.56055 7.05954 7.0563 7.76758 7.50488C8.53628 7.22532 9.95539 7.06296 10.6787 7.08594C11.3779 6.54762 12.0638 6.00591 12.0713 6Z" fill="#FBBF24"/>
</svg>
