<svg width="24" height="24" viewBox="0 0 24 24" fill="none" xmlns="http://www.w3.org/2000/svg">
<path d="M8.12667 3L6.99 3.00167L6.43333 3.965L7.73083 6.22583L5.11667 6.21917L4.01667 8.16917H13.7583L12.6308 6.22583L9.97083 6.22083L8.12583 3H8.12667ZM13.2725 3L11.0333 3.02083L15.905 11.46L17.0225 9.51L15.6975 7.20583L17.5642 3.9975L16.995 3.0125H15.8817L14.5733 5.26667L13.2725 3ZM19.0117 6.49583L14.14 14.9333L16.3867 14.9267L17.7208 12.6267L21.4317 12.64L22 11.6542L21.445 10.69L18.8367 10.6833L20.1483 8.42333L19.0117 6.49583ZM9.86 8.41167L7.61333 8.41833L6.27917 10.7183L2.56833 10.705L2 11.69L2.555 12.6542L5.16333 12.6608L3.85083 14.9192L4.98833 16.8483L9.86 8.41167ZM8.10833 11.8817L8.10333 11.89L8.10167 11.8867L6.98333 13.8367L8.30833 16.1408L6.44167 19.3492L7.01167 20.3342H8.125L8.12833 20.3292L9.435 18.0808L10.7333 20.3475L12.9733 20.3258L12.97 20.3208H12.9783L8.10833 11.8817ZM10.2333 15.1567L11.3617 17.1L14.0217 17.105L15.8675 20.3258L17.0033 20.3242L17.56 19.3608L16.2625 17.1L18.8767 17.1067L19.9767 15.1567H10.2333Z" fill="#60A5FA"/>
</svg>
