<svg width="24" height="24" viewBox="0 0 24 24" fill="none" xmlns="http://www.w3.org/2000/svg">
<path fill-rule="evenodd" clip-rule="evenodd" d="M11.2348 21.7945C11.4696 21.9297 11.7356 22 12.0034 22L12.0027 21.9961C12.2737 21.9968 12.5401 21.9259 12.775 21.7907L20.1019 17.5586C20.5752 17.2834 20.8705 16.7716 20.8705 16.2231V7.76619C20.8704 7.49581 20.7993 7.2302 20.6644 6.99586C20.5296 6.76152 20.3356 6.56666 20.1019 6.4307L12.775 2.19675C12.3146 1.93442 11.6982 1.93442 11.2341 2.19675L3.89804 6.42886C3.42291 6.70036 3.12939 7.21401 3.12939 7.76435V16.2212C3.12958 16.4919 3.20064 16.7577 3.33549 16.9923C3.47035 17.227 3.6643 17.4222 3.89804 17.5586L5.82056 18.6666C6.75247 19.1252 7.08634 19.1252 7.5101 19.1252C8.88779 19.1252 9.68028 18.2905 9.68028 16.8376V8.48713C9.68028 8.36789 9.58488 8.27617 9.46931 8.27617H8.54107C8.42183 8.27617 8.32828 8.36789 8.32828 8.48713V16.834C8.32828 17.4797 7.66236 18.1218 6.57269 17.5769L4.56578 16.4175C4.49607 16.379 4.45205 16.302 4.45205 16.2212V7.76435C4.45205 7.68364 4.49717 7.60475 4.56817 7.5644L11.8925 3.33779C11.9603 3.29743 12.0502 3.29743 12.1181 3.33779L19.4439 7.5644C19.5132 7.60659 19.5572 7.6818 19.5572 7.76619V16.2231C19.5572 16.3038 19.5132 16.3827 19.4453 16.4212L12.1166 20.6515C12.0537 20.6882 11.9574 20.6882 11.8895 20.6515L10.0099 19.5361C9.95398 19.5031 9.88244 19.4921 9.82777 19.5233C9.3077 19.8186 9.20882 19.8572 8.72159 20.0278C8.60106 20.0694 8.42275 20.1417 8.78818 20.346L11.2348 21.7945ZM10.3882 13.4661C10.3882 14.7007 11.0605 16.1726 14.2672 16.1726L14.2565 16.1813C16.5789 16.1813 17.9108 15.2659 17.9108 13.6699C17.9108 12.0867 16.8413 11.6648 14.5886 11.3658C12.3138 11.0649 12.0827 10.909 12.0827 10.3752C12.0827 9.93489 12.279 9.34786 13.9648 9.34786C15.4709 9.34786 16.0249 9.67256 16.2542 10.687C16.2744 10.7824 16.3606 10.8521 16.4597 10.8521H17.4118C17.4413 10.8521 17.4705 10.846 17.4976 10.8341C17.5246 10.8223 17.5489 10.8049 17.5689 10.7832C17.5889 10.7615 17.6042 10.7359 17.6137 10.7079C17.6233 10.68 17.627 10.6504 17.6246 10.621C17.4778 8.8709 16.3148 8.0564 13.9685 8.0564C11.879 8.0564 10.6316 8.93694 10.6316 10.4155C10.6316 12.0207 11.8717 12.4628 13.8786 12.6609C16.2781 12.8957 16.4652 13.2461 16.4652 13.7176C16.4652 14.5367 15.8085 14.8856 14.2638 14.8856C12.3248 14.8856 11.8992 14.3991 11.7561 13.4345C11.7396 13.3312 11.6516 13.2551 11.547 13.2551H10.6004C10.4828 13.2551 10.3882 13.3487 10.3882 13.4661Z" fill="#2DD4BF"/>
</svg>
