<svg width="24" height="24" viewBox="0 0 24 24" fill="none" xmlns="http://www.w3.org/2000/svg">
<path fill-rule="evenodd" clip-rule="evenodd" d="M11.3113 20.8151C11.5227 20.9368 11.7621 21 12.0031 21L12.0025 20.9965C12.2464 20.9971 12.4862 20.9333 12.6975 20.8116L19.2917 17.0027C19.7177 16.7551 19.9835 16.2944 19.9835 15.8008V8.18957C19.9834 7.94623 19.9194 7.70718 19.798 7.49628C19.6766 7.28537 19.5021 7.10999 19.2917 6.98763L12.6975 3.17707C12.2831 2.94098 11.7284 2.94098 11.3107 3.17707L4.70826 6.98597C4.28064 7.23033 4.01648 7.69261 4.01648 8.18792V15.7991C4.01665 16.0427 4.0806 16.2819 4.20197 16.4931C4.32334 16.7043 4.49789 16.88 4.70826 17.0027L6.43853 17.9999C7.27724 18.4127 7.57773 18.4127 7.95912 18.4127C9.19903 18.4127 9.91227 17.6615 9.91227 16.3539V8.83842C9.91227 8.7311 9.82642 8.64855 9.72241 8.64855H8.88699C8.77967 8.64855 8.69547 8.7311 8.69547 8.83842V16.3506C8.69547 16.9317 8.09615 17.5096 7.11545 17.0192L5.30923 15.9758C5.24649 15.9411 5.20687 15.8718 5.20687 15.7991V8.18792C5.20687 8.11527 5.24748 8.04428 5.31138 8.00796L11.9032 4.20401C11.9643 4.16768 12.0452 4.16768 12.1063 4.20401L18.6995 8.00796C18.7619 8.04593 18.8015 8.11362 18.8015 8.18957V15.8008C18.8015 15.8734 18.7619 15.9444 18.7008 15.9791L12.105 19.7863C12.0484 19.8194 11.9617 19.8194 11.9006 19.7863L10.209 18.7825C10.1586 18.7528 10.0942 18.7429 10.045 18.771C9.57695 19.0368 9.48796 19.0714 9.04945 19.225C8.94098 19.2625 8.7805 19.3275 9.10938 19.5114L11.3113 20.8151ZM10.5494 13.3195C10.5494 14.4306 11.1545 15.7554 14.0405 15.7554L14.0309 15.7631C16.1211 15.7631 17.3197 14.9393 17.3197 13.5029C17.3197 12.0781 16.3572 11.6983 14.3297 11.4292C12.2825 11.1584 12.0744 11.0181 12.0744 10.5376C12.0744 10.1414 12.2511 9.61308 13.7684 9.61308C15.1239 9.61308 15.6225 9.90531 15.8288 10.8183C15.847 10.9042 15.9246 10.9669 16.0138 10.9669H16.8706C16.8972 10.9669 16.9235 10.9614 16.9478 10.9507C16.9722 10.9401 16.994 10.9244 17.012 10.9049C17.03 10.8854 17.0438 10.8623 17.0524 10.8371C17.061 10.812 17.0644 10.7854 17.0622 10.7589C16.9301 9.18381 15.8833 8.45076 13.7717 8.45076C11.8912 8.45076 10.7685 9.24325 10.7685 10.574C10.7685 12.0186 11.8846 12.4165 13.6908 12.5948C15.8503 12.8062 16.0187 13.1215 16.0187 13.5458C16.0187 14.283 15.4276 14.597 14.0375 14.597C12.2924 14.597 11.9093 14.1592 11.7805 13.2911C11.7657 13.1981 11.6864 13.1296 11.5923 13.1296H10.7404C10.6346 13.1296 10.5494 13.2138 10.5494 13.3195Z" fill="#22C55E"/>
</svg>
