<svg width="24" height="24" viewBox="0 0 24 24" fill="none" xmlns="http://www.w3.org/2000/svg">
<path d="M11.9894 1.6496C11.8195 1.6496 11.6494 1.6936 11.4971 1.78144L3.35186 6.48664C3.20231 6.57304 3.07812 6.69726 2.99176 6.84684C2.9054 6.99642 2.85991 7.16608 2.85986 7.3388V16.7494C2.85988 16.9221 2.90538 17.0917 2.99178 17.2412C3.07818 17.3908 3.20242 17.5149 3.35202 17.6011L11.4972 22.3024H11.4973C11.6468 22.3888 11.8163 22.4342 11.9889 22.4342C12.1616 22.4342 12.3311 22.3888 12.4806 22.3024L20.6278 17.6011C20.7775 17.5148 20.9018 17.3907 20.9882 17.2411C21.0746 17.0915 21.1201 16.9217 21.12 16.749V7.33904C21.12 7.16636 21.0745 6.99673 20.9882 6.84716C20.9019 6.69759 20.7778 6.57334 20.6283 6.48688L12.4811 1.7816C12.3315 1.6952 12.1617 1.64973 11.9889 1.64976L11.9894 1.6496ZM6.66418 5.6744C6.66418 5.6744 7.6073 8.31688 9.50234 8.22912L11.7215 6.95224C11.8047 6.90388 11.8985 6.87669 11.9947 6.87304H12.0459C12.1419 6.87644 12.2355 6.90366 12.3183 6.95224L14.5373 8.22912C16.4325 8.31664 17.3753 5.6744 17.3753 5.6744C17.7939 7.52672 17.4601 8.76568 16.9014 9.58976L17.2647 9.79888H17.2648C17.4505 9.90504 17.5635 10.1025 17.5638 10.3181L17.5542 17.983C17.5543 18.0352 17.5406 18.0866 17.5146 18.1319C17.4885 18.1772 17.451 18.2149 17.4058 18.2411C17.3607 18.2682 17.309 18.2826 17.2564 18.2826C17.2037 18.2826 17.1521 18.2682 17.107 18.2411L14.1679 16.5577C13.9831 16.4486 13.8686 16.2522 13.8686 16.0393V12.4582C13.8688 12.3533 13.8412 12.2502 13.7887 12.1594C13.7362 12.0686 13.6606 11.9933 13.5696 11.941L12.3183 11.2202C12.2282 11.1671 12.1256 11.1392 12.0211 11.1394C11.9159 11.1392 11.8125 11.1671 11.7217 11.2202L10.4699 11.941C10.2846 12.0469 10.1715 12.2449 10.1715 12.4584V16.0394C10.1715 16.2524 10.0585 16.4474 9.8725 16.5578L6.93266 18.241C6.88794 18.2682 6.8366 18.2826 6.78426 18.2826C6.73192 18.2826 6.68059 18.2682 6.63586 18.241C6.54202 18.189 6.48674 18.0901 6.48674 17.9831L6.47578 10.3182C6.47564 10.213 6.50322 10.1096 6.55574 10.0184C6.60827 9.92728 6.68389 9.85158 6.77498 9.79896L7.13826 9.58976C6.5797 8.7656 6.24546 7.52656 6.66426 5.6744H6.66418Z" fill="#14B8A6"/>
</svg>
