<svg width="24" height="24" viewBox="0 0 24 24" fill="none" xmlns="http://www.w3.org/2000/svg">
<path fill-rule="evenodd" clip-rule="evenodd" d="M21 4C21 3.44772 20.5523 3 20 3H4C3.44772 3 3 3.44772 3 4V20.1C3 20.6523 3.44772 21.1 4 21.1H20C20.5523 21.1 21 20.6523 21 20.1V4ZM12 17C12 17.5523 11.5523 18 11 18H7.00001C6.44772 18 6.00001 17.5523 6.00001 17V7.00004C6.00001 6.44775 6.44772 6.00004 7.00001 6.00004H17C17.5523 6.00004 18 6.44775 18 7.00004V17C18 17.5523 17.5523 18 17 18H16C15.4477 18 15 17.5523 15 17V10C15 9.44775 14.5523 9.00004 14 9.00004H13C12.4477 9.00004 12 9.44775 12 10V17Z" fill="#F87171"/>
</svg>
