<svg width="24" height="24" viewBox="0 0 24 24" fill="none" xmlns="http://www.w3.org/2000/svg">
<path d="M13.2202 18.5246H20.655C20.8912 18.5246 21.1231 18.4644 21.3277 18.3498C21.5309 18.2366 21.7007 18.0718 21.82 17.8721C21.9377 17.6748 21.9999 17.4493 22 17.2196C22 16.9905 21.9376 16.7656 21.8194 16.5673L16.8264 8.17859C16.7071 7.97896 16.5373 7.81426 16.3341 7.70101C16.1286 7.5862 15.8971 7.526 15.6616 7.52617C15.4255 7.52617 15.1936 7.58648 14.9891 7.70101C14.7859 7.81426 14.6162 7.97897 14.4969 8.17859L13.2202 10.3249L10.7241 6.12773C10.6046 5.92812 10.4348 5.76344 10.2316 5.65023C10.026 5.53546 9.79437 5.47529 9.55891 5.47546C9.32281 5.47546 9.09078 5.53578 8.88625 5.65023C8.68307 5.76345 8.51325 5.92813 8.39383 6.12773L2.18047 16.5673C2.06258 16.7645 2.00022 16.9899 2 17.2196C2 17.4487 2.06195 17.6737 2.18 17.8721C2.29934 18.0718 2.46914 18.2366 2.67234 18.3498C2.87793 18.4646 3.10953 18.5248 3.345 18.5246H8.01195C9.86109 18.5246 11.2247 17.7368 12.163 16.1998L14.4411 12.373L15.6612 10.3249L19.3233 16.4766H14.4411L13.2202 18.5246ZM7.93578 16.4746L4.67891 16.4738L9.56109 8.27203L11.9971 12.373L10.3661 15.1139C9.74297 16.1112 9.03508 16.4745 7.93586 16.4745L7.93578 16.4746Z" fill="#22C55E"/>
</svg>
