<svg width="24" height="24" viewBox="0 0 24 24" fill="none" xmlns="http://www.w3.org/2000/svg">
<path d="M5.26842 4.15668C4.97057 4.15656 4.67562 4.21512 4.4004 4.32902C4.12519 4.44293 3.87512 4.60993 3.66446 4.8205C3.45381 5.03108 3.2867 5.28109 3.17269 5.55626C3.05868 5.83142 3 6.12636 3 6.42421V11.3709C3.32445 11.2541 3.79089 10.5638 3.93739 10.3958C4.19353 10.1019 4.24026 9.72799 4.36699 9.49162C4.65728 8.95507 4.70761 8.58479 5.36729 8.58479C5.67466 8.58479 5.79688 8.65669 6.00539 8.9353C6.14919 9.12943 6.39904 9.48803 6.51588 9.72799C6.65069 10.0039 6.87178 10.3787 6.96794 10.4542C7.03984 10.5099 7.11174 10.553 7.17735 10.5773C7.2843 10.6169 7.37328 10.5441 7.44428 10.4874C7.53595 10.4137 7.5746 10.2654 7.65998 10.0677C7.78131 9.78282 7.91432 9.44129 7.98981 9.32176C8.12103 9.11505 8.16507 8.87149 8.30617 8.75286C8.51468 8.5776 8.787 8.56592 8.86159 8.55064C9.28041 8.46795 9.47004 8.75286 9.67675 8.9371C9.81156 9.05663 9.99581 9.29929 10.1261 9.62464C10.2286 9.87898 10.3598 10.1136 10.4137 10.2601C10.4667 10.4021 10.5962 10.6285 10.6735 10.9009C10.7427 11.148 10.9305 11.3376 11.0015 11.4545C11.0015 11.4545 11.1102 11.7601 11.7726 12.0387C11.9164 12.0989 12.2058 12.1968 12.3784 12.2598C12.666 12.364 12.9446 12.3505 13.2996 12.3083C13.5521 12.3083 13.6896 11.9416 13.8047 11.6486C13.8721 11.4752 13.9377 10.979 13.9817 10.8379C14.0249 10.7004 13.9242 10.5953 14.0096 10.474C14.1102 10.3337 14.1696 10.3266 14.2271 10.1432C14.3511 9.75136 15.0683 9.73159 15.4709 9.73159C15.8071 9.73159 15.7648 10.0578 16.3337 9.94639C16.6609 9.88168 16.9754 9.98773 17.3223 10.0803C17.6135 10.1576 17.8886 10.2457 18.0521 10.438C18.1591 10.5629 18.4224 11.1876 18.1537 11.2136C18.1797 11.2451 18.1986 11.3026 18.2472 11.3341C18.1869 11.5695 17.9263 11.4015 17.7816 11.3709C17.5866 11.3305 17.4491 11.3772 17.2576 11.4617C16.9314 11.6073 16.4542 11.5902 16.1702 11.8275C15.9275 12.0279 15.9284 12.4755 15.8161 12.7262C15.8161 12.7262 15.5033 13.5306 14.822 14.0231C14.6477 14.1489 14.3062 14.4518 13.5638 14.5668C13.2365 14.6139 12.9052 14.6269 12.5752 14.6055C12.408 14.5974 12.2499 14.5893 12.0818 14.5875C11.9829 14.5857 11.6504 14.5758 11.6675 14.6073L11.6306 14.6998L11.6522 14.8239C11.6657 14.8985 11.6693 14.9578 11.672 15.0261C11.6774 15.1672 11.6603 15.3137 11.6675 15.4557C11.6827 15.7505 11.7915 16.0192 11.8059 16.3167C11.8212 16.6474 11.9847 16.9979 12.1429 17.2685C12.2031 17.3709 12.2948 17.3835 12.3343 17.5102C12.3811 17.6549 12.337 17.8095 12.3595 17.9641C12.4494 18.5644 12.6219 19.1918 12.8916 19.7346C12.8937 19.7389 12.8961 19.7431 12.8987 19.7472C13.2322 19.6915 13.5665 19.571 14.0006 19.5072C14.796 19.3886 15.9014 19.4497 16.6123 19.3832C18.4098 19.2142 19.385 20.1202 21 19.749V6.42421C21 5.82282 20.7611 5.24607 20.3359 4.82082C19.9106 4.39558 19.3339 4.15668 18.7325 4.15668H5.26842ZM4.45327 14.1723C4.43978 14.1723 4.4263 14.1723 4.41192 14.175C4.26902 14.1975 4.13062 14.2469 4.04164 14.3907C3.96974 14.5075 3.94458 14.7097 3.89425 14.8445C3.83673 15.0018 3.73607 15.1483 3.64799 15.2984C3.48622 15.5725 3.19503 15.8206 3.0692 16.0884C3.04404 16.1423 3.02157 16.2052 3.0009 16.2682V19.3257C3.14739 19.3508 3.30018 19.3814 3.47184 19.4272C4.73637 19.7643 5.04464 19.793 6.2849 19.6519L6.40174 19.6358C6.49611 19.438 6.5698 18.7658 6.63092 18.5573C6.67945 18.3973 6.74506 18.2697 6.77022 18.1079C6.79359 17.9524 6.76753 17.805 6.75494 17.6648C6.71899 17.3116 7.01108 17.1858 7.15039 16.8829C7.27621 16.6097 7.34811 16.2978 7.45237 16.0174C7.55123 15.7496 7.70761 15.3694 7.97274 15.2337C7.94038 15.1969 7.41821 15.1798 7.27891 15.1654C7.12817 15.1519 6.97819 15.1309 6.82954 15.1025C6.54733 15.045 6.23996 14.9892 5.96225 14.9227C5.67387 14.8385 5.38982 14.7402 5.11114 14.6279C4.84332 14.5039 4.65908 14.1813 4.45327 14.1723ZM9.60935 14.9182C8.94428 15.0522 8.73757 15.7055 8.42301 16.2223C8.25045 16.509 8.06711 16.7526 7.9305 17.0564C7.80467 17.3368 7.81546 17.6468 7.59976 17.8868C7.38515 18.1266 7.22347 18.409 7.12522 18.7154C7.10455 18.7757 7.04614 19.4129 6.98322 19.563L7.97274 19.4929C8.89485 19.5558 8.62882 19.9099 10.0686 19.8326L12.3415 19.7625C12.281 19.5834 12.2127 19.4071 12.1366 19.234C12.0737 19.1019 11.9928 18.844 11.9407 18.7307C11.8619 18.5654 11.769 18.4073 11.663 18.258C11.4976 18.0647 11.459 18.0513 11.4113 17.8059C11.3259 17.3808 11.1022 16.6106 10.8388 16.0776C10.7031 15.8026 10.4766 15.5725 10.269 15.373C10.0893 15.1978 9.68035 14.9039 9.60935 14.9191V14.9182Z" fill="#EA580C"/>
</svg>
