<svg width="24" height="24" viewBox="0 0 24 24" fill="none" xmlns="http://www.w3.org/2000/svg">
<g clip-path="url(#clip0_38272_332)">
<path d="M2.83161 12.5204C2.95187 12.624 3.12896 12.7677 3.39961 12.8211C3.73705 12.888 4.01772 12.7744 4.13465 12.7209C4.32509 12.9514 4.92652 13.613 5.93889 13.8235C6.68065 13.9805 7.28205 13.8168 7.47585 13.7566C7.66294 13.6998 8.18083 13.5194 8.66196 13.0717C9.33021 12.4502 9.83805 11.4011 9.64761 10.2484C9.44714 9.02887 8.57509 8.35396 8.37796 8.21029C8.43809 8.15682 8.52163 8.07665 8.61185 7.9764C8.67534 7.90289 8.97269 7.56209 9.17985 7.00747C9.23998 6.84709 9.35358 6.53302 9.38032 6.10534C9.42709 5.36027 9.16983 4.7956 9.04621 4.53498C8.92925 4.28774 8.80563 4.09396 8.71207 3.96698C8.38798 4.05051 7.93358 4.18416 7.40903 4.40134C6.75749 4.67198 5.56469 5.25 4.40196 6.37265C4.01772 6.74351 3.65687 7.09767 3.29936 7.67569C2.86167 8.38402 2.66121 9.0556 2.56429 9.51336C2.45069 9.61694 2.27363 9.80069 2.16336 10.0814C2.02971 10.4188 2.06312 10.7128 2.09653 10.9835C2.12995 11.2374 2.22685 12.0059 2.83161 12.5204Z" fill="url(#paint0_radial_38272_332)"/>
<path d="M17.1319 5.93833C15.6651 4.70542 14.1515 4.19088 13.2227 3.96702C11.4251 3.53266 9.91825 3.71977 9.09632 3.88348C9.46718 4.3713 9.6142 4.82904 9.68103 5.10302C9.96169 6.27577 9.48723 7.23804 9.34692 7.50868C9.17985 7.83277 8.99607 8.07333 8.86243 8.22704C9.05287 8.39075 9.31349 8.64802 9.54738 9.01222C9.66432 9.19597 9.8982 9.56684 10.0151 10.1148C10.1354 10.6761 10.0719 11.1472 10.0151 11.4179C9.92158 11.8555 9.75454 12.193 9.6142 12.4202C9.83472 12.3835 10.1588 12.3434 10.5497 12.3534C11.7392 12.3835 12.6213 12.8379 12.9888 13.055C13.226 13.1954 13.7673 13.5395 14.2919 14.1576C14.7864 14.7357 15.0403 15.2936 15.1606 15.5943C15.2942 15.9285 15.5582 16.6936 15.5281 17.6659C15.5181 17.9465 15.4345 19.7073 14.058 21.1073C13.9377 21.2309 13.4232 21.7388 12.5878 22.1431C11.6991 22.5741 10.8872 22.671 10.3994 22.6943C10.7469 22.7179 11.1779 22.7279 11.669 22.6943C11.9397 22.6743 12.491 22.6243 13.1726 22.4605C13.637 22.3503 14.5525 22.0896 15.5949 21.5082C16.4102 21.0538 17.0016 20.5694 17.3658 20.2386C17.7099 19.9279 18.2244 19.4167 18.7356 18.7016C19.1266 18.157 19.3771 17.6859 19.5041 17.432C19.7681 16.9041 19.9485 16.4196 20.0721 16.0287C20.159 15.7547 20.306 15.2335 20.4062 14.5586C20.4263 14.4216 20.4964 13.9171 20.5065 13.3223C20.5298 11.8656 20.169 10.6527 20.0721 10.3487C19.2736 7.79602 17.5328 6.27577 17.1319 5.93833Z" fill="url(#paint1_radial_38272_332)"/>
<path d="M21.843 6.77358C21.5757 5.84138 20.7805 5.12972 19.7882 4.91923C19.8115 4.45814 19.7748 3.66627 19.2703 2.99805C18.4016 1.84534 16.4837 1.49451 14.626 2.32981C14.3086 1.6716 13.891 1.4611 13.7239 1.39428C12.795 1.01672 11.3918 1.66491 10.5164 3.1651C11.5588 3.1317 13.206 3.22525 14.9936 4.00041C16.1696 4.51161 16.9949 5.13641 17.3992 5.47052C17.8503 5.84474 18.7658 6.66667 19.571 7.97641C20.012 8.69476 20.2927 9.35299 20.4731 9.84747C20.707 9.72719 21.1146 9.47661 21.442 9.01218C21.5222 8.89523 22.1771 7.93965 21.843 6.77358Z" fill="url(#paint2_radial_38272_332)"/>
<path d="M12.0032 17.6492C12.1635 17.7695 12.6914 18.137 13.4398 18.1169C14.4188 18.0902 15.0136 17.4287 15.1104 17.3151C15.1004 17.0544 15.0637 16.6802 14.9434 16.2459C14.4689 14.5452 13.1625 13.6632 12.9721 13.5395C12.785 13.4159 11.7058 12.7309 10.2323 12.771C9.95833 12.7777 9.7278 12.8078 9.56409 12.8379C9.83471 12.8913 10.2323 13.0016 10.65 13.2555C11.8595 13.9872 12.1736 15.2536 12.2203 15.4607C12.4208 16.3227 12.227 17.0244 12.1869 17.1647C12.1268 17.3652 12.0566 17.5322 12.0032 17.6492Z" fill="url(#paint3_radial_38272_332)"/>
<path d="M6.70735 20.1383C6.2897 19.0257 6.52359 18.0535 6.60713 17.7327C6.6873 17.422 6.79088 17.1714 6.87441 16.9976C6.77753 16.9308 5.32077 15.9518 3.85064 16.6134C3.18241 16.9141 2.8015 17.4253 2.6311 17.6993C3.20246 18.7551 3.85733 19.5002 4.3351 19.9713C5.69497 21.3078 7.16175 21.9426 8.07724 22.2432C8.80897 22.4839 9.46048 22.5974 9.95833 22.6576C9.56741 22.6074 8.98604 22.4739 8.37795 22.1097C8.11066 21.9493 7.1651 21.3612 6.70735 20.1383Z" fill="url(#paint4_radial_38272_332)"/>
<path d="M6.67401 12.4035C7.60587 12.4035 8.36129 11.648 8.36129 10.7162C8.36129 9.78431 7.60587 9.02887 6.67401 9.02887C5.74214 9.02887 4.98669 9.78431 4.98669 10.7162C4.98669 11.648 5.74214 12.4035 6.67401 12.4035Z" fill="white" stroke="white" stroke-width="0.0222222" stroke-miterlimit="10" stroke-linejoin="round"/>
<path d="M6.67396 11.6751C7.20356 11.6751 7.63287 11.2458 7.63287 10.7162C7.63287 10.1866 7.20356 9.75726 6.67396 9.75726C6.14436 9.75726 5.71503 10.1866 5.71503 10.7162C5.71503 11.2458 6.14436 11.6751 6.67396 11.6751Z" fill="url(#paint5_linear_38272_332)"/>
<path d="M7.19189 10.2317C7.1618 10.1983 6.92457 9.94103 6.57042 9.96776C6.35657 9.98448 6.09597 10.1014 5.99909 10.3319C5.98237 10.3687 5.89884 10.5892 6.02246 10.7329C6.106 10.8298 6.23295 10.8331 6.25635 10.8331C6.37329 10.8331 6.48355 10.773 6.54035 10.6861C6.6172 10.5625 6.54035 10.4656 6.59046 10.3654C6.63391 10.2785 6.77089 10.1983 7.19189 10.2317Z" fill="white"/>
<path d="M11.4686 6.89052C12.0733 7.68572 13.6938 6.27909 15.5114 7.09098C16.751 7.64563 17.1686 8.81838 18.0507 8.66136C18.4717 8.58449 18.7657 8.25038 18.9428 7.98978C18.1877 6.85043 17.3891 6.15212 17.1319 5.93829C15.6651 4.70538 14.1515 4.19085 13.2227 3.96698C12.5812 3.81329 11.9798 3.73645 11.4318 3.70972C11.4251 3.79992 11.4151 3.94361 11.4017 4.11734C11.2982 5.76789 11.2447 6.5965 11.4686 6.89052Z" fill="url(#paint6_linear_38272_332)"/>
<path d="M14.4422 12.3033C14.3754 12.1462 14.0914 11.5482 13.4733 11.2007C12.9688 10.9167 12.6848 11.0436 12.0366 10.8666C10.9841 10.5759 10.8838 9.92433 10.2657 9.8642C10.1622 9.85418 10.0552 9.85418 9.94831 9.86085C9.97171 9.94105 9.99509 10.0246 10.0151 10.1148C10.1354 10.6761 10.0719 11.1472 10.0151 11.4178C9.92157 11.8555 9.75453 12.193 9.6142 12.4202C9.83471 12.3834 10.1588 12.3434 10.5497 12.3534C11.7392 12.3834 12.6213 12.8378 12.9888 13.055C13.226 13.1954 13.7673 13.5395 14.2918 14.1576C14.3386 14.2111 14.3821 14.2645 14.4222 14.318C14.6694 13.6531 14.7128 12.9281 14.4422 12.3033Z" fill="url(#paint7_linear_38272_332)"/>
<path d="M19.5041 17.432C19.7681 16.9041 19.9485 16.4196 20.0721 16.0287C20.159 15.7547 20.306 15.2335 20.4062 14.5586C20.4263 14.4216 20.4964 13.917 20.5065 13.3223C20.5298 11.8656 20.169 10.6527 20.0721 10.3487C20.0687 10.3386 20.0654 10.3286 20.0621 10.3186C19.9351 10.7797 19.7313 11.2307 19.4206 11.635C18.455 12.888 17.0316 12.9782 16.9481 13.8736C16.8679 14.759 18.2111 15.0865 18.6855 16.3795C19.0397 17.3518 18.7323 18.3976 18.3113 19.2496C18.4516 19.0825 18.5919 18.8988 18.7356 18.7016C19.1232 18.1537 19.3738 17.6859 19.5041 17.432Z" fill="url(#paint8_linear_38272_332)"/>
<path d="M16.3467 20.6562C16.3033 20.4357 16.1496 20.1584 15.9124 20.0548C15.4413 19.8476 14.9167 20.429 14.1582 21.0037C14.1248 21.0371 14.0914 21.0738 14.058 21.1073C13.9377 21.2309 13.4232 21.7388 12.5879 22.143C11.6991 22.574 10.8872 22.6709 10.3994 22.6943C10.7469 22.7178 11.1779 22.7278 11.6691 22.6943C11.9397 22.6743 12.491 22.6243 13.1726 22.4605C13.637 22.3503 14.5525 22.0896 15.5949 21.5082C15.8522 21.3645 16.0895 21.2175 16.3033 21.0738C16.3534 20.9469 16.3768 20.8132 16.3467 20.6562Z" fill="url(#paint9_linear_38272_332)"/>
<path d="M5.03344 12.6206C4.82295 12.7877 4.65588 12.9982 4.56568 13.2288C4.5523 13.2588 4.54228 13.2856 4.53561 13.3156C4.52559 13.3424 4.51557 13.3824 4.50555 13.4158C4.48884 13.4827 4.47213 13.5428 4.4621 13.603C4.44206 13.7232 4.44875 13.8368 4.48215 13.9371C4.51557 14.0373 4.58239 14.1275 4.67595 14.2044C4.82628 14.3213 4.99668 14.3681 5.03344 14.3781C5.17044 14.4115 5.27401 14.4082 5.44441 14.4015C5.63153 14.3948 5.71839 14.3681 5.97566 14.3614C6.02244 14.3614 6.06588 14.3614 6.10597 14.3614H6.23628C6.32315 14.3614 6.41335 14.3648 6.50357 14.3748C6.68399 14.3881 6.86775 14.4149 7.0415 14.4683C7.21857 14.5218 7.38564 14.6087 7.52264 14.7189C7.65628 14.8325 7.76319 14.9662 7.82668 15.1165C7.86008 15.1934 7.88013 15.2702 7.88681 15.3504C7.89684 15.4306 7.89015 15.5074 7.87679 15.5843C7.86344 15.6611 7.84004 15.738 7.80664 15.8081C7.76988 15.8816 7.71975 15.9485 7.65293 16.0053C7.63624 16.0186 7.61953 16.032 7.59948 16.0454C7.58277 16.0587 7.56273 16.0688 7.54268 16.0788C7.50257 16.0988 7.45915 16.1122 7.4157 16.1222C7.32884 16.1423 7.23528 16.1456 7.14841 16.1322C7.02479 16.1155 6.93793 16.0688 6.9045 16.0487C6.78424 15.9786 6.72408 15.8917 6.72744 15.8883C6.73077 15.885 6.7909 15.9719 6.91453 16.032C6.94459 16.0454 7.03148 16.0855 7.15175 16.0922C7.23528 16.0955 7.31548 16.0855 7.39233 16.0621C7.42908 16.0487 7.46584 16.0354 7.49924 16.0153C7.51595 16.0053 7.53266 15.9952 7.54601 15.9852C7.55937 15.9752 7.57608 15.9618 7.5861 15.9485C7.68968 15.8482 7.72977 15.7079 7.73981 15.5676C7.74984 15.4272 7.7231 15.2936 7.65628 15.1733C7.58946 15.053 7.48921 14.9461 7.36893 14.8626C7.24866 14.7824 7.10833 14.7223 6.95797 14.6922C6.65726 14.6254 6.32648 14.6454 5.99237 14.6755C5.75515 14.6955 5.75515 14.7256 5.5079 14.749C5.24728 14.7757 5.10026 14.7891 4.90315 14.7557C4.63584 14.7089 4.44539 14.5986 4.35184 14.5385C4.2683 14.4817 4.18813 14.4182 4.1213 14.3414C4.05448 14.2679 3.99768 14.1843 3.95759 14.0941C3.87406 13.917 3.85401 13.7299 3.86068 13.5595C3.86404 13.4726 3.87406 13.3891 3.88741 13.3123C3.8941 13.2722 3.89744 13.2388 3.90746 13.1953C3.91415 13.1519 3.9275 13.1118 3.93753 13.0684C4.03444 12.7342 4.23157 12.4269 4.49886 12.1729L4.50219 12.1696C4.63919 12.0393 4.87306 12.0293 5.02341 12.1462C5.17713 12.2632 5.18715 12.4636 5.05348 12.5939C5.05015 12.6073 5.04013 12.614 5.03344 12.6206Z" fill="url(#paint10_linear_38272_332)"/>
</g>
<defs>
<radialGradient id="paint0_radial_38272_332" cx="0" cy="0" r="1" gradientUnits="userSpaceOnUse" gradientTransform="translate(12.001 12.0015) scale(13.1309)">
<stop stop-color="#9E60FC"/>
<stop offset="1" stop-color="#45239B"/>
</radialGradient>
<radialGradient id="paint1_radial_38272_332" cx="0" cy="0" r="1" gradientUnits="userSpaceOnUse" gradientTransform="translate(12.001 12.0015) scale(13.1309)">
<stop stop-color="#9E60FC"/>
<stop offset="1" stop-color="#45239B"/>
</radialGradient>
<radialGradient id="paint2_radial_38272_332" cx="0" cy="0" r="1" gradientUnits="userSpaceOnUse" gradientTransform="translate(12.0011 12.0015) scale(13.1309 13.1309)">
<stop stop-color="#9E60FC"/>
<stop offset="1" stop-color="#45239B"/>
</radialGradient>
<radialGradient id="paint3_radial_38272_332" cx="0" cy="0" r="1" gradientUnits="userSpaceOnUse" gradientTransform="translate(12.001 12.0015) scale(13.1309 13.1309)">
<stop stop-color="#9E60FC"/>
<stop offset="1" stop-color="#45239B"/>
</radialGradient>
<radialGradient id="paint4_radial_38272_332" cx="0" cy="0" r="1" gradientUnits="userSpaceOnUse" gradientTransform="translate(12.001 12.0015) scale(13.1309 13.1309)">
<stop stop-color="#9E60FC"/>
<stop offset="1" stop-color="#45239B"/>
</radialGradient>
<linearGradient id="paint5_linear_38272_332" x1="5.66649" y1="8.53175" x2="6.87214" y2="11.1474" gradientUnits="userSpaceOnUse">
<stop stop-color="#9E60FC"/>
<stop offset="0.928" stop-color="#45239B"/>
</linearGradient>
<linearGradient id="paint6_linear_38272_332" x1="12.2812" y1="9.31454" x2="15.6259" y2="5.33441" gradientUnits="userSpaceOnUse">
<stop offset="0.5056" stop-color="#FFBF4F"/>
<stop offset="1" stop-color="#F58E54"/>
</linearGradient>
<linearGradient id="paint7_linear_38272_332" x1="12.9966" y1="11.2887" x2="10.7222" y2="13.5296" gradientUnits="userSpaceOnUse">
<stop offset="0.1847" stop-color="#FFBF4F"/>
<stop offset="1" stop-color="#F58E54"/>
</linearGradient>
<linearGradient id="paint8_linear_38272_332" x1="16.9433" y1="14.7833" x2="20.5062" y2="14.7833" gradientUnits="userSpaceOnUse">
<stop offset="0.2361" stop-color="#FFBF4F"/>
<stop offset="1" stop-color="#F58E54"/>
</linearGradient>
<linearGradient id="paint9_linear_38272_332" x1="15.8905" y1="18.9621" x2="12.3611" y2="23.0176" gradientUnits="userSpaceOnUse">
<stop offset="0.1026" stop-color="#FFBF4F"/>
<stop offset="0.893" stop-color="#F58E54"/>
</linearGradient>
<linearGradient id="paint10_linear_38272_332" x1="3.8609" y1="14.1078" x2="7.89221" y2="14.1078" gradientUnits="userSpaceOnUse">
<stop offset="0.1847" stop-color="#FFBF4F"/>
<stop offset="1" stop-color="#F58E54"/>
</linearGradient>
<clipPath id="clip0_38272_332">
<rect width="24" height="24" fill="white"/>
</clipPath>
</defs>
</svg>
