<svg width="24" height="24" viewBox="-4 -4 56 54" fill="none" xmlns="http://www.w3.org/2000/svg">
<path d="M30.3164 6.78876C30.3164 8.03817 31.3289 9.05063 32.5783 9.05063H41.1605C42.1687 9.05063 42.6727 10.2699 41.9597 10.9808L30.9777 21.9627C30.5534 22.3871 30.3143 22.9622 30.3143 23.5633V27.318C30.3143 28.8797 31.8631 29.9633 33.2332 29.2179C34.6291 28.4597 35.928 27.542 37.102 26.4908C37.5673 26.075 38.2825 26.0707 38.7241 26.5145L46.7225 34.5129C47.1642 34.9545 47.1663 35.6718 46.7096 36.0984C40.6435 41.7746 32.49 45.2514 23.5265 45.2514C14.563 45.2514 6.40947 41.7746 0.343332 36.0984C-0.113351 35.6718 -0.111197 34.9545 0.330408 34.5129L8.32883 26.5145C8.77044 26.0729 9.48563 26.075 9.95092 26.4908C11.1249 27.542 12.4239 28.4597 13.8198 29.2179C15.192 29.9633 16.7387 28.8797 16.7387 27.318V23.5633C16.7387 22.9622 16.4996 22.3871 16.0752 21.9627L5.09327 10.9808C4.38024 10.2677 4.88432 9.05063 5.89247 9.05063H14.4747C15.7241 9.05063 16.7366 8.03817 16.7366 6.78876V1.13191C16.7366 0.507206 17.2428 0.000976562 17.8675 0.000976562H29.179C29.8037 0.000976562 30.31 0.507206 30.31 1.13191V6.78876H30.3164Z" fill="#14B8A6"/>
</svg>
