<svg width="24" height="24" viewBox="0 0 24 24" fill="none" xmlns="http://www.w3.org/2000/svg">
<path fill-rule="evenodd" clip-rule="evenodd" d="M12.3145 6.26969C13.3695 6.26969 14.2246 5.41452 14.2246 4.35957C14.2246 3.30463 13.3695 2.44946 12.3145 2.44946C11.2596 2.44946 10.4044 3.30463 10.4044 4.35957C10.4044 5.41452 11.2596 6.26969 12.3145 6.26969ZM12.3145 5.48317C12.9351 5.48317 13.4381 4.98014 13.4381 4.35957C13.4381 3.73901 12.9351 3.23598 12.3145 3.23598C11.694 3.23598 11.1909 3.73901 11.1909 4.35957C11.1909 4.98014 11.694 5.48317 12.3145 5.48317Z" fill="#EA580C"/>
<path fill-rule="evenodd" clip-rule="evenodd" d="M13.103 6.09991C13.7646 5.79969 14.2247 5.1334 14.2247 4.35957C14.2247 3.30463 13.3695 2.44946 12.3146 2.44946C11.2597 2.44946 10.4045 3.30463 10.4045 4.35957C10.4045 5.1334 10.8646 5.79969 11.5262 6.09991L11.4777 7.50564H11.4719L8.80607 7.70677C8.72127 7.71317 8.64203 7.75138 8.58424 7.81375C8.52644 7.87611 8.49434 7.95802 8.49438 8.04306V8.76665C8.49438 8.85158 8.52644 8.93336 8.58415 8.99568C8.64185 9.05798 8.72094 9.09622 8.80562 9.10272L11.4157 9.3034L11.2917 13.9965C11.2543 15.4136 11.0234 17.1501 9.63888 17.4543C9.48551 17.488 9.32798 17.5056 9.16854 17.5056C8.33865 17.5056 7.3809 16.484 6.76742 15.4363C7.0106 15.3308 7.25953 15.2392 7.51303 15.1618C7.65876 15.1173 7.68809 14.9122 7.5609 14.8281C6.64157 14.2205 5.91236 13.405 5.46494 12.4616C5.40348 12.3319 5.21775 12.3225 5.15584 12.4519C4.99913 12.779 4.86697 13.1172 4.76045 13.4638C4.45022 14.4753 4.37112 15.5302 4.52753 16.5685L4.53798 16.6355C4.55966 16.7707 4.72708 16.8186 4.82551 16.7234C5.01102 16.5441 5.20751 16.3765 5.41382 16.2216C6.54236 19.7743 10.3166 21.5506 12.3146 21.5506C14.313 21.5506 18.0888 19.7734 19.2162 16.2189C19.4224 16.3743 19.6186 16.5423 19.8039 16.722C19.9024 16.8176 20.0702 16.7697 20.0918 16.6343C20.0954 16.6124 20.0988 16.5904 20.102 16.5685C20.2577 15.5302 20.179 14.4753 19.8701 13.4638C19.7644 13.1179 19.633 12.7802 19.4774 12.4537C19.4156 12.324 19.2294 12.3333 19.1681 12.4633C18.7225 13.4061 17.9967 14.221 17.082 14.8283C16.9552 14.9125 16.9845 15.1172 17.13 15.1618C17.3795 15.2383 17.6246 15.3288 17.864 15.4327C17.2504 16.4816 16.2916 17.5056 15.4607 17.5056C15.3013 17.5056 15.1438 17.488 14.9906 17.4544C13.6058 17.1502 13.3749 15.4136 13.3375 13.9965L13.2135 9.3034L15.8236 9.10261C15.9083 9.0961 15.9874 9.05787 16.045 8.99556C16.1028 8.93325 16.1348 8.85146 16.1348 8.76654V8.04295C16.1348 7.95796 16.1027 7.8761 16.0449 7.81378C15.9871 7.75146 15.9079 7.71328 15.8231 7.70688L13.1573 7.50564H13.1515L13.103 6.09991ZM13.4382 4.35957C13.4382 4.98014 12.9352 5.48317 12.3146 5.48317C11.694 5.48317 11.191 4.98014 11.191 4.35957C11.191 3.73901 11.694 3.23598 12.3146 3.23598C12.9352 3.23598 13.4382 3.73901 13.4382 4.35957Z" fill="#EA580C"/>
<path fill-rule="evenodd" clip-rule="evenodd" d="M12.3146 6.04494C12.3146 5.92079 12.4156 5.82135 12.5391 5.80876C13.4015 5.71977 14.0884 5.12337 14.2067 4.36719C14.207 4.36504 14.2081 4.36308 14.2097 4.36165C14.2113 4.36023 14.2134 4.35945 14.2156 4.35944C14.2168 4.35943 14.2179 4.35965 14.2191 4.3601C14.2202 4.36055 14.2212 4.36122 14.2221 4.36207C14.2229 4.36292 14.2236 4.36393 14.224 4.36503C14.2245 4.36615 14.2247 4.36734 14.2247 4.36854C14.2223 4.87201 14.0212 5.35419 13.6652 5.71022C13.5017 5.87377 13.311 6.00507 13.1032 6.09927L13.1573 7.50564L12.5036 8.11575C12.4318 8.18272 12.3146 8.13182 12.3146 8.03362V6.04497C12.3146 6.04496 12.3146 6.04495 12.3146 6.04494ZM19.2948 12.4285C19.289 12.4374 19.2845 12.447 19.2816 12.4571L19.2783 12.4725C18.6889 17.7659 15.368 19.4045 12.9558 19.2923C13.8748 18.9956 14.4959 18.3387 15.0428 17.6872C15.1429 17.5679 15.2975 17.5131 15.4531 17.5056C15.2956 17.5056 15.1401 17.4885 14.989 17.4555C13.6037 17.1541 13.3749 15.4136 13.3375 13.9965L13.2134 9.3034L15.8313 9.10901C15.9145 9.10069 15.9915 9.06175 16.0477 8.99978C16.1038 8.9378 16.1348 8.8572 16.1348 8.77362V8.40452H12.4831C12.4384 8.40452 12.3956 8.42227 12.3639 8.45388C12.3323 8.48548 12.3146 8.52836 12.3146 8.57306V21.5506C14.313 21.5506 18.0887 19.7734 19.2162 16.2189C19.4219 16.3744 19.6182 16.5424 19.8039 16.722C19.9023 16.8175 20.0702 16.7697 20.0918 16.6343C20.0954 16.6124 20.0987 16.5903 20.102 16.5684C20.2577 15.5302 20.179 14.4753 19.8701 13.4638C19.7628 13.113 19.6294 12.7708 19.4709 12.4399C19.4368 12.3688 19.3386 12.3628 19.2948 12.4285ZM8.55424 9.02325C8.51577 8.98172 8.49438 8.92717 8.49438 8.87056V8.40449H12.0976C12.1154 8.4045 12.1328 8.40978 12.1475 8.41966C12.1624 8.42955 12.1738 8.44359 12.1807 8.46002C12.1874 8.47646 12.1892 8.49452 12.1857 8.51196C12.1822 8.5294 12.1737 8.54541 12.1611 8.55797L11.4157 9.30337L8.70191 9.0946C8.64545 9.09028 8.59271 9.06479 8.55424 9.02325Z" fill="black" fill-opacity="0.4"/>
</svg>
