<svg width="24" height="24" viewBox="0 0 24 24" fill="none" xmlns="http://www.w3.org/2000/svg">
<g clip-path="url(#clip0_1_74)">
<mask id="mask0_1_74" style="mask-type:luminance" maskUnits="userSpaceOnUse" x="0" y="0" width="24" height="24">
<path d="M0 0H24V24H0V0Z" fill="white"/>
</mask>
<g mask="url(#mask0_1_74)">
<path fill-rule="evenodd" clip-rule="evenodd" d="M12 6.4C12.9389 6.4 13.7 5.6389 13.7 4.7C13.7 3.7611 12.9389 3 12 3C11.0611 3 10.3 3.7611 10.3 4.7C10.3 5.6389 11.0611 6.4 12 6.4ZM12 5.7C12.5523 5.7 13 5.2523 13 4.7C13 4.1477 12.5523 3.7 12 3.7C11.4477 3.7 11 4.1477 11 4.7C11 5.2523 11.4477 5.7 12 5.7Z" fill="#FF915C"/>
<mask id="mask1_1_74" style="mask-type:luminance" maskUnits="userSpaceOnUse" x="9" y="2" width="6" height="5">
<path d="M9.89999 2.6H14.1V6.8H9.89999V2.6Z" fill="white"/>
<path fill-rule="evenodd" clip-rule="evenodd" d="M12 6.4C12.9389 6.4 13.7 5.6389 13.7 4.7C13.7 3.7611 12.9389 3 12 3C11.0611 3 10.3 3.7611 10.3 4.7C10.3 5.6389 11.0611 6.4 12 6.4ZM12 5.7C12.5523 5.7 13 5.2523 13 4.7C13 4.1477 12.5523 3.7 12 3.7C11.4477 3.7 11 4.1477 11 4.7C11 5.2523 11.4477 5.7 12 5.7Z" fill="black"/>
</mask>
<g mask="url(#mask1_1_74)">
<path d="M13.3 4.7C13.3 5.418 12.718 6 12 6V6.8C13.1598 6.8 14.1 5.8598 14.1 4.7H13.3ZM12 3.4C12.718 3.4 13.3 3.982 13.3 4.7H14.1C14.1 3.5402 13.1598 2.6 12 2.6V3.4ZM10.7 4.7C10.7 3.982 11.282 3.4 12 3.4V2.6C10.8402 2.6 9.89999 3.5402 9.89999 4.7H10.7ZM12 6C11.282 6 10.7 5.418 10.7 4.7H9.89999C9.89999 5.8598 10.8402 6.8 12 6.8V6ZM12.6 4.7C12.6 4.85913 12.5368 5.01174 12.4243 5.12426C12.3117 5.23679 12.1591 5.3 12 5.3V6.1C12.7732 6.1 13.4 5.4732 13.4 4.7H12.6ZM12 4.1C12.1591 4.1 12.3117 4.16321 12.4243 4.27574C12.5368 4.38826 12.6 4.54087 12.6 4.7H13.4C13.4 3.9268 12.7732 3.3 12 3.3V4.1ZM11.4 4.7C11.4 4.54087 11.4632 4.38826 11.5757 4.27574C11.6883 4.16321 11.8409 4.1 12 4.1V3.3C11.2268 3.3 10.6 3.9268 10.6 4.7H11.4ZM12 5.3C11.8409 5.3 11.6883 5.23679 11.5757 5.12426C11.4632 5.01174 11.4 4.85913 11.4 4.7H10.6C10.6 5.4732 11.2268 6.1 12 6.1V5.3Z" fill="#2B3C5A"/>
</g>
<mask id="mask2_1_74" style="mask-type:luminance" maskUnits="userSpaceOnUse" x="2" y="4" width="20" height="20">
<path d="M18 4H6C3.79086 4 2 5.79086 2 8V20C2 22.2091 3.79086 24 6 24H18C20.2091 24 22 22.2091 22 20V8C22 5.79086 20.2091 4 18 4Z" fill="white"/>
</mask>
<g mask="url(#mask2_1_74)">
<path fill-rule="evenodd" clip-rule="evenodd" d="M12.7017 6.2489C13.2905 5.9817 13.7 5.3887 13.7 4.7C13.7 3.7611 12.9389 3 12 3C11.0611 3 10.3 3.7611 10.3 4.7C10.3 5.3887 10.7095 5.9817 11.2983 6.2489L11.2552 7.5H11.25L8.87741 7.679C8.80194 7.6847 8.73142 7.71871 8.67998 7.77422C8.62854 7.82972 8.59997 7.90262 8.60001 7.9783V8.6223C8.60001 8.69788 8.62854 8.77067 8.6799 8.82613C8.73126 8.88158 8.80165 8.91561 8.87701 8.9214L11.2 9.1L11.0896 13.2769C11.0563 14.5381 10.8508 16.0836 9.61861 16.3543C9.48211 16.3843 9.34191 16.4 9.20001 16.4C8.46141 16.4 7.60901 15.4907 7.06301 14.5583C7.27944 14.4644 7.50099 14.3829 7.72661 14.314C7.85631 14.2744 7.88241 14.0918 7.76921 14.017C6.95101 13.4762 6.30201 12.7504 5.90381 11.9108C5.84911 11.7954 5.68381 11.787 5.62871 11.9022C5.48924 12.1933 5.37161 12.4943 5.27681 12.8028C5.00071 13.703 4.93031 14.6419 5.06951 15.5659L5.07881 15.6256C5.09811 15.7459 5.24711 15.7885 5.33471 15.7038C5.49982 15.5442 5.67469 15.3951 5.85831 15.2572C6.86271 18.4191 10.2218 20 12 20C13.7786 20 17.139 18.4183 18.1424 15.2548C18.3259 15.3931 18.5006 15.5426 18.6655 15.7026C18.7531 15.7876 18.9025 15.745 18.9217 15.6245C18.9249 15.605 18.9279 15.5854 18.9308 15.5659C19.0694 14.6419 18.9993 13.703 18.7244 12.8028C18.6303 12.4949 18.5134 12.1944 18.3749 11.9038C18.3199 11.7883 18.1542 11.7966 18.0996 11.9123C17.703 12.7514 17.0571 13.4767 16.243 14.0172C16.1301 14.0921 16.1562 14.2743 16.2857 14.314C16.5078 14.3821 16.7259 14.4626 16.939 14.5551C16.3929 15.4886 15.5395 16.4 14.8 16.4C14.6582 16.4 14.518 16.3843 14.3816 16.3544C13.1492 16.0837 12.9437 14.5381 12.9104 13.2769L12.8 9.1L15.123 8.9213C15.1984 8.91551 15.2688 8.88148 15.3201 8.82603C15.3715 8.77057 15.4 8.69778 15.4 8.6222V7.9782C15.4 7.90256 15.3714 7.82971 15.32 7.77424C15.2685 7.71878 15.198 7.6848 15.1226 7.6791L12.75 7.5H12.7448L12.7017 6.2489ZM13 4.7C13 5.2523 12.5523 5.7 12 5.7C11.4477 5.7 11 5.2523 11 4.7C11 4.1477 11.4477 3.7 12 3.7C12.5523 3.7 13 4.1477 13 4.7Z" fill="#FF915C"/>
<mask id="mask3_1_74" style="mask-type:luminance" maskUnits="userSpaceOnUse" x="4" y="2" width="16" height="19">
<path d="M4.60001 2.6H19.4V20.4H4.60001V2.6Z" fill="white"/>
<path fill-rule="evenodd" clip-rule="evenodd" d="M12.7017 6.2489C13.2905 5.9817 13.7 5.3887 13.7 4.7C13.7 3.7611 12.9389 3 12 3C11.0611 3 10.3 3.7611 10.3 4.7C10.3 5.3887 10.7095 5.9817 11.2983 6.2489L11.2552 7.5H11.25L8.87741 7.679C8.80194 7.6847 8.73142 7.71871 8.67998 7.77422C8.62854 7.82972 8.59997 7.90262 8.60001 7.9783V8.6223C8.60001 8.69788 8.62854 8.77067 8.6799 8.82613C8.73126 8.88158 8.80165 8.91561 8.87701 8.9214L11.2 9.1L11.0896 13.2769C11.0563 14.5381 10.8508 16.0836 9.61861 16.3543C9.48211 16.3843 9.34191 16.4 9.20001 16.4C8.46141 16.4 7.60901 15.4907 7.06301 14.5583C7.27944 14.4644 7.50099 14.3829 7.72661 14.314C7.85631 14.2744 7.88241 14.0918 7.76921 14.017C6.95101 13.4762 6.30201 12.7504 5.90381 11.9108C5.84911 11.7954 5.68381 11.787 5.62871 11.9022C5.48924 12.1933 5.37161 12.4943 5.27681 12.8028C5.00071 13.703 4.93031 14.6419 5.06951 15.5659L5.07881 15.6256C5.09811 15.7459 5.24711 15.7885 5.33471 15.7038C5.49982 15.5442 5.67469 15.3951 5.85831 15.2572C6.86271 18.4191 10.2218 20 12 20C13.7786 20 17.139 18.4183 18.1424 15.2548C18.3259 15.3931 18.5006 15.5426 18.6655 15.7026C18.7531 15.7876 18.9025 15.745 18.9217 15.6245C18.9249 15.605 18.9279 15.5854 18.9308 15.5659C19.0694 14.6419 18.9993 13.703 18.7244 12.8028C18.6303 12.4949 18.5134 12.1944 18.3749 11.9038C18.3199 11.7883 18.1542 11.7966 18.0996 11.9123C17.703 12.7514 17.0571 13.4767 16.243 14.0172C16.1301 14.0921 16.1562 14.2743 16.2857 14.314C16.5078 14.3821 16.7259 14.4626 16.939 14.5551C16.3929 15.4886 15.5395 16.4 14.8 16.4C14.6582 16.4 14.518 16.3843 14.3816 16.3544C13.1492 16.0837 12.9437 14.5381 12.9104 13.2769L12.8 9.1L15.123 8.9213C15.1984 8.91551 15.2688 8.88148 15.3201 8.82603C15.3715 8.77057 15.4 8.69778 15.4 8.6222V7.9782C15.4 7.90256 15.3714 7.82971 15.32 7.77424C15.2685 7.71878 15.198 7.6848 15.1226 7.6791L12.75 7.5H12.7448L12.7017 6.2489ZM13 4.7C13 5.2523 12.5523 5.7 12 5.7C11.4477 5.7 11 5.2523 11 4.7C11 4.1477 11.4477 3.7 12 3.7C12.5523 3.7 13 4.1477 13 4.7Z" fill="black"/>
</mask>
<g mask="url(#mask3_1_74)">
<path d="M12.7018 6.2489L12.5365 5.8846L12.2928 5.9952L12.302 6.2627L12.7018 6.2489ZM11.2984 6.2489L11.6982 6.2627L11.7074 5.9952L11.4637 5.8846L11.2984 6.2489ZM11.2553 7.5V7.9H11.6417L11.655 7.5138L11.2553 7.5ZM11.2501 7.5V7.1H11.235L11.22 7.1011L11.2501 7.5ZM11.2001 9.1L11.6 9.1106L11.61 8.7304L11.2308 8.7012L11.2001 9.1ZM7.06297 14.5583L6.90368 14.1914L6.48968 14.3711L6.71787 14.7605L7.06297 14.5583ZM5.85837 15.2572L6.23957 15.1361L6.06887 14.5984L5.61797 14.9375L5.85837 15.2572ZM18.1425 15.2548L18.3834 14.9355L17.9322 14.5951L17.7613 15.1338L18.1425 15.2548ZM16.9391 14.5551L17.2843 14.7571L17.512 14.3679L17.0985 14.1882L16.9391 14.5551ZM12.8001 9.1L12.7694 8.7012L12.3902 8.7303L12.4002 9.1106L12.8001 9.1ZM12.7501 7.5L12.7802 7.1011L12.7652 7.1H12.7501V7.5ZM12.7449 7.5L12.3452 7.5138L12.3585 7.9H12.7449V7.5ZM12.8671 6.6131C13.5935 6.2835 14.1001 5.5513 14.1001 4.7H13.3001C13.3001 5.226 12.9876 5.68 12.5365 5.8846L12.8671 6.6131ZM14.1001 4.7C14.1001 3.5402 13.1599 2.6 12.0001 2.6V3.4C12.7181 3.4 13.3001 3.982 13.3001 4.7H14.1001ZM12.0001 2.6C10.8403 2.6 9.90007 3.5402 9.90007 4.7H10.7001C10.7001 3.982 11.2821 3.4 12.0001 3.4V2.6ZM9.90007 4.7C9.90007 5.5513 10.4067 6.2835 11.1331 6.6131L11.4637 5.8846C11.0126 5.68 10.7001 5.226 10.7001 4.7H9.90007ZM10.8987 6.2351L10.8555 7.4862L11.655 7.5138L11.6982 6.2627L10.8987 6.2351ZM11.2553 7.1H11.2501V7.9H11.2553V7.1ZM11.22 7.1011L8.84747 7.2802L8.90757 8.0779L11.2802 7.8989L11.22 7.1011ZM8.84747 7.2802C8.67145 7.29349 8.50684 7.3728 8.38681 7.50223C8.26678 7.63167 8.20008 7.80167 8.20007 7.9782H9.00007C9.00007 8.00342 8.99054 8.02771 8.97338 8.0462C8.95623 8.06468 8.93272 8.07601 8.90757 8.0779L8.84747 7.2802ZM8.20007 7.9782V8.6222H9.00007V7.9782H8.20007ZM8.20007 8.6222C8.20006 8.79857 8.26662 8.96844 8.38644 9.09785C8.50627 9.22726 8.67053 9.30667 8.84637 9.3202L8.90777 8.5225C8.93289 8.52444 8.95634 8.53578 8.97346 8.55427C8.99057 8.57275 9.00007 8.59701 9.00007 8.6222H8.20007ZM8.84637 9.3202L11.1694 9.4988L11.2308 8.7012L8.90777 8.5225L8.84637 9.3201V9.3202ZM10.8002 9.0894L10.6898 13.2663L11.4896 13.2875L11.6 9.1106L10.8002 9.0894ZM10.6898 13.2663C10.6734 13.8892 10.6142 14.5366 10.4277 15.0507C10.2447 15.5553 9.96587 15.8685 9.53277 15.9637L9.70447 16.745C10.5036 16.5695 10.9437 15.9745 11.1798 15.3234C11.4125 14.6818 11.4727 13.9259 11.4896 13.2875L10.6898 13.2663ZM9.53277 15.9637C9.42351 15.9878 9.31196 15.9999 9.20007 16V16.8C9.37147 16.8 9.54047 16.781 9.70447 16.745L9.53277 15.9637ZM9.20007 16C8.98377 16 8.68107 15.8574 8.33027 15.5345C7.99227 15.2235 7.66627 14.7967 7.40807 14.3561L6.71787 14.7605C7.00587 15.2523 7.37908 15.7464 7.78848 16.1231C8.18508 16.488 8.67777 16.8 9.20007 16.8V16ZM7.22227 14.9252C7.42485 14.8373 7.63225 14.761 7.84347 14.6966L7.60977 13.9315C7.36968 14.0047 7.13394 14.0915 6.90368 14.1914L7.22227 14.9252ZM7.84347 14.6966C8.29857 14.5576 8.38377 13.9436 7.98987 13.6833L7.54877 14.3507C7.51145 14.3263 7.48174 14.292 7.46306 14.2515C7.44438 14.211 7.43749 14.1661 7.44317 14.1219C7.45017 14.0777 7.46952 14.0363 7.499 14.0027C7.52848 13.969 7.56688 13.9443 7.60977 13.9315L7.84347 14.6966ZM7.98987 13.6833C7.22727 13.1793 6.62957 12.5075 6.26527 11.7394L5.54247 12.0822C5.97447 12.9932 6.67497 13.7732 7.54877 14.3507L7.98977 13.6832L7.98987 13.6833ZM6.26527 11.7394C6.08597 11.3612 5.48788 11.27 5.26788 11.7295L5.98957 12.0749C5.96802 12.1195 5.93403 12.1568 5.89172 12.1825C5.8494 12.2082 5.80056 12.2211 5.75107 12.2197C5.70708 12.2179 5.66441 12.2042 5.62765 12.18C5.59089 12.1557 5.56144 12.1219 5.54247 12.0822L6.26527 11.7394ZM5.26788 11.7295C5.11988 12.0385 4.99506 12.358 4.89447 12.6855L5.65927 12.9201C5.74826 12.6306 5.85866 12.3481 5.98957 12.0749L5.26788 11.7295ZM4.89447 12.6855C4.60097 13.6425 4.52578 14.6418 4.67408 15.6255L5.46507 15.5063C5.33487 14.642 5.40057 13.7635 5.65927 12.9201L4.89447 12.6855ZM4.67408 15.6255L4.68388 15.6891L5.47377 15.5622C5.47077 15.5436 5.46787 15.5249 5.46507 15.5063L4.67408 15.6255ZM4.68388 15.6891C4.76018 16.1644 5.31927 16.2752 5.61277 15.9913L5.05668 15.4163C5.08778 15.3864 5.12628 15.3652 5.16824 15.355C5.21019 15.3448 5.2541 15.346 5.29547 15.3583C5.34123 15.3723 5.38217 15.3988 5.41367 15.4349C5.44517 15.4709 5.46599 15.515 5.47377 15.5622L4.68388 15.6891ZM5.61277 15.9913C5.76605 15.8432 5.92846 15.7048 6.09887 15.5768L5.61797 14.9375C5.42114 15.0853 5.23368 15.2452 5.05668 15.4163L5.61277 15.9913ZM5.47717 15.3783C6.01317 17.0658 7.17348 18.3193 8.41747 19.1473C9.65377 19.9702 11.0141 20.4 12.0001 20.4V19.6C11.208 19.6 9.99947 19.2393 8.86067 18.4813C7.72947 17.7283 6.70787 16.6104 6.23957 15.1361L5.47717 15.3783ZM12.0001 20.4C12.9864 20.4 14.347 19.97 15.5837 19.1467C16.8279 18.3182 17.9882 17.0641 18.5238 15.3757L17.7613 15.1338C17.2934 16.6089 16.2718 17.7274 15.1403 18.4807C14.0013 19.2391 12.7924 19.6 12.0001 19.6V20.4ZM17.9016 15.5741C18.0718 15.7024 18.2339 15.8411 18.387 15.9895L18.9443 15.4156C18.7675 15.2441 18.5801 15.0837 18.3834 14.9355L17.9016 15.5741ZM18.387 15.9895C18.6804 16.2743 19.2408 16.1639 19.3168 15.6876L18.5268 15.5614C18.5345 15.5141 18.5554 15.4699 18.5869 15.4339C18.6185 15.3978 18.6595 15.3712 18.7053 15.3572C18.7467 15.3449 18.7907 15.3438 18.8327 15.3541C18.8747 15.3644 18.9132 15.3856 18.9443 15.4156L18.387 15.9895ZM19.3168 15.6876C19.3201 15.6668 19.3234 15.646 19.3265 15.6252L18.5353 15.5066C18.5326 15.5248 18.5298 15.5431 18.5268 15.5614L19.3168 15.6876ZM19.3265 15.6252C19.474 14.6419 19.3992 13.6428 19.1071 12.686L18.342 12.9196C18.5996 13.7633 18.665 14.642 18.5353 15.5066L19.3265 15.6252ZM19.1071 12.686C19.0072 12.3592 18.8832 12.0403 18.7362 11.7319L18.0139 12.0757C18.1439 12.3485 18.2536 12.6306 18.342 12.9196L19.1071 12.686ZM18.7362 11.7319C18.5167 11.2708 17.9171 11.3624 17.738 11.7414L18.4613 12.0832C18.4423 12.123 18.4129 12.1569 18.3761 12.1812C18.3393 12.2055 18.2965 12.2193 18.2525 12.221C18.2029 12.2224 18.154 12.2094 18.1117 12.1836C18.0693 12.1579 18.0354 12.1204 18.0139 12.0757L18.7362 11.7319ZM17.738 11.7414C17.3752 12.5092 16.7804 13.1804 16.0218 13.6839L16.4643 14.3504C17.3341 13.7731 18.0311 12.9935 18.4613 12.0832L17.738 11.7414ZM16.0218 13.6839C15.6291 13.9446 15.7144 14.5571 16.1685 14.6964L16.4031 13.9316C16.4459 13.9444 16.4842 13.9691 16.5137 14.0028C16.5431 14.0364 16.5625 14.0777 16.5695 14.1219C16.5752 14.166 16.5683 14.2108 16.5497 14.2513C16.5311 14.2917 16.5015 14.326 16.4643 14.3504L16.0218 13.6839ZM16.1685 14.6964C16.3763 14.7601 16.5803 14.8354 16.7797 14.9219L17.0985 14.1882C16.8717 14.0897 16.6395 14.004 16.4031 13.9316L16.1685 14.6964ZM16.5938 14.3531C16.3358 14.7942 16.0095 15.2218 15.6711 15.5334C15.3198 15.857 15.0167 16 14.8001 16V16.8C15.323 16.8 15.8163 16.4873 16.2131 16.1218C16.6229 15.7444 16.9963 15.2495 17.2843 14.7571L16.5938 14.3531ZM14.8001 16C14.6878 16 14.5763 15.9876 14.4675 15.9637L14.2959 16.7451C14.4598 16.7811 14.6287 16.8 14.8001 16.8V16ZM14.4675 15.9637C14.0344 15.8686 13.7555 15.5554 13.5725 15.0507C13.386 14.5366 13.3268 13.8891 13.3104 13.2663L12.5106 13.2874C12.5275 13.9259 12.5877 14.6818 12.8204 15.3235C13.0566 15.9746 13.4967 16.5695 14.2959 16.7451L14.4675 15.9637ZM13.3104 13.2663L13.2 9.0894L12.4002 9.1106L12.5106 13.2874L13.3104 13.2663ZM12.8308 9.4988L15.1538 9.3201L15.0924 8.5225L12.7694 8.7012L12.8308 9.4988ZM15.1538 9.3201C15.3296 9.30657 15.4939 9.22716 15.6137 9.09775C15.7335 8.96834 15.8001 8.79847 15.8001 8.6221H15.0001C15.0001 8.59693 15.0096 8.57269 15.0267 8.55423C15.0438 8.53577 15.0673 8.52444 15.0924 8.5225L15.1538 9.3201ZM15.8001 8.6221V7.9782H15.0001V8.6221H15.8001ZM15.8001 7.9782C15.8001 7.80167 15.7334 7.63167 15.6133 7.50223C15.4933 7.3728 15.3288 7.29349 15.1528 7.2802L15.0926 8.0779C15.0674 8.07601 15.0439 8.06468 15.0268 8.0462C15.0096 8.02771 15.0001 8.00342 15.0001 7.9782H15.8001ZM15.1528 7.2802L12.7802 7.1011L12.72 7.8989L15.0926 8.0779L15.1528 7.2802ZM12.7501 7.1H12.7449V7.9H12.7501V7.1ZM13.1447 7.4862L13.1015 6.2351L12.302 6.2627L12.3452 7.5138L13.1447 7.4862ZM12.0001 6.1C12.7733 6.1 13.4001 5.4732 13.4001 4.7H12.6001C12.6001 4.85913 12.5369 5.01174 12.4243 5.12426C12.3118 5.23679 12.1592 5.3 12.0001 5.3V6.1ZM10.6001 4.7C10.6001 5.4732 11.2269 6.1 12.0001 6.1V5.3C11.8409 5.3 11.6883 5.23679 11.5758 5.12426C11.4633 5.01174 11.4001 4.85913 11.4001 4.7H10.6001ZM12.0001 3.3C11.2269 3.3 10.6001 3.9268 10.6001 4.7H11.4001C11.4001 4.54087 11.4633 4.38826 11.5758 4.27574C11.6883 4.16321 11.8409 4.1 12.0001 4.1V3.3ZM13.4001 4.7C13.4001 3.9268 12.7733 3.3 12.0001 3.3V4.1C12.1592 4.1 12.3118 4.16321 12.4243 4.27574C12.5369 4.38826 12.6001 4.54087 12.6001 4.7H13.4001Z" fill="#2B3C5A"/>
</g>
<path d="M8.60001 8.7148C8.60001 8.76519 8.61904 8.81373 8.65328 8.8507C8.68752 8.88767 8.73446 8.91035 8.78471 8.9142L11.2 9.1L11.8634 8.4366C11.8746 8.42542 11.8822 8.41117 11.8853 8.39565C11.8884 8.38013 11.8868 8.36405 11.8808 8.34942C11.8747 8.3348 11.8645 8.3223 11.8513 8.3135C11.8382 8.30471 11.8227 8.30001 11.8069 8.3H8.60001V8.7148Z" fill="#8A380F"/>
<path fill-rule="evenodd" clip-rule="evenodd" d="M18.2124 11.8814C18.2514 11.8229 18.3388 11.8282 18.3691 11.8915C18.5102 12.186 18.6289 12.4906 18.7244 12.8028C18.9993 13.703 19.0694 14.6419 18.9308 15.5659C18.9279 15.5854 18.9249 15.605 18.9217 15.6245C18.9025 15.745 18.7531 15.7876 18.6655 15.7026C18.3315 15.3795 17.959 15.0987 17.5564 14.8665C17.5233 14.8473 17.4985 14.8166 17.4866 14.7802C17.4748 14.7439 17.4768 14.7044 17.4922 14.6694C17.829 13.9111 18.0771 13.0022 18.1975 11.9224C18.1992 11.9078 18.2043 11.8937 18.2124 11.8814Z" fill="#8A380F"/>
<path d="M12.7 6.2L12.75 7.5L12.1682 8.043C12.1043 8.1026 12 8.0573 12 7.9699V6.2H12.7ZM18.4 14C18 18 14 20 12 20V8.45C12 8.41022 12.0158 8.37206 12.0439 8.34393C12.0721 8.3158 12.1102 8.3 12.15 8.3H15.4V8.6285C15.4 8.70289 15.3724 8.77462 15.3225 8.82978C15.2725 8.88494 15.2039 8.91959 15.1299 8.927L12.8 9.1L12.9104 13.2769C12.9437 14.5381 13.1473 16.0871 14.3802 16.3554C14.5147 16.3847 14.6531 16.4 14.7933 16.4C14.6548 16.4066 14.5172 16.4554 14.4281 16.5616C13.9414 17.1414 13.3886 17.7261 12.5707 17.9901C14.7207 18.0901 17.6817 16.6274 18.2 11.9L18.4 14Z" fill="#8A380F"/>
<path fill-rule="evenodd" clip-rule="evenodd" d="M12.1998 5.9898C12.0899 6.001 12 6.0895 12 6.2C12 6.3105 12.0898 6.4012 12.1995 6.3883C12.5788 6.34342 12.932 6.17216 13.2021 5.9021C13.5189 5.58523 13.6979 5.15609 13.7 4.708C13.7 4.70693 13.6998 4.70587 13.6994 4.70488C13.699 4.7039 13.6984 4.703 13.6977 4.70224C13.6969 4.70149 13.696 4.70089 13.695 4.70049C13.694 4.70009 13.693 4.69989 13.6919 4.6999C13.69 4.69991 13.6881 4.70061 13.6867 4.70187C13.6852 4.70314 13.6843 4.70489 13.684 4.7068C13.5787 5.3798 12.9674 5.9104 12.1998 5.9896V5.9898Z" fill="#8A380F"/>
</g>
</g>
</g>
<defs>
<clipPath id="clip0_1_74">
<rect width="24" height="24" fill="white"/>
</clipPath>
</defs>
</svg>
