<svg width="24" height="24" viewBox="0 0 24 24" fill="none" xmlns="http://www.w3.org/2000/svg">
<path fill-rule="evenodd" clip-rule="evenodd" d="M7.32609 4.69568C6.31757 4.69568 5.5 5.51324 5.5 6.52176V17.4783C5.5 18.4868 6.31757 19.3044 7.32609 19.3044H17.6739C18.6824 19.3044 19.5 18.4868 19.5 17.4783V6.52177C19.5 5.51325 18.6824 4.69568 17.6739 4.69568H7.32609ZM12.37 7.04206C13.3226 6.95505 14.2574 6.99159 15.1739 7.26045C15.7581 7.43183 16.2964 7.6972 16.7619 8.10241C17.4331 8.68661 17.823 9.4314 17.9482 10.3187C18.0694 11.1785 17.9899 12.0115 17.5816 12.7904C17.3296 13.2714 16.9641 13.6439 16.5124 13.9311L16.4679 13.9595C15.4165 14.6041 14.4259 14.8772 13.3504 14.9629C13.1995 14.6039 13.0664 14.2361 12.9519 13.8593C12.8937 13.6675 12.8483 13.4715 12.803 13.2755C12.7842 13.1941 12.7653 13.1128 12.7456 13.0317C12.741 13.0129 12.74 12.9931 12.7388 12.9704L12.7386 12.9673C12.738 12.9566 12.7374 12.9453 12.7363 12.9331C12.7741 12.937 12.811 12.9411 12.8475 12.9451L12.8573 12.9462C12.942 12.9558 13.0242 12.965 13.1066 12.9697C13.57 12.9965 14.0018 12.9161 14.3476 12.5666C14.5404 12.3717 14.6474 12.1281 14.7006 11.8612C14.7697 11.5144 14.7698 11.1668 14.6784 10.8228C14.5595 10.375 14.28 10.0759 13.8512 9.93431C13.3709 9.77564 12.8811 9.77472 12.3981 9.9184C11.8721 10.0749 11.5548 10.4493 11.407 10.9796C11.2776 11.4436 11.2717 11.9169 11.3142 12.3931C11.4105 13.4721 11.726 14.4916 12.1382 15.4816C12.274 15.8081 12.4242 16.1283 12.5744 16.4485L12.5772 16.4544C12.6456 16.6001 12.7139 16.7457 12.7808 16.892C12.7899 16.9118 12.798 16.9319 12.8072 16.9551L12.8226 16.9932L12.7823 16.9953C12.7578 16.9967 12.7365 16.9979 12.7153 16.9979L11.8819 16.9979C10.9435 16.9979 10.0052 16.9979 9.06686 17C8.99162 17.0002 8.95651 16.9764 8.92833 16.9061C8.63164 16.1658 8.4239 15.3989 8.26791 14.6167C8.09581 13.7536 7.9875 12.8832 8.00116 12.0006C8.01407 11.1653 8.13802 10.3513 8.48098 9.58504C8.95936 8.51613 9.7616 7.80624 10.8301 7.39634C11.3244 7.2067 11.8369 7.09863 12.37 7.04206Z" fill="#FBBF24"/>
</svg>
