<svg width="24" height="24" viewBox="0 0 24 24" fill="none" xmlns="http://www.w3.org/2000/svg">
<path d="M4.7839 13.8134L6.01488 12.5824L11.4176 17.9851L10.1866 19.2161C9.14143 20.2613 7.44683 20.2613 6.40164 19.2161L4.7839 17.5984C3.7387 16.5532 3.7387 14.8586 4.7839 13.8134ZM19.2159 10.1868L17.985 11.4178L12.5822 6.01505L13.8132 4.7841C14.8584 3.7389 16.553 3.7389 17.5982 4.7841L19.2159 6.40184C20.2611 7.44703 20.2611 9.14163 19.2159 10.1868ZM13.8132 19.2159C14.8584 20.2611 16.553 20.2611 17.5982 19.2159L19.2159 17.5982C20.2611 16.553 20.2611 14.8584 19.2159 13.8132L10.1866 4.78389C9.14143 3.7387 7.44683 3.7387 6.40164 4.7839L4.7839 6.40164C3.7387 7.44683 3.7387 9.14143 4.7839 10.1866L13.8132 19.2159ZM9.5293 11.3824C9.8704 11.3824 10.1469 11.6589 10.1469 12C10.1469 12.3411 9.8704 12.6176 9.5293 12.6176C9.18819 12.6176 8.91167 12.3411 8.91167 12C8.91167 11.6589 9.18819 11.3824 9.5293 11.3824ZM12.6174 14.4705C12.6174 14.8116 12.3409 15.0881 11.9998 15.0881C11.6587 15.0881 11.3822 14.8116 11.3822 14.4705C11.3822 14.1294 11.6587 13.8529 11.9998 13.8529C12.3409 13.8529 12.6174 14.1294 12.6174 14.4705ZM12.6174 12C12.6174 12.3411 12.3409 12.6176 11.9998 12.6176C11.6587 12.6176 11.3822 12.3411 11.3822 12C11.3822 11.6589 11.6587 11.3824 11.9998 11.3824C12.3409 11.3824 12.6174 11.6589 12.6174 12ZM11.9998 8.91185C12.3409 8.91185 12.6174 9.18837 12.6174 9.52948C12.6174 9.87058 12.3409 10.1471 11.9998 10.1471C11.6587 10.1471 11.3822 9.87058 11.3822 9.52948C11.3822 9.18837 11.6587 8.91185 11.9998 8.91185ZM15.0879 12C15.0879 12.3411 14.8114 12.6176 14.4703 12.6176C14.1292 12.6176 13.8527 12.3411 13.8527 12C13.8527 11.6589 14.1292 11.3824 14.4703 11.3824C14.8114 11.3824 15.0879 11.6589 15.0879 12Z" fill="#F87171"/>
</svg>
