<svg width="24" height="24" viewBox="0 0 24 24" fill="none" xmlns="http://www.w3.org/2000/svg">
<path fill-rule="evenodd" clip-rule="evenodd" d="M5.636 9.87868C5.24547 9.48816 5.24547 8.85499 5.636 8.46447L8.46442 5.63604C8.85495 5.24552 9.48811 5.24551 9.87864 5.63604L11.2929 7.05025L12 7.75736L16.2426 12L16.9497 12.7071L18.3639 14.1213C18.7544 14.5118 18.7544 15.145 18.3639 15.5355L15.5355 18.364C15.145 18.7545 14.5118 18.7545 14.1213 18.364L12.7071 16.9497L12 16.2426L7.75732 12L7.05021 11.2929L5.636 9.87868ZM7.05021 12.7071L5.636 14.1213C5.24547 14.5118 5.24547 15.145 5.636 15.5355L8.46442 18.364C8.85495 18.7545 9.48811 18.7545 9.87864 18.364L11.2929 16.9497L7.05021 12.7071ZM16.9497 11.2929L18.3639 9.87868C18.7544 9.48816 18.7544 8.85499 18.3639 8.46447L15.5355 5.63604C15.145 5.24552 14.5118 5.24552 14.1213 5.63604L12.7071 7.05025L16.9497 11.2929ZM10.2322 10.9393C10.4275 11.1346 10.4275 11.4512 10.2322 11.6464C10.0369 11.8417 9.72035 11.8417 9.52508 11.6464C9.32982 11.4512 9.32982 11.1346 9.52508 10.9393C9.72035 10.7441 10.0369 10.7441 10.2322 10.9393ZM11.6464 12.3536C11.8417 12.5488 11.8417 12.8654 11.6464 13.0607C11.4511 13.2559 11.1346 13.2559 10.9393 13.0607C10.744 12.8654 10.744 12.5488 10.9393 12.3536C11.1346 12.1583 11.4511 12.1583 11.6464 12.3536ZM13.0606 14.4749C13.2559 14.2796 13.2559 13.963 13.0606 13.7678C12.8654 13.5725 12.5488 13.5725 12.3535 13.7678C12.1583 13.963 12.1583 14.2796 12.3535 14.4749C12.5488 14.6701 12.8654 14.6701 13.0606 14.4749ZM11.6464 9.52513C11.8417 9.72039 11.8417 10.037 11.6464 10.2322C11.4511 10.4275 11.1346 10.4275 10.9393 10.2322C10.744 10.037 10.744 9.72039 10.9393 9.52513C11.1346 9.32986 11.4511 9.32986 11.6464 9.52513ZM13.0606 11.6464C13.2559 11.4512 13.2559 11.1346 13.0606 10.9393C12.8654 10.7441 12.5488 10.7441 12.3535 10.9393C12.1583 11.1346 12.1583 11.4512 12.3535 11.6464C12.5488 11.8417 12.8654 11.8417 13.0606 11.6464ZM14.4748 12.3536C14.6701 12.5488 14.6701 12.8654 14.4748 13.0607C14.2796 13.2559 13.963 13.2559 13.7677 13.0607C13.5725 12.8654 13.5725 12.5488 13.7677 12.3536C13.963 12.1583 14.2796 12.1583 14.4748 12.3536Z" fill="#F87171"/>
</svg>
