<svg width="24" height="24" viewBox="0 0 24 24" fill="none" xmlns="http://www.w3.org/2000/svg">
<path d="M6 3C5.44772 3 5 3.44772 5 4V20C5 20.5523 5.44772 21 6 21H18C18.5523 21 19 20.5523 19 20V8C19 7.69622 18.8619 7.4089 18.6247 7.21913L13.6247 3.21913C13.4474 3.07728 13.2271 3 13 3H6Z" stroke="#F87171" stroke-width="2" stroke-linejoin="round"/>
<path d="M12 4V9H18" stroke="#F87171" stroke-width="2" stroke-linejoin="round"/>
<path d="M15.8281 16.0177C15.2305 15.3787 13.5987 15.639 13.208 15.6864C12.6335 15.1183 12.2428 14.4319 12.1049 14.1952C12.3118 13.5562 12.4496 12.9171 12.4726 12.2308C12.4726 11.639 12.2428 11 11.5993 11C11.3695 11 11.1626 11.142 11.0477 11.3313C10.7719 11.8284 10.8868 12.8225 11.3235 13.8403C11.0707 14.574 10.8408 15.284 10.1973 16.5385C9.53085 16.8224 8.12891 17.4852 8.01398 18.1953C7.96803 18.4083 8.03695 18.6214 8.19783 18.787C8.35871 18.929 8.56554 19 8.77241 19C9.62275 19 10.4501 17.793 11.0247 16.7751C11.5073 16.6095 12.2658 16.3728 13.0242 16.2307C13.9205 17.0355 14.7019 17.1538 15.1156 17.1538C15.6672 17.1538 15.874 16.9171 15.943 16.7041C16.0578 16.4674 15.9889 16.2071 15.8281 16.0177ZM15.2535 16.4201C15.2305 16.5858 15.0237 16.7514 14.6559 16.6568C14.2193 16.5385 13.8286 16.3254 13.4839 16.0414C13.7826 15.994 14.4491 15.923 14.9317 16.0177C15.1156 16.065 15.2995 16.1834 15.2535 16.4201ZM11.4154 11.5443C11.4614 11.4733 11.5304 11.426 11.5993 11.426C11.8061 11.426 11.8521 11.6863 11.8521 11.8994C11.8291 12.3965 11.7371 12.8935 11.5763 13.3669C11.2315 12.4201 11.3005 11.7573 11.4154 11.5443ZM11.3695 16.1361C11.5533 15.7574 11.8062 15.0946 11.8981 14.8106C12.1049 15.1656 12.4496 15.5917 12.6335 15.781C12.6335 15.8047 11.921 15.9467 11.3695 16.1361ZM10.0135 17.0829C9.4849 17.9822 8.93329 18.5503 8.63451 18.5503C8.58856 18.5503 8.54256 18.5266 8.49661 18.503C8.42763 18.4556 8.40466 18.3846 8.42763 18.2899C8.49661 17.9586 9.09417 17.5089 10.0135 17.0829Z" fill="#F87171"/>
<path fill-rule="evenodd" clip-rule="evenodd" d="M10.8767 11.2275C11.0204 10.9908 11.2863 10.8 11.5993 10.8C12.002 10.8 12.2812 11.0064 12.4495 11.2918C12.6119 11.567 12.6726 11.914 12.6726 12.2308V12.2375C12.6499 12.9161 12.5184 13.5474 12.3225 14.1713C12.4806 14.4418 12.8143 14.9942 13.2807 15.4755C13.5178 15.4447 13.971 15.3868 14.4438 15.3947C14.7187 15.3993 15.0085 15.426 15.273 15.4964C15.5361 15.5665 15.7897 15.6838 15.9742 15.8811L15.9807 15.8881C16.1761 16.1182 16.2784 16.4568 16.1288 16.7788C16.0811 16.9182 15.9877 17.0647 15.8209 17.1755C15.6505 17.2885 15.4194 17.3538 15.1156 17.3538C14.6701 17.3538 13.8716 17.2277 12.9657 16.4457C12.289 16.5794 11.6193 16.7849 11.1611 16.9399C10.8784 17.4352 10.5332 17.9767 10.1508 18.4028C9.75934 18.8391 9.28867 19.2 8.77241 19.2C8.52056 19.2 8.26563 19.1136 8.06547 18.9369L8.05971 18.9318L8.05437 18.9263C7.8535 18.7195 7.75798 18.4421 7.8174 18.1582C7.85648 17.9262 7.99511 17.7179 8.16484 17.5391C8.33784 17.3569 8.55896 17.1888 8.79018 17.0392C9.22331 16.7589 9.71507 16.529 10.0521 16.3832C10.6256 15.257 10.8572 14.5825 11.088 13.91C11.0952 13.8892 11.1023 13.8684 11.1095 13.8475C10.9021 13.3481 10.7687 12.8524 10.7196 12.4127C10.669 11.9586 10.7053 11.5362 10.8728 11.2343L10.8767 11.2275ZM11.2206 11.4318C11.1138 11.6273 11.0704 11.9492 11.1172 12.3684C11.1634 12.7828 11.2948 13.2657 11.5063 13.7592L11.3884 13.4353C11.2095 12.9441 11.1359 12.5211 11.1236 12.1878C11.1116 11.863 11.1571 11.6019 11.2394 11.4493L11.2432 11.4423L11.2475 11.4356C11.3158 11.3301 11.4396 11.226 11.5993 11.226C11.6969 11.226 11.7839 11.2581 11.8538 11.3162C11.9202 11.3713 11.9618 11.4419 11.9885 11.5074C12.0404 11.635 12.0521 11.7842 12.0521 11.8994V11.9086C12.0282 12.424 11.9327 12.9396 11.7657 13.4312L11.5828 13.9693L11.5354 13.8391L11.5126 13.9054C11.4971 13.9503 11.4817 13.9951 11.4663 14.04C11.2291 14.7309 10.9859 15.4394 10.3753 16.6298L10.3423 16.6941L10.2757 16.7225C9.94565 16.8631 9.44107 17.0945 9.00746 17.375C8.79052 17.5154 8.59795 17.6638 8.45493 17.8145C8.30991 17.9672 8.23098 18.1063 8.21141 18.2273L8.20974 18.2375C8.17993 18.3757 8.22036 18.52 8.33599 18.6421C8.45681 18.7461 8.61307 18.8 8.77241 18.8C9.10649 18.8 9.47467 18.5574 9.85311 18.1357C10.2234 17.723 10.5654 17.1818 10.8505 16.6768L10.8879 16.6106L10.9598 16.5859C11.4464 16.4189 12.2152 16.1787 12.9874 16.0341L13.0844 16.016L13.1578 16.0819C14.0136 16.8503 14.7459 16.9538 15.1156 16.9538C15.3634 16.9538 15.5115 16.9007 15.5997 16.8422C15.6861 16.7848 15.7301 16.7123 15.7527 16.6425L15.757 16.6292L15.763 16.6167C15.834 16.4705 15.7999 16.2958 15.6787 16.1508C15.5644 16.0304 15.3911 15.9418 15.1701 15.883C15.1515 15.878 15.1326 15.8733 15.1135 15.8688C15.1872 15.9006 15.261 15.9455 15.3223 16.0086C15.4292 16.1187 15.4845 16.2716 15.4508 16.4531C15.4015 16.781 15.0353 16.9609 14.6061 16.8505L14.6036 16.8498C14.1368 16.7234 13.721 16.496 13.3567 16.1957L13.014 15.9134L13.134 15.8944L13.0674 15.8286C12.4927 15.2603 12.0979 14.5811 11.9476 14.3225C11.9421 14.3131 11.937 14.3042 11.9321 14.2959L11.8871 14.2187L11.9147 14.1336C12.117 13.5083 12.2501 12.8892 12.2726 12.2275C12.2722 11.9537 12.218 11.6866 12.105 11.4951C11.9976 11.3131 11.8401 11.2 11.5993 11.2C11.4538 11.2 11.3071 11.2917 11.2206 11.4318ZM11.5876 11.6467C11.5553 11.7134 11.5128 11.8879 11.5233 12.173C11.5279 12.2973 11.5425 12.4389 11.5709 12.5964C11.6139 12.3645 11.641 12.1298 11.652 11.8949C11.6517 11.7988 11.6404 11.7131 11.618 11.6582C11.6121 11.6437 11.6068 11.6348 11.6032 11.6297C11.5987 11.6335 11.5933 11.639 11.5876 11.6467ZM11.8455 14.3232L12.0709 14.7099C12.2683 15.0488 12.6026 15.4621 12.777 15.6417L12.8335 15.6999V15.781C12.8335 15.8449 12.8041 15.8886 12.7888 15.9076C12.7725 15.9279 12.7558 15.9406 12.7473 15.9466C12.7299 15.959 12.7137 15.9664 12.7069 15.9695C12.6909 15.9766 12.6743 15.9821 12.6623 15.9859C12.6363 15.9942 12.6018 16.0036 12.5639 16.0134C12.517 16.0256 12.4576 16.0404 12.3907 16.057C12.3487 16.0675 12.3038 16.0786 12.2571 16.0904C12.0105 16.1524 11.7016 16.2335 11.4344 16.3252L10.9795 16.4815L11.1896 16.0487C11.3685 15.6802 11.618 15.0264 11.7078 14.749L11.8455 14.3232ZM11.9514 15.2583C11.886 15.4329 11.8086 15.63 11.7311 15.8156C11.8836 15.7727 12.0317 15.7346 12.1596 15.7025C12.1993 15.6925 12.2368 15.6831 12.2718 15.6744C12.1694 15.5513 12.0568 15.4067 11.9514 15.2583ZM14.0348 16.1823C14.2449 16.3038 14.4689 16.3988 14.707 16.4634C15.0098 16.5409 15.0553 16.3927 15.0553 16.3927L15.0568 16.3819C15.0628 16.3511 15.0602 16.3326 15.057 16.3219C15.0537 16.3111 15.0475 16.2998 15.0353 16.2872C15.0083 16.2595 14.9577 16.2317 14.8873 16.2128C14.6316 16.1636 14.3143 16.1641 14.0348 16.1823ZM10.5103 16.6322L10.1859 17.1842C9.9163 17.6429 9.63751 18.0231 9.38293 18.2915C9.25588 18.4254 9.13073 18.5359 9.01185 18.6144C8.89744 18.6899 8.76711 18.7503 8.63451 18.7503C8.5378 18.7503 8.4517 18.7052 8.4129 18.6849C8.41002 18.6833 8.40739 18.682 8.40505 18.6808L8.3938 18.675L8.38338 18.6678C8.31717 18.6223 8.26409 18.5583 8.23737 18.4758C8.21187 18.3971 8.21556 18.3176 8.23251 18.246C8.25966 18.1194 8.33171 18.0005 8.42205 17.8929C8.51467 17.7825 8.63676 17.6719 8.78078 17.5626C9.06892 17.3439 9.46184 17.1181 9.92939 16.9014L10.5103 16.6322ZM8.72844 18.15C8.65938 18.2323 8.63132 18.2928 8.62344 18.3307L8.62209 18.3372C8.62171 18.3388 8.62126 18.3402 8.62097 18.3416C8.62804 18.345 8.63339 18.3473 8.63758 18.3489C8.63865 18.3493 8.63958 18.3497 8.64037 18.3499C8.66152 18.3478 8.71068 18.3339 8.79153 18.2805C8.87662 18.2244 8.97844 18.1367 9.09271 18.0162C9.19796 17.9052 9.31029 17.7702 9.4262 17.6136C9.2718 17.7049 9.13663 17.7947 9.02258 17.8812C8.89368 17.979 8.79599 18.0695 8.72844 18.15Z" fill="#F87171"/>
</svg>
