<svg width="24" height="24" viewBox="0 0 24 24" fill="none" xmlns="http://www.w3.org/2000/svg">
<path d="M9.17181 3C8.90414 3.04484 8.67452 3.18545 8.4221 3.26926C7.88873 3.61204 7.46013 4.13838 7.35034 4.77219C7.01646 5.84454 6.0348 6.54947 5.692 7.61281C5.40974 8.29471 4.9044 8.83196 4.43247 9.37954C4.10722 9.78562 4.14284 10.3302 3.99954 10.805C3.85632 10.9342 3.75463 11.2305 4.02242 11.2626C4.01516 11.504 3.84975 11.7727 4.02418 12.0035C4.15969 12.5077 4.39932 12.9905 4.63661 13.4572C4.68379 13.6271 4.97434 13.8244 5.01851 13.5504C5.05382 13.1596 5.22294 12.6949 4.94811 12.3502C4.772 11.9082 4.91687 11.4416 4.99915 11.0004C4.95934 10.7282 5.05647 10.4176 5.20329 10.2014C5.35488 10.283 5.30331 10.557 5.36339 10.704C5.50819 11.7616 5.55201 12.8612 5.28425 13.9042C5.18457 14.3128 5.3484 14.7452 5.25257 15.1466C4.90862 15.5204 5.17505 16.0569 5.20505 16.4912C5.37221 17.2969 5.28071 18.1337 5.03963 18.904C5.03428 19.1806 4.93757 19.4331 4.87948 19.6977C4.97583 20.0305 5.43334 20.1475 5.73829 20.069C5.92817 19.9409 6.29013 20.1851 6.38065 19.8807C6.4081 19.5503 6.08525 19.3031 6.11139 18.9673C5.91017 18.0461 5.75894 17.0865 5.95441 16.1471C6.05519 15.6014 6.01578 15.0178 6.16946 14.492C6.50868 14.0661 6.74104 13.5624 6.88573 13.0348C7.08739 12.5963 7.21223 12.0637 7.3345 11.6463C7.86097 12.4925 8.17738 13.5066 8.03971 14.5165C8.0575 14.9104 7.81113 15.3718 8.14212 15.6828C8.54342 16.3105 9.04986 16.9025 9.25276 17.6263C9.26884 17.9289 8.861 17.9337 8.75296 18.1789C8.51333 18.5273 8.53872 18.9711 8.51185 19.3739C8.73805 19.4617 9.07014 19.6955 9.26156 19.4143C9.44846 19.2172 9.52816 18.8724 9.72265 18.7209C9.84252 18.9479 9.7307 19.3156 10.0394 19.4266C10.4823 19.5855 10.9932 19.6296 11.4526 19.5199C11.6886 19.3153 11.3659 19.0266 11.1657 18.948C10.8337 18.8496 10.6388 18.5908 10.5251 18.2775C10.4208 18.1044 10.3462 17.902 10.5498 17.7688C11.0289 17.1877 11.6879 16.803 12.1953 16.2589C12.5014 15.8336 12.4207 15.2412 12.3044 14.7612C12.1609 14.4812 12.0572 14.1874 12.1354 13.869C12.1887 13.5949 12.0008 13.3117 12.0122 13.0682C12.2808 13.0508 12.5946 13.0606 12.8341 13.1509C12.899 13.5842 12.8027 14.0463 12.9274 14.4656C13.1307 14.6597 13.2269 14.9663 13.2406 15.2452C13.4305 15.4788 13.3106 15.8224 13.3621 16.1075C13.2406 16.5721 13.4133 17.0304 13.5556 17.4714C13.816 18.3105 13.7059 19.215 13.9287 20.0567C14.098 20.2957 13.8141 20.6947 14.1452 20.8521C14.6574 21.0435 15.3434 21.0983 15.7801 20.7131C15.9132 20.4471 15.5204 20.2943 15.3314 20.2098C15.0657 20.152 14.8641 19.9664 14.8077 19.6916C14.4036 18.8577 14.2063 17.9224 14.3475 16.9931C14.368 16.5453 14.4295 16.1025 14.5447 15.6764C14.5988 15.2408 14.6056 14.7929 14.733 14.3793C14.8078 13.7965 14.6808 13.1825 14.8439 12.6159C15.1075 12.7834 15.3903 12.9528 15.7027 12.9767C15.9057 13.1307 16.124 12.9771 16.2342 12.7919C16.3971 12.5681 16.5929 13.1659 16.7419 12.8628C16.9267 12.6532 17.1651 12.5037 17.3746 12.3396C17.4933 12.1461 17.737 12.1521 17.9078 12.0633C18.0264 11.9084 17.8314 11.6634 18.0504 11.5442C18.1251 11.3457 18.3155 11.6074 18.4023 11.4192C18.4946 11.2146 18.4799 10.9327 18.7262 10.8438C19.1732 10.4886 19.0394 9.84102 19.1195 9.33923C19.1143 8.83879 19.2134 8.30849 19.0911 7.82621C18.9477 7.44447 18.7121 7.0564 18.617 6.67637C19.0528 6.32858 19.8235 6.61683 20.12 6.04458C20.2484 5.62594 19.8444 5.26853 19.5779 5.00273C19.3188 4.75858 18.9102 4.87486 18.5934 4.75482C18.3474 4.6714 17.9651 4.76375 17.9008 4.42902C17.7977 4.16435 17.475 4.16648 17.3024 3.96617C17.0261 3.82389 16.7754 4.14904 16.5034 4.17559C16.2007 4.38691 15.8538 4.59303 15.6605 4.91474C15.5778 5.12455 15.6492 5.39856 15.4229 5.52894C15.0452 5.96321 15.2038 6.60743 15.1677 7.1357C15.1725 7.37705 15.1662 7.62145 15.3032 7.81853C15.3239 8.11471 15.5933 8.3091 15.5453 8.61398C15.5077 8.81418 15.6838 9.24168 15.3525 9.14899C15.2516 8.98064 15.2666 8.69426 15.1726 8.4967C14.8955 7.64467 14.4756 6.72125 13.6366 6.29448C13.0447 5.86099 12.6222 5.23097 12.3765 4.54693C12.1441 4.19989 11.7163 3.98608 11.5336 3.61068C11.2934 3.50837 11.0035 3.54378 10.7645 3.41005C10.4677 3.27839 10.1994 3.04001 9.84413 3.0821C9.60984 3.09934 9.39384 3.01768 9.17181 3ZM9.60473 12.5579C9.80998 12.626 9.74669 12.9459 9.8212 13.1122C9.91732 13.3457 9.83612 13.7599 10.1081 13.8778C10.2615 14.1318 10.1663 14.4756 10.321 14.7102C10.2853 14.8767 10.2308 15.1879 10.4899 15.1924C10.7223 15.1723 10.7859 15.432 10.9493 15.5479C11.1004 15.7592 11.2692 16.0587 11.0355 16.2818C10.809 16.5566 10.6539 16.9882 10.2365 16.9998C10.0646 17.0182 9.82706 17.2861 9.74904 17.0103C9.45166 16.5085 9.19869 15.9745 9.25628 15.3772C9.26077 14.4393 9.47444 13.5177 9.58186 12.5931C9.57668 12.5672 9.58561 12.5562 9.60473 12.5579Z" fill="#A855F7"/>
</svg>
