<svg width="24" height="24" viewBox="0 0 24 24" fill="none" xmlns="http://www.w3.org/2000/svg">
<path d="M17.1309 3C19.2677 3.00015 20.9998 4.73234 21 6.86914V17.1309C20.9999 19.2677 19.2677 20.9999 17.1309 21H6.86914C4.73234 20.9998 3.00015 19.2677 3 17.1309V6.86914C3.00016 4.73234 4.73234 3.00016 6.86914 3H17.1309Z" stroke="#60A5FA" stroke-width="2"/>
<path d="M9.58711 8.24701C11.6787 8.24701 12.8566 9.22674 12.8566 10.867C12.8566 12.7824 11.2604 13.553 9.76322 13.553H8.7505V15.6226H6.70294V8.24701H9.58711ZM8.7505 9.99733V11.8027H9.65316C10.2806 11.8027 10.721 11.5495 10.721 10.911C10.721 10.3276 10.3467 9.99733 9.6972 9.99733H8.7505Z" fill="#60A5FA"/>
<path d="M13.2727 15.2593L13.2837 13.553C13.8672 13.9383 14.6818 14.1805 15.2432 14.1805C15.6285 14.1805 15.8046 14.0704 15.8046 13.8723C15.8046 13.6521 15.5625 13.564 15.1001 13.4209C14.2084 13.1567 13.2287 12.7935 13.2287 11.6266C13.2287 10.4377 14.2084 9.77722 15.6285 9.77722C16.3 9.77722 16.8504 9.87627 17.3348 10.0855L17.3237 11.7147C16.9385 11.4835 16.1789 11.2743 15.6835 11.2743C15.3202 11.2743 15.1772 11.3844 15.1772 11.5495C15.1772 11.7477 15.3533 11.8027 15.8817 11.9679C16.9055 12.2761 17.7641 12.6063 17.7641 13.8062C17.7641 14.9511 16.8284 15.7216 15.3643 15.7216C14.5937 15.7216 13.8672 15.5896 13.2727 15.2593Z" fill="#60A5FA"/>
</svg>
