<svg width="24" height="24" viewBox="0 0 24 24" fill="none" xmlns="http://www.w3.org/2000/svg">
<path d="M11.9892 4.08863C10.444 4.56029 9.4549 5.75352 9.46546 7.1333C9.47602 8.07662 9.7752 8.91434 10.5285 10.097C11.0107 10.8573 11.9786 12.3145 12.0068 12.3251C12.0209 12.3321 12.1546 12.2688 12.2989 12.1878C13.3232 11.6176 13.9744 10.7165 14.1152 9.68167C14.1363 9.53031 14.1539 9.07977 14.1539 8.68555C14.1539 7.89359 14.168 7.82671 14.3651 7.68591C14.5939 7.52048 14.8719 7.57328 15.055 7.81263L15.1571 7.94286L15.1676 8.66795C15.1747 9.09033 15.1641 9.53031 15.1395 9.71687C15.055 10.3962 14.8262 11.0192 14.4531 11.5929C14.2278 11.9379 13.6541 12.5046 13.2563 12.7756C12.9008 13.0185 12.2039 13.4021 11.9857 13.4761C11.8026 13.5359 11.6266 13.4972 11.4788 13.3599C11.3873 13.2719 9.85616 10.9523 9.44786 10.2765C9.0114 9.55847 8.67701 8.75595 8.5327 8.0731C8.42358 7.55568 8.4095 6.79539 8.50102 6.36949C8.58901 5.97527 8.74389 5.56345 8.92692 5.25722C9.0114 5.11291 9.07475 4.98971 9.06771 4.98267C9.06067 4.97563 8.89876 4.99323 8.70869 5.02843C5.98081 5.48953 3.75626 7.61552 3.16141 10.3293C3.01005 11.0051 2.98542 11.3078 3.00654 12.1244C3.02765 12.9234 3.06989 13.2015 3.25996 13.8316C3.47467 14.5391 3.76682 15.1621 4.23848 15.9118C4.57639 16.4503 4.76294 16.8199 4.87557 17.1754C5.06917 17.7703 5.08325 17.904 5.10436 19.1958C5.11844 20.0159 5.13956 20.4313 5.16772 20.4806C5.18884 20.5193 5.25572 20.5967 5.31908 20.6566L5.42819 20.7621H8.02232L8.11735 20.6742C8.31447 20.4911 8.31095 20.5087 8.31095 19.0022V17.6119H10.4193L10.4405 20.4982L10.5742 20.6284L10.7044 20.7621H13.3021L13.3971 20.6742C13.5696 20.5122 13.5872 20.4383 13.6259 19.664C13.6928 18.2983 13.8758 17.3021 14.2771 16.1406C14.4918 15.5141 14.6361 15.1797 15.0937 14.2575C15.4844 13.469 15.495 13.4549 15.59 13.4725C15.6428 13.4831 15.8751 13.5253 16.1074 13.5641C16.6706 13.6556 16.8466 13.7119 17.1035 13.8773C17.371 14.0533 17.6033 14.356 17.716 14.6799C17.7864 14.8946 17.7969 14.9826 17.7969 15.5352C17.7969 16.13 17.7934 16.1547 17.7125 16.2708C17.6033 16.4222 17.357 16.5348 17.1986 16.5067C17.1352 16.4926 17.0155 16.4327 16.9311 16.3729C16.7269 16.2251 16.4348 16.1934 16.2588 16.3025C16.0546 16.4292 14.6185 17.9005 14.5622 18.0413C14.4531 18.3018 14.5129 18.4989 14.7769 18.7488C15.6956 19.6217 17.1634 19.9455 18.3777 19.5443C19.1063 19.3049 19.842 18.7101 20.3383 17.9533C20.6058 17.552 20.7431 17.2599 20.9014 16.746L21 16.4327V12.8249C21 9.50568 20.9965 9.19241 20.9366 8.92842C20.6058 7.39377 19.6202 6.12662 18.2123 5.41913C17.5435 5.08475 16.6776 4.90523 15.7378 4.90523H15.3577L14.9705 4.66236C14.1821 4.17663 13.6998 4.02527 12.8692 4.00415C12.3377 3.99359 12.2884 3.99711 11.9892 4.08863ZM17.5646 9.26281C17.804 9.4388 17.8603 9.70983 17.716 9.94918C17.452 10.368 16.7938 10.1744 16.7938 9.67463C16.7938 9.28745 17.2654 9.03754 17.5646 9.26281Z" fill="#A855F7"/>
</svg>
