<svg width="24" height="24" viewBox="0 0 24 24" fill="none" xmlns="http://www.w3.org/2000/svg">
<path d="M16.5714 6.46548L17.0106 4.07042C16.3436 3.62575 15.6188 3.27146 14.8578 3.01659L13.2364 4.83322C12.4465 4.68861 11.6367 4.68319 10.8449 4.81876L9.24342 2.98044C8.47881 3.22446 7.75035 3.56971 7.07612 4.00715L7.48464 6.40763C6.87909 6.93545 6.36935 7.56449 5.98072 8.26945L3.5477 8.37429C3.2621 9.12444 3.07773 9.90894 3 10.7079L5.13296 11.8846C5.1673 12.6872 5.34264 13.4771 5.64993 14.22L4.2147 16.1885C4.62322 16.879 5.12211 17.5135 5.69693 18.072L7.94738 17.1393C8.5963 17.6129 9.32476 17.969 10.0966 18.1913L10.7401 20.5412C11.5354 20.6533 12.3416 20.6569 13.137 20.5557L13.8094 18.2148C14.5849 18.0033 15.3169 17.6563 15.9713 17.1899L18.2091 18.1516C18.7911 17.6002 19.2991 16.973 19.7148 16.2861L18.3049 14.2996C18.6212 13.5621 18.8074 12.7722 18.8526 11.9714L21 10.8218C20.9313 10.0228 20.7578 9.23471 20.4812 8.48094L18.05 8.34537C17.6704 7.6368 17.1697 7.00052 16.5696 6.46548H16.5714Z" fill="#0D9488"/>
<path d="M12.1391 17.208C15.2828 17.208 17.8312 14.6596 17.8312 11.5159C17.8312 8.37224 15.2828 5.82379 12.1391 5.82379C8.99546 5.82379 6.44702 8.37224 6.44702 11.5159C6.44702 14.6596 8.99546 17.208 12.1391 17.208Z" fill="#CCFBF1"/>
<path d="M8.11533 14.1947C9.60117 16.7651 12.6018 17.6237 11.8842 12.3022C11.8281 11.8882 11.6022 11.5159 11.2605 11.2755C6.80302 8.13749 6.49392 11.3912 8.11533 14.1947ZM10.9026 12.7035C11.0292 12.6727 11.1268 12.727 11.172 12.8535C11.7631 14.5093 10.702 15.1112 9.95908 14.7406C9.27762 14.4008 9.27761 13.112 10.9026 12.7035ZM10.5158 11.7183C10.6026 11.8214 10.6008 11.9334 10.5104 12.0256C9.3463 13.2313 8.22921 12.586 8.2744 11.8286C8.32321 11.0007 9.37522 10.3807 10.5158 11.7183Z" fill="#2DD4BF"/>
<path d="M11.1604 15.0299C11.8209 14.6486 11.7887 13.3561 11.0883 12.1431C10.388 10.9301 9.28486 10.256 8.62433 10.6373C7.96381 11.0187 7.99607 12.3111 8.69638 13.5241C9.39669 14.7371 10.4999 15.4113 11.1604 15.0299Z" fill="#2DD4BF"/>
<path d="M11.8299 6.69145C8.86185 6.69325 6.61682 8.86236 11.5841 10.9013C11.9709 11.0604 12.4047 11.0495 12.7843 10.8742C17.7317 8.58399 15.0673 6.68783 11.8281 6.68964L11.8299 6.69145ZM11.7287 9.85112C11.6925 9.97584 11.5967 10.0337 11.4648 10.0102C9.73492 9.69386 9.74395 8.47373 10.4363 8.01641C11.0707 7.59705 12.1878 8.24055 11.7287 9.85292V9.85112ZM12.7753 10.0084C12.6433 10.0319 12.5457 9.97584 12.5114 9.84931C12.0486 8.23874 13.1657 7.59343 13.8002 8.01099C14.4925 8.46831 14.5052 9.68843 12.7753 10.0066V10.0084Z" fill="#2DD4BF"/>
<path d="M12.1191 10.2922C13.5198 10.2922 14.6552 9.67387 14.6552 8.91117C14.6552 8.14846 13.5198 7.53017 12.1191 7.53017C10.7185 7.53017 9.58308 8.14846 9.58308 8.91117C9.58308 9.67387 10.7185 10.2922 12.1191 10.2922Z" fill="#2DD4BF"/>
<path d="M16.4718 13.6615C17.954 11.0893 17.1985 8.0616 12.947 11.3442C12.6162 11.5991 12.4065 11.9805 12.3704 12.398C11.8805 17.828 14.854 16.4687 16.4718 13.6633V13.6615ZM13.7857 11.9931C13.6954 11.8991 13.6935 11.787 13.7803 11.6858C14.9191 10.3464 15.9711 10.9646 16.0217 11.7925C16.0687 12.5517 14.9516 13.197 13.7857 11.9931ZM13.126 12.821C13.1712 12.6945 13.2688 12.6402 13.3953 12.671C15.0203 13.0759 15.0221 14.3665 14.3425 14.7063C13.6014 15.0769 12.5385 14.4785 13.126 12.821Z" fill="#2DD4BF"/>
<path d="M15.5989 13.4922C16.2992 12.2792 16.3314 10.9867 15.6709 10.6054C15.0104 10.224 13.9072 10.8982 13.2069 12.1112C12.5066 13.3241 12.4743 14.6166 13.1349 14.9979C13.7954 15.3793 14.8985 14.7051 15.5989 13.4922Z" fill="#2DD4BF"/>
</svg>
