<svg width="24" height="24" viewBox="0 0 24 24" fill="none" xmlns="http://www.w3.org/2000/svg">
<path d="M20 7.76821C20 8.3205 19.5523 8.76821 19 8.76821H16.2318C15.6795 8.76821 15.2318 8.3205 15.2318 7.76821V5C15.2318 4.44771 15.6795 4 16.2318 4H19C19.5523 4 20 4.44772 20 5V7.76821Z" fill="#F59E0B"/>
<path d="M14.3841 7.76821C14.3841 8.3205 13.9364 8.76821 13.3841 8.76821H10.6159C10.0636 8.76821 9.61588 8.3205 9.61588 7.76821V5C9.61588 4.44771 10.0636 4 10.6159 4H13.3841C13.9364 4 14.3841 4.44772 14.3841 5V7.76821Z" fill="#F59E0B"/>
<path d="M8.76821 7.76821C8.76821 8.3205 8.3205 8.76821 7.76821 8.76821H5C4.44771 8.76821 4 8.3205 4 7.76821V5C4 4.44771 4.44772 4 5 4H7.76821C8.3205 4 8.76821 4.44772 8.76821 5V7.76821Z" fill="#F59E0B"/>
<path d="M20 13.3841C20 13.9363 19.5523 14.3841 19 14.3841H16.2318C15.6795 14.3841 15.2318 13.9363 15.2318 13.3841V10.6158C15.2318 10.0636 15.6795 9.61584 16.2318 9.61584H19C19.5523 9.61584 20 10.0636 20 10.6158V13.3841Z" fill="#F59E0B"/>
<path d="M14.3841 13.3841C14.3841 13.9363 13.9364 14.3841 13.3841 14.3841H10.6159C10.0636 14.3841 9.61588 13.9363 9.61588 13.3841V10.6158C9.61588 10.0636 10.0636 9.61584 10.6159 9.61584H13.3841C13.9364 9.61584 14.3841 10.0636 14.3841 10.6158V13.3841Z" fill="#71717A"/>
<path d="M14.3841 19C14.3841 19.5523 13.9364 20 13.3841 20H10.6159C10.0636 20 9.61588 19.5523 9.61588 19V16.2318C9.61588 15.6795 10.0636 15.2318 10.6159 15.2318H13.3841C13.9364 15.2318 14.3841 15.6795 14.3841 16.2318V19Z" fill="#71717A"/>
<path d="M20 19C20 19.5523 19.5523 20 19 20H16.2318C15.6795 20 15.2318 19.5523 15.2318 19V16.2318C15.2318 15.6795 15.6795 15.2318 16.2318 15.2318H19C19.5523 15.2318 20 15.6795 20 16.2318V19Z" fill="#71717A"/>
<path d="M8.76821 19C8.76821 19.5523 8.3205 20 7.76821 20H5C4.44771 20 4 19.5523 4 19V16.2318C4 15.6795 4.44772 15.2318 5 15.2318H7.76821C8.3205 15.2318 8.76821 15.6795 8.76821 16.2318V19Z" fill="#71717A"/>
</svg>
