<svg width="24" height="24" viewBox="0 0 24 24" fill="none" xmlns="http://www.w3.org/2000/svg">
<path d="M20.7986 12C20.7986 14.3335 19.8716 16.5715 18.2215 18.2215C16.5715 19.8716 14.3335 20.7986 12 20.7986C9.66646 20.7986 7.42851 19.8716 5.77846 18.2215C4.12841 16.5715 3.20142 14.3335 3.20142 12C3.20142 9.66648 4.12841 7.42853 5.77846 5.77847C7.42851 4.12842 9.66646 3.20143 12 3.20143C14.3335 3.20143 16.5715 4.12842 18.2215 5.77847C19.8716 7.42853 20.7986 9.66648 20.7986 12" stroke="#F87171" stroke-width="2" stroke-linecap="round"/>
<path d="M19.772 15.8984H4.22797L11.9998 4.67896L19.772 15.8984Z" stroke="#F87171" stroke-width="2" stroke-linecap="square" stroke-linejoin="round"/>
<path d="M8.88483 9.17352H15.1151V15.4038H8.88483V9.17352Z" stroke="#F87171" stroke-width="2" stroke-linecap="square" stroke-linejoin="round"/>
</svg>
