<svg width="24" height="24" viewBox="0 0 24 24" fill="none" xmlns="http://www.w3.org/2000/svg">
<path d="M9.57143 20.1428H4.42857C4.19188 20.1428 4 20.3347 4 20.5714C4 20.8081 4.19188 21 4.42857 21H9.57143C9.80812 21 10 20.8081 10 20.5714C10 20.3347 9.80812 20.1428 9.57143 20.1428Z" fill="#F87171"/>
<path d="M9.57142 18.4286H7.85713C7.62044 18.4286 7.42856 18.6205 7.42856 18.8572C7.42856 19.0939 7.62044 19.2857 7.85713 19.2857H9.57142C9.80811 19.2857 9.99999 19.0939 9.99999 18.8572C9.99999 18.6205 9.80811 18.4286 9.57142 18.4286Z" fill="#FBBF24"/>
<path d="M6.14286 18.4286H4.42857C4.19188 18.4286 4 18.6205 4 18.8572C4 19.0939 4.19188 19.2857 4.42857 19.2857H6.14286C6.37955 19.2857 6.57143 19.0939 6.57143 18.8572C6.57143 18.6205 6.37955 18.4286 6.14286 18.4286Z" fill="#2DD4BF"/>
<path d="M9.57143 16.7142H4.42857C4.19188 16.7142 4 16.9061 4 17.1428C4 17.3795 4.19188 17.5714 4.42857 17.5714H9.57143C9.80812 17.5714 10 17.3795 10 17.1428C10 16.9061 9.80812 16.7142 9.57143 16.7142Z" fill="#C084FC"/>
<path d="M14.7143 15H7.00001C6.76332 15 6.57144 15.1919 6.57144 15.4286C6.57144 15.6653 6.76332 15.8571 7.00001 15.8571H14.7143C14.951 15.8571 15.1429 15.6653 15.1429 15.4286C15.1429 15.1919 14.951 15 14.7143 15Z" fill="#FBBF24"/>
<path d="M5.28571 15H4.42857C4.19188 15 4 15.1919 4 15.4286C4 15.6653 4.19188 15.8571 4.42857 15.8571H5.28571C5.52241 15.8571 5.71429 15.6653 5.71429 15.4286C5.71429 15.1919 5.52241 15 5.28571 15Z" fill="#C084FC"/>
<path d="M17.2857 13.2858H14.7143C14.4776 13.2858 14.2857 13.4776 14.2857 13.7143C14.2857 13.951 14.4776 14.1429 14.7143 14.1429H17.2857C17.5224 14.1429 17.7143 13.951 17.7143 13.7143C17.7143 13.4776 17.5224 13.2858 17.2857 13.2858Z" fill="#C084FC"/>
<path d="M13 13.2858H9.57142C9.33473 13.2858 9.14285 13.4776 9.14285 13.7143C9.14285 13.951 9.33473 14.1429 9.57142 14.1429H13C13.2367 14.1429 13.4286 13.951 13.4286 13.7143C13.4286 13.4776 13.2367 13.2858 13 13.2858Z" fill="#F87171"/>
<path d="M7.85714 13.2858H4.42857C4.19188 13.2858 4 13.4776 4 13.7143C4 13.951 4.19188 14.1429 4.42857 14.1429H7.85714C8.09384 14.1429 8.28571 13.951 8.28571 13.7143C8.28571 13.4776 8.09384 13.2858 7.85714 13.2858Z" fill="#2DD4BF"/>
<path d="M18.1429 11.5714H11.2857C11.049 11.5714 10.8571 11.7633 10.8571 12C10.8571 12.2367 11.049 12.4286 11.2857 12.4286H18.1429C18.3796 12.4286 18.5714 12.2367 18.5714 12C18.5714 11.7633 18.3796 11.5714 18.1429 11.5714Z" fill="#2DD4BF"/>
<path d="M9.57144 11.5714H7.00001C6.76332 11.5714 6.57144 11.7633 6.57144 12C6.57144 12.2367 6.76332 12.4286 7.00001 12.4286H9.57144C9.80814 12.4286 10 12.2367 10 12C10 11.7633 9.80814 11.5714 9.57144 11.5714Z" fill="#FBBF24"/>
<path d="M5.28571 11.5714H4.42857C4.19188 11.5714 4 11.7633 4 12C4 12.2367 4.19188 12.4286 4.42857 12.4286H5.28571C5.52241 12.4286 5.71429 12.2367 5.71429 12C5.71429 11.7633 5.52241 11.5714 5.28571 11.5714Z" fill="#F87171"/>
<path d="M19 9.85718H14.7143C14.4776 9.85718 14.2857 10.0491 14.2857 10.2857C14.2857 10.5224 14.4776 10.7143 14.7143 10.7143H19C19.2367 10.7143 19.4286 10.5224 19.4286 10.2857C19.4286 10.0491 19.2367 9.85718 19 9.85718Z" fill="#FBBF24"/>
<path d="M7.85714 9.85718H4.42857C4.19188 9.85718 4 10.0491 4 10.2857C4 10.5224 4.19188 10.7143 4.42857 10.7143H7.85714C8.09384 10.7143 8.28571 10.5224 8.28571 10.2857C8.28571 10.0491 8.09384 9.85718 7.85714 9.85718Z" fill="#C084FC"/>
<path d="M19 8.14282H14.7143C14.4776 8.14282 14.2857 8.3347 14.2857 8.57139C14.2857 8.80809 14.4776 8.99997 14.7143 8.99997H19C19.2367 8.99997 19.4286 8.80809 19.4286 8.57139C19.4286 8.3347 19.2367 8.14282 19 8.14282Z" fill="#F87171"/>
<path d="M7.85714 8.14282H4.42857C4.19188 8.14282 4 8.3347 4 8.57139C4 8.80809 4.19188 8.99997 4.42857 8.99997H7.85714C8.09384 8.99997 8.28571 8.80809 8.28571 8.57139C8.28571 8.3347 8.09384 8.14282 7.85714 8.14282Z" fill="#FBBF24"/>
<path d="M18.1429 6.42859H17.2857C17.049 6.42859 16.8571 6.62047 16.8571 6.85716C16.8571 7.09385 17.049 7.28573 17.2857 7.28573H18.1429C18.3796 7.28573 18.5714 7.09385 18.5714 6.85716C18.5714 6.62047 18.3796 6.42859 18.1429 6.42859Z" fill="#2DD4BF"/>
<path d="M15.5714 6.42859H12.1429C11.9062 6.42859 11.7143 6.62047 11.7143 6.85716C11.7143 7.09385 11.9062 7.28573 12.1429 7.28573H15.5714C15.8081 7.28573 16 7.09385 16 6.85716C16 6.62047 15.8081 6.42859 15.5714 6.42859Z" fill="#C084FC"/>
<path d="M10.4286 6.42859H4.42857C4.19188 6.42859 4 6.62047 4 6.85716C4 7.09385 4.19188 7.28573 4.42857 7.28573H10.4286C10.6653 7.28573 10.8571 7.09385 10.8571 6.85716C10.8571 6.62047 10.6653 6.42859 10.4286 6.42859Z" fill="#2DD4BF"/>
<path d="M17.2857 4.71436H8.71428C8.47758 4.71436 8.28571 4.90623 8.28571 5.14293C8.28571 5.37962 8.47758 5.5715 8.71428 5.5715H17.2857C17.5224 5.5715 17.7143 5.37962 17.7143 5.14293C17.7143 4.90623 17.5224 4.71436 17.2857 4.71436Z" fill="#FBBF24"/>
<path d="M7 4.71436H4.42857C4.19188 4.71436 4 4.90623 4 5.14293C4 5.37962 4.19188 5.5715 4.42857 5.5715H7C7.23669 5.5715 7.42857 5.37962 7.42857 5.14293C7.42857 4.90623 7.23669 4.71436 7 4.71436Z" fill="#F87171"/>
<path d="M14.7143 3H4.42857C4.19188 3 4 3.19188 4 3.42857C4 3.66526 4.19188 3.85714 4.42857 3.85714H14.7143C14.951 3.85714 15.1429 3.66526 15.1429 3.42857C15.1429 3.19188 14.951 3 14.7143 3Z" fill="#2DD4BF"/>
</svg>
