<svg width="23" height="24" viewBox="0 0 23 24" fill="none" xmlns="http://www.w3.org/2000/svg">
<path fill-rule="evenodd" clip-rule="evenodd" d="M4.1393 15.3551C3.95617 15.0663 3.95341 14.6983 4.13216 14.4067L10.8627 3.4279C11.237 2.81726 12.141 2.87066 12.4408 3.52111L18.5895 16.859C18.8176 17.3539 18.555 17.9361 18.033 18.0927L8.46831 20.9621C8.08349 21.0775 7.66884 20.9229 7.45373 20.5835L4.1393 15.3551ZM11.6392 6.63801C11.7041 6.31504 12.1466 6.26847 12.2773 6.57086L16.5185 16.3849C16.5983 16.5697 16.499 16.7828 16.3061 16.8403L9.69768 18.813C9.45478 18.8855 9.22209 18.6733 9.272 18.4247L11.6392 6.63801Z" fill="#14B8A6"/>
</svg>
