<svg width="24" height="24" viewBox="0 0 24 24" fill="none" xmlns="http://www.w3.org/2000/svg">
<path fill-rule="evenodd" clip-rule="evenodd" d="M10.405 7.74836C10.8192 8.46579 10.5734 9.38318 9.85599 9.79739L3.79381 13.2974C3.07637 13.7116 2.15899 13.4658 1.74478 12.7484C1.33056 12.0309 1.57637 11.1135 2.29381 10.6993L8.35599 7.19932C9.07343 6.7851 9.99082 7.03092 10.405 7.74836Z" fill="#F87171"/>
<path fill-rule="evenodd" clip-rule="evenodd" d="M1.74475 11.2517C2.15896 10.5342 3.07635 10.2884 3.79379 10.7026L9.85597 14.2026C10.5734 14.6168 10.8192 15.5342 10.405 16.2517C9.99079 16.9691 9.07341 17.2149 8.35597 16.8007L2.29379 13.3007C1.57635 12.8865 1.33054 11.9691 1.74475 11.2517Z" fill="#2563EB"/>
<path fill-rule="evenodd" clip-rule="evenodd" d="M22.2552 11.2517C21.841 10.5342 20.9236 10.2884 20.2062 10.7026L14.144 14.2026C13.4266 14.6168 13.1808 15.5342 13.595 16.2517C14.0092 16.9691 14.9266 17.2149 15.644 16.8007L21.7062 13.3007C22.4236 12.8865 22.6695 11.9691 22.2552 11.2517Z" fill="#F59E0B"/>
<path fill-rule="evenodd" clip-rule="evenodd" d="M13.595 7.74836C13.1808 8.46579 13.4266 9.38318 14.144 9.79739L20.2062 13.2974C20.9236 13.7116 21.841 13.4658 22.2552 12.7484C22.6694 12.0309 22.4236 11.1135 21.7062 10.6993L15.644 7.19932C14.9266 6.7851 14.0092 7.03092 13.595 7.74836Z" fill="#2DD4BF"/>
</svg>
