<svg width="24" height="24" viewBox="0 0 24 24" fill="none" xmlns="http://www.w3.org/2000/svg">
<path fill-rule="evenodd" clip-rule="evenodd" d="M18.7275 9.21718C18.7279 9.36968 18.7283 9.52668 18.7357 9.68799C18.747 9.88706 18.7874 10.0923 18.8289 10.3031C18.9012 10.6707 18.9768 11.055 18.9074 11.4519C18.8475 11.841 18.8056 12.2301 18.7644 12.6123C18.7197 13.0275 18.6758 13.4345 18.6108 13.8246C18.5641 14.1284 18.3463 14.4049 18.1302 14.6794C17.9132 14.9552 17.6977 15.2289 17.6586 15.5261C17.4556 17.1183 15.8634 17.852 12.1171 17.852V17.9768H12.1015V17.852C8.35509 17.852 6.70044 17.1183 6.4819 15.5261C6.44313 15.2392 6.21558 14.9676 5.9849 14.6924C5.75125 14.4136 5.51439 14.131 5.46726 13.8246C5.40224 13.4345 5.35838 13.0275 5.31364 12.6123C5.27246 12.2301 5.23053 11.841 5.17067 11.4519C5.10135 11.0558 5.17651 10.6786 5.24872 10.3162C5.29033 10.1073 5.33096 9.90337 5.34238 9.7036C5.35089 9.57878 5.35682 9.45704 5.36261 9.33822C5.38869 8.80322 5.41189 8.32714 5.65458 7.89286C6.40385 6.59724 8.3707 5.84796 12.1171 5.84796C15.8634 5.84796 17.7366 6.59724 18.4859 7.87725C18.7248 8.27139 18.726 8.72037 18.7275 9.21718ZM12.4422 11.5697C12.509 11.5525 12.537 11.437 12.5047 11.3118C12.4724 11.1866 12.3921 11.099 12.3253 11.1162C12.2585 11.1335 12.2305 11.2489 12.2628 11.3741C12.2951 11.4994 12.3754 11.5869 12.4422 11.5697ZM12.3294 11.8523C12.2055 11.877 12.1171 11.8947 12.1171 11.9202C12.1258 11.9553 12.1297 12.01 12.1341 12.0734C12.1376 12.1229 12.1414 12.1777 12.1483 12.2324C12.1483 12.2995 12.1492 12.39 12.1503 12.4933L12.1503 12.4934V12.4934C12.1541 12.8685 12.1596 13.4113 12.1289 13.6066C12.8162 13.6305 13.8498 14.5424 13.8498 15.6822V15.7447C13.8342 14.6364 12.523 13.731 12.1015 13.731C11.68 13.731 10.3688 14.6364 10.3532 15.7447V15.6822C10.3532 14.5619 11.3791 13.6378 12.0664 13.6069C12.0234 13.3718 12.0234 12.577 12.0234 12.2324C12.0234 12.1664 12.0291 12.0832 12.0336 12.0175L12.0336 12.0174C12.0366 11.9744 12.039 11.9387 12.039 11.9202C12.039 11.8804 11.4062 11.7162 11.2174 11.6681C11.3752 11.7072 11.8394 11.8158 11.9297 11.7641C12.0234 11.7017 12.0702 11.5144 12.0702 11.5144C12.0702 11.5144 12.1014 11.7017 12.2263 11.7641C12.3512 11.8422 12.9288 11.6549 12.9288 11.6549C12.7625 11.7657 12.5088 11.8164 12.3294 11.8523ZM11.1649 11.6549C11.1649 11.6549 11.1844 11.66 11.2174 11.6681L11.1649 11.6549ZM11.8285 11.3807C11.7902 11.5042 11.7057 11.5878 11.6398 11.5674C11.574 11.5469 11.5516 11.4302 11.59 11.3067C11.6283 11.1832 11.7127 11.0997 11.7786 11.1201C11.8445 11.1405 11.8668 11.2572 11.8285 11.3807ZM10.6029 12.7475C10.6029 12.8165 10.547 12.8724 10.478 12.8724C10.4091 12.8724 10.3531 12.8165 10.3531 12.7475C10.3531 12.6785 10.4091 12.6226 10.478 12.6226C10.547 12.6226 10.6029 12.6785 10.6029 12.7475ZM9.88486 13.4968C9.88486 13.5658 9.82895 13.6217 9.75998 13.6217C9.69101 13.6217 9.6351 13.5658 9.6351 13.4968C9.6351 13.4279 9.69101 13.3719 9.75998 13.3719C9.82895 13.3719 9.88486 13.4279 9.88486 13.4968ZM9.52582 12.8724C9.59479 12.8724 9.6507 12.8165 9.6507 12.7476C9.6507 12.6786 9.59479 12.6227 9.52582 12.6227C9.45685 12.6227 9.40094 12.6786 9.40094 12.7476C9.40094 12.8165 9.45685 12.8724 9.52582 12.8724ZM13.6468 12.7476C13.6468 12.8165 13.5909 12.8724 13.5219 12.8724C13.453 12.8724 13.3971 12.8165 13.3971 12.7476C13.3971 12.6786 13.453 12.6227 13.5219 12.6227C13.5909 12.6227 13.6468 12.6786 13.6468 12.7476ZM14.24 13.6217C14.309 13.6217 14.3649 13.5658 14.3649 13.4968C14.3649 13.4279 14.309 13.3719 14.24 13.3719C14.171 13.3719 14.1151 13.4279 14.1151 13.4968C14.1151 13.5658 14.171 13.6217 14.24 13.6217ZM14.599 12.7475C14.599 12.8165 14.5431 12.8724 14.4742 12.8724C14.4052 12.8724 14.3493 12.8165 14.3493 12.7475C14.3493 12.6785 14.4052 12.6226 14.4742 12.6226C14.5431 12.6226 14.599 12.6785 14.599 12.7475Z" fill="#FED7AA"/>
<path fill-rule="evenodd" clip-rule="evenodd" d="M17.7523 10.8119C17.7523 11.5706 17.1372 12.1856 16.3786 12.1856C15.6199 12.1856 15.0049 11.5706 15.0049 10.8119C15.0049 10.0532 15.6199 9.43823 16.3786 9.43823C17.1372 9.43823 17.7523 10.0532 17.7523 10.8119ZM16.3786 10.2031C16.3786 10.4014 16.2178 10.5621 16.0196 10.5621C15.8213 10.5621 15.6605 10.4014 15.6605 10.2031C15.6605 10.0048 15.8213 9.84406 16.0196 9.84406C16.2178 9.84406 16.3786 10.0048 16.3786 10.2031Z" fill="#18181B"/>
<path d="M14.2868 10.7495C14.2868 10.7495 15.52 11.5924 16.1912 12.4197C16.8625 13.247 16.8469 13.4031 16.8469 13.4031L16.363 13.6217C16.363 13.6217 15.6761 12.326 14.8332 11.8421C13.9746 11.3582 13.881 10.9524 13.881 10.9524L14.2868 10.7495Z" fill="#FED7AA"/>
<path fill-rule="evenodd" clip-rule="evenodd" d="M9.15118 10.8119C9.15118 11.5706 8.53617 12.1856 7.77751 12.1856C7.01885 12.1856 6.40384 11.5706 6.40384 10.8119C6.40384 10.0532 7.01885 9.43823 7.77751 9.43823C8.53617 9.43823 9.15118 10.0532 9.15118 10.8119ZM8.49558 10.2031C8.49558 10.4014 8.33484 10.5621 8.13655 10.5621C7.93827 10.5621 7.77753 10.4014 7.77753 10.2031C7.77753 10.0048 7.93827 9.84406 8.13655 9.84406C8.33484 9.84406 8.49558 10.0048 8.49558 10.2031Z" fill="#18181B"/>
<path d="M9.7756 10.7495C9.7756 10.7495 8.54242 11.5924 7.87119 12.4197C7.19997 13.247 7.21558 13.4031 7.21558 13.4031L7.69948 13.6217C7.69948 13.6217 8.38632 12.326 9.22925 11.8421C10.0722 11.3582 10.1815 10.9524 10.1815 10.9524L9.7756 10.7495Z" fill="#FED7AA"/>
<path d="M15.9259 6.2538C15.9259 6.2538 17.7367 7.76796 18.2674 9.51627C18.7981 11.2646 18.5796 13.3875 18.9854 13.6529C19.563 14.0275 20.2186 11.7953 20.4372 11.5612C20.7806 11.1865 21.9201 10.2343 21.9982 10.0626C22.0762 9.8909 19.6879 7.28405 18.642 6.76893C17.3776 6.17575 15.8166 6.12892 15.9259 6.2538Z" fill="#713F12"/>
<path d="M8.07411 6.2538C8.07411 6.2538 6.26337 7.76796 5.73263 9.51627C5.20189 11.2646 5.42043 13.3875 5.01458 13.6529C4.43701 14.0275 3.78139 11.7953 3.56286 11.5612C3.21944 11.1865 2.07992 10.2343 2.00187 10.0626C1.92382 9.8909 4.31213 7.28405 5.35799 6.76893C6.62239 6.17575 8.18338 6.12892 8.07411 6.2538Z" fill="#713F12"/>
<path fill-rule="evenodd" clip-rule="evenodd" d="M15.723 12.888C15.1876 12.2299 14.4212 11.6038 13.4179 11.2999C13.3127 10.9654 12.8161 10.6089 12.1171 10.6089C11.4353 10.6209 10.946 10.9628 10.8247 11.2835C9.79428 11.5809 9.00951 12.2179 8.46436 12.888C7.7397 13.7721 7.74169 14.1583 7.74568 14.9336C7.74599 14.9934 7.74631 15.0554 7.74631 15.1202C7.74631 17.6055 8.41026 17.6682 9.06473 17.73C9.27351 17.7497 9.48133 17.7694 9.66632 17.8675C10.2938 18.1813 10.9416 18.1621 11.6013 18.1425H11.6013C11.7622 18.1377 11.9237 18.1329 12.0859 18.1329H12.1015C12.2541 18.1329 12.4052 18.1365 12.555 18.14C13.2322 18.1561 13.8818 18.1715 14.521 17.8519C14.7065 17.7573 14.915 17.7425 15.1243 17.7277C15.7783 17.6814 16.441 17.6344 16.441 15.1514L16.4433 15.0282C16.4592 14.2071 16.4671 13.7959 15.723 12.888ZM12.4422 11.5697C12.509 11.5525 12.537 11.437 12.5047 11.3118C12.4724 11.1866 12.3921 11.099 12.3253 11.1162C12.2585 11.1335 12.2305 11.2489 12.2628 11.3741C12.2951 11.4994 12.3754 11.5869 12.4422 11.5697ZM12.3294 11.8523C12.2055 11.877 12.1171 11.8947 12.1171 11.9202C12.1258 11.9553 12.1297 12.01 12.1341 12.0734C12.1376 12.1229 12.1414 12.1777 12.1483 12.2324C12.1483 12.2995 12.1492 12.39 12.1503 12.4933L12.1503 12.4934V12.4934C12.1541 12.8685 12.1596 13.4113 12.1289 13.6066C12.8162 13.6305 13.8498 14.5424 13.8498 15.6822V15.7447C13.8342 14.6364 12.523 13.731 12.1015 13.731C11.68 13.731 10.3688 14.6364 10.3532 15.7447V15.6822C10.3532 14.5619 11.3791 13.6378 12.0664 13.6069C12.0234 13.3718 12.0234 12.577 12.0234 12.2324C12.0234 12.1664 12.0291 12.0832 12.0336 12.0175L12.0336 12.0174C12.0366 11.9744 12.039 11.9387 12.039 11.9202C12.039 11.8804 11.4062 11.7162 11.2174 11.6681C11.3752 11.7072 11.8394 11.8158 11.9297 11.7641C12.0234 11.7017 12.0702 11.5144 12.0702 11.5144C12.0702 11.5144 12.1014 11.7017 12.2263 11.7641C12.3512 11.8422 12.9288 11.6549 12.9288 11.6549C12.7625 11.7657 12.5088 11.8164 12.3294 11.8523ZM11.1649 11.6549C11.1649 11.6549 11.1844 11.66 11.2174 11.6681L11.1649 11.6549ZM11.8285 11.3807C11.7902 11.5042 11.7057 11.5878 11.6398 11.5674C11.574 11.5469 11.5516 11.4302 11.59 11.3067C11.6283 11.1832 11.7127 11.0997 11.7786 11.1201C11.8445 11.1405 11.8668 11.2572 11.8285 11.3807ZM10.6029 12.7475C10.6029 12.8165 10.547 12.8724 10.478 12.8724C10.4091 12.8724 10.3531 12.8165 10.3531 12.7475C10.3531 12.6785 10.4091 12.6226 10.478 12.6226C10.547 12.6226 10.6029 12.6785 10.6029 12.7475ZM9.88486 13.4968C9.88486 13.5658 9.82895 13.6217 9.75998 13.6217C9.69101 13.6217 9.6351 13.5658 9.6351 13.4968C9.6351 13.4279 9.69101 13.3719 9.75998 13.3719C9.82895 13.3719 9.88486 13.4279 9.88486 13.4968ZM9.52582 12.8724C9.59479 12.8724 9.6507 12.8165 9.6507 12.7476C9.6507 12.6786 9.59479 12.6227 9.52582 12.6227C9.45685 12.6227 9.40094 12.6786 9.40094 12.7476C9.40094 12.8165 9.45685 12.8724 9.52582 12.8724ZM13.6468 12.7476C13.6468 12.8165 13.5909 12.8724 13.5219 12.8724C13.453 12.8724 13.3971 12.8165 13.3971 12.7476C13.3971 12.6786 13.453 12.6227 13.5219 12.6227C13.5909 12.6227 13.6468 12.6786 13.6468 12.7476ZM14.24 13.6217C14.309 13.6217 14.3649 13.5658 14.3649 13.4968C14.3649 13.4279 14.309 13.3719 14.24 13.3719C14.171 13.3719 14.1151 13.4279 14.1151 13.4968C14.1151 13.5658 14.171 13.6217 14.24 13.6217ZM14.599 12.7475C14.599 12.8165 14.5431 12.8724 14.4742 12.8724C14.4052 12.8724 14.3493 12.8165 14.3493 12.7475C14.3493 12.6785 14.4052 12.6226 14.4742 12.6226C14.5431 12.6226 14.599 12.6785 14.599 12.7475Z" fill="#713F12"/>
<path d="M16.0196 10.5621C16.2178 10.5621 16.3786 10.4014 16.3786 10.2031C16.3786 10.0048 16.2178 9.84406 16.0196 9.84406C15.8213 9.84406 15.6605 10.0048 15.6605 10.2031C15.6605 10.4014 15.8213 10.5621 16.0196 10.5621Z" fill="white"/>
<path d="M8.13655 10.5621C8.33484 10.5621 8.49558 10.4014 8.49558 10.2031C8.49558 10.0048 8.33484 9.84406 8.13655 9.84406C7.93827 9.84406 7.77753 10.0048 7.77753 10.2031C7.77753 10.4014 7.93827 10.5621 8.13655 10.5621Z" fill="white"/>
</svg>
