<svg width="24" height="24" viewBox="0 0 24 24" fill="none" xmlns="http://www.w3.org/2000/svg">
<path fill-rule="evenodd" clip-rule="evenodd" d="M6.07304 12.5967C6.77706 12.1902 6.77823 10.8742 6.07565 9.65733C5.37307 8.44048 4.2328 7.78353 3.52878 8.19001C2.82476 8.59648 2.82359 9.91247 3.52617 11.1293C4.22874 12.3462 5.36902 13.0031 6.07304 12.5967ZM6.07725 15.2023C6.77983 16.4191 6.77866 17.7351 6.07464 18.1416C5.37061 18.5481 4.23034 17.8911 3.52777 16.6743C2.82519 15.4574 2.82636 14.1414 3.53038 13.7349C4.2344 13.3285 5.37467 13.9854 6.07725 15.2023ZM10.8749 17.976C11.5775 19.1929 11.5763 20.5088 10.8723 20.9154C10.1683 21.3219 9.02802 20.6649 8.32544 19.448C7.62288 18.2312 7.62405 16.9152 8.32807 16.5087C9.03209 16.1022 10.1724 16.7592 10.8749 17.976ZM10.8734 12.4312C11.5759 13.648 11.5748 14.964 10.8708 15.3705C10.1667 15.777 9.02647 15.12 8.32389 13.9032C7.62131 12.6863 7.62248 11.3703 8.3265 10.9638C9.03052 10.5574 10.1708 11.2143 10.8734 12.4312Z" fill="#F87171"/>
<path fill-rule="evenodd" clip-rule="evenodd" d="M20.4711 11.1323C21.1736 9.9154 21.1725 8.59941 20.4684 8.19294C19.7644 7.78646 18.6242 8.44341 17.9216 9.66028C17.219 10.8771 17.2202 12.1931 17.9242 12.5996C18.6282 13.0061 19.7685 12.3491 20.4711 11.1323ZM20.4712 13.7366C21.1752 14.143 21.1764 15.459 20.4738 16.6759C19.7712 17.8927 18.631 18.5497 17.9269 18.1432C17.2229 17.7367 17.2218 16.4207 17.9243 15.2039C18.6269 13.987 19.7672 13.3301 20.4712 13.7366ZM15.6745 16.5058C16.3785 16.9122 16.3797 18.2282 15.6771 19.4451C14.9745 20.6619 13.8342 21.3189 13.1302 20.9124C12.4262 20.506 12.425 19.19 13.1276 17.9731C13.8302 16.7562 14.9705 16.0993 15.6745 16.5058ZM15.6718 10.9621C16.3758 11.3686 16.377 12.6846 15.6744 13.9014C14.9718 15.1183 13.8315 15.7753 13.1275 15.3688C12.4235 14.9623 12.4223 13.6463 13.1249 12.4295C13.8275 11.2126 14.9677 10.5556 15.6718 10.9621Z" fill="#A855F7"/>
<path fill-rule="evenodd" clip-rule="evenodd" d="M14.542 3.47199C14.542 4.28494 13.4029 4.94398 11.9977 4.94398C10.5926 4.94398 9.45349 4.28494 9.45349 3.47199C9.45349 2.65903 10.5926 2 11.9977 2C13.4029 2 14.542 2.65903 14.542 3.47199ZM9.74531 6.23836C9.74531 7.05132 8.60621 7.71035 7.20105 7.71035C5.7959 7.71035 4.6568 7.05132 4.6568 6.23836C4.6568 5.42541 5.7959 4.76637 7.20105 4.76637C8.60621 4.76637 9.74531 5.42541 9.74531 6.23836ZM16.8007 7.71035C18.2059 7.71035 19.3449 7.05132 19.3449 6.23836C19.3449 5.42541 18.2059 4.76637 16.8007 4.76637C15.3955 4.76637 14.2564 5.42541 14.2564 6.23836C14.2564 7.05132 15.3955 7.71035 16.8007 7.71035ZM14.542 9.01095C14.542 9.8239 13.4029 10.4829 11.9977 10.4829C10.5926 10.4829 9.45349 9.8239 9.45349 9.01095C9.45349 8.19799 10.5926 7.53896 11.9977 7.53896C13.4029 7.53896 14.542 8.19799 14.542 9.01095Z" fill="#F59E0B"/>
</svg>
