<svg width="24" height="24" viewBox="0 0 24 24" fill="none" xmlns="http://www.w3.org/2000/svg">
<path fill-rule="evenodd" clip-rule="evenodd" d="M4.03043 7.0715L3.69272 7.2335L3.24232 7.44668L2.52781 7.77162C2.51491 7.77162 2.50472 7.79701 2.50499 7.82797C2.5057 7.88419 2.57696 7.92411 3.24232 8.23982L3.40526 8.32102C3.66182 8.45009 3.92039 8.57512 4.18088 8.69606C4.21524 8.71045 4.26031 8.73232 4.28095 8.74454C4.34077 8.77647 4.40144 8.80676 4.46291 8.83538C4.54234 8.87313 4.61282 8.91278 4.61947 8.92364C4.62613 8.9345 4.66537 8.9508 4.70637 8.9599C4.74738 8.96899 4.78106 8.98665 4.78106 8.99927C4.78106 9.0119 4.79355 9.02236 4.80876 9.02236C4.82397 9.02236 4.93939 9.07396 5.0654 9.13669L5.41926 9.31865C5.44682 9.33453 5.49747 9.35938 5.53196 9.37391C5.6338 9.41928 5.73395 9.46838 5.83219 9.5211C5.85283 9.53265 5.93471 9.57297 6.01414 9.61072C6.09358 9.64847 6.16405 9.68812 6.17071 9.69899C6.17736 9.70985 6.2166 9.72614 6.25761 9.73524C6.29861 9.74434 6.33229 9.76199 6.33229 9.77462C6.33229 9.78725 6.34424 9.7977 6.35877 9.7977C6.38117 9.7977 6.76559 9.98169 6.88291 10.0485C6.90355 10.0603 7.09501 10.1558 7.3082 10.261L7.73348 10.4739C7.75412 10.4859 8.10309 10.6605 8.5091 10.8619L9.28471 11.248L9.46314 11.3349C9.90961 11.5468 9.86099 11.9047 9.35111 12.163L8.77184 12.4613L6.29481 13.7114L4.13064 14.8L3.27382 15.2269C3.27382 15.2269 2.45394 15.6437 2.45394 15.6542C2.45394 15.6773 4.20383 16.5558 4.24823 16.5553C4.26493 16.5552 4.38877 16.5003 4.52347 16.4333L8.19597 14.5849C8.34151 14.5103 8.48749 14.4365 8.63388 14.3635L11.8693 12.7341C11.9719 12.683 12.1768 12.7072 12.2485 12.7789C12.2545 12.7849 12.9495 13.1366 13.793 13.5604L15.364 14.352C15.3847 14.3637 15.503 14.4226 15.6268 14.4833C16.026 14.6784 16.2084 14.7766 16.2376 14.8119C16.2533 14.8309 16.539 14.9838 16.8722 15.1519L17.5159 15.4781C17.7487 15.5961 17.9823 15.7129 18.2164 15.8284L18.3539 15.8974L19.6895 16.5532C19.7371 16.5532 21.4336 15.7076 21.4673 15.667C21.4913 15.6379 19.5608 14.6589 15.9394 12.8639L15.3264 12.5516L14.6882 12.2203C14.345 12.0431 14.2811 11.9731 14.2811 11.7745C14.2811 11.5265 14.2393 11.5549 15.6515 10.8487L16.9358 10.1919C16.9404 10.1816 16.9556 10.1732 16.9697 10.1732C16.9914 10.1732 17.5303 9.91176 17.6405 9.84754C17.6612 9.83559 17.8217 9.75629 17.9971 9.67169C18.1725 9.5871 18.3219 9.50848 18.329 9.49707C18.336 9.48566 18.3751 9.4691 18.4164 9.46C18.4577 9.4509 18.4911 9.43325 18.4911 9.42062C18.4911 9.40799 18.5036 9.39754 18.5188 9.39754C18.5487 9.39754 18.989 9.18259 19.1353 9.0965C19.1617 9.08123 19.1894 9.06815 19.218 9.05739C19.2394 9.05006 19.3182 9.01204 19.3945 8.9732L19.6682 8.83579C19.7439 8.79912 19.8227 8.75839 19.8447 8.74535C19.8667 8.73232 19.8991 8.71507 19.9198 8.70679C19.9877 8.67963 20.532 8.41851 20.5703 8.39475C20.5943 8.38015 20.6194 8.36727 20.6453 8.35619C20.8255 8.28245 21.5585 7.90347 21.5585 7.88392C21.5585 7.87034 21.5331 7.8554 21.5022 7.85092C21.4712 7.84644 21.4458 7.83259 21.4458 7.8201C21.4458 7.80761 21.3361 7.74542 21.2018 7.6816L19.9064 7.06852C19.7023 6.96966 19.5656 7.00361 19.0937 7.27084C19.0731 7.28252 18.4786 7.5822 17.7725 7.93674L16.4763 8.60169C16.4695 8.61282 16.4459 8.62206 16.424 8.62206C16.4021 8.62206 16.338 8.65899 16.2814 8.70407C16.2248 8.74915 15.813 8.96967 15.3657 9.19399L14.515 9.6239C14.4943 9.63612 14.368 9.69722 14.2343 9.7605C14.1005 9.82377 13.9844 9.88596 13.9763 9.899C13.9681 9.91204 13.941 9.9229 13.9159 9.9229C13.8907 9.9229 13.8569 9.93919 13.8405 9.95875C13.8241 9.9783 13.7778 10.0019 13.7373 10.0108C13.6968 10.0196 13.664 10.0363 13.664 10.048C13.664 10.0596 13.631 10.0762 13.5907 10.0852C13.5503 10.0941 13.5038 10.1175 13.4875 10.1372C13.4712 10.1569 13.4372 10.173 13.4121 10.173C13.387 10.173 13.3609 10.1823 13.3537 10.1937C13.3439 10.2094 12.4849 10.6434 12.0928 10.8308C12.0181 10.8663 11.5636 10.6814 11.2115 10.4726C11.1909 10.459 11.1121 10.421 11.035 10.385C10.9579 10.349 10.7906 10.2644 10.6597 10.1968C10.5288 10.1292 10.4079 10.0738 10.3908 10.0735C10.3737 10.0732 10.3596 10.0626 10.3596 10.05C10.3596 10.0374 10.3259 10.0196 10.2849 10.0106C10.2439 10.0017 10.2034 9.98563 10.1983 9.97531C10.1931 9.96499 9.60992 9.66775 8.90383 9.31335L7.4892 8.59992C7.46516 8.58702 7.34526 8.52796 7.22305 8.46903L6.87856 8.29861C5.84739 7.76673 4.27919 6.99777 4.23031 6.99994C4.19595 7.00157 4.10579 7.03416 4.03015 7.07259M21.5066 8.67379C21.2591 8.79763 21.0423 8.89893 21.025 8.89893C21.0078 8.89893 20.9938 8.91006 20.9938 8.92337C20.9938 8.93668 20.9628 8.95528 20.9249 8.9641C20.887 8.97293 20.8394 8.99452 20.8186 9.01163C20.7978 9.02874 20.7529 9.05128 20.7185 9.06146C20.6842 9.07165 20.6436 9.08998 20.6284 9.10193C20.5719 9.14674 20.3644 9.24899 20.3296 9.24899C20.3097 9.24899 20.2934 9.26012 20.2934 9.27343C20.2934 9.28673 20.2624 9.30534 20.2245 9.31444C20.1867 9.32353 20.1425 9.34132 20.1262 9.35381C20.0712 9.39699 19.508 9.67427 19.4753 9.67427C19.4573 9.67427 19.4427 9.68541 19.4427 9.69871C19.4427 9.71202 19.4117 9.73062 19.3738 9.73945C19.3359 9.74828 19.2883 9.76987 19.2675 9.78697C19.2467 9.80408 19.2018 9.82676 19.1674 9.83722C19.1331 9.84767 19.0993 9.86329 19.0923 9.87211C19.074 9.8956 18.8167 10.0245 18.7882 10.0245C18.7746 10.0245 18.7468 10.0413 18.7261 10.0619C18.7031 10.0836 18.6733 10.0968 18.6418 10.0994C18.616 10.0994 18.5891 10.1089 18.5818 10.1209C18.5744 10.1328 18.4247 10.2125 18.2488 10.2983L17.8917 10.4756C17.8347 10.5077 17.6089 10.6185 17.5665 10.6352C17.5459 10.6434 17.4728 10.683 17.4038 10.7235C17.3348 10.764 17.2599 10.7975 17.2368 10.7985C17.2137 10.7994 17.1915 10.8093 17.1866 10.8206C17.1817 10.8319 17.0318 10.9129 16.8529 11.0006C16.6741 11.0884 16.5128 11.175 16.4945 11.1929C16.4728 11.2123 16.4452 11.2238 16.4162 11.2255C16.3869 11.2277 16.3596 11.2411 16.3399 11.263C16.3228 11.2836 16.2959 11.3005 16.2802 11.3005C16.2644 11.3005 16.2096 11.323 16.1583 11.3507C16.1069 11.3784 16.0494 11.4009 16.0303 11.4009C16.0113 11.4009 15.9819 11.4178 15.9646 11.4384C15.9474 11.4591 15.9137 11.4759 15.8895 11.4759C15.8612 11.4779 15.8348 11.4907 15.8158 11.5117C15.7995 11.5316 15.7531 11.5549 15.7126 11.5638C15.6721 11.5726 15.6393 11.5893 15.6393 11.601C15.6393 11.6126 15.5985 11.6349 15.5517 11.6509C15.445 11.6862 15.4363 11.7525 15.533 11.7962C15.6552 11.8512 15.7516 11.9082 15.7698 11.9365C15.7976 11.9791 16.0041 11.9654 16.0518 11.9177C16.0746 11.8949 16.1136 11.8763 16.1384 11.8763C16.1671 11.8745 16.194 11.8617 16.2134 11.8405C16.2297 11.8207 16.2753 11.7974 16.3148 11.7889C16.3543 11.7803 16.3998 11.757 16.4162 11.7373C16.4327 11.7176 16.4587 11.7017 16.4742 11.702C16.4981 11.7025 16.7958 11.5648 16.9153 11.498C16.9359 11.4865 17.0147 11.4474 17.0918 11.4111C17.1689 11.3749 17.2463 11.3354 17.2683 11.3229C17.2924 11.3089 17.3175 11.2966 17.3434 11.2863C17.364 11.2785 17.3977 11.2619 17.4185 11.2494C17.4393 11.2369 17.5179 11.1978 17.595 11.1621C17.6721 11.1264 17.7495 11.0869 17.7715 11.0738C17.8039 11.0548 17.8373 11.0377 17.8716 11.0226C17.9058 11.0077 17.9392 10.991 17.9717 10.9727C17.9959 10.9585 18.0209 10.946 18.0468 10.9352C18.0674 10.927 18.3883 10.7699 18.7597 10.5862L19.4978 10.2261C19.5322 10.2117 19.5801 10.1886 19.6041 10.1749C19.6815 10.1307 19.7326 10.1043 19.873 10.0368L20.2983 9.825C20.3189 9.81305 20.5891 9.67808 20.8987 9.52491L21.4992 9.22618C21.5198 9.21477 21.6241 9.16236 21.7306 9.1094L21.9245 9.01299V8.83375C21.9245 8.70516 21.9351 8.64596 21.9619 8.62355C21.9999 8.59191 22.0153 8.44703 21.9807 8.44703C21.9703 8.44703 21.7593 8.54833 21.5117 8.67216M2.01399 8.75363L2.02105 9.03512L3.1345 9.58954L7.50902 11.7602C8.06792 12.0368 8.18714 12.0816 8.22 12.0284C8.22788 12.0156 8.30555 11.9706 8.393 11.9279C8.6791 11.7886 8.67978 11.7718 8.40577 11.638L8.13351 11.5006C8.11287 11.4881 7.95522 11.4091 7.78318 11.3248L7.43285 11.1496C7.41221 11.136 7.22075 11.0416 7.00756 10.9367L6.58241 10.7242C6.56177 10.7122 6.40412 10.6335 6.23208 10.5493L5.78534 10.3273C5.68973 10.2788 5.59381 10.231 5.49761 10.1837L4.73068 9.79621C4.71004 9.7848 4.65939 9.76009 4.61798 9.74122C4.47947 9.67807 3.97367 9.42442 3.88473 9.37432C3.85135 9.35595 3.81714 9.33914 3.78221 9.32394C3.71798 9.29638 3.18841 9.03336 3.12771 8.999C3.01156 8.93924 2.89478 8.88071 2.77738 8.82343L2.42705 8.64894C1.98873 8.41227 1.99851 8.40996 2.0072 8.75486M12.365 13.6575C12.324 13.6985 12.3251 14.0798 12.3664 14.1354C12.3836 14.1585 13.2515 14.6043 14.2949 15.126L16.2464 16.124C16.2923 16.1657 18.2923 17.1731 18.754 17.3871C18.8665 17.4406 18.9777 17.4969 19.0875 17.556C19.3459 17.6959 19.3407 17.6986 19.3407 17.4226C19.3407 17.1202 19.4853 17.2189 17.7599 16.3574L16.2262 15.5649C16.1902 15.5314 16.1444 15.5042 16.1243 15.5042C16.1042 15.5042 16.0881 15.4929 16.0881 15.4792C16.0881 15.4655 16.0756 15.4542 16.0604 15.4542C16.0363 15.4542 15.6435 15.2657 15.5376 15.2034C15.5169 15.1912 15.3613 15.1128 15.1919 15.0292L14.8415 14.8551C14.8184 14.8429 14.6249 14.7465 14.4116 14.6406L13.9863 14.4274C13.9657 14.416 13.7742 14.3201 13.5611 14.2149L13.1358 14.0017C13.1151 13.9897 12.9542 13.9102 12.7781 13.8247C12.602 13.7393 12.4522 13.66 12.4452 13.6486C12.4272 13.6196 12.4003 13.6224 12.365 13.6575ZM11.5802 13.6723C11.5756 13.6831 11.4705 13.7406 11.3466 13.8004L11.0839 13.9294C10.9125 14.0218 10.4416 14.2536 10.4253 14.2534C10.414 14.2534 10.388 14.2703 10.3673 14.2909C10.3443 14.3126 10.3146 14.3258 10.283 14.3284C10.2572 14.3284 10.2303 14.3379 10.2233 14.3497C10.2162 14.3615 10.0662 14.4415 9.89032 14.5276L9.53293 14.7048C9.32952 14.8152 8.88821 15.029 8.8635 15.0289C8.84625 15.0289 8.83226 15.0398 8.83226 15.0533C8.83226 15.0669 8.8013 15.0853 8.76342 15.0941C8.72554 15.1029 8.67787 15.1245 8.6571 15.1416C8.63632 15.1587 8.59192 15.1812 8.55825 15.1916C8.52314 15.2027 8.49063 15.2207 8.46265 15.2447C8.44084 15.2648 8.41282 15.2768 8.38322 15.2789C8.35486 15.2805 8.32825 15.2931 8.30894 15.3139C8.29292 15.3332 8.25082 15.3563 8.21389 15.3652C8.17695 15.3742 8.13296 15.3978 8.113 15.4177C8.09304 15.4375 8.05638 15.4539 8.03153 15.4539C8.00221 15.4561 7.97487 15.4695 7.95521 15.4914C7.93811 15.512 7.90429 15.5289 7.88012 15.5289C7.85217 15.5307 7.82599 15.5432 7.80707 15.5639C7.79105 15.5832 7.74732 15.6067 7.71025 15.6159C7.67319 15.6251 7.62878 15.6431 7.6148 15.656C7.56157 15.7001 7.35178 15.8053 7.31579 15.8053C7.29583 15.8053 7.27953 15.8165 7.27953 15.8298C7.27953 15.8431 7.24857 15.862 7.21069 15.8711C7.17281 15.8802 7.1151 15.9087 7.08224 15.9341C7.04937 15.9594 7.00158 15.9802 6.97591 15.9802C6.95025 15.9802 6.9292 15.9914 6.9292 16.0047C6.9292 16.018 6.89824 16.0366 6.86036 16.0454C6.82248 16.0542 6.77481 16.0758 6.75404 16.0929C6.73326 16.11 6.68886 16.1326 6.65519 16.1429C6.62008 16.154 6.58757 16.1721 6.55959 16.196C6.54058 16.215 6.50433 16.2302 6.47853 16.2302C6.45273 16.2302 6.42475 16.2415 6.41634 16.2552C6.40792 16.2689 6.33676 16.3095 6.25842 16.3455C6.19783 16.3729 6.13784 16.4016 6.0785 16.4316C5.97162 16.4877 5.86317 16.5409 5.75329 16.5909C5.73265 16.599 5.65959 16.6387 5.59062 16.6791C5.52163 16.7196 5.44586 16.7531 5.42169 16.7541C5.39752 16.755 5.37797 16.7668 5.37797 16.7803C5.37797 16.7937 5.34701 16.8122 5.30913 16.8213C5.27125 16.8304 5.22711 16.848 5.21095 16.862C5.1948 16.876 5.05412 16.9499 4.89824 17.029L4.61485 17.173L4.60765 17.4154C4.60086 17.6478 4.63033 17.729 4.68776 17.636C4.6951 17.6241 4.76625 17.582 4.84555 17.5423C4.92485 17.5027 4.99899 17.4564 5.00985 17.4391C5.02072 17.4219 5.05031 17.4076 5.0753 17.4076C5.10029 17.4076 5.14931 17.3851 5.18434 17.3574C5.21937 17.3297 5.26242 17.3071 5.28007 17.3071C5.30383 17.3071 9.6793 15.131 9.90634 15.0064C10.0782 14.9118 11.026 14.454 11.049 14.4544C11.065 14.4547 11.0818 14.4457 11.0865 14.4343C11.0911 14.4229 11.2148 14.3551 11.3614 14.2836C11.5081 14.212 11.6348 14.1358 11.6429 14.1144C11.6972 13.9694 11.6359 13.5404 11.5786 13.6737M2.00014 16.4647C2.00014 16.7463 1.99606 16.7413 2.37545 16.9244L3.15107 17.3062C3.17516 17.3202 3.20026 17.3325 3.22616 17.3429C3.2468 17.3506 3.28047 17.3665 3.30125 17.3782C3.32202 17.3898 3.37254 17.4171 3.41395 17.4387L3.67969 17.5794C3.90862 17.7009 3.90184 17.7057 3.90184 17.42C3.90184 17.159 3.89233 17.1433 3.66421 17.0343C3.60935 17.0086 3.55511 16.9815 3.50154 16.9531C3.4809 16.9413 3.44722 16.9253 3.42644 16.9176C3.40567 16.9098 3.37213 16.8931 3.35135 16.8801C3.33058 16.8671 3.28563 16.8456 3.25128 16.8319C3.21657 16.818 3.18309 16.8013 3.1512 16.7818C3.13056 16.7679 3.09689 16.7501 3.07611 16.7411C3.05534 16.732 3.0218 16.7163 3.00102 16.7034C2.98025 16.6905 2.9353 16.6677 2.90095 16.6525C2.86678 16.6375 2.83338 16.6209 2.80087 16.6025C2.78023 16.5903 2.74656 16.5736 2.72578 16.5659C2.69999 16.5556 2.67491 16.5437 2.65069 16.5302C2.60996 16.5057 2.38319 16.3953 2.32548 16.3706C2.30484 16.3618 2.23831 16.3266 2.17747 16.2924C2.00394 16.1946 2 16.1983 2 16.4635M21.8616 16.251C21.8513 16.2771 21.2417 16.5805 21.1996 16.5805C21.1829 16.5805 21.1657 16.5898 21.1609 16.6009C21.1562 16.6121 21.0795 16.6577 20.9898 16.7021L20.7897 16.8042C20.769 16.816 20.5976 16.9015 20.4087 16.9943C20.2198 17.087 20.06 17.1813 20.0537 17.2034C20.0354 17.2678 20.0456 17.6322 20.0673 17.6447C20.0894 17.6583 20.3837 17.5081 20.4692 17.4393C20.488 17.4257 20.5309 17.4035 20.5645 17.3931C20.5982 17.3826 20.6414 17.3589 20.6601 17.3401C20.6789 17.3214 20.7154 17.3059 20.7412 17.3059C20.767 17.3059 20.7942 17.2961 20.8015 17.2842C20.8088 17.2722 20.88 17.2316 20.9593 17.1938C21.0386 17.1559 21.1206 17.115 21.1412 17.1028C21.1619 17.0906 21.1956 17.074 21.2163 17.0661C21.2636 17.0465 21.3104 17.0257 21.3567 17.0038C21.4132 16.9773 21.4715 16.9557 21.486 16.9557C21.5005 16.9557 21.5161 16.9472 21.5209 16.9367C21.5327 16.91 21.7895 16.7806 21.8309 16.7806C21.8915 16.7806 21.917 16.6889 21.917 16.471C21.917 16.2877 21.8908 16.1809 21.8627 16.251" fill="#14B8A6"/>
</svg>
