<svg width="24" height="24" viewBox="0 0 24 24" fill="none" xmlns="http://www.w3.org/2000/svg">
<path d="M13.425 2.5C14.7208 2.5 15.7712 3.55043 15.7712 4.84621L15.7706 5.35H19.125C19.6497 5.35 20.075 5.77533 20.075 6.3L20.0741 9.62405L18.6212 9.625C17.3773 9.625 16.3595 10.593 16.28 11.8169L16.275 11.9712V12.0288C16.275 13.2727 17.2431 14.2905 18.4669 14.37L18.6212 14.375L20.0741 14.374L20.075 17.7028C20.075 18.2274 19.6497 18.6528 19.125 18.6528L15.7706 18.6519L15.7712 19.1538C15.7712 20.4496 14.7208 21.5 13.425 21.5C12.1292 21.5 11.0788 20.4496 11.0788 19.1538L11.0785 18.6519L7.725 18.6528C7.20034 18.6528 6.775 18.2274 6.775 17.7028L6.77405 14.3474L6.27122 14.3476C4.97544 14.3476 3.925 13.2971 3.925 12.0014C3.925 10.7056 4.97544 9.65518 6.27122 9.65518L6.77405 9.65445L6.775 6.3C6.775 5.77533 7.20034 5.35 7.725 5.35H11.0785L11.0788 4.84621C11.0788 3.55043 12.1292 2.5 13.425 2.5Z" stroke="#60A5FA" stroke-width="2" stroke-linejoin="round"/>
</svg>
