<svg width="24" height="24" viewBox="0 0 24 24" fill="none" xmlns="http://www.w3.org/2000/svg">
<path fill-rule="evenodd" clip-rule="evenodd" d="M14.6217 21.3218C14.0212 21.4328 13.3384 21.4964 12.6233 21.4999C11.908 21.5033 11.1627 21.4472 10.4441 21.3224C9.30845 21.1238 8.35217 20.236 8.35217 19.0532V14.8974C8.35217 13.6795 9.28115 12.6803 10.4441 12.6803H14.6218C16.0403 12.6803 17.2348 11.409 17.2348 9.96834V7.97425H18.673C19.8885 7.97425 20.5986 8.8943 20.896 10.1865C21.297 11.9217 21.28 12.9603 20.896 14.6223C20.5637 16.072 19.4985 16.8345 18.283 16.8345H16.7136H12.5313V17.3889H16.7136V19.0526C16.7136 20.3125 16.3923 20.9954 14.6217 21.3218ZM14.446 18.4845C13.9139 18.4845 13.4825 18.9346 13.4825 19.4899C13.4825 20.0451 13.9139 20.4953 14.446 20.4953C14.9781 20.4953 15.4095 20.0451 15.4095 19.4899C15.4095 18.9346 14.9781 18.4845 14.446 18.4845Z" fill="#14B8A6"/>
<path fill-rule="evenodd" clip-rule="evenodd" d="M9.37835 2.67823C9.9788 2.56725 10.6616 2.50361 11.3767 2.50015C12.092 2.49673 12.8373 2.55277 13.5559 2.67758C14.6916 2.87617 15.6478 3.76399 15.6478 4.94677V9.10261C15.6478 10.3205 14.7189 11.3197 13.5559 11.3197H9.3782C7.95969 11.3197 6.7652 12.591 6.7652 14.0317V16.0257H5.32703C4.11148 16.0257 3.40137 15.1057 3.10404 13.8135C2.70296 12.0783 2.71996 11.0397 3.10404 9.37771C3.43632 7.92797 4.50148 7.16549 5.71703 7.16549H7.28639H11.4688V6.61106H7.28639V4.94742C7.28639 3.68748 7.60775 3.00461 9.37835 2.67823ZM9.55398 5.51616C10.0861 5.51616 10.5175 5.06603 10.5175 4.51077C10.5175 3.95551 10.0861 3.50539 9.55398 3.50539C9.02186 3.50539 8.59049 3.95551 8.59049 4.51077C8.59049 5.06603 9.02186 5.51616 9.55398 5.51616Z" fill="#14B8A6"/>
</svg>
