<svg width="25" height="24" viewBox="0 0 25 24" fill="none" xmlns="http://www.w3.org/2000/svg">
<path fill-rule="evenodd" clip-rule="evenodd" d="M11.4277 1.65175C12.1345 1.64851 12.8775 1.70126 13.6058 1.82249L13.608 1.82285C15.2169 2.09247 17.0443 3.41048 17.0443 5.63208V8.9959C17.0443 11.0482 15.402 12.7905 13.2774 12.7905H9.74891C9.73147 12.7905 9.676 12.7992 9.61217 12.8631C9.54608 12.9294 9.54193 12.9837 9.54193 12.9856V14.5996C9.54193 15.7042 8.6465 16.5996 7.54193 16.5996H6.32724C5.27484 16.5996 4.35271 16.1959 3.66715 15.4943C3.02675 14.8389 2.68416 14.0219 2.50514 13.2768C2.3128 12.4791 2.19852 11.7503 2.201 10.9851C2.20348 10.2201 2.32244 9.50845 2.50539 8.74974C2.94953 6.8988 4.34346 5.72989 5.98361 5.47886C5.99614 4.85636 6.10217 3.93124 6.7832 3.13289C7.49848 2.29438 8.51635 1.98276 9.4002 1.82653M6.05161 7.50365C5.29043 7.70125 4.67338 8.28317 4.44967 9.21858C4.12527 10.5638 4.11091 11.4045 4.44967 12.809C4.6282 13.5526 4.98291 14.1439 5.54193 14.4236C5.76928 14.5374 6.03042 14.5996 6.32724 14.5996H7.54193V12.9856C7.54193 11.8195 8.55082 10.7905 9.74891 10.7905H13.2774C14.2597 10.7905 15.0443 9.98173 15.0443 8.9959V5.63208C15.0443 4.67471 14.2366 3.9561 13.2774 3.79535C12.6705 3.69433 12.041 3.64896 11.4369 3.65173C10.8329 3.65454 10.2562 3.70604 9.74904 3.79588C8.61087 3.99694 8.18172 4.36514 8.04162 4.97919C8.01035 5.11624 7.99348 5.26554 7.98634 5.42796C7.98344 5.49399 7.98214 5.56218 7.98214 5.63261V6.97919H11.5146V7.42796H6.65664C6.44837 7.42796 6.24532 7.45336 6.05161 7.50365ZM11.4277 1.65175C10.7206 1.65504 10.029 1.71521 9.4002 1.82653Z" fill="#2DD4BF"/>
<path d="M10.7112 5.27917C10.7112 5.72861 10.3469 6.09295 9.89743 6.09295C9.44799 6.09295 9.08365 5.72861 9.08365 5.27917C9.08365 4.82973 9.44799 4.46539 9.89743 4.46539C10.3469 4.46539 10.7112 4.82973 10.7112 5.27917Z" fill="#2DD4BF"/>
<mask id="mask0_20559_560" style="mask-type:alpha" maskUnits="userSpaceOnUse" x="6" y="5" width="17" height="18">
<path d="M9.19071 14.8437H6.72086L6.13876 19.3815L7.89834 22.7039L14.5976 22.992L19.1984 21.2291L22.2009 13.6859L21.3131 6.54956L16.3772 5.92236L16.5509 8.40325V12.0078L13.1932 13.4317L9.19071 14.8437Z" fill="#D9D9D9"/>
</mask>
<g mask="url(#mask0_20559_560)">
<path fill-rule="evenodd" clip-rule="evenodd" d="M12.7002 21.2211C11.9935 21.2243 11.2504 21.1715 10.5221 21.0503L10.52 21.0499C8.9111 20.7803 7.08363 19.4623 7.08363 17.2407V13.8769C7.08363 11.8246 8.726 10.0823 10.8505 10.0823H14.3791C14.3965 10.0823 14.452 10.0737 14.5158 10.0097C14.5819 9.9434 14.586 9.88914 14.586 9.88722V8.27316C14.586 7.16859 15.4815 6.27316 16.586 6.27316H17.8007C18.8531 6.27316 19.7753 6.67689 20.4608 7.37849C21.1012 8.03388 21.4438 8.85089 21.6228 9.59598C21.8152 10.3937 21.9294 11.1225 21.927 11.8877C21.9245 12.6527 21.8055 13.3644 21.6226 14.1231C21.1784 15.974 19.7845 17.1429 18.1444 17.3939C18.1318 18.0164 18.0258 18.9416 17.3448 19.7399C16.6295 20.5784 15.6116 20.89 14.7278 21.0463M18.0763 15.3692C18.8375 15.1716 19.4546 14.5896 19.6783 13.6542C20.0027 12.309 20.017 11.4683 19.6783 10.0638C19.4998 9.32025 19.145 8.72894 18.586 8.44918C18.3587 8.33541 18.0975 8.27316 17.8007 8.27316H16.586V9.88722C16.586 11.0533 15.5771 12.0823 14.3791 12.0823H10.8505C9.86826 12.0823 9.08363 12.8911 9.08363 13.8769V17.2407C9.08363 18.1981 9.89132 18.9167 10.8505 19.0775C11.4574 19.1785 12.087 19.2238 12.6911 19.2211C13.2951 19.2183 13.8718 19.1668 14.3789 19.0769C15.5171 18.8759 15.9462 18.5077 16.0863 17.8936C16.1176 17.7566 16.1345 17.6073 16.1416 17.4448C16.1445 17.3788 16.1458 17.3106 16.1458 17.2402V15.8936H12.6133V15.4448H17.4713C17.6796 15.4448 17.8826 15.4194 18.0763 15.3692ZM12.7002 21.2211C13.4073 21.2178 14.099 21.1576 14.7278 21.0463Z" fill="#2DD4BF"/>
<path d="M13.4168 17.5942C13.4168 17.1447 13.7811 16.7804 14.2305 16.7804C14.68 16.7804 15.0443 17.1447 15.0443 17.5942C15.0443 18.0436 14.68 18.408 14.2305 18.408C13.7811 18.408 13.4168 18.0436 13.4168 17.5942Z" fill="#2DD4BF"/>
</g>
</svg>
