<?xml version="1.0" encoding="UTF-8" standalone="no"?>
<!DOCTYPE svg PUBLIC "-//W3C//DTD SVG 1.1//EN" "http://www.w3.org/Graphics/SVG/1.1/DTD/svg11.dtd">
<svg width="100%" height="100%" viewBox="0 0 24 24" version="1.1" xmlns="http://www.w3.org/2000/svg" xmlns:xlink="http://www.w3.org/1999/xlink" xml:space="preserve" xmlns:serif="http://www.serif.com/" style="fill-rule:evenodd;clip-rule:evenodd;stroke-linejoin:round;stroke-miterlimit:2;">
    <g id="logo-mono-cyan.svg" transform="matrix(0.0201808,0,0,0.0201808,12,12)">
        <g transform="matrix(1,0,0,1,-512,-512)">
            <path id="path8860-5-4-8-2-7-1-8_19_" d="M951.87,435.084C915.314,225.406 731.979,65.5 512,65.5C265.8,65.5 65.5,265.8 65.5,512C65.5,739.505 236.535,927.815 456.776,955.103L456.776,1021C201.458,993.096 0,774.23 0,512C-0,231.125 231.125,0 512,0C766.758,0 980.587,190.141 1018.15,435.084L951.87,435.084ZM824.775,441.656L824.7,441.7C733,370 634.3,335.4 538.6,341.9C555.863,305.123 579.341,271.597 608,242.8C640.818,254.523 671.218,272.147 697.7,294.8L783.6,245.2C806.213,268.063 825.836,293.701 842,321.5C857.961,349.501 870.325,379.404 878.8,410.5L836.171,435.084L824.775,435.084L824.775,441.656ZM456.776,732.198C444.877,749.426 431.296,765.797 416.1,781.2C383.282,769.477 352.882,751.853 326.4,729.2L240.5,778.8C217.887,755.937 198.264,730.299 182.1,702.5C166.1,674.5 153.8,644.7 145.3,613.5L199.4,582.3C281.951,646.846 370.174,681.326 456.776,682.822L456.776,732.198ZM680.746,462.366C678.156,458.116 675.474,453.927 672.7,449.8C713.177,446.39 753.94,449.976 793.2,460.4C796.067,476.076 797.608,492.03 797.804,508.074C779.667,523.937 752.334,522.725 735.596,504.451L711.572,478.226C703.326,469.224 692.323,463.778 680.746,462.366ZM512,131C544.213,131.122 576.277,135.39 607.4,143.7L607.4,206.1C499.5,249.7 420.1,317.9 377.9,404C354.672,370.652 337.384,333.538 326.8,294.3C353.394,271.773 383.854,254.255 416.7,242.6L416.7,143.4C447.8,135.3 479.8,131.1 512,131ZM182.1,321.5C198.325,293.715 217.979,268.081 240.6,245.2L294.7,276.4C278.5,391.7 297.9,494.5 351.4,574.1C310.923,577.51 270.16,573.924 230.9,563.5C224.667,529.209 224.735,494.067 231.1,459.8L145.2,410.2C153.704,379.194 166.103,349.389 182.1,321.5Z" style="fill:rgb(0,180,255);"/>
            <g transform="matrix(1.10075,0,0,1.10075,-49.042,-37.9822)">
                <circle cx="510.442" cy="499.418" r="67" style="fill:rgb(0,180,255);"/>
            </g>
            <g transform="matrix(51.2,0,0,51.2,-204.8,-102.4)">
                <path d="M15.969,13.56C16.265,14.624 15.65,15.73 14.614,15.997L14.064,16.138C14.022,16.418 14,16.706 14,17C14,17.307 14.024,17.608 14.07,17.901L14.578,18.028C15.624,18.29 16.246,19.407 15.942,20.478L15.766,21.094C16.179,21.471 16.65,21.776 17.162,21.994L17.626,21.487C18.368,20.678 19.612,20.678 20.354,21.488L20.823,22C21.334,21.785 21.804,21.482 22.217,21.109L22.031,20.44C21.735,19.376 22.351,18.27 23.387,18.004L23.936,17.863C23.978,17.582 24,17.294 24,17C24,16.693 23.976,16.392 23.93,16.099L23.423,15.972C22.376,15.711 21.754,14.593 22.059,13.522L22.234,12.906C21.821,12.53 21.35,12.224 20.838,12.007L20.374,12.513C19.632,13.322 18.389,13.322 17.647,12.512L17.178,12C16.667,12.215 16.196,12.518 15.783,12.891L15.969,13.56ZM19,18.464C18.247,18.464 17.636,17.809 17.636,17C17.636,16.192 18.247,15.536 19,15.536C19.753,15.536 20.364,16.192 20.364,17C20.364,17.809 19.753,18.464 19,18.464Z" style="fill:rgb(100,116,139);fill-rule:nonzero;"/>
            </g>
        </g>
    </g>
</svg>
