<svg width="24" height="24" viewBox="0 0 24 24" fill="none" xmlns="http://www.w3.org/2000/svg">
<path fill-rule="evenodd" clip-rule="evenodd" d="M19.8557 14.0308C20.5845 13.1603 21 12.1563 21 11.0873C21 7.75838 16.9706 5.05975 12 5.05975C7.02945 5.05975 3 7.75838 3 11.0873C3 13.8191 5.71341 16.1263 9.43364 16.8663V14.9043C7.68112 14.1582 6.53683 12.9281 6.53683 11.537C6.53683 9.26122 9.59955 7.41632 13.3776 7.41632C17.1556 7.41632 19.9438 8.67853 19.9438 11.537C19.9438 11.8337 19.9138 12.1132 19.8557 12.3759V14.0308Z" fill="#71717A"/>
<path fill-rule="evenodd" clip-rule="evenodd" d="M16.7065 14.3956C16.7065 14.3956 17.2512 14.56 17.5677 14.7201C17.6775 14.7757 17.8675 14.8866 18.0045 15.0321C18.1388 15.1747 18.2042 15.3192 18.2042 15.3192L20.351 18.9387L16.8813 18.9402L15.2587 15.8933C15.2587 15.8933 14.9265 15.3225 14.722 15.1569C14.5515 15.0189 14.4788 14.9697 14.3102 14.9697C14.1928 14.9697 13.4858 14.9697 13.4858 14.9697L13.4864 18.9381L10.4161 18.9393V8.80255H16.5817C16.5817 8.80255 19.3899 8.8532 19.3899 11.525C19.3899 14.1967 16.7065 14.3956 16.7065 14.3956ZM15.371 11.0014L13.5123 11.0002L13.5114 12.7238L15.371 12.7232C15.371 12.7232 16.2322 12.7205 16.2322 11.8464C16.2322 10.9547 15.371 11.0014 15.371 11.0014Z" fill="#2563EB"/>
</svg>
