<svg width="24" height="24" viewBox="0 0 24 24" fill="none" xmlns="http://www.w3.org/2000/svg">
<path d="M12 14.7C12.729 14.7 13.35 14.43 13.899 13.899C14.43 13.35 14.7 12.729 14.7 12C14.7 11.271 14.43 10.65 13.899 10.101C13.35 9.57 12.729 9.3 12 9.3C11.271 9.3 10.65 9.57 10.101 10.101C9.57 10.65 9.3 11.271 9.3 12C9.3 12.729 9.57 13.35 10.101 13.899C10.65 14.43 11.271 14.7 12 14.7ZM12 3C14.475 3 16.59 3.9 18.345 5.655C20.1 7.41 21 9.525 21 12V13.305C21 14.205 20.685 14.97 20.1 15.6C19.47 16.203 18.75 16.5 17.85 16.5C16.77 16.5 15.879 16.05 15.204 15.15C14.304 16.05 13.242 16.5 12 16.5C10.767 16.5 9.705 16.05 8.814 15.186C7.95 14.295 7.5 13.242 7.5 12C7.5 10.767 7.95 9.705 8.814 8.814C9.705 7.95 10.767 7.5 12 7.5C13.242 7.5 14.295 7.95 15.186 8.814C16.05 9.705 16.5 10.767 16.5 12V13.305C16.5 13.674 16.644 13.998 16.914 14.277C17.184 14.556 17.499 14.7 17.85 14.7C18.228 14.7 18.543 14.556 18.813 14.277C19.083 13.998 19.2 13.674 19.2 13.305V12C19.2 10.029 18.507 8.337 17.085 6.915C15.663 5.493 13.971 4.8 12 4.8C10.029 4.8 8.337 5.493 6.915 6.915C5.493 8.337 4.8 10.029 4.8 12C4.8 13.971 5.493 15.663 6.915 17.085C8.337 18.507 10.029 19.2 12 19.2H16.5V21H12C9.525 21 7.41 20.1 5.655 18.345C3.9 16.59 3 14.475 3 12C3 9.525 3.9 7.41 5.655 5.655C7.41 3.9 9.525 3 12 3Z" fill="#14B8A6"/>
</svg>
