<svg width="24" height="24" viewBox="0 0 24 24" fill="none" xmlns="http://www.w3.org/2000/svg">
<path d="M12 13.6773C12.9263 13.6773 13.6773 12.9263 13.6773 12C13.6773 11.0737 12.9263 10.3227 12 10.3227C11.0737 10.3227 10.3227 11.0737 10.3227 12C10.3227 12.9263 11.0737 13.6773 12 13.6773Z" fill="#2563EB"/>
<path d="M12 15.4364C16.9706 15.4364 21 13.8979 21 12C21 10.1022 16.9706 8.56366 12 8.56366C7.02944 8.56366 3 10.1022 3 12C3 13.8979 7.02944 15.4364 12 15.4364Z" stroke="#2563EB"/>
<path d="M9.02403 13.7182C11.5093 18.0228 14.8564 20.7432 16.5 19.7942C18.1436 18.8453 17.4613 14.5865 14.976 10.2818C12.4907 5.9772 9.14359 3.25687 7.5 4.20579C5.85642 5.15472 6.53875 9.41357 9.02403 13.7182Z" stroke="#2563EB"/>
<path d="M9.02403 10.2818C6.53875 14.5865 5.85642 18.8453 7.5 19.7943C9.14359 20.7432 12.4907 18.0228 14.976 13.7182C17.4613 9.41358 18.1436 5.15472 16.5 4.2058C14.8564 3.25687 11.5093 5.97721 9.02403 10.2818Z" stroke="#2563EB"/>
</svg>
