<svg width="24" height="24" viewBox="0 0 24 24" fill="none" xmlns="http://www.w3.org/2000/svg">
<path d="M15.4721 14.9343C16.1363 14.8656 16.6403 14.293 16.6173 13.6057C16.5945 12.9186 16.0218 12.3688 15.3346 12.3688H15.2889C14.5787 12.3917 14.029 12.9873 14.0519 13.6973C14.0748 14.041 14.2122 14.3387 14.4184 14.5449C13.6396 16.0797 12.4485 17.2021 10.6619 18.1412C9.44787 18.7826 8.18808 19.0117 6.92829 18.8514C5.89751 18.7139 5.0958 18.2558 4.5918 17.4998C3.85887 16.3774 3.79017 15.1634 4.40864 13.9493C4.84387 13.0789 5.53097 12.4375 5.9662 12.1168C5.87458 11.819 5.73712 11.3151 5.66843 10.9486C2.34708 13.3538 2.69069 16.6065 3.69855 18.1412C4.45441 19.2866 5.98912 19.9967 7.68415 19.9967C8.14223 19.9967 8.60032 19.9509 9.05848 19.8364C11.9904 19.2637 14.2123 17.5228 15.4721 14.9343ZM19.5035 12.0939C17.7627 10.0552 15.1972 8.93283 12.2653 8.93283H11.8988C11.6927 8.52051 11.2574 8.24559 10.7764 8.24559H10.7306C10.0206 8.26851 9.47086 8.86406 9.49371 9.57422C9.51663 10.2614 10.0893 10.8112 10.7764 10.8112H10.8222C11.3261 10.7882 11.7614 10.4675 11.9446 10.0323H12.3569C14.0978 10.0323 15.747 10.5362 17.2359 11.5212C18.3811 12.2772 19.2058 13.2622 19.6638 14.4533C20.0532 15.4154 20.0303 16.3545 19.618 17.1563C18.9767 18.3703 17.9001 19.0346 16.48 19.0346C15.5637 19.0346 14.6933 18.7597 14.2352 18.5535C13.9832 18.7826 13.5251 19.1491 13.2044 19.3782C14.1894 19.8363 15.1972 20.0883 16.1593 20.0883C18.3582 20.0883 19.9845 18.8742 20.603 17.6602C21.2673 16.3316 21.2214 14.041 19.5035 12.0939ZM7.86738 15.3237C7.8903 16.0109 8.46293 16.5606 9.15009 16.5606H9.19594C9.90602 16.5378 10.4557 15.9421 10.4328 15.2321C10.41 14.5448 9.83726 13.9951 9.15009 13.9951H9.10432C9.05848 13.9951 8.98971 13.9951 8.94401 14.018C8.00484 12.4603 7.61545 10.7653 7.75291 8.93276C7.84446 7.55836 8.30262 6.36719 9.10432 5.38219C9.76856 4.53464 11.0513 4.12233 11.9217 4.09948C14.3497 4.05363 15.3804 7.07728 15.4492 8.29137C15.747 8.36006 16.2509 8.52044 16.5945 8.63498C16.3196 4.92417 14.029 3 11.8301 3C9.76856 3 7.86738 4.48894 7.11145 6.68796C6.05782 9.61999 6.74498 12.4375 8.02769 14.6594C7.91322 14.8197 7.84446 15.0717 7.86738 15.3237Z" fill="#16A34A"/>
</svg>
