<svg version="1.0" xmlns="http://www.w3.org/2000/svg" width="24" height="24" viewBox="0 0 201 201">
  <g transform="translate(0,201) scale(0.1,-0.1)" fill="#0EA5E9" stroke="none">
    <path d="M1060 1425 l-50 -49 -40 39 -40 39 -45 -44 -45 -44 -47 47 -47 47 47 48 47 48 -45 44 -45 44 47 48 47 48 133 -132 133 -133 -50 -50z m-442 172 l42 -43 -45 -44 -45 -44 92 -93 92 -93 43 42 43 42 40 -39 40 -40 -183 -183 -184 -183 -83 91 -83 91 44 45 43 44 48 -47 48 -47 40 39 c22 21 40 44 40 49 0 6 -39 50 -87 98 l-87 88 44 45 44 45 -44 45 -44 45 44 45 c24 25 47 45 50 45 3 0 25 -19 48 -43z m814 -215 c71 -71 78 -82 78 -118 0 -37 -7 -47 -155 -194 -85 -85 -155 -161 -155 -169 0 -8 14 -29 31 -47 27 -28 34 -30 58 -21 15 5 38 7 52 4 13 -3 86 -69 162 -145 113 -115 137 -144 137 -168 0 -60 -72 -134 -129 -134 -18 0 -63 38 -168 142 -79 79 -146 153 -150 166 -3 13 -1 34 5 47 9 19 6 27 -20 51 -16 16 -37 42 -45 58 -29 56 -15 80 152 246 85 85 155 159 155 165 0 6 -26 37 -58 68 -49 48 -63 57 -83 52 -18 -4 -30 0 -44 15 -20 22 -20 22 4 41 13 11 39 19 59 19 31 0 45 -10 114 -78z m-202 -27 l75 -75 -278 -277 -277 -278 -75 75 c-41 41 -75 79 -75 85 0 13 532 545 545 545 6 0 44 -34 85 -75z m-890 -120 l-44 -45 -45 45 -45 45 44 45 44 45 45 -45 45 -45 -44 -45z"/>
    <path d="M1281 754 c-17 -14 -31 -31 -31 -38 0 -14 251 -266 266 -266 13 0 64 52 64 66 0 10 -251 264 -262 264 -3 0 -20 -12 -37 -26z"/>
  </g>
</svg>
