<svg width="24" height="24" viewBox="0 0 24 24" fill="none" xmlns="http://www.w3.org/2000/svg">
<path d="M8.58742 2.51065C6.05494 2.51065 4.78846 2.51089 3.90142 3.15649C3.61517 3.36385 3.36378 3.61548 3.1567 3.90193C2.51062 4.78873 2.51062 6.05473 2.51062 8.59081V15.4087C2.51062 17.9412 2.51062 19.2065 3.15622 20.0943C3.36417 20.3812 3.61559 20.6339 3.90142 20.8433C4.78822 21.4891 6.05494 21.4891 8.58742 21.4891H15.4087C17.9412 21.4891 19.2065 21.4891 20.0942 20.8433C20.3805 20.6331 20.633 20.3805 20.8433 20.0943C21.4893 19.2077 21.4893 17.9415 21.4893 15.4087V8.59081C21.4884 6.05473 21.4884 4.78873 20.8433 3.90193C20.6339 3.61604 20.3813 3.36454 20.0945 3.15649C19.2077 2.51089 17.9417 2.51065 15.4087 2.51065H8.58742ZM8.9671 3.56809H15.029C17.2797 3.56809 18.4046 3.56785 19.1925 4.14145C19.4474 4.32633 19.6718 4.54981 19.8578 4.80385C20.4309 5.59177 20.4309 6.71737 20.4319 8.97097V15.0288C20.4319 17.2793 20.4319 18.4044 19.8578 19.1923C19.6711 19.4465 19.4467 19.6707 19.1925 19.8574C18.4037 20.4312 17.2795 20.4317 15.029 20.4317H8.9671C6.71662 20.4317 5.59174 20.4312 4.80358 19.8574C4.54956 19.6715 4.32608 19.4471 4.14118 19.1923C3.56758 18.4035 3.56806 17.2791 3.56806 15.0288V8.97097C3.56806 6.71737 3.56734 5.59177 4.14118 4.80385C4.32538 4.54926 4.54899 4.32565 4.80358 4.14145C5.59174 3.56785 6.71662 3.56809 8.9671 3.56809Z" fill="#F87171"/>
<path d="M9.51333 7.11431C8.79909 7.11431 8.43957 7.11431 8.16765 7.25207C7.92721 7.3752 7.73158 7.57083 7.60845 7.81127C7.47021 8.08367 7.46997 8.44271 7.46997 9.16031V15.419C7.46997 16.0126 7.47045 16.313 7.56717 16.5475C7.6967 16.8598 7.94486 17.108 8.25717 17.2375C8.49141 17.334 8.79189 17.334 9.38517 17.334C9.98253 17.334 10.2792 17.334 10.5137 17.2375C10.8261 17.1079 11.0742 16.8595 11.2037 16.547C11.3001 16.3128 11.3001 16.0126 11.3001 15.419V7.11407H9.51357L9.51333 7.11431ZM15.3722 7.18943C14.7804 7.19807 14.2158 7.43923 13.8003 7.86079C13.3849 8.28235 13.152 8.85045 13.152 9.44231C13.152 10.0342 13.3849 10.6023 13.8003 11.0238C14.2158 11.4454 14.7804 11.6866 15.3722 11.6952H15.3751C15.9722 11.6948 16.5446 11.4573 16.9666 11.0348C17.3885 10.6124 17.6254 10.0396 17.6251 9.44256C17.6251 9.14667 17.5669 8.85368 17.4537 8.58031C17.3405 8.30693 17.1745 8.05853 16.9653 7.84929C16.7561 7.64004 16.5078 7.47405 16.2344 7.3608C15.9611 7.24754 15.6681 7.18947 15.3722 7.18943Z" fill="#F87171"/>
</svg>
