<svg width="24" height="24" viewBox="0 0 24 24" fill="none" xmlns="http://www.w3.org/2000/svg">
<path d="M20.8433 3.90193C20.6339 3.61604 20.3813 3.36454 20.0945 3.15649C19.2079 2.51089 17.9417 2.51089 15.4087 2.51089H8.58718C6.0547 2.51089 4.78846 2.51089 3.90142 3.15649C3.615 3.36381 3.36344 3.61545 3.15622 3.90193C2.51038 4.78873 2.51038 6.05498 2.51038 8.59106V15.409C2.51038 17.9415 2.51038 19.207 3.15598 20.0947C3.36402 20.3816 3.61552 20.6342 3.90142 20.8435C4.78822 21.4894 6.05446 21.4894 8.58718 21.4894H15.4087C17.9412 21.4894 19.2067 21.4894 20.0945 20.8435C20.3806 20.6334 20.6331 20.3809 20.8433 20.0947C21.4893 19.2082 21.4893 17.9417 21.4893 15.409V8.59106C21.4884 6.05498 21.4884 4.78873 20.8433 3.90193ZM11.2997 15.4195C11.2997 16.0131 11.2997 16.3133 11.2032 16.5475C11.0736 16.86 10.8254 17.1082 10.5129 17.2378C10.2785 17.3343 9.98182 17.3343 9.3847 17.3343C8.79118 17.3343 8.49094 17.3343 8.2567 17.2378C7.94429 17.1083 7.69604 16.8601 7.56646 16.5478C7.46974 16.3133 7.46974 16.0131 7.46974 15.4195V9.16057C7.46974 8.44297 7.46974 8.08417 7.60798 7.81177C7.73104 7.57137 7.92658 7.37574 8.16694 7.25257C8.43886 7.11457 8.79838 7.11457 9.51262 7.11457H11.2999L11.2997 15.4195ZM15.3715 11.6959C14.9259 11.6959 14.4903 11.5638 14.1197 11.3162C13.7492 11.0686 13.4604 10.7168 13.2899 10.305C13.1194 9.89334 13.0747 9.44032 13.1617 9.00325C13.2486 8.56619 13.4632 8.16472 13.7783 7.84962C14.0934 7.53451 14.4949 7.31993 14.9319 7.23299C15.369 7.14605 15.822 7.19067 16.2337 7.3612C16.6454 7.53174 16.9973 7.82052 17.2449 8.19105C17.4925 8.56157 17.6246 8.99719 17.6246 9.44282C17.6248 9.7385 17.5668 10.0313 17.4539 10.3046C17.3409 10.5778 17.1752 10.8262 16.9663 11.0354C16.7574 11.2446 16.5093 11.4106 16.2362 11.524C15.963 11.6373 15.6703 11.6957 15.3746 11.6959H15.3715Z" fill="#F87171"/>
</svg>
