<svg width="24" height="24" viewBox="0 0 24 24" fill="none" xmlns="http://www.w3.org/2000/svg">
<path fill-rule="evenodd" clip-rule="evenodd" d="M12.3333 3C11.781 3 11.3333 3.44772 11.3333 4V6C11.3333 6.07638 11.3419 6.15076 11.3581 6.22223H5C3.89543 6.22223 3 7.11766 3 8.22223V18.2222C3 19.3268 3.89543 20.2222 5 20.2222H19C20.1046 20.2222 21 19.3268 21 18.2222V8.22223C21 7.11766 20.1046 6.22223 19 6.22223H13.3085C13.3248 6.15076 13.3333 6.07638 13.3333 6V4C13.3333 3.44772 12.8856 3 12.3333 3ZM11 11.1111C11 12.768 9.65685 14.1111 8 14.1111C6.34315 14.1111 5 12.768 5 11.1111C5 9.45426 6.34315 8.11111 8 8.11111C9.65685 8.11111 11 9.45426 11 11.1111ZM16 14.1111C17.6569 14.1111 19 12.768 19 11.1111C19 9.45426 17.6569 8.11111 16 8.11111C14.3431 8.11111 13 9.45426 13 11.1111C13 12.768 14.3431 14.1111 16 14.1111ZM8 17.2222C8 16.6699 8.44772 16.2222 9 16.2222H16C16.5523 16.2222 17 16.6699 17 17.2222C17 17.7745 16.5523 18.2222 16 18.2222H9C8.44772 18.2222 8 17.7745 8 17.2222ZM8 12.1111C8.55228 12.1111 9 11.6634 9 11.1111C9 10.5588 8.55228 10.1111 8 10.1111C7.44772 10.1111 7 10.5588 7 11.1111C7 11.6634 7.44772 12.1111 8 12.1111ZM17 11.1111C17 11.6634 16.5523 12.1111 16 12.1111C15.4477 12.1111 15 11.6634 15 11.1111C15 10.5588 15.4477 10.1111 16 10.1111C16.5523 10.1111 17 10.5588 17 11.1111Z" fill="#64748B"/>
</svg>
