<svg width="24" height="24" viewBox="0 0 24 24" fill="none" xmlns="http://www.w3.org/2000/svg">
  <path fill="#71717A"
    d="M9.925781 5.679688c.121094.253906.015625.558593-.238281.679687-.015625.007813-.03125.015625-.046875.023437-2.570313.917969-4.402344 3.292969-4.402344 6.078126v.515624H2.34375v-.511718c0-3.949219 2.566406-7.316406 6.1875-8.65625.242188-.089844.515625.019531.628906.261718ZM2.34375 13.949219h2.894531v7.789062H2.34375Zm19.3125-1.484375v.511718h-2.894531v-.511718c0-2.789063-1.832031-5.164063-4.402344-6.082032-.125-.046874-.230469-.140624-.289063-.261718-.054687-.121094-.0625-.261719-.015624-.390625 0-.015625.011718-.035157.015624-.050781l.765626-1.613282c.113281-.238281.386718-.347656.628906-.257812 3.625 1.339844 6.191406 4.707031 6.191406 8.65625Zm-2.894531 1.484375h2.894531v7.789062h-2.894531Zm0 0" />
  <path fill="#ffc905"
    d="M13.839844 2.390625c.160156.023437.300781.117187.375.261719.078125.144531.082031.316406.015625.464844l-.140625.289062-1.074219 2.273438c-.089844.1875-.285156.300781-.492187.289062-.171876-.007812-.347657-.011719-.523438-.011719-.175781 0-.351562.003907-.523438.011719-.207031.011719-.402343-.101562-.492187-.289062L9.910156 3.40625l-.140625-.289062c-.117187-.257813-.011719-.5625.246094-.683594.042969-.019532.09375-.035156.144531-.042969 1.222656-.167969 2.457032-.167969 3.679688 0Zm3.953125 10.074219v9.269531h-2.894531v-9.269531c0-1.539063-1.300782-2.785156-2.898438-2.785156s-2.898438 1.246093-2.898438 2.785156v9.269531H6.207031v-9.269531c0-3.074219 2.59375-5.566406 5.792969-5.566406 3.199219 0 5.792969 2.492187 5.792969 5.566406Zm0 0" />
</svg>