<?xml version="1.0" encoding="UTF-8"?>
<svg xmlns="http://www.w3.org/2000/svg" xmlns:xlink="http://www.w3.org/1999/xlink" width="26px" height="24px" viewBox="0 0 25 24" version="1.1">
<defs>
<clipPath id="clip1">
  <path d="M 7 14 L 20 14 L 20 23.996094 L 7 23.996094 Z M 7 14 "/>
</clipPath>
<linearGradient id="linear0" gradientUnits="userSpaceOnUse" x1="887.4" y1="1515.4" x2="1426.2" y2="2354.9" gradientTransform="matrix(0.01,0,0,0.0102345,0,0)">
<stop offset="0" style="stop-color:rgb(100%,73.72549%,61.176471%);stop-opacity:1;"/>
<stop offset="0.7" style="stop-color:rgb(100%,73.72549%,61.176471%);stop-opacity:1;"/>
<stop offset="1" style="stop-color:rgb(100%,65.098039%,47.843137%);stop-opacity:1;"/>
</linearGradient>
<linearGradient id="linear1" gradientUnits="userSpaceOnUse" x1="619.7" y1="1842.9" x2="570.9" y2="2039.3" gradientTransform="matrix(0.01,0,0,0.0102345,0,0)">
<stop offset="0" style="stop-color:rgb(94.901961%,52.941176%,45.098039%);stop-opacity:1;"/>
<stop offset="0.3" style="stop-color:rgb(94.901961%,52.941176%,45.098039%);stop-opacity:1;"/>
<stop offset="1" style="stop-color:rgb(96.470588%,65.098039%,41.568627%);stop-opacity:1;"/>
</linearGradient>
<linearGradient id="linear2" gradientUnits="userSpaceOnUse" x1="697.5" y1="1937.2" x2="637.8" y2="2170.3" gradientTransform="matrix(0.01,0,0,0.0102345,0,0)">
<stop offset="0" style="stop-color:rgb(94.901961%,52.941176%,45.098039%);stop-opacity:1;"/>
<stop offset="0.3" style="stop-color:rgb(94.901961%,52.941176%,45.098039%);stop-opacity:1;"/>
<stop offset="1" style="stop-color:rgb(96.470588%,65.098039%,41.568627%);stop-opacity:1;"/>
</linearGradient>
<clipPath id="clip2">
  <path d="M 5 20 L 12 20 L 12 23.996094 L 5 23.996094 Z M 5 20 "/>
</clipPath>
<linearGradient id="linear3" gradientUnits="userSpaceOnUse" x1="860.8" y1="2032" x2="767.6" y2="2378.4" gradientTransform="matrix(0.01,0,0,0.0102345,0,0)">
<stop offset="0" style="stop-color:rgb(94.901961%,52.941176%,45.098039%);stop-opacity:1;"/>
<stop offset="0.3" style="stop-color:rgb(94.901961%,52.941176%,45.098039%);stop-opacity:1;"/>
<stop offset="1" style="stop-color:rgb(96.470588%,65.098039%,41.568627%);stop-opacity:1;"/>
</linearGradient>
<clipPath id="clip3">
  <path d="M 16 21 L 21 21 L 21 23.996094 L 16 23.996094 Z M 16 21 "/>
</clipPath>
<linearGradient id="linear4" gradientUnits="userSpaceOnUse" x1="1837" y1="2168.8" x2="1891.9" y2="2355.9" gradientTransform="matrix(0.01,0,0,0.0102345,0,0)">
<stop offset="0" style="stop-color:rgb(96.078431%,47.843137%,33.333333%);stop-opacity:1;"/>
<stop offset="0.4" style="stop-color:rgb(94.901961%,52.941176%,45.098039%);stop-opacity:1;"/>
<stop offset="1" style="stop-color:rgb(98.039216%,62.352941%,43.137255%);stop-opacity:1;"/>
</linearGradient>
<linearGradient id="linear5" gradientUnits="userSpaceOnUse" x1="1929.1" y1="2064.7" x2="2011.7" y2="2237.2" gradientTransform="matrix(0.01,0,0,0.0102345,0,0)">
<stop offset="0" style="stop-color:rgb(96.078431%,47.843137%,33.333333%);stop-opacity:1;"/>
<stop offset="0.4" style="stop-color:rgb(94.901961%,52.941176%,45.098039%);stop-opacity:1;"/>
<stop offset="1" style="stop-color:rgb(98.039216%,62.352941%,43.137255%);stop-opacity:1;"/>
</linearGradient>
<linearGradient id="linear6" gradientUnits="userSpaceOnUse" x1="2003.9" y1="1992.4" x2="2071.1" y2="2115.3" gradientTransform="matrix(0.01,0,0,0.0102345,0,0)">
<stop offset="0" style="stop-color:rgb(96.078431%,47.843137%,33.333333%);stop-opacity:1;"/>
<stop offset="0.4" style="stop-color:rgb(94.901961%,52.941176%,45.098039%);stop-opacity:1;"/>
<stop offset="1" style="stop-color:rgb(98.039216%,62.352941%,43.137255%);stop-opacity:1;"/>
</linearGradient>
<linearGradient id="linear7" gradientUnits="userSpaceOnUse" x1="1575.7" y1="453.7" x2="1575.7" y2="1070" gradientTransform="matrix(0.01,0,0,0.0102345,0,0)">
<stop offset="0" style="stop-color:rgb(100%,90.588235%,40.784314%);stop-opacity:1;"/>
<stop offset="0.4" style="stop-color:rgb(100%,90.588235%,40.784314%);stop-opacity:1;"/>
<stop offset="0.7" style="stop-color:rgb(100%,74.117647%,29.019608%);stop-opacity:1;"/>
<stop offset="1" style="stop-color:rgb(100%,74.117647%,29.019608%);stop-opacity:1;"/>
</linearGradient>
<linearGradient id="linear8" gradientUnits="userSpaceOnUse" x1="1707.5" y1="1011.2" x2="1992.3" y2="1479.7" gradientTransform="matrix(0.01,0,0,0.0102345,0,0)">
<stop offset="0" style="stop-color:rgb(33.72549%,26.27451%,25.490196%);stop-opacity:1;"/>
<stop offset="0.5" style="stop-color:rgb(33.72549%,26.27451%,25.490196%);stop-opacity:1;"/>
<stop offset="1" style="stop-color:rgb(51.764706%,34.117647%,31.372549%);stop-opacity:1;"/>
</linearGradient>
<linearGradient id="linear9" gradientUnits="userSpaceOnUse" x1="1264" y1="947.5" x2="1550.6" y2="1427.7" gradientTransform="matrix(0.01,0,0,0.0102345,0,0)">
<stop offset="0" style="stop-color:rgb(33.72549%,26.27451%,25.490196%);stop-opacity:1;"/>
<stop offset="0.5" style="stop-color:rgb(33.72549%,26.27451%,25.490196%);stop-opacity:1;"/>
<stop offset="1" style="stop-color:rgb(51.764706%,34.117647%,31.372549%);stop-opacity:1;"/>
</linearGradient>
<linearGradient id="linear10" gradientUnits="userSpaceOnUse" x1="1945.7" y1="1986.8" x2="1977.7" y2="2011.6" gradientTransform="matrix(0.01,0,0,0.0102345,0,0)">
<stop offset="0" style="stop-color:rgb(76.470588%,36.078431%,27.058824%);stop-opacity:1;"/>
<stop offset="1" style="stop-color:rgb(71.764706%,39.215686%,33.333333%);stop-opacity:1;"/>
</linearGradient>
<linearGradient id="linear11" gradientUnits="userSpaceOnUse" x1="1867.1" y1="2077.2" x2="1906.2" y2="2128.2" gradientTransform="matrix(0.01,0,0,0.0102345,0,0)">
<stop offset="0" style="stop-color:rgb(76.470588%,36.078431%,27.058824%);stop-opacity:1;"/>
<stop offset="1" style="stop-color:rgb(71.764706%,39.215686%,33.333333%);stop-opacity:1;"/>
</linearGradient>
<clipPath id="clip4">
  <path d="M 6 21 L 12 21 L 12 23.996094 L 6 23.996094 Z M 6 21 "/>
</clipPath>
<linearGradient id="linear12" gradientUnits="userSpaceOnUse" x1="1126.5" y1="2143.3" x2="970.9" y2="2406.2" gradientTransform="matrix(0.01,0,0,0.0102345,0,0)">
<stop offset="0" style="stop-color:rgb(66.666667%,38.039216%,37.647059%);stop-opacity:1;"/>
<stop offset="1" style="stop-color:rgb(70.196078%,43.529412%,37.254902%);stop-opacity:1;"/>
</linearGradient>
<clipPath id="clip5">
  <path d="M 16 22 L 20 22 L 20 23.996094 L 16 23.996094 Z M 16 22 "/>
</clipPath>
<linearGradient id="linear13" gradientUnits="userSpaceOnUse" x1="1737.3" y1="2177" x2="1777.2" y2="2265.9" gradientTransform="matrix(0.01,0,0,0.0102345,0,0)">
<stop offset="0" style="stop-color:rgb(76.470588%,36.078431%,27.058824%);stop-opacity:1;"/>
<stop offset="1" style="stop-color:rgb(71.764706%,39.215686%,33.333333%);stop-opacity:1;"/>
</linearGradient>
<linearGradient id="linear14" gradientUnits="userSpaceOnUse" x1="868.7" y1="2003.4" x2="755.2" y2="2204.6" gradientTransform="matrix(0.01,0,0,0.0102345,0,0)">
<stop offset="0" style="stop-color:rgb(66.666667%,38.039216%,37.647059%);stop-opacity:1;"/>
<stop offset="1" style="stop-color:rgb(70.196078%,43.529412%,37.254902%);stop-opacity:1;"/>
</linearGradient>
<linearGradient id="linear15" gradientUnits="userSpaceOnUse" x1="757.6" y1="1894.8" x2="663.9" y2="2066" gradientTransform="matrix(0.01,0,0,0.0102345,0,0)">
<stop offset="0" style="stop-color:rgb(66.666667%,38.039216%,37.647059%);stop-opacity:1;"/>
<stop offset="1" style="stop-color:rgb(70.196078%,43.529412%,37.254902%);stop-opacity:1;"/>
</linearGradient>
<linearGradient id="linear16" gradientUnits="userSpaceOnUse" x1="2394.3" y1="1310.1" x2="2004.9" y2="1704.8" gradientTransform="matrix(0.01,0,0,0.0102345,0,0)">
<stop offset="0" style="stop-color:rgb(100%,79.607843%,52.941176%);stop-opacity:1;"/>
<stop offset="0.1" style="stop-color:rgb(100%,79.607843%,52.941176%);stop-opacity:1;"/>
<stop offset="0.4" style="stop-color:rgb(100%,73.72549%,61.176471%);stop-opacity:1;"/>
<stop offset="1" style="stop-color:rgb(100%,73.72549%,61.176471%);stop-opacity:1;"/>
</linearGradient>
<linearGradient id="linear17" gradientUnits="userSpaceOnUse" x1="2354" y1="1206.8" x2="1867.7" y2="1730.7" gradientTransform="matrix(0.01,0,0,0.0102345,0,0)">
<stop offset="0" style="stop-color:rgb(98.431373%,76.470588%,54.901961%);stop-opacity:1;"/>
<stop offset="0.3" style="stop-color:rgb(94.509804%,58.823529%,45.882353%);stop-opacity:1;"/>
<stop offset="0.7" style="stop-color:rgb(94.117647%,52.941176%,41.568627%);stop-opacity:1;"/>
<stop offset="1" style="stop-color:rgb(92.941176%,53.333333%,43.921569%);stop-opacity:1;"/>
</linearGradient>
<linearGradient id="linear18" gradientUnits="userSpaceOnUse" x1="2105.3" y1="1381.3" x2="2105.3" y2="1453.1" gradientTransform="matrix(0.01,0,0,0.0102345,0,0)">
<stop offset="0" style="stop-color:rgb(100%,100%,99.607843%);stop-opacity:1;"/>
<stop offset="1" style="stop-color:rgb(100%,100%,100%);stop-opacity:1;"/>
</linearGradient>
<linearGradient id="linear19" gradientUnits="userSpaceOnUse" x1="2274.5" y1="1272.6" x2="2274.5" y2="1456.3" gradientTransform="matrix(0.01,0,0,0.0102345,0,0)">
<stop offset="0" style="stop-color:rgb(100%,100%,99.607843%);stop-opacity:1;"/>
<stop offset="1" style="stop-color:rgb(100%,100%,100%);stop-opacity:1;"/>
</linearGradient>
<linearGradient id="linear20" gradientUnits="userSpaceOnUse" x1="288.4" y1="689.3" x2="624.3" y2="1846.7" gradientTransform="matrix(0.01,0,0,0.0102345,0,0)">
<stop offset="0" style="stop-color:rgb(100%,79.607843%,52.941176%);stop-opacity:1;"/>
<stop offset="0.2" style="stop-color:rgb(100%,79.607843%,52.941176%);stop-opacity:1;"/>
<stop offset="0.7" style="stop-color:rgb(100%,73.72549%,61.176471%);stop-opacity:1;"/>
<stop offset="1" style="stop-color:rgb(100%,73.72549%,61.176471%);stop-opacity:1;"/>
</linearGradient>
<linearGradient id="linear21" gradientUnits="userSpaceOnUse" x1="11.7" y1="1035.8" x2="616.7" y2="1632" gradientTransform="matrix(0.01,0,0,0.0102345,0,0)">
<stop offset="0" style="stop-color:rgb(100%,79.607843%,52.941176%);stop-opacity:1;"/>
<stop offset="0.3" style="stop-color:rgb(96.862745%,61.960784%,45.882353%);stop-opacity:1;"/>
<stop offset="0.5" style="stop-color:rgb(93.72549%,52.941176%,42.745098%);stop-opacity:1;"/>
<stop offset="1" style="stop-color:rgb(92.941176%,53.333333%,43.921569%);stop-opacity:1;"/>
</linearGradient>
<linearGradient id="linear22" gradientUnits="userSpaceOnUse" x1="578.3" y1="1143.8" x2="585.4" y2="1348.2" gradientTransform="matrix(0.01,0,0,0.0102345,0,0)">
<stop offset="0" style="stop-color:rgb(100%,100%,99.607843%);stop-opacity:1;"/>
<stop offset="1" style="stop-color:rgb(100%,100%,100%);stop-opacity:1;"/>
</linearGradient>
<linearGradient id="linear23" gradientUnits="userSpaceOnUse" x1="367.8" y1="852.8" x2="381.3" y2="1240.2" gradientTransform="matrix(0.01,0,0,0.0102345,0,0)">
<stop offset="0" style="stop-color:rgb(100%,97.647059%,80.784314%);stop-opacity:1;"/>
<stop offset="1" style="stop-color:rgb(100%,100%,100%);stop-opacity:1;"/>
</linearGradient>
<clipPath id="clip6">
  <path d="M 4 0.0078125 L 12 0.0078125 L 12 7 L 4 7 Z M 4 0.0078125 "/>
</clipPath>
<clipPath id="clip7">
  <path d="M 3 0.0078125 L 5 0.0078125 L 5 3 L 3 3 Z M 3 0.0078125 "/>
</clipPath>
<clipPath id="clip8">
  <path d="M 3 0.0078125 L 10 0.0078125 L 10 6 L 3 6 Z M 3 0.0078125 "/>
</clipPath>
<clipPath id="clip9">
  <path d="M 0 0.0078125 L 25 0.0078125 L 25 23.996094 L 0 23.996094 Z M 0 0.0078125 "/>
</clipPath>
</defs>
<g id="surface1">
<path style=" stroke:none;fill-rule:nonzero;fill:rgb(100%,35.294118%,35.294118%);fill-opacity:1;" d="M 2.976562 18.496094 C 2.371094 18.769531 1.773438 19.054688 1.179688 19.355469 L 0.820312 19.773438 C 0.683594 20.15625 0.707031 20.753906 0.648438 21.160156 L 0.816406 21.527344 L 1.03125 21.445312 C 1.03125 21.445312 1.117188 21.105469 1.671875 20.535156 L 2.179688 20.089844 C 2.179688 20.089844 3.992188 18.988281 4.25 18.863281 C 3.886719 18.757812 3.339844 18.605469 2.976562 18.496094 Z M 2.976562 18.496094 "/>
<path style=" stroke:none;fill-rule:nonzero;fill:rgb(61.568627%,21.568627%,21.568627%);fill-opacity:1;" d="M 4.234375 18.820312 C 3.472656 19.480469 2.453125 19.824219 1.734375 20.542969 L 1.558594 20.808594 C 2.800781 20.023438 4.070312 21.292969 5.195312 21.640625 C 5.464844 21.722656 5.222656 21.566406 5.195312 21.378906 C 5.183594 21.300781 5.234375 21.167969 5.34375 20.976562 L 5.347656 20.691406 L 4.574219 20.488281 L 4.710938 19.769531 L 5.101562 19.480469 C 5.179688 19.34375 5.5625 19.136719 5.652344 19.007812 L 4.820312 18.808594 Z M 4.234375 18.820312 "/>
<g clip-path="url(#clip1)" clip-rule="nonzero">
<path style=" stroke:none;fill-rule:nonzero;fill:url(#linear0);" d="M 19.886719 18.71875 L 19.886719 17.785156 L 19.84375 17.058594 L 19.675781 16.367188 L 19.515625 15.902344 L 19.269531 15.484375 L 19.070312 15.113281 L 18.886719 15.574219 L 18.554688 16.144531 L 18.292969 16.480469 L 17.957031 16.757812 L 17.328125 17.109375 L 16.734375 17.109375 L 16.164062 16.835938 L 15.660156 16.546875 L 15.300781 16.074219 L 15.191406 15.710938 L 14.988281 14.488281 L 14.902344 14.742188 L 14.59375 15.335938 L 14.226562 15.867188 L 13.726562 16.324219 L 13.320312 16.546875 L 12.777344 16.699219 L 12.371094 16.683594 L 11.261719 16.171875 L 10.710938 15.484375 L 10.527344 15.113281 L 10.082031 16.039062 L 9.566406 16.699219 L 8.765625 17.5625 L 7.980469 18.078125 L 7.296875 18.605469 C 7.324219 18.914062 7.417969 19.128906 7.574219 19.257812 C 7.976562 19.582031 8.234375 20.148438 8.609375 20.429688 C 9.082031 20.789062 9.523438 20.960938 9.953125 21.238281 C 10.355469 21.496094 10.453125 21.976562 10.808594 22.179688 C 12.132812 22.933594 13.363281 23.027344 13.679688 22.976562 C 14.058594 23.050781 14.570312 22.960938 14.949219 22.96875 C 15.210938 22.90625 15.839844 22.847656 16.164062 22.707031 C 16.683594 22.480469 17.515625 22.179688 18.011719 21.851562 C 18.601562 21.457031 18.980469 20.871094 19.125 20.699219 C 19.269531 20.523438 19.410156 20.1875 19.515625 19.996094 C 19.632812 19.753906 19.695312 19.511719 19.777344 19.257812 Z M 19.886719 18.71875 "/>
</g>
<path style=" stroke:none;fill-rule:nonzero;fill:rgb(94.901961%,52.941176%,45.098039%);fill-opacity:1;" d="M 9.023438 17.679688 C 9.722656 18.746094 12.324219 18.117188 12.324219 16.777344 C 12.324219 16.777344 11.582031 16.609375 11.265625 16.292969 L 10.550781 15.417969 C 10.15625 16.199219 9.023438 17.09375 8.90625 17.480469 C 8.90625 17.480469 8.980469 17.601562 9.023438 17.679688 Z M 17.328125 17.195312 C 17.28125 18.277344 18.960938 18.785156 19.769531 18.28125 C 19.816406 17.261719 19.6875 16.179688 19.074219 15.359375 C 18.878906 15.585938 18.855469 16.078125 18.34375 16.546875 C 18.046875 16.820312 17.703125 17.039062 17.332031 17.195312 Z M 17.328125 17.195312 "/>
<path style=" stroke:none;fill-rule:nonzero;fill:rgb(33.72549%,26.27451%,25.490196%);fill-opacity:1;" d="M 13.96875 16.699219 C 14.128906 17.261719 14.972656 17.410156 15.566406 17.511719 C 15.0625 17.683594 14.488281 17.601562 14.023438 17.347656 C 13.765625 17.234375 13.535156 16.792969 13.96875 16.699219 Z M 13.96875 16.699219 "/>
<path style=" stroke:none;fill-rule:nonzero;fill:url(#linear1);" d="M 7.246094 18.917969 C 7.128906 18.71875 5.464844 19.042969 4.703125 19.984375 C 4.332031 20.386719 4.847656 20.59375 5.222656 20.539062 C 6.335938 20.25 6.183594 19.566406 7.820312 19.75 C 7.839844 19.753906 7.53125 19.398438 7.246094 18.917969 Z M 7.246094 18.917969 "/>
<path style=" stroke:none;fill-rule:nonzero;fill:url(#linear2);" d="M 7.996094 19.9375 C 7.230469 19.640625 6.042969 19.957031 5.441406 20.769531 C 5.226562 21.058594 4.898438 21.914062 5.269531 21.828125 C 6.199219 21.617188 6.867188 21.621094 6.988281 21.507812 C 7.421875 21.097656 7.730469 20.800781 8.847656 20.761719 C 8.714844 20.578125 8.285156 20.046875 8 19.9375 Z M 7.996094 19.9375 "/>
<g clip-path="url(#clip2)" clip-rule="nonzero">
<path style=" stroke:none;fill-rule:nonzero;fill:url(#linear3);" d="M 9.464844 20.945312 C 8.675781 20.636719 7.78125 20.816406 7.160156 21.40625 C 5.753906 22.710938 5.945312 23.511719 5.945312 23.511719 L 6.09375 23.769531 C 6.480469 23.921875 8.140625 23.4375 8.597656 23.300781 C 9.472656 23.046875 10.410156 22.953125 11.277344 22.671875 C 11.277344 22.671875 9.734375 21.144531 9.464844 20.945312 Z M 9.464844 20.945312 "/>
</g>
<g clip-path="url(#clip3)" clip-rule="nonzero">
<path style=" stroke:none;fill-rule:nonzero;fill:url(#linear4);" d="M 16.46875 22.765625 C 17.585938 22.855469 18.667969 23.21875 19.710938 23.617188 L 19.96875 23.707031 L 20.179688 23.667969 C 20.46875 23.191406 20.007812 22.703125 19.714844 22.355469 C 19.441406 22.0625 18.984375 21.929688 18.605469 21.855469 C 17.8125 21.78125 17.148438 22.425781 16.46875 22.765625 Z M 16.46875 22.765625 "/>
</g>
<path style=" stroke:none;fill-rule:nonzero;fill:url(#linear5);" d="M 18.074219 21.929688 C 18.746094 21.726562 19.484375 21.960938 19.976562 22.523438 C 19.976562 22.523438 20.359375 22.761719 20.46875 22.691406 C 20.570312 22.625 20.449219 22.152344 20.390625 22.042969 C 20.050781 21.375 19.777344 20.964844 19.105469 20.769531 C 18.769531 21.152344 18.445312 21.578125 18.074219 21.929688 Z M 18.074219 21.929688 "/>
<path style=" stroke:none;fill-rule:nonzero;fill:url(#linear6);" d="M 19.246094 20.726562 C 20.183594 21.027344 19.925781 21.371094 20.78125 21.578125 C 20.835938 21.589844 20.839844 21.339844 20.839844 21.285156 C 20.839844 21.015625 20.117188 20.390625 19.726562 20.128906 C 19.566406 20.023438 19.171875 20.699219 19.246094 20.722656 Z M 19.246094 20.726562 "/>
<path style=" stroke:none;fill-rule:nonzero;fill:url(#linear7);" d="M 15.648438 9.710938 C 15.695312 10.03125 15.597656 10.949219 15.597656 10.949219 C 18.238281 10.242188 21.839844 6.234375 16.511719 7.003906 C 17.074219 6.171875 18.222656 5.71875 18.652344 4.761719 L 18.628906 4.644531 C 16.238281 4.761719 13.847656 6.023438 12.371094 7.964844 L 12.253906 8.320312 L 12.410156 8.726562 C 13.5 9.070312 14.679688 8.972656 15.8125 9.0625 C 15.8125 9.0625 15.617188 9.613281 15.648438 9.710938 Z M 15.648438 9.710938 "/>
<path style=" stroke:none;fill-rule:nonzero;fill:url(#linear8);" d="M 15.109375 14.078125 C 14.644531 15.679688 16.371094 16.03125 17.550781 15.445312 C 20.1875 13.296875 19.480469 8.289062 15.53125 11.273438 C 15.308594 11.640625 15.367188 12.617188 15.355469 12.664062 C 15.292969 13.015625 15.132812 14.003906 15.109375 14.078125 Z M 15.109375 14.078125 "/>
<path style=" stroke:none;fill-rule:nonzero;fill:url(#linear9);" d="M 10.675781 14.40625 C 10.777344 15.152344 12.179688 15.304688 12.914062 14.976562 C 14.625 14.390625 15.140625 10.972656 14.457031 9.957031 C 14.394531 9.863281 13.542969 9.738281 13.195312 9.703125 C 12.226562 9.609375 11.074219 10.535156 10.574219 11.84375 C 10.445312 12.191406 10.625 12.632812 10.660156 12.988281 C 10.710938 13.484375 10.628906 14.042969 10.675781 14.40625 Z M 10.675781 14.40625 "/>
<path style=" stroke:none;fill-rule:nonzero;fill:rgb(100%,100%,100%);fill-opacity:1;" d="M 10.640625 14.722656 C 10.640625 14.722656 13.242188 16.574219 14.527344 13.066406 C 14.851562 12.171875 14.707031 10.835938 14.714844 10.238281 C 15.851562 10.800781 14.996094 14 14.914062 14.382812 C 14.632812 15.734375 13.335938 16.789062 12.253906 16.496094 C 10.621094 16.054688 10.640625 14.722656 10.640625 14.722656 Z M 15.113281 15.355469 L 15.339844 15.441406 C 16.046875 15.984375 17.0625 15.792969 17.753906 15.316406 C 18.761719 14.480469 18.851562 13.359375 19.238281 12.203125 L 19.308594 12.28125 C 19.460938 13.476562 19.179688 14.699219 18.765625 15.8125 C 17.851562 17.6875 15.429688 17.527344 15.113281 15.355469 Z M 15.113281 15.355469 "/>
<path style=" stroke:none;fill-rule:nonzero;fill:rgb(100%,100%,100%);fill-opacity:1;" d="M 15.632812 12.675781 C 15.460938 13.09375 15.398438 13.625 15.519531 14.066406 C 15.8125 14.753906 16.609375 14.8125 17.074219 14.269531 C 18.402344 12.8125 16.808594 10.351562 15.632812 12.675781 Z M 13.332031 12.664062 C 13.582031 9.671875 10.527344 11.300781 11.300781 13.457031 C 11.960938 14.542969 13.097656 13.5625 13.332031 12.664062 Z M 13.332031 12.664062 "/>
<path style=" stroke:none;fill-rule:nonzero;fill:url(#linear10);" d="M 19.660156 20.515625 C 19.6875 20.710938 19.816406 20.894531 19.816406 20.894531 L 19.535156 20.699219 L 19.34375 20.601562 L 19.589844 20.1875 L 19.691406 20.238281 C 19.691406 20.238281 19.636719 20.359375 19.660156 20.515625 Z M 19.660156 20.515625 "/>
<path style=" stroke:none;fill-rule:nonzero;fill:url(#linear11);" d="M 19.074219 21.535156 C 19.152344 21.722656 19.410156 21.949219 19.410156 21.949219 L 18.761719 21.75 L 18.441406 21.714844 L 19 21.078125 C 19 21.078125 18.992188 21.335938 19.074219 21.535156 Z M 19.074219 21.535156 "/>
<g clip-path="url(#clip4)" clip-rule="nonzero">
<path style=" stroke:none;fill-rule:nonzero;fill:url(#linear12);" d="M 6.90625 23.589844 C 6.90625 23.589844 8.714844 23.039062 9.445312 22.292969 C 9.941406 21.78125 9.535156 21.140625 9.613281 21.175781 C 10.105469 21.402344 10.257812 21.738281 10.550781 22.105469 C 10.683594 22.269531 11.265625 22.660156 11.265625 22.660156 C 11.265625 22.660156 10.296875 22.796875 9.898438 22.925781 C 9.183594 23.152344 6.90625 23.589844 6.90625 23.589844 Z M 6.90625 23.589844 "/>
</g>
<g clip-path="url(#clip5)" clip-rule="nonzero">
<path style=" stroke:none;fill-rule:nonzero;fill:url(#linear13);" d="M 18.097656 22.257812 C 18.175781 22.675781 18.273438 22.789062 19.039062 23.1875 C 19.066406 23.203125 18.589844 23.035156 17.847656 22.847656 C 17.597656 22.785156 16.851562 22.660156 16.851562 22.660156 C 16.851562 22.660156 17.390625 22.441406 17.53125 22.347656 C 17.699219 22.234375 18.144531 22.039062 18.144531 22.039062 C 18.144531 22.039062 18.089844 22.214844 18.097656 22.253906 Z M 18.097656 22.257812 "/>
</g>
<path style=" stroke:none;fill-rule:nonzero;fill:url(#linear14);" d="M 6.894531 21.40625 C 6.804688 21.433594 6.484375 21.46875 6.171875 21.566406 C 6.03125 21.609375 5.8125 21.671875 5.652344 21.71875 C 5.578125 21.738281 5.378906 21.761719 5.3125 21.707031 C 5.292969 21.691406 5.253906 21.609375 5.277344 21.605469 C 6.148438 21.414062 6.675781 21.171875 7.0625 20.933594 C 7.726562 20.523438 7.847656 20.199219 7.902344 19.960938 C 7.925781 19.859375 8.164062 20.089844 8.25 20.179688 L 8.6875 20.644531 C 8.6875 20.644531 8.058594 20.769531 7.867188 20.824219 C 7.4375 20.953125 7.019531 21.367188 6.894531 21.40625 Z M 6.894531 21.40625 "/>
<path style=" stroke:none;fill-rule:nonzero;fill:url(#linear15);" d="M 4.628906 20.421875 C 5.433594 20.09375 6.234375 19.8125 7.09375 18.929688 C 7.152344 18.871094 7.316406 19.011719 7.34375 19.070312 C 7.457031 19.351562 7.667969 19.660156 7.53125 19.644531 C 6.679688 19.550781 6.15625 19.914062 5.777344 20.210938 C 5.507812 20.425781 4.550781 20.449219 4.628906 20.421875 Z M 4.628906 20.421875 "/>
<path style=" stroke:none;fill-rule:nonzero;fill:url(#linear16);" d="M 19.777344 16.664062 C 19.820312 16.917969 19.820312 17.636719 19.914062 17.6875 C 21.53125 18.628906 23.898438 18.546875 24.339844 16.445312 L 24.578125 16.40625 L 24.796875 16.160156 C 24.867188 15.761719 24.921875 15.355469 24.957031 14.949219 L 24.828125 14.363281 L 24.578125 13.839844 L 23.933594 13.089844 L 23.21875 12.667969 L 22.457031 12.433594 L 21.546875 12.347656 L 20.835938 12.40625 L 20.019531 12.609375 C 19.890625 12.6875 19.519531 12.902344 19.414062 13.011719 C 19.371094 13.253906 19.277344 13.738281 19.21875 13.972656 C 19.195312 14.136719 19.195312 14.484375 19.117188 14.65625 L 19.097656 15.011719 L 19.195312 15.433594 C 19.417969 15.875 19.671875 16.160156 19.777344 16.664062 Z M 19.777344 16.664062 "/>
<path style=" stroke:none;fill-rule:nonzero;fill:url(#linear17);" d="M 20.492188 18.003906 C 19.375 15.417969 20.65625 12.863281 23.539062 12.902344 C 22.871094 12.457031 22.320312 12.394531 21.546875 12.351562 L 21.152344 12.410156 L 20.867188 12.386719 C 20.394531 12.523438 19.773438 12.664062 19.410156 13.035156 C 19.394531 13.261719 19.273438 13.773438 19.214844 13.996094 C 19.15625 14.164062 18.972656 14.65625 18.976562 14.832031 L 19.261719 15.511719 C 19.464844 15.914062 19.570312 16.070312 19.664062 16.515625 L 19.84375 17.203125 L 19.933594 17.6875 Z M 20.492188 18.003906 "/>
<path style=" stroke:none;fill-rule:nonzero;fill:url(#linear18);" d="M 21.414062 14.648438 C 21.472656 14.546875 21.433594 14.316406 21.265625 14.210938 C 21.074219 14.089844 20.808594 14.105469 20.695312 14.351562 C 20.605469 14.542969 20.734375 14.734375 20.914062 14.832031 C 21.097656 14.933594 21.316406 14.832031 21.414062 14.648438 Z M 21.414062 14.648438 "/>
<path style=" stroke:none;fill-rule:nonzero;fill:url(#linear19);" d="M 23.761719 14.554688 C 23.609375 14.816406 23.160156 15.011719 22.609375 14.835938 C 21.972656 14.632812 21.289062 13.992188 21.808594 13.269531 C 22.039062 12.953125 22.675781 12.960938 23.128906 13.191406 C 23.460938 13.359375 24.121094 13.941406 23.761719 14.554688 Z M 23.761719 14.554688 "/>
<path style=" stroke:none;fill-rule:nonzero;fill:rgb(92.941176%,53.333333%,43.921569%);fill-opacity:1;" d="M 19.898438 15.179688 C 20.183594 15.710938 20.355469 16.035156 21.257812 16.035156 C 21.558594 16.035156 21.625 16.507812 22.214844 17.003906 C 22.503906 17.246094 23.070312 17.238281 23.402344 17.035156 C 23.601562 16.914062 23.671875 16.960938 23.734375 16.996094 C 23.875 17.078125 23.898438 17.046875 24.082031 17.035156 C 24.082031 17.035156 24.300781 16.726562 24.214844 16.507812 C 23.953125 16.332031 23.726562 16.191406 23.398438 16.199219 L 23.207031 16.382812 L 23.0625 16.613281 L 22.886719 16.726562 L 22.628906 16.703125 C 22.378906 16.484375 22.160156 16.226562 21.976562 15.945312 C 21.585938 15.539062 21.1875 15.628906 20.691406 15.695312 C 20.453125 15.542969 20.148438 15.308594 19.898438 15.179688 Z M 19.898438 15.179688 "/>
<path style=" stroke:none;fill-rule:nonzero;fill:url(#linear20);" d="M 6.527344 18.699219 C 8.9375 17.996094 10.550781 15.890625 11.03125 13.417969 L 11.039062 12.921875 L 11.128906 12.550781 C 11.074219 12.199219 11.105469 11.671875 11.078125 11.320312 L 11.355469 11.199219 L 11.597656 11.148438 L 11.792969 11.007812 C 11.90625 10.703125 11.894531 10.722656 11.871094 10.398438 C 9.9375 6.441406 3.695312 5.574219 1.253906 9.445312 C -1.285156 13.109375 0.976562 19.476562 5.851562 18.882812 Z M 6.527344 18.699219 "/>
<path style=" stroke:none;fill-rule:nonzero;fill:rgb(94.901961%,52.941176%,45.098039%);fill-opacity:1;" d="M 4.558594 16.507812 C 4.710938 15.699219 8.808594 15.191406 9.21875 13.824219 C 9.398438 12.445312 9.890625 12.292969 11.054688 12.167969 L 11.0625 11.472656 L 10.878906 11.304688 C 10.433594 11.4375 9.980469 11.539062 9.519531 11.601562 C 9.246094 11.613281 8.824219 11.617188 8.558594 11.683594 L 8.460938 12.089844 C 8.59375 12.367188 8.726562 13.375 8.726562 13.375 C 8.707031 13.566406 8.679688 13.753906 8.636719 13.9375 C 7.390625 14.925781 5.675781 14.992188 4.304688 15.757812 L 4.222656 16 Z M 4.558594 16.507812 "/>
<path style=" stroke:none;fill-rule:nonzero;fill:url(#linear21);" d="M 7.542969 18.316406 C 2.621094 18.761719 0.3125 12.226562 2.394531 8.164062 C 2.394531 8.164062 1.664062 8.75 1.574219 8.886719 C 0.597656 10.425781 0.0703125 11.578125 0.230469 13.664062 L 0.503906 15.113281 C 0.664062 15.460938 0.972656 16.089844 0.972656 16.089844 C 1.75 18.105469 4.160156 19.390625 6.222656 18.769531 L 6.726562 18.671875 Z M 7.542969 18.316406 "/>
<path style=" stroke:none;fill-rule:nonzero;fill:url(#linear22);" d="M 6.746094 11.972656 C 7.070312 12.367188 6.898438 12.871094 6.519531 13.351562 C 6.09375 13.890625 5.339844 13.941406 4.945312 13.558594 C 4.644531 13.269531 4.558594 12.640625 5.238281 12.046875 C 5.816406 11.542969 6.472656 11.640625 6.746094 11.972656 Z M 6.746094 11.972656 "/>
<path style=" stroke:none;fill-rule:nonzero;fill:url(#linear23);" d="M 5.582031 9.117188 C 5.996094 9.554688 6.140625 10.582031 5.105469 11.644531 C 4.351562 12.417969 2.890625 13.316406 1.890625 12.1875 C 1.164062 11.371094 1.917969 10.09375 2.636719 9.445312 C 3.1875 8.945312 4.746094 8.234375 5.582031 9.117188 Z M 5.582031 9.117188 "/>
<path style=" stroke:none;fill-rule:nonzero;fill:rgb(33.72549%,26.27451%,25.490196%);fill-opacity:1;" d="M 5.152344 16.039062 L 6.035156 16.730469 L 7.234375 16.433594 L 7.40625 14.824219 L 5.277344 15.453125 Z M 5.152344 16.039062 "/>
<path style=" stroke:none;fill-rule:nonzero;fill:rgb(49.019608%,48.627451%,49.019608%);fill-opacity:1;" d="M 6.050781 16.632812 L 5.824219 17.835938 L 7.066406 17.347656 L 7.25 16.320312 Z M 6.050781 16.632812 "/>
<path style=" stroke:none;fill-rule:nonzero;fill:rgb(59.607843%,58.823529%,59.215686%);fill-opacity:1;" d="M 6.050781 16.632812 L 5.152344 16.039062 L 4.984375 16.976562 L 5.824219 17.835938 Z M 6.050781 16.632812 "/>
<path style=" stroke:none;fill-rule:nonzero;fill:rgb(33.72549%,26.27451%,25.490196%);fill-opacity:1;" d="M 6.621094 6.136719 L 6.453125 6.96875 L 8.167969 7.335938 L 8.371094 6.261719 Z M 6.621094 6.136719 "/>
<g clip-path="url(#clip6)" clip-rule="nonzero">
<path style=" stroke:none;fill-rule:nonzero;fill:rgb(71.372549%,71.372549%,71.372549%);fill-opacity:1;" d="M 4.574219 5.957031 L 10.050781 6.265625 L 11.273438 5.785156 L 11.804688 1.992188 L 10.558594 0.933594 L 9.417969 0.800781 L 9.117188 1.058594 L 8.683594 1.1875 L 8.230469 1.175781 L 7.824219 1.179688 L 7.46875 1.121094 L 7.171875 1.058594 L 6.925781 0.980469 L 6.730469 0.847656 L 6.523438 0.714844 L 6.414062 0.503906 L 4.679688 0.371094 L 5.035156 1.515625 Z M 4.574219 5.957031 "/>
</g>
<path style=" stroke:none;fill-rule:nonzero;fill:rgb(100%,92.941176%,49.411765%);fill-opacity:1;" d="M 8.046875 2.773438 L 7.121094 3.578125 L 7.988281 4.273438 L 7.421875 5.21875 L 9.097656 4.78125 L 8.429688 3.804688 L 8.316406 3.574219 L 8.882812 2.734375 L 8.578125 2.652344 L 8.046875 2.769531 Z M 8.046875 2.773438 "/>
<g clip-path="url(#clip7)" clip-rule="nonzero">
<path style=" stroke:none;fill-rule:nonzero;fill:rgb(71.372549%,71.372549%,71.372549%);fill-opacity:1;" d="M 4.621094 0.394531 L 3.566406 1.039062 L 3.375 2.257812 L 4.964844 1.46875 Z M 4.621094 0.394531 "/>
</g>
<g clip-path="url(#clip8)" clip-rule="nonzero">
<path style=" stroke:none;fill-rule:nonzero;fill:rgb(59.215686%,59.215686%,59.215686%);fill-opacity:1;" d="M 5.0625 1.558594 L 4.523438 5.945312 L 3.523438 5.273438 L 3.117188 4.472656 L 3.355469 2.347656 Z M 6.394531 0.472656 L 6.730469 0.84375 L 7.65625 1.140625 L 8.550781 1.152344 C 8.835938 1.070312 9.09375 1.054688 9.300781 0.824219 L 9.339844 0.640625 C 8.902344 0.230469 8.199219 0.21875 7.640625 0.1875 L 6.738281 0.242188 L 6.398438 0.472656 Z M 6.394531 0.472656 "/>
</g>
<g clip-path="url(#clip9)" clip-rule="nonzero">
<path style=" stroke:none;fill-rule:nonzero;fill:rgb(33.72549%,26.27451%,25.490196%);fill-opacity:1;" d="M 7.980469 0.0234375 C 8.699219 0.078125 9.316406 0.324219 9.441406 0.632812 L 10.550781 0.78125 C 10.566406 0.78125 10.578125 0.785156 10.589844 0.792969 C 10.710938 0.839844 10.988281 1.042969 11.339844 1.320312 C 11.480469 1.433594 11.617188 1.550781 11.753906 1.671875 C 11.808594 1.722656 11.851562 1.761719 11.878906 1.792969 C 11.902344 1.820312 11.917969 1.855469 11.925781 1.890625 C 11.957031 1.917969 11.972656 1.957031 11.96875 2 L 11.96875 2.011719 L 11.964844 2.046875 L 11.949219 2.179688 C 11.859375 3.003906 11.761719 3.828125 11.660156 4.652344 C 11.59375 5.160156 11.535156 5.550781 11.484375 5.800781 C 11.460938 5.925781 11.257812 6.027344 10.808594 6.199219 L 10.78125 6.210938 L 10.761719 6.21875 C 10.441406 6.339844 10.15625 6.429688 10.0625 6.429688 C 9.957031 6.429688 9.554688 6.40625 8.480469 6.339844 L 8.355469 7.207031 C 9.441406 7.59375 10.425781 8.246094 11.164062 9.125 L 11.160156 9.121094 L 11.179688 9.140625 C 11.410156 9.371094 11.609375 9.632812 11.773438 9.914062 C 12.035156 9.726562 12.308594 9.597656 12.585938 9.546875 C 13.859375 9.316406 14.929688 9.765625 15.363281 10.671875 C 15.398438 10.464844 15.429688 10.210938 15.457031 9.949219 L 15.464844 9.894531 L 15.464844 9.863281 L 15.472656 9.800781 C 15.488281 9.628906 15.488281 9.476562 15.464844 9.304688 C 15.464844 9.289062 15.449219 9.265625 15.421875 9.234375 L 15.316406 9.226562 L 15.308594 9.226562 C 15.265625 9.222656 15.222656 9.21875 15.144531 9.214844 L 15.117188 9.214844 C 14.207031 9.175781 13.738281 9.148438 13.335938 9.09375 L 13.304688 9.089844 L 13.289062 9.085938 L 13.261719 9.082031 L 13.191406 9.074219 C 12.582031 8.980469 12.230469 8.828125 12.117188 8.535156 C 12.023438 8.289062 12.113281 8.007812 12.328125 7.6875 C 12.46875 7.480469 12.636719 7.289062 12.855469 7.066406 C 13.210938 6.707031 13.859375 6.191406 14.53125 5.75 C 15.386719 5.191406 16.226562 4.789062 16.960938 4.621094 C 17.90625 4.402344 18.683594 4.359375 18.828125 4.664062 C 18.914062 4.839844 18.816406 5.027344 18.585938 5.292969 C 18.425781 5.476562 18.195312 5.699219 17.894531 5.960938 C 17.691406 6.144531 17.480469 6.324219 17.265625 6.496094 L 17.125 6.617188 L 17.113281 6.625 L 17.105469 6.632812 L 17.097656 6.636719 L 17.074219 6.660156 L 16.953125 6.757812 L 16.949219 6.761719 L 16.980469 6.757812 C 17.265625 6.722656 17.554688 6.703125 17.84375 6.707031 L 17.878906 6.710938 C 18.273438 6.722656 18.609375 6.789062 18.871094 6.925781 C 19.195312 7.082031 19.414062 7.394531 19.453125 7.757812 C 19.546875 8.46875 18.722656 9.453125 17.582031 10.167969 C 17.984375 10.179688 18.375 10.289062 18.648438 10.507812 C 18.996094 10.785156 19.257812 11.15625 19.40625 11.582031 C 19.523438 11.917969 19.582031 12.273438 19.578125 12.632812 C 20.730469 12.003906 22.273438 12.027344 23.445312 12.664062 C 24.785156 13.386719 25.355469 14.722656 24.773438 16.277344 C 24.722656 16.441406 24.578125 16.558594 24.414062 16.574219 C 24.414062 16.59375 24.417969 16.609375 24.417969 16.625 C 24.417969 16.773438 24.378906 16.917969 24.304688 17.042969 C 24.171875 17.285156 24.003906 17.507812 23.8125 17.707031 C 23.050781 18.527344 21.648438 18.703125 20.585938 18.167969 L 20.484375 18.117188 L 20.472656 18.109375 L 20.464844 18.105469 L 20.453125 18.101562 L 20.445312 18.097656 L 20.339844 18.046875 C 20.246094 18 20.164062 17.957031 20.089844 17.914062 C 20.097656 18.542969 19.984375 19.167969 19.761719 19.753906 L 19.746094 19.792969 L 19.734375 19.820312 L 19.710938 19.890625 C 19.882812 19.96875 20.050781 20.058594 20.210938 20.160156 C 20.421875 20.308594 20.609375 20.488281 20.765625 20.695312 C 20.855469 20.820312 20.933594 20.953125 20.996094 21.09375 C 21.089844 21.320312 21.109375 21.511719 20.992188 21.65625 C 20.890625 21.785156 20.722656 21.808594 20.519531 21.765625 C 20.605469 21.925781 20.679688 22.097656 20.734375 22.273438 C 20.808594 22.527344 20.789062 22.730469 20.617188 22.859375 C 20.554688 22.90625 20.464844 22.917969 20.363281 22.902344 C 20.539062 23.296875 20.527344 23.6875 20.242188 23.832031 C 20.085938 23.910156 19.902344 23.882812 19.609375 23.78125 C 19.554688 23.761719 19.414062 23.707031 19.261719 23.644531 L 19.242188 23.636719 L 19.210938 23.625 L 19.152344 23.601562 L 19.144531 23.601562 L 19.128906 23.59375 L 18.769531 23.453125 C 18.464844 23.335938 18.152344 23.242188 17.832031 23.171875 L 17.652344 23.128906 L 17.441406 23.085938 C 17.105469 23.015625 16.8125 22.972656 16.535156 22.957031 C 16.34375 22.945312 16.167969 22.949219 16.007812 22.96875 C 15.984375 22.96875 15.960938 22.96875 15.941406 22.960938 C 15.246094 23.125 14.535156 23.191406 13.824219 23.164062 C 13.082031 23.136719 12.683594 23.109375 12.261719 23.027344 C 12.144531 23.003906 12.03125 22.976562 11.914062 22.945312 C 11.539062 22.863281 10.554688 22.996094 9.925781 23.199219 C 9.757812 23.253906 9.585938 23.300781 9.414062 23.339844 L 8.695312 23.5 L 8.65625 23.507812 L 8.644531 23.511719 L 8.589844 23.523438 L 8.566406 23.53125 L 8.542969 23.535156 C 8.289062 23.589844 8.050781 23.648438 7.917969 23.679688 C 7.8125 23.707031 7.707031 23.734375 7.605469 23.761719 L 7.46875 23.800781 L 7.320312 23.84375 C 7.195312 23.875 7.070312 23.90625 6.945312 23.933594 C 6.492188 24.027344 6.171875 24.023438 5.964844 23.867188 C 5.796875 23.738281 5.738281 23.535156 5.761719 23.277344 C 5.78125 23.078125 5.851562 22.839844 5.96875 22.558594 C 6.058594 22.34375 6.253906 22.058594 6.476562 21.796875 L 6.484375 21.785156 L 6.472656 21.789062 C 6.363281 21.820312 6.25 21.851562 6.140625 21.882812 L 6.109375 21.894531 L 6.09375 21.898438 L 5.859375 21.96875 L 5.851562 21.96875 L 5.835938 21.972656 L 5.832031 21.976562 L 5.8125 21.980469 L 5.777344 21.988281 L 5.757812 21.992188 L 5.730469 22 C 5.535156 22.050781 5.402344 22.0625 5.273438 22.023438 C 5.132812 21.976562 5.027344 21.859375 4.988281 21.714844 C 4.949219 21.703125 4.902344 21.691406 4.855469 21.671875 C 4.464844 21.539062 4.105469 21.339844 3.535156 20.976562 C 3.382812 20.875 2.894531 20.730469 2.707031 20.707031 C 2.34375 20.660156 1.6875 20.839844 1.410156 21.035156 C 1.332031 21.140625 1.261719 21.253906 1.203125 21.367188 L 1.195312 21.382812 L 1.167969 21.441406 L 1.160156 21.457031 L 1.152344 21.476562 C 1.121094 21.546875 1.089844 21.613281 1.078125 21.628906 C 1.03125 21.707031 0.972656 21.753906 0.890625 21.757812 C 0.804688 21.761719 0.742188 21.707031 0.695312 21.628906 C 0.664062 21.574219 0.640625 21.503906 0.617188 21.417969 C 0.574219 21.21875 0.550781 21.019531 0.546875 20.820312 C 0.527344 20.292969 0.597656 19.820312 0.765625 19.597656 C 1.007812 19.28125 1.375 19.058594 1.960938 18.8125 C 2.078125 18.761719 2.53125 18.585938 2.628906 18.542969 C 2.722656 18.503906 2.800781 18.46875 2.867188 18.4375 C 2.101562 17.996094 1.449219 17.332031 0.960938 16.503906 C -0.347656 14.289062 -0.289062 11.328125 1.261719 9.15625 C 2.378906 7.597656 4.175781 6.773438 6.15625 6.804688 C 6.230469 6.808594 6.300781 6.808594 6.371094 6.8125 L 6.492188 6.214844 L 5.324219 6.144531 L 5.285156 6.140625 C 4.964844 6.121094 4.738281 6.109375 4.5625 6.101562 C 4.535156 6.097656 4.515625 6.089844 4.496094 6.078125 C 4.066406 5.859375 3.59375 5.539062 3.445312 5.390625 C 3.246094 5.1875 3 4.492188 3 4.242188 C 3 3.863281 3.09375 3.144531 3.242188 2.238281 L 3.261719 2.125 L 3.265625 2.089844 L 3.269531 2.074219 L 3.273438 2.042969 L 3.285156 1.976562 L 3.292969 1.945312 L 3.296875 1.910156 L 3.300781 1.898438 L 3.304688 1.875 C 3.355469 1.585938 3.402344 1.3125 3.433594 1.15625 L 3.4375 1.144531 L 3.460938 1.035156 L 3.460938 1.023438 C 3.488281 0.933594 3.628906 0.84375 4.011719 0.609375 C 4.195312 0.496094 4.382812 0.386719 4.570312 0.28125 L 4.605469 0.261719 L 4.617188 0.257812 C 4.640625 0.242188 4.664062 0.238281 4.691406 0.242188 L 4.703125 0.242188 C 4.953125 0.253906 5.199219 0.269531 5.445312 0.285156 C 5.726562 0.304688 6.011719 0.324219 6.292969 0.347656 L 6.300781 0.347656 C 6.34375 0.285156 6.402344 0.234375 6.46875 0.203125 C 6.566406 0.152344 6.699219 0.109375 6.859375 0.078125 C 7.179688 0.0117188 7.589844 -0.0117188 7.980469 0.0234375 Z M 8.605469 20.992188 L 8.582031 20.992188 L 8.5625 20.996094 L 8.554688 20.996094 L 8.535156 21 L 8.492188 21.003906 L 8.457031 21.007812 C 8.324219 21.023438 8.195312 21.042969 8.066406 21.074219 C 7.851562 21.128906 7.460938 21.34375 7.203125 21.554688 C 6.867188 21.820312 6.414062 22.375 6.28125 22.695312 C 6.078125 23.191406 6.046875 23.496094 6.167969 23.585938 C 6.269531 23.664062 6.519531 23.664062 6.878906 23.589844 C 7.046875 23.554688 7.214844 23.515625 7.378906 23.464844 L 7.515625 23.429688 C 7.824219 23.339844 8.136719 23.265625 8.453125 23.199219 L 8.492188 23.1875 L 8.53125 23.179688 L 8.554688 23.175781 L 8.59375 23.167969 L 8.675781 23.148438 L 8.695312 23.144531 C 9.011719 23.070312 9.292969 23.011719 9.335938 23 C 9.535156 22.953125 9.695312 22.910156 9.820312 22.867188 C 10.234375 22.738281 10.660156 22.652344 11.089844 22.605469 C 10.949219 22.523438 10.8125 22.429688 10.683594 22.324219 C 10.546875 22.203125 10.421875 22.070312 10.316406 21.921875 C 10.226562 21.796875 10.125 21.675781 10.015625 21.5625 L 10 21.546875 C 9.964844 21.515625 9.929688 21.480469 9.894531 21.449219 C 9.664062 21.257812 9.410156 21.097656 9.140625 20.972656 C 9.097656 20.957031 8.863281 20.964844 8.605469 20.992188 Z M 18.457031 22.027344 C 18.238281 22.035156 18.027344 22.097656 17.835938 22.203125 C 17.820312 22.210938 17.804688 22.214844 17.789062 22.21875 C 17.660156 22.296875 17.53125 22.371094 17.394531 22.4375 L 17.359375 22.453125 C 17.222656 22.523438 17.082031 22.585938 16.9375 22.644531 C 17.203125 22.679688 17.464844 22.730469 17.722656 22.789062 L 17.796875 22.804688 L 17.816406 22.808594 L 17.902344 22.828125 C 18.230469 22.898438 18.542969 22.996094 18.882812 23.125 C 19.011719 23.171875 19.140625 23.222656 19.265625 23.273438 L 19.320312 23.292969 L 19.34375 23.304688 L 19.359375 23.308594 C 19.519531 23.375 19.667969 23.433594 19.722656 23.449219 C 19.929688 23.523438 20.046875 23.539062 20.089844 23.519531 C 20.140625 23.492188 20.160156 23.351562 20.089844 23.144531 C 20.011719 22.925781 19.886719 22.730469 19.722656 22.570312 L 19.71875 22.566406 L 19.707031 22.558594 C 19.65625 22.507812 19.601562 22.460938 19.542969 22.417969 C 19.152344 22.128906 18.792969 22.011719 18.457031 22.027344 Z M 14.898438 15.175781 C 14.6875 15.59375 14.421875 15.953125 14.082031 16.253906 L 14.066406 16.269531 L 14.050781 16.28125 C 13.425781 16.851562 12.574219 16.976562 11.800781 16.675781 L 11.777344 16.664062 C 11.207031 16.433594 10.757812 16 10.535156 15.464844 C 9.894531 16.757812 8.867188 17.839844 7.578125 18.460938 L 7.585938 18.644531 C 7.585938 18.792969 7.601562 18.914062 7.636719 19.050781 C 7.6875 19.246094 7.800781 19.417969 7.960938 19.53125 C 8.066406 19.605469 8.164062 19.683594 8.257812 19.769531 L 8.265625 19.773438 C 8.300781 19.792969 8.328125 19.820312 8.34375 19.855469 C 8.414062 19.921875 8.476562 19.992188 8.542969 20.0625 L 8.558594 20.078125 L 8.5625 20.085938 L 8.570312 20.089844 L 8.667969 20.195312 L 8.679688 20.210938 C 8.753906 20.285156 8.808594 20.34375 8.863281 20.390625 C 8.960938 20.480469 9.042969 20.542969 9.121094 20.578125 C 9.558594 20.78125 9.871094 20.976562 10.113281 21.183594 C 10.292969 21.339844 10.371094 21.433594 10.585938 21.707031 C 10.675781 21.835938 10.785156 21.953125 10.902344 22.054688 C 10.945312 22.09375 10.988281 22.128906 11.039062 22.164062 C 11.414062 22.425781 11.828125 22.585938 12.324219 22.683594 C 12.726562 22.761719 13.109375 22.789062 13.835938 22.816406 C 15.039062 22.859375 16.234375 22.628906 17.210938 22.140625 C 18.296875 21.601562 19.066406 20.769531 19.425781 19.675781 L 19.425781 19.671875 L 19.429688 19.664062 C 19.957031 18.300781 19.828125 16.765625 19.085938 15.511719 C 18.949219 15.847656 18.761719 16.167969 18.535156 16.453125 C 18.113281 16.980469 17.597656 17.300781 16.984375 17.324219 C 16.441406 17.34375 15.675781 16.953125 15.320312 16.410156 C 15.101562 16.070312 14.996094 15.765625 14.898438 15.175781 Z M 19.199219 20.898438 L 19.195312 20.90625 C 18.996094 21.191406 18.769531 21.449219 18.515625 21.675781 C 18.90625 21.679688 19.316406 21.820312 19.742188 22.132812 C 19.8125 22.183594 19.878906 22.242188 19.941406 22.300781 C 20.046875 22.394531 20.167969 22.46875 20.300781 22.523438 C 20.351562 22.542969 20.398438 22.558594 20.429688 22.5625 L 20.429688 22.558594 C 20.4375 22.53125 20.4375 22.476562 20.410156 22.386719 L 20.40625 22.371094 C 20.347656 22.195312 20.273438 22.023438 20.183594 21.863281 C 20.113281 21.71875 20.027344 21.582031 19.925781 21.460938 C 19.871094 21.398438 19.816406 21.339844 19.757812 21.28125 C 19.59375 21.125 19.40625 20.992188 19.199219 20.898438 Z M 6.46875 20.097656 C 6.269531 20.1875 6.085938 20.308594 5.925781 20.460938 C 5.914062 20.476562 5.898438 20.488281 5.886719 20.5 C 5.722656 20.660156 5.589844 20.847656 5.484375 21.054688 L 5.46875 21.085938 L 5.464844 21.089844 L 5.457031 21.105469 L 5.449219 21.117188 C 5.363281 21.292969 5.292969 21.46875 5.300781 21.53125 C 5.308594 21.640625 5.335938 21.675781 5.375 21.6875 C 5.425781 21.703125 5.511719 21.695312 5.648438 21.664062 L 5.730469 21.640625 L 5.769531 21.632812 L 5.972656 21.570312 L 5.980469 21.566406 L 6.003906 21.5625 L 6.039062 21.550781 L 6.066406 21.542969 C 6.179688 21.511719 6.292969 21.476562 6.40625 21.445312 C 6.621094 21.390625 6.792969 21.351562 6.921875 21.339844 L 6.992188 21.277344 C 7.285156 21.042969 7.71875 20.800781 7.984375 20.734375 C 8.160156 20.691406 8.398438 20.660156 8.621094 20.640625 C 8.5625 20.582031 8.503906 20.519531 8.421875 20.433594 L 8.332031 20.339844 L 8.300781 20.308594 C 8.261719 20.265625 8.226562 20.226562 8.207031 20.207031 C 8.15625 20.15625 8.113281 20.109375 8.066406 20.066406 C 7.664062 19.90625 6.855469 19.921875 6.46875 20.097656 Z M 4.320312 18.96875 C 4.226562 19.035156 4.128906 19.101562 4.03125 19.164062 L 4.015625 19.175781 C 3.898438 19.25 3.78125 19.328125 3.664062 19.40625 L 3.636719 19.421875 L 3.628906 19.425781 L 3.625 19.429688 L 3.617188 19.433594 C 2.949219 19.769531 2.289062 20.183594 1.859375 20.554688 C 2.164062 20.464844 2.496094 20.414062 2.738281 20.445312 C 2.960938 20.472656 3.480469 20.628906 3.671875 20.75 C 4.226562 21.109375 4.570312 21.296875 4.9375 21.425781 L 4.96875 21.4375 C 5.007812 21.226562 5.148438 20.921875 5.292969 20.695312 L 5.191406 20.714844 C 4.828125 20.789062 4.558594 20.757812 4.417969 20.539062 C 4.257812 20.289062 4.390625 19.980469 4.691406 19.640625 C 4.902344 19.410156 5.195312 19.167969 5.371094 19.074219 L 5.457031 19.03125 C 5.066406 19.054688 4.6875 19.035156 4.320312 18.96875 Z M 19.582031 20.214844 L 19.578125 20.226562 C 19.519531 20.355469 19.457031 20.480469 19.386719 20.601562 C 19.597656 20.703125 19.804688 20.851562 19.988281 21.027344 C 20.074219 21.109375 20.144531 21.183594 20.207031 21.261719 L 20.21875 21.269531 C 20.304688 21.324219 20.394531 21.367188 20.488281 21.398438 C 20.554688 21.417969 20.621094 21.429688 20.6875 21.433594 C 20.707031 21.433594 20.726562 21.429688 20.734375 21.425781 L 20.730469 21.429688 L 20.730469 21.394531 C 20.726562 21.351562 20.710938 21.296875 20.683594 21.234375 C 20.636719 21.125 20.5625 21 20.492188 20.902344 C 20.359375 20.726562 20.199219 20.574219 20.019531 20.449219 C 19.925781 20.386719 19.710938 20.269531 19.582031 20.214844 Z M 3.136719 18.578125 L 3.136719 18.582031 C 3.128906 18.589844 3.117188 18.597656 3.105469 18.605469 C 2.984375 18.671875 2.855469 18.734375 2.726562 18.785156 C 2.679688 18.808594 2.550781 18.859375 2.417969 18.910156 L 2.402344 18.917969 L 2.375 18.925781 C 2.242188 18.980469 2.113281 19.03125 2.058594 19.054688 C 1.511719 19.28125 1.171875 19.492188 0.96875 19.761719 C 0.847656 19.917969 0.785156 20.34375 0.804688 20.808594 C 0.808594 21.019531 0.835938 21.214844 0.867188 21.351562 C 0.875 21.378906 0.882812 21.402344 0.886719 21.421875 L 0.890625 21.429688 L 0.890625 21.425781 L 0.941406 21.320312 L 0.945312 21.308594 L 1.003906 21.195312 C 1.113281 20.992188 1.25 20.800781 1.40625 20.632812 C 1.816406 20.175781 2.632812 19.636719 3.480469 19.210938 L 3.503906 19.199219 L 3.496094 19.199219 L 3.5 19.199219 L 3.527344 19.183594 C 3.644531 19.105469 3.761719 19.03125 3.878906 18.953125 L 3.894531 18.941406 L 3.972656 18.890625 C 3.683594 18.816406 3.402344 18.710938 3.136719 18.578125 Z M 6.347656 19.0625 C 6.050781 19.144531 5.730469 19.277344 5.527344 19.382812 C 5.152344 19.582031 4.605469 20.195312 4.703125 20.347656 C 4.738281 20.402344 4.890625 20.421875 5.128906 20.375 C 5.222656 20.355469 5.324219 20.328125 5.429688 20.296875 C 5.492188 20.277344 5.554688 20.253906 5.621094 20.230469 L 5.691406 20.203125 C 5.878906 20.027344 6.09375 19.882812 6.328125 19.777344 C 6.628906 19.640625 7.109375 19.585938 7.546875 19.613281 C 7.417969 19.457031 7.332031 19.269531 7.289062 19.066406 C 7.09375 18.945312 6.761719 18.949219 6.347656 19.0625 Z M 1.488281 9.324219 C 0.00390625 11.402344 -0.0546875 14.234375 1.195312 16.355469 C 1.804688 17.382812 2.667969 18.140625 3.6875 18.503906 C 3.890625 18.578125 4.101562 18.636719 4.3125 18.679688 C 4.332031 18.679688 4.351562 18.679688 4.367188 18.6875 C 5.285156 18.855469 6.285156 18.71875 7.328125 18.265625 L 7.363281 18.25 L 7.4375 18.214844 C 9.84375 17.0625 11.308594 14.230469 10.945312 11.503906 L 10.769531 11.546875 C 10.308594 11.65625 9.851562 11.707031 9.09375 11.742188 C 9.074219 11.742188 9.058594 11.742188 9.035156 11.742188 L 9.007812 11.746094 L 8.984375 11.746094 C 8.761719 11.753906 8.667969 11.765625 8.605469 11.796875 C 8.558594 11.820312 8.550781 11.859375 8.597656 11.988281 C 8.644531 12.109375 8.730469 12.515625 8.8125 12.925781 L 8.820312 12.976562 L 8.824219 12.988281 L 8.832031 13.039062 L 8.835938 13.0625 L 8.847656 13.109375 L 8.910156 13.472656 C 8.980469 13.882812 8.71875 14.214844 8.191406 14.496094 C 7.980469 14.605469 7.765625 14.699219 7.542969 14.777344 L 7.542969 14.804688 L 7.539062 14.828125 C 7.527344 14.953125 7.515625 15.078125 7.503906 15.203125 C 7.472656 15.5 7.441406 15.796875 7.40625 16.089844 C 7.375 16.339844 7.347656 16.5625 7.320312 16.75 C 7.265625 17.128906 7.222656 17.339844 7.175781 17.421875 C 7.117188 17.507812 6.867188 17.644531 6.550781 17.773438 C 6.203125 17.914062 5.9375 17.992188 5.804688 17.945312 C 5.679688 17.90625 5.472656 17.738281 5.257812 17.523438 C 5.03125 17.292969 4.886719 17.105469 4.878906 16.988281 C 4.871094 16.894531 4.914062 16.621094 4.992188 16.183594 C 5.027344 15.992188 5.066406 15.796875 5.105469 15.601562 L 5.125 15.503906 C 4.757812 15.628906 4.535156 15.738281 4.402344 15.851562 C 4.339844 15.90625 4.332031 15.941406 4.359375 16.003906 C 4.398438 16.089844 4.492188 16.199219 4.667969 16.367188 C 4.71875 16.421875 4.71875 16.507812 4.667969 16.5625 C 4.617188 16.617188 4.535156 16.621094 4.476562 16.574219 C 4.277344 16.382812 4.164062 16.253906 4.109375 16.125 C 4.027344 15.945312 4.066406 15.773438 4.222656 15.636719 C 4.46875 15.417969 4.90625 15.253906 5.777344 15.007812 L 6.441406 14.820312 C 7.222656 14.601562 7.695312 14.4375 8.0625 14.242188 C 8.496094 14.011719 8.679688 13.777344 8.636719 13.519531 C 8.609375 13.367188 8.578125 13.183594 8.542969 13 L 8.53125 12.953125 L 8.53125 12.945312 L 8.527344 12.921875 C 8.453125 12.546875 8.378906 12.1875 8.339844 12.089844 C 8.246094 11.835938 8.292969 11.644531 8.480469 11.546875 C 8.59375 11.484375 8.703125 11.472656 8.972656 11.460938 L 9.027344 11.460938 L 9.078125 11.457031 C 9.820312 11.421875 10.265625 11.375 10.707031 11.269531 L 10.917969 11.21875 L 11.082031 11.179688 L 11.113281 11.171875 L 11.121094 11.171875 L 11.136719 11.167969 L 11.140625 11.167969 C 11.1875 11.152344 11.242188 11.140625 11.308594 11.128906 C 11.316406 11.128906 11.316406 11.128906 11.320312 11.128906 C 11.421875 11.109375 11.460938 11.101562 11.488281 11.085938 L 11.496094 11.078125 C 11.761719 10.90625 11.800781 10.640625 11.644531 10.273438 L 11.636719 10.253906 C 11.5 9.945312 11.242188 9.601562 10.960938 9.320312 L 10.957031 9.316406 L 10.953125 9.308594 C 9.789062 7.933594 7.996094 7.121094 6.152344 7.089844 C 4.257812 7.058594 2.546875 7.847656 1.488281 9.324219 Z M 7.246094 18.605469 L 7.230469 18.613281 L 7.140625 18.648438 C 7.175781 18.65625 7.210938 18.664062 7.246094 18.671875 C 7.246094 18.652344 7.246094 18.628906 7.246094 18.605469 Z M 19.605469 12.921875 L 19.574219 12.9375 C 19.539062 13.667969 19.421875 14.390625 19.226562 15.09375 L 19.242188 15.113281 C 19.730469 15.851562 20.019531 16.710938 20.078125 17.597656 C 20.1875 17.671875 20.308594 17.738281 20.453125 17.808594 L 20.59375 17.878906 L 20.699219 17.933594 C 21.667969 18.421875 22.949219 18.257812 23.625 17.523438 C 23.800781 17.34375 23.953125 17.140625 24.078125 16.917969 C 24.195312 16.691406 24.191406 16.5625 24.058594 16.5 C 24.03125 16.484375 24 16.464844 23.957031 16.441406 L 23.90625 16.40625 L 23.898438 16.402344 L 23.851562 16.371094 C 23.730469 16.292969 23.640625 16.253906 23.5625 16.25 C 23.503906 16.25 23.453125 16.269531 23.402344 16.320312 C 23.359375 16.367188 23.316406 16.417969 23.28125 16.472656 L 23.277344 16.480469 L 23.253906 16.519531 L 23.238281 16.539062 L 23.203125 16.597656 C 23.144531 16.699219 23.046875 16.773438 22.933594 16.800781 C 22.738281 16.847656 22.5625 16.792969 22.402344 16.664062 C 22.289062 16.570312 22.199219 16.457031 22.054688 16.25 C 22.023438 16.203125 21.992188 16.160156 21.960938 16.117188 C 21.835938 15.9375 21.753906 15.84375 21.671875 15.808594 C 21.371094 15.675781 21.234375 15.664062 21.035156 15.710938 L 21.015625 15.714844 L 21 15.71875 L 20.964844 15.726562 C 20.675781 15.789062 20.425781 15.675781 19.882812 15.195312 C 19.832031 15.144531 19.828125 15.066406 19.871094 15.011719 C 19.917969 14.957031 19.996094 14.953125 20.050781 14.996094 C 20.324219 15.238281 20.515625 15.378906 20.65625 15.441406 C 20.734375 15.480469 20.828125 15.492188 20.914062 15.46875 C 20.929688 15.464844 20.945312 15.464844 20.960938 15.460938 L 20.976562 15.457031 C 21.230469 15.394531 21.421875 15.410156 21.773438 15.566406 C 21.910156 15.628906 22.019531 15.746094 22.171875 15.960938 L 22.21875 16.03125 L 22.261719 16.089844 L 22.261719 16.097656 L 22.265625 16.097656 C 22.523438 16.472656 22.667969 16.59375 22.871094 16.542969 C 22.925781 16.53125 22.949219 16.511719 22.992188 16.449219 C 22.996094 16.441406 23.054688 16.347656 23.074219 16.316406 C 23.121094 16.25 23.164062 16.191406 23.222656 16.136719 C 23.3125 16.035156 23.441406 15.984375 23.574219 15.988281 C 23.707031 15.992188 23.828125 16.046875 23.988281 16.148438 L 24.09375 16.21875 C 24.128906 16.242188 24.167969 16.265625 24.210938 16.285156 C 24.367188 16.347656 24.484375 16.320312 24.535156 16.1875 C 24.808594 15.445312 24.808594 14.769531 24.5625 14.1875 C 24.335938 13.652344 23.902344 13.207031 23.328125 12.894531 C 22.191406 12.28125 20.6875 12.277344 19.605469 12.921875 Z M 7.277344 14.867188 L 7.269531 14.867188 C 7.050781 14.941406 6.804688 15.015625 6.519531 15.09375 L 6.386719 15.128906 C 6.394531 15.148438 6.394531 15.167969 6.390625 15.183594 L 6.027344 17.675781 L 6.074219 17.664062 C 6.332031 17.585938 6.578125 17.484375 6.816406 17.363281 C 6.867188 17.335938 6.914062 17.304688 6.960938 17.273438 C 6.96875 17.253906 6.984375 17.195312 7 17.121094 L 7 17.109375 C 7.019531 17.007812 7.042969 16.875 7.066406 16.710938 C 7.09375 16.527344 7.121094 16.308594 7.152344 16.058594 C 7.199219 15.660156 7.238281 15.265625 7.277344 14.867188 Z M 6.128906 15.203125 L 5.847656 15.28125 C 5.699219 15.324219 5.550781 15.367188 5.398438 15.414062 C 5.398438 15.425781 5.398438 15.433594 5.398438 15.445312 L 5.394531 15.460938 C 5.34375 15.714844 5.292969 15.976562 5.246094 16.234375 C 5.199219 16.472656 5.160156 16.714844 5.132812 16.960938 L 5.132812 16.964844 L 5.144531 16.984375 L 5.148438 16.988281 C 5.160156 17.011719 5.183594 17.042969 5.210938 17.082031 C 5.269531 17.15625 5.347656 17.246094 5.4375 17.335938 C 5.558594 17.457031 5.683594 17.566406 5.773438 17.632812 Z M 19.238281 12.535156 L 19.238281 12.542969 C 19.1875 13 19.078125 13.480469 18.902344 13.984375 C 18.683594 14.605469 18.140625 15.34375 17.480469 15.679688 C 17.152344 15.828125 16.796875 15.914062 16.433594 15.933594 C 16 15.949219 15.621094 15.851562 15.335938 15.613281 C 15.390625 15.828125 15.484375 16.03125 15.605469 16.214844 C 15.890625 16.65625 16.546875 16.992188 16.972656 16.976562 C 17.472656 16.957031 17.90625 16.691406 18.273438 16.234375 C 18.527344 15.910156 18.722656 15.542969 18.855469 15.148438 C 19.097656 14.390625 19.257812 13.289062 19.238281 12.578125 Z M 14.855469 10.507812 L 14.859375 10.527344 C 15 11.378906 14.945312 12.339844 14.5625 13.425781 C 14.339844 14.046875 13.796875 14.785156 13.140625 15.121094 C 12.890625 15.25 12.375 15.378906 11.929688 15.382812 C 11.445312 15.386719 11.039062 15.257812 10.761719 14.964844 L 10.75 14.992188 C 10.859375 15.589844 11.300781 16.097656 11.902344 16.339844 C 12.574219 16.613281 13.304688 16.503906 13.839844 16.007812 L 13.84375 16.003906 C 14.371094 15.535156 14.71875 14.910156 14.929688 14.097656 C 15.09375 13.464844 15.164062 12.835938 15.226562 11.761719 C 15.257812 11.257812 15.117188 10.828125 14.855469 10.507812 Z M 16.746094 10.667969 C 16.71875 10.679688 16.691406 10.691406 16.664062 10.703125 L 16.625 10.71875 C 16.113281 10.949219 15.660156 11.230469 15.578125 11.425781 L 15.578125 11.429688 L 15.566406 11.453125 C 15.574219 11.558594 15.574219 11.667969 15.566406 11.78125 C 15.558594 11.980469 15.546875 12.160156 15.53125 12.332031 C 15.863281 11.699219 16.394531 11.378906 16.945312 11.519531 C 17.621094 11.699219 17.921875 12.523438 17.710938 13.417969 L 17.703125 13.445312 C 17.476562 14.367188 16.804688 14.945312 16.167969 14.820312 C 15.757812 14.738281 15.445312 14.425781 15.308594 13.988281 C 15.269531 14.15625 15.222656 14.324219 15.171875 14.488281 C 15.160156 14.585938 15.1875 14.71875 15.238281 14.863281 C 15.269531 14.949219 15.308594 15.035156 15.355469 15.117188 C 15.574219 15.460938 15.941406 15.605469 16.421875 15.582031 C 16.761719 15.570312 17.140625 15.460938 17.328125 15.367188 C 17.898438 15.078125 18.390625 14.40625 18.582031 13.863281 C 18.917969 12.90625 18.988281 12.042969 18.882812 11.273438 C 18.761719 11.085938 18.613281 10.917969 18.4375 10.78125 C 18.046875 10.46875 17.277344 10.441406 16.746094 10.667969 Z M 12.644531 9.890625 C 12.382812 9.949219 12.136719 10.0625 11.925781 10.230469 C 12.019531 10.476562 12.039062 10.707031 11.976562 10.902344 C 12.207031 10.785156 12.460938 10.75 12.714844 10.816406 C 13.390625 10.996094 13.6875 11.820312 13.476562 12.714844 L 13.472656 12.742188 C 13.246094 13.664062 12.570312 14.242188 11.933594 14.117188 C 11.605469 14.050781 11.335938 13.835938 11.175781 13.523438 C 11.109375 13.886719 11.019531 14.242188 10.898438 14.589844 C 11.105469 14.902344 11.460938 15.039062 11.925781 15.035156 C 12.320312 15.03125 12.785156 14.914062 12.988281 14.808594 C 13.558594 14.519531 14.046875 13.851562 14.242188 13.308594 C 14.613281 12.25 14.65625 11.328125 14.511719 10.511719 C 14.496094 10.441406 14.484375 10.375 14.46875 10.308594 L 14.464844 10.296875 L 14.4375 10.179688 C 14.4375 10.167969 14.433594 10.15625 14.433594 10.144531 C 13.976562 9.863281 13.351562 9.761719 12.644531 9.890625 Z M 15.632812 13.035156 C 15.4375 13.796875 15.746094 14.378906 16.230469 14.476562 C 16.671875 14.566406 17.199219 14.109375 17.378906 13.335938 C 17.550781 12.605469 17.324219 11.980469 16.859375 11.859375 C 16.363281 11.730469 15.851562 12.171875 15.632812 13.035156 Z M 11.398438 12.332031 C 11.207031 13.09375 11.515625 13.675781 12 13.773438 C 12.441406 13.863281 12.96875 13.40625 13.148438 12.632812 C 13.320312 11.902344 13.09375 11.277344 12.628906 11.15625 C 12.132812 11.027344 11.617188 11.46875 11.398438 12.332031 Z M 11.441406 11.394531 C 11.417969 11.398438 11.394531 11.402344 11.367188 11.40625 L 11.355469 11.410156 C 11.296875 11.417969 11.253906 11.429688 11.222656 11.4375 L 11.21875 11.441406 L 11.226562 11.523438 C 11.238281 11.589844 11.246094 11.660156 11.25 11.730469 C 11.304688 11.613281 11.367188 11.5 11.441406 11.394531 Z M 18.074219 4.800781 C 17.722656 4.824219 17.375 4.878906 17.035156 4.960938 C 16.347656 5.117188 15.539062 5.507812 14.714844 6.042969 C 14.058594 6.472656 13.433594 6.972656 13.097656 7.3125 C 12.628906 7.789062 12.351562 8.195312 12.433594 8.410156 C 12.484375 8.535156 12.75 8.652344 13.242188 8.726562 C 13.664062 8.792969 14.125 8.824219 15.128906 8.863281 C 15.699219 8.886719 15.980469 8.898438 16.230469 8.914062 L 16.269531 8.917969 L 16.316406 8.917969 L 16.339844 8.921875 L 16.402344 8.921875 L 16.546875 8.933594 C 16.578125 8.933594 16.597656 8.9375 16.617188 8.941406 C 16.632812 8.949219 16.648438 8.953125 16.664062 8.964844 C 16.710938 8.996094 16.746094 9.042969 16.746094 9.113281 C 16.746094 9.179688 16.714844 9.222656 16.675781 9.253906 C 16.660156 9.265625 16.648438 9.273438 16.636719 9.277344 C 16.59375 9.292969 16.554688 9.300781 16.511719 9.304688 L 16.355469 9.324219 L 16.347656 9.328125 L 16.335938 9.328125 L 16.296875 9.332031 L 16.152344 9.355469 C 16.046875 9.371094 15.945312 9.390625 15.84375 9.414062 C 15.816406 9.851562 15.761719 10.359375 15.699219 10.730469 L 15.699219 10.738281 L 15.703125 10.738281 C 15.789062 10.703125 15.898438 10.652344 16.023438 10.597656 L 16.046875 10.585938 C 16.171875 10.527344 16.296875 10.464844 16.421875 10.402344 L 16.453125 10.386719 C 16.664062 10.28125 16.871094 10.175781 17.023438 10.09375 C 18.25 9.433594 19.191406 8.398438 19.117188 7.800781 C 19.050781 7.308594 18.617188 7.082031 17.867188 7.058594 C 17.597656 7.050781 17.3125 7.070312 16.976562 7.109375 L 16.8125 7.128906 L 16.800781 7.132812 L 16.777344 7.132812 C 16.683594 7.148438 16.589844 7.15625 16.492188 7.164062 C 16.46875 7.164062 16.445312 7.164062 16.421875 7.15625 C 16.34375 7.140625 16.285156 7.070312 16.28125 6.988281 C 16.28125 6.9375 16.296875 6.902344 16.320312 6.867188 L 16.355469 6.824219 L 16.433594 6.746094 C 16.488281 6.699219 16.558594 6.636719 16.664062 6.550781 L 16.691406 6.527344 L 16.863281 6.386719 L 16.882812 6.371094 L 16.894531 6.359375 L 17.050781 6.226562 C 17.261719 6.054688 17.46875 5.875 17.671875 5.699219 C 17.902344 5.5 18.125 5.285156 18.328125 5.058594 C 18.394531 4.988281 18.453125 4.910156 18.5 4.828125 L 18.503906 4.824219 L 18.496094 4.824219 L 18.457031 4.8125 L 18.445312 4.8125 C 18.324219 4.796875 18.199219 4.792969 18.074219 4.800781 Z M 6.753906 6.230469 L 6.632812 6.832031 C 7.132812 6.875 7.628906 6.972656 8.109375 7.125 L 8.222656 6.324219 L 7.183594 6.257812 L 7.179688 6.257812 L 6.753906 6.234375 Z M 5.195312 1.664062 L 5.195312 1.667969 C 5.160156 1.902344 5.128906 2.132812 5.09375 2.367188 C 5.023438 2.890625 4.953125 3.402344 4.890625 3.871094 C 4.828125 4.355469 4.769531 4.839844 4.71875 5.324219 C 4.699219 5.496094 4.6875 5.667969 4.679688 5.835938 L 4.679688 5.84375 L 4.691406 5.84375 C 5.101562 5.867188 5.75 5.90625 7.148438 5.992188 L 7.195312 5.996094 L 7.199219 5.996094 C 9.238281 6.125 9.929688 6.167969 10.0625 6.167969 C 10.085938 6.167969 10.175781 6.144531 10.292969 6.105469 C 10.574219 6.015625 10.847656 5.90625 11.117188 5.785156 C 11.167969 5.757812 11.210938 5.738281 11.234375 5.71875 L 11.238281 5.714844 L 11.242188 5.714844 C 11.253906 5.644531 11.265625 5.578125 11.277344 5.507812 L 11.28125 5.488281 C 11.316406 5.265625 11.355469 4.980469 11.402344 4.640625 L 11.402344 4.617188 C 11.511719 3.761719 11.613281 2.90625 11.703125 2.046875 C 11.105469 2.003906 10.542969 1.96875 9.988281 1.933594 L 9.890625 1.925781 C 9.257812 1.886719 8.628906 1.851562 8 1.816406 L 6.835938 1.753906 L 6.804688 1.75 L 6.757812 1.75 L 6.726562 1.746094 L 6.691406 1.746094 L 6.640625 1.742188 L 6.605469 1.742188 L 6.53125 1.738281 L 6.398438 1.730469 L 6.367188 1.726562 L 6.324219 1.726562 L 6.296875 1.722656 Z M 4.9375 1.636719 L 3.480469 2.378906 C 3.339844 3.226562 3.257812 3.898438 3.257812 4.242188 C 3.257812 4.425781 3.476562 5.054688 3.628906 5.203125 C 3.730469 5.3125 4.074219 5.550781 4.425781 5.746094 C 4.4375 5.597656 4.449219 5.449219 4.464844 5.300781 C 4.515625 4.8125 4.574219 4.324219 4.636719 3.839844 C 4.734375 3.105469 4.832031 2.371094 4.941406 1.636719 Z M 8.910156 2.488281 C 8.933594 2.488281 8.953125 2.496094 8.976562 2.503906 C 9.019531 2.527344 9.050781 2.570312 9.058594 2.621094 C 9.070312 2.75 9 2.875 8.773438 3.203125 L 8.761719 3.222656 C 8.664062 3.363281 8.621094 3.425781 8.589844 3.480469 L 8.582031 3.488281 L 8.5625 3.519531 C 8.542969 3.550781 8.527344 3.585938 8.515625 3.621094 L 8.511719 3.621094 L 8.511719 3.625 L 8.519531 3.632812 L 8.523438 3.640625 C 8.5625 3.722656 8.640625 3.828125 8.832031 4.074219 L 8.863281 4.113281 C 9.132812 4.457031 9.234375 4.621094 9.226562 4.789062 C 9.222656 4.855469 9.195312 4.882812 9.144531 4.914062 C 9.121094 4.925781 9.097656 4.9375 9.074219 4.949219 C 9.027344 4.96875 8.960938 4.996094 8.875 5.023438 C 8.484375 5.152344 8.085938 5.261719 7.6875 5.351562 C 7.597656 5.367188 7.527344 5.382812 7.472656 5.386719 C 7.441406 5.390625 7.414062 5.390625 7.394531 5.390625 C 7.335938 5.386719 7.292969 5.371094 7.261719 5.308594 C 7.230469 5.246094 7.242188 5.195312 7.277344 5.128906 C 7.296875 5.097656 7.320312 5.058594 7.355469 5.011719 C 7.382812 4.972656 7.414062 4.933594 7.460938 4.875 L 7.46875 4.867188 L 7.472656 4.859375 L 7.515625 4.804688 L 7.523438 4.792969 L 7.578125 4.726562 L 7.613281 4.679688 C 7.679688 4.597656 7.742188 4.511719 7.800781 4.425781 C 7.816406 4.398438 7.828125 4.375 7.839844 4.355469 L 7.839844 4.347656 C 7.820312 4.332031 7.796875 4.320312 7.777344 4.304688 L 7.746094 4.289062 L 7.742188 4.285156 L 7.628906 4.214844 L 7.621094 4.210938 L 7.609375 4.203125 L 7.59375 4.195312 L 7.46875 4.121094 C 7.363281 4.054688 7.261719 3.984375 7.164062 3.902344 C 7.082031 3.839844 7.019531 3.753906 6.980469 3.65625 C 6.957031 3.585938 6.980469 3.542969 7.027344 3.480469 C 7.050781 3.449219 7.082031 3.414062 7.125 3.371094 C 7.25 3.25 7.378906 3.136719 7.515625 3.03125 L 7.539062 3.011719 L 7.574219 2.984375 L 7.585938 2.972656 L 7.605469 2.957031 L 7.613281 2.949219 L 7.632812 2.9375 C 7.742188 2.847656 7.855469 2.757812 7.972656 2.675781 C 8.035156 2.628906 8.253906 2.574219 8.496094 2.527344 C 8.59375 2.507812 8.691406 2.496094 8.792969 2.488281 C 8.839844 2.484375 8.878906 2.484375 8.910156 2.488281 Z M 8.757812 2.753906 L 8.75 2.753906 C 8.648438 2.765625 8.550781 2.78125 8.453125 2.804688 L 8.433594 2.808594 C 8.324219 2.828125 8.222656 2.855469 8.117188 2.890625 C 8.046875 2.941406 7.898438 3.054688 7.75 3.171875 L 7.734375 3.1875 L 7.726562 3.191406 L 7.714844 3.203125 L 7.703125 3.210938 L 7.691406 3.222656 L 7.578125 3.316406 C 7.464844 3.410156 7.355469 3.511719 7.25 3.613281 L 7.246094 3.617188 L 7.25 3.621094 C 7.273438 3.648438 7.296875 3.671875 7.324219 3.695312 L 7.332031 3.703125 C 7.417969 3.773438 7.507812 3.835938 7.605469 3.894531 L 7.738281 3.976562 L 7.765625 3.992188 L 7.878906 4.0625 L 7.902344 4.078125 C 8.042969 4.164062 8.089844 4.203125 8.105469 4.28125 C 8.128906 4.414062 8.046875 4.550781 7.816406 4.84375 L 7.777344 4.890625 L 7.722656 4.960938 L 7.710938 4.976562 C 7.679688 5.015625 7.648438 5.054688 7.613281 5.097656 L 7.625 5.097656 L 7.636719 5.09375 C 8.027344 5.007812 8.414062 4.898438 8.792969 4.773438 C 8.859375 4.75 8.914062 4.734375 8.953125 4.714844 L 8.957031 4.714844 L 8.957031 4.710938 C 8.921875 4.628906 8.832031 4.492188 8.671875 4.289062 L 8.660156 4.277344 L 8.632812 4.238281 C 8.382812 3.921875 8.316406 3.824219 8.265625 3.699219 C 8.230469 3.609375 8.261719 3.523438 8.34375 3.386719 L 8.363281 3.351562 L 8.371094 3.339844 L 8.371094 3.335938 L 8.378906 3.328125 C 8.414062 3.273438 8.457031 3.207031 8.550781 3.070312 L 8.5625 3.054688 C 8.632812 2.957031 8.695312 2.859375 8.753906 2.757812 Z M 4.578125 0.578125 L 4.570312 0.582031 C 4.429688 0.667969 4.285156 0.75 4.144531 0.835938 C 4.007812 0.917969 3.894531 0.988281 3.8125 1.042969 C 3.777344 1.070312 3.738281 1.09375 3.703125 1.121094 L 3.703125 1.128906 L 3.691406 1.1875 L 3.6875 1.199219 L 3.640625 1.457031 C 3.605469 1.644531 3.570312 1.847656 3.53125 2.058594 L 4.859375 1.382812 C 4.75 1.125 4.65625 0.855469 4.578125 0.582031 Z M 4.828125 0.511719 L 4.828125 0.515625 C 4.914062 0.816406 5.019531 1.105469 5.144531 1.386719 L 5.148438 1.390625 L 5.152344 1.398438 C 5.363281 1.410156 5.886719 1.441406 6.4375 1.46875 L 6.472656 1.472656 L 6.542969 1.476562 L 6.65625 1.480469 C 7.371094 1.519531 8.085938 1.558594 8.796875 1.597656 L 9.945312 1.667969 L 10.066406 1.675781 C 10.523438 1.703125 10.984375 1.734375 11.46875 1.765625 C 11.230469 1.5625 10.984375 1.367188 10.730469 1.183594 C 10.660156 1.136719 10.589844 1.085938 10.515625 1.042969 L 10.507812 1.039062 L 9.433594 0.898438 C 9.273438 1.214844 8.585938 1.355469 7.847656 1.277344 C 7.496094 1.242188 7.15625 1.160156 6.828125 1.027344 C 6.558594 0.914062 6.371094 0.773438 6.300781 0.609375 C 6.222656 0.605469 6.148438 0.597656 6.070312 0.59375 C 5.65625 0.5625 5.242188 0.535156 4.828125 0.511719 Z M 6.910156 0.335938 C 6.769531 0.363281 6.65625 0.398438 6.585938 0.4375 C 6.566406 0.449219 6.546875 0.460938 6.527344 0.476562 L 6.527344 0.484375 C 6.574219 0.6875 7.175781 0.9375 7.851562 1.011719 L 7.871094 1.015625 C 8.199219 1.054688 8.53125 1.035156 8.851562 0.964844 C 9.050781 0.914062 9.164062 0.847656 9.199219 0.789062 C 9.191406 0.765625 9.191406 0.742188 9.199219 0.71875 C 9.164062 0.65625 9.050781 0.570312 8.875 0.496094 C 8.582031 0.375 8.273438 0.304688 7.960938 0.285156 C 7.609375 0.253906 7.257812 0.273438 6.910156 0.335938 Z M 6.910156 0.335938 "/>
</g>
</g>
</svg>
