<?xml version="1.0" encoding="UTF-8"?>
<svg xmlns="http://www.w3.org/2000/svg" xmlns:xlink="http://www.w3.org/1999/xlink" width="24px" height="24px" viewBox="0 0 24 18" version="1.1">
<g id="surface1">
<path style="fill:none;stroke-width:1;stroke-linecap:butt;stroke-linejoin:miter;stroke:rgb(67.058824%,49.803922%,27.058824%);stroke-opacity:1;stroke-miterlimit:4;" d="M 344.974935 68.986979 C 339.988932 73.95638 336.03776 79.02322 333.968099 84.967014 C 333.027344 87.98763 331.992513 90.033854 333.027344 91.008247 C 333.968099 95.977648 347.985352 98.023872 352.971354 98.023872 L 395.963867 99.972656 L 428.984375 103.967665 L 430.959961 106.013889 C 430.959961 109.034505 428.04362 110.008898 425.973958 110.008898 L 417.036784 110.008898 C 414.967122 110.008898 411.956706 111.957682 411.956706 114.978299 L 409.040365 145.963976 L 411.015951 145.963976 L 422.963542 139.04579 L 433.970378 133.004557 C 447.046875 126.963325 458.994466 117.024523 470.001302 106.988281 C 477.997721 99.972656 484.95931 92.957031 487.969727 83.018229 C 490.980143 72.981988 484.018555 64.99197 474.046549 63.043186 " transform="matrix(0.0415225,0,0,0.0400891,0,0)"/>
<path style="fill:none;stroke-width:1;stroke-linecap:butt;stroke-linejoin:miter;stroke:rgb(67.058824%,58.823529%,33.333333%);stroke-opacity:1;stroke-miterlimit:4;" d="M 474.046549 63.043186 L 460.029297 60.996962 L 425.973958 61.971354 C 422.963542 61.971354 422.022786 60.996962 422.963542 57.976345 L 425.973958 53.006944 L 444.036458 38.001302 L 462.004883 22.021267 L 473.011719 10.036241 L 473.011719 8.96441 C 454.384766 8.379774 435.945964 12.179905 419.01237 19.975043 C 395.963867 30.011285 374.044271 42.970703 355.041016 60.022569 L 344.974935 68.986979 " transform="matrix(0.0415225,0,0,0.0400891,0,0)"/>
<path style="fill:none;stroke-width:1;stroke-linecap:butt;stroke-linejoin:miter;stroke:rgb(100%,82.352941%,34.901961%);stroke-opacity:1;stroke-miterlimit:4;" d="M 474.987305 63.043186 L 474.046549 64.017578 L 474.046549 64.99197 L 468.966471 76.976997 L 463.039714 82.043837 L 449.963216 87.98763 L 425.033203 92.957031 L 408.005534 92.957031 L 392.953451 91.008247 L 368.023438 84.967014 L 360.967773 82.043837 L 355.041016 79.02322 L 349.960938 73.95638 L 349.020182 72.981988 L 347.985352 72.007595 L 347.044596 71.033203 L 346.009766 68.986979 " transform="matrix(0.0415225,0,0,0.0400891,0,0)"/>
<path style="fill:none;stroke-width:1;stroke-linecap:butt;stroke-linejoin:miter;stroke:rgb(67.058824%,51.372549%,41.568627%);stroke-opacity:1;stroke-miterlimit:4;" d="M 31.044922 217.971571 L 44.968099 213.976562 " transform="matrix(0.0415225,0,0,0.0400891,0,0)"/>
<path style="fill:none;stroke-width:1;stroke-linecap:butt;stroke-linejoin:miter;stroke:rgb(67.058824%,50.196078%,43.529412%);stroke-opacity:1;stroke-miterlimit:4;" d="M 44.027344 213.976562 L 82.974609 197.022135 L 88.995443 196.047743 C 98.026693 194.975911 98.026693 208.032769 98.967448 213.976562 C 98.967448 223.038411 101.037109 232.002821 104.988281 239.018446 C 109.033529 246.034071 117.029948 247.982856 125.026367 247.982856 C 136.033203 247.008464 147.040039 246.034071 158.046875 243.013455 L 193.983724 235.99783 L 206.025391 232.977214 L 212.046224 232.002821 C 217.972982 232.977214 220.042643 239.018446 220.983398 243.987847 L 222.018229 257.044705 C 222.018229 259.967882 220.983398 261.039714 217.972982 262.014106 C 215.997396 262.014106 212.986979 259.967882 212.986979 258.019097 L 212.986979 252.952257 " transform="matrix(0.0415225,0,0,0.0400891,0,0)"/>
<path style="fill:none;stroke-width:1;stroke-linecap:butt;stroke-linejoin:miter;stroke:rgb(64.313725%,39.607843%,35.294118%);stroke-opacity:1;stroke-miterlimit:4;" d="M 214.02181 252.952257 L 212.986979 247.982856 " transform="matrix(0.0415225,0,0,0.0400891,0,0)"/>
<path style="fill:none;stroke-width:1;stroke-linecap:butt;stroke-linejoin:miter;stroke:rgb(50.980392%,32.941176%,31.764706%);stroke-opacity:1;stroke-miterlimit:4;" d="M 212.986979 247.982856 L 212.046224 242.039062 L 211.011393 240.967231 L 208.000977 242.039062 " transform="matrix(0.0415225,0,0,0.0400891,0,0)"/>
<path style="fill:none;stroke-width:1;stroke-linecap:butt;stroke-linejoin:miter;stroke:rgb(64.313725%,39.607843%,35.294118%);stroke-opacity:1;stroke-miterlimit:4;" d="M 206.966146 242.039062 L 155.036458 252.952257 L 130.01237 255.972873 C 117.029948 257.044705 104.988281 255.972873 98.026693 243.987847 C 95.016276 239.018446 92.005859 233.951606 90.971029 228.007812 L 88.995443 219.043403 " transform="matrix(0.0415225,0,0,0.0400891,0,0)"/>
<path style="fill:none;stroke-width:1;stroke-linecap:butt;stroke-linejoin:miter;stroke:rgb(50.980392%,32.941176%,31.764706%);stroke-opacity:1;stroke-miterlimit:4;" d="M 90.030273 219.043403 L 90.030273 205.012153 L 88.995443 205.012153 L 61.995768 216.022786 " transform="matrix(0.0415225,0,0,0.0400891,0,0)"/>
<path style="fill:none;stroke-width:1;stroke-linecap:butt;stroke-linejoin:miter;stroke:rgb(64.313725%,39.607843%,35.294118%);stroke-opacity:1;stroke-miterlimit:4;" d="M 61.995768 216.022786 L 44.027344 224.012804 L 44.027344 231.028429 " transform="matrix(0.0415225,0,0,0.0400891,0,0)"/>
<path style="fill:none;stroke-width:1;stroke-linecap:butt;stroke-linejoin:miter;stroke:rgb(67.058824%,50.196078%,43.529412%);stroke-opacity:1;stroke-miterlimit:4;" d="M 42.992513 231.028429 L 49.013346 251.003472 C 60.020182 273.999132 76.953776 292.025391 98.967448 304.010417 L 103.953451 307.031033 " transform="matrix(0.0415225,0,0,0.0400891,0,0)"/>
<path style="fill:none;stroke-width:1;stroke-linecap:butt;stroke-linejoin:miter;stroke:rgb(65.098039%,36.862745%,29.411765%);stroke-opacity:1;stroke-miterlimit:4;" d="M 103.953451 307.031033 C 128.695312 318.626302 155.694987 324.764974 182.976888 324.959852 C 195.95931 323.98546 208.000977 320.964844 220.042643 315.995443 " transform="matrix(0.0415225,0,0,0.0400891,0,0)"/>
<path style="fill:none;stroke-width:1;stroke-linecap:butt;stroke-linejoin:miter;stroke:rgb(50.980392%,32.941176%,31.764706%);stroke-opacity:1;stroke-miterlimit:4;" d="M 220.042643 315.995443 C 230.955404 311.026042 241.96224 304.984809 250.99349 296.994792 L 255.038737 293.974175 C 262.000326 286.95855 268.961914 277.994141 274.041992 267.957899 L 277.993164 258.019097 C 282.979167 243.013455 287.024414 228.007812 287.965169 212.027778 L 287.024414 189.032118 " transform="matrix(0.0415225,0,0,0.0400891,0,0)"/>
<path style="fill:none;stroke-width:1;stroke-linecap:butt;stroke-linejoin:miter;stroke:rgb(64.313725%,39.607843%,35.294118%);stroke-opacity:1;stroke-miterlimit:4;" d="M 287.024414 189.032118 C 285.989583 175.97526 284.013997 163.990234 279.027995 152.979601 L 263.975911 128.035156 " transform="matrix(0.0415225,0,0,0.0400891,0,0)"/>
<path style="fill:none;stroke-width:1;stroke-linecap:butt;stroke-linejoin:miter;stroke:rgb(67.058824%,50.196078%,43.529412%);stroke-opacity:1;stroke-miterlimit:4;" d="M 263.975911 128.035156 C 255.038737 114.978299 244.972656 103.967665 231.990234 94.028863 " transform="matrix(0.0415225,0,0,0.0400891,0,0)"/>
<path style="fill:none;stroke-width:1;stroke-linecap:butt;stroke-linejoin:miter;stroke:rgb(67.058824%,51.372549%,41.568627%);stroke-opacity:1;stroke-miterlimit:4;" d="M 233.025065 94.028863 L 227.004232 88.962023 " transform="matrix(0.0415225,0,0,0.0400891,0,0)"/>
<path style="fill:none;stroke-width:1;stroke-linecap:butt;stroke-linejoin:miter;stroke:rgb(67.058824%,52.54902%,40%);stroke-opacity:1;stroke-miterlimit:4;" d="M 225.969401 88.962023 C 208.000977 76.976997 187.962891 71.033203 166.984049 68.986979 L 147.040039 68.012587 C 103.953451 68.012587 66.981771 92.957031 39.982096 125.988932 C 26.999674 143.040799 17.968424 163.990234 11.006836 185.037109 C 7.996419 194.975911 6.961589 205.012153 12.041667 213.976562 C 14.017253 216.997179 17.027669 219.043403 20.038086 219.043403 L 30.010091 217.971571 " transform="matrix(0.0415225,0,0,0.0400891,0,0)"/>
<path style="fill:none;stroke-width:1;stroke-linecap:butt;stroke-linejoin:miter;stroke:rgb(100%,77.647059%,56.078431%);stroke-opacity:1;stroke-miterlimit:4;" d="M 225.969401 88.962023 L 217.972982 91.008247 L 217.032227 91.008247 L 214.962565 91.982639 L 214.02181 92.957031 L 212.046224 92.957031 L 211.011393 94.028863 L 209.035807 95.003255 L 208.000977 95.003255 L 206.966146 95.977648 L 206.025391 95.977648 L 204.99056 96.95204 L 203.955729 96.95204 L 201.039388 98.998264 L 198.028971 98.998264 C 198.028971 99.582899 197.558594 99.972656 196.994141 99.972656 L 195.018555 101.044488 L 187.022135 101.044488 L 185.987305 102.01888 L 168.959635 102.01888 L 168.01888 102.993273 L 160.022461 102.993273 L 158.98763 103.967665 L 154.001628 103.967665 L 152.966797 105.039497 " transform="matrix(0.0415225,0,0,0.0400891,0,0)"/>
<path style="fill:none;stroke-width:1;stroke-linecap:butt;stroke-linejoin:miter;stroke:rgb(100%,88.627451%,69.411765%);stroke-opacity:1;stroke-miterlimit:4;" d="M 152.966797 105.039497 C 144.029622 91.982639 128.977539 88.962023 114.019531 91.008247 C 96.991862 94.028863 77.988607 102.01888 66.981771 114.978299 C 55.974935 128.035156 53.999349 144.015191 63.030599 158.046441 " transform="matrix(0.0415225,0,0,0.0400891,0,0)"/>
<path style="fill:none;stroke-width:1;stroke-linecap:butt;stroke-linejoin:miter;stroke:rgb(100%,77.647059%,56.078431%);stroke-opacity:1;stroke-miterlimit:4;" d="M 63.030599 158.046441 C 60.960938 158.046441 60.020182 159.020833 60.020182 159.995226 L 58.985352 160.969618 L 55.974935 163.990234 L 55.974935 166.036458 L 52.023763 168.959635 L 52.023763 171.005859 L 49.954102 171.980252 L 49.954102 174.026476 L 47.978516 175.000868 L 47.978516 177.047092 L 46.00293 178.995877 L 44.968099 179.970269 L 44.968099 182.016493 L 44.027344 182.990885 L 44.027344 183.965278 L 41.957682 186.011502 L 41.016927 186.985894 L 41.016927 189.032118 L 39.982096 190.00651 L 39.982096 190.980903 L 39.041341 191.955295 L 39.041341 193.027127 C 38.00651 194.001519 36.97168 194.001519 38.00651 194.975911 L 36.97168 196.047743 L 36.97168 197.996528 C 36.030924 198.97092 34.996094 198.97092 36.030924 200.042752 L 34.996094 201.017144 L 34.996094 202.965929 L 33.961263 205.012153 L 33.961263 205.986545 C 33.020508 206.960938 31.985677 206.960938 33.020508 208.032769 L 33.020508 209.007161 L 31.985677 210.955946 L 31.044922 212.027778 L 31.044922 213.00217 L 30.010091 213.976562 L 30.010091 217.971571 " transform="matrix(0.0415225,0,0,0.0400891,0,0)"/>
<path style="fill:none;stroke-width:1;stroke-linecap:butt;stroke-linejoin:miter;stroke:rgb(100%,74.901961%,59.607843%);stroke-opacity:1;stroke-miterlimit:4;" d="M 231.990234 94.028863 L 231.990234 95.003255 L 233.025065 95.003255 L 233.025065 95.977648 L 230.955404 95.977648 L 228.979818 96.95204 L 228.039063 96.95204 L 225.028646 98.023872 L 222.018229 98.023872 L 220.983398 98.998264 L 217.032227 99.972656 L 215.997396 101.044488 L 214.02181 101.044488 L 212.986979 102.01888 L 212.046224 102.01888 L 209.976563 105.039497 L 208.000977 105.039497 L 206.025391 106.988281 L 204.99056 107.962674 L 203.014974 109.034505 L 203.014974 110.008898 L 195.95931 113.029514 L 193.983724 113.029514 L 192.008138 114.003906 L 185.987305 114.003906 L 184.011719 114.978299 L 166.984049 114.978299 L 166.984049 115.952691 L 161.998047 115.952691 L 158.98763 117.024523 " transform="matrix(0.0415225,0,0,0.0400891,0,0)"/>
<path style="fill:none;stroke-width:1;stroke-linecap:butt;stroke-linejoin:miter;stroke:rgb(100%,87.843137%,74.901961%);stroke-opacity:1;stroke-miterlimit:4;" d="M 160.022461 117.024523 L 158.046875 111.957682 " transform="matrix(0.0415225,0,0,0.0400891,0,0)"/>
<path style="fill:none;stroke-width:1;stroke-linecap:butt;stroke-linejoin:miter;stroke:rgb(100%,87.45098%,71.372549%);stroke-opacity:1;stroke-miterlimit:4;" d="M 158.046875 111.957682 L 154.001628 105.039497 " transform="matrix(0.0415225,0,0,0.0400891,0,0)"/>
<path style="fill:none;stroke-width:1;stroke-linecap:butt;stroke-linejoin:miter;stroke:rgb(100%,98.823529%,88.627451%);stroke-opacity:1;stroke-miterlimit:4;" d="M 157.012044 111.957682 L 152.966797 110.98329 L 149.015625 109.034505 L 141.019206 109.034505 L 131.987956 110.98329 L 130.953125 111.957682 L 130.01237 111.957682 L 128.036784 113.029514 L 122.015951 114.978299 C 107.998698 120.045139 95.016276 128.035156 82.974609 137.973958 L 71.027018 149.958984 L 68.957357 152.979601 L 69.992188 152.979601 L 69.992188 159.020833 L 77.988607 166.036458 L 79.964193 167.985243 C 80.999023 168.959635 82.033854 170.031467 80.999023 171.005859 " transform="matrix(0.0415225,0,0,0.0400891,0,0)"/>
<path style="fill:none;stroke-width:1;stroke-linecap:butt;stroke-linejoin:miter;stroke:rgb(100%,86.27451%,72.941176%);stroke-opacity:1;stroke-miterlimit:4;" d="M 80.999023 171.005859 L 71.967773 167.010851 " transform="matrix(0.0415225,0,0,0.0400891,0,0)"/>
<path style="fill:none;stroke-width:1;stroke-linecap:butt;stroke-linejoin:miter;stroke:rgb(100%,87.45098%,71.372549%);stroke-opacity:1;stroke-miterlimit:4;" d="M 71.967773 167.010851 L 63.030599 158.046441 " transform="matrix(0.0415225,0,0,0.0400891,0,0)"/>
<path style="fill:none;stroke-width:1;stroke-linecap:butt;stroke-linejoin:miter;stroke:rgb(97.647059%,63.529412%,53.333333%);stroke-opacity:1;stroke-miterlimit:4;" d="M 263.975911 128.035156 C 266.986328 140.020182 268.961914 149.958984 268.961914 158.046441 L 268.961914 179.970269 C 268.961914 191.955295 266.986328 202.965929 260.965495 213.976562 L 246.007487 236.972222 C 228.039063 258.99349 206.025391 277.019748 179.966471 290.953559 C 168.959635 296.994792 158.046875 300.9898 147.040039 303.036024 L 112.043945 305.959201 " transform="matrix(0.0415225,0,0,0.0400891,0,0)"/>
<path style="fill:none;stroke-width:1;stroke-linecap:butt;stroke-linejoin:miter;stroke:rgb(98.431373%,60.784314%,47.058824%);stroke-opacity:1;stroke-miterlimit:4;" d="M 112.984701 305.959201 L 104.988281 307.031033 " transform="matrix(0.0415225,0,0,0.0400891,0,0)"/>
<path style="fill:none;stroke-width:1;stroke-linecap:butt;stroke-linejoin:miter;stroke:rgb(97.647059%,63.529412%,53.333333%);stroke-opacity:1;stroke-miterlimit:4;" d="M 42.992513 231.028429 C 52.023763 228.982205 61.995768 228.007812 71.027018 228.982205 C 76.013021 228.982205 82.033854 228.982205 85.985026 232.977214 C 90.030273 236.972222 93.981445 243.013455 96.991862 250.02908 C 100.002279 254.998481 103.953451 258.019097 111.009115 258.99349 L 136.033203 258.99349 L 203.955729 247.008464 C 206.966146 246.034071 208.000977 247.008464 209.035807 248.957248 L 212.986979 252.952257 " transform="matrix(0.0415225,0,0,0.0400891,0,0)"/>
<path style="fill:none;stroke-width:1;stroke-linecap:butt;stroke-linejoin:miter;stroke:rgb(100%,74.901961%,59.607843%);stroke-opacity:1;stroke-miterlimit:4;" d="M 44.027344 213.976562 L 44.027344 213.00217 L 44.968099 213.00217 L 46.00293 212.027778 L 44.968099 210.955946 L 46.00293 209.981554 L 46.00293 208.032769 L 47.03776 206.960938 L 47.03776 205.986545 L 47.978516 205.012153 L 47.978516 204.03776 L 49.013346 202.965929 L 49.013346 201.991536 L 49.954102 201.017144 L 49.954102 200.042752 L 50.988932 198.97092 L 50.988932 197.996528 C 52.023763 197.022135 52.964518 197.022135 52.023763 196.047743 L 52.023763 194.975911 L 52.964518 194.001519 L 53.999349 193.027127 L 53.999349 190.980903 L 55.03418 190.00651 L 55.03418 189.032118 L 57.009766 186.985894 L 58.044596 186.011502 L 58.044596 183.965278 L 58.985352 182.990885 L 58.985352 182.016493 L 60.960938 181.042101 L 60.960938 178.995877 L 63.030599 178.021484 L 63.030599 175.97526 L 66.041016 174.026476 L 66.041016 171.980252 L 68.957357 170.031467 L 68.957357 168.959635 L 71.027018 167.010851 L 71.967773 167.010851 " transform="matrix(0.0415225,0,0,0.0400891,0,0)"/>
<path style="fill:none;stroke-width:1;stroke-linecap:butt;stroke-linejoin:miter;stroke:rgb(100%,86.666667%,76.862745%);stroke-opacity:1;stroke-miterlimit:4;" d="M 82.033854 171.005859 L 90.971029 172.954644 " transform="matrix(0.0415225,0,0,0.0400891,0,0)"/>
<path style="fill:none;stroke-width:1;stroke-linecap:butt;stroke-linejoin:miter;stroke:rgb(100%,87.058824%,80.784314%);stroke-opacity:1;stroke-miterlimit:4;" d="M 90.030273 172.954644 C 114.019531 178.021484 138.008789 164.964627 150.991211 145.963976 " transform="matrix(0.0415225,0,0,0.0400891,0,0)"/>
<path style="fill:none;stroke-width:1;stroke-linecap:butt;stroke-linejoin:miter;stroke:rgb(100%,86.666667%,76.862745%);stroke-opacity:1;stroke-miterlimit:4;" d="M 150.991211 145.963976 C 158.046875 136.999566 160.022461 128.035156 158.98763 117.024523 " transform="matrix(0.0415225,0,0,0.0400891,0,0)"/>
<path style="fill:none;stroke-width:1;stroke-linecap:butt;stroke-linejoin:miter;stroke:rgb(100%,99.607843%,96.078431%);stroke-opacity:1;stroke-miterlimit:4;" d="M 150.991211 145.963976 L 154.001628 137.973958 L 154.001628 136.025174 L 155.977214 130.958333 C 157.012044 129.983941 155.977214 128.035156 155.036458 126.963325 L 147.040039 126.963325 L 144.970378 128.035156 L 144.029622 128.035156 L 141.959961 129.009549 L 141.019206 129.009549 L 139.04362 129.983941 L 138.008789 129.983941 L 138.008789 130.958333 L 136.973958 130.958333 L 134.998372 132.030165 L 133.963542 132.030165 L 131.987956 133.004557 L 130.953125 133.004557 L 128.977539 133.97895 L 128.036784 133.97895 L 127.001953 134.953342 L 125.026367 134.953342 L 123.991536 136.025174 L 117.970703 137.973958 L 111.009115 141.968967 L 109.974284 143.040799 L 107.998698 144.989583 L 104.988281 148.0102 L 103.012695 148.0102 L 101.037109 151.030816 L 98.967448 151.030816 L 93.981445 156.974609 L 92.005859 156.974609 L 84.00944 164.964627 L 84.00944 168.959635 L 85.044271 170.031467 L 90.030273 172.954644 " transform="matrix(0.0415225,0,0,0.0400891,0,0)"/>
<path style="fill:none;stroke-width:1;stroke-linecap:butt;stroke-linejoin:miter;stroke:rgb(81.568627%,46.27451%,41.568627%);stroke-opacity:1;stroke-miterlimit:4;" d="M 287.024414 189.032118 L 287.024414 200.042752 L 285.989583 209.981554 C 284.013997 224.987196 279.96875 239.992839 274.982747 254.024089 L 271.031576 262.988498 " transform="matrix(0.0415225,0,0,0.0400891,0,0)"/>
<path style="fill:none;stroke-width:1;stroke-linecap:butt;stroke-linejoin:miter;stroke:rgb(95.686275%,50.196078%,39.215686%);stroke-opacity:1;stroke-miterlimit:4;" d="M 271.031576 262.988498 L 268.021159 262.988498 L 265.010742 266.009115 L 263.035156 266.009115 L 252.969076 271.952908 L 247.042318 276.045356 L 241.96224 278.968533 L 233.96582 284.035373 L 223.993815 288.030382 L 198.969727 297.969184 L 165.008464 304.984809 L 158.046875 305.959201 L 155.977214 305.959201 L 154.001628 307.031033 L 144.970378 307.031033 L 136.033203 308.005425 L 119.005534 308.005425 C 117.029948 308.979818 114.960286 308.005425 112.043945 305.959201 " transform="matrix(0.0415225,0,0,0.0400891,0,0)"/>
<path style="fill:none;stroke-width:1;stroke-linecap:butt;stroke-linejoin:miter;stroke:rgb(81.568627%,46.27451%,41.568627%);stroke-opacity:1;stroke-miterlimit:4;" d="M 206.966146 242.039062 C 209.976563 242.039062 211.011393 246.034071 212.046224 247.982856 " transform="matrix(0.0415225,0,0,0.0400891,0,0)"/>
<path style="fill:none;stroke-width:1;stroke-linecap:butt;stroke-linejoin:miter;stroke:rgb(82.352941%,43.529412%,35.294118%);stroke-opacity:1;stroke-miterlimit:4;" d="M 220.042643 315.995443 L 228.039063 309.95421 L 231.990234 307.031033 L 236.035482 303.036024 C 249.017904 292.999783 262.000326 278.968533 271.031576 262.988498 " transform="matrix(0.0415225,0,0,0.0400891,0,0)"/>
<path style="fill:none;stroke-width:1;stroke-linecap:butt;stroke-linejoin:miter;stroke:rgb(81.568627%,46.27451%,41.568627%);stroke-opacity:1;stroke-miterlimit:4;" d="M 88.995443 219.043403 L 87.960612 215.048394 C 87.019857 213.00217 85.985026 210.955946 82.974609 210.955946 L 74.037435 213.00217 L 60.960938 216.022786 " transform="matrix(0.0415225,0,0,0.0400891,0,0)"/>
<path style="fill:none;stroke-width:1;stroke-linecap:butt;stroke-linejoin:miter;stroke:rgb(67.058824%,63.137255%,62.745098%);stroke-opacity:1;stroke-miterlimit:4;" d="M 317.034505 250.02908 C 309.038086 248.957248 300.006836 246.034071 295.020833 239.018446 C 295.020833 251.977865 304.992839 265.034722 315.999674 270.004123 L 333.027344 274.973524 C 341.964518 277.019748 349.020182 274.973524 357.016602 270.004123 C 365.953776 263.962891 374.985026 257.044705 379.971029 247.982856 C 386.838542 232.1977 392.200846 215.827908 395.963867 198.97092 C 398.033529 186.011502 400.009115 174.026476 398.033529 160.969618 C 395.963867 153.953993 393.988281 147.035807 390.037109 140.994575 C 389.002279 140.020182 389.002279 140.994575 389.002279 141.968967 C 392.953451 170.031467 387.026693 197.996528 373.00944 221.96658 L 363.97819 232.977214 C 351.37207 244.96224 334.344401 251.198351 317.034505 250.02908 " transform="matrix(0.0415225,0,0,0.0400891,0,0)"/>
<path style="fill:none;stroke-width:1;stroke-linecap:butt;stroke-linejoin:miter;stroke:rgb(42.352941%,30.196078%,28.235294%);stroke-opacity:1;stroke-miterlimit:4;" d="M 319.010091 216.997179 L 314.964844 224.987196 L 314.964844 232.002821 L 317.034505 238.044054 L 319.010091 240.967231 L 320.985677 243.013455 L 322.020508 243.987847 C 331.992513 243.987847 341.023763 240.967231 349.020182 235.99783 C 357.016602 231.028429 363.97819 224.987196 368.964193 216.022786 C 368.964193 215.438151 368.587891 215.048394 368.023438 215.048394 L 365.953776 212.027778 L 363.037435 210.955946 L 360.967773 209.007161 L 358.992188 209.007161 L 358.992188 208.032769 L 349.960938 206.960938 L 347.985352 208.032769 L 346.009766 208.032769 L 342.999349 209.007161 L 341.023763 209.007161 " transform="matrix(0.0415225,0,0,0.0400891,0,0)"/>
<path style="fill:none;stroke-width:1;stroke-linecap:butt;stroke-linejoin:miter;stroke:rgb(67.058824%,63.137255%,62.745098%);stroke-opacity:1;stroke-miterlimit:4;" d="M 341.023763 209.007161 C 349.960938 198.97092 352.971354 186.985894 352.030599 172.954644 C 349.960938 155.025825 331.992513 140.994575 314.964844 153.953993 C 306.027669 159.995226 301.982422 170.031467 300.006836 179.970269 C 296.996419 194.975911 303.017253 213.976562 319.010091 216.997179 " transform="matrix(0.0415225,0,0,0.0400891,0,0)"/>
<path style="fill:none;stroke-width:1;stroke-linecap:butt;stroke-linejoin:miter;stroke:rgb(75.294118%,67.058824%,65.490196%);stroke-opacity:1;stroke-miterlimit:4;" d="M 341.023763 209.007161 C 335.00293 216.022786 328.041341 217.971571 319.010091 216.997179 " transform="matrix(0.0415225,0,0,0.0400891,0,0)"/>
<path style="fill:none;stroke-width:1;stroke-linecap:butt;stroke-linejoin:miter;stroke:rgb(42.352941%,30.196078%,28.235294%);stroke-opacity:1;stroke-miterlimit:4;" d="M 414.026367 227.03342 C 411.015951 231.028429 408.005534 235.023437 406.970703 239.992839 L 404.995117 247.982856 L 404.995117 248.957248 C 411.956706 255.972873 419.953125 258.019097 430.019206 257.044705 C 441.966797 255.972873 452.032878 251.977865 458.994466 243.987847 L 460.970052 240.967231 L 462.004883 235.99783 L 463.039714 232.002821 L 463.039714 225.961589 L 460.970052 220.992188 L 455.984049 216.997179 L 449.963216 213.976562 " transform="matrix(0.0415225,0,0,0.0400891,0,0)"/>
<path style="fill:none;stroke-width:1;stroke-linecap:butt;stroke-linejoin:miter;stroke:rgb(67.058824%,63.137255%,62.745098%);stroke-opacity:1;stroke-miterlimit:4;" d="M 449.963216 213.976562 C 452.973633 206.960938 455.043294 200.042752 454.008464 191.955295 C 452.973633 178.021484 443.001628 164.964627 428.04362 168.959635 C 417.977539 171.005859 411.015951 179.970269 408.005534 189.032118 C 404.995117 196.047743 403.960286 201.991536 404.995117 209.007161 C 406.029948 216.022786 409.040365 221.96658 414.026367 227.03342 " transform="matrix(0.0415225,0,0,0.0400891,0,0)"/>
<path style="fill:none;stroke-width:1;stroke-linecap:butt;stroke-linejoin:miter;stroke:rgb(75.294118%,67.058824%,65.490196%);stroke-opacity:1;stroke-miterlimit:4;" d="M 449.963216 213.976562 C 447.046875 220.992188 441.966797 225.961589 436.980794 228.982205 C 428.984375 233.951606 420.987956 232.977214 414.026367 227.03342 " transform="matrix(0.0415225,0,0,0.0400891,0,0)"/>
<path style="fill:none;stroke-width:1;stroke-linecap:butt;stroke-linejoin:miter;stroke:rgb(67.058824%,63.137255%,62.745098%);stroke-opacity:1;stroke-miterlimit:4;" d="M 479.973307 251.977865 C 488.910482 229.079644 492.673503 204.524957 490.980143 179.970269 L 489.004557 168.959635 L 487.969727 168.959635 L 487.969727 194.975911 C 484.95931 210.955946 481.008138 224.987196 471.976888 239.018446 C 461.816732 254.998481 443.942383 264.547526 425.033203 263.962891 C 416.001953 263.962891 408.005534 259.967882 401.043945 252.952257 L 401.043945 254.024089 L 404.995117 266.009115 C 409.040365 274.973524 420.987956 281.989149 430.959961 285.009766 C 436.040039 286.95855 441.026042 286.95855 446.012044 285.009766 C 463.039714 280.040365 471.976888 266.983507 479.973307 251.977865 " transform="matrix(0.0415225,0,0,0.0400891,0,0)"/>
<path style="fill:none;stroke-width:1;stroke-linecap:butt;stroke-linejoin:miter;stroke:rgb(50.980392%,32.941176%,31.764706%);stroke-opacity:1;stroke-miterlimit:4;" d="M 512.993815 301.964193 L 512.993815 323.011068 C 517.039062 322.036675 520.990234 320.964844 525.976237 318.041667 C 533.031901 315.02105 539.99349 311.026042 544.038737 304.984809 C 547.989909 300.9898 549.965495 293.974175 552.975911 289.004774 L 552.975911 288.030382 L 552.035156 288.030382 " transform="matrix(0.0415225,0,0,0.0400891,0,0)"/>
<path style="fill:none;stroke-width:1;stroke-linecap:butt;stroke-linejoin:miter;stroke:rgb(64.313725%,39.607843%,35.294118%);stroke-opacity:1;stroke-miterlimit:4;" d="M 552.035156 288.030382 L 543.003906 282.963542 L 541.02832 282.963542 L 538.958659 286.95855 C 536.983073 290.953559 530.96224 289.979167 530.96224 285.009766 C 530.96224 276.045356 538.958659 270.978516 547.989909 274.973524 C 552.975911 277.994141 558.996745 282.963542 563.982747 277.019748 C 565.958333 274.973524 566.993164 270.978516 566.993164 267.957899 L 566.993164 243.013455 L 565.017578 236.972222 " transform="matrix(0.0415225,0,0,0.0400891,0,0)"/>
<path style="fill:none;stroke-width:1;stroke-linecap:butt;stroke-linejoin:miter;stroke:rgb(64.705882%,43.137255%,34.509804%);stroke-opacity:1;stroke-miterlimit:4;" d="M 565.017578 236.972222 C 562.007161 224.012804 555.986328 213.976562 547.989909 205.012153 C 543.003906 197.996528 536.042318 194.001519 527.011068 190.980903 " transform="matrix(0.0415225,0,0,0.0400891,0,0)"/>
<path style="fill:none;stroke-width:1;stroke-linecap:butt;stroke-linejoin:miter;stroke:rgb(64.313725%,39.607843%,35.294118%);stroke-opacity:1;stroke-miterlimit:4;" d="M 527.011068 190.980903 C 522.96582 187.960286 519.014648 186.985894 516.004232 186.985894 C 509.042643 186.011502 504.997396 190.980903 501.986979 196.047743 L 501.046224 201.017144 L 498.976563 212.027778 C 498.035807 223.038411 495.025391 233.951606 492.014974 243.013455 L 492.955729 243.987847 L 495.966146 247.982856 C 504.997396 261.039714 509.983398 274.973524 511.958984 290.953559 L 512.993815 301.964193 " transform="matrix(0.0415225,0,0,0.0400891,0,0)"/>
<path style="fill:none;stroke-width:1;stroke-linecap:butt;stroke-linejoin:miter;stroke:rgb(95.294118%,56.470588%,44.313725%);stroke-opacity:1;stroke-miterlimit:4;" d="M 527.011068 190.980903 L 530.96224 196.047743 L 530.96224 197.996528 L 533.972656 200.042752 L 533.972656 201.991536 L 538.017904 205.012153 L 538.017904 206.960938 L 541.02832 209.007161 L 541.02832 210.955946 L 544.038737 213.00217 L 544.038737 215.048394 L 546.014323 216.022786 L 546.014323 217.971571 L 547.989909 219.043403 L 547.989909 220.992188 L 552.035156 224.012804 L 552.035156 225.961589 L 554.010742 228.007812 L 555.986328 228.007812 L 555.986328 229.956597 L 557.021159 229.956597 L 565.017578 236.972222 " transform="matrix(0.0415225,0,0,0.0400891,0,0)"/>
<path style="fill:none;stroke-width:1;stroke-linecap:butt;stroke-linejoin:miter;stroke:rgb(81.568627%,46.27451%,41.568627%);stroke-opacity:1;stroke-miterlimit:4;" d="M 552.035156 288.030382 C 544.979492 299.041016 536.042318 305.959201 525.035482 309.95421 L 520.990234 309.95421 C 516.004232 308.979818 514.969401 307.031033 512.993815 301.964193 " transform="matrix(0.0415225,0,0,0.0400891,0,0)"/>
<path style="fill:none;stroke-width:1;stroke-linecap:butt;stroke-linejoin:miter;stroke:rgb(64.313725%,39.607843%,35.294118%);stroke-opacity:1;stroke-miterlimit:4;" d="M 328.982096 282.963542 C 311.954427 280.040365 298.972005 273.02474 292.010417 258.019097 L 290.975586 258.019097 L 281.003581 277.019748 C 274.041992 289.004774 265.010742 297.969184 254.003906 307.031033 " transform="matrix(0.0415225,0,0,0.0400891,0,0)"/>
<path style="fill:none;stroke-width:1;stroke-linecap:butt;stroke-linejoin:miter;stroke:rgb(67.058824%,50.196078%,43.529412%);stroke-opacity:1;stroke-miterlimit:4;" d="M 254.003906 307.031033 C 244.031901 314.046658 233.025065 320.964844 220.983398 326.031684 L 220.042643 326.031684 C 219.007813 331.001085 220.042643 335.970486 222.018229 338.991102 C 225.969401 343.960503 230.955404 349.027344 236.035482 352.04796 L 241.021484 357.017361 C 247.983073 364.032986 257.955078 372.023003 266.986328 375.04362 C 271.972331 376.992405 276.017578 380.013021 279.96875 384.00803 L 290.975586 395.993056 L 301.041667 407.978082 L 306.027669 410.024306 L 347.985352 419.963108 C 363.037435 422.983724 379.030273 422.983724 395.023112 422.009332 L 419.01237 417.039931 C 435.005208 411.778212 449.963216 403.690755 463.039714 392.972439 L 482.042969 372.997396 C 493.802409 356.919922 501.046224 337.919271 503.02181 318.041667 " transform="matrix(0.0415225,0,0,0.0400891,0,0)"/>
<path style="fill:none;stroke-width:1;stroke-linecap:butt;stroke-linejoin:miter;stroke:rgb(64.313725%,39.607843%,35.294118%);stroke-opacity:1;stroke-miterlimit:4;" d="M 503.02181 318.041667 L 503.02181 312.974826 C 501.986979 292.025391 498.035807 273.02474 489.004557 254.024089 L 487.969727 254.024089 C 479.973307 273.02474 468.025716 288.030382 447.046875 293.974175 " transform="matrix(0.0415225,0,0,0.0400891,0,0)"/>
<path style="fill:none;stroke-width:1;stroke-linecap:butt;stroke-linejoin:miter;stroke:rgb(67.058824%,50.196078%,43.529412%);stroke-opacity:1;stroke-miterlimit:4;" d="M 447.046875 293.974175 C 433.970378 297.969184 420.987956 292.999783 409.98112 285.009766 C 395.963867 276.045356 392.953451 262.988498 390.977865 247.008464 C 390.977865 246.034071 390.977865 246.034071 390.977865 247.008464 C 384.016276 261.039714 371.974609 271.952908 358.992188 278.968533 C 349.960938 284.035373 339.988932 285.984158 328.982096 282.963542 " transform="matrix(0.0415225,0,0,0.0400891,0,0)"/>
<path style="fill:none;stroke-width:1;stroke-linecap:butt;stroke-linejoin:miter;stroke:rgb(97.647059%,63.529412%,53.333333%);stroke-opacity:1;stroke-miterlimit:4;" d="M 447.046875 293.974175 C 447.98763 304.984809 455.984049 312.000434 465.015299 315.995443 C 471.976888 319.016059 479.032552 319.990451 485.994141 320.964844 C 492.014974 322.036675 498.035807 320.964844 503.02181 318.041667 M 254.003906 307.031033 L 257.014323 308.005425 C 260.965495 312.974826 268.021159 315.02105 274.982747 315.02105 C 284.013997 315.02105 293.986003 314.046658 303.017253 311.026042 C 314.964844 308.005425 322.961263 300.9898 328.041341 289.979167 L 328.041341 285.984158 L 328.982096 282.963542 " transform="matrix(0.0415225,0,0,0.0400891,0,0)"/>
<path style="fill:none;stroke-width:1;stroke-linecap:butt;stroke-linejoin:miter;stroke:rgb(50.980392%,32.941176%,31.764706%);stroke-opacity:1;stroke-miterlimit:4;" d="M 152.966797 365.007378 L 160.022461 365.007378 L 171.970052 361.01237 L 176.015299 358.966146 C 187.022135 350.001736 198.969727 346.006727 214.02181 346.98112 L 214.962565 346.006727 C 214.962565 342.011719 206.966146 338.991102 203.955729 338.01671 " transform="matrix(0.0415225,0,0,0.0400891,0,0)"/>
<path style="fill:none;stroke-width:1;stroke-linecap:butt;stroke-linejoin:miter;stroke:rgb(64.313725%,39.607843%,35.294118%);stroke-opacity:1;stroke-miterlimit:4;" d="M 203.955729 338.01671 C 187.022135 334.021701 166.984049 342.011719 155.977214 354.971137 C 152.966797 357.991753 152.026042 361.01237 150.991211 364.032986 L 150.991211 365.007378 L 152.966797 365.007378 " transform="matrix(0.0415225,0,0,0.0400891,0,0)"/>
<path style="fill:none;stroke-width:1;stroke-linecap:butt;stroke-linejoin:miter;stroke:rgb(81.568627%,46.27451%,41.568627%);stroke-opacity:1;stroke-miterlimit:4;" d="M 204.99056 338.01671 L 198.969727 343.960503 L 179.966471 353.996745 L 154.001628 365.007378 " transform="matrix(0.0415225,0,0,0.0400891,0,0)"/>
<path style="fill:none;stroke-width:1;stroke-linecap:butt;stroke-linejoin:miter;stroke:rgb(64.705882%,43.137255%,34.509804%);stroke-opacity:1;stroke-miterlimit:4;" d="M 176.015299 372.023003 L 168.959635 380.987413 C 166.984049 384.00803 166.043294 388.977431 165.008464 394.044271 " transform="matrix(0.0415225,0,0,0.0400891,0,0)"/>
<path style="fill:none;stroke-width:1;stroke-linecap:butt;stroke-linejoin:miter;stroke:rgb(50.980392%,32.941176%,31.764706%);stroke-opacity:1;stroke-miterlimit:4;" d="M 165.008464 394.044271 C 168.01888 395.018663 171.970052 394.044271 176.956055 392.972439 C 185.046549 389.951823 193.042969 387.028646 201.980143 385.956814 L 203.014974 385.956814 C 212.986979 376.992405 225.028646 372.023003 239.045898 371.048611 L 239.045898 369.97678 C 236.976237 362.961155 231.990234 358.966146 223.993815 357.017361 " transform="matrix(0.0415225,0,0,0.0400891,0,0)"/>
<path style="fill:none;stroke-width:1;stroke-linecap:butt;stroke-linejoin:miter;stroke:rgb(64.313725%,39.607843%,35.294118%);stroke-opacity:1;stroke-miterlimit:4;" d="M 223.993815 357.017361 C 209.976563 353.606988 195.11263 356.140408 182.976888 364.032986 L 179.966471 366.956163 L 176.015299 372.023003 " transform="matrix(0.0415225,0,0,0.0400891,0,0)"/>
<path style="fill:none;stroke-width:1;stroke-linecap:butt;stroke-linejoin:miter;stroke:rgb(81.568627%,46.27451%,41.568627%);stroke-opacity:1;stroke-miterlimit:4;" d="M 223.993815 357.017361 C 222.958984 362.961155 220.042643 368.027995 214.962565 371.048611 L 201.039388 380.987413 L 195.018555 384.00803 " transform="matrix(0.0415225,0,0,0.0400891,0,0)"/>
<path style="fill:none;stroke-width:1;stroke-linecap:butt;stroke-linejoin:miter;stroke:rgb(95.294118%,56.470588%,44.313725%);stroke-opacity:1;stroke-miterlimit:4;" d="M 195.018555 384.00803 L 195.018555 380.987413 L 193.983724 380.013021 L 193.042969 380.013021 L 192.008138 379.038628 L 190.973307 379.038628 L 190.032552 377.966797 L 188.997721 377.966797 L 187.962891 376.992405 L 187.022135 376.992405 C 185.987305 376.018012 185.987305 375.04362 185.046549 376.018012 L 184.011719 375.04362 L 182.976888 375.04362 L 182.036133 373.971788 L 179.025716 373.971788 L 176.956055 372.997396 L 176.015299 372.997396 L 176.015299 372.023003 " transform="matrix(0.0415225,0,0,0.0400891,0,0)"/>
<path style="fill:none;stroke-width:1;stroke-linecap:butt;stroke-linejoin:miter;stroke:rgb(81.960784%,49.803922%,40.392157%);stroke-opacity:1;stroke-miterlimit:4;" d="M 166.043294 394.044271 L 187.022135 388.003038 L 195.95931 384.00803 " transform="matrix(0.0415225,0,0,0.0400891,0,0)"/>
<path style="fill:none;stroke-width:1;stroke-linecap:butt;stroke-linejoin:miter;stroke:rgb(50.980392%,32.941176%,31.764706%);stroke-opacity:1;stroke-miterlimit:4;" d="M 503.02181 364.032986 L 498.976563 371.048611 L 500.011393 371.048611 L 503.962565 373.971788 " transform="matrix(0.0415225,0,0,0.0400891,0,0)"/>
<path style="fill:none;stroke-width:1;stroke-linecap:butt;stroke-linejoin:miter;stroke:rgb(65.098039%,36.862745%,29.411765%);stroke-opacity:1;stroke-miterlimit:4;" d="M 503.02181 373.971788 L 511.018229 380.987413 L 516.004232 384.982422 L 525.976237 388.977431 L 525.976237 388.003038 C 525.976237 384.982422 524.000651 383.033637 522.025065 380.013021 C 517.039062 372.997396 511.018229 366.956163 501.986979 364.032986 C 501.986979 362.961155 501.986979 362.961155 501.986979 364.032986 C 501.046224 364.032986 501.046224 364.032986 501.986979 364.032986 " transform="matrix(0.0415225,0,0,0.0400891,0,0)"/>
<path style="fill:none;stroke-width:1;stroke-linecap:butt;stroke-linejoin:miter;stroke:rgb(82.352941%,43.529412%,35.294118%);stroke-opacity:1;stroke-miterlimit:4;" d="M 503.962565 373.971788 L 503.02181 364.032986 " transform="matrix(0.0415225,0,0,0.0400891,0,0)"/>
<path style="fill:none;stroke-width:1;stroke-linecap:butt;stroke-linejoin:miter;stroke:rgb(50.980392%,32.941176%,31.764706%);stroke-opacity:1;stroke-miterlimit:4;" d="M 487.969727 388.977431 L 482.042969 392.972439 L 482.042969 394.044271 L 492.014974 398.03928 " transform="matrix(0.0415225,0,0,0.0400891,0,0)"/>
<path style="fill:none;stroke-width:1;stroke-linecap:butt;stroke-linejoin:miter;stroke:rgb(65.098039%,36.862745%,29.411765%);stroke-opacity:1;stroke-miterlimit:4;" d="M 492.014974 398.03928 L 493.99056 399.013672 " transform="matrix(0.0415225,0,0,0.0400891,0,0)"/>
<path style="fill:none;stroke-width:1;stroke-linecap:butt;stroke-linejoin:miter;stroke:rgb(64.705882%,43.137255%,34.509804%);stroke-opacity:1;stroke-miterlimit:4;" d="M 492.955729 399.013672 C 497.000977 399.988064 500.011393 402.034288 503.02181 404.957465 L 509.042643 407.978082 L 517.979818 414.993707 L 519.014648 414.993707 L 517.979818 408.952474 C 514.969401 402.034288 511.958984 395.018663 506.972982 388.977431 " transform="matrix(0.0415225,0,0,0.0400891,0,0)"/>
<path style="fill:none;stroke-width:1;stroke-linecap:butt;stroke-linejoin:miter;stroke:rgb(65.098039%,36.862745%,29.411765%);stroke-opacity:1;stroke-miterlimit:4;" d="M 506.972982 388.977431 C 503.962565 384.982422 500.011393 381.961806 495.025391 380.013021 L 493.99056 380.013021 L 487.028971 388.977431 " transform="matrix(0.0415225,0,0,0.0400891,0,0)"/>
<path style="fill:none;stroke-width:1;stroke-linecap:butt;stroke-linejoin:miter;stroke:rgb(96.078431%,53.72549%,38.039216%);stroke-opacity:1;stroke-miterlimit:4;" d="M 508.007813 388.977431 L 506.032227 391.023655 L 506.032227 391.998047 L 504.997396 391.998047 L 501.046224 395.018663 L 500.011393 395.018663 L 498.976563 395.993056 L 498.035807 396.967448 L 493.99056 399.013672 " transform="matrix(0.0415225,0,0,0.0400891,0,0)"/>
<path style="fill:none;stroke-width:1;stroke-linecap:butt;stroke-linejoin:miter;stroke:rgb(82.352941%,43.529412%,35.294118%);stroke-opacity:1;stroke-miterlimit:4;" d="M 492.014974 398.03928 L 487.969727 388.977431 " transform="matrix(0.0415225,0,0,0.0400891,0,0)"/>
<path style="fill:none;stroke-width:1;stroke-linecap:butt;stroke-linejoin:miter;stroke:rgb(64.705882%,43.137255%,34.509804%);stroke-opacity:1;stroke-miterlimit:4;" d="M 211.011393 391.023655 C 200.004557 399.013672 193.042969 407.978082 187.962891 418.988715 C 185.046549 425.029948 184.011719 430.973741 185.046549 437.989366 L 187.022135 438.963759 L 192.008138 438.963759 L 212.046224 434.96875 " transform="matrix(0.0415225,0,0,0.0400891,0,0)"/>
<path style="fill:none;stroke-width:1;stroke-linecap:butt;stroke-linejoin:miter;stroke:rgb(50.980392%,32.941176%,31.764706%);stroke-opacity:1;stroke-miterlimit:4;" d="M 212.046224 434.96875 L 231.990234 429.999349 L 249.958659 426.978733 L 266.986328 422.009332 C 271.972331 421.034939 276.017578 418.014323 277.993164 414.019314 C 281.003581 408.952474 281.003581 403.983073 277.993164 399.013672 C 274.982747 394.044271 271.972331 389.951823 266.986328 387.028646 " transform="matrix(0.0415225,0,0,0.0400891,0,0)"/>
<path style="fill:none;stroke-width:1;stroke-linecap:butt;stroke-linejoin:miter;stroke:rgb(64.313725%,39.607843%,35.294118%);stroke-opacity:1;stroke-miterlimit:4;" d="M 266.986328 387.028646 L 258.989909 381.961806 L 239.045898 380.013021 C 228.979818 380.987413 220.042643 384.00803 211.011393 391.023655 " transform="matrix(0.0415225,0,0,0.0400891,0,0)"/>
<path style="fill:none;stroke-width:1;stroke-linecap:butt;stroke-linejoin:miter;stroke:rgb(81.568627%,46.27451%,41.568627%);stroke-opacity:1;stroke-miterlimit:4;" d="M 266.986328 387.028646 L 268.961914 392.972439 L 268.961914 396.967448 C 266.986328 403.008681 263.035156 407.978082 257.955078 411.97309 L 244.031901 422.009332 " transform="matrix(0.0415225,0,0,0.0400891,0,0)"/>
<path style="fill:none;stroke-width:1;stroke-linecap:butt;stroke-linejoin:miter;stroke:rgb(95.294118%,56.470588%,44.313725%);stroke-opacity:1;stroke-miterlimit:4;" d="M 244.031901 422.009332 L 222.958984 399.013672 L 220.983398 399.013672 L 217.032227 394.044271 L 214.962565 394.044271 L 211.011393 391.023655 " transform="matrix(0.0415225,0,0,0.0400891,0,0)"/>
<path style="fill:none;stroke-width:1;stroke-linecap:butt;stroke-linejoin:miter;stroke:rgb(81.960784%,49.803922%,40.392157%);stroke-opacity:1;stroke-miterlimit:4;" d="M 212.046224 434.96875 C 222.958984 432.045573 233.025065 426.978733 244.031901 422.009332 " transform="matrix(0.0415225,0,0,0.0400891,0,0)"/>
<path style="fill:none;stroke-width:1;stroke-linecap:butt;stroke-linejoin:miter;stroke:rgb(50.980392%,32.941176%,31.764706%);stroke-opacity:1;stroke-miterlimit:4;" d="M 465.015299 407.978082 L 455.043294 415.968099 C 454.572917 416.357856 454.29069 416.942491 454.29069 417.527127 C 454.29069 418.111762 454.572917 418.598958 455.043294 418.988715 L 458.994466 421.034939 L 481.008138 426.978733 " transform="matrix(0.0415225,0,0,0.0400891,0,0)"/>
<path style="fill:none;stroke-width:1;stroke-linecap:butt;stroke-linejoin:miter;stroke:rgb(64.705882%,43.137255%,34.509804%);stroke-opacity:1;stroke-miterlimit:4;" d="M 481.008138 426.978733 L 509.042643 436.040582 L 511.958984 436.040582 L 512.993815 433.019965 C 511.958984 419.963108 504.997396 411.97309 493.99056 407.978082 C 490.980143 407.003689 489.004557 406.029297 487.969727 407.003689 " transform="matrix(0.0415225,0,0,0.0400891,0,0)"/>
<path style="fill:none;stroke-width:1;stroke-linecap:butt;stroke-linejoin:miter;stroke:rgb(65.098039%,36.862745%,29.411765%);stroke-opacity:1;stroke-miterlimit:4;" d="M 487.969727 407.003689 C 481.008138 406.029297 471.036133 404.957465 465.015299 407.978082 " transform="matrix(0.0415225,0,0,0.0400891,0,0)"/>
<path style="fill:none;stroke-width:1;stroke-linecap:butt;stroke-linejoin:miter;stroke:rgb(96.078431%,53.72549%,38.039216%);stroke-opacity:1;stroke-miterlimit:4;" d="M 489.004557 407.003689 L 474.046549 422.009332 " transform="matrix(0.0415225,0,0,0.0400891,0,0)"/>
<path style="fill:none;stroke-width:1;stroke-linecap:butt;stroke-linejoin:miter;stroke:rgb(82.352941%,43.529412%,35.294118%);stroke-opacity:1;stroke-miterlimit:4;" d="M 474.046549 422.009332 L 466.990885 414.019314 L 465.956055 407.978082 " transform="matrix(0.0415225,0,0,0.0400891,0,0)"/>
<path style="fill:none;stroke-width:1;stroke-linecap:butt;stroke-linejoin:miter;stroke:rgb(81.960784%,49.803922%,40.392157%);stroke-opacity:1;stroke-miterlimit:4;" d="M 482.042969 426.978733 L 474.046549 422.009332 " transform="matrix(0.0415225,0,0,0.0400891,0,0)"/>
<path style="fill:none;stroke-width:1;stroke-linecap:butt;stroke-linejoin:miter;stroke:rgb(100%,87.058824%,80.784314%);stroke-opacity:1;stroke-miterlimit:4;" d="M 147.980794 178.995877 C 149.015625 183.965278 152.966797 186.985894 158.046875 187.960286 C 168.959635 190.980903 179.966471 186.985894 188.997721 179.970269 C 198.028971 172.954644 204.99056 159.995226 195.95931 148.984592 L 187.962891 144.989583 C 176.015299 140.994575 163.032878 148.984592 155.036458 158.046441 L 149.95638 164.964627 C 147.040039 168.959635 146.005208 175.000868 147.980794 178.995877 " transform="matrix(0.0415225,0,0,0.0400891,0,0)"/>
<path style="fill:none;stroke-width:1;stroke-linecap:butt;stroke-linejoin:miter;stroke:rgb(67.058824%,50.196078%,43.529412%);stroke-opacity:1;stroke-miterlimit:4;" d="M 384.957031 295.046007 C 377.995443 292.025391 369.999023 289.004774 368.023438 281.989149 L 366.988607 281.014757 L 363.97819 282.963542 C 360.027018 288.030382 365.013021 292.999783 368.964193 295.046007 C 379.971029 300.9898 392.012695 303.036024 403.960286 300.015408 L 403.960286 299.041016 L 384.957031 295.046007 " transform="matrix(0.0415225,0,0,0.0400891,0,0)"/>
<path style=" stroke:none;fill-rule:nonzero;fill:rgb(33.72549%,26.27451%,25.490196%);fill-opacity:1;" d="M 12.042969 6.253906 C 12.25 5.894531 12.5 5.53125 12.789062 5.25 C 13.453125 4.609375 14.53125 4.53125 15.445312 4.730469 C 15.738281 4.8125 15.984375 4.929688 16.195312 5.132812 L 16.359375 5.25 L 16.609375 5.453125 L 16.652344 5.453125 L 16.691406 5.210938 L 16.734375 4.730469 C 16.734375 4.609375 16.691406 4.570312 16.609375 4.53125 L 15.863281 4.371094 L 14.699219 4.289062 C 14.242188 4.25 13.371094 4.167969 13.453125 3.527344 C 13.496094 3.007812 13.992188 2.527344 14.410156 2.203125 C 15.597656 1.1875 17.019531 0.460938 18.5625 0.0820312 L 19.722656 0 C 20.097656 0.0390625 20.136719 0.359375 19.972656 0.601562 C 19.847656 0.761719 19.722656 0.921875 19.515625 1.042969 L 18.394531 2.003906 L 18.394531 2.042969 C 18.851562 2.003906 19.265625 2.042969 19.640625 2.125 C 20.179688 2.246094 20.636719 2.527344 20.636719 3.085938 C 20.679688 3.488281 20.386719 3.96875 20.097656 4.289062 C 19.765625 4.609375 19.347656 4.929688 18.933594 5.210938 L 18.933594 5.25 C 19.308594 5.25 19.597656 5.332031 19.847656 5.574219 C 20.347656 5.933594 20.636719 6.453125 20.761719 7.054688 L 20.804688 7.054688 L 21.757812 7.175781 C 22.046875 7.296875 22.464844 7.457031 22.710938 7.65625 C 23.722656 8.480469 24.171875 9.78125 23.875 11.023438 C 23.832031 11.226562 23.710938 11.386719 23.5 11.503906 L 23.460938 11.546875 C 23.335938 11.746094 23.253906 11.988281 23.085938 12.1875 L 22.921875 12.46875 C 22.589844 12.828125 22.007812 13.148438 21.550781 13.269531 L 21.425781 13.351562 L 21.257812 13.550781 L 21.050781 14.152344 L 21.21875 14.351562 C 21.589844 14.511719 21.882812 14.792969 22.089844 15.195312 C 22.171875 15.355469 22.257812 15.515625 22.214844 15.675781 C 22.171875 15.875 22.007812 15.957031 21.800781 15.957031 L 21.757812 15.996094 C 21.882812 16.277344 22.007812 16.675781 21.800781 16.917969 C 21.757812 16.957031 21.675781 16.996094 21.589844 16.957031 L 21.550781 16.996094 L 21.550781 17.15625 C 21.589844 17.320312 21.675781 17.597656 21.507812 17.757812 C 21.34375 17.917969 21.136719 17.878906 20.925781 17.800781 L 19.683594 17.398438 C 19.390625 17.277344 19.015625 17.199219 18.476562 17.117188 L 17.648438 17.078125 L 16.691406 17.117188 L 16.027344 17.15625 L 14.324219 17.15625 L 13.535156 17.078125 C 13.164062 17.039062 12.746094 17.039062 12.375 17.117188 L 11.5 17.238281 L 11.128906 17.320312 L 10.589844 17.4375 L 9.425781 17.679688 L 8.015625 17.960938 C 7.140625 18.121094 7.226562 17.320312 7.390625 16.835938 L 7.890625 15.996094 L 7.890625 15.957031 C 7.597656 16.074219 7.347656 16.15625 7.058594 16.195312 C 6.726562 16.234375 6.4375 16.074219 6.476562 15.675781 C 6.519531 15.433594 6.601562 15.195312 6.769531 14.992188 L 6.726562 14.953125 C 6.476562 15.035156 6.019531 15.035156 5.9375 14.753906 C 5.855469 14.511719 5.980469 14.230469 6.144531 14.03125 C 6.351562 13.75 6.644531 13.550781 7.015625 13.390625 L 7.015625 13.351562 C 6.105469 13.308594 5.273438 13.070312 4.402344 12.75 C 3.488281 12.386719 2.742188 11.785156 2.160156 10.984375 L 1.660156 10.304688 C 1.433594 9.945312 1.238281 9.570312 1.078125 9.179688 L 1.039062 9.140625 C 0.707031 9.179688 0.414062 9.101562 0.207031 8.820312 C 0.0429688 8.578125 -0.0429688 8.296875 0 7.9375 C 0 7.496094 0.167969 7.097656 0.332031 6.695312 C 0.664062 5.773438 1.246094 4.8125 2.035156 4.128906 L 2.65625 3.609375 C 3.488281 2.964844 4.609375 2.445312 5.6875 2.40625 C 6.226562 2.367188 6.726562 2.40625 7.226562 2.445312 C 8.261719 2.566406 9.175781 2.964844 9.964844 3.566406 C 10.464844 3.96875 10.921875 4.449219 11.335938 5.050781 C 11.625 5.410156 11.875 5.8125 12.042969 6.253906 C 12.042969 6.292969 12.042969 6.292969 12.042969 6.253906 Z M 14.324219 2.765625 C 14.117188 2.964844 13.953125 3.167969 13.867188 3.40625 C 13.828125 3.527344 13.785156 3.609375 13.828125 3.648438 C 13.867188 3.847656 14.449219 3.929688 14.65625 3.929688 L 16.441406 4.007812 L 17.8125 4.167969 L 17.894531 4.25 C 17.894531 4.371094 17.773438 4.410156 17.6875 4.410156 L 17.316406 4.410156 C 17.230469 4.410156 17.105469 4.488281 17.105469 4.609375 L 16.984375 5.851562 L 17.066406 5.851562 L 17.5625 5.574219 L 18.019531 5.332031 C 18.5625 5.089844 19.058594 4.691406 19.515625 4.289062 C 19.847656 4.007812 20.136719 3.726562 20.261719 3.328125 C 20.386719 2.925781 20.097656 2.605469 19.683594 2.527344 L 19.101562 2.445312 L 17.6875 2.484375 C 17.5625 2.484375 17.523438 2.445312 17.5625 2.324219 L 17.6875 2.125 L 18.4375 1.523438 L 19.183594 0.882812 L 19.640625 0.402344 L 19.640625 0.359375 C 18.867188 0.335938 18.101562 0.488281 17.398438 0.800781 C 16.441406 1.203125 15.53125 1.722656 14.742188 2.40625 Z M 1.246094 8.738281 L 1.828125 8.578125 L 3.445312 7.898438 L 3.695312 7.859375 C 4.070312 7.816406 4.070312 8.339844 4.109375 8.578125 C 4.109375 8.941406 4.195312 9.300781 4.359375 9.582031 C 4.527344 9.863281 4.859375 9.941406 5.191406 9.941406 C 5.648438 9.902344 6.105469 9.863281 6.5625 9.742188 L 8.054688 9.460938 L 8.554688 9.339844 L 8.804688 9.300781 C 9.050781 9.339844 9.136719 9.582031 9.175781 9.78125 L 9.21875 10.304688 C 9.21875 10.421875 9.175781 10.464844 9.050781 10.503906 C 8.96875 10.503906 8.84375 10.421875 8.84375 10.34375 L 8.84375 10.140625 L 8.804688 9.941406 L 8.761719 9.703125 L 8.71875 9.660156 L 8.59375 9.703125 L 6.4375 10.140625 L 5.398438 10.261719 C 4.859375 10.304688 4.359375 10.261719 4.070312 9.78125 C 3.945312 9.582031 3.820312 9.378906 3.777344 9.140625 L 3.695312 8.78125 L 3.695312 8.21875 L 3.652344 8.21875 L 2.53125 8.660156 L 1.785156 8.980469 L 1.785156 9.261719 L 2.035156 10.0625 C 2.492188 10.984375 3.195312 11.707031 4.109375 12.1875 L 4.316406 12.308594 C 5.34375 12.773438 6.464844 13.019531 7.597656 13.027344 C 8.640625 12.953125 9.628906 12.5625 10.421875 11.90625 L 10.589844 11.785156 C 10.878906 11.503906 11.167969 11.144531 11.378906 10.742188 L 11.542969 10.34375 C 11.75 9.742188 11.917969 9.140625 11.957031 8.5 L 11.917969 7.578125 C 11.875 7.054688 11.792969 6.574219 11.585938 6.132812 L 10.960938 5.132812 C 10.589844 4.609375 10.171875 4.167969 9.632812 3.769531 L 9.382812 3.566406 C 8.636719 3.085938 7.804688 2.847656 6.933594 2.765625 L 6.105469 2.726562 C 4.316406 2.726562 2.78125 3.726562 1.660156 5.050781 C 1.121094 5.734375 0.746094 6.574219 0.457031 7.417969 C 0.332031 7.816406 0.289062 8.21875 0.5 8.578125 C 0.582031 8.699219 0.707031 8.78125 0.832031 8.78125 Z M 13.164062 10.023438 C 12.832031 9.980469 12.457031 9.863281 12.25 9.582031 C 12.25 10.101562 12.664062 10.625 13.121094 10.824219 L 13.828125 11.023438 C 14.199219 11.105469 14.492188 11.023438 14.824219 10.824219 C 15.195312 10.582031 15.570312 10.304688 15.777344 9.941406 C 16.0625 9.308594 16.285156 8.652344 16.441406 7.976562 C 16.527344 7.457031 16.609375 6.976562 16.527344 6.453125 C 16.441406 6.171875 16.359375 5.894531 16.195312 5.652344 C 16.152344 5.613281 16.152344 5.652344 16.152344 5.691406 C 16.316406 6.816406 16.070312 7.9375 15.488281 8.898438 L 15.113281 9.339844 C 14.589844 9.820312 13.882812 10.070312 13.164062 10.023438 Z M 13.246094 8.699219 L 13.078125 9.019531 L 13.078125 9.300781 L 13.164062 9.542969 L 13.246094 9.660156 L 13.328125 9.742188 L 13.371094 9.78125 C 13.785156 9.78125 14.160156 9.660156 14.492188 9.460938 C 14.824219 9.261719 15.113281 9.019531 15.320312 8.660156 C 15.320312 8.636719 15.304688 8.621094 15.28125 8.621094 L 15.195312 8.5 L 15.074219 8.457031 L 14.988281 8.378906 L 14.90625 8.378906 L 14.90625 8.339844 L 14.53125 8.296875 L 14.449219 8.339844 L 14.367188 8.339844 L 14.242188 8.378906 L 14.160156 8.378906 C 14.53125 7.976562 14.65625 7.496094 14.617188 6.933594 C 14.53125 6.214844 13.785156 5.652344 13.078125 6.171875 C 12.707031 6.414062 12.539062 6.816406 12.457031 7.214844 C 12.332031 7.816406 12.582031 8.578125 13.246094 8.699219 Z M 17.191406 9.101562 C 17.066406 9.261719 16.941406 9.421875 16.898438 9.621094 L 16.816406 9.941406 L 16.816406 9.980469 C 17.105469 10.261719 17.4375 10.34375 17.855469 10.304688 C 18.351562 10.261719 18.769531 10.101562 19.058594 9.78125 L 19.140625 9.660156 L 19.183594 9.460938 L 19.226562 9.300781 L 19.226562 9.058594 L 19.140625 8.859375 L 18.933594 8.699219 L 18.683594 8.578125 C 18.808594 8.296875 18.894531 8.019531 18.851562 7.695312 C 18.808594 7.136719 18.394531 6.613281 17.773438 6.773438 C 17.355469 6.855469 17.066406 7.214844 16.941406 7.578125 C 16.816406 7.859375 16.773438 8.097656 16.816406 8.378906 C 16.859375 8.660156 16.984375 8.898438 17.191406 9.101562 Z M 19.929688 10.101562 C 20.300781 9.183594 20.457031 8.199219 20.386719 7.214844 L 20.304688 6.773438 L 20.261719 6.773438 L 20.261719 7.816406 C 20.136719 8.457031 19.972656 9.019531 19.597656 9.582031 C 19.175781 10.222656 18.433594 10.605469 17.648438 10.582031 C 17.273438 10.582031 16.941406 10.421875 16.652344 10.140625 L 16.652344 10.183594 L 16.816406 10.664062 C 16.984375 11.023438 17.480469 11.304688 17.894531 11.425781 C 18.105469 11.503906 18.3125 11.503906 18.519531 11.425781 C 19.226562 11.226562 19.597656 10.703125 19.929688 10.101562 Z M 21.300781 12.105469 L 21.300781 12.949219 C 21.46875 12.910156 21.632812 12.867188 21.839844 12.75 C 22.132812 12.628906 22.421875 12.46875 22.589844 12.226562 C 22.753906 12.066406 22.835938 11.785156 22.960938 11.585938 L 22.960938 11.546875 L 22.921875 11.546875 L 22.546875 11.34375 L 22.464844 11.34375 L 22.378906 11.503906 C 22.296875 11.664062 22.046875 11.625 22.046875 11.425781 C 22.046875 11.066406 22.378906 10.863281 22.753906 11.023438 C 22.960938 11.144531 23.210938 11.34375 23.417969 11.105469 C 23.5 11.023438 23.542969 10.863281 23.542969 10.742188 L 23.542969 9.742188 L 23.460938 9.5 C 23.335938 8.980469 23.085938 8.578125 22.753906 8.21875 C 22.546875 7.9375 22.257812 7.777344 21.882812 7.65625 C 21.714844 7.535156 21.550781 7.496094 21.425781 7.496094 C 21.136719 7.457031 20.96875 7.65625 20.84375 7.859375 L 20.804688 8.058594 L 20.71875 8.5 C 20.679688 8.941406 20.554688 9.378906 20.429688 9.742188 L 20.46875 9.78125 L 20.59375 9.941406 C 20.96875 10.464844 21.175781 11.023438 21.257812 11.664062 Z M 13.660156 11.34375 C 12.953125 11.226562 12.414062 10.945312 12.125 10.34375 L 12.082031 10.34375 L 11.667969 11.105469 C 11.378906 11.585938 11.003906 11.945312 10.546875 12.308594 C 10.132812 12.589844 9.675781 12.867188 9.175781 13.070312 L 9.136719 13.070312 C 9.09375 13.269531 9.136719 13.46875 9.21875 13.589844 C 9.382812 13.789062 9.589844 13.992188 9.800781 14.113281 L 10.007812 14.3125 C 10.296875 14.59375 10.710938 14.914062 11.085938 15.035156 C 11.292969 15.113281 11.460938 15.234375 11.625 15.394531 L 12.082031 15.875 L 12.5 16.355469 L 12.707031 16.4375 L 14.449219 16.835938 C 15.074219 16.957031 15.738281 16.957031 16.402344 16.917969 L 17.398438 16.71875 C 18.0625 16.507812 18.683594 16.183594 19.226562 15.753906 L 20.015625 14.953125 C 20.503906 14.308594 20.804688 13.546875 20.886719 12.75 L 20.886719 12.546875 C 20.84375 11.707031 20.679688 10.945312 20.304688 10.183594 L 20.261719 10.183594 C 19.929688 10.945312 19.433594 11.546875 18.5625 11.785156 C 18.019531 11.945312 17.480469 11.746094 17.023438 11.425781 C 16.441406 11.066406 16.316406 10.542969 16.234375 9.902344 C 16.234375 9.863281 16.234375 9.863281 16.234375 9.902344 C 15.945312 10.464844 15.445312 10.902344 14.90625 11.183594 C 14.53125 11.386719 14.117188 11.464844 13.660156 11.34375 Z M 6.351562 14.632812 L 6.644531 14.632812 L 7.140625 14.472656 L 7.308594 14.390625 C 7.765625 14.03125 8.261719 13.871094 8.886719 13.910156 L 8.925781 13.871094 C 8.925781 13.710938 8.59375 13.589844 8.46875 13.550781 C 7.765625 13.390625 6.933594 13.710938 6.476562 14.230469 C 6.351562 14.351562 6.3125 14.472656 6.269531 14.59375 L 6.269531 14.632812 Z M 7.308594 14.914062 L 7.015625 15.273438 C 6.933594 15.394531 6.894531 15.59375 6.851562 15.796875 C 6.976562 15.835938 7.140625 15.796875 7.347656 15.753906 C 7.683594 15.632812 8.015625 15.515625 8.386719 15.472656 L 8.429688 15.472656 C 8.84375 15.113281 9.34375 14.914062 9.925781 14.875 L 9.925781 14.832031 C 9.839844 14.550781 9.632812 14.390625 9.300781 14.3125 C 8.71875 14.175781 8.101562 14.277344 7.597656 14.59375 L 7.472656 14.710938 Z M 20.84375 14.59375 L 20.679688 14.875 L 20.71875 14.875 L 20.886719 14.992188 L 21.21875 15.273438 L 21.425781 15.433594 L 21.839844 15.59375 L 21.839844 15.554688 C 21.839844 15.433594 21.757812 15.355469 21.675781 15.234375 C 21.46875 14.953125 21.21875 14.710938 20.84375 14.59375 C 20.84375 14.550781 20.84375 14.550781 20.84375 14.59375 C 20.804688 14.59375 20.804688 14.59375 20.84375 14.59375 Z M 20.222656 15.59375 L 19.972656 15.753906 L 19.972656 15.796875 L 20.386719 15.957031 L 20.46875 15.996094 C 20.636719 16.035156 20.761719 16.117188 20.886719 16.234375 L 21.136719 16.355469 L 21.507812 16.636719 L 21.550781 16.636719 L 21.507812 16.394531 C 21.382812 16.117188 21.257812 15.835938 21.050781 15.59375 C 20.925781 15.433594 20.761719 15.3125 20.554688 15.234375 L 20.511719 15.234375 Z M 8.761719 15.675781 C 8.304688 15.996094 8.015625 16.355469 7.804688 16.796875 C 7.683594 17.039062 7.640625 17.277344 7.683594 17.558594 L 7.765625 17.597656 L 7.972656 17.597656 L 8.804688 17.4375 L 9.632812 17.238281 L 10.378906 17.117188 L 11.085938 16.917969 C 11.292969 16.878906 11.460938 16.757812 11.542969 16.597656 C 11.667969 16.394531 11.667969 16.195312 11.542969 15.996094 C 11.417969 15.796875 11.292969 15.632812 11.085938 15.515625 L 10.753906 15.3125 L 9.925781 15.234375 C 9.507812 15.273438 9.136719 15.394531 8.761719 15.675781 Z M 19.308594 16.355469 L 18.894531 16.675781 C 18.875 16.691406 18.863281 16.714844 18.863281 16.738281 C 18.863281 16.761719 18.875 16.78125 18.894531 16.796875 L 19.058594 16.878906 L 19.972656 17.117188 L 21.136719 17.480469 L 21.257812 17.480469 L 21.300781 17.359375 C 21.257812 16.835938 20.96875 16.515625 20.511719 16.355469 C 20.386719 16.316406 20.304688 16.277344 20.261719 16.316406 C 19.972656 16.277344 19.558594 16.234375 19.308594 16.355469 Z M 19.308594 16.355469 "/>
<path style=" stroke:none;fill-rule:nonzero;fill:rgb(100%,90.980392%,40.784314%);fill-opacity:1;" d="M 19.683594 2.527344 L 19.640625 2.566406 L 19.640625 2.605469 L 19.433594 3.085938 L 19.183594 3.289062 L 18.644531 3.527344 L 17.605469 3.726562 L 16.898438 3.726562 L 16.277344 3.648438 L 15.238281 3.40625 L 14.949219 3.289062 L 14.699219 3.167969 L 14.492188 2.964844 L 14.449219 2.925781 L 14.410156 2.886719 L 14.367188 2.847656 L 14.324219 2.765625 L 14.742188 2.40625 C 15.71875 1.59375 16.84375 0.96875 18.0625 0.5625 C 18.5625 0.402344 19.101562 0.359375 19.640625 0.359375 L 19.640625 0.402344 L 19.183594 0.882812 L 18.4375 1.523438 L 17.6875 2.125 L 17.5625 2.324219 C 17.523438 2.445312 17.5625 2.484375 17.6875 2.484375 L 19.101562 2.445312 Z M 19.683594 2.527344 "/>
<path style=" stroke:none;fill-rule:nonzero;fill:rgb(100%,73.333333%,28.627451%);fill-opacity:1;" d="M 19.683594 2.527344 C 20.097656 2.605469 20.386719 2.925781 20.261719 3.328125 C 20.136719 3.726562 19.847656 4.007812 19.515625 4.289062 C 19.058594 4.691406 18.5625 5.089844 18.019531 5.332031 L 17.5625 5.574219 L 17.066406 5.851562 L 16.984375 5.851562 L 17.105469 4.609375 C 17.105469 4.488281 17.230469 4.410156 17.316406 4.410156 L 17.6875 4.410156 C 17.773438 4.410156 17.894531 4.371094 17.894531 4.25 L 17.8125 4.167969 L 16.441406 4.007812 L 14.65625 3.929688 C 14.449219 3.929688 13.867188 3.847656 13.828125 3.648438 C 13.785156 3.609375 13.828125 3.527344 13.867188 3.40625 C 13.953125 3.167969 14.117188 2.964844 14.324219 2.765625 L 14.367188 2.847656 L 14.410156 2.886719 L 14.449219 2.925781 L 14.492188 2.964844 L 14.699219 3.167969 L 14.949219 3.289062 L 15.238281 3.40625 L 16.277344 3.648438 L 16.898438 3.726562 L 17.605469 3.726562 L 18.644531 3.527344 L 19.183594 3.289062 L 19.433594 3.085938 L 19.640625 2.605469 L 19.640625 2.566406 Z M 19.683594 2.527344 "/>
<path style=" stroke:none;fill-rule:nonzero;fill:rgb(100%,78.823529%,54.117647%);fill-opacity:1;" d="M 9.382812 3.566406 L 9.050781 3.648438 L 9.011719 3.648438 L 8.925781 3.6875 L 8.886719 3.726562 L 8.804688 3.726562 L 8.761719 3.769531 L 8.679688 3.808594 L 8.636719 3.808594 L 8.59375 3.847656 L 8.554688 3.847656 L 8.511719 3.886719 L 8.46875 3.886719 L 8.347656 3.96875 L 8.222656 3.96875 C 8.222656 3.992188 8.203125 4.007812 8.179688 4.007812 L 8.097656 4.050781 L 7.765625 4.050781 L 7.722656 4.089844 L 7.015625 4.089844 L 6.976562 4.128906 L 6.644531 4.128906 L 6.601562 4.167969 L 6.394531 4.167969 L 6.351562 4.210938 C 5.980469 3.6875 5.355469 3.566406 4.734375 3.648438 C 4.027344 3.769531 3.238281 4.089844 2.78125 4.609375 C 2.324219 5.132812 2.242188 5.773438 2.617188 6.335938 C 2.53125 6.335938 2.492188 6.375 2.492188 6.414062 L 2.449219 6.453125 L 2.324219 6.574219 L 2.324219 6.65625 L 2.160156 6.773438 L 2.160156 6.855469 L 2.074219 6.894531 L 2.074219 6.976562 L 1.992188 7.015625 L 1.992188 7.097656 L 1.910156 7.175781 L 1.867188 7.214844 L 1.867188 7.296875 L 1.828125 7.335938 L 1.828125 7.375 L 1.742188 7.457031 L 1.703125 7.496094 L 1.703125 7.578125 L 1.660156 7.617188 L 1.660156 7.65625 L 1.621094 7.695312 L 1.621094 7.738281 C 1.578125 7.777344 1.535156 7.777344 1.578125 7.816406 L 1.535156 7.859375 L 1.535156 7.9375 C 1.496094 7.976562 1.453125 7.976562 1.496094 8.019531 L 1.453125 8.058594 L 1.453125 8.136719 L 1.410156 8.21875 L 1.410156 8.257812 C 1.371094 8.296875 1.328125 8.296875 1.371094 8.339844 L 1.371094 8.378906 L 1.328125 8.457031 L 1.289062 8.5 L 1.289062 8.539062 L 1.246094 8.578125 L 1.246094 8.738281 L 0.832031 8.78125 C 0.707031 8.78125 0.582031 8.699219 0.5 8.578125 C 0.289062 8.21875 0.332031 7.816406 0.457031 7.417969 C 0.746094 6.574219 1.121094 5.734375 1.660156 5.050781 C 2.78125 3.726562 4.316406 2.726562 6.105469 2.726562 L 6.933594 2.765625 C 7.804688 2.847656 8.636719 3.085938 9.382812 3.566406 Z M 9.382812 3.566406 "/>
<path style=" stroke:none;fill-rule:nonzero;fill:rgb(100%,76.078431%,57.647059%);fill-opacity:1;" d="M 9.382812 3.566406 L 9.632812 3.769531 L 9.632812 3.808594 L 9.675781 3.808594 L 9.675781 3.847656 L 9.589844 3.847656 L 9.507812 3.886719 L 9.46875 3.886719 L 9.34375 3.929688 L 9.21875 3.929688 L 9.175781 3.96875 L 9.011719 4.007812 L 8.96875 4.050781 L 8.886719 4.050781 L 8.84375 4.089844 L 8.804688 4.089844 L 8.71875 4.210938 L 8.636719 4.210938 L 8.554688 4.289062 L 8.511719 4.328125 L 8.429688 4.371094 L 8.429688 4.410156 L 8.136719 4.53125 L 8.054688 4.53125 L 7.972656 4.570312 L 7.722656 4.570312 L 7.640625 4.609375 L 6.933594 4.609375 L 6.933594 4.648438 L 6.726562 4.648438 L 6.601562 4.691406 L 6.519531 4.488281 L 6.351562 4.210938 L 6.394531 4.167969 L 6.601562 4.167969 L 6.644531 4.128906 L 6.976562 4.128906 L 7.015625 4.089844 L 7.722656 4.089844 L 7.765625 4.050781 L 8.097656 4.050781 L 8.179688 4.007812 C 8.203125 4.007812 8.222656 3.992188 8.222656 3.96875 L 8.347656 3.96875 L 8.46875 3.886719 L 8.511719 3.886719 L 8.554688 3.847656 L 8.59375 3.847656 L 8.636719 3.808594 L 8.679688 3.808594 L 8.761719 3.769531 L 8.804688 3.726562 L 8.886719 3.726562 L 8.925781 3.6875 L 9.011719 3.648438 L 9.050781 3.648438 Z M 9.382812 3.566406 "/>
<path style=" stroke:none;fill-rule:nonzero;fill:rgb(100%,98.431373%,84.705882%);fill-opacity:1;" d="M 6.351562 4.210938 L 6.519531 4.488281 L 6.351562 4.449219 L 6.1875 4.371094 L 5.855469 4.371094 L 5.480469 4.449219 L 5.4375 4.488281 L 5.398438 4.488281 L 5.316406 4.53125 L 5.066406 4.609375 C 4.484375 4.8125 3.945312 5.132812 3.445312 5.53125 L 2.949219 6.011719 L 2.863281 6.132812 L 2.90625 6.132812 L 2.90625 6.375 L 3.238281 6.65625 L 3.320312 6.734375 C 3.363281 6.773438 3.40625 6.816406 3.363281 6.855469 L 2.988281 6.695312 L 2.617188 6.335938 C 2.242188 5.773438 2.324219 5.132812 2.78125 4.609375 C 3.238281 4.089844 4.027344 3.769531 4.734375 3.648438 C 5.355469 3.566406 5.980469 3.6875 6.351562 4.210938 Z M 6.351562 4.210938 "/>
<path style=" stroke:none;fill-rule:nonzero;fill:rgb(100%,73.72549%,61.176471%);fill-opacity:1;" d="M 9.632812 3.769531 C 10.171875 4.167969 10.589844 4.609375 10.960938 5.132812 C 11.085938 5.613281 11.167969 6.011719 11.167969 6.335938 L 11.167969 7.214844 C 11.167969 7.695312 11.085938 8.136719 10.835938 8.578125 L 10.214844 9.5 C 9.46875 10.382812 8.554688 11.105469 7.472656 11.664062 C 7.015625 11.90625 6.5625 12.066406 6.105469 12.148438 L 4.652344 12.265625 L 4.316406 12.308594 L 4.109375 12.1875 C 3.195312 11.707031 2.492188 10.984375 2.035156 10.0625 L 1.785156 9.261719 C 2.160156 9.179688 2.574219 9.140625 2.949219 9.179688 C 3.15625 9.179688 3.40625 9.179688 3.570312 9.339844 C 3.738281 9.5 3.902344 9.742188 4.027344 10.023438 C 4.152344 10.222656 4.316406 10.34375 4.609375 10.382812 L 5.648438 10.382812 L 8.46875 9.902344 C 8.59375 9.863281 8.636719 9.902344 8.679688 9.980469 L 8.84375 10.140625 L 8.84375 10.34375 C 8.84375 10.421875 8.96875 10.503906 9.050781 10.503906 C 9.175781 10.464844 9.21875 10.421875 9.21875 10.304688 L 9.175781 9.78125 C 9.136719 9.582031 9.050781 9.339844 8.804688 9.300781 L 8.554688 9.339844 L 8.054688 9.460938 L 6.5625 9.742188 C 6.105469 9.863281 5.648438 9.902344 5.191406 9.941406 C 4.859375 9.941406 4.527344 9.863281 4.359375 9.582031 C 4.195312 9.300781 4.109375 8.941406 4.109375 8.578125 C 4.070312 8.339844 4.070312 7.816406 3.695312 7.859375 L 3.445312 7.898438 L 1.828125 8.578125 L 1.828125 8.539062 L 1.867188 8.539062 L 1.910156 8.5 L 1.867188 8.457031 L 1.910156 8.417969 L 1.910156 8.339844 L 1.953125 8.296875 L 1.953125 8.257812 L 1.992188 8.21875 L 1.992188 8.179688 L 2.035156 8.136719 L 2.035156 8.097656 L 2.074219 8.058594 L 2.074219 8.019531 L 2.117188 7.976562 L 2.117188 7.9375 C 2.160156 7.898438 2.199219 7.898438 2.160156 7.859375 L 2.160156 7.816406 L 2.199219 7.777344 L 2.242188 7.738281 L 2.242188 7.65625 L 2.285156 7.617188 L 2.285156 7.578125 L 2.367188 7.496094 L 2.410156 7.457031 L 2.410156 7.375 L 2.449219 7.335938 L 2.449219 7.296875 L 2.53125 7.257812 L 2.53125 7.175781 L 2.617188 7.136719 L 2.617188 7.054688 L 2.742188 6.976562 L 2.742188 6.894531 L 2.863281 6.816406 L 2.863281 6.773438 L 2.949219 6.695312 L 2.988281 6.695312 L 3.363281 6.855469 L 3.738281 6.933594 C 4.734375 7.136719 5.730469 6.613281 6.269531 5.851562 C 6.5625 5.492188 6.644531 5.132812 6.601562 4.691406 L 6.726562 4.648438 L 6.933594 4.648438 L 6.933594 4.609375 L 7.640625 4.609375 L 7.722656 4.570312 L 7.972656 4.570312 L 8.054688 4.53125 L 8.136719 4.53125 L 8.429688 4.410156 L 8.429688 4.371094 L 8.511719 4.328125 L 8.554688 4.289062 L 8.636719 4.210938 L 8.71875 4.210938 L 8.804688 4.089844 L 8.84375 4.089844 L 8.886719 4.050781 L 8.96875 4.050781 L 9.011719 4.007812 L 9.175781 3.96875 L 9.21875 3.929688 L 9.34375 3.929688 L 9.46875 3.886719 L 9.507812 3.886719 L 9.589844 3.847656 L 9.675781 3.847656 L 9.675781 3.808594 L 9.632812 3.808594 Z M 6.144531 7.175781 C 6.1875 7.375 6.351562 7.496094 6.5625 7.535156 C 7.015625 7.65625 7.472656 7.496094 7.847656 7.214844 C 8.222656 6.933594 8.511719 6.414062 8.136719 5.972656 L 7.804688 5.8125 C 7.308594 5.652344 6.769531 5.972656 6.4375 6.335938 L 6.226562 6.613281 C 6.105469 6.773438 6.0625 7.015625 6.144531 7.175781 Z M 6.144531 7.175781 "/>
<path style=" stroke:none;fill-rule:nonzero;fill:rgb(100%,99.215686%,92.156863%);fill-opacity:1;" d="M 6.519531 4.488281 L 6.601562 4.691406 C 6.644531 5.132812 6.5625 5.492188 6.269531 5.851562 L 6.394531 5.53125 L 6.394531 5.453125 L 6.476562 5.25 C 6.519531 5.210938 6.476562 5.132812 6.4375 5.089844 L 6.105469 5.089844 L 6.019531 5.132812 L 5.980469 5.132812 L 5.894531 5.171875 L 5.855469 5.171875 L 5.773438 5.210938 L 5.730469 5.210938 L 5.730469 5.25 L 5.6875 5.25 L 5.605469 5.292969 L 5.5625 5.292969 L 5.480469 5.332031 L 5.4375 5.332031 L 5.355469 5.371094 L 5.316406 5.371094 L 5.273438 5.410156 L 5.191406 5.410156 L 5.148438 5.453125 L 4.898438 5.53125 L 4.609375 5.691406 L 4.566406 5.734375 L 4.484375 5.8125 L 4.359375 5.933594 L 4.277344 5.933594 L 4.195312 6.054688 L 4.109375 6.054688 L 3.902344 6.292969 L 3.820312 6.292969 L 3.488281 6.613281 L 3.488281 6.773438 L 3.53125 6.816406 L 3.738281 6.933594 L 3.363281 6.855469 C 3.40625 6.816406 3.363281 6.773438 3.320312 6.734375 L 3.238281 6.65625 L 2.90625 6.375 L 2.90625 6.132812 L 2.863281 6.132812 L 2.949219 6.011719 L 3.445312 5.53125 C 3.945312 5.132812 4.484375 4.8125 5.066406 4.609375 L 5.316406 4.53125 L 5.398438 4.488281 L 5.4375 4.488281 L 5.480469 4.449219 L 5.855469 4.371094 L 6.1875 4.371094 L 6.351562 4.449219 Z M 6.519531 4.488281 "/>
<path style=" stroke:none;fill-rule:nonzero;fill:rgb(100%,100%,100%);fill-opacity:1;" d="M 6.269531 5.851562 C 5.730469 6.613281 4.734375 7.136719 3.738281 6.933594 L 3.53125 6.816406 L 3.488281 6.773438 L 3.488281 6.613281 L 3.820312 6.292969 L 3.902344 6.292969 L 4.109375 6.054688 L 4.195312 6.054688 L 4.277344 5.933594 L 4.359375 5.933594 L 4.484375 5.8125 L 4.566406 5.734375 L 4.609375 5.691406 L 4.898438 5.53125 L 5.148438 5.453125 L 5.191406 5.410156 L 5.273438 5.410156 L 5.316406 5.371094 L 5.355469 5.371094 L 5.4375 5.332031 L 5.480469 5.332031 L 5.5625 5.292969 L 5.605469 5.292969 L 5.6875 5.25 L 5.730469 5.25 L 5.730469 5.210938 L 5.773438 5.210938 L 5.855469 5.171875 L 5.894531 5.171875 L 5.980469 5.132812 L 6.019531 5.132812 L 6.105469 5.089844 L 6.4375 5.089844 C 6.476562 5.132812 6.519531 5.210938 6.476562 5.25 L 6.394531 5.453125 L 6.394531 5.53125 Z M 6.269531 5.851562 "/>
<path style=" stroke:none;fill-rule:nonzero;fill:rgb(94.901961%,52.941176%,45.098039%);fill-opacity:1;" d="M 10.960938 5.132812 L 11.585938 6.132812 C 11.792969 6.574219 11.875 7.054688 11.917969 7.578125 L 11.917969 8.019531 L 11.875 8.417969 C 11.792969 9.019531 11.625 9.621094 11.417969 10.183594 L 11.253906 10.542969 L 11.128906 10.542969 L 11.003906 10.664062 L 10.921875 10.664062 L 10.503906 10.902344 L 10.257812 11.066406 L 10.046875 11.183594 L 9.714844 11.386719 L 9.300781 11.546875 L 8.261719 11.945312 L 6.851562 12.226562 L 6.5625 12.265625 L 6.476562 12.265625 L 6.394531 12.308594 L 6.019531 12.308594 L 5.648438 12.347656 L 4.941406 12.347656 C 4.859375 12.386719 4.773438 12.347656 4.652344 12.265625 L 6.105469 12.148438 C 6.5625 12.066406 7.015625 11.90625 7.472656 11.664062 C 8.554688 11.105469 9.46875 10.382812 10.214844 9.5 L 10.835938 8.578125 C 11.085938 8.136719 11.167969 7.695312 11.167969 7.214844 L 11.167969 6.335938 C 11.167969 6.011719 11.085938 5.613281 10.960938 5.132812 Z M 10.960938 5.132812 "/>
<path style=" stroke:none;fill-rule:nonzero;fill:rgb(100%,100%,100%);fill-opacity:1;" d="M 12.25 9.582031 C 12.457031 9.863281 12.832031 9.980469 13.164062 10.023438 C 13.910156 10.0625 14.53125 9.820312 15.113281 9.339844 L 15.488281 8.898438 C 16.070312 7.9375 16.316406 6.816406 16.152344 5.691406 C 16.152344 5.652344 16.152344 5.613281 16.195312 5.652344 C 16.359375 5.894531 16.441406 6.171875 16.527344 6.453125 C 16.609375 6.976562 16.527344 7.457031 16.441406 7.976562 C 16.285156 8.652344 16.0625 9.308594 15.777344 9.941406 C 15.570312 10.304688 15.195312 10.582031 14.824219 10.824219 C 14.492188 11.023438 14.199219 11.105469 13.828125 11.023438 L 13.121094 10.824219 C 12.664062 10.625 12.25 10.101562 12.25 9.582031 Z M 6.144531 7.175781 C 6.0625 7.015625 6.105469 6.773438 6.226562 6.613281 L 6.4375 6.335938 C 6.769531 5.972656 7.308594 5.652344 7.804688 5.8125 L 8.136719 5.972656 C 8.511719 6.414062 8.222656 6.933594 7.847656 7.214844 C 7.472656 7.496094 7.015625 7.65625 6.5625 7.535156 C 6.351562 7.496094 6.1875 7.375 6.144531 7.175781 Z M 6.144531 7.175781 "/>
<path style=" stroke:none;fill-rule:nonzero;fill:rgb(100%,100%,100%);fill-opacity:1;" d="M 14.160156 8.378906 C 13.910156 8.660156 13.621094 8.738281 13.246094 8.699219 C 12.582031 8.578125 12.332031 7.816406 12.457031 7.214844 C 12.539062 6.816406 12.707031 6.414062 13.078125 6.171875 C 13.785156 5.652344 14.53125 6.214844 14.617188 6.933594 C 14.65625 7.496094 14.53125 7.976562 14.160156 8.378906 Z M 14.160156 8.378906 "/>
<path style=" stroke:none;fill-rule:nonzero;fill:rgb(100%,76.078431%,57.647059%);fill-opacity:1;" d="M 2.617188 6.335938 L 2.988281 6.695312 L 2.949219 6.695312 L 2.863281 6.773438 L 2.863281 6.816406 L 2.742188 6.894531 L 2.742188 6.976562 L 2.617188 7.054688 L 2.617188 7.136719 L 2.53125 7.175781 L 2.53125 7.257812 L 2.449219 7.296875 L 2.449219 7.335938 L 2.410156 7.375 L 2.410156 7.457031 L 2.367188 7.496094 L 2.285156 7.578125 L 2.285156 7.617188 L 2.242188 7.65625 L 2.242188 7.738281 L 2.199219 7.777344 L 2.160156 7.816406 L 2.160156 7.859375 C 2.199219 7.898438 2.160156 7.898438 2.117188 7.9375 L 2.117188 7.976562 L 2.074219 8.019531 L 2.074219 8.058594 L 2.035156 8.097656 L 2.035156 8.136719 L 1.992188 8.179688 L 1.992188 8.21875 L 1.953125 8.257812 L 1.953125 8.296875 L 1.910156 8.339844 L 1.910156 8.417969 L 1.867188 8.457031 L 1.910156 8.5 L 1.867188 8.539062 L 1.828125 8.539062 L 1.828125 8.578125 L 1.246094 8.738281 L 1.246094 8.578125 L 1.289062 8.539062 L 1.289062 8.5 L 1.328125 8.457031 L 1.371094 8.378906 L 1.371094 8.339844 C 1.328125 8.296875 1.371094 8.296875 1.410156 8.257812 L 1.410156 8.21875 L 1.453125 8.136719 L 1.453125 8.058594 L 1.496094 8.019531 C 1.453125 7.976562 1.496094 7.976562 1.535156 7.9375 L 1.535156 7.859375 L 1.578125 7.816406 C 1.535156 7.777344 1.578125 7.777344 1.621094 7.738281 L 1.621094 7.695312 L 1.660156 7.65625 L 1.660156 7.617188 L 1.703125 7.578125 L 1.703125 7.496094 L 1.742188 7.457031 L 1.828125 7.375 L 1.828125 7.335938 L 1.867188 7.296875 L 1.867188 7.214844 L 1.910156 7.175781 L 1.992188 7.097656 L 1.992188 7.015625 L 2.074219 6.976562 L 2.074219 6.894531 L 2.160156 6.855469 L 2.160156 6.773438 L 2.324219 6.65625 L 2.324219 6.574219 L 2.449219 6.453125 L 2.492188 6.414062 C 2.492188 6.375 2.53125 6.335938 2.617188 6.335938 Z M 2.617188 6.335938 "/>
<path style=" stroke:none;fill-rule:nonzero;fill:rgb(100%,100%,100%);fill-opacity:1;" d="M 18.683594 8.578125 C 18.5625 8.859375 18.351562 9.058594 18.144531 9.179688 C 17.8125 9.378906 17.480469 9.339844 17.191406 9.101562 C 16.984375 8.898438 16.859375 8.660156 16.816406 8.378906 C 16.773438 8.097656 16.816406 7.859375 16.941406 7.578125 C 17.066406 7.214844 17.355469 6.855469 17.773438 6.773438 C 18.394531 6.613281 18.808594 7.136719 18.851562 7.695312 C 18.894531 8.019531 18.808594 8.296875 18.683594 8.578125 Z M 18.683594 8.578125 "/>
<path style=" stroke:none;fill-rule:nonzero;fill:rgb(100%,100%,100%);fill-opacity:1;" d="M 19.929688 10.101562 C 19.597656 10.703125 19.226562 11.226562 18.519531 11.425781 C 18.3125 11.503906 18.105469 11.503906 17.894531 11.425781 C 17.480469 11.304688 16.984375 11.023438 16.816406 10.664062 L 16.652344 10.183594 L 16.652344 10.140625 C 16.941406 10.421875 17.273438 10.582031 17.648438 10.582031 C 18.476562 10.582031 19.140625 10.222656 19.597656 9.582031 C 19.972656 9.019531 20.136719 8.457031 20.261719 7.816406 L 20.261719 6.773438 L 20.304688 6.773438 L 20.386719 7.214844 L 20.386719 8.339844 C 20.304688 8.898438 20.179688 9.582031 19.929688 10.101562 Z M 19.929688 10.101562 "/>
<path style=" stroke:none;fill-rule:nonzero;fill:rgb(94.901961%,52.941176%,45.098039%);fill-opacity:1;" d="M 21.882812 7.65625 L 22.046875 7.859375 L 22.046875 7.9375 L 22.171875 8.019531 L 22.171875 8.097656 L 22.339844 8.21875 L 22.339844 8.296875 L 22.464844 8.378906 L 22.464844 8.457031 L 22.589844 8.539062 L 22.589844 8.621094 L 22.671875 8.660156 L 22.671875 8.738281 L 22.753906 8.78125 L 22.753906 8.859375 L 22.921875 8.980469 L 22.921875 9.058594 L 23.003906 9.140625 L 23.085938 9.140625 L 23.085938 9.21875 L 23.128906 9.21875 L 23.460938 9.5 L 23.542969 9.742188 L 23.542969 10.742188 C 23.542969 10.863281 23.5 11.023438 23.417969 11.105469 C 23.210938 11.34375 22.960938 11.144531 22.753906 11.023438 C 22.378906 10.863281 22.046875 11.066406 22.046875 11.425781 C 22.046875 11.625 22.296875 11.664062 22.378906 11.503906 L 22.464844 11.34375 L 22.546875 11.34375 L 22.921875 11.546875 C 22.628906 11.988281 22.257812 12.265625 21.800781 12.425781 L 21.632812 12.425781 C 21.425781 12.386719 21.382812 12.308594 21.300781 12.105469 L 21.257812 11.664062 C 21.175781 11.023438 20.96875 10.464844 20.59375 9.941406 L 20.46875 9.78125 L 20.429688 9.742188 C 20.554688 9.378906 20.679688 8.941406 20.71875 8.5 L 20.804688 8.058594 L 20.84375 7.859375 C 20.96875 7.65625 21.136719 7.457031 21.425781 7.496094 C 21.550781 7.496094 21.714844 7.535156 21.882812 7.65625 Z M 21.882812 7.65625 "/>
<path style=" stroke:none;fill-rule:nonzero;fill:rgb(67.843137%,39.607843%,37.647059%);fill-opacity:1;" d="M 11.917969 7.578125 L 11.957031 8.5 C 11.917969 9.140625 11.75 9.742188 11.542969 10.34375 L 11.378906 10.742188 C 11.167969 11.144531 10.878906 11.503906 10.589844 11.785156 L 10.421875 11.90625 C 10.046875 12.226562 9.589844 12.46875 9.136719 12.667969 L 9.46875 12.425781 L 9.632812 12.308594 L 9.800781 12.148438 C 10.339844 11.746094 10.878906 11.183594 11.253906 10.542969 L 11.417969 10.183594 C 11.625 9.621094 11.792969 9.019531 11.875 8.417969 L 11.917969 8.019531 Z M 11.917969 7.578125 "/>
<path style=" stroke:none;fill-rule:nonzero;fill:rgb(95.686275%,59.607843%,43.137255%);fill-opacity:1;" d="M 21.882812 7.65625 C 22.257812 7.777344 22.546875 7.9375 22.753906 8.21875 C 23.085938 8.578125 23.335938 8.980469 23.460938 9.5 L 23.128906 9.21875 L 23.085938 9.21875 L 23.085938 9.140625 L 23.003906 9.140625 L 22.921875 9.058594 L 22.921875 8.980469 L 22.753906 8.859375 L 22.753906 8.78125 L 22.671875 8.738281 L 22.671875 8.660156 L 22.589844 8.621094 L 22.589844 8.539062 L 22.464844 8.457031 L 22.464844 8.378906 L 22.339844 8.296875 L 22.339844 8.21875 L 22.171875 8.097656 L 22.171875 8.019531 L 22.046875 7.9375 L 22.046875 7.859375 Z M 21.882812 7.65625 "/>
<path style=" stroke:none;fill-rule:nonzero;fill:rgb(67.843137%,39.607843%,37.647059%);fill-opacity:1;" d="M 3.695312 8.78125 L 3.652344 8.621094 C 3.613281 8.539062 3.570312 8.457031 3.445312 8.457031 L 3.074219 8.539062 L 2.53125 8.660156 L 3.652344 8.21875 L 3.695312 8.21875 Z M 3.695312 8.78125 "/>
<path style=" stroke:none;fill-rule:nonzero;fill:rgb(50.588235%,33.72549%,30.980392%);fill-opacity:1;" d="M 13.246094 8.699219 C 13.621094 8.738281 13.910156 8.660156 14.160156 8.378906 L 14.242188 8.378906 L 14.367188 8.339844 L 14.449219 8.339844 L 14.53125 8.296875 L 14.90625 8.339844 L 14.90625 8.378906 L 14.988281 8.378906 L 15.074219 8.457031 L 15.195312 8.5 L 15.28125 8.621094 C 15.304688 8.621094 15.320312 8.636719 15.320312 8.660156 C 15.113281 9.019531 14.824219 9.261719 14.492188 9.460938 C 14.160156 9.660156 13.785156 9.78125 13.371094 9.78125 L 13.328125 9.742188 L 13.246094 9.660156 L 13.164062 9.542969 L 13.078125 9.300781 L 13.078125 9.019531 Z M 13.246094 8.699219 "/>
<path style=" stroke:none;fill-rule:nonzero;fill:rgb(94.901961%,52.941176%,45.098039%);fill-opacity:1;" d="M 3.695312 8.78125 L 3.777344 9.140625 C 3.820312 9.378906 3.945312 9.582031 4.070312 9.78125 C 4.359375 10.261719 4.859375 10.304688 5.398438 10.261719 L 6.4375 10.140625 L 8.59375 9.703125 C 8.71875 9.703125 8.761719 9.863281 8.804688 9.941406 L 8.84375 10.140625 L 8.679688 9.980469 C 8.636719 9.902344 8.59375 9.863281 8.46875 9.902344 L 5.648438 10.382812 L 4.609375 10.382812 C 4.316406 10.34375 4.152344 10.222656 4.027344 10.023438 C 3.902344 9.742188 3.738281 9.5 3.570312 9.339844 C 3.40625 9.179688 3.15625 9.179688 2.949219 9.179688 C 2.574219 9.140625 2.160156 9.179688 1.785156 9.261719 L 1.785156 8.980469 L 2.53125 8.660156 L 3.074219 8.539062 L 3.445312 8.457031 C 3.570312 8.457031 3.613281 8.539062 3.652344 8.621094 Z M 3.695312 8.78125 "/>
<path style=" stroke:none;fill-rule:nonzero;fill:rgb(50.588235%,33.72549%,30.980392%);fill-opacity:1;" d="M 18.683594 8.578125 L 18.933594 8.699219 L 19.140625 8.859375 L 19.226562 9.058594 L 19.226562 9.300781 L 19.183594 9.460938 L 19.140625 9.660156 L 19.058594 9.78125 C 18.769531 10.101562 18.351562 10.261719 17.855469 10.304688 C 17.4375 10.34375 17.105469 10.261719 16.816406 9.980469 L 16.816406 9.941406 L 16.898438 9.621094 C 16.941406 9.421875 17.066406 9.261719 17.191406 9.101562 C 17.480469 9.339844 17.8125 9.378906 18.144531 9.179688 C 18.351562 9.058594 18.5625 8.859375 18.683594 8.578125 Z M 18.683594 8.578125 "/>
<path style=" stroke:none;fill-rule:nonzero;fill:rgb(67.843137%,39.607843%,37.647059%);fill-opacity:1;" d="M 8.804688 9.941406 C 8.761719 9.863281 8.71875 9.703125 8.59375 9.703125 L 8.71875 9.660156 L 8.761719 9.703125 Z M 8.804688 9.941406 "/>
<path style=" stroke:none;fill-rule:nonzero;fill:rgb(100%,73.72549%,61.176471%);fill-opacity:1;" d="M 18.5625 11.785156 C 18.601562 12.226562 18.933594 12.507812 19.308594 12.667969 C 19.597656 12.789062 19.890625 12.828125 20.179688 12.867188 C 20.429688 12.910156 20.679688 12.867188 20.886719 12.75 C 20.804688 13.546875 20.503906 14.308594 20.015625 14.953125 L 19.226562 15.753906 C 18.683594 16.183594 18.0625 16.507812 17.398438 16.71875 L 16.402344 16.917969 C 15.738281 16.957031 15.074219 16.957031 14.449219 16.835938 C 13.789062 16.722656 13.136719 16.5625 12.5 16.355469 L 12.082031 15.875 L 11.625 15.394531 C 11.460938 15.234375 11.292969 15.113281 11.085938 15.035156 C 10.710938 14.914062 10.296875 14.59375 10.007812 14.3125 L 9.800781 14.113281 C 9.589844 13.992188 9.382812 13.789062 9.21875 13.589844 C 9.136719 13.46875 9.09375 13.269531 9.136719 13.070312 L 9.175781 13.070312 C 9.675781 12.867188 10.132812 12.589844 10.546875 12.308594 L 10.671875 12.347656 C 10.835938 12.546875 11.128906 12.628906 11.417969 12.628906 C 11.792969 12.628906 12.207031 12.589844 12.582031 12.46875 C 13.078125 12.347656 13.410156 12.066406 13.621094 11.625 L 13.621094 11.464844 L 13.660156 11.34375 C 14.117188 11.464844 14.53125 11.386719 14.90625 11.183594 C 15.445312 10.902344 15.945312 10.464844 16.234375 9.902344 C 16.234375 9.863281 16.234375 9.863281 16.234375 9.902344 C 16.316406 10.542969 16.441406 11.066406 17.023438 11.425781 C 17.480469 11.746094 18.019531 11.945312 18.5625 11.785156 Z M 15.984375 11.828125 C 15.695312 11.707031 15.363281 11.585938 15.28125 11.304688 L 15.238281 11.265625 L 15.113281 11.34375 C 14.949219 11.546875 15.15625 11.746094 15.320312 11.828125 C 15.777344 12.066406 16.277344 12.148438 16.773438 12.027344 L 16.773438 11.988281 Z M 15.984375 11.828125 "/>
<path style=" stroke:none;fill-rule:nonzero;fill:rgb(94.901961%,52.941176%,45.098039%);fill-opacity:1;" d="M 20.886719 12.75 C 20.679688 12.867188 20.429688 12.910156 20.179688 12.867188 C 19.890625 12.828125 19.597656 12.789062 19.308594 12.667969 C 18.933594 12.507812 18.601562 12.226562 18.5625 11.785156 C 19.433594 11.546875 19.929688 10.945312 20.261719 10.183594 L 20.304688 10.183594 C 20.679688 10.945312 20.84375 11.707031 20.886719 12.546875 Z M 13.660156 11.34375 L 13.621094 11.464844 L 13.621094 11.625 C 13.410156 12.066406 13.078125 12.347656 12.582031 12.46875 C 12.207031 12.589844 11.792969 12.628906 11.417969 12.628906 C 11.128906 12.628906 10.835938 12.546875 10.671875 12.347656 L 10.546875 12.308594 C 11.003906 11.945312 11.378906 11.585938 11.667969 11.105469 L 12.082031 10.34375 L 12.125 10.34375 C 12.414062 10.945312 12.953125 11.226562 13.660156 11.34375 Z M 13.660156 11.34375 "/>
<path style=" stroke:none;fill-rule:nonzero;fill:rgb(96.470588%,47.45098%,32.941176%);fill-opacity:1;" d="M 11.253906 10.542969 C 10.878906 11.183594 10.339844 11.746094 9.800781 12.148438 L 9.632812 12.308594 L 9.46875 12.425781 L 9.136719 12.667969 C 8.183594 13.085938 7.105469 13.160156 6.105469 12.867188 C 5.523438 12.75 4.941406 12.589844 4.316406 12.308594 L 4.652344 12.265625 C 4.773438 12.347656 4.859375 12.386719 4.941406 12.347656 L 5.648438 12.347656 L 6.019531 12.308594 L 6.394531 12.308594 L 6.476562 12.265625 L 6.5625 12.265625 L 6.851562 12.226562 L 8.261719 11.945312 L 9.300781 11.546875 L 9.714844 11.386719 L 10.046875 11.183594 L 10.257812 11.066406 L 10.503906 10.902344 L 10.921875 10.664062 L 11.003906 10.664062 L 11.128906 10.542969 Z M 11.253906 10.542969 "/>
<path style=" stroke:none;fill-rule:nonzero;fill:rgb(33.72549%,26.27451%,25.490196%);fill-opacity:1;" d="M 15.984375 11.828125 L 16.773438 11.988281 L 16.773438 12.027344 C 16.277344 12.148438 15.777344 12.066406 15.320312 11.828125 C 15.15625 11.746094 14.949219 11.546875 15.113281 11.34375 L 15.238281 11.265625 L 15.28125 11.304688 C 15.363281 11.585938 15.695312 11.707031 15.984375 11.828125 Z M 15.984375 11.828125 "/>
<path style=" stroke:none;fill-rule:nonzero;fill:rgb(67.843137%,39.607843%,37.647059%);fill-opacity:1;" d="M 22.921875 11.546875 L 22.960938 11.546875 L 22.960938 11.585938 C 22.835938 11.785156 22.753906 12.066406 22.589844 12.226562 C 22.421875 12.46875 22.132812 12.628906 21.839844 12.75 C 21.632812 12.867188 21.46875 12.910156 21.300781 12.949219 L 21.300781 12.105469 C 21.382812 12.308594 21.425781 12.386719 21.632812 12.425781 L 21.800781 12.425781 C 22.257812 12.265625 22.628906 11.988281 22.921875 11.546875 Z M 22.921875 11.546875 "/>
<path style=" stroke:none;fill-rule:nonzero;fill:rgb(94.901961%,52.941176%,45.098039%);fill-opacity:1;" d="M 8.46875 13.550781 L 8.222656 13.789062 L 7.433594 14.191406 L 6.351562 14.632812 L 6.269531 14.632812 L 6.269531 14.59375 C 6.3125 14.472656 6.351562 14.351562 6.476562 14.230469 C 6.933594 13.710938 7.765625 13.390625 8.46875 13.550781 Z M 8.46875 13.550781 "/>
<path style=" stroke:none;fill-rule:nonzero;fill:rgb(67.843137%,39.607843%,37.647059%);fill-opacity:1;" d="M 8.46875 13.550781 C 8.59375 13.589844 8.925781 13.710938 8.925781 13.871094 L 8.886719 13.910156 C 8.261719 13.871094 7.765625 14.03125 7.308594 14.390625 L 7.140625 14.472656 L 6.644531 14.632812 L 6.351562 14.632812 L 7.433594 14.191406 L 8.222656 13.789062 Z M 8.46875 13.550781 "/>
<path style=" stroke:none;fill-rule:nonzero;fill:rgb(94.901961%,52.941176%,45.098039%);fill-opacity:1;" d="M 9.300781 14.3125 C 9.257812 14.550781 9.136719 14.753906 8.925781 14.875 L 8.347656 15.273438 L 8.097656 15.394531 L 8.097656 15.273438 L 8.054688 15.234375 L 8.015625 15.234375 L 7.972656 15.195312 L 7.929688 15.195312 L 7.890625 15.152344 L 7.847656 15.152344 L 7.804688 15.113281 L 7.765625 15.113281 C 7.722656 15.074219 7.722656 15.035156 7.683594 15.074219 L 7.640625 15.035156 L 7.597656 15.035156 L 7.558594 14.992188 L 7.433594 14.992188 L 7.347656 14.953125 L 7.308594 14.953125 L 7.308594 14.914062 L 7.472656 14.710938 L 7.597656 14.59375 C 7.804688 14.472656 8.015625 14.351562 8.261719 14.3125 C 8.636719 14.230469 8.96875 14.230469 9.300781 14.3125 Z M 9.300781 14.3125 "/>
<path style=" stroke:none;fill-rule:nonzero;fill:rgb(67.843137%,39.607843%,37.647059%);fill-opacity:1;" d="M 9.300781 14.3125 C 9.632812 14.390625 9.839844 14.550781 9.925781 14.832031 L 9.925781 14.875 C 9.34375 14.914062 8.84375 15.113281 8.429688 15.472656 L 8.386719 15.472656 C 8.015625 15.515625 7.683594 15.632812 7.347656 15.753906 C 7.140625 15.796875 6.976562 15.835938 6.851562 15.796875 L 7.722656 15.554688 L 8.097656 15.394531 L 8.347656 15.273438 L 8.925781 14.875 C 9.136719 14.753906 9.257812 14.550781 9.300781 14.3125 Z M 9.300781 14.3125 "/>
<path style=" stroke:none;fill-rule:nonzero;fill:rgb(96.470588%,47.45098%,32.941176%);fill-opacity:1;" d="M 20.886719 14.992188 L 20.84375 14.59375 C 20.804688 14.59375 20.804688 14.59375 20.84375 14.59375 C 20.84375 14.550781 20.84375 14.550781 20.84375 14.59375 C 21.21875 14.710938 21.46875 14.953125 21.675781 15.234375 C 21.757812 15.355469 21.839844 15.433594 21.839844 15.554688 L 21.839844 15.59375 L 21.425781 15.433594 L 21.21875 15.273438 Z M 20.886719 14.992188 "/>
<path style=" stroke:none;fill-rule:nonzero;fill:rgb(67.843137%,39.607843%,37.647059%);fill-opacity:1;" d="M 20.84375 14.59375 L 20.886719 14.992188 L 20.71875 14.875 L 20.679688 14.875 Z M 20.84375 14.59375 "/>
<path style=" stroke:none;fill-rule:nonzero;fill:rgb(95.686275%,59.607843%,43.137255%);fill-opacity:1;" d="M 7.308594 14.914062 L 7.308594 14.953125 L 7.347656 14.953125 L 7.433594 14.992188 L 7.558594 14.992188 L 7.597656 15.035156 L 7.640625 15.035156 L 7.683594 15.074219 C 7.722656 15.035156 7.722656 15.074219 7.765625 15.113281 L 7.804688 15.113281 L 7.847656 15.152344 L 7.890625 15.152344 L 7.929688 15.195312 L 7.972656 15.195312 L 8.015625 15.234375 L 8.054688 15.234375 L 8.097656 15.273438 L 8.097656 15.394531 L 7.722656 15.554688 L 6.851562 15.796875 C 6.894531 15.59375 6.933594 15.394531 7.015625 15.273438 Z M 7.308594 14.914062 "/>
<path style=" stroke:none;fill-rule:nonzero;fill:rgb(96.470588%,47.45098%,32.941176%);fill-opacity:1;" d="M 21.050781 15.59375 L 20.96875 15.675781 L 20.96875 15.714844 L 20.925781 15.714844 L 20.761719 15.835938 L 20.71875 15.835938 L 20.679688 15.875 L 20.636719 15.914062 L 20.46875 15.996094 L 20.386719 15.957031 L 20.222656 15.59375 L 20.511719 15.234375 L 20.554688 15.234375 C 20.761719 15.3125 20.925781 15.433594 21.050781 15.59375 Z M 21.050781 15.59375 "/>
<path style=" stroke:none;fill-rule:nonzero;fill:rgb(94.901961%,52.941176%,45.098039%);fill-opacity:1;" d="M 11.085938 15.515625 L 11.167969 15.753906 L 11.167969 15.914062 C 11.085938 16.15625 10.921875 16.355469 10.710938 16.515625 L 10.132812 16.917969 L 9.257812 15.996094 L 9.175781 15.996094 L 9.011719 15.796875 L 8.925781 15.796875 L 8.761719 15.675781 C 9.136719 15.394531 9.507812 15.273438 9.925781 15.234375 L 10.753906 15.3125 Z M 11.085938 15.515625 "/>
<path style=" stroke:none;fill-rule:nonzero;fill:rgb(67.843137%,39.607843%,37.647059%);fill-opacity:1;" d="M 11.085938 15.515625 C 11.292969 15.632812 11.417969 15.796875 11.542969 15.996094 C 11.667969 16.195312 11.667969 16.394531 11.542969 16.597656 C 11.460938 16.757812 11.292969 16.878906 11.085938 16.917969 L 10.378906 17.117188 L 9.632812 17.238281 L 8.804688 17.4375 C 9.257812 17.320312 9.675781 17.117188 10.132812 16.917969 L 10.710938 16.515625 C 10.921875 16.355469 11.085938 16.15625 11.167969 15.914062 L 11.167969 15.753906 Z M 20.222656 15.59375 L 20.386719 15.957031 L 19.972656 15.796875 L 19.972656 15.753906 Z M 20.222656 15.59375 "/>
<path style=" stroke:none;fill-rule:nonzero;fill:rgb(95.686275%,59.607843%,43.137255%);fill-opacity:1;" d="M 21.050781 15.59375 C 21.257812 15.835938 21.382812 16.117188 21.507812 16.394531 L 21.550781 16.636719 L 21.507812 16.636719 L 21.136719 16.355469 L 20.886719 16.234375 C 20.761719 16.117188 20.636719 16.035156 20.46875 15.996094 L 20.636719 15.914062 L 20.679688 15.875 L 20.71875 15.835938 L 20.761719 15.835938 L 20.925781 15.714844 L 20.96875 15.714844 L 20.96875 15.675781 Z M 8.761719 15.675781 L 8.925781 15.796875 L 9.011719 15.796875 L 9.175781 15.996094 L 9.257812 15.996094 L 10.132812 16.917969 C 9.675781 17.117188 9.257812 17.320312 8.804688 17.4375 L 7.972656 17.597656 L 7.765625 17.597656 L 7.683594 17.558594 C 7.640625 17.277344 7.683594 17.039062 7.804688 16.796875 C 8.015625 16.355469 8.304688 15.996094 8.761719 15.675781 Z M 8.761719 15.675781 "/>
<path style=" stroke:none;fill-rule:nonzero;fill:rgb(96.470588%,47.45098%,32.941176%);fill-opacity:1;" d="M 20.261719 16.316406 L 19.640625 16.917969 L 19.347656 16.597656 L 19.308594 16.355469 C 19.558594 16.234375 19.972656 16.277344 20.261719 16.316406 Z M 20.261719 16.316406 "/>
<path style=" stroke:none;fill-rule:nonzero;fill:rgb(95.686275%,59.607843%,43.137255%);fill-opacity:1;" d="M 20.261719 16.316406 C 20.304688 16.277344 20.386719 16.316406 20.511719 16.355469 C 20.96875 16.515625 21.257812 16.835938 21.300781 17.359375 L 21.257812 17.480469 L 21.136719 17.480469 L 19.972656 17.117188 L 19.640625 16.917969 Z M 20.261719 16.316406 "/>
<path style=" stroke:none;fill-rule:nonzero;fill:rgb(67.843137%,39.607843%,37.647059%);fill-opacity:1;" d="M 19.308594 16.355469 L 19.347656 16.597656 L 19.640625 16.917969 L 19.972656 17.117188 L 19.058594 16.878906 L 18.894531 16.796875 C 18.875 16.78125 18.863281 16.761719 18.863281 16.738281 C 18.863281 16.714844 18.875 16.691406 18.894531 16.675781 Z M 19.308594 16.355469 "/>
</g>
</svg>
