<svg width="25" height="24" viewBox="0 0 25 24" fill="none" xmlns="http://www.w3.org/2000/svg">
<path fill-rule="evenodd" clip-rule="evenodd" d="M12.5805 2.13594C12.5282 2.05142 12.4358 2 12.3364 2C12.237 2 12.1447 2.05142 12.0924 2.13594L11.5662 2.98558C11.4884 2.99217 11.4108 2.99976 11.3336 3.00833L10.6514 2.2786C10.5836 2.20603 10.483 2.17368 10.3856 2.19309C10.2882 2.2125 10.2077 2.28089 10.1729 2.37392L9.82265 3.30862C9.74783 3.33031 9.67341 3.35294 9.59939 3.3765L8.78724 2.79273C8.70654 2.73472 8.60157 2.72258 8.50976 2.76063C8.41795 2.79869 8.35235 2.88152 8.33635 2.97961L8.17491 3.969C8.10653 4.0046 8.03867 4.04104 7.97132 4.07831L7.05836 3.66222C6.96785 3.62097 6.86244 3.6295 6.77975 3.68478C6.69706 3.74006 6.64888 3.8342 6.6524 3.9336L6.688 4.939C6.6292 4.98614 6.571 5.034 6.51342 5.08256L5.53336 4.85167C5.43656 4.82886 5.33485 4.85778 5.26453 4.9281C5.19421 4.99843 5.16529 5.10013 5.18809 5.19693L5.419 6.17703C5.37045 6.2346 5.32261 6.29279 5.27548 6.35157L4.27003 6.31597C4.17063 6.31245 4.07649 6.36063 4.02121 6.44332C3.96593 6.52601 3.95739 6.63142 3.99864 6.72193L4.41479 7.635C4.37754 7.7023 4.34112 7.77013 4.30555 7.83846L3.31603 7.99992C3.21794 8.01592 3.13511 8.08152 3.09706 8.17334C3.05901 8.26515 3.07115 8.37011 3.12915 8.45081L3.713 9.26307C3.68945 9.33703 3.66684 9.41141 3.64516 9.48618L2.71034 9.83643C2.61732 9.87129 2.54892 9.95176 2.52952 10.0492C2.51011 10.1466 2.54245 10.2471 2.61502 10.315L3.34483 10.9972C3.33626 11.0744 3.32867 11.1519 3.32208 11.2297L2.47236 11.7559C2.38785 11.8083 2.33643 11.9006 2.33643 12C2.33643 12.0994 2.38785 12.1917 2.47236 12.2441L3.3221 12.7703C3.3287 12.8481 3.33629 12.9256 3.34486 13.0028L2.61502 13.685C2.54245 13.7529 2.51011 13.8534 2.52952 13.9508C2.54892 14.0482 2.61732 14.1287 2.71034 14.1636L3.64535 14.5139C3.66701 14.5886 3.68961 14.6629 3.71314 14.7367L3.12915 15.5492C3.07115 15.6299 3.05901 15.7349 3.09706 15.8267C3.13511 15.9185 3.21794 15.9841 3.31603 16.0001L4.30601 16.1616C4.3415 16.2298 4.37783 16.2974 4.41499 16.3646L3.99864 17.2781C3.95739 17.3686 3.96593 17.474 4.02121 17.5567C4.07649 17.6394 4.17063 17.6875 4.27003 17.684L5.27615 17.6484C5.32311 17.707 5.37078 17.7649 5.41915 17.8223L5.18809 18.8031C5.16529 18.8999 5.19421 19.0016 5.26453 19.0719C5.33485 19.1422 5.43656 19.1711 5.53336 19.1483L6.51412 18.9173C6.57149 18.9656 6.62946 19.0133 6.68802 19.0603L6.6524 20.0664C6.64888 20.1658 6.69706 20.2599 6.77975 20.3152C6.86244 20.3705 6.96785 20.379 7.05836 20.3378L7.97189 19.9214C8.03901 19.9586 8.10666 19.9949 8.17481 20.0304L8.33635 21.0204C8.35235 21.1185 8.41795 21.2013 8.50976 21.2394C8.60157 21.2774 8.70654 21.2653 8.78724 21.2073L9.59971 20.6233C9.67358 20.6468 9.74785 20.6694 9.82253 20.691L10.1729 21.6261C10.2077 21.7191 10.2882 21.7875 10.3856 21.8069C10.483 21.8263 10.5836 21.794 10.6514 21.7214L11.3337 20.9915C11.4109 21.0001 11.4884 21.0077 11.5661 21.0143L12.0924 21.8641C12.1447 21.9486 12.237 22 12.3364 22C12.4358 22 12.5282 21.9486 12.5805 21.8641L13.1067 21.0143C13.1845 21.0077 13.262 21.0001 13.3392 20.9915L14.0214 21.7214C14.0893 21.794 14.1898 21.8263 14.2872 21.8069C14.3847 21.7875 14.4651 21.7191 14.5 21.6261L14.8503 20.6911C14.925 20.6694 14.9993 20.6468 15.0732 20.6233L15.8856 21.2073C15.9663 21.2653 16.0713 21.2774 16.1631 21.2394C16.2549 21.2013 16.3205 21.1185 16.3365 21.0204L16.498 20.0304C16.5662 19.9949 16.6339 19.9586 16.701 19.9214L17.6145 20.3378C17.705 20.379 17.8104 20.3705 17.8931 20.3152C17.9758 20.2599 18.024 20.1658 18.0205 20.0664L17.9848 19.0603C18.0434 19.0133 18.1014 18.9657 18.1588 18.9173L19.1395 19.1483C19.2363 19.1711 19.338 19.1422 19.4083 19.0719C19.4786 19.0016 19.5076 18.8999 19.4848 18.8031L19.2537 17.8223C19.3021 17.765 19.3498 17.707 19.3967 17.6484L20.4028 17.684C20.5022 17.6875 20.5964 17.6394 20.6516 17.5567C20.7069 17.474 20.7155 17.3686 20.6742 17.2781L20.2579 16.3646C20.295 16.2974 20.3314 16.2298 20.3669 16.1616L21.3568 16.0001C21.4549 15.9841 21.5377 15.9185 21.5758 15.8267C21.6138 15.7349 21.6017 15.6299 21.5437 15.5492L20.9597 14.7368C20.9833 14.6629 21.0059 14.5886 21.0275 14.5139L21.9625 14.1636C22.0555 14.1287 22.1239 14.0482 22.1433 13.9508C22.1627 13.8534 22.1304 13.7529 22.0578 13.685L21.328 13.0028C21.3366 12.9256 21.3442 12.8481 21.3508 12.7702L22.2005 12.2441C22.285 12.1917 22.3364 12.0994 22.3364 12C22.3364 11.9006 22.285 11.8083 22.2005 11.7559L21.3508 11.2298C21.3442 11.1519 21.3366 11.0744 21.328 10.9972L22.0578 10.315C22.1304 10.2471 22.1627 10.1466 22.1433 10.0492C22.1239 9.95176 22.0555 9.87129 21.9625 9.83643L21.0276 9.48614C21.0059 9.41142 20.9833 9.3371 20.9598 9.26319L21.5437 8.45081C21.6017 8.37011 21.6138 8.26515 21.5758 8.17334C21.5377 8.08152 21.4549 8.01592 21.3568 7.99992L20.3669 7.83841C20.3314 7.77021 20.2951 7.70252 20.2579 7.63535L20.6742 6.72193C20.7155 6.63142 20.7069 6.52601 20.6516 6.44332C20.5964 6.36063 20.5022 6.31245 20.4028 6.31597L19.3968 6.35159C19.3498 6.29299 19.3021 6.23498 19.2537 6.17758L19.4848 5.19693C19.5076 5.10013 19.4786 4.99843 19.4083 4.9281C19.338 4.85778 19.2363 4.82886 19.1395 4.85167L18.1589 5.0827C18.1014 5.03429 18.0434 4.98659 17.9848 4.9396L18.0205 3.9336C18.024 3.8342 17.9758 3.74006 17.8931 3.68478C17.8104 3.6295 17.705 3.62097 17.6145 3.66222L16.7011 4.07851C16.6339 4.04133 16.5662 4.00497 16.498 3.96946L16.3365 2.97961C16.3205 2.88152 16.2549 2.79868 16.1631 2.76063C16.0713 2.72258 15.9663 2.73472 15.8856 2.79273L15.0733 3.37665C14.9993 3.35311 14.925 3.3305 14.8503 3.30883L14.5 2.37392C14.4651 2.28089 14.3847 2.2125 14.2872 2.19309C14.1898 2.17368 14.0893 2.20603 14.0214 2.2786L13.3393 3.00836C13.262 2.99979 13.1845 2.9922 13.1067 2.9856L12.5805 2.13594ZM12.323 3.75689C12.4777 3.76089 12.6247 3.82537 12.7327 3.93656C12.8407 4.04775 12.9011 4.19687 12.901 4.3521C12.901 4.50996 12.8383 4.66136 12.7267 4.77298C12.6151 4.88461 12.4637 4.94732 12.3058 4.94732C12.148 4.94732 11.9966 4.88461 11.8849 4.77298C11.7733 4.66136 11.7106 4.50996 11.7106 4.3521C11.7106 4.27247 11.7265 4.19363 11.7575 4.12027C11.7885 4.04691 11.8339 3.98052 11.891 3.92501C11.9481 3.86951 12.0158 3.82603 12.09 3.79715C12.1642 3.76828 12.2434 3.75458 12.323 3.75689ZM13.6857 4.73679C14.7306 4.93251 15.7204 5.35333 16.5863 5.97005C17.4522 6.58676 18.1735 7.38458 18.7001 8.30808L17.9977 9.89277C17.8771 10.1665 18.0015 10.488 18.2733 10.6105L19.6245 11.2095C19.6664 11.6319 19.6715 12.0571 19.6398 12.4803H18.8876C18.813 12.4803 18.7824 12.5301 18.7824 12.6028V12.9473C18.7824 13.7588 18.325 13.9368 17.923 13.9808C17.5403 14.0248 17.1173 13.82 17.0637 13.5866C16.8432 12.3474 16.4803 12.061 15.9109 11.6116L15.8695 11.5789C16.6063 11.1119 17.3719 10.421 17.3719 9.49851C17.3719 8.50139 16.6886 7.87363 16.2235 7.5655C15.569 7.13488 14.8455 7.04875 14.6503 7.04875H6.87999C7.95444 5.84845 9.39464 5.03585 10.9776 4.73679L11.8943 5.69756C12.101 5.91383 12.4436 5.92339 12.6599 5.71478L13.6857 4.73679ZM5.2264 9.14253C5.38125 9.14702 5.52826 9.2117 5.63619 9.32284C5.74411 9.43399 5.80445 9.58283 5.80439 9.73775C5.80439 9.89561 5.74168 10.047 5.63005 10.1586C5.51843 10.2703 5.36703 10.333 5.20917 10.333C5.05131 10.333 4.89992 10.2703 4.78829 10.1586C4.67667 10.047 4.61396 9.89561 4.61396 9.73775C4.61392 9.65811 4.62987 9.57928 4.66086 9.50592C4.69184 9.43256 4.73723 9.36616 4.79434 9.31066C4.85145 9.25516 4.91911 9.21168 4.99333 9.1828C5.06754 9.15392 5.1468 9.14023 5.2264 9.14253ZM19.4178 9.16933C19.5726 9.17381 19.7196 9.23849 19.8276 9.34964C19.9355 9.46078 19.9958 9.60962 19.9958 9.76454C19.9958 9.9224 19.9331 10.0738 19.8214 10.1854C19.7098 10.297 19.5584 10.3598 19.4006 10.3598C19.2427 10.3598 19.0913 10.297 18.9797 10.1854C18.8681 10.0738 18.8053 9.9224 18.8053 9.76454C18.8053 9.68491 18.8213 9.60607 18.8522 9.53271C18.8832 9.45935 18.9286 9.39296 18.9857 9.33745C19.0428 9.28195 19.1105 9.23847 19.1847 9.20959C19.2589 9.18072 19.3382 9.16702 19.4178 9.16933ZM6.34793 9.26502H7.38525V13.9425H5.29147C5.03288 13.0345 4.9523 12.085 5.05415 11.1464L6.33645 10.576C6.61013 10.4535 6.73453 10.1339 6.61204 9.86024L6.34793 9.26502ZM10.6771 9.31478H13.1479C13.2762 9.31478 14.0494 9.46215 14.0494 10.0421C14.0494 10.5224 13.4561 10.6947 12.968 10.6947H10.6752L10.6771 9.31478ZM10.6771 12.6755H12.5699C12.7422 12.6755 13.4943 12.7253 13.7336 13.6861C13.7599 13.7901 13.7977 13.9772 13.8406 14.1892L13.8406 14.1892L13.8406 14.1892C13.9191 14.5778 14.0146 15.0504 14.0876 15.2497C14.2006 15.5942 14.658 16.2832 15.146 16.2832H18.235C18.028 16.5604 17.8016 16.8227 17.5575 17.0679L16.3001 16.798C16.0073 16.7349 15.7183 16.9224 15.6551 17.2153L15.3565 18.6086C14.3965 19.0435 13.3538 19.2661 12.2998 19.2611C11.2458 19.2562 10.2053 19.0238 9.24936 18.5799L8.9508 17.1866C8.88764 16.8937 8.60056 16.7062 8.30774 16.7693L7.07712 17.0334C6.84875 16.7979 6.63647 16.5472 6.44171 16.2832H12.4264C12.4934 16.2832 12.5393 16.2717 12.5393 16.2086V14.0918C12.5393 14.0306 12.4934 14.0172 12.4264 14.0172H10.6752L10.6771 12.6755ZM7.91539 17.5234C8.07025 17.5279 8.21726 17.5926 8.32518 17.7037C8.43311 17.8148 8.49345 17.9637 8.49338 18.1186C8.49338 18.2765 8.43067 18.4279 8.31905 18.5395C8.20742 18.6511 8.05603 18.7138 7.89817 18.7138C7.74031 18.7138 7.58891 18.6511 7.47729 18.5395C7.36566 18.4279 7.30295 18.2765 7.30295 18.1186C7.30292 18.039 7.31887 17.9601 7.34985 17.8868C7.38083 17.8134 7.42622 17.747 7.48333 17.6915C7.54044 17.636 7.60811 17.5925 7.68232 17.5637C7.75654 17.5348 7.83579 17.5211 7.91539 17.5234ZM16.7288 17.5502C16.8836 17.5547 17.0307 17.6194 17.1386 17.7305C17.2465 17.8416 17.3068 17.9905 17.3068 18.1454C17.3068 18.3033 17.2441 18.4547 17.1324 18.5663C17.0208 18.6779 16.8694 18.7406 16.7116 18.7406C16.5537 18.7406 16.4023 18.6779 16.2907 18.5663C16.1791 18.4547 16.1164 18.3033 16.1164 18.1454C16.1163 18.0658 16.1323 17.9869 16.1632 17.9136C16.1942 17.8402 16.2396 17.7738 16.2967 17.7183C16.3538 17.6628 16.4215 17.6193 16.4957 17.5905C16.5699 17.5616 16.6492 17.5479 16.7288 17.5502Z" fill="#EA580C"/>
</svg>
