<svg width="24" height="24" viewBox="0 0 24 24" fill="none" xmlns="http://www.w3.org/2000/svg">
<path d="M7.12897 6.36649C7.12897 8.5239 8.48505 9.80758 11.1999 10.4845L14.0768 11.1398C16.6462 11.7196 18.2109 13.1596 18.2109 15.5059C18.2309 16.528 17.8926 17.5258 17.2529 18.3321C17.2529 15.9913 16.0203 14.7265 13.0474 13.966L10.2227 13.335C7.96073 12.8279 6.21486 11.6441 6.21486 9.09563C6.20296 8.11148 6.52454 7.15139 7.12897 6.36649Z" fill="#EF4444"/>
<path d="M15.4851 14.9314C16.7121 15.7027 17.2501 16.7814 17.2501 18.3294C16.2345 19.6076 14.4501 20.325 12.3529 20.325C8.82271 20.325 6.35212 18.6179 5.8031 15.6515H9.19329C9.62976 17.0134 10.7854 17.6444 12.3282 17.6444C14.2113 17.6444 15.4631 16.6573 15.4878 14.926" fill="#F87171"/>
<path d="M8.89125 9.56486C8.33093 9.23771 7.87123 8.76763 7.56093 8.20451C7.25065 7.64139 7.10135 7.00624 7.1289 6.36648C8.10889 5.09899 9.8136 4.32501 11.8916 4.32501C15.4877 4.32501 17.5685 6.19118 18.0818 8.81785H14.8206C14.4611 7.78228 13.5606 6.97595 11.9191 6.97595C10.165 6.97595 8.96811 7.97914 8.89948 9.56486" fill="#F87171"/>
</svg>
