<svg width="24" height="24" viewBox="0 0 24 24" fill="none" xmlns="http://www.w3.org/2000/svg">
<path d="M21.4395 14.9607L20.695 13.6648L17.0941 15.8587L21.0936 10.7649L21.6983 10.4099L21.5487 10.1851L21.8234 9.83395L20.5613 8.78309L19.9837 9.51946L8.32369 16.3437L12.6347 11.1576L20.6644 6.75464L19.9015 5.2794L15.5279 7.67668L17.6816 5.08743L16.4478 3.99994L11.6008 9.83021L6.7869 12.4712L10.4725 7.5971L12.7819 6.3947L12.0484 4.90304L5.32005 8.40673L7.15487 5.97785L5.87321 4.95101L2 10.079L2.0601 10.127L2.78371 11.601L7.07759 9.36411L3.16392 14.5388L3.80535 15.0529L4.18679 15.7905L8.70754 13.3112L3.7293 19.3005L4.96316 20.388L5.21091 20.0899L17.2205 13.0383L13.2332 18.1183L13.2982 18.1726L13.2921 18.1764L14.1187 19.615L19.422 16.3829L17.3799 19.6795L18.7486 20.5775L22 15.3295L21.4395 14.9607Z" fill="#64748B"/>
</svg>
