<svg width="24" height="24" viewBox="0 0 24 24" fill="none" xmlns="http://www.w3.org/2000/svg">
<path d="M19.217 12.7599C18.5177 12.7639 17.9122 12.9348 17.4043 13.1892C17.2168 12.8116 17.0293 12.4816 16.998 12.2352C16.9629 11.949 16.9199 11.774 16.9629 11.4322C17.0058 11.0903 17.2012 10.6053 17.2012 10.5656C17.1973 10.5298 17.1582 10.3549 16.7558 10.3509C16.3534 10.3469 16.0057 10.4304 15.9667 10.5377C15.9276 10.6451 15.8495 10.8915 15.7987 11.1459C15.7284 11.5196 14.9939 12.8434 14.5759 13.5391C14.4392 13.2687 14.322 13.0302 14.2986 12.8394C14.2634 12.5532 14.2204 12.3783 14.2634 12.0364C14.3064 11.6945 14.5017 11.2095 14.5017 11.1698C14.4978 11.134 14.4587 10.9591 14.0564 10.9551C13.654 10.9512 13.3063 11.0346 13.2672 11.142C13.2282 11.2493 13.1852 11.5037 13.0992 11.7502C13.0172 11.9967 12.0406 14.2069 11.7866 14.7833C11.6577 15.0775 11.5444 15.312 11.4624 15.4711C11.3803 15.6301 11.4585 15.483 11.4507 15.4989C11.3803 15.634 11.3413 15.7096 11.3413 15.7096V15.7135C11.2866 15.8129 11.228 15.9083 11.2006 15.9083C11.1811 15.9083 11.142 15.642 11.2084 15.2763C11.353 14.509 11.7046 13.3125 11.7007 13.2687C11.7007 13.2489 11.7671 13.0382 11.4741 12.9308C11.1889 12.8235 11.0873 13.0024 11.0639 13.0024C11.0405 13.0024 11.0209 13.066 11.0209 13.066C11.0209 13.066 11.3374 11.7184 10.4154 11.7184C9.83723 11.7184 9.04029 12.3584 8.64572 12.9428C8.3957 13.0819 7.86441 13.3761 7.30186 13.6901C7.08699 13.8094 6.86432 13.9366 6.65336 14.0519L6.61039 14.0042C5.4931 12.7917 3.42652 11.9331 3.51246 10.3032C3.54372 9.71087 3.74686 8.14858 7.48156 6.25635C10.5404 4.70599 12.9899 5.13134 13.4157 6.07746C14.0212 7.42906 12.107 9.94143 8.927 10.3032C7.71595 10.4423 7.07918 9.96529 6.91901 9.7864C6.75103 9.59956 6.72759 9.59161 6.66508 9.62739C6.56351 9.68304 6.62602 9.85 6.66508 9.94938C6.75884 10.1998 7.1495 10.6451 7.81362 10.8677C8.3957 11.0625 9.8177 11.1698 11.5366 10.494C13.4626 9.73472 14.9666 7.62782 14.5251 5.86677C14.0759 4.07392 11.1538 3.48557 8.3918 4.48337C6.74712 5.07966 4.96571 6.00988 3.68435 7.23029C2.16078 8.67729 1.91857 9.94143 2.02014 10.4662C2.37564 12.3385 4.91102 13.5589 5.92674 14.4613C5.87595 14.4892 5.82907 14.517 5.7861 14.5408C5.27824 14.7953 3.34448 15.8249 2.86006 16.9141C2.31314 18.1464 2.94601 19.0329 3.36792 19.1522C4.67272 19.5219 6.00877 18.858 6.73149 17.7648C7.45031 16.6716 7.36436 15.2524 7.0323 14.6044L7.02058 14.5806L7.41905 14.3421C7.67689 14.187 7.93082 14.0439 8.15349 13.9207C8.02848 14.2665 7.93863 14.676 7.89175 15.2723C7.83706 15.9719 8.11833 16.8783 8.48946 17.2361C8.65354 17.3911 8.84887 17.3951 8.96997 17.3951C9.3997 17.3951 9.59503 17.0333 9.80989 16.6C10.0755 16.0713 10.3099 15.4591 10.3099 15.4591C10.3099 15.4591 10.0169 17.1168 10.8178 17.1168C11.1108 17.1168 11.4038 16.7312 11.5366 16.5325V16.5364C11.5366 16.5364 11.5444 16.5245 11.56 16.4967C11.5913 16.449 11.6069 16.4211 11.6069 16.4211V16.4132C11.7241 16.2065 11.9859 15.7334 12.3765 14.9503C12.8805 13.9406 13.3649 12.6764 13.3649 12.6764C13.3649 12.6764 13.4118 12.9865 13.5563 13.4953C13.6423 13.7975 13.8298 14.1274 13.9743 14.4494C13.8571 14.6164 13.7868 14.7118 13.7868 14.7118L13.7907 14.7157C13.6969 14.843 13.5915 14.9781 13.4821 15.1133C13.0836 15.5983 12.607 16.1508 12.5445 16.3098C12.4703 16.4967 12.4859 16.6358 12.6304 16.7471C12.7359 16.8266 12.9234 16.8425 13.1227 16.8266C13.4821 16.8028 13.7321 16.7113 13.8571 16.6557C14.0524 16.5841 14.2751 16.4768 14.49 16.3178C14.8806 16.0236 15.1189 15.6062 15.0955 15.0497C15.0838 14.7436 14.9861 14.4415 14.865 14.1552C14.9002 14.1036 14.9353 14.0519 14.9705 13.9962C15.5877 13.0779 16.0643 12.0682 16.0643 12.0682C16.0643 12.0682 16.1112 12.3783 16.2558 12.8871C16.33 13.1455 16.4784 13.4278 16.6113 13.706C16.0331 14.187 15.6698 14.7436 15.5448 15.1093C15.3143 15.7851 15.494 16.0912 15.8339 16.1628C15.9862 16.1946 16.205 16.123 16.3691 16.0514C16.5722 15.9839 16.8183 15.8686 17.0449 15.6976C17.4356 15.4035 17.8106 14.994 17.7911 14.4415C17.7793 14.187 17.7129 13.9366 17.6231 13.6981C18.1153 13.4914 18.7521 13.3721 19.5607 13.4715C21.2992 13.6782 21.643 14.7833 21.5765 15.2445C21.5101 15.7056 21.1468 15.96 21.0257 16.0395C20.9046 16.115 20.8655 16.1429 20.8773 16.1985C20.8929 16.282 20.9476 16.278 21.0531 16.2621C21.1976 16.2383 21.9672 15.8845 21.9985 15.0338C22.0453 13.9406 21.0257 12.748 19.217 12.7599V12.7599ZM5.80954 17.3593C5.23527 17.9993 4.42661 18.2418 4.08283 18.0351C3.7117 17.8165 3.85624 16.8743 4.56334 16.1946C4.99306 15.7811 5.5517 15.3995 5.91892 15.165C6.00096 15.1133 6.12597 15.0377 6.27442 14.9463C6.29786 14.9304 6.31349 14.9225 6.31349 14.9225C6.34083 14.9066 6.37209 14.8867 6.40334 14.8668C6.66508 15.8368 6.41506 16.6875 5.80954 17.3593V17.3593ZM10.0091 14.4534C9.80989 14.9503 9.38798 16.2264 9.13405 16.1548C8.91528 16.0952 8.78245 15.1292 9.09107 14.1751C9.24734 13.6941 9.5794 13.1217 9.77473 12.899C10.0912 12.5413 10.4349 12.422 10.5209 12.5691C10.6225 12.7599 10.1341 14.1433 10.0091 14.4534ZM13.4743 16.1389C13.3883 16.1826 13.3102 16.2144 13.275 16.1906C13.2477 16.1747 13.3102 16.115 13.3102 16.115C13.3102 16.115 13.7438 15.642 13.9157 15.4234C14.0134 15.2961 14.1306 15.1491 14.2556 14.9821V15.0298C14.2556 15.6022 13.7165 15.9839 13.4743 16.1389V16.1389ZM16.1464 15.5188C16.0839 15.4711 16.0917 15.324 16.3026 14.8628C16.3847 14.68 16.5722 14.3739 16.8964 14.0837C16.9355 14.2029 16.959 14.3182 16.955 14.4256C16.9511 15.1411 16.4511 15.4074 16.1464 15.5188Z" fill="#F472B6"/>
</svg>
