<svg width="24" height="24" viewBox="0 0 24 24" fill="none" xmlns="http://www.w3.org/2000/svg">
<path fill-rule="evenodd" clip-rule="evenodd" d="M20.4879 15C20.713 14.3632 20.8684 13.6935 20.9451 13H11C10.4477 13 10 12.5523 10 12C10 11.4477 10.4477 11 11 11H20.9451C20.8684 10.3065 20.713 9.63682 20.4879 9H13C12.4477 9 12 8.55228 12 8C12 7.44772 12.4477 7 13 7H19.4845C17.8699 4.58803 15.1204 3 12 3C7.02944 3 3 7.02944 3 12C3 16.9706 7.02944 21 12 21C15.1204 21 17.8699 19.412 19.4845 17H9C8.44772 17 8 16.5523 8 16C8 15.4477 8.44772 15 9 15H20.4879Z" fill="#2563EB"/>
</svg>
