<svg width="24" height="24" viewBox="0 0 24 24" fill="none" xmlns="http://www.w3.org/2000/svg">
<path fill-rule="evenodd" clip-rule="evenodd" d="M6.01672 9.69791C6.17373 9.91433 7.4977 10.3226 9.47261 10.7477C11.4475 11.1263 13.5014 12.6208 15.0986 12.16C16.179 11.8477 17.3511 9.06478 17.3511 8.65147V8.60903C17.3511 8.32048 17.1346 8.08878 16.7672 7.89613C15.2607 7.12636 14.9756 6.8429 14.4171 6.99651C11.518 7.79683 6.39949 7.38776 6.01672 9.69791Z" fill="#7F1D1D"/>
<path fill-rule="evenodd" clip-rule="evenodd" d="M6.01672 15.3485C6.17373 15.5683 7.4977 15.9732 9.47261 16.3992C11.6792 16.8015 13.5981 18.1127 15.1962 17.651C16.2766 17.3387 17.3511 14.7163 17.3511 14.3021V14.2614C17.3511 13.9736 17.1346 13.7411 16.7672 13.5493C15.618 12.9382 14.0997 12.2652 13.5421 12.4188C10.6379 13.2175 6.75594 13.3931 6.01672 15.3485Z" fill="#7F1D1D"/>
<path fill-rule="evenodd" clip-rule="evenodd" d="M15.192 4.09227C12.522 4.86374 8.28617 5.29912 6.00403 5.29912V9.65717C6.00475 9.67216 6.01042 9.68649 6.02015 9.69791C7.57751 9.69791 12.3854 9.18869 15.2862 8.39092C15.7921 8.26215 16.2882 8.09737 16.7706 7.89783C17.1253 7.73827 17.3545 7.57023 17.3545 7.3954V3C17.3511 3.41416 16.2724 3.7808 15.192 4.09227Z" fill="#F87171"/>
<path fill-rule="evenodd" clip-rule="evenodd" d="M15.192 9.74375C13.5939 10.2046 11.4374 10.5475 9.47265 10.7478C8.15378 10.8827 6.92147 10.9531 6.00403 10.9531V15.3078C6.00475 15.3228 6.01042 15.3371 6.02015 15.3485C7.57751 15.3485 12.3854 14.8393 15.2862 14.0424C15.792 13.9132 16.288 13.7485 16.7706 13.5493C17.1253 13.3889 17.3545 13.2217 17.3545 13.0469V8.65147C17.3511 9.06479 16.2724 9.43143 15.192 9.74375Z" fill="#F87171"/>
<path fill-rule="evenodd" clip-rule="evenodd" d="M15.192 15.3986C13.5939 15.8595 11.4374 16.2015 9.47263 16.4026C8.15205 16.5376 6.91805 16.608 6.00061 16.608V21C7.54184 21 12.3743 20.495 15.2828 19.6939C16.3547 19.3985 17.3511 19.0624 17.3511 18.6975V14.3021C17.3511 14.7197 16.2724 15.0829 15.192 15.3986Z" fill="#F87171"/>
</svg>
