<svg width="24" height="24" viewBox="0 0 24 24" fill="none" xmlns="http://www.w3.org/2000/svg">
<path d="M7.49872 20.9355L18.025 13.8866C18.025 13.8866 18.5 13.6229 18.5 13.2068C18.5 12.6527 17.8993 12.4724 17.8993 12.4724L12.1084 10.2581C11.9018 10.1798 11.6174 10.3992 11.8837 10.6773L13.8008 12.5312C13.8008 12.5312 14.3334 13.0368 14.3334 13.3685C14.3334 13.7001 14.0064 13.9957 14.0064 13.9957L7.03009 20.509C6.78191 20.7408 7.11742 21.161 7.49872 20.9355Z" fill="#60A5FA"/>
<path d="M16.0013 3.06496L5.47501 10.1128C5.47501 10.1128 5 10.3765 5 10.7926C5 11.3467 5.60071 11.5269 5.60071 11.5269L11.3916 13.7423C11.5982 13.8196 11.8837 13.6002 11.6163 13.3231L9.69915 11.4631C9.69915 11.4631 9.16662 10.9584 9.16662 10.6257C9.16662 10.293 9.49362 9.99848 9.49362 9.99848L16.4657 3.49032C16.7181 3.25859 16.3837 2.83837 16.0013 3.06496Z" fill="#60A5FA"/>
</svg>
