<?xml version="1.0" encoding="UTF-8"?><svg id="uuid-e749d332-cdd3-46db-9652-06be0b3a2f8a" xmlns="http://www.w3.org/2000/svg" width="24" height="24" xmlns:xlink="http://www.w3.org/1999/xlink" viewBox="0 0 24 24"><defs><style>.uuid-0e1d065f-dc27-4450-9ab1-16a6147739c7{fill:url(#uuid-db6c384d-ca6e-4de8-a871-7265f67a7f68);}</style><linearGradient id="uuid-db6c384d-ca6e-4de8-a871-7265f67a7f68" x1="-619.72" y1="-1422.41" x2="-619.72" y2="-1436.85" gradientTransform="translate(-32.56 -1660.74) rotate(-22.97) scale(1 -1.09) skewX(-.32)" gradientUnits="userSpaceOnUse"><stop offset="0" stop-color="#da2fb6"/><stop offset="1" stop-color="#fe1876"/></linearGradient></defs><path class="uuid-0e1d065f-dc27-4450-9ab1-16a6147739c7" d="M17.83,19.22c1.32,0,1.8-.57,1.8-1.95v-2.7c0-1.29.63-2.03,1.23-2.38.13-.08.18-.25.1-.39-.02-.04-.06-.07-.1-.1-.78-.52-1.24-1.4-1.23-2.34v-2.65c0-1.5-.41-1.93-1.73-1.93H6.09c-1.31,0-1.72.43-1.72,1.93v2.65c.01.94-.45,1.82-1.23,2.34-.13.08-.18.25-.1.39.02.04.06.07.1.1.6.34,1.23,1.07,1.23,2.38v2.7c0,1.39.48,1.95,1.8,1.95h11.67ZM11.97,16.75c-1.41,0-2.44-.42-3.39-1.25-.14-.13-.22-.31-.22-.51,0-.15.05-.31.15-.42l.29-.37c.11-.16.29-.26.48-.27.22.01.43.09.6.22.66.44,1.45.67,2.24.66.66,0,1.19-.28,1.19-.84,0-1.47-4.9-.66-4.9-3.97,0-1.77,1.45-2.76,3.33-2.76,1.07-.02,2.12.28,3.03.84.19.14.3.37.3.6,0,.14-.04.28-.12.4l-.22.33c-.12.2-.33.32-.57.33-.18-.01-.35-.06-.51-.14-.56-.29-1.17-.43-1.8-.42-.71,0-1.13.39-1.13.78,0,1.51,4.9.69,4.9,3.9,0,1.8-1.44,2.91-3.66,2.91Z"/></svg>