<svg width="24" height="24" viewBox="0 0 24 24" fill="none" xmlns="http://www.w3.org/2000/svg">
<mask id="mask0_20590_698" style="mask-type:alpha" maskUnits="userSpaceOnUse" x="4" y="3" width="16" height="18">
<path d="M5.3345 19.5864L4.77689 4.7288C4.75848 4.23811 5.13472 3.82226 5.6248 3.79163L18.2622 3.00179C18.7611 2.97062 19.1907 3.34973 19.2219 3.84857C19.2231 3.86737 19.2237 3.88619 19.2237 3.90502V20.095C19.2237 20.5948 18.8185 21 18.3187 21C18.3051 21 18.2916 20.9997 18.2781 20.9991L6.19825 20.4565C5.72779 20.4354 5.35216 20.057 5.3345 19.5864Z" fill="#F472B6"/>
</mask>
<g mask="url(#mask0_20590_698)">
<path fill-rule="evenodd" clip-rule="evenodd" d="M4.77689 4.7288L5.3345 19.5864C5.35216 20.057 5.72779 20.4354 6.19825 20.4565L18.2781 20.9991C18.2916 20.9997 18.3051 21 18.3187 21C18.8185 21 19.2237 20.5948 19.2237 20.095V3.90502C19.2237 3.88619 19.2231 3.86737 19.2219 3.84857C19.1907 3.34973 18.7611 2.97062 18.2622 3.00179L17.2686 3.06389L17.3412 5.14104C17.3438 5.21555 17.2855 5.27806 17.211 5.28067C17.1791 5.28178 17.1478 5.27155 17.1227 5.2518L16.4534 4.72457L15.6611 5.32565C15.6017 5.37071 15.517 5.35908 15.4719 5.29968C15.4529 5.27468 15.4433 5.24385 15.4446 5.21249L15.5294 3.1726L5.6248 3.79163C5.13472 3.82226 4.75848 4.23811 4.77689 4.7288ZM13.2251 9.78444C13.2251 10.1365 15.5967 9.96779 15.9151 9.72047C15.9151 7.32278 14.6286 6.06284 12.2727 6.06284C9.91681 6.06284 8.59685 7.34238 8.59685 9.26171C8.59685 11.1845 10.0894 12.0224 11.3575 12.7344C12.294 13.2602 13.1081 13.7173 13.1081 14.4919C13.1081 15.0037 12.8575 15.3076 12.3061 15.3076C11.5876 15.3076 11.3036 14.9407 11.337 13.6931C11.337 13.4225 8.59685 13.3381 8.51331 13.6931C8.30058 16.7164 10.1841 17.5884 12.3395 17.5884C14.4281 17.5884 16.0655 16.4752 16.0655 14.4599C16.0655 12.3573 14.4887 11.5217 13.1859 10.8313C12.2687 10.3452 11.4874 9.93118 11.4874 9.19773C11.4874 8.47798 12.0221 8.38202 12.3395 8.38202C12.6737 8.38202 13.2752 8.44092 13.2251 9.78444Z" fill="#F472B6"/>
</g>
</svg>
