<svg width="24" height="24" viewBox="0 0 24 24" fill="none" xmlns="http://www.w3.org/2000/svg">
<path fill-rule="evenodd" clip-rule="evenodd" d="M12.4976 20.9528C14.5478 13.5761 14.4885 13.5431 15.9697 8.2844L16.3257 8.4914C16.5195 8.60347 16.6778 8.51118 16.6778 8.28704V5.77999C17.0707 4.39428 17.3792 3.32369 17.4688 3.00133H19.0741L21.7407 5.48795L19.9897 7.01077L21.3148 8.45185L12.5853 20.9528C12.5424 21.0234 12.4831 21.0076 12.4963 20.9528H12.4976Z" fill="#A855F7"/>
<path fill-rule="evenodd" clip-rule="evenodd" d="M13.4514 5.05483C13.5305 5.05483 13.5945 5.09834 13.5945 5.15372V6.43922C13.5945 6.49196 13.5352 6.53678 13.456 6.53678H11.3004C11.2213 6.53678 11.1553 6.49262 11.1553 6.4379V5.1524C11.1553 5.09834 11.2213 5.05483 11.3004 5.05483H13.456H13.4514ZM16.1121 3.63089L13.7402 5.00869C13.7679 5.05154 13.7843 5.10098 13.7843 5.15372V6.43922C13.7843 6.50514 13.758 6.56447 13.7118 6.61391L16.1048 8.00489C16.263 8.10048 16.4015 8.02269 16.4015 7.83349V3.80427C16.4015 3.61441 16.263 3.53662 16.1048 3.63155L16.1121 3.63089ZM10.9615 6.43922V5.15372C10.9615 5.10098 10.978 5.05154 11.005 5.00869L8.63311 3.63089C8.47028 3.53662 8.33646 3.61441 8.33646 3.80361V7.83151C8.33646 8.02269 8.46962 8.09521 8.63311 8.00291L11.0294 6.61194C10.9866 6.5592 10.9609 6.49987 10.9609 6.43394L10.9615 6.43922Z" fill="#A855F7"/>
<path fill-rule="evenodd" clip-rule="evenodd" d="M12.1541 20.9528H12.2424C10.1922 13.576 10.2515 13.5431 8.77091 8.2844L8.41492 8.49139C8.22111 8.60346 8.06223 8.51117 8.06223 8.28703V5.77998C7.66735 4.39361 7.35752 3.32302 7.26522 3H5.66329L3 5.48728L4.75026 7.0101L3.4252 8.45118L12.1534 20.9502L12.1541 20.9528Z" fill="#A855F7"/>
<path d="M12.3051 9.21985C12.6626 9.21985 12.9524 8.92825 12.9524 8.56853C12.9524 8.20882 12.6626 7.91721 12.3051 7.91721C11.9476 7.91721 11.6577 8.20882 11.6577 8.56853C11.6577 8.92825 11.9476 9.21985 12.3051 9.21985Z" fill="#A855F7"/>
<path d="M12.3051 13.0941C12.6626 13.0941 12.9524 12.8025 12.9524 12.4428C12.9524 12.0831 12.6626 11.7915 12.3051 11.7915C11.9476 11.7915 11.6577 12.0831 11.6577 12.4428C11.6577 12.8025 11.9476 13.0941 12.3051 13.0941Z" fill="#A855F7"/>
<path d="M12.3051 16.9685C12.6626 16.9685 12.9524 16.6768 12.9524 16.3171C12.9524 15.9574 12.6626 15.6658 12.3051 15.6658C11.9476 15.6658 11.6577 15.9574 11.6577 16.3171C11.6577 16.6768 11.9476 16.9685 12.3051 16.9685Z" fill="#A855F7"/>
</svg>
