<svg width="24" height="24" viewBox="0 0 24 24" fill="none" xmlns="http://www.w3.org/2000/svg">
<path d="M14.603 18.1722C16.2191 16.2391 16.4093 14.2427 15.1575 10.5351C14.3653 8.19013 13.0501 6.3838 14.0167 4.9261C15.0467 3.37335 17.2331 4.87863 15.411 6.95422L15.7754 7.2077C17.962 7.46128 19.0395 4.46651 17.4074 3.61093C13.0977 1.36101 9.32663 5.68663 10.9903 10.6935C11.7034 12.8167 12.7016 15.0667 11.8935 16.8572C11.1963 18.3941 9.84947 19.2973 8.94641 19.329C7.06092 19.4241 8.31273 15.0985 10.4834 14.021C10.6735 13.9261 10.9429 13.7992 10.6894 13.4823C8.01167 13.1813 6.44303 14.4171 5.53986 16.1443C2.90962 21.1671 10.531 23.0209 14.6031 18.1723L14.603 18.1722Z" fill="#14B8A6"/>
</svg>
