<svg xmlns="http://www.w3.org/2000/svg" width="25" height="24"><defs><linearGradient id="a" x1="53.974" x2="94.163" y1="54.974" y2="71.829" gradientTransform="scale(.22936 .21239)" gradientUnits="userSpaceOnUse"><stop offset="0" style="stop-color:#249361;stop-opacity:1"/><stop offset="1" style="stop-color:#3ecf8e;stop-opacity:1"/></linearGradient><linearGradient id="b" x1="36.156" x2="54.484" y1="30.578" y2="65.081" gradientTransform="scale(.22936 .21239)" gradientUnits="userSpaceOnUse"><stop offset="0" style="stop-color:#000;stop-opacity:.2"/><stop offset="1" style="stop-color:#000;stop-opacity:0"/></linearGradient></defs><path d="M14.613 23.422c-.656.765-1.988.348-2.004-.629l-.23-14.285H22.75c1.879 0 2.926 2.012 1.758 3.37Zm0 0" style="stroke:none;fill-rule:nonzero;fill:url(#a)"/><path d="M14.613 23.422c-.656.765-1.988.348-2.004-.629l-.23-14.285H22.75c1.879 0 2.926 2.012 1.758 3.37Zm0 0" style="stroke:none;fill-rule:nonzero;fill:url(#b)"/><path d="M10.395.441c.656-.765 1.984-.347 2 .63l.101 14.284H2.254c-1.879 0-2.926-2.011-1.758-3.37Zm0 0" style="stroke:none;fill-rule:nonzero;fill:#3ecf8e;fill-opacity:1"/></svg>