<svg width="24" height="24" viewBox="0 0 24 24" fill="none" xmlns="http://www.w3.org/2000/svg">
<mask id="path-1-outside-1_29522_177" maskUnits="userSpaceOnUse" x="3.56238" y="2" width="16" height="20" fill="black">
<rect fill="white" x="3.56238" y="2" width="16" height="20"/>
<path d="M10.1375 19.8767C9.40986 20.0741 8.64172 20.0337 7.93678 19.761C7.23184 19.4884 6.62407 18.9965 6.19553 18.352C5.93252 17.9677 5.74567 17.5326 5.64595 17.072C5.54623 16.6114 5.53563 16.1347 5.61479 15.6698C5.64158 15.5172 5.67848 15.3667 5.72523 15.2194L5.81227 14.9419L6.04928 15.1234C6.59614 15.5429 7.20765 15.862 7.85744 16.0667L8.02922 16.1211L8.01344 16.3002C7.99257 16.5546 8.0587 16.8085 8.2001 17.017C8.32914 17.2113 8.51224 17.3596 8.72466 17.4418C8.93707 17.524 9.16856 17.5362 9.38782 17.4766C9.48813 17.4488 9.58378 17.4051 9.67145 17.3472L14.295 14.2717C14.4082 14.1974 14.5052 14.0993 14.5801 13.9836C14.6549 13.868 14.7058 13.7374 14.7295 13.6001C14.7532 13.4599 14.75 13.3162 14.7199 13.1774C14.6898 13.0386 14.6335 12.9074 14.5544 12.7915C14.4253 12.5972 14.2422 12.4489 14.0298 12.3667C13.8174 12.2844 13.5859 12.2721 13.3667 12.3315C13.2663 12.3593 13.1707 12.403 13.083 12.461L11.3186 13.6346C11.0283 13.8271 10.7115 13.9722 10.3791 14.0649C9.65148 14.2623 8.88333 14.2219 8.17839 13.9493C7.47344 13.6766 6.86567 13.1847 6.43715 12.5401C6.17406 12.1559 5.98716 11.7208 5.8874 11.2602C5.78765 10.7996 5.77705 10.3229 5.85623 9.85796C5.93481 9.40214 6.10369 8.96846 6.35206 8.58464C6.60044 8.20083 6.92286 7.87533 7.29868 7.62897L11.9228 4.55408C12.2131 4.36132 12.5299 4.21604 12.8623 4.12327C13.5899 3.92591 14.3581 3.96629 15.063 4.23897C15.768 4.51164 16.3757 5.00347 16.8043 5.64804C17.0673 6.03227 17.2542 6.46743 17.354 6.928C17.4537 7.38858 17.4643 7.86531 17.3852 8.33022C17.3582 8.48281 17.3212 8.6333 17.2746 8.78064L17.1875 9.05811L16.9507 8.87702C16.4039 8.45739 15.7924 8.13834 15.1425 7.93363L14.9706 7.87925L14.9865 7.70019C15.0074 7.44561 14.9413 7.19155 14.8001 6.98284C14.671 6.78855 14.4879 6.64028 14.2755 6.55807C14.0631 6.47586 13.8316 6.46368 13.6123 6.52317C13.512 6.55101 13.4164 6.59467 13.3287 6.65266L8.70391 9.72829C8.59077 9.80255 8.49373 9.90063 8.41898 10.0162C8.34422 10.1319 8.29341 10.2625 8.26977 10.3998C8.24594 10.5399 8.24912 10.6836 8.27914 10.8225C8.30915 10.9613 8.36538 11.0926 8.44456 11.2085C8.57364 11.4028 8.75673 11.551 8.96912 11.6333C9.18151 11.7156 9.41298 11.7279 9.63227 11.6685C9.73256 11.6406 9.8282 11.597 9.91591 11.539L11.6801 10.3659C11.9703 10.1731 12.2872 10.0278 12.6196 9.93528C13.3472 9.7379 14.1154 9.77828 14.8203 10.051C15.5252 10.3236 16.1329 10.8155 16.5614 11.46C16.8245 11.8442 17.0114 12.2794 17.1112 12.74C17.2109 13.2006 17.2215 13.6773 17.1423 14.1422C17.0639 14.598 16.8952 15.0318 16.6471 15.4157C16.3989 15.7996 16.0767 16.1253 15.7011 16.372L11.077 19.4459C10.7868 19.6387 10.4699 19.784 10.1375 19.8767"/>
</mask>
<path d="M7.93678 19.761L8.65829 17.8957L7.93678 19.761ZM6.19553 18.352L7.86103 17.2447C7.85605 17.2372 7.85101 17.2297 7.84592 17.2223L6.19553 18.352ZM5.61479 15.6698L3.64488 15.324L3.64317 15.3341L5.61479 15.6698ZM5.72523 15.2194L7.63154 15.8244L7.63354 15.818L5.72523 15.2194ZM5.81227 14.9419L7.0281 13.3539C6.50988 12.9571 5.83066 12.8382 5.20845 13.0352C4.58624 13.2323 4.09931 13.7205 3.90396 14.3433L5.81227 14.9419ZM6.04928 15.1234L7.26671 13.5366L7.26511 13.5353L6.04928 15.1234ZM7.85744 16.0667L8.4611 14.16L8.45856 14.1592L7.85744 16.0667ZM8.02922 16.1211L10.0215 16.2967C10.1038 15.3629 9.52651 14.4973 8.63288 14.2144L8.02922 16.1211ZM8.01344 16.3002L6.02112 16.1246L6.02013 16.1367L8.01344 16.3002ZM8.2001 17.017L9.86621 15.9106C9.86255 15.9051 9.85887 15.8996 9.85515 15.8941L8.2001 17.017ZM9.38782 17.4766L9.91177 19.4068L9.92257 19.4038L9.38782 17.4766ZM9.67145 17.3472L10.7747 19.0153L10.7791 19.0124L9.67145 17.3472ZM14.295 14.2717L13.197 12.6L13.1873 12.6065L14.295 14.2717ZM14.7295 13.6001L16.7003 13.9409L16.7015 13.9337L14.7295 13.6001ZM14.5544 12.7915L12.8884 13.8981C12.8932 13.9054 12.8981 13.9126 12.903 13.9198L14.5544 12.7915ZM13.3667 12.3315L12.844 10.4009L12.8315 10.4044L13.3667 12.3315ZM13.083 12.461L11.98 10.7926L11.9753 10.7957L13.083 12.461ZM11.3186 13.6346L12.4237 15.3016L12.4264 15.2999L11.3186 13.6346ZM10.3791 14.0649L10.9028 15.9952L10.9163 15.9914L10.3791 14.0649ZM6.43715 12.5401L8.10269 11.4329C8.09762 11.4253 8.09251 11.4177 8.08734 11.4101L6.43715 12.5401ZM5.85623 9.85796L3.8853 9.5182L3.88462 9.52216L5.85623 9.85796ZM7.29868 7.62897L8.39516 9.30167L8.40613 9.29438L7.29868 7.62897ZM11.9228 4.55408L10.8164 2.88796L10.8153 2.88868L11.9228 4.55408ZM12.8623 4.12327L12.3388 2.19302C12.3341 2.19429 12.3294 2.19558 12.3247 2.19688L12.8623 4.12327ZM16.8043 5.64804L15.1388 6.75534C15.1438 6.76288 15.1489 6.77038 15.154 6.77785L16.8043 5.64804ZM17.3852 8.33022L19.3546 8.67893L19.3568 8.66581L17.3852 8.33022ZM17.2746 8.78064L15.3678 8.17707L15.3663 8.18201L17.2746 8.78064ZM17.1875 9.05811L15.9727 10.6469C16.491 11.0432 17.17 11.1618 17.792 10.9646C18.4139 10.7674 18.9006 10.2793 19.0958 9.65674L17.1875 9.05811ZM16.9507 8.87702L15.7331 10.4637L15.7359 10.4658L16.9507 8.87702ZM15.1425 7.93363L14.5395 9.84053L14.5416 9.84121L15.1425 7.93363ZM14.9706 7.87925L12.9785 7.70175C12.8952 8.63636 13.4729 9.50321 14.3675 9.78615L14.9706 7.87925ZM14.9865 7.70019L16.9787 7.87768C16.9791 7.87284 16.9795 7.86801 16.9799 7.86316L14.9865 7.70019ZM14.8001 6.98284L13.1341 8.08941C13.1373 8.09424 13.1405 8.09906 13.1438 8.10386L14.8001 6.98284ZM13.6123 6.52317L13.0886 4.59293L13.0776 4.59599L13.6123 6.52317ZM13.3287 6.65266L12.2254 4.98449L12.2212 4.9873L13.3287 6.65266ZM8.70391 9.72829L9.80145 11.4003L9.81142 11.3936L8.70391 9.72829ZM8.26977 10.3998L6.29877 10.0604L6.29807 10.0645L8.26977 10.3998ZM8.44456 11.2085L10.1104 10.1017C10.1057 10.0946 10.1009 10.0875 10.0961 10.0804L8.44456 11.2085ZM9.63227 11.6685L10.1547 13.5991C10.1593 13.5978 10.1638 13.5966 10.1684 13.5953L9.63227 11.6685ZM9.91591 11.539L11.0181 13.208L11.0233 13.2044L9.91591 11.539ZM11.6801 10.3659L10.5733 8.70007L10.5727 8.7005L11.6801 10.3659ZM12.6196 9.93528L12.096 8.00499L12.0832 8.00857L12.6196 9.93528ZM16.5614 11.46L14.8959 12.5673C14.9009 12.5749 14.9061 12.5825 14.9112 12.59L16.5614 11.46ZM17.1423 14.1422L19.1134 14.4813L19.1139 14.478L17.1423 14.1422ZM15.7011 16.372L14.6033 14.7001L14.5939 14.7064L15.7011 16.372ZM11.077 19.4459L12.1836 21.1119L12.1842 21.1115L11.077 19.4459ZM9.61394 17.9465C9.29877 18.032 8.96682 18.0151 8.65829 17.8957L7.21526 21.6264C8.31662 22.0524 9.52095 22.1162 10.6611 21.807L9.61394 17.9465ZM8.65829 17.8957C8.34857 17.7759 8.06666 17.554 7.86103 17.2447L4.53003 19.4593C5.18147 20.4391 6.11511 21.2008 7.21526 21.6264L8.65829 17.8957ZM7.84592 17.2223C7.7309 17.0542 7.64629 16.8595 7.60066 16.6487L3.69124 17.4952C3.84506 18.2056 4.13413 18.8812 4.54514 19.4817L7.84592 17.2223ZM7.60066 16.6487C7.55501 16.4379 7.55009 16.2188 7.58642 16.0055L3.64317 15.3341C3.52118 16.0505 3.53744 16.7849 3.69124 17.4952L7.60066 16.6487ZM7.58467 16.0156C7.59611 15.9504 7.6118 15.8865 7.63153 15.8244L3.81893 14.6144C3.74517 14.8468 3.68706 15.0839 3.64491 15.324L7.58467 16.0156ZM7.63354 15.818L7.72058 15.5405L3.90396 14.3433L3.81692 14.6207L7.63354 15.818ZM4.59644 16.5299L4.83345 16.7114L7.26511 13.5353L7.0281 13.3539L4.59644 16.5299ZM4.83185 16.7101C5.56165 17.2701 6.38131 17.6985 7.25632 17.9743L8.45856 14.1592C8.03399 14.0254 7.63064 13.8158 7.26671 13.5366L4.83185 16.7101ZM7.25378 17.9735L7.42556 18.0278L8.63288 14.2144L8.4611 14.16L7.25378 17.9735ZM6.03693 15.9456L6.02116 16.1246L10.0057 16.4757L10.0215 16.2967L6.03693 15.9456ZM6.02013 16.1367C5.96252 16.8392 6.14368 17.5482 6.54506 18.1398L9.85515 15.8941C9.97372 16.0689 10.0226 16.27 10.0067 16.4637L6.02013 16.1367ZM6.534 18.1234C6.88588 18.6533 7.39495 19.0717 8.00279 19.307L9.44652 15.5766C9.62954 15.6474 9.7724 15.7693 9.86621 15.9106L6.534 18.1234ZM8.00279 19.307C8.61184 19.5427 9.2798 19.5783 9.91176 19.4068L8.86387 15.5465C9.05732 15.494 9.26231 15.5053 9.44652 15.5766L8.00279 19.307ZM9.92257 19.4038C10.2268 19.3194 10.514 19.1877 10.7747 19.0153L8.56816 15.679C8.65353 15.6225 8.74948 15.5782 8.85306 15.5495L9.92257 19.4038ZM10.7791 19.0124L15.4027 15.937L13.1873 12.6065L8.56378 15.6819L10.7791 19.0124ZM15.393 15.9434C15.7426 15.7137 16.0362 15.4148 16.2593 15.0699L12.9008 12.8973C12.9743 12.7837 13.0737 12.681 13.197 12.6001L15.393 15.9434ZM16.2593 15.0699C16.4823 14.7253 16.6311 14.3406 16.7003 13.9409L12.7588 13.2592C12.7804 13.1341 12.8274 13.0107 12.9008 12.8973L16.2593 15.0699ZM16.7015 13.9337C16.7677 13.5426 16.7586 13.142 16.6745 12.754L12.7652 13.6008C12.7413 13.4905 12.7388 13.3772 12.7575 13.2664L16.7015 13.9337ZM16.6745 12.754C16.5905 12.366 16.4323 11.9949 16.2057 11.6632L12.903 13.9198C12.8347 13.8199 12.7891 13.7112 12.7652 13.6008L16.6745 12.754ZM16.2203 11.6849C15.8685 11.1553 15.3597 10.737 14.7522 10.5017L13.3074 14.2316C13.1247 14.1609 12.9821 14.0392 12.8884 13.8981L16.2203 11.6849ZM14.7522 10.5017C14.1435 10.2659 13.4758 10.2299 12.844 10.401L13.8893 14.262C13.6961 14.3143 13.4914 14.3029 13.3074 14.2316L14.7522 10.5017ZM12.8315 10.4044C12.5276 10.4888 12.2406 10.6203 11.9801 10.7926L14.186 14.1293C14.1008 14.1856 14.0051 14.2299 13.9018 14.2586L12.8315 10.4044ZM11.9753 10.7957L10.2109 11.9694L12.4264 15.2999L14.1907 14.1262L11.9753 10.7957ZM10.2136 11.9677C10.096 12.0456 9.97055 12.1025 9.8419 12.1384L10.9163 15.9914C11.4524 15.8419 11.9606 15.6087 12.4237 15.3016L10.2136 11.9677ZM9.85549 12.1347C9.54034 12.2202 9.20841 12.2033 8.8999 12.0839L7.45687 15.8146C8.55825 16.2406 9.76262 16.3044 10.9027 15.9951L9.85549 12.1347ZM8.8999 12.0839C8.5902 11.9641 8.3083 11.7422 8.10269 11.4329L4.77161 13.6474C5.42304 14.6273 6.35669 15.389 7.45687 15.8146L8.8999 12.0839ZM8.08734 11.4101C7.97233 11.2422 7.88771 11.0475 7.84208 10.8368L3.93272 11.6835C4.0866 12.394 4.3758 13.0697 4.78696 13.6701L8.08734 11.4101ZM7.84208 10.8368C7.79644 10.6261 7.79152 10.407 7.82784 10.1937L3.88462 9.52216C3.76259 10.2387 3.77886 10.9731 3.93272 11.6835L7.84208 10.8368ZM7.82717 10.1977C7.86042 10.0048 7.93123 9.82564 8.03115 9.67124L4.67298 7.49805C4.27614 8.11128 4.00919 8.7995 3.8853 9.5182L7.82717 10.1977ZM8.03115 9.67124C8.13094 9.51703 8.25633 9.39262 8.39514 9.30163L6.20223 5.95631C5.58939 6.35804 5.06995 6.88463 4.67298 7.49805L8.03115 9.67124ZM8.40613 9.29438L13.0302 6.21949L10.8153 2.88868L6.19124 5.96357L8.40613 9.29438ZM13.0291 6.22021C13.1464 6.14234 13.2716 6.08548 13.3999 6.04966L12.3247 2.19688C11.7883 2.34659 11.2797 2.5803 10.8164 2.88796L13.0291 6.22021ZM13.3859 6.05353C13.701 5.96804 14.033 5.98495 14.3415 6.10429L15.7845 2.37365C14.6832 1.94764 13.4789 1.88378 12.3388 2.19302L13.3859 6.05353ZM14.3415 6.10429C14.6512 6.22409 14.9331 6.44604 15.1388 6.75534L18.4698 4.54075C17.8183 3.56089 16.8847 2.79919 15.7845 2.37365L14.3415 6.10429ZM15.154 6.77785C15.269 6.94588 15.3536 7.14061 15.3993 7.35136L19.3086 6.50465C19.1548 5.79425 18.8656 5.11866 18.4546 4.51823L15.154 6.77785ZM15.3993 7.35136C15.4449 7.56217 15.4499 7.78127 15.4136 7.99464L19.3568 8.66581C19.4788 7.94934 19.4625 7.21499 19.3086 6.50465L15.3993 7.35136ZM15.4158 7.98152C15.404 8.0481 15.388 8.11345 15.3678 8.17707L19.1813 9.38422C19.2545 9.15316 19.3123 8.91752 19.3546 8.67893L15.4158 7.98152ZM15.3663 8.18201L15.2792 8.45948L19.0958 9.65674L19.1829 9.37928L15.3663 8.18201ZM18.4024 7.46935L18.1655 7.28826L15.7359 10.4658L15.9727 10.6469L18.4024 7.46935ZM18.1683 7.29035C17.4384 6.73028 16.6187 6.30175 15.7435 6.02605L14.5416 9.84121C14.9661 9.97493 15.3693 10.1845 15.7331 10.4637L18.1683 7.29035ZM15.7456 6.02673L15.5737 5.97234L14.3675 9.78615L14.5395 9.84053L15.7456 6.02673ZM16.9627 8.05674L16.9787 7.87768L12.9944 7.5227L12.9785 7.70175L16.9627 8.05674ZM16.9799 7.86316C17.0373 7.1614 16.8566 6.4532 16.4564 5.86183L13.1438 8.10386C13.026 7.92989 12.9775 7.72982 12.9932 7.53721L16.9799 7.86316ZM16.466 5.87628C16.1141 5.34647 15.6051 4.92811 14.9974 4.69289L13.5536 8.42326C13.3707 8.35245 13.2279 8.23063 13.1341 8.08941L16.466 5.87628ZM14.9974 4.69289C14.3884 4.4572 13.7205 4.42151 13.0886 4.59296L14.1361 8.45339C13.9427 8.50586 13.7378 8.49452 13.5536 8.42326L14.9974 4.69289ZM13.0776 4.59599C12.7734 4.6804 12.4862 4.81206 12.2254 4.9845L14.432 8.32082C14.3466 8.37729 14.2507 8.42162 14.1471 8.45036L13.0776 4.59599ZM12.2212 4.9873L7.5964 8.06293L9.81142 11.3936L14.4362 8.31802L12.2212 4.9873ZM7.60638 8.05633C7.25646 8.28603 6.96261 8.58518 6.73944 8.93035L10.0985 11.1021C10.0248 11.2161 9.92508 11.3191 9.80143 11.4002L7.60638 8.05633ZM6.73944 8.93035C6.5164 9.27532 6.36764 9.66038 6.29877 10.0604L10.2408 10.7391C10.2192 10.8646 10.172 10.9884 10.0985 11.1021L6.73944 8.93035ZM6.29807 10.0645C6.23153 10.4558 6.24036 10.8567 6.32427 11.245L10.234 10.4C10.2579 10.5105 10.2603 10.624 10.2415 10.735L6.29807 10.0645ZM6.32427 11.245C6.4082 11.6333 6.56634 12.0046 6.79305 12.3365L10.0961 10.0804C10.1644 10.1805 10.2101 10.2894 10.234 10.4L6.32427 11.245ZM6.7787 12.3152C7.13053 12.8448 7.6393 13.263 8.24675 13.4983L9.69149 9.76832C9.87415 9.83907 10.0167 9.96072 10.1104 10.1017L6.7787 12.3152ZM8.24675 13.4983C8.85539 13.734 9.52295 13.77 10.1547 13.5991L9.10984 9.73796C9.303 9.68569 9.50763 9.6971 9.69149 9.76832L8.24675 13.4983ZM10.1684 13.5953C10.4716 13.511 10.758 13.3797 11.0181 13.2079L8.81375 9.87013C8.89842 9.81421 8.99353 9.77027 9.09619 9.74171L10.1684 13.5953ZM11.0233 13.2044L12.7875 12.0313L10.5727 8.7005L8.80847 9.87363L11.0233 13.2044ZM12.7869 12.0317C12.9037 11.9542 13.0283 11.8976 13.1561 11.862L12.0832 8.00857C11.5461 8.15812 11.037 8.39198 10.5733 8.70007L12.7869 12.0317ZM13.1432 11.8655C13.4584 11.78 13.7903 11.7969 14.0987 11.9163L15.5418 8.18565C14.4405 7.75962 13.2361 7.69577 12.096 8.00504L13.1432 11.8655ZM14.0987 11.9163C14.4084 12.0361 14.6903 12.258 14.8959 12.5673L18.227 10.3528C17.5756 9.37295 16.642 8.61121 15.5418 8.18565L14.0987 11.9163ZM14.9112 12.59C15.0262 12.758 15.1109 12.9527 15.1565 13.1633L19.0658 12.3166C18.912 11.6062 18.6228 10.9305 18.2116 10.3301L14.9112 12.59ZM15.1565 13.1633C15.2021 13.3741 15.2071 13.5931 15.1707 13.8064L19.1139 14.478C19.236 13.7615 19.2197 13.0271 19.0658 12.3166L15.1565 13.1633ZM15.1713 13.8031C15.1381 13.9962 15.0673 14.1754 14.9674 14.33L18.3268 16.5014C18.7232 15.8881 18.9898 15.1999 19.1134 14.4813L15.1713 13.8031ZM14.9674 14.33C14.8676 14.4844 14.7422 14.609 14.6034 14.7002L16.7989 18.0438C17.4113 17.6416 17.9302 17.1149 18.3268 16.5014L14.9674 14.33ZM14.5939 14.7064L9.96982 17.7804L12.1842 21.1115L16.8083 18.0375L14.5939 14.7064ZM9.97049 17.7799C9.85335 17.8577 9.7283 17.9145 9.60009 17.9503L10.6749 21.8032C11.2115 21.6535 11.7202 21.4197 12.1836 21.1119L9.97049 17.7799Z" fill="#2563EB" mask="url(#path-1-outside-1_29522_177)"/>
</svg>
