<svg width="25" height="24" viewBox="0 0 25 24" fill="none" xmlns="http://www.w3.org/2000/svg">
<mask id="path-1-outside-1_20571_794" maskUnits="userSpaceOnUse" x="4.14066" y="2" width="17" height="20" fill="black">
<rect fill="white" x="4.14066" y="2" width="17" height="20"/>
<path d="M10.9147 19.8767C10.1554 20.0741 9.35388 20.0337 8.61829 19.761C7.8827 19.4884 7.24851 18.9965 6.80134 18.352C6.52689 17.9677 6.33192 17.5326 6.22786 17.072C6.1238 16.6114 6.11275 16.1347 6.19535 15.6698C6.2233 15.5172 6.26181 15.3667 6.31059 15.2194L6.40141 14.9419L6.64873 15.1234C7.21937 15.5429 7.85746 15.862 8.5355 16.0667L8.71475 16.1211L8.69828 16.3002C8.67651 16.5546 8.74551 16.8085 8.89307 17.017C9.02771 17.2113 9.21878 17.3596 9.44043 17.4418C9.66208 17.524 9.90363 17.5362 10.1324 17.4766C10.2371 17.4488 10.3369 17.4051 10.4284 17.3472L15.253 14.2717C15.3711 14.1974 15.4723 14.0993 15.5504 13.9836C15.6285 13.868 15.6816 13.7374 15.7064 13.6001C15.7311 13.4599 15.7277 13.3162 15.6963 13.1774C15.6649 13.0386 15.6062 12.9074 15.5236 12.7915C15.3889 12.5972 15.1979 12.4489 14.9762 12.3667C14.7546 12.2844 14.5131 12.2721 14.2842 12.3315C14.1796 12.3593 14.0798 12.403 13.9883 12.461L12.1472 13.6346C11.8442 13.8271 11.5136 13.9722 11.1668 14.0649C10.4075 14.2623 9.60599 14.2219 8.8704 13.9493C8.13481 13.6766 7.50061 13.1847 7.05346 12.5401C6.77894 12.1559 6.58391 11.7208 6.47981 11.2602C6.37572 10.7996 6.36466 10.3229 6.44729 9.85796C6.52928 9.40214 6.7055 8.96846 6.96468 8.58464C7.22386 8.20083 7.56029 7.87533 7.95245 7.62897L12.7776 4.55408C13.0805 4.36132 13.4111 4.21604 13.758 4.12327C14.5173 3.92591 15.3188 3.96629 16.0544 4.23897C16.79 4.51164 17.4242 5.00347 17.8713 5.64804C18.1458 6.03227 18.3408 6.46743 18.4449 6.928C18.549 7.38858 18.5601 7.86531 18.4775 8.33022C18.4493 8.48281 18.4108 8.6333 18.3621 8.78064L18.2713 9.05811L18.0241 8.87702C17.4535 8.45739 16.8154 8.13834 16.1374 7.93363L15.9579 7.87925L15.9746 7.70019C15.9963 7.44561 15.9274 7.19155 15.78 6.98284C15.6453 6.78855 15.4542 6.64028 15.2326 6.55807C15.011 6.47586 14.7694 6.46368 14.5406 6.52317C14.436 6.55101 14.3361 6.59467 14.2447 6.65266L9.41877 9.72829C9.30072 9.80255 9.19946 9.90063 9.12145 10.0162C9.04345 10.1319 8.99042 10.2625 8.96576 10.3998C8.9409 10.5399 8.94422 10.6836 8.97553 10.8225C9.00685 10.9613 9.06553 11.0926 9.14815 11.2085C9.28284 11.4028 9.47389 11.551 9.69552 11.6333C9.91714 11.7156 10.1587 11.7279 10.3875 11.6685C10.4922 11.6406 10.5919 11.597 10.6835 11.539L12.5244 10.3659C12.8272 10.1731 13.1579 10.0278 13.5047 9.93528C14.264 9.7379 15.0655 9.77828 15.8011 10.051C16.5366 10.3236 17.1708 10.8155 17.6179 11.46C17.8924 11.8442 18.0875 12.2794 18.1916 12.74C18.2957 13.2006 18.3067 13.6773 18.2241 14.1422C18.1423 14.598 17.9662 15.0318 17.7073 15.4157C17.4484 15.7996 17.1122 16.1253 16.7202 16.372L11.8951 19.4459C11.5922 19.6387 11.2616 19.784 10.9147 19.8767"/>
</mask>
<path d="M8.61829 19.761L9.31344 17.8857L8.61829 19.761ZM6.80134 18.352L8.44461 17.2119C8.4394 17.2044 8.43414 17.1969 8.42882 17.1895L6.80134 18.352ZM6.19535 15.6698L4.22805 15.3094L4.22619 15.3199L6.19535 15.6698ZM6.31059 15.2194L8.2092 15.8481L8.21135 15.8415L6.31059 15.2194ZM6.40141 14.9419L7.58456 13.3294C7.06768 12.9501 6.40031 12.8417 5.78992 13.0377C5.17952 13.2337 4.70009 13.7104 4.50065 14.3197L6.40141 14.9419ZM6.64873 15.1234L7.83348 13.512L7.83188 13.5109L6.64873 15.1234ZM8.5355 16.0667L9.11617 14.1529L9.11371 14.1521L8.5355 16.0667ZM8.71475 16.1211L10.7063 16.3042C10.7933 15.359 10.2038 14.4829 9.29542 14.2073L8.71475 16.1211ZM8.69828 16.3002L6.70664 16.1171L6.70557 16.1297L8.69828 16.3002ZM8.89307 17.017L10.537 15.8779C10.5331 15.8723 10.5293 15.8668 10.5254 15.8614L8.89307 17.017ZM10.1324 17.4766L10.636 19.4122L10.6464 19.4095L10.1324 17.4766ZM10.4284 17.3472L11.4991 19.0364L11.5034 19.0336L10.4284 17.3472ZM15.253 14.2717L14.1875 12.5791L14.1779 12.5852L15.253 14.2717ZM15.7064 13.6001L17.6746 13.9553L17.6759 13.9478L15.7064 13.6001ZM15.5236 12.7915L13.8798 13.9308C13.8849 13.9381 13.89 13.9453 13.8951 13.9526L15.5236 12.7915ZM14.2842 12.3315L13.782 10.3955L13.7699 10.3987L14.2842 12.3315ZM13.9883 12.461L12.9179 10.7715L12.9132 10.7745L13.9883 12.461ZM12.1472 13.6346L13.2197 15.3228L13.2223 15.3211L12.1472 13.6346ZM11.1668 14.0649L11.67 16.0006L11.6832 15.9971L11.1668 14.0649ZM7.05346 12.5401L8.69678 11.4002C8.69148 11.3925 8.68613 11.3849 8.68073 11.3774L7.05346 12.5401ZM6.44729 9.85796L4.47887 9.50389L4.47814 9.508L6.44729 9.85796ZM7.95245 7.62897L9.01637 9.32256L9.02728 9.31561L7.95245 7.62897ZM12.7776 4.55408L11.7038 2.86676L11.7028 2.86745L12.7776 4.55408ZM13.758 4.12327L13.2548 2.18755L13.2412 2.19118L13.758 4.12327ZM17.8713 5.64804L16.2281 6.78806C16.2333 6.79562 16.2386 6.80313 16.2439 6.81061L17.8713 5.64804ZM18.4775 8.33022L20.4443 8.6936L20.4467 8.67996L18.4775 8.33022ZM18.3621 8.78064L16.463 8.15336L16.4613 8.15846L18.3621 8.78064ZM18.2713 9.05811L17.0891 10.6713C17.606 11.0501 18.2732 11.1583 18.8833 10.9621C19.4935 10.766 19.9726 10.2894 20.172 9.6803L18.2713 9.05811ZM18.0241 8.87702L16.8392 10.4882L16.842 10.4902L18.0241 8.87702ZM16.1374 7.93363L15.5572 9.84765L15.5593 9.84828L16.1374 7.93363ZM15.9579 7.87925L13.9665 7.6941C13.8786 8.64024 14.4684 9.51764 15.3778 9.79326L15.9579 7.87925ZM15.9746 7.70019L17.966 7.88533C17.9665 7.88029 17.9669 7.87525 17.9673 7.8702L15.9746 7.70019ZM15.78 6.98284L14.1362 8.12213C14.1395 8.12697 14.1429 8.1318 14.1463 8.13661L15.78 6.98284ZM14.5406 6.52317L14.0373 4.58751L14.0266 4.59035L14.5406 6.52317ZM14.2447 6.65266L13.174 4.96339L13.1698 4.96607L14.2447 6.65266ZM9.41877 9.72829L10.4838 11.4212L10.4937 11.4149L9.41877 9.72829ZM8.96576 10.3998L6.99727 10.0461L6.99652 10.0504L8.96576 10.3998ZM9.14815 11.2085L10.7918 10.069C10.7868 10.0619 10.7819 10.0548 10.7768 10.0477L9.14815 11.2085ZM10.3875 11.6685L10.8896 13.6045L10.9028 13.601L10.3875 11.6685ZM10.6835 11.539L11.753 13.229L11.7583 13.2257L10.6835 11.539ZM12.5244 10.3659L11.4502 8.67886L11.4495 8.67927L12.5244 10.3659ZM13.5047 9.93528L13.0015 7.99957L12.9891 8.00289L13.5047 9.93528ZM17.6179 11.46L15.9746 12.6C15.9799 12.6076 15.9852 12.6152 15.9906 12.6228L17.6179 11.46ZM18.2241 14.1422L20.1926 14.4956L20.1932 14.4922L18.2241 14.1422ZM16.7202 16.372L15.655 14.6792L15.6456 14.6852L16.7202 16.372ZM11.8951 19.4459L12.969 21.1331L12.9697 21.1327L11.8951 19.4459ZM10.4115 17.9411C10.0485 18.0354 9.66519 18.0161 9.31344 17.8857L7.92314 21.6363C9.04257 22.0513 10.2624 22.1128 11.4178 21.8124L10.4115 17.9411ZM9.31344 17.8857C8.9617 17.7553 8.65844 17.5202 8.44461 17.2119L5.15806 19.492C5.83857 20.4729 6.80371 21.2214 7.92314 21.6363L9.31344 17.8857ZM8.42882 17.1895C8.30912 17.0219 8.22408 16.8321 8.17869 16.6312L4.27703 17.5127C4.43976 18.233 4.74466 18.9135 5.17385 19.5144L8.42882 17.1895ZM8.17869 16.6312C8.13331 16.4303 8.12848 16.2224 8.16451 16.0196L4.22619 15.3199C4.09702 16.047 4.1143 16.7925 4.27703 17.5127L8.17869 16.6312ZM8.16262 16.0301C8.17392 15.9684 8.18947 15.9076 8.20918 15.8481L4.41199 14.5906C4.33414 14.8257 4.27269 15.0659 4.22808 15.3094L8.16262 16.0301ZM8.21135 15.8415L8.30217 15.5641L4.50065 14.3197L4.40983 14.5972L8.21135 15.8415ZM5.21827 16.5544L5.46558 16.7359L7.83188 13.5109L7.58456 13.3294L5.21827 16.5544ZM5.46398 16.7347C6.21806 17.2891 7.06128 17.7107 7.9573 17.9813L9.11371 14.1521C8.65364 14.0132 8.22068 13.7967 7.83348 13.512L5.46398 16.7347ZM7.95483 17.9806L8.13408 18.035L9.29542 14.2073L9.11617 14.1529L7.95483 17.9806ZM6.72315 15.938L6.70668 16.1171L10.6899 16.4833L10.7063 16.3042L6.72315 15.938ZM6.70557 16.1297C6.64351 16.8548 6.84018 17.5786 7.26072 18.1726L10.5254 15.8614C10.6509 16.0385 10.7095 16.2544 10.691 16.4707L6.70557 16.1297ZM7.24916 18.1561C7.6171 18.6871 8.13922 19.0923 8.74493 19.317L10.1359 15.5666C10.2983 15.6268 10.4383 15.7355 10.537 15.8779L7.24916 18.1561ZM8.74493 19.317C9.35064 19.5416 10.0107 19.5749 10.6359 19.4122L9.62889 15.5411C9.79653 15.4975 9.97352 15.5064 10.1359 15.5666L8.74493 19.317ZM10.6464 19.4095C10.948 19.3293 11.2355 19.2035 11.4991 19.0364L9.35769 15.6579C9.43828 15.6068 9.52621 15.5683 9.61844 15.5438L10.6464 19.4095ZM11.5034 19.0336L16.328 15.9582L14.1779 12.5852L9.35333 15.6607L11.5034 19.0336ZM16.3184 15.9643C16.6716 15.742 16.9746 15.4485 17.2081 15.1026L13.8927 12.8647C13.9701 12.75 14.0705 12.6528 14.1875 12.5791L16.3184 15.9643ZM17.2081 15.1026C17.4416 14.7567 17.6004 14.366 17.6746 13.9553L13.7382 13.2449C13.7627 13.1088 13.8154 12.9793 13.8927 12.8647L17.2081 15.1026ZM17.6759 13.9478C17.7468 13.5461 17.737 13.1343 17.6471 12.7365L13.7455 13.6184C13.7183 13.4981 13.7154 13.3737 13.7368 13.2523L17.6759 13.9478ZM17.6471 12.7365C17.5572 12.3386 17.3889 11.9626 17.1521 11.6305L13.8951 13.9526C13.8235 13.8522 13.7727 13.7386 13.7455 13.6184L17.6471 12.7365ZM17.1674 11.6522C16.7995 11.1215 16.2776 10.7164 15.6722 10.4917L14.2803 14.2416C14.1181 14.1815 13.9783 14.073 13.8798 13.9308L17.1674 11.6522ZM15.6722 10.4917C15.0668 10.2669 14.407 10.2334 13.782 10.3956L14.7865 14.2674C14.6191 14.3108 14.4424 14.3018 14.2803 14.2416L15.6722 10.4917ZM13.7699 10.3987C13.4686 10.4789 13.1813 10.6046 12.9179 10.7715L15.0587 14.1504C14.9783 14.2014 14.8906 14.2397 14.7986 14.2642L13.7699 10.3987ZM12.9132 10.7745L11.0721 11.9482L13.2223 15.3211L15.0634 14.1474L12.9132 10.7745ZM11.0747 11.9465C10.9436 12.0298 10.8005 12.0926 10.6505 12.1327L11.6832 15.9971C12.2267 15.8519 12.7448 15.6245 13.2197 15.3228L11.0747 11.9465ZM10.6636 12.1293C10.3006 12.2236 9.91728 12.2043 9.56556 12.0739L8.17525 15.8246C9.2947 16.2395 10.5145 16.301 11.67 16.0006L10.6636 12.1293ZM9.56556 12.0739C9.21383 11.9436 8.91058 11.7084 8.69678 11.4002L5.41015 13.6801C6.09064 14.6611 7.05579 15.4096 8.17525 15.8246L9.56556 12.0739ZM8.68073 11.3774C8.56104 11.2099 8.476 11.0201 8.43061 10.8193L4.52901 11.7011C4.69181 12.4214 4.99683 13.102 5.42619 13.7029L8.68073 11.3774ZM8.43061 10.8193C8.38523 10.6185 8.38041 10.4106 8.41643 10.2079L4.47814 9.508C4.34892 10.2351 4.36621 10.9807 4.52901 11.7011L8.43061 10.8193ZM8.4157 10.212C8.44842 10.0301 8.51874 9.85706 8.62217 9.7039L5.30719 7.46539C4.89226 8.07986 4.61014 8.77416 4.47888 9.50389L8.4157 10.212ZM8.62217 9.7039C8.7256 9.55073 8.85985 9.42084 9.01635 9.32253L6.88856 5.93542C6.26072 6.32983 5.72212 6.85093 5.30719 7.46539L8.62217 9.7039ZM9.02728 9.31561L13.8524 6.24072L11.7028 2.86745L6.87762 5.94234L9.02728 9.31561ZM13.8514 6.24141C13.9822 6.15816 14.1249 6.09542 14.2747 6.05536L13.2412 2.19118C12.6973 2.33665 12.1789 2.56448 11.7038 2.86676L13.8514 6.24141ZM14.2611 6.05895C14.6242 5.96457 15.0075 5.98388 15.3592 6.11427L16.7495 2.36366C15.6301 1.9487 14.4103 1.88725 13.2548 2.1876L14.2611 6.05895ZM15.3592 6.11427C15.711 6.24466 16.0142 6.47984 16.2281 6.78806L19.5146 4.50803C18.8341 3.5271 17.869 2.77862 16.7495 2.36366L15.3592 6.11427ZM16.2439 6.81061C16.3637 6.97819 16.4487 7.168 16.4941 7.36889L20.3957 6.48712C20.2329 5.76686 19.928 5.08634 19.4987 4.48548L16.2439 6.81061ZM16.4941 7.36889C16.5395 7.56978 16.5443 7.77771 16.5083 7.98048L20.4467 8.67996C20.5758 7.95291 20.5585 7.20739 20.3957 6.48712L16.4941 7.36889ZM16.5108 7.96685C16.4991 8.03003 16.4832 8.09235 16.463 8.15336L20.2612 9.40793C20.3384 9.17426 20.3995 8.93559 20.4442 8.6936L16.5108 7.96685ZM16.4613 8.15846L16.3705 8.43592L20.172 9.6803L20.2628 9.40283L16.4613 8.15846ZM19.4534 7.44488L19.2063 7.26379L16.842 10.4902L17.0891 10.6713L19.4534 7.44488ZM19.209 7.2658C18.4549 6.71121 17.6115 6.28954 16.7154 6.01898L15.5593 9.84828C16.0193 9.98714 16.4522 10.2036 16.8392 10.4882L19.209 7.2658ZM16.7175 6.01961L16.538 5.96523L15.3778 9.79326L15.5572 9.84765L16.7175 6.01961ZM17.9493 8.06439L17.966 7.88533L13.9832 7.51504L13.9665 7.6941L17.9493 8.06439ZM17.9673 7.8702C18.0291 7.14584 17.833 6.42292 17.4136 5.82908L14.1463 8.13661C14.0217 7.96017 13.9635 7.74539 13.9818 7.53018L17.9673 7.8702ZM17.4238 5.84356C17.0558 5.31266 16.5337 4.90752 15.9281 4.6829L14.5371 8.43325C14.3748 8.37304 14.2348 8.26444 14.1362 8.12213L17.4238 5.84356ZM15.9281 4.6829C15.3225 4.45827 14.6625 4.42499 14.0373 4.58754L15.0439 8.45881C14.8764 8.50238 14.6994 8.49346 14.5371 8.43325L15.9281 4.6829ZM14.0266 4.59035C13.7251 4.67054 13.4375 4.79634 13.174 4.96339L15.3154 8.34192C15.2348 8.39301 15.1468 8.43148 15.0546 8.456L14.0266 4.59035ZM13.1698 4.96607L8.34388 8.04169L10.4937 11.4149L15.3196 8.33925L13.1698 4.96607ZM8.35381 8.0354C8.0003 8.25779 7.69707 8.55147 7.46349 8.89769L10.7794 11.1348C10.7018 11.2498 10.6011 11.3473 10.4837 11.4212L8.35381 8.0354ZM7.46349 8.89769C7.22991 9.24391 7.07113 9.63505 6.99728 10.0461L10.9342 10.7534C10.9097 10.8899 10.857 11.0198 10.7794 11.1348L7.46349 8.89769ZM6.99652 10.0504C6.92521 10.4523 6.93474 10.8643 7.02453 11.2625L10.9265 10.3825C10.9537 10.5029 10.9566 10.6276 10.935 10.7491L6.99652 10.0504ZM7.02453 11.2625C7.11433 11.6606 7.28259 12.0369 7.51949 12.3693L10.7768 10.0477C10.8485 10.1482 10.8994 10.262 10.9265 10.3825L7.02453 11.2625ZM7.5045 12.348C7.87238 12.8786 8.3942 13.2836 8.99953 13.5083L10.3915 9.75831C10.5536 9.81848 10.6933 9.92692 10.7918 10.069L7.5045 12.348ZM8.99953 13.5083C9.60486 13.733 10.2646 13.7666 10.8896 13.6045L9.88544 9.73256C10.0528 9.68916 10.2294 9.69815 10.3915 9.75831L8.99953 13.5083ZM10.9028 13.601C11.2034 13.5208 11.4901 13.3954 11.753 13.229L9.6139 9.84906C9.69378 9.7985 9.78089 9.76039 9.87224 9.73603L10.9028 13.601ZM11.7583 13.2257L13.5992 12.0525L11.4495 8.67927L9.60864 9.8524L11.7583 13.2257ZM13.5985 12.053C13.7289 11.97 13.8711 11.9075 14.0204 11.8677L12.9891 8.00289C12.4446 8.14819 11.9256 8.37616 11.4502 8.67886L13.5985 12.053ZM14.008 11.8709C14.371 11.7766 14.7542 11.7959 15.1059 11.9262L16.4963 8.17566C15.3768 7.76069 14.157 7.69924 13.0015 7.99961L14.008 11.8709ZM15.1059 11.9262C15.4576 12.0566 15.7608 12.2918 15.9746 12.6L19.2613 10.3201C18.5808 9.33915 17.6157 8.59064 16.4963 8.17566L15.1059 11.9262ZM15.9906 12.6228C16.1103 12.7903 16.1954 12.9801 16.2408 13.1809L20.1424 12.2991C19.9796 11.5788 19.6745 10.8982 19.2452 10.2973L15.9906 12.6228ZM16.2408 13.1809C16.2862 13.3817 16.291 13.5896 16.2549 13.7923L20.1932 14.4922C20.3225 13.7651 20.3052 13.0195 20.1424 12.2991L16.2408 13.1809ZM16.2556 13.7888C16.2229 13.9708 16.1526 14.144 16.0492 14.2974L19.3654 16.534C19.7799 15.9195 20.0616 15.2252 20.1926 14.4956L16.2556 13.7888ZM16.0492 14.2974C15.9458 14.4507 15.8115 14.5807 15.655 14.6792L17.7854 18.0647C18.4128 17.6699 18.9509 17.1486 19.3654 16.534L16.0492 14.2974ZM15.6456 14.6852L10.8205 17.7591L12.9697 21.1327L17.7948 18.0587L15.6456 14.6852ZM10.8211 17.7587C10.6905 17.8419 10.5478 17.9046 10.3982 17.9446L11.4312 21.8089C11.9753 21.6634 12.4939 21.4355 12.969 21.1331L10.8211 17.7587Z" fill="#EA580C" mask="url(#path-1-outside-1_20571_794)"/>
</svg>
