<svg xmlns="http://www.w3.org/2000/svg" style="isolation:isolate" viewBox="0 0 48 48">
  <linearGradient id="a" x1="0" x2="1" y1=".5" y2=".5" gradientTransform="matrix(40 0 0 14.012 4 17.169)" gradientUnits="userSpaceOnUse">
    <stop offset="0%" stop-color="#ffa888"/>
    <stop offset="100%" stop-color="#f1e323"/>
  </linearGradient>
  <path fill="url(#a)" d="M7.791 17.17c-.003.004-.094.014-.201.027-.104.01-.225.027-.269.037-.04.01-.11.024-.157.03-.114.017-.369.088-.453.125-.037.013-.161.063-.279.11-.59.235-1.194.711-1.613 1.278-.094.128-.185.249-.198.269-.151.198-.47.976-.53 1.291-.108.561-.121 1.181-.034 1.594.145.691.352 1.154.752 1.687.1.134.822.886 1.607 1.668 1.023 1.023 1.439 1.466 1.486 1.566.164.362-.007.802-.383.97-.117.05-.238.06-.889.063-.412 0-.822.017-.905.034-.732.158-1.269.798-1.292 1.546-.02.584.245 1.101.738 1.443.335.228.577.272 1.573.272.742 0 1.01-.02 1.325-.091.047-.01.128-.027.182-.037.305-.053 1.184-.463 1.328-.617.01-.01.074-.06.144-.111.222-.167.561-.516.765-.795.376-.513.678-1.281.755-1.912.027-.235.03-.835.003-.973-.01-.047-.033-.178-.057-.295-.097-.544-.406-1.211-.761-1.661-.104-.134-.829-.879-1.607-1.66-1.55-1.553-1.553-1.553-1.513-1.886.06-.516.564-.811 1.023-.603.107.047 1.332 1.254 4.918 4.837 2.624 2.627 4.824 4.817 4.888 4.871.064.054.235.175.382.272 1.413.926 3.234.872 4.613-.128.215-.157.637-.577.805-.798l.118-.158.385.383c.339.332.43.416.588.543.02.014.13.091.248.168 1.335.886 3.214.869 4.552-.047.235-.161.312-.225.564-.466.557-.54.986-1.359 1.137-2.181.05-.255.057-1.144.013-1.359-.01-.047-.026-.137-.037-.201-.087-.446-.385-1.093-.711-1.53-.097-.134-.808-.875-1.58-1.647-.771-.771-1.439-1.456-1.483-1.516-.104-.144-.13-.47-.057-.644.067-.161.198-.316.332-.389.094-.054.222-.061 1.108-.071l.999-.01-.027.178c-.033.211-.03 1.003 0 1.167.014.064.031.161.041.218.043.229.164.588.288.853.309.66.269.613 3.684 4.039 1.744 1.751 3.294 3.277 3.442 3.391.573.446 1.097.681 1.811.809.309.053.849.07 1.107.033.356-.053.544-.094.782-.171 1.489-.48 2.576-1.815 2.741-3.361.083-.785-.118-1.332-.634-1.735-.52-.402-1.225-.446-1.815-.114-.483.269-.795.799-.826 1.389-.026.503-.412.802-.889.685-.157-.037-.278-.155-3.227-3.097-1.684-1.681-3.103-3.123-3.15-3.2-.158-.265-.097-.661.134-.883.181-.174.292-.197 1.013-.197.809 0 1.044-.047 1.393-.286 1.053-.714.959-2.257-.175-2.841-.339-.175-.295-.171-4.069-.175-3.744 0-3.932.007-4.361.121-.074.017-.158.041-.185.044-.1.023-.493.178-.637.251-.446.225-1.047.715-1.365 1.111-.222.278-.517.832-.645 1.201-.416 1.214-.244 2.489.473 3.563.172.258.47.577 1.681 1.791.809.812 1.496 1.52 1.527 1.577.12.235.06.6-.141.815-.168.181-.272.221-.574.221-.218 0-.292-.013-.386-.074-.064-.04-2.408-2.365-5.216-5.169-3.842-3.841-5.15-5.129-5.297-5.217-.363-.218-.816-.285-1.235-.188-.587.138-1.11.685-1.224 1.275-.081.42.02.903.261 1.258.051.074 1.637 1.681 3.529 3.573 3.134 3.137 3.442 3.452 3.479 3.59.074.265.034.469-.137.711-.168.231-.608.318-.886.174-.064-.037-2.295-2.241-4.958-4.898-3.841-3.841-4.891-4.871-5.099-5.008-.705-.47-1.409-.698-2.214-.718-.182-.004-.333-.007-.336-.004Z"/>
</svg>
