<svg width="24" height="24" viewBox="0 0 24 24" fill="none" xmlns="http://www.w3.org/2000/svg">
<path d="M16.2707 18.7082C16.3141 18.686 16.3554 18.6608 16.3944 18.633C16.7473 18.4985 17.1258 18.3972 17.4641 18.4184C17.7684 18.4373 18.098 18.549 18.3858 19.1175L18.3858 19.1176L18.39 19.1257C18.4403 19.2229 18.5925 19.4904 18.9275 19.6337C19.3704 19.8233 19.7758 19.6621 19.9996 19.4788C20.1823 19.3291 20.2743 19.1529 20.3142 19.0678C20.3627 18.9648 20.3946 18.8635 20.4164 18.7781C20.5002 18.4512 20.5208 18.0254 20.4791 17.5707C20.4016 16.7274 20.0941 15.6112 19.3228 14.4994C20.1744 10.7526 17.8291 6.60073 14.232 4.4266C13.8167 4.17564 13.2813 4.25894 12.9619 4.62418C12.6425 4.98942 12.6314 5.53121 12.9355 5.90924C13.582 6.71284 14.0399 7.65123 14.2757 8.65529C14.4472 9.38598 14.4978 10.1379 14.4274 10.8814C12.2832 9.3925 10.2827 7.70521 8.45253 5.84141C8.09346 5.47574 7.51607 5.44071 7.11543 5.76029C6.84031 5.97974 6.7097 6.31763 6.74446 6.64749C6.67125 6.59362 6.59711 6.53925 6.52203 6.48439C6.13912 6.20461 5.61234 6.23225 5.26082 6.55058C4.9093 6.86891 4.82971 7.39037 5.07027 7.79907C5.33182 8.24344 5.63326 8.66305 5.97084 9.05273C7.50159 11.0951 9.23676 12.9741 11.1485 14.6608C9.86309 14.9627 8.29072 14.8139 6.64677 14.048L6.64679 14.048L6.63797 14.044C6.09626 13.798 5.5862 13.4875 5.11886 13.1193C4.7364 12.818 4.19253 12.8359 3.83075 13.1618C3.46898 13.4876 3.39446 14.0267 3.65428 14.4384C4.8759 16.3745 6.65413 17.896 8.7555 18.8034C9.9267 19.3676 11.2125 19.6536 12.5127 19.6389C13.8206 19.6242 15.1071 19.3056 16.2707 18.7082Z" stroke="#EA580C" stroke-width="2" stroke-linejoin="round"/>
</svg>
