<svg width="25" height="24" viewBox="0 0 25 24" fill="none" xmlns="http://www.w3.org/2000/svg">
<path d="M15.4515 10.9796C15.7792 8.92232 15.0959 6.57743 13.5934 4.54053C13.3104 4.15687 13.3376 3.62678 13.6583 3.27408C13.9791 2.92138 14.5042 2.84416 14.9129 3.0896C19.2042 5.66652 21.9288 10.6224 20.9258 15.0591C21.8568 16.3633 22.2226 17.6859 22.3127 18.6805C22.3614 19.2171 22.3342 19.7081 22.2397 20.074C22.2151 20.1691 22.1803 20.2782 22.129 20.387C22.0862 20.4781 21.9917 20.6573 21.8082 20.8089C21.5859 20.9925 21.1779 21.1609 20.7274 20.9705C20.3849 20.8258 20.2286 20.5512 20.1755 20.448L20.1754 20.4478C19.7995 19.7163 19.3403 19.53 18.923 19.4959C18.4335 19.456 17.8882 19.6276 17.4731 19.8391C17.3874 19.8895 17.3035 19.9358 17.2252 19.978L17.2218 19.98C17.1885 20.0003 17.1544 20.0184 17.1197 20.0344C14.7126 21.29 11.5908 21.3305 8.54637 20.0222L8.54633 20.0221C5.9724 18.9159 3.86189 17.0246 2.4885 14.8278C2.23394 14.4207 2.30474 13.89 2.65714 13.5638C3.00954 13.2376 3.54404 13.208 3.93037 13.4932C4.52473 13.932 5.16552 14.3172 5.84559 14.6359C7.96956 15.6307 10.0264 15.7728 11.6765 15.2874C9.11086 13.0664 6.95658 10.4618 5.28109 8.33743C4.88521 7.86817 4.51554 7.36986 4.19917 6.84225C3.9438 6.41637 4.03963 5.86761 4.42422 5.55349C4.80882 5.23937 5.36565 5.25505 5.73196 5.59031C6.05022 5.8816 6.39421 6.18318 6.75391 6.4884C6.62849 6.30815 6.53002 6.16294 6.46379 6.06205C6.4317 6.01317 6.3987 5.96185 6.37344 5.91907C6.36659 5.90748 6.35677 5.89054 6.3462 5.87086L6.34564 5.86984C6.33935 5.85816 6.31308 5.80937 6.28895 5.74617C6.28876 5.74567 6.2885 5.745 6.28818 5.74417C6.28033 5.72397 6.23608 5.60995 6.22522 5.45952C6.22058 5.39536 6.20639 5.16005 6.34624 4.9055C6.4178 4.79355 6.61436 4.59326 6.73862 4.5119C6.866 4.45268 7.1142 4.39275 7.22949 4.38685C7.46832 4.3884 7.63887 4.47562 7.68836 4.5016C7.75859 4.53847 7.8094 4.57593 7.83461 4.59535C7.88621 4.63511 7.9227 4.67142 7.93631 4.68513L15.4515 10.9796ZM15.4515 10.9796C15.0204 10.6855 14.4271 10.267 13.7171 9.73125C12.1788 8.57054 10.0988 6.86408 7.93644 4.68526L15.4515 10.9796ZM17.2187 19.9818L17.2192 19.9815C17.218 19.9822 17.2171 19.9827 17.2171 19.9827L17.2187 19.9818ZM20.3018 19.5791C20.3018 19.5788 20.302 19.5782 20.3023 19.5774L20.3018 19.5791ZM21.954 19.5332L21.9541 19.5332C21.9538 19.5327 21.9535 19.5321 21.9532 19.5315C21.9535 19.5321 21.9538 19.5327 21.954 19.5332ZM20.8806 15.2485C20.8806 15.2484 20.8806 15.2484 20.8806 15.2484L20.1193 15.0574L20.8806 15.2485ZM20.1193 15.0574L20.625 14.664C20.6208 14.6585 20.6167 14.6533 20.6127 14.6485C20.6124 14.6481 20.6121 14.6476 20.6117 14.6472L20.11 15.055L20.0901 15.05L20.5839 14.6144L20.574 14.6034C20.5716 14.6008 20.5756 14.6051 20.5783 14.6082L20.1193 15.0574ZM20.0901 15.0501L20.11 15.055L20.0901 15.0501Z" stroke="#EA580C" stroke-width="2" stroke-linejoin="round"/>
</svg>
