<svg width="24" height="24" viewBox="0 0 24 24" fill="none" xmlns="http://www.w3.org/2000/svg">
<path fill-rule="evenodd" clip-rule="evenodd" d="M12.0002 6C9.33329 6 7.66692 7.32542 6.9999 9.97625C8.00004 8.65083 9.16674 8.1539 10.5 8.48506C11.2607 8.67396 11.8046 9.22262 12.4062 9.83007C13.3867 10.8192 14.5217 11.964 17.0001 11.964C19.6666 11.964 21.3334 10.6386 22 7.98813C21.0003 9.31354 19.8336 9.81048 18.5003 9.47893C17.7392 9.29003 17.1953 8.74136 16.5937 8.13431C15.6132 7.14436 14.4786 6 12.0002 6ZM6.9999 11.964C4.33339 11.964 2.66663 13.2894 2 15.9402C3.00014 14.6148 4.16683 14.1179 5.4997 14.449C6.26077 14.6379 6.80473 15.1866 7.40631 15.7941C8.38685 16.7832 9.52141 17.928 12.0002 17.928C14.6667 17.928 16.3335 16.6029 17.0001 13.9521C16 15.2775 14.8333 15.7745 13.5 15.4433C12.7393 15.254 12.1954 14.7053 11.5938 14.0983C10.6133 13.1091 9.4783 11.964 6.9999 11.964V11.964Z" fill="#0EA5E9"/>
</svg>
