<svg width="24" height="24" viewBox="0 0 24 24" fill="none" xmlns="http://www.w3.org/2000/svg">
<g clip-path="url(#clip0_33558_251)">
<path d="M15.5506 9.21773C15.5506 10.2833 14.6868 11.1471 13.6212 11.1471C12.5557 11.1471 11.692 10.2833 11.692 9.21773C11.692 8.15229 12.5557 7.2885 13.6213 7.2885C14.6868 7.2885 15.5506 8.15222 15.5506 9.21773Z" fill="#EAB308"/>
<path d="M10.3764 12.8132C9.31089 12.8132 8.44712 13.677 8.44712 14.7425C8.44712 15.8081 9.31089 16.6718 10.3764 16.6718C11.4419 16.6718 12.3057 15.8081 12.3057 14.7425C12.3057 13.677 11.4419 12.8132 10.3764 12.8132Z" fill="#0891B2"/>
<path d="M17.6201 15.4003C16.8447 15.9016 15.982 16.2526 15.077 16.4351C15.3393 15.6873 15.4263 14.8892 15.3313 14.1024C17.4374 13.3661 18.8343 11.3628 18.7972 9.13202C18.7599 6.90122 17.297 4.94548 15.1675 4.2799C13.038 3.61425 10.7216 4.3886 9.42064 6.20112C8.43902 6.31155 7.48378 6.59039 6.59689 7.02539C7.56046 3.91659 10.45 1.80855 13.7046 1.8402C16.9593 1.87184 19.8073 4.03563 20.7103 7.16264C21.6132 10.2896 20.3569 13.6386 17.6201 15.4002V15.4003ZM6.68464 8.36709L8.49118 8.58633C8.53216 8.23745 8.60856 7.89365 8.71921 7.56026C8.00462 7.72639 7.31887 7.99833 6.68464 8.36709Z" fill="#EAB308"/>
<path d="M6.36889 8.5601C7.14893 8.05372 8.01781 7.69962 8.9296 7.51653C8.6538 8.26422 8.55474 9.06559 8.6402 9.85793C6.54158 10.6046 5.15628 12.6105 5.20149 14.8376C5.24663 17.0646 6.71209 19.0128 8.83932 19.6737C10.9665 20.3346 13.2779 19.5598 14.5771 17.7505C15.5582 17.6428 16.5134 17.3669 17.4009 16.9349C16.435 20.0405 13.5469 22.145 10.2948 22.113C7.0427 22.0812 4.19638 19.9204 3.29152 16.7966C2.3866 13.6728 3.63746 10.3252 6.36896 8.5601H6.36889Z" fill="#0891B2"/>
</g>
<defs>
<clipPath id="clip0_33558_251">
<rect width="18" height="20.3203" fill="white" transform="translate(3 1.83984)"/>
</clipPath>
</defs>
</svg>
