<svg width="24" height="24" viewBox="0 0 24 24" fill="none" xmlns="http://www.w3.org/2000/svg">
<mask id="mask0_38271_220" style="mask-type:luminance" maskUnits="userSpaceOnUse" x="4" y="3" width="16" height="18">
<path d="M19.9446 3.00006H4V21.0001H19.9446V3.00006Z" fill="white"/>
</mask>
<g mask="url(#mask0_38271_220)">
<path d="M15.1175 9.53548C15.1175 10.4794 14.3524 11.2445 13.4084 11.2445C12.4646 11.2445 11.6995 10.4794 11.6995 9.53548C11.6995 8.59169 12.4646 7.82654 13.4085 7.82654C14.3524 7.82654 15.1175 8.59163 15.1175 9.53548Z" fill="#EAB308"/>
<path d="M10.5342 12.7204C9.59033 12.7204 8.8252 13.4856 8.8252 14.4294C8.8252 15.3733 9.59033 16.1384 10.5342 16.1384C11.478 16.1384 12.2432 15.3733 12.2432 14.4294C12.2432 13.4856 11.478 12.7204 10.5342 12.7204Z" fill="#0891B2"/>
<path d="M16.9507 15.0121C16.2638 15.4562 15.4996 15.7671 14.698 15.9287C14.9303 15.2663 15.0074 14.5594 14.9232 13.8624C16.7888 13.2102 18.0262 11.4356 17.9934 9.45957C17.9603 7.48349 16.6645 5.75107 14.7781 5.16149C12.8918 4.57185 10.8399 5.25778 9.68747 6.86334C8.81794 6.96116 7.97178 7.20816 7.18616 7.59348C8.0397 4.83967 10.5993 2.97234 13.4823 3.00037C16.3653 3.0284 18.8881 4.94511 19.688 7.71506C20.4878 10.485 19.375 13.4516 16.9507 15.0121ZM7.26389 8.78198L8.86415 8.97619C8.90045 8.66714 8.96812 8.3626 9.06614 8.06728C8.43314 8.21444 7.8257 8.45533 7.26389 8.78198Z" fill="#EAB308"/>
<path d="M6.98422 8.95297C7.67519 8.50441 8.44485 8.19075 9.25253 8.02856C9.00822 8.69088 8.92047 9.40074 8.99618 10.1026C7.13719 10.764 5.91007 12.5409 5.95012 14.5137C5.9901 16.4864 7.28823 18.2121 9.17256 18.7976C11.0568 19.383 13.1043 18.6967 14.2552 17.094C15.1242 16.9986 15.9704 16.7542 16.7565 16.3715C15.9009 19.1225 13.3426 20.9867 10.4618 20.9583C7.58109 20.9301 5.05978 19.0161 4.25824 16.249C3.45665 13.4819 4.56462 10.5165 6.98422 8.95297Z" fill="#0891B2"/>
</g>
</svg>
