<svg width="20" height="20" viewBox="0 0 20 20" fill="none" xmlns="http://www.w3.org/2000/svg">
<path fill-rule="evenodd" clip-rule="evenodd" d="M3.76371 3H16.2362L16.2565 7.17774H15.6597C15.4641 5.68738 14.9044 4.67918 13.9804 4.15318C13.4612 3.86321 12.6857 3.70473 11.6539 3.67773V14.5824C11.6539 15.3444 11.787 15.8502 12.0534 16.0997C12.3198 16.3492 12.8745 16.474 13.7175 16.474V17H6.33306V16.474C7.14232 16.474 7.68013 16.3475 7.94652 16.0946C8.21287 15.8418 8.34608 15.3377 8.34608 14.5824V3.67773C7.33451 3.70473 6.559 3.86321 6.01947 4.15318C5.02815 4.69268 4.46841 5.70087 4.34029 7.17774H3.74347L3.76371 3Z" fill="#2563EB"/>
</svg>
