<svg width="24" height="24" viewBox="0 0 24 24" fill="none" xmlns="http://www.w3.org/2000/svg">
<path d="M3.23446 9.09304V7.31818H11.5967V9.09304H8.47949V17.5H6.35165V9.09304H3.23446ZM18.4972 10.2464C18.4575 9.84541 18.2868 9.53385 17.9852 9.31179C17.6836 9.08972 17.2742 8.97869 16.7572 8.97869C16.4059 8.97869 16.1092 9.02841 15.8673 9.12784C15.6253 9.22396 15.4397 9.35819 15.3105 9.53054C15.1845 9.70289 15.1215 9.89844 15.1215 10.1172C15.1149 10.2995 15.153 10.4586 15.2359 10.5945C15.3221 10.7304 15.4397 10.848 15.5889 10.9474C15.738 11.0436 15.9104 11.1281 16.1059 11.201C16.3015 11.2706 16.5103 11.3303 16.7323 11.38L17.6471 11.5987C18.0912 11.6982 18.4989 11.8307 18.8701 11.9964C19.2413 12.1622 19.5628 12.366 19.8346 12.608C20.1064 12.8499 20.3169 13.1349 20.466 13.4631C20.6185 13.7912 20.6963 14.1674 20.6997 14.5916C20.6963 15.2147 20.5373 15.755 20.2224 16.2124C19.9108 16.6664 19.4601 17.0194 18.8701 17.2713C18.2835 17.5199 17.5758 17.6442 16.7472 17.6442C15.9253 17.6442 15.2094 17.5182 14.5995 17.2663C13.993 17.0144 13.519 16.6416 13.1776 16.1477C12.8396 15.6506 12.6623 15.0357 12.6457 14.3033H14.7288C14.752 14.6446 14.8498 14.9297 15.0221 15.1584C15.1978 15.3838 15.4314 15.5545 15.7231 15.6705C16.0181 15.7831 16.3512 15.8395 16.7224 15.8395C17.087 15.8395 17.4035 15.7865 17.672 15.6804C17.9437 15.5743 18.1542 15.4268 18.3034 15.2379C18.4525 15.049 18.5271 14.8319 18.5271 14.5866C18.5271 14.358 18.4591 14.1657 18.3232 14.0099C18.1907 13.8542 17.9951 13.7216 17.7366 13.6122C17.4814 13.5028 17.1682 13.4034 16.797 13.3139L15.6883 13.0355C14.8299 12.8267 14.1521 12.5002 13.6549 12.0561C13.1578 11.612 12.9108 11.0137 12.9142 10.2614C12.9108 9.64489 13.0749 9.1063 13.4063 8.6456C13.7411 8.1849 14.2001 7.82528 14.7835 7.56676C15.3668 7.30824 16.0297 7.17898 16.7721 7.17898C17.5278 7.17898 18.1874 7.30824 18.7508 7.56676C19.3176 7.82528 19.7584 8.1849 20.0732 8.6456C20.3881 9.1063 20.5505 9.63991 20.5605 10.2464H18.4972Z" fill="#2563EB"/>
</svg>
