<svg width="24" height="24" viewBox="0 0 24 24" fill="none" xmlns="http://www.w3.org/2000/svg">
<path fill-rule="evenodd" clip-rule="evenodd" d="M18 3H6C3.79086 3 2 4.79086 2 7V17C2 19.2091 3.79086 21 6 21H18C20.2091 21 22 19.2091 22 17V7C22 4.79086 20.2091 3 18 3ZM4 7C4 5.89543 4.89543 5 6 5H18C19.1046 5 20 5.89543 20 7V17C20 18.1046 19.1046 19 18 19H6C4.89543 19 4 18.1046 4 17V7ZM6.80575 9.18182V10.4545H8.55575V15H10.1126V10.4545H11.8626V9.18182H6.80575ZM15.3803 10.5568C15.5072 10.6629 15.5782 10.8106 15.5934 11H17.1048C17.1029 10.6193 17.0082 10.2869 16.8207 10.0028C16.6351 9.71686 16.3709 9.49527 16.0281 9.33807C15.6853 9.18087 15.279 9.10227 14.8093 9.10227C14.3491 9.10227 13.9409 9.17992 13.5849 9.33523C13.2307 9.49053 12.9532 9.70739 12.7525 9.9858C12.5536 10.2623 12.4551 10.5852 12.457 10.9545C12.4551 11.4091 12.6019 11.768 12.8974 12.0312C13.1947 12.2926 13.601 12.4792 14.1161 12.5909L14.6957 12.7159C14.9116 12.7633 15.083 12.8144 15.2099 12.8693C15.3368 12.9223 15.4277 12.983 15.4826 13.0511C15.5394 13.1174 15.5688 13.1951 15.5707 13.2841C15.5688 13.3788 15.5385 13.4631 15.4798 13.5369C15.421 13.6108 15.3349 13.6686 15.2212 13.7102C15.1076 13.7519 14.9665 13.7727 14.7979 13.7727C14.5972 13.7727 14.4239 13.7415 14.2781 13.679C14.1341 13.6165 14.0224 13.5246 13.9428 13.4034C13.8633 13.2822 13.8188 13.1326 13.8093 12.9545H12.3093C12.3112 13.4413 12.4154 13.8409 12.6218 14.1534C12.8301 14.464 13.1218 14.6941 13.4968 14.8438C13.8737 14.9934 14.315 15.0682 14.8207 15.0682C15.3131 15.0682 15.7345 14.9991 16.0849 14.8608C16.4371 14.7225 16.708 14.5208 16.8974 14.2557C17.0868 13.9905 17.1824 13.6667 17.1843 13.2841C17.1824 13.0625 17.1464 12.858 17.0763 12.6705C17.0082 12.483 16.9012 12.3144 16.7553 12.1648C16.6095 12.0133 16.422 11.8816 16.1928 11.7699C15.9637 11.6581 15.6881 11.5682 15.3661 11.5L14.8888 11.3977C14.7506 11.3693 14.6313 11.3371 14.5309 11.3011C14.4305 11.2652 14.3481 11.2254 14.2837 11.1818C14.2193 11.1364 14.172 11.0862 14.1417 11.0312C14.1133 10.9744 14.101 10.911 14.1048 10.8409C14.1067 10.7557 14.1322 10.6799 14.1815 10.6136C14.2307 10.5473 14.3065 10.4953 14.4087 10.4574C14.5129 10.4176 14.6464 10.3977 14.8093 10.3977C15.065 10.3977 15.2553 10.4508 15.3803 10.5568Z" fill="#2563EB"/>
</svg>
