<svg width="24" height="24" viewBox="0 0 24 24" fill="none" xmlns="http://www.w3.org/2000/svg">
<g clip-path="url(#clip0_22025_89)">
<path d="M11.2816 1.00657C8.72583 0.919334 6.17034 1.70449 4.05518 3.36216L5.46517 4.14738C7.13966 2.9259 9.25455 2.40247 11.2816 2.48971V1.00657Z" fill="url(#paint0_linear_22025_89)"/>
<path d="M18.7722 4.32186C17.0097 2.4897 14.7184 1.35553 12.251 1.09381V2.57694C14.3661 2.9259 16.2167 3.8856 17.7148 5.3688L18.7722 4.32186Z" fill="url(#paint1_linear_22025_89)"/>
<path d="M21.9448 11.4759C21.8568 9.20752 20.9755 6.93917 19.4774 5.01978L18.4197 6.06671C19.6536 7.72432 20.3587 9.55655 20.4468 11.4759H21.9448Z" fill="url(#paint2_linear_22025_89)"/>
<path d="M19.4774 18.9789C20.9755 17.0595 21.8568 14.7912 21.9448 12.5228H20.4468C20.3587 14.4422 19.6536 16.2744 18.4197 17.932L19.4774 18.9789Z" fill="url(#paint3_linear_22025_89)"/>
<path d="M12.251 22.9049C14.6304 22.6432 17.0097 21.509 18.7723 19.6769L17.7148 18.6299C16.2168 20.2004 14.2777 21.16 12.251 21.4217V22.9049Z" fill="url(#paint4_linear_22025_89)"/>
<path d="M4.05518 20.6366C6.17034 22.2942 8.72583 23.0794 11.2816 22.9922V21.509C9.25455 21.5963 7.22778 21.0728 5.46517 19.8514L4.05518 20.6366Z" fill="url(#paint5_linear_22025_89)"/>
<path d="M10.8792 5.93576C11.8211 5.93576 12.6904 6.09453 13.4872 6.41215C14.284 6.71953 14.9671 7.14984 15.5364 7.70309C16.1158 8.25641 16.566 8.90701 16.8869 9.65501C17.2079 10.3927 17.3682 11.1918 17.3682 12.0525C17.3682 12.9132 17.2079 13.7175 16.8869 14.4654C16.566 15.2031 16.1158 15.8486 15.5364 16.4018C14.9671 16.9551 14.284 17.3906 13.4872 17.7082C12.6904 18.0156 11.8211 18.1693 10.8792 18.1693C9.92709 18.1693 9.05239 18.0156 8.25561 17.7082C7.46895 17.3906 6.79131 16.9551 6.22199 16.4019C5.65267 15.8486 5.20781 15.2031 4.88691 14.4654C4.56602 13.7175 4.40564 12.9132 4.40564 12.0525C4.40564 11.1919 4.56602 10.3927 4.88691 9.65501C5.20781 8.90701 5.65267 8.25641 6.22199 7.70316C6.79131 7.14984 7.46895 6.71953 8.25561 6.41222C9.05239 6.09453 9.92716 5.93576 10.8792 5.93576ZM10.8792 8.85581C10.434 8.85581 10.0098 8.93772 9.6062 9.10169C9.21305 9.25541 8.86616 9.47568 8.56609 9.76258C8.26609 10.0494 8.02786 10.3876 7.85197 10.7769C7.67615 11.1662 7.5881 11.5914 7.5881 12.0525C7.5881 12.5136 7.67615 12.9387 7.85197 13.3281C8.02786 13.7175 8.26609 14.0556 8.56616 14.3425C8.86616 14.6294 9.21305 14.8547 9.6062 15.0186C10.0098 15.1724 10.434 15.2492 10.8792 15.2492C11.3243 15.2492 11.7434 15.1724 12.1366 15.0186C12.5402 14.8547 12.8922 14.6294 13.1922 14.3425C13.5027 14.0556 13.746 13.7175 13.9219 13.3281C14.0977 12.9387 14.1858 12.5136 14.1858 12.0525C14.1858 11.5914 14.0977 11.1662 13.9219 10.7769C13.746 10.3876 13.5027 10.0494 13.1923 9.76258C12.8922 9.47568 12.5402 9.25541 12.1366 9.10169C11.7434 8.93772 11.3243 8.85581 10.8792 8.85581Z" fill="black"/>
</g>
<defs>
<linearGradient id="paint0_linear_22025_89" x1="898.534" y1="1.00003" x2="898.534" y2="2200.88" gradientUnits="userSpaceOnUse">
<stop stop-color="#1E90FF"/>
<stop offset="1" stop-color="#FF1E56"/>
</linearGradient>
<linearGradient id="paint1_linear_22025_89" x1="87.1539" y1="-8.28551" x2="87.1539" y2="2191.59" gradientUnits="userSpaceOnUse">
<stop stop-color="#1E90FF"/>
<stop offset="1" stop-color="#FF1E56"/>
</linearGradient>
<linearGradient id="paint2_linear_22025_89" x1="-523.549" y1="-396.956" x2="-523.549" y2="1802.91" gradientUnits="userSpaceOnUse">
<stop stop-color="#1E90FF"/>
<stop offset="1" stop-color="#FF1E56"/>
</linearGradient>
<linearGradient id="paint3_linear_22025_89" x1="-523.549" y1="-1139.76" x2="-523.549" y2="1060.12" gradientUnits="userSpaceOnUse">
<stop stop-color="#1E90FF"/>
<stop offset="1" stop-color="#FF1E56"/>
</linearGradient>
<linearGradient id="paint4_linear_22025_89" x1="87.1547" y1="-1744.36" x2="87.1547" y2="455.508" gradientUnits="userSpaceOnUse">
<stop stop-color="#1E90FF"/>
<stop offset="1" stop-color="#FF1E56"/>
</linearGradient>
<linearGradient id="paint5_linear_22025_89" x1="898.534" y1="-1865.29" x2="898.534" y2="334.587" gradientUnits="userSpaceOnUse">
<stop stop-color="#1E90FF"/>
<stop offset="1" stop-color="#FF1E56"/>
</linearGradient>
<clipPath id="clip0_22025_89">
<rect width="18" height="22" fill="white" transform="translate(4 1)"/>
</clipPath>
</defs>
</svg>
