<svg width="24" height="24" viewBox="0 0 24 24" fill="none" xmlns="http://www.w3.org/2000/svg">
<path fill-rule="evenodd" clip-rule="evenodd" d="M12 16.5C14.4853 16.5 16.5 14.4853 16.5 12C16.5 9.51472 14.4853 7.5 12 7.5C9.51472 7.5 7.5 9.51472 7.5 12C7.5 14.4853 9.51472 16.5 12 16.5ZM12 13.75C12.9665 13.75 13.75 12.9665 13.75 12C13.75 11.0335 12.9665 10.25 12 10.25C11.0336 10.25 10.2501 11.0335 10.2501 12C10.2501 12.9665 11.0336 13.75 12 13.75Z" fill="#71717A"/>
<path fill-rule="evenodd" clip-rule="evenodd" d="M2 12C2 12 2 12 2 12L5.4 12L2 12ZM5.4762 13H2.05013C2.14763 13.9702 2.38669 14.9227 2.7612 15.8268C3.13917 16.7393 3.64952 17.5891 4.27437 18.3494L6.69598 15.9278C6.37592 15.4956 6.10915 15.0249 5.90239 14.5257C5.69912 14.035 5.55631 13.5226 5.4762 13ZM5.6924 19.7598L8.11602 17.3362C8.53618 17.642 8.99196 17.8978 9.47429 18.0976C9.96503 18.3009 10.4774 18.4437 11 18.5238V21.9499C10.0298 21.8524 9.07731 21.6133 8.17317 21.2388C7.27736 20.8677 6.442 20.3691 5.6924 19.7598Z" fill="#D1456D"/>
<path fill-rule="evenodd" clip-rule="evenodd" d="M15.8268 21.2388C14.9227 21.6133 13.9702 21.8524 13 21.9499V18.5238C13.5226 18.4437 14.035 18.3009 14.5257 18.0976C15.3265 17.7659 16.054 17.2798 16.6669 16.6669C17.2798 16.054 17.7659 15.3265 18.0976 14.5257C18.4293 13.725 18.6 12.8667 18.6 12H22C22 13.3132 21.7413 14.6136 21.2388 15.8268C20.7362 17.0401 19.9997 18.1425 19.0711 19.0711C18.1425 19.9997 17.0401 20.7362 15.8268 21.2388Z" fill="url(#paint0_linear_1_7)"/>
<path fill-rule="evenodd" clip-rule="evenodd" d="M13 5.47618C13.5226 5.5563 14.035 5.69911 14.5257 5.90238C15.3265 6.23406 16.054 6.72021 16.6669 7.33308C17.2798 7.94595 17.7659 8.67352 18.0976 9.47427C18.4293 10.275 18.6 11.1333 18.6 12H22C22 10.6868 21.7413 9.38641 21.2388 8.17315C20.7362 6.95989 19.9997 5.8575 19.0711 4.92892C18.1425 4.00033 17.0401 3.26374 15.8268 2.76119C14.9227 2.38668 13.9702 2.14762 13 2.05011V5.47618Z" fill="#338CCC"/>
<defs>
<linearGradient id="paint0_linear_1_7" x1="18" y1="12" x2="12" y2="18" gradientUnits="userSpaceOnUse">
<stop stop-color="#338CCC"/>
<stop offset="1" stop-color="#D1456D"/>
</linearGradient>
</defs>
</svg>
