<svg width="24" height="24" viewBox="0 0 24 24" fill="none" xmlns="http://www.w3.org/2000/svg">
<path d="M12 6C8.69162 6 6 8.69162 6 12C6 15.3084 8.69162 18 12 18C15.3084 18 18 15.3084 18 12C18 8.69162 15.3084 6 12 6ZM12 15.105C10.2849 15.105 8.89497 13.7151 8.89497 12C8.89497 10.2849 10.2849 8.89497 12 8.89497C13.7151 8.89497 15.105 10.2849 15.105 12C15.105 13.7151 13.7151 15.105 12 15.105Z" fill="#E4E4E7"/>
<path fill-rule="evenodd" clip-rule="evenodd" d="M12.5367 4.42474V1.99841C17.8105 2.28038 22 6.64656 22 11.9905C22 17.3345 17.8105 21.6995 12.5367 21.9827V19.5563C16.4672 19.2756 19.5797 15.9913 19.5797 11.9905C19.5797 7.98982 16.4672 4.7055 12.5367 4.42474ZM6.26091 16.9521C5.21898 15.7492 4.54735 14.2172 4.42754 12.5351H2C2.12585 14.8888 3.06734 17.0247 4.54251 18.6693L6.2597 16.9521H6.26091ZM11.4476 21.9827V19.5563C9.76431 19.4365 8.23227 18.7661 7.02939 17.723L5.3122 19.4402C6.95799 20.9165 9.09389 21.8568 11.4464 21.9827H11.4476Z" fill="url(#paint0_linear_22527_86)"/>
<defs>
<linearGradient id="paint0_linear_22527_86" x1="12.9289" y1="3.40353" x2="3.09285" y2="13.2396" gradientUnits="userSpaceOnUse">
<stop stop-color="#0096FF"/>
<stop offset="1" stop-color="#FF1E56"/>
</linearGradient>
</defs>
</svg>
