<svg width="24" height="24" viewBox="0 0 24 24" fill="none" xmlns="http://www.w3.org/2000/svg">
<path d="M19.8422 0.245395C16.8905 0.203676 14.6259 11.8857 14.6884 16.6726C15.6663 13.4509 17.1559 11.462 18.7276 11.117C16.1208 13.8388 15.36 18.6482 15.6254 23.232C13.9531 23.6262 12.6895 23.7872 12.2777 23.4621L12.2912 21.7766C12.3428 21.9842 12.419 22.1193 12.5339 22.1407C12.8305 18.3786 11.9319 15.1038 8.71791 14.2929C10.754 14.1851 11.9956 15.0893 12.9923 17.2864C13.0589 8.24325 16.0416 -0.156277 19.8422 0.00220753C20.4341 0.0269107 20.999 0.419864 21.5483 1.15843C21.0653 0.642614 20.3249 0.252192 19.8422 0.245395ZM6.06661 18.0315C5.26781 16.2259 3.65161 14.7552 2.41406 14.6521C4.27045 16.3366 5.72137 19.6467 5.74055 23.1544C5.3752 22.2904 5.42456 22.206 5.24142 21.7336C5.2125 22.5241 5.40155 22.7483 5.39555 23.9211C6.44489 24.0629 7.434 24.0431 8.27067 23.6144C8.08463 20.9079 8.10783 18.4055 10.4175 18.1325C9.21394 18.0304 8.65444 18.277 7.81331 18.8752C7.54252 14.1572 6.66061 9.20035 5.74055 4.90683C5.93114 10.0637 6.07687 14.7924 6.06661 18.0315Z" fill="#BACF29"/>
</svg>
