<svg width="24" height="24" viewBox="0 0 24 24" fill="none" xmlns="http://www.w3.org/2000/svg">
<path d="M18.5321 2.2045C16.0723 2.16973 14.1851 11.9047 14.2372 15.8938C15.0521 13.2091 16.2935 11.5517 17.6032 11.2642C15.4309 13.5323 14.7969 17.5402 15.0181 21.36C13.6245 21.6885 12.5715 21.8227 12.2283 21.5517L12.2396 20.1472C12.2826 20.3202 12.3461 20.4327 12.4418 20.4506C12.689 17.3155 11.9401 14.5865 9.26181 13.9107C10.9586 13.8209 11.9932 14.5744 12.8238 16.4053C12.8793 8.86937 15.3649 1.86977 18.5321 2.00184C19.0253 2.02243 19.4961 2.34989 19.9538 2.96536C19.5513 2.53551 18.9343 2.21016 18.5321 2.2045ZM7.0524 17.0262C6.38673 15.5216 5.0399 14.296 4.00861 14.2101C5.5556 15.6138 6.7647 18.3722 6.78068 21.2953C6.47622 20.5753 6.51735 20.505 6.36474 20.1113C6.34064 20.7701 6.49818 20.9569 6.49318 21.9342C7.36763 22.0524 8.19189 22.0359 8.88911 21.6787C8.73408 19.4232 8.75341 17.3379 10.6781 17.1104C9.67517 17.0253 9.20892 17.2308 8.50798 17.7293C8.28232 13.7977 7.5474 9.66696 6.78068 6.08902C6.9395 10.3864 7.06095 14.327 7.0524 17.0262Z" fill="#22C55E"/>
</svg>
