<svg width="24" height="24" viewBox="0 0 24 24" fill="none" xmlns="http://www.w3.org/2000/svg">
    <path fill="#F59E0B" d="M11.225 2 3.146 6.664v9.328l3.1-1.79v-3.655c-.003-.13.154-.221.268-.152l3.763 2.171a.36.36 0 0 1 .178.309v4.344c.002.13-.15.222-.264.152l-3.168-1.826-3.101 1.79L12 22l1.92-1.11a5 5 0 0 1-.37-5.171v-2.84c0-.13.073-.249.179-.31l3.76-2.173c.111-.07.269.022.267.155v2.455a5.03 5.03 0 0 1 3.1.89V6.664L12.772 2v3.578l3.168 1.828c.114.063.116.244 0 .305l-3.763 2.172a.35.35 0 0 1-.358 0L8.06 7.71c-.114-.064-.12-.244 0-.305l3.165-1.828Z"/>
    <path fill="#F59E0B" d="M15.575 15.348a1.505 1.505 0 0 1-1.084 1.878l-.44.109a4.3 4.3 0 0 0 .005 1.36l.406.098a1.505 1.505 0 0 1 1.091 1.889l-.14.475c.33.29.707.526 1.117.693l.371-.39a1.505 1.505 0 0 1 2.182 0l.375.395a4 4 0 0 0 1.116-.687l-.15-.516a1.505 1.505 0 0 1 1.085-1.878l.44-.109a4.3 4.3 0 0 0-.005-1.36l-.406-.098a1.505 1.505 0 0 1-1.09-1.889l.14-.475a4 4 0 0 0-1.118-.693l-.37.39a1.505 1.505 0 0 1-2.182 0l-.376-.395a4 4 0 0 0-1.116.686zM18 19.128c-.603 0-1.09-.505-1.09-1.128s.487-1.129 1.09-1.129 1.09.506 1.09 1.129-.487 1.129-1.09 1.129"/>
</svg>
