<svg width="24" height="24" viewBox="0 0 24 24" fill="none" xmlns="http://www.w3.org/2000/svg">
    <path fill="#8B5CF6" d="m12.774 5.578 3.167 1.828c.114.063.116.244 0 .305l-3.764 2.172a.35.35 0 0 1-.356 0l-3.76-2.172c-.115-.064-.12-.244 0-.305l3.163-1.828V2L3.146 6.664v9.328-.042.042l3.1-1.79v-3.655c-.003-.13.153-.222.267-.153l3.764 2.173a.36.36 0 0 1 .178.308v4.344c.002.13-.15.223-.264.153l-3.167-1.828-3.103 1.792L12 22l8.078-4.664-3.097-1.789-3.167 1.828c-.111.067-.27-.02-.264-.153v-4.344c0-.13.072-.247.178-.309l3.76-2.172c.112-.07.27.02.268.153v3.656l3.1 1.789V6.664L12.774 2z"/>
</svg>
