<svg width="24" height="24" viewBox="0 0 24 24" fill="none" xmlns="http://www.w3.org/2000/svg">
    <path fill="#F59E0B" d="M11.225 2 3.146 6.664v9.328l3.1-1.79v-3.655c-.003-.13.154-.221.268-.152l3.763 2.171a.36.36 0 0 1 .178.309v4.344c.002.13-.15.222-.264.152l-3.168-1.826-3.101 1.79L12 22l1-.578V13h.55v-.121c0-.13.073-.249.179-.31l3.76-2.173c.111-.07.269.022.267.155V13h3.1V6.664L12.772 2v3.578l3.168 1.828c.114.063.116.244 0 .305l-3.763 2.172a.35.35 0 0 1-.358 0L8.06 7.71c-.114-.064-.12-.244 0-.305l3.165-1.828z"/>
    <path stroke="#F59E0B" stroke-width="2" d="M15 15h6v6m-6 0 6-6" style="display:inline;stroke-linecap:round;stroke-linejoin:round"/>
</svg>
