<svg width="24" height="24" viewBox="0 0 24 24" fill="none" xmlns="http://www.w3.org/2000/svg">
<g clip-path="url(#clip0_24689_502)">
<path d="M12.609 16.7363C12.609 14.4769 14.4406 12.6454 16.6999 12.6454C18.9592 12.6454 20.7908 14.4769 20.7908 16.7363C20.7908 18.9956 18.9592 20.8272 16.6999 20.8272C14.4406 20.8272 12.609 18.9956 12.609 16.7363Z" fill="#71717A"/>
<path d="M12.609 7.33636C12.609 5.07702 14.4406 3.24545 16.6999 3.24545C18.9592 3.24545 20.7908 5.07702 20.7908 7.33636V11.0182C20.7908 11.2441 20.6076 11.4273 20.3817 11.4273H13.0181C12.7922 11.4273 12.609 11.2441 12.609 11.0182V7.33636Z" fill="#D4D4D8"/>
<path d="M11.3455 16.7363C11.3455 18.9956 9.51395 20.8272 7.25461 20.8272C4.99526 20.8272 3.1637 18.9956 3.1637 16.7363L3.1637 13.0545C3.1637 12.8285 3.34685 12.6454 3.57279 12.6454H10.9364C11.1624 12.6454 11.3455 12.8285 11.3455 13.0545V16.7363Z" fill="#3F3F46"/>
</g>
<defs>
<clipPath id="clip0_24689_502">
<rect width="18" height="18" fill="white" transform="translate(3 3)"/>
</clipPath>
</defs>
</svg>
