<svg xmlns="http://www.w3.org/2000/svg" width="500" height="500" style="isolation:isolate"><defs><clipPath id="a"><path d="M0 0h500v500H0z"/></clipPath></defs><g clip-path="url(#a)"><path fill="#536B8A" d="M318 454 464 50c2-7-2-12-9-12L341 49c-7 1-15 7-18 14L189 449c-3 7 1 13 9 13h111c4 0 7-3 9-7v-1Z"/><defs><filter id="b" width="400%" height="400%" x="-200%" y="-200%" color-interpolation-filters="sRGB" filterUnits="objectBoundingBox"><feGaussianBlur xmlns="http://www.w3.org/2000/svg" in="SourceGraphic" stdDeviation="6.4"/><feOffset xmlns="http://www.w3.org/2000/svg" result="pf_100_offsetBlur"/><feFlood xmlns="http://www.w3.org/2000/svg" flood-color="#000" flood-opacity=".7"/><feComposite xmlns="http://www.w3.org/2000/svg" in2="pf_100_offsetBlur" operator="in" result="pf_100_dropShadow"/><feBlend xmlns="http://www.w3.org/2000/svg" in="SourceGraphic" in2="pf_100_dropShadow"/></filter></defs><g filter="url(#b)"><path fill="#EBEBEB" d="m302 455-61-174 9-6 62 179-10 1Z"/></g><path fill="#5D87BF" d="m45 38 114 11c7 1 15 7 18 14l137 392c1 4-1 7-4 7H198c-8 0-15-6-18-13L36 50c-2-7 2-12 9-12Z"/></g></svg>
