<svg width="24" height="24" viewBox="0 0 24 24" fill="none" xmlns="http://www.w3.org/2000/svg">
<path d="M19.1389 12.7801C19.104 12.7968 19.0691 12.818 19.0342 12.8393C19.0327 12.6176 18.9158 12.5098 18.8338 12.3929C18.4391 11.8282 17.677 12.0422 17.4523 12.5614C17.4219 12.6328 17.9169 13.278 17.8956 13.3478C17.5677 13.4951 17.2519 13.8336 17.1881 14.1297C17.2534 13.8245 17.0257 13.6818 16.6811 13.7957C16.3365 13.9095 16.0101 14.2375 15.963 14.5411C16.0116 14.2375 15.7657 14.072 15.4135 14.157C15.0612 14.242 14.747 14.5441 14.7151 14.8462C14.747 14.5441 14.4828 14.3544 14.1276 14.4075C13.7723 14.4606 13.4687 14.7369 13.4535 15.0375C13.4672 14.7354 13.1879 14.5214 12.8296 14.5411C12.4713 14.5608 12.1813 14.8098 12.1844 15.1119C12.1813 14.8113 11.8868 14.5684 11.5285 14.5563C11.1703 14.5441 10.894 14.7643 10.9137 15.0664C10.894 14.7643 10.5843 14.4955 10.229 14.45C9.87226 14.4045 9.61266 14.5988 9.6491 14.9009C9.61266 14.5988 9.29082 14.3027 8.93861 14.2253C8.58641 14.1479 8.34351 14.3179 8.39664 14.6215C8.34351 14.3194 8.01103 13.9976 7.66338 13.8898C7.31573 13.7835 7.09105 13.9308 7.1624 14.2344C7.09256 13.9308 6.32591 12.648 6.24241 12.4582C6.01773 11.939 5.58506 11.7751 5.21463 12.1121C5.06282 12.2502 4.9687 12.5007 5.04612 12.8696C4.80474 12.8028 4.68481 12.9197 4.77286 13.1763C5.2541 14.5821 5.72928 16.0122 6.12399 17.4498C6.29251 18.0647 6.46709 18.8617 6.962 19.3202C7.31725 19.6481 7.76054 19.8758 8.18714 20.0595C9.46085 20.606 10.8742 20.773 12.1905 20.7821C13.5993 20.7912 15.3907 20.4512 16.6371 19.7422C17.1092 19.475 17.5586 19.1638 17.7696 18.64C18.1172 17.7717 18.3693 16.8608 18.6349 15.9894C18.937 14.9996 19.1648 13.949 19.5564 13.0245C19.6536 12.7208 19.4684 12.6161 19.1389 12.7801Z" fill="#48A2AD"/>
<path d="M12.1434 16.7712C15.9172 16.7712 18.9765 15.5417 18.9765 14.0249C18.9765 12.5082 15.9172 11.2786 12.1434 11.2786C8.36953 11.2786 5.31024 12.5082 5.31024 14.0249C5.31024 15.5417 8.36953 16.7712 12.1434 16.7712Z" fill="#854D0E"/>
<path d="M17.9457 10.1036C17.8182 9.97458 17.6618 9.85313 17.4751 9.74686C17.4751 9.74686 13.1211 11.1633 10.0909 11.0099C7.06069 10.8566 7.50702 10.5257 5.96763 11.5064C5.96763 11.5064 5.54711 12.1075 6.06024 12.4734C6.73125 12.9516 7.57837 13.3463 8.50747 13.6469C8.61981 13.565 8.73215 13.5133 8.82779 13.5133C11.7168 12.5099 17.3369 13.782 17.9457 10.1036Z" fill="#F472B6"/>
<path d="M17.9457 10.1036C17.3369 13.782 11.7168 12.5098 8.8293 13.5133C8.73366 13.5133 8.62131 13.5634 8.50897 13.6469C10.8393 14.3999 13.6904 14.5532 15.5941 13.9202C17.9852 13.1277 19.0646 11.2377 17.9457 10.1036Z" fill="#DB2777"/>
<path opacity="0.5" d="M17.9457 10.1036C17.3369 13.782 11.7168 12.5098 8.8293 13.5133C8.73366 13.5133 8.62131 13.5634 8.50897 13.6469C10.8393 14.3999 13.6904 14.5532 15.5941 13.9202C17.9852 13.1277 19.0646 11.2377 17.9457 10.1036Z" fill="#F472B6"/>
<path d="M16.7114 7.39374C16.7114 7.39374 17.5358 7.88258 17.5358 9.14718C17.5358 10.4118 16.4837 12.0514 11.8155 11.5823C7.18819 11.1162 5.99342 11.5109 5.99342 11.5109C5.99342 11.5109 4.57549 9.58592 7.53888 9.59654C10.1911 9.60565 14.1352 9.91839 15.0643 9.32935C16.4473 8.44884 16.4989 8.42455 16.7114 7.39374Z" fill="#F9A8D4"/>
<path d="M11.3221 6.45402C12.7582 5.5568 12.6808 4.25273 11.9961 3.14297C11.9217 3.18548 11.8777 3.27505 11.9156 3.36766C12.0659 3.72897 12.1995 4.23906 11.9566 4.58216C11.5452 5.16209 10.7831 5.30935 9.53673 6.00465C8.34803 6.66656 7.89107 7.2981 7.80757 8.09056C7.79998 8.16495 7.84249 8.2363 7.91233 8.27122C8.04592 8.33802 8.30097 8.44732 8.68657 8.54752C9.10558 7.51064 10.3671 6.93071 11.3221 6.45402Z" fill="#F472B6"/>
<path d="M14.4555 4.78558C13.8133 4.09331 13.0542 3.52857 12.1752 3.13385C12.1115 3.10501 12.0462 3.11412 11.9946 3.14296C12.6793 4.2512 12.7567 5.55527 11.3205 6.454C10.3671 6.9307 9.10558 7.51062 8.68506 8.5475C9.10406 8.65681 9.67792 8.75549 10.4248 8.77826C12.2557 8.83291 14.7227 8.73272 15.1417 8.01464C15.5622 7.29808 15.2115 5.60081 14.4555 4.78558Z" fill="#F9A8D4"/>
<path d="M16.5824 7.14628C16.6173 7.05823 16.6431 6.96714 16.6613 6.87605C16.1695 6.12306 15.0187 5.8923 15.0187 5.8923C16.2666 8.54903 9.77206 7.97062 7.93208 8.07993C7.14873 8.12699 6.69936 8.47161 6.43976 8.85418C6.82385 8.65378 7.27321 8.54296 7.7241 8.39266C10.6298 7.7004 15.336 10.6076 16.5824 7.14628Z" fill="#F472B6"/>
<path d="M16.8435 7.29204C16.8076 7.14376 16.746 7.00296 16.6613 6.87607C16.6431 6.96867 16.6173 7.05824 16.5824 7.1463C15.336 10.6076 10.6298 7.70041 7.72255 8.39268C7.27318 8.54298 6.82229 8.65228 6.43821 8.85419C6.08752 9.36884 6.086 9.94876 6.086 9.94876C7.97911 9.37491 9.37579 9.9518 13.0148 10.0049C16.6537 10.055 17.1046 8.37902 16.8435 7.29204Z" fill="#DB2777"/>
<path opacity="0.5" d="M16.8435 7.29204C16.8076 7.14376 16.746 7.00296 16.6613 6.87607C16.6431 6.96867 16.6173 7.05824 16.5824 7.1463C15.336 10.6076 10.6298 7.70041 7.72255 8.39268C7.27318 8.54298 6.82229 8.65228 6.43821 8.85419C6.08752 9.36884 6.086 9.94876 6.086 9.94876C7.97911 9.37491 9.37579 9.9518 13.0148 10.0049C16.6537 10.055 17.1046 8.37902 16.8435 7.29204Z" fill="#F472B6"/>
<path d="M19.142 13.8321C18.8095 13.987 18.4618 14.3422 18.3753 14.6383C18.4634 14.3422 18.2584 14.2162 17.9184 14.3422C17.5768 14.4682 17.2367 14.7946 17.1654 15.0846C17.2367 14.7946 17.012 14.6504 16.6644 14.7476C16.3167 14.8447 15.9843 15.1438 15.9311 15.4292C15.9858 15.1438 15.7429 14.9798 15.3907 15.0481C15.0385 15.1165 14.7166 15.3897 14.6802 15.6721C14.7181 15.3897 14.457 15.2045 14.1018 15.244C13.745 15.2835 13.4368 15.5324 13.4171 15.8118C13.4368 15.5324 13.162 15.3244 12.8038 15.3351C12.4455 15.3457 12.151 15.5704 12.1479 15.8497C12.151 15.5704 11.861 15.3396 11.5027 15.3214C11.146 15.3032 10.8651 15.5051 10.8803 15.786C10.8666 15.5051 10.563 15.2516 10.2062 15.2045C9.851 15.1575 9.58684 15.3381 9.61872 15.6205C9.58684 15.3381 9.27259 15.0573 8.92038 14.9829C8.56818 14.9085 8.32376 15.0664 8.37082 15.3533C8.32224 15.0664 7.99736 14.7612 7.65122 14.6565C7.30509 14.5517 7.07889 14.6929 7.14417 14.9844C7.07889 14.6929 6.7449 14.3589 6.40635 14.2268C6.06781 14.0948 5.86134 14.2162 5.94332 14.5138C5.86134 14.2162 5.52128 13.8534 5.19185 13.6925C4.86241 13.5315 4.6772 13.6363 4.77436 13.9414C5.16604 14.8614 5.39528 15.8922 5.69739 16.8456C5.96458 17.6851 6.21659 18.555 6.56576 19.3642C6.77678 19.853 7.22311 20.1111 7.6998 20.3267C9.0646 20.9415 10.6586 21.1009 12.1373 21.1146C13.4733 21.1283 14.8578 21.0114 16.1315 20.5878C16.5596 20.4451 17.0029 20.2675 17.3582 19.9836C17.8546 19.5874 18.0292 18.8298 18.1992 18.2438C18.6046 16.8411 19.0828 15.4732 19.5534 14.0917C19.6566 13.7851 19.4744 13.6773 19.142 13.8321Z" fill="#22D3EE"/>
</svg>
