<svg width="24" height="24" viewBox="0 0 24 24" fill="none" xmlns="http://www.w3.org/2000/svg">
<path d="M6.29992 18.2249L3.3001 15.9749C3.20657 15.9055 3.13067 15.8149 3.07854 15.7107C3.02641 15.6065 2.99951 15.4915 3.00001 15.375V8.62499C2.99951 8.50846 3.02641 8.39346 3.07854 8.28926C3.13067 8.18505 3.20657 8.09456 3.3001 8.02508L6.29992 5.77507C6.21933 5.85074 6.15843 5.94493 6.1225 6.04948C6.08658 6.15403 6.07671 6.26576 6.09376 6.37498V17.625C6.07671 17.7343 6.08658 17.846 6.1225 17.9505C6.15843 18.0551 6.21933 18.1492 6.29992 18.2249Z" fill="#7E22CE"/>
<path d="M20.6661 6.12383C20.5425 6.04265 20.3978 5.99961 20.2499 6.00009C20.1541 5.99931 20.059 6.01745 19.9702 6.05346C19.8814 6.08946 19.8006 6.14262 19.7324 6.2099L19.6801 6.26249L16.4923 9.31884L13.6951 12L10.3836 15.1762L7.31995 18.1124L7.26737 18.165C7.19921 18.2324 7.1184 18.2856 7.02959 18.3217C6.94077 18.3577 6.84571 18.3759 6.74986 18.3751C6.58761 18.3748 6.42979 18.3221 6.29987 18.2249L3.30005 15.9749C3.45245 16.0894 3.64276 16.1415 3.83223 16.1206C4.0217 16.0997 4.19608 16.0074 4.31986 15.8624L6.00005 13.9125L7.64987 11.9963L10.3836 8.82384L15.1724 3.26239C15.242 3.18003 15.3287 3.11387 15.4265 3.06854C15.5243 3.02321 15.6309 2.99982 15.7386 2.99999C15.8865 2.99951 16.0313 3.04255 16.1549 3.12374L20.6661 6.12383Z" fill="#9333EA"/>
<path d="M20.6661 17.8762L16.1661 20.8763C16.0131 20.9763 15.8291 21.0176 15.6479 20.9928C15.4667 20.968 15.3007 20.8788 15.1801 20.7412L10.3836 15.1762L7.64987 11.9964L6.00005 10.0839L4.31986 8.13367C4.19497 7.99018 4.02043 7.89925 3.83128 7.8791C3.64212 7.85896 3.45235 7.91113 3.30005 8.0251L6.29987 5.77511C6.42979 5.67791 6.58761 5.62524 6.74986 5.62492C6.84571 5.6241 6.94077 5.64225 7.02959 5.67831C7.1184 5.71436 7.19921 5.76762 7.26737 5.83501L7.31995 5.8876L10.3836 8.82386L13.6951 12L16.4963 14.6851L19.6801 17.7375L19.7324 17.7902C19.8006 17.8574 19.8814 17.9105 19.9702 17.9465C20.059 17.9825 20.1541 18.0007 20.2499 17.9999C20.3978 18.0004 20.5425 17.9574 20.6661 17.8762Z" fill="#A855F7"/>
<path d="M21.0001 6.74986V17.25C21.0002 17.3739 20.9698 17.4957 20.9115 17.6049C20.8533 17.7141 20.769 17.8073 20.6662 17.8762L16.1661 20.8762C16.2691 20.8073 16.3533 20.7141 16.4115 20.6049C16.4697 20.4956 16.5001 20.3737 16.5 20.2499V3.75004C16.4984 3.62534 16.466 3.50295 16.4058 3.39371C16.3457 3.28447 16.2595 3.19173 16.1549 3.1237L20.6662 6.1238C20.7687 6.19293 20.8528 6.28614 20.911 6.39529C20.9692 6.50443 20.9998 6.62618 21.0001 6.74986Z" fill="#C084FC"/>
<path opacity="0.4" d="M21.0001 6.74986V17.25C21.0002 17.3739 20.9698 17.4957 20.9115 17.6049C20.8533 17.7141 20.769 17.8073 20.6662 17.8762L16.1661 20.8762C16.2691 20.8073 16.3533 20.7141 16.4115 20.6049C16.4697 20.4956 16.5001 20.3737 16.5 20.2499V3.75004C16.4984 3.62534 16.466 3.50295 16.4058 3.39371C16.3457 3.28447 16.2595 3.19173 16.1549 3.1237L20.6662 6.1238C20.7687 6.19293 20.8528 6.28614 20.911 6.39529C20.9692 6.50443 20.9998 6.62618 21.0001 6.74986Z" fill="#7E22CE"/>
</svg>
