<svg width="25" height="24" viewBox="0 0 25 24" fill="none" xmlns="http://www.w3.org/2000/svg">
<path d="M18.7612 7.06921L12.7846 15.9035C12.7213 15.9971 12.6296 16.0673 12.5236 16.1033C12.4176 16.1393 12.303 16.139 12.1972 16.1028C12.0914 16.0665 12.0002 15.9959 11.9374 15.9021C11.8746 15.8081 11.8436 15.6958 11.8492 15.5824L12.0884 10.705L8.22686 9.86774C8.14433 9.84987 8.06744 9.81154 8.00299 9.75617C7.93854 9.70082 7.88852 9.63011 7.85736 9.55032C7.8262 9.47054 7.81487 9.38414 7.82436 9.29877C7.83386 9.21342 7.86387 9.13173 7.91177 9.06094L13.8885 0.226662C13.9518 0.132944 14.0435 0.062795 14.1495 0.0268329C14.2555 -0.00912928 14.3701 -0.00894334 14.4759 0.0273908C14.5817 0.0637079 14.6729 0.134178 14.7357 0.228116C14.7985 0.322037 14.8295 0.434285 14.8239 0.547836L14.5847 5.42531L18.4462 6.26245C18.5287 6.28034 18.6056 6.31867 18.6701 6.37402C18.7346 6.42939 18.7846 6.5001 18.8156 6.57989C18.8469 6.65967 18.8582 6.74607 18.8487 6.83142C18.8393 6.91679 18.8092 6.99841 18.7612 7.06921Z" fill="#FBBF24"/>
<path d="M12.4975 24C12.6565 24.0002 12.8139 23.9688 12.9608 23.9075C13.1077 23.8461 13.241 23.7561 13.3533 23.6427L19.0005 17.9499C19.2265 17.721 19.3531 17.411 19.3526 17.0881C19.3523 16.7651 19.2248 16.4554 18.9982 16.2271C18.7717 15.9987 18.4645 15.8701 18.1442 15.8696C17.8238 15.8693 17.5164 15.9969 17.2892 16.2246L12.4975 21.0547L2.05881 10.5316C1.83124 10.3059 1.52442 10.18 1.2052 10.1813C0.885961 10.1826 0.580167 10.311 0.354437 10.5386C0.128701 10.7662 0.00130996 11.0744 1.00462e-05 11.3963C-0.00128987 11.7181 0.123608 12.0274 0.347497 12.2568L11.642 23.6427C11.7542 23.7562 11.8876 23.8461 12.0344 23.9075C12.1812 23.9688 12.3386 24.0002 12.4975 24Z" fill="#14B8A6"/>
<path d="M12.5024 24C12.3434 24.0002 12.186 23.9688 12.0391 23.9075C11.8923 23.8461 11.7589 23.7561 11.6466 23.6427L5.99938 17.9499C5.77347 17.721 5.64683 17.411 5.64725 17.0881C5.64768 16.7651 5.77512 16.4554 6.00167 16.2271C6.22819 15.9987 6.53532 15.8701 6.85569 15.8696C7.17607 15.8693 7.48355 15.9969 7.71071 16.2246L12.5024 21.0547L22.9411 10.5316C23.1687 10.3059 23.4755 10.18 23.7947 10.1813C24.114 10.1826 24.4198 10.311 24.6454 10.5386C24.8712 10.7662 24.9987 11.0744 25 11.3963C25.0011 11.7181 24.8763 12.0274 24.6524 12.2568L13.3579 23.6427C13.2457 23.7562 13.1123 23.8461 12.9655 23.9075C12.8187 23.9688 12.6613 24.0002 12.5024 24Z" fill="#14B8A6"/>
</svg>
