<svg width="25" height="24" viewBox="0 0 25 24" fill="none" xmlns="http://www.w3.org/2000/svg">
<path d="M20.9404 5.66759L12.4849 20.7875C12.3104 21.0997 11.8618 21.1015 11.6846 20.7909L3.06148 5.66905C2.86844 5.33052 3.15792 4.92046 3.54154 4.98903L12.0061 6.50202C12.0601 6.51167 12.1154 6.51158 12.1694 6.50174L20.4569 4.9912C20.8392 4.92151 21.1301 5.32839 20.9404 5.66759Z" fill="#A855F7"/>
<path d="M16.0382 3.00444L9.78091 4.23053C9.67807 4.25069 9.60192 4.33784 9.59572 4.44244L9.2108 10.9433C9.20175 11.0964 9.34237 11.2153 9.49181 11.1808L11.2339 10.7787C11.3969 10.7411 11.5442 10.8847 11.5107 11.0486L10.9931 13.5831C10.9583 13.7537 11.1185 13.8996 11.285 13.849L12.3611 13.5221C12.5279 13.4714 12.6882 13.6177 12.6529 13.7884L11.8303 17.7696C11.7789 18.0186 12.1101 18.1544 12.2482 17.9409L12.3405 17.7983L17.4393 7.62274C17.5247 7.45236 17.3775 7.25809 17.1904 7.2942L15.3971 7.64029C15.2286 7.67278 15.0852 7.51585 15.1328 7.35098L16.3032 3.2936C16.3508 3.12846 16.2069 2.97139 16.0382 3.00444Z" fill="#FBBF24"/>
</svg>
