<svg width="24" height="24" viewBox="-4 -4 56 54" fill="none" xmlns="http://www.w3.org/2000/svg">
<path d="M25.9456 44.9383C25.2821 45.7827 23.925 45.3131 23.925 44.2403V33.9369C23.925 32.6875 22.9126 31.6751 21.6631 31.6751H10.287C9.36714 31.6751 8.83075 30.6346 9.36713 29.8871L16.8464 19.4157C17.917 17.9185 16.8464 15.8376 15.0046 15.8376H1.23731C0.317479 15.8376 -0.218913 14.7972 0.317475 14.0497L10.0134 0.4741C10.2266 0.176825 10.5692 0.000183105 10.9332 0.000183105H39.8271C40.7469 0.000183105 41.2833 1.04065 40.7469 1.78814L33.2676 12.2595C32.197 13.7567 33.2676 15.8376 35.1094 15.8376H46.4856C47.4291 15.8376 47.959 16.9255 47.3753 17.6687L25.9478 44.9404L25.9456 44.9383Z" fill="#8B5CF6"/>
</svg>
