<svg width="24" height="24" viewBox="0 0 24 24" fill="none" xmlns="http://www.w3.org/2000/svg">
<path fill-rule="evenodd" clip-rule="evenodd" d="M12.4166 15.6212C12.4166 15.9419 12.7638 16.1424 13.0416 15.982L15.7609 14.412C15.8898 14.3376 15.9692 14.2 15.9692 14.0512V10.9112C15.9692 10.5905 15.622 10.39 15.3442 10.5504L12.6249 12.1204C12.496 12.1948 12.4166 12.3323 12.4166 12.4812V15.6212ZM14.9275 9.82869C15.2053 9.66832 15.2053 9.26738 14.9275 9.107L12.2083 7.53702C12.0793 7.46259 11.9205 7.46259 11.7916 7.53702L9.02738 9.13294C8.7496 9.29332 8.7496 9.69425 9.02738 9.85463L11.7467 11.4246C11.8756 11.499 12.0344 11.499 12.1633 11.4246L14.9275 9.82869ZM8.65564 10.6023C8.37786 10.4419 8.03064 10.6423 8.03064 10.9631V14.0512C8.03064 14.2 8.11006 14.3376 8.23897 14.412L10.9583 15.982C11.236 16.1424 11.5833 15.9419 11.5833 15.6212V12.5331C11.5833 12.3842 11.5038 12.2467 11.3749 12.1722L8.65564 10.6023Z" fill="#2563EB"/>
<path d="M5.51138 7.77267L6.75485 8.49059C6.88377 8.56502 7.0426 8.56502 7.17152 8.49059L11.375 6.06369C11.504 5.98926 11.5834 5.85171 11.5834 5.70285V4.267C11.5834 3.94625 11.2362 3.74578 10.9584 3.90615L5.51138 7.05098C5.2336 7.21136 5.2336 7.6123 5.51138 7.77267Z" fill="#93C5FD"/>
<path d="M12.4167 4.26698V5.70282C12.4167 5.85168 12.4961 5.98923 12.625 6.06366L16.8286 8.49057C16.9575 8.565 17.1163 8.565 17.2452 8.49057L18.4887 7.77265C18.7665 7.61228 18.7665 7.21134 18.4887 7.05096L13.0417 3.90613C12.7639 3.74576 12.4167 3.94623 12.4167 4.26698Z" fill="#93C5FD"/>
<path d="M17.4536 9.5731V14.4269C17.4536 14.5758 17.533 14.7134 17.6619 14.7878L18.9054 15.5057C19.1832 15.6661 19.5304 15.4656 19.5304 15.1449L19.5304 8.85518C19.5304 8.53443 19.1832 8.33396 18.9054 8.49433L17.6619 9.21226C17.533 9.28669 17.4536 9.42424 17.4536 9.5731Z" fill="#93C5FD"/>
<path d="M16.8286 15.5095L12.625 17.9364C12.4961 18.0108 12.4167 18.1484 12.4167 18.2972V19.7331C12.4167 20.0538 12.7639 20.2543 13.0417 20.0939L18.4887 16.9491C18.7665 16.7887 18.7665 16.3878 18.4887 16.2274L17.2452 15.5095C17.1163 15.435 16.9575 15.435 16.8286 15.5095Z" fill="#93C5FD"/>
<path d="M11.375 17.9363L7.17153 15.5094C7.04261 15.435 6.88378 15.435 6.75486 15.5094L5.51138 16.2274C5.23361 16.3877 5.23361 16.7887 5.51138 16.9491L10.9584 20.0939C11.2362 20.2543 11.5834 20.0538 11.5834 19.733V18.2972C11.5834 18.1483 11.504 18.0108 11.375 17.9363Z" fill="#93C5FD"/>
<path d="M6.54654 14.4269V9.57314C6.54654 9.42427 6.46712 9.28672 6.33821 9.21229L5.09473 8.49437C4.81695 8.33399 4.46973 8.53446 4.46973 8.85521V15.1448C4.46973 15.4656 4.81695 15.6661 5.09473 15.5057L6.33821 14.7878C6.46712 14.7133 6.54654 14.5758 6.54654 14.4269Z" fill="#93C5FD"/>
</svg>
