<svg width="24" height="24" viewBox="0 0 24 24" fill="none" xmlns="http://www.w3.org/2000/svg">
<path fill-rule="evenodd" clip-rule="evenodd" d="M12.4166 15.6212C12.4166 15.9419 12.7638 16.1424 13.0416 15.982L15.7609 14.412C15.8898 14.3376 15.9692 14.2 15.9692 14.0512V10.9112C15.9692 10.5905 15.622 10.39 15.3442 10.5504L12.6249 12.1204C12.496 12.1948 12.4166 12.3323 12.4166 12.4812V15.6212ZM14.9275 9.82869C15.2053 9.66832 15.2053 9.26738 14.9275 9.107L12.2083 7.53702C12.0793 7.46259 11.9205 7.46259 11.7916 7.53702L9.02738 9.13294C8.7496 9.29332 8.7496 9.69425 9.02738 9.85463L11.7467 11.4246C11.8756 11.499 12.0344 11.499 12.1633 11.4246L14.9275 9.82869ZM8.65564 10.6023C8.37786 10.4419 8.03064 10.6423 8.03064 10.9631V14.0512C8.03064 14.2 8.11006 14.3376 8.23897 14.412L10.9583 15.982C11.236 16.1424 11.5833 15.9419 11.5833 15.6212V12.5331C11.5833 12.3842 11.5038 12.2467 11.3749 12.1722L8.65564 10.6023Z" fill="#2563EB"/>
<path d="M5.51137 7.77269L6.75484 8.49061C6.88376 8.56504 7.04259 8.56504 7.17151 8.49061L11.375 6.06371C11.504 5.98928 11.5834 5.85173 11.5834 5.70287V4.26702C11.5834 3.94627 11.2362 3.7458 10.9584 3.90617L5.51137 7.051C5.23359 7.21138 5.23359 7.61232 5.51137 7.77269Z" fill="#93C5FD"/>
<path d="M12.4167 4.26702V5.70286C12.4167 5.85172 12.4961 5.98927 12.625 6.0637L16.8286 8.49061C16.9575 8.56504 17.1163 8.56504 17.2452 8.49061L18.4887 7.77269C18.7665 7.61232 18.7665 7.21138 18.4887 7.051L13.0417 3.90617C12.7639 3.7458 12.4167 3.94627 12.4167 4.26702Z" fill="#93C5FD"/>
<path d="M17.4536 9.57308V14.4269C17.4536 14.5758 17.533 14.7134 17.6619 14.7878L18.9054 15.5057C19.1832 15.6661 19.5304 15.4656 19.5304 15.1449V8.85516C19.5304 8.53441 19.1832 8.33394 18.9054 8.49431L17.6619 9.21224C17.533 9.28667 17.4536 9.42422 17.4536 9.57308Z" fill="#93C5FD"/>
<path d="M16.8286 15.5095L12.625 17.9364C12.4961 18.0108 12.4167 18.1484 12.4167 18.2972V19.7331C12.4167 20.0538 12.7639 20.2543 13.0417 20.0939L18.4887 16.9491C18.7665 16.7887 18.7665 16.3878 18.4887 16.2274L17.2452 15.5095C17.1163 15.435 16.9575 15.435 16.8286 15.5095Z" fill="#93C5FD"/>
<path d="M11.375 17.9363L7.17152 15.5094C7.0426 15.435 6.88377 15.435 6.75485 15.5094L5.51137 16.2274C5.2336 16.3877 5.2336 16.7887 5.51137 16.9491L10.9584 20.0939C11.2362 20.2543 11.5834 20.0538 11.5834 19.733V18.2972C11.5834 18.1483 11.504 18.0108 11.375 17.9363Z" fill="#93C5FD"/>
<path d="M6.54654 14.4268V9.57308C6.54654 9.42421 6.46712 9.28666 6.33821 9.21223L5.09473 8.49431C4.81695 8.33393 4.46973 8.5344 4.46973 8.85515V15.1447C4.46973 15.4655 4.81695 15.666 5.09473 15.5056L6.33821 14.7877C6.46712 14.7132 6.54654 14.5757 6.54654 14.4268Z" fill="#93C5FD"/>
</svg>
