<svg width="24" height="24" viewBox="0 0 24 24" fill="none" xmlns="http://www.w3.org/2000/svg">
<path fill-rule="evenodd" clip-rule="evenodd" d="M5.72431 20.5941C5.54876 20.5735 5.37321 20.4858 5.19765 20.398C5.11928 20.3588 5.05239 20.3158 4.99698 20.2689C4.76859 20.0759 4.73515 19.8179 4.89664 19.4949C4.89664 19.4448 4.92172 19.3946 4.94681 19.3444C4.97189 19.2943 4.99698 19.2441 4.99698 19.1939C4.59563 19.1939 4.39495 18.9932 4.29461 18.6922C3.79292 17.3878 3.89326 16.3845 4.89664 15.3811C4.92352 15.3273 4.95041 15.2807 4.97537 15.2375C5.04354 15.1194 5.09731 15.0263 5.09731 14.8794C5.09731 13.575 5.29799 12.3709 6.20103 11.2672C6.50205 10.8659 6.9034 10.4645 7.40509 10.1635C7.60576 10.0632 7.60576 9.96284 7.50542 9.76216C7.10407 9.26047 6.9034 8.75878 6.80306 8.15675C6.72279 7.7554 6.89938 7.35405 7.07598 6.9527C7.12013 6.85236 7.16428 6.75202 7.20441 6.65169C7.30475 6.55135 7.40509 6.45101 7.50542 6.45101C7.7999 6.37739 8.04037 6.19574 8.26645 6.02495C8.34849 5.96297 8.42865 5.90242 8.5088 5.84898C9.21117 5.14662 10.0139 4.8456 11.0173 4.8456C11.2119 4.8456 11.3122 4.75118 11.318 4.65393C11.3182 4.65093 11.3183 4.64793 11.3183 4.64493C11.3278 4.60671 11.3383 4.56848 11.3497 4.53026C11.403 4.35093 11.4764 4.1716 11.5699 3.99228C11.6427 3.85253 11.7277 3.71279 11.8248 3.57305C11.8554 3.52899 11.8872 3.48493 11.9203 3.44087L12.2213 3.13986C12.375 2.98619 12.5875 2.95019 12.7237 3.07694C12.7261 3.07918 12.7285 3.08146 12.7308 3.0838C12.7693 3.12199 12.8012 3.17376 12.8233 3.2402C13.029 3.58304 13.1879 3.92588 13.3319 4.2367C13.3359 4.24527 13.3398 4.25381 13.3438 4.26232C13.4062 4.39699 13.4659 4.52541 13.5257 4.64493C13.5266 4.64676 13.5275 4.64857 13.5284 4.65037C13.5297 4.65277 13.5309 4.65514 13.5321 4.65748C13.6303 4.84556 13.7285 4.84347 13.8267 4.74527C14.183 4.59259 14.3585 4.51735 14.4712 4.57192C14.5807 4.62494 14.6309 4.8005 14.7297 5.14662C14.7798 5.35688 14.8219 5.56615 14.8559 5.77442C14.8909 5.98904 14.9173 6.2026 14.935 6.4151C15.0724 8.06283 14.6865 9.64676 13.7264 11.1669C13.6762 11.2672 13.6009 11.3676 13.5257 11.4679C13.4504 11.5682 13.3752 11.6686 13.325 11.7689C13.2247 11.9696 13.2247 12.0699 13.4254 12.2706C14.3284 13.0733 14.9304 14.177 15.1311 15.3811C15.1539 15.5404 15.1715 15.7048 15.1839 15.8721C15.1857 15.8964 15.1874 15.9207 15.189 15.9451C15.2124 16.305 15.2121 16.6763 15.1882 17.0359C15.186 17.0694 15.1836 17.1027 15.1809 17.136C15.1687 17.29 15.1521 17.4415 15.1311 17.5885C15.1061 17.6884 15.0936 17.7634 15.0935 17.8182C15.0931 17.9837 15.206 17.9649 15.4321 17.8895C15.5659 17.8513 15.6997 17.8094 15.8328 17.7639C15.8834 17.7466 15.934 17.7288 15.9844 17.7104C16.2215 17.624 16.4555 17.5259 16.6825 17.4162C16.6984 17.4085 16.7142 17.4008 16.7301 17.393C16.8212 17.3481 16.9111 17.3013 16.9995 17.2526C17.0622 17.2181 17.1241 17.1827 17.1853 17.1463C17.2715 17.0949 17.3561 17.0416 17.4389 16.9865C17.525 16.9373 17.6096 16.8881 17.6932 16.8395C18.1204 16.591 18.5227 16.357 18.974 16.2114C19.1552 16.1529 19.3442 16.1087 19.546 16.0834C19.6503 16.0834 19.7426 16.0714 19.8312 16.0598C19.8554 16.0567 19.8792 16.0535 19.903 16.0507C19.9614 16.0438 20.0192 16.0385 20.0789 16.0389C20.1628 16.0393 20.2504 16.0507 20.3487 16.0834C20.6497 16.1838 20.8504 16.4848 20.8504 16.7858C20.8504 17.0868 20.6497 17.2875 20.3487 17.3878C20.188 17.42 20.0298 17.4598 19.8743 17.5066C19.8258 17.5212 19.7776 17.5364 19.7296 17.5523C19.668 17.5727 19.6068 17.5942 19.546 17.6167C19.4534 17.6509 19.3618 17.6874 19.2712 17.7262C18.9274 17.873 18.5973 18.0509 18.281 18.2497C18.2515 18.2682 18.2221 18.2869 18.1928 18.3059C18.0034 18.4281 17.819 18.5577 17.6395 18.6922C17.1325 19.0472 16.5741 19.3509 16.0034 19.6033C15.9792 19.614 15.9551 19.6246 15.9309 19.6351C15.6682 19.7491 15.4034 19.8522 15.14 19.9446C14.8664 20.0405 14.5945 20.1247 14.3284 20.1973C14.2281 20.1973 14.0274 20.2976 13.927 20.398C13.6132 20.6334 13.2994 20.6847 12.9375 20.7438C12.8367 20.7603 12.732 20.7774 12.6227 20.7993C12.5372 20.8071 12.4524 20.8149 12.3681 20.8226C11.3631 20.9146 10.4302 21 9.41184 21C9.34085 21 9.26987 21 9.19756 20.9987C9.16977 21.0213 9.14256 21.0413 9.11651 21.0587L9.1108 21.0501C9.12086 21.0326 9.13073 21.015 9.14044 20.9974C9.11847 20.9967 9.09634 20.9959 9.07404 20.995C8.87535 20.9864 8.66191 20.963 8.40846 20.8997C8.32917 20.8732 8.24988 20.8398 8.17425 20.7995C8.11578 20.7683 8.0595 20.7329 8.00711 20.6934C7.9309 20.6359 7.86291 20.5696 7.80837 20.4945C7.76482 20.4345 7.72984 20.3689 7.7061 20.2976C7.63443 20.011 7.66515 19.7755 7.79825 19.5912C7.8059 19.5806 7.8139 19.5701 7.82224 19.5599C7.87185 19.4988 7.93348 19.4437 8.00711 19.3946C8.11226 19.3946 8.18986 19.367 8.25435 19.3408C8.26196 19.3377 8.26938 19.3347 8.27665 19.3316C8.32534 19.3115 8.3669 19.2943 8.40846 19.2943C8.26156 19.2208 8.16843 19.1474 8.0897 19.0345C8.06088 18.9932 8.034 18.9467 8.00711 18.8929C7.90678 18.7926 7.90677 18.7926 7.80644 18.8929C7.78575 18.9343 7.76933 18.9757 7.75541 19.017C7.75518 19.0177 7.75495 19.0184 7.75472 19.0191C7.73524 19.0774 7.72067 19.1356 7.7061 19.1939C7.68102 19.2943 7.65593 19.3946 7.60576 19.4949C7.4623 19.9731 7.27327 20.2918 7.00607 20.4726C6.97093 20.4964 6.93444 20.5178 6.89652 20.5369C6.86316 20.5537 6.8287 20.5686 6.79308 20.5818C6.64118 20.6381 6.46828 20.6621 6.27048 20.6565C6.12712 20.6525 5.97069 20.6329 5.79968 20.5986C5.77456 20.5986 5.74944 20.5971 5.72431 20.5941ZM5.54276 22.5852C4.94438 22.5236 4.45849 22.2683 4.32827 22.1998C4.31739 22.1941 4.309 22.1897 4.30323 22.1868C3.82681 21.9486 3.20109 21.4854 2.92402 20.6542C2.8638 20.4735 2.82719 20.2969 2.80921 20.1262C2.61912 19.869 2.49565 19.6051 2.41473 19.3757C2.09935 18.5448 1.89425 17.6035 2.05721 16.6024C2.19653 15.7466 2.57714 15.0121 3.10671 14.3772C3.16076 12.9928 3.47126 11.4627 4.62662 10.0333C4.7635 9.85322 4.91689 9.67037 5.08738 9.49011C4.9736 9.17199 4.89182 8.84647 4.83465 8.51153C4.69541 7.76631 4.86792 7.12986 5.00314 6.74352C5.07379 6.54166 5.15327 6.35738 5.21061 6.22632C5.22623 6.19062 5.24015 6.15896 5.25276 6.13028C5.29386 6.03679 5.32099 5.97507 5.34746 5.90891C5.44805 5.65742 5.59867 5.429 5.7902 5.23747C5.7919 5.23577 5.79427 5.23338 5.79725 5.23035C5.83633 5.19081 5.98203 5.04339 6.15491 4.91372C6.26944 4.82783 6.53684 4.63839 6.92457 4.53043C6.96036 4.505 7.00211 4.47352 7.07627 4.41752L7.08029 4.41448C7.11951 4.38487 7.17168 4.34547 7.23155 4.30203C8.01219 3.56903 8.89464 3.13633 9.85869 2.95163C9.99547 2.70382 10.1508 2.46688 10.3203 2.24087C10.3771 2.16516 10.4392 2.09358 10.5061 2.02666L10.8071 1.72565C11.2321 1.3006 11.9306 0.919661 12.7808 1.01413C13.6518 1.1109 14.2922 1.66205 14.6118 2.33669C14.6577 2.41705 14.7031 2.49991 14.7475 2.5834C14.9163 2.61099 15.0954 2.66059 15.2786 2.74205C16.0718 3.09458 16.3674 3.78046 16.4489 3.97604C16.5357 4.18441 16.6043 4.42613 16.6427 4.56171C16.6463 4.57452 16.6497 4.58638 16.6528 4.59718C16.661 4.62574 16.6685 4.65448 16.6754 4.68338C17.2598 7.13783 16.9594 9.53941 15.6886 11.7819C16.3841 12.6904 16.8592 13.7556 17.0741 14.8855C17.6371 14.572 18.4 14.2111 19.2979 14.0989C19.3706 14.0898 19.4438 14.0847 19.5171 14.0837C19.5179 14.0836 19.5187 14.0835 19.5196 14.0834C19.533 14.0818 19.5437 14.0804 19.5636 14.0778C19.5723 14.0766 19.5827 14.0753 19.5958 14.0736C19.6311 14.069 19.6864 14.0619 19.7483 14.0557C20.0365 14.0269 20.4699 14.0157 20.9811 14.1861C22.1414 14.5729 22.8504 15.6697 22.8504 16.7858C22.8504 18.237 21.7859 19.0169 20.9811 19.2852C20.9025 19.3114 20.8222 19.3327 20.7409 19.349C20.1351 19.4702 19.5068 19.7918 18.8396 20.2922C18.8221 20.3053 18.8044 20.3182 18.7865 20.3307C17.6006 21.1608 16.2361 21.7341 15.0047 22.085C14.2287 22.6084 13.2954 22.7249 13.0643 22.7538C13.0391 22.7569 13.0223 22.759 13.0149 22.7605C12.9451 22.7744 12.8746 22.7847 12.8037 22.7911C12.7155 22.7991 12.6271 22.8072 12.5384 22.8154C11.5468 22.9063 10.5259 23 9.41184 23L9.3886 23C9.06827 23.0001 8.56465 23.0003 7.92339 22.8399C7.87373 22.8275 7.82457 22.8132 7.77601 22.797C7.61631 22.7438 7.41694 22.6634 7.20475 22.5475C6.60417 22.7062 6.01904 22.6686 5.54276 22.5852ZM9.05051 21.1759C9.05269 21.175 9.05225 21.1752 9.04965 21.1762L9.05051 21.1759ZM15.3039 3.72879C15.3077 3.73667 15.3113 3.74391 15.3146 3.7505L15.3145 3.75038C15.314 3.74934 15.3106 3.74177 15.3039 3.72879ZM6.87024 4.56673C6.87025 4.5667 6.87118 4.56614 6.873 4.56514C6.87114 4.56625 6.87023 4.56675 6.87024 4.56673ZM6.49828 8.3809C6.5024 8.37881 6.50652 8.37673 6.51066 8.37466L6.50935 8.37531C6.50675 8.37661 6.50303 8.37847 6.49828 8.3809Z" fill="#60A5FA"/>
</svg>
