<svg width="24" height="24" viewBox="0 0 24 24" fill="none" xmlns="http://www.w3.org/2000/svg">
<circle cx="12" cy="12" r="10.5" fill="white"/>
<path d="M3 12C3 7.00909 7.00909 3 12 3C16.9909 3 21 7.00909 21 12C21 16.9909 16.9909 21 12 21C7.00909 21 3 16.9909 3 12ZM12 4.63636C7.90909 4.63636 4.63636 7.90909 4.63636 12C4.63636 16.0909 7.90909 19.3636 12 19.3636C16.0909 19.3636 19.3636 16.0909 19.3636 12C19.3636 7.90909 16.0909 4.63636 12 4.63636ZM15.4364 7.90909C15.1091 7.90909 14.7818 8.07273 14.5364 8.31818L8.23636 14.6182C8.07273 14.7818 7.90909 15.1091 7.90909 15.4364C7.90909 15.7636 8.07273 16.1727 8.4 16.4182C9.38182 17.2364 10.6909 17.7273 12 17.7273C13.5545 17.7273 14.9455 17.1545 16.0091 16.0091C17.0727 14.9455 17.7273 13.4727 17.7273 12C17.7273 10.6909 17.2364 9.38182 16.4182 8.4C16.1727 8.07273 15.8455 7.90909 15.4364 7.90909Z" fill="#413cb8"/>
</svg>
