<svg width="18" height="19" viewBox="0 0 18 19" fill="none" xmlns="http://www.w3.org/2000/svg">
<path fill-rule="evenodd" clip-rule="evenodd" d="M2.91156 1.879C2 2.75725 2 4.17175 2 7V10C2 12.8282 2 14.2427 2.91156 15.121C3.82233 16 5.28922 16 8.22222 16H9.77778C12.7108 16 14.1777 16 15.0884 15.121C16 14.2427 16 12.8282 16 10V7C16 4.17175 16 2.75725 15.0884 1.879C14.1777 1 12.7108 1 9.77778 1H9V2.5H10.1667C10.533 2.5 10.7166 2.5 10.8309 2.6095C10.9444 2.71975 10.9444 2.89675 10.9444 3.25C10.9444 3.60325 10.9444 3.78025 10.8309 3.8905C10.7166 4 10.5322 4 10.1667 4H9V5.5H10.1667C10.533 5.5 10.7166 5.5 10.8309 5.6095C10.9444 5.71975 10.9444 5.89675 10.9444 6.25C10.9444 6.60325 10.9444 6.78025 10.8309 6.8905C10.7166 7 10.5322 7 10.1667 7H9.77778C9.41144 7 9.22789 7 9.11356 6.8905C9 6.78025 9 6.6025 9 6.25V5.5H7.83333C7.467 5.5 7.28344 5.5 7.16911 5.3905C7.05556 5.28025 7.05556 5.1025 7.05556 4.75C7.05556 4.3975 7.05556 4.21975 7.16911 4.1095C7.28344 4 7.46778 4 7.83333 4H9V2.5H7.83333C7.467 2.5 7.28344 2.5 7.16911 2.3905C7.05556 2.28025 7.05556 2.1025 7.05556 1.75V1.00225C4.88244 1.01725 3.69244 1.12525 2.91156 1.879ZM7.05556 9.15625V9.25C7.05556 9.74728 7.26042 10.2242 7.62507 10.5758C7.98972 10.9275 8.4843 11.125 9 11.125C9.5157 11.125 10.0103 10.9275 10.3749 10.5758C10.7396 10.2242 10.9444 9.74728 10.9444 9.25V9.15625C10.9444 8.9822 10.8727 8.81528 10.7451 8.69221C10.6175 8.56914 10.4444 8.5 10.2639 8.5H7.73611C7.55562 8.5 7.38251 8.56914 7.25489 8.69221C7.12726 8.81528 7.05556 8.9822 7.05556 9.15625Z" fill="#FBBF24"/>
</svg>
